ISO-10303-21;
HEADER;
FILE_DESCRIPTION(('CATIA V5 STEP Exchange','CAx-IF Rec.Pracs.--- Model Styling and Organization---1.4--- 2014-01-23','CAx-IF Rec.Pracs.---3D Tessellated Data Validation Properties---0.5---2014-09-14'),'2;1');

FILE_NAME('C:\\Users\\PCKT-13\\Documents\\GrabCAD\\I+D\\SERIE_LEXA\\IKOT-1360-170921A-LEXA_WAIST_SUPPORT\\2D\\1360.000.005.001.PLACA.stp','2021-10-25T21:37:44+00:00',('none'),('none'),'CATIA Version 5-6 Release 2018','CATIA V5 STEP AP242','none');

FILE_SCHEMA(('AP242_MANAGED_MODEL_BASED_3D_ENGINEERING_MIM_LF  {1 0 10303 442 1 1 4}'));

ENDSEC;
DATA;
#5=PRODUCT('1360.000.005.001.PLACA','','',(#2)) ;
#2=PRODUCT_CONTEXT(' ',#1,'mechanical') ;
#1=APPLICATION_CONTEXT('managed model based 3d engineering') ;
#10=PRODUCT_DEFINITION('',' ',#6,#3) ;
#3=PRODUCT_DEFINITION_CONTEXT('part definition',#1,' ') ;
#11=PRODUCT_DEFINITION_SHAPE(' ',' ',#10) ;
#501=MECHANICAL_DESIGN_GEOMETRIC_PRESENTATION_REPRESENTATION(' ',(#29),#16) ;
#19=SHAPE_REPRESENTATION(' ',(#18),#16) ;
#7=PRODUCT_CATEGORY('part','specification') ;
#17=CARTESIAN_POINT(' ',(0.,0.,0.)) ;
#31=CARTESIAN_POINT('Axis2P3D Location',(-26.6001957826,3.89748025914,0.)) ;
#36=CARTESIAN_POINT('Line Origine',(-28.1470082605,4.25459005791,3.175)) ;
#40=CARTESIAN_POINT('Vertex',(-26.6001957826,3.89748025914,3.175)) ;
#42=CARTESIAN_POINT('Vertex',(-29.6938207383,4.61169985668,3.175)) ;
#45=CARTESIAN_POINT('Line Origine',(-29.6938207383,4.61169985668,1.5875)) ;
#49=CARTESIAN_POINT('Vertex',(-29.6938207383,4.61169985668,0.)) ;
#52=CARTESIAN_POINT('Line Origine',(-28.1470082605,4.25459005791,0.)) ;
#56=CARTESIAN_POINT('Vertex',(-26.6001957826,3.89748025914,0.)) ;
#59=CARTESIAN_POINT('Line Origine',(-26.6001957826,3.89748025914,1.5875)) ;
#71=CARTESIAN_POINT('Axis2P3D Location',(-29.6938207383,4.61169985668,0.)) ;
#76=CARTESIAN_POINT('Line Origine',(-27.4443101949,14.3554005045,3.175)) ;
#80=CARTESIAN_POINT('Vertex',(-25.1947996514,24.0991011524,3.175)) ;
#83=CARTESIAN_POINT('Line Origine',(-25.1947996514,24.0991011524,1.5875)) ;
#87=CARTESIAN_POINT('Vertex',(-25.1947996514,24.0991011524,0.)) ;
#90=CARTESIAN_POINT('Line Origine',(-27.4443101949,14.3554005045,0.)) ;
#102=CARTESIAN_POINT('Axis2P3D Location',(-25.1947996514,24.0991011524,0.)) ;
#107=CARTESIAN_POINT('Line Origine',(-23.6479871736,23.7419913536,3.175)) ;
#111=CARTESIAN_POINT('Vertex',(-22.1011746957,23.3848815548,3.175)) ;
#114=CARTESIAN_POINT('Line Origine',(-22.1011746957,23.3848815548,1.5875)) ;
#118=CARTESIAN_POINT('Vertex',(-22.1011746957,23.3848815548,0.)) ;
#121=CARTESIAN_POINT('Line Origine',(-23.6479871736,23.7419913536,0.)) ;
#133=CARTESIAN_POINT('Axis2P3D Location',(0.,4.5,3.175)) ;
#138=CARTESIAN_POINT('Line Origine',(1.5875,4.5,3.175)) ;
#142=CARTESIAN_POINT('Vertex',(0.,4.5,3.175)) ;
#144=CARTESIAN_POINT('Vertex',(3.175,4.5,3.175)) ;
#147=CARTESIAN_POINT('Line Origine',(0.,4.5,1.5875)) ;
#151=CARTESIAN_POINT('Vertex',(0.,4.5,1.7763568394E-015)) ;
#154=CARTESIAN_POINT('Line Origine',(1.5875,4.5,1.7763568394E-015)) ;
#158=CARTESIAN_POINT('Vertex',(3.175,4.5,1.7763568394E-015)) ;
#161=CARTESIAN_POINT('Line Origine',(3.175,4.5,1.5875)) ;
#173=CARTESIAN_POINT('Axis2P3D Location',(0.,102.,0.)) ;
#178=CARTESIAN_POINT('Line Origine',(0.,2.25,3.175)) ;
#182=CARTESIAN_POINT('Vertex',(0.,0.,3.175)) ;
#185=CARTESIAN_POINT('Line Origine',(0.,0.,1.5875)) ;
#189=CARTESIAN_POINT('Vertex',(0.,0.,0.)) ;
#192=CARTESIAN_POINT('Line Origine',(0.,2.25,0.)) ;
#204=CARTESIAN_POINT('Axis2P3D Location',(3.175,0.,0.)) ;
#209=CARTESIAN_POINT('Line Origine',(3.175,14.5,1.7763568394E-015)) ;
#213=CARTESIAN_POINT('Vertex',(3.175,24.5,1.7763568394E-015)) ;
#216=CARTESIAN_POINT('Line Origine',(3.175,24.5,1.5875)) ;
#220=CARTESIAN_POINT('Vertex',(3.175,24.5,3.175)) ;
#223=CARTESIAN_POINT('Line Origine',(3.175,14.5,3.175)) ;
#235=CARTESIAN_POINT('Axis2P3D Location',(0.,24.5,0.)) ;
#240=CARTESIAN_POINT('Line Origine',(1.5875,24.5,0.)) ;
#244=CARTESIAN_POINT('Vertex',(0.,24.5,0.)) ;
#247=CARTESIAN_POINT('Line Origine',(0.,24.5,1.5875)) ;
#251=CARTESIAN_POINT('Vertex',(0.,24.5,3.175)) ;
#254=CARTESIAN_POINT('Line Origine',(1.5875,24.5,3.175)) ;
#266=CARTESIAN_POINT('Line Origine',(0.,63.25,0.)) ;
#270=CARTESIAN_POINT('Vertex',(0.,102.,0.)) ;
#273=CARTESIAN_POINT('Line Origine',(0.,102.,1.5875)) ;
#277=CARTESIAN_POINT('Vertex',(0.,102.,3.175)) ;
#280=CARTESIAN_POINT('Line Origine',(0.,63.25,3.175)) ;
#292=CARTESIAN_POINT('Axis2P3D Location',(-19.4196133106,102.,0.)) ;
#297=CARTESIAN_POINT('Line Origine',(-9.7098066553,102.,0.)) ;
#301=CARTESIAN_POINT('Vertex',(-19.4196133106,102.,0.)) ;
#304=CARTESIAN_POINT('Line Origine',(-19.4196133106,102.,1.5875)) ;
#308=CARTESIAN_POINT('Vertex',(-19.4196133106,102.,3.175)) ;
#311=CARTESIAN_POINT('Line Origine',(-9.7098066553,102.,3.175)) ;
#323=CARTESIAN_POINT('Axis2P3D Location',(-19.4196133106,35.,0.)) ;
#328=CARTESIAN_POINT('Line Origine',(-19.4196133106,38.418068249,1.5875)) ;
#332=CARTESIAN_POINT('Vertex',(-19.4196133106,38.418068249,3.175)) ;
#334=CARTESIAN_POINT('Vertex',(-19.4196133106,38.418068249,0.)) ;
#337=CARTESIAN_POINT('Line Origine',(-19.4196133106,70.2090341245,3.175)) ;
#342=CARTESIAN_POINT('Line Origine',(-19.4196133106,70.2090341245,0.)) ;
#354=CARTESIAN_POINT('Axis2P3D Location',(-49.4196133106,38.418068249,1.5875)) ;
#359=CARTESIAN_POINT('Line Origine',(-20.188511367,31.6695366187,1.5875)) ;
#363=CARTESIAN_POINT('Vertex',(-20.188511367,31.6695366187,3.175)) ;
#365=CARTESIAN_POINT('Vertex',(-20.188511367,31.6695366187,0.)) ;
#368=CARTESIAN_POINT('Axis2P3D Location',(-49.4196133106,38.418068249,3.175)) ;
#373=CARTESIAN_POINT('Axis2P3D Location',(-49.4196133106,38.418068249,0.)) ;
#385=CARTESIAN_POINT('Axis2P3D Location',(-27.5,0.,0.)) ;
#390=CARTESIAN_POINT('Line Origine',(-21.1448430314,27.5272090868,0.)) ;
#395=CARTESIAN_POINT('Line Origine',(-21.1448430314,27.5272090868,3.175)) ;
#407=CARTESIAN_POINT('Line Origine',(-27.0500978913,1.94874012957,0.)) ;
#411=CARTESIAN_POINT('Vertex',(-27.5,0.,0.)) ;
#414=CARTESIAN_POINT('Line Origine',(-27.5,0.,1.5875)) ;
#418=CARTESIAN_POINT('Vertex',(-27.5,0.,3.175)) ;
#421=CARTESIAN_POINT('Line Origine',(-27.0500978913,1.94874012957,3.175)) ;
#433=CARTESIAN_POINT('Axis2P3D Location',(0.,0.,0.)) ;
#438=CARTESIAN_POINT('Line Origine',(-13.75,0.,0.)) ;
#443=CARTESIAN_POINT('Line Origine',(-13.75,0.,3.175)) ;
#455=CARTESIAN_POINT('Axis2P3D Location',(0.,0.,3.175)) ;
#477=CARTESIAN_POINT('Axis2P3D Location',(0.,0.,0.)) ;
#8=PRODUCT_RELATED_PRODUCT_CATEGORY('part',$,(#5)) ;
#29=STYLED_ITEM(' ',(#28),#21) ;
#28=PRESENTATION_STYLE_ASSIGNMENT((#27)) ;
#27=SURFACE_STYLE_USAGE(.BOTH.,#26) ;
#26=SURFACE_SIDE_STYLE(' ',(#25)) ;
#25=SURFACE_STYLE_FILL_AREA(#24) ;
#24=FILL_AREA_STYLE(' ',(#23)) ;
#23=FILL_AREA_STYLE_COLOUR(' ',#22) ;
#38=VECTOR('Line Direction',#37,1.) ;
#47=VECTOR('Line Direction',#46,1.) ;
#54=VECTOR('Line Direction',#53,1.) ;
#61=VECTOR('Line Direction',#60,1.) ;
#78=VECTOR('Line Direction',#77,1.) ;
#85=VECTOR('Line Direction',#84,1.) ;
#92=VECTOR('Line Direction',#91,1.) ;
#109=VECTOR('Line Direction',#108,1.) ;
#116=VECTOR('Line Direction',#115,1.) ;
#123=VECTOR('Line Direction',#122,1.) ;
#140=VECTOR('Line Direction',#139,1.) ;
#149=VECTOR('Line Direction',#148,1.) ;
#156=VECTOR('Line Direction',#155,1.) ;
#163=VECTOR('Line Direction',#162,1.) ;
#180=VECTOR('Line Direction',#179,1.) ;
#187=VECTOR('Line Direction',#186,1.) ;
#194=VECTOR('Line Direction',#193,1.) ;
#211=VECTOR('Line Direction',#210,1.) ;
#218=VECTOR('Line Direction',#217,1.) ;
#225=VECTOR('Line Direction',#224,1.) ;
#242=VECTOR('Line Direction',#241,1.) ;
#249=VECTOR('Line Direction',#248,1.) ;
#256=VECTOR('Line Direction',#255,1.) ;
#268=VECTOR('Line Direction',#267,1.) ;
#275=VECTOR('Line Direction',#274,1.) ;
#282=VECTOR('Line Direction',#281,1.) ;
#299=VECTOR('Line Direction',#298,1.) ;
#306=VECTOR('Line Direction',#305,1.) ;
#313=VECTOR('Line Direction',#312,1.) ;
#330=VECTOR('Line Direction',#329,1.) ;
#339=VECTOR('Line Direction',#338,1.) ;
#344=VECTOR('Line Direction',#343,1.) ;
#361=VECTOR('Line Direction',#360,1.) ;
#392=VECTOR('Line Direction',#391,1.) ;
#397=VECTOR('Line Direction',#396,1.) ;
#409=VECTOR('Line Direction',#408,1.) ;
#416=VECTOR('Line Direction',#415,1.) ;
#423=VECTOR('Line Direction',#422,1.) ;
#440=VECTOR('Line Direction',#439,1.) ;
#445=VECTOR('Line Direction',#444,1.) ;
#32=DIRECTION('Axis2P3D Direction',(0.224951054344,0.974370064785,-0.)) ;
#33=DIRECTION('Axis2P3D XDirection',(-0.974370064785,0.224951054344,-0.)) ;
#37=DIRECTION('Vector Direction',(-0.974370064785,0.224951054344,0.)) ;
#46=DIRECTION('Vector Direction',(0.,0.,1.)) ;
#53=DIRECTION('Vector Direction',(-0.974370064785,0.224951054344,0.)) ;
#60=DIRECTION('Vector Direction',(0.,0.,1.)) ;
#72=DIRECTION('Axis2P3D Direction',(0.974370064785,-0.224951054344,0.)) ;
#73=DIRECTION('Axis2P3D XDirection',(0.224951054344,0.974370064785,0.)) ;
#77=DIRECTION('Vector Direction',(0.224951054344,0.974370064785,0.)) ;
#84=DIRECTION('Vector Direction',(0.,0.,1.)) ;
#91=DIRECTION('Vector Direction',(0.224951054344,0.974370064785,0.)) ;
#103=DIRECTION('Axis2P3D Direction',(-0.224951054344,-0.974370064785,0.)) ;
#104=DIRECTION('Axis2P3D XDirection',(0.974370064785,-0.224951054344,0.)) ;
#108=DIRECTION('Vector Direction',(0.974370064785,-0.224951054344,0.)) ;
#115=DIRECTION('Vector Direction',(0.,0.,1.)) ;
#122=DIRECTION('Vector Direction',(0.974370064785,-0.224951054344,0.)) ;
#134=DIRECTION('Axis2P3D Direction',(0.,-1.,0.)) ;
#135=DIRECTION('Axis2P3D XDirection',(0.,0.,-1.)) ;
#139=DIRECTION('Vector Direction',(1.,0.,0.)) ;
#148=DIRECTION('Vector Direction',(0.,0.,-1.)) ;
#155=DIRECTION('Vector Direction',(1.,0.,0.)) ;
#162=DIRECTION('Vector Direction',(0.,0.,-1.)) ;
#174=DIRECTION('Axis2P3D Direction',(-1.,0.,0.)) ;
#175=DIRECTION('Axis2P3D XDirection',(0.,-1.,0.)) ;
#179=DIRECTION('Vector Direction',(0.,-1.,0.)) ;
#186=DIRECTION('Vector Direction',(0.,0.,1.)) ;
#193=DIRECTION('Vector Direction',(0.,-1.,0.)) ;
#205=DIRECTION('Axis2P3D Direction',(1.,-0.,0.)) ;
#206=DIRECTION('Axis2P3D XDirection',(0.,1.,-0.)) ;
#210=DIRECTION('Vector Direction',(0.,-1.,0.)) ;
#217=DIRECTION('Vector Direction',(0.,0.,1.)) ;
#224=DIRECTION('Vector Direction',(0.,1.,0.)) ;
#236=DIRECTION('Axis2P3D Direction',(0.,1.,0.)) ;
#237=DIRECTION('Axis2P3D XDirection',(0.,0.,1.)) ;
#241=DIRECTION('Vector Direction',(1.,0.,0.)) ;
#248=DIRECTION('Vector Direction',(0.,0.,1.)) ;
#255=DIRECTION('Vector Direction',(1.,0.,0.)) ;
#267=DIRECTION('Vector Direction',(0.,-1.,0.)) ;
#274=DIRECTION('Vector Direction',(0.,0.,1.)) ;
#281=DIRECTION('Vector Direction',(0.,-1.,0.)) ;
#293=DIRECTION('Axis2P3D Direction',(0.,-1.,0.)) ;
#294=DIRECTION('Axis2P3D XDirection',(1.,0.,0.)) ;
#298=DIRECTION('Vector Direction',(1.,0.,0.)) ;
#305=DIRECTION('Vector Direction',(0.,0.,1.)) ;
#312=DIRECTION('Vector Direction',(1.,0.,0.)) ;
#324=DIRECTION('Axis2P3D Direction',(1.,0.,0.)) ;
#325=DIRECTION('Axis2P3D XDirection',(0.,1.,0.)) ;
#329=DIRECTION('Vector Direction',(0.,0.,1.)) ;
#338=DIRECTION('Vector Direction',(0.,1.,0.)) ;
#343=DIRECTION('Vector Direction',(0.,1.,0.)) ;
#355=DIRECTION('Axis2P3D Direction',(0.,0.,1.)) ;
#356=DIRECTION('Axis2P3D XDirection',(0.974370064785,-0.224951054344,0.)) ;
#360=DIRECTION('Vector Direction',(0.,0.,1.)) ;
#369=DIRECTION('Axis2P3D Direction',(0.,0.,1.)) ;
#374=DIRECTION('Axis2P3D Direction',(0.,0.,1.)) ;
#386=DIRECTION('Axis2P3D Direction',(0.974370064785,-0.224951054344,0.)) ;
#387=DIRECTION('Axis2P3D XDirection',(0.224951054344,0.974370064785,0.)) ;
#391=DIRECTION('Vector Direction',(0.224951054344,0.974370064785,0.)) ;
#396=DIRECTION('Vector Direction',(0.224951054344,0.974370064785,0.)) ;
#408=DIRECTION('Vector Direction',(0.224951054344,0.974370064785,0.)) ;
#415=DIRECTION('Vector Direction',(0.,0.,1.)) ;
#422=DIRECTION('Vector Direction',(0.224951054344,0.974370064785,0.)) ;
#434=DIRECTION('Axis2P3D Direction',(0.,1.,-0.)) ;
#435=DIRECTION('Axis2P3D XDirection',(-1.,0.,0.)) ;
#439=DIRECTION('Vector Direction',(-1.,0.,0.)) ;
#444=DIRECTION('Vector Direction',(-1.,0.,0.)) ;
#456=DIRECTION('Axis2P3D Direction',(0.,0.,1.)) ;
#457=DIRECTION('Axis2P3D XDirection',(1.,0.,0.)) ;
#478=DIRECTION('Axis2P3D Direction',(0.,0.,1.)) ;
#479=DIRECTION('Axis2P3D XDirection',(1.,0.,0.)) ;
#15=UNCERTAINTY_MEASURE_WITH_UNIT(LENGTH_MEASURE(0.005),#12,'distance_accuracy_value','CONFUSED CURVE UNCERTAINTY') ;
#18=AXIS2_PLACEMENT_3D(' ',#17,$,$) ;
#34=AXIS2_PLACEMENT_3D('Plane Axis2P3D',#31,#32,#33) ;
#74=AXIS2_PLACEMENT_3D('Plane Axis2P3D',#71,#72,#73) ;
#105=AXIS2_PLACEMENT_3D('Plane Axis2P3D',#102,#103,#104) ;
#136=AXIS2_PLACEMENT_3D('Plane Axis2P3D',#133,#134,#135) ;
#176=AXIS2_PLACEMENT_3D('Plane Axis2P3D',#173,#174,#175) ;
#207=AXIS2_PLACEMENT_3D('Plane Axis2P3D',#204,#205,#206) ;
#238=AXIS2_PLACEMENT_3D('Plane Axis2P3D',#235,#236,#237) ;
#295=AXIS2_PLACEMENT_3D('Plane Axis2P3D',#292,#293,#294) ;
#326=AXIS2_PLACEMENT_3D('Plane Axis2P3D',#323,#324,#325) ;
#357=AXIS2_PLACEMENT_3D('Cylinder Axis2P3D',#354,#355,#356) ;
#370=AXIS2_PLACEMENT_3D('Circle Axis2P3D',#368,#369,$) ;
#375=AXIS2_PLACEMENT_3D('Circle Axis2P3D',#373,#374,$) ;
#388=AXIS2_PLACEMENT_3D('Plane Axis2P3D',#385,#386,#387) ;
#436=AXIS2_PLACEMENT_3D('Plane Axis2P3D',#433,#434,#435) ;
#458=AXIS2_PLACEMENT_3D('Plane Axis2P3D',#455,#456,#457) ;
#480=AXIS2_PLACEMENT_3D('Plane Axis2P3D',#477,#478,#479) ;
#39=LINE('Line',#36,#38) ;
#48=LINE('Line',#45,#47) ;
#55=LINE('Line',#52,#54) ;
#62=LINE('Line',#59,#61) ;
#79=LINE('Line',#76,#78) ;
#86=LINE('Line',#83,#85) ;
#93=LINE('Line',#90,#92) ;
#110=LINE('Line',#107,#109) ;
#117=LINE('Line',#114,#116) ;
#124=LINE('Line',#121,#123) ;
#141=LINE('Line',#138,#140) ;
#150=LINE('Line',#147,#149) ;
#157=LINE('Line',#154,#156) ;
#164=LINE('Line',#161,#163) ;
#181=LINE('Line',#178,#180) ;
#188=LINE('Line',#185,#187) ;
#195=LINE('Line',#192,#194) ;
#212=LINE('Line',#209,#211) ;
#219=LINE('Line',#216,#218) ;
#226=LINE('Line',#223,#225) ;
#243=LINE('Line',#240,#242) ;
#250=LINE('Line',#247,#249) ;
#257=LINE('Line',#254,#256) ;
#269=LINE('Line',#266,#268) ;
#276=LINE('Line',#273,#275) ;
#283=LINE('Line',#280,#282) ;
#300=LINE('Line',#297,#299) ;
#307=LINE('Line',#304,#306) ;
#314=LINE('Line',#311,#313) ;
#331=LINE('Line',#328,#330) ;
#340=LINE('Line',#337,#339) ;
#345=LINE('Line',#342,#344) ;
#362=LINE('Line',#359,#361) ;
#393=LINE('Line',#390,#392) ;
#398=LINE('Line',#395,#397) ;
#410=LINE('Line',#407,#409) ;
#417=LINE('Line',#414,#416) ;
#424=LINE('Line',#421,#423) ;
#441=LINE('Line',#438,#440) ;
#446=LINE('Line',#443,#445) ;
#371=CIRCLE('generated circle',#370,30.) ;
#376=CIRCLE('generated circle',#375,30.) ;
#35=PLANE('',#34) ;
#75=PLANE('',#74) ;
#106=PLANE('',#105) ;
#137=PLANE('',#136) ;
#177=PLANE('',#176) ;
#208=PLANE('',#207) ;
#239=PLANE('',#238) ;
#296=PLANE('',#295) ;
#327=PLANE('',#326) ;
#389=PLANE('',#388) ;
#437=PLANE('',#436) ;
#459=PLANE('',#458) ;
#481=PLANE('',#480) ;
#358=CYLINDRICAL_SURFACE('generated cylinder',#357,30.) ;
#44=EDGE_CURVE('',#41,#43,#39,.T.) ;
#51=EDGE_CURVE('',#50,#43,#48,.T.) ;
#58=EDGE_CURVE('',#57,#50,#55,.T.) ;
#63=EDGE_CURVE('',#57,#41,#62,.T.) ;
#82=EDGE_CURVE('',#43,#81,#79,.T.) ;
#89=EDGE_CURVE('',#88,#81,#86,.T.) ;
#94=EDGE_CURVE('',#50,#88,#93,.T.) ;
#113=EDGE_CURVE('',#81,#112,#110,.T.) ;
#120=EDGE_CURVE('',#119,#112,#117,.T.) ;
#125=EDGE_CURVE('',#88,#119,#124,.T.) ;
#146=EDGE_CURVE('',#143,#145,#141,.T.) ;
#153=EDGE_CURVE('',#143,#152,#150,.T.) ;
#160=EDGE_CURVE('',#152,#159,#157,.T.) ;
#165=EDGE_CURVE('',#145,#159,#164,.T.) ;
#184=EDGE_CURVE('',#183,#143,#181,.F.) ;
#191=EDGE_CURVE('',#190,#183,#188,.T.) ;
#196=EDGE_CURVE('',#190,#152,#195,.F.) ;
#215=EDGE_CURVE('',#159,#214,#212,.F.) ;
#222=EDGE_CURVE('',#214,#221,#219,.T.) ;
#227=EDGE_CURVE('',#221,#145,#226,.F.) ;
#246=EDGE_CURVE('',#245,#214,#243,.T.) ;
#253=EDGE_CURVE('',#245,#252,#250,.T.) ;
#258=EDGE_CURVE('',#252,#221,#257,.T.) ;
#272=EDGE_CURVE('',#245,#271,#269,.F.) ;
#279=EDGE_CURVE('',#271,#278,#276,.T.) ;
#284=EDGE_CURVE('',#252,#278,#283,.F.) ;
#303=EDGE_CURVE('',#271,#302,#300,.F.) ;
#310=EDGE_CURVE('',#302,#309,#307,.T.) ;
#315=EDGE_CURVE('',#278,#309,#314,.F.) ;
#336=EDGE_CURVE('',#333,#335,#331,.F.) ;
#341=EDGE_CURVE('',#309,#333,#340,.F.) ;
#346=EDGE_CURVE('',#302,#335,#345,.F.) ;
#367=EDGE_CURVE('',#364,#366,#362,.F.) ;
#372=EDGE_CURVE('',#333,#364,#371,.F.) ;
#377=EDGE_CURVE('',#366,#335,#376,.T.) ;
#394=EDGE_CURVE('',#366,#119,#393,.F.) ;
#399=EDGE_CURVE('',#364,#112,#398,.F.) ;
#413=EDGE_CURVE('',#57,#412,#410,.F.) ;
#420=EDGE_CURVE('',#412,#419,#417,.T.) ;
#425=EDGE_CURVE('',#41,#419,#424,.F.) ;
#442=EDGE_CURVE('',#412,#190,#441,.F.) ;
#447=EDGE_CURVE('',#419,#183,#446,.F.) ;
#30=CLOSED_SHELL('Closed Shell',(#70,#101,#132,#172,#203,#234,#265,#291,#322,#353,#384,#406,#432,#454,#476,#498)) ;
#500=SHAPE_REPRESENTATION_RELATIONSHIP(' ',' ',#19,#499) ;
#64=EDGE_LOOP('',(#65,#66,#67,#68)) ;
#95=EDGE_LOOP('',(#96,#97,#98,#99)) ;
#126=EDGE_LOOP('',(#127,#128,#129,#130)) ;
#166=EDGE_LOOP('',(#167,#168,#169,#170)) ;
#197=EDGE_LOOP('',(#198,#199,#200,#201)) ;
#228=EDGE_LOOP('',(#229,#230,#231,#232)) ;
#259=EDGE_LOOP('',(#260,#261,#262,#263)) ;
#285=EDGE_LOOP('',(#286,#287,#288,#289)) ;
#316=EDGE_LOOP('',(#317,#318,#319,#320)) ;
#347=EDGE_LOOP('',(#348,#349,#350,#351)) ;
#378=EDGE_LOOP('',(#379,#380,#381,#382)) ;
#400=EDGE_LOOP('',(#401,#402,#403,#404)) ;
#426=EDGE_LOOP('',(#427,#428,#429,#430)) ;
#448=EDGE_LOOP('',(#449,#450,#451,#452)) ;
#460=EDGE_LOOP('',(#461,#462,#463,#464,#465,#466,#467,#468,#469,#470,#471,#472,#473,#474)) ;
#482=EDGE_LOOP('',(#483,#484,#485,#486,#487,#488,#489,#490,#491,#492,#493,#494,#495,#496)) ;
#65=ORIENTED_EDGE('',*,*,#44,.T.) ;
#66=ORIENTED_EDGE('',*,*,#51,.F.) ;
#67=ORIENTED_EDGE('',*,*,#58,.F.) ;
#68=ORIENTED_EDGE('',*,*,#63,.T.) ;
#96=ORIENTED_EDGE('',*,*,#82,.T.) ;
#97=ORIENTED_EDGE('',*,*,#89,.F.) ;
#98=ORIENTED_EDGE('',*,*,#94,.F.) ;
#99=ORIENTED_EDGE('',*,*,#51,.T.) ;
#127=ORIENTED_EDGE('',*,*,#113,.T.) ;
#128=ORIENTED_EDGE('',*,*,#120,.F.) ;
#129=ORIENTED_EDGE('',*,*,#125,.F.) ;
#130=ORIENTED_EDGE('',*,*,#89,.T.) ;
#167=ORIENTED_EDGE('',*,*,#146,.F.) ;
#168=ORIENTED_EDGE('',*,*,#153,.T.) ;
#169=ORIENTED_EDGE('',*,*,#160,.T.) ;
#170=ORIENTED_EDGE('',*,*,#165,.F.) ;
#198=ORIENTED_EDGE('',*,*,#153,.F.) ;
#199=ORIENTED_EDGE('',*,*,#184,.F.) ;
#200=ORIENTED_EDGE('',*,*,#191,.F.) ;
#201=ORIENTED_EDGE('',*,*,#196,.T.) ;
#229=ORIENTED_EDGE('',*,*,#165,.T.) ;
#230=ORIENTED_EDGE('',*,*,#215,.T.) ;
#231=ORIENTED_EDGE('',*,*,#222,.T.) ;
#232=ORIENTED_EDGE('',*,*,#227,.T.) ;
#260=ORIENTED_EDGE('',*,*,#246,.F.) ;
#261=ORIENTED_EDGE('',*,*,#253,.T.) ;
#262=ORIENTED_EDGE('',*,*,#258,.T.) ;
#263=ORIENTED_EDGE('',*,*,#222,.F.) ;
#286=ORIENTED_EDGE('',*,*,#253,.F.) ;
#287=ORIENTED_EDGE('',*,*,#272,.T.) ;
#288=ORIENTED_EDGE('',*,*,#279,.T.) ;
#289=ORIENTED_EDGE('',*,*,#284,.F.) ;
#317=ORIENTED_EDGE('',*,*,#279,.F.) ;
#318=ORIENTED_EDGE('',*,*,#303,.T.) ;
#319=ORIENTED_EDGE('',*,*,#310,.T.) ;
#320=ORIENTED_EDGE('',*,*,#315,.F.) ;
#348=ORIENTED_EDGE('',*,*,#336,.F.) ;
#349=ORIENTED_EDGE('',*,*,#341,.F.) ;
#350=ORIENTED_EDGE('',*,*,#310,.F.) ;
#351=ORIENTED_EDGE('',*,*,#346,.T.) ;
#379=ORIENTED_EDGE('',*,*,#367,.F.) ;
#380=ORIENTED_EDGE('',*,*,#372,.F.) ;
#381=ORIENTED_EDGE('',*,*,#336,.T.) ;
#382=ORIENTED_EDGE('',*,*,#377,.F.) ;
#401=ORIENTED_EDGE('',*,*,#367,.T.) ;
#402=ORIENTED_EDGE('',*,*,#394,.T.) ;
#403=ORIENTED_EDGE('',*,*,#120,.T.) ;
#404=ORIENTED_EDGE('',*,*,#399,.F.) ;
#427=ORIENTED_EDGE('',*,*,#63,.F.) ;
#428=ORIENTED_EDGE('',*,*,#413,.T.) ;
#429=ORIENTED_EDGE('',*,*,#420,.T.) ;
#430=ORIENTED_EDGE('',*,*,#425,.F.) ;
#449=ORIENTED_EDGE('',*,*,#420,.F.) ;
#450=ORIENTED_EDGE('',*,*,#442,.T.) ;
#451=ORIENTED_EDGE('',*,*,#191,.T.) ;
#452=ORIENTED_EDGE('',*,*,#447,.F.) ;
#461=ORIENTED_EDGE('',*,*,#372,.T.) ;
#462=ORIENTED_EDGE('',*,*,#399,.T.) ;
#463=ORIENTED_EDGE('',*,*,#113,.F.) ;
#464=ORIENTED_EDGE('',*,*,#82,.F.) ;
#465=ORIENTED_EDGE('',*,*,#44,.F.) ;
#466=ORIENTED_EDGE('',*,*,#425,.T.) ;
#467=ORIENTED_EDGE('',*,*,#447,.T.) ;
#468=ORIENTED_EDGE('',*,*,#184,.T.) ;
#469=ORIENTED_EDGE('',*,*,#146,.T.) ;
#470=ORIENTED_EDGE('',*,*,#227,.F.) ;
#471=ORIENTED_EDGE('',*,*,#258,.F.) ;
#472=ORIENTED_EDGE('',*,*,#284,.T.) ;
#473=ORIENTED_EDGE('',*,*,#315,.T.) ;
#474=ORIENTED_EDGE('',*,*,#341,.T.) ;
#483=ORIENTED_EDGE('',*,*,#346,.F.) ;
#484=ORIENTED_EDGE('',*,*,#303,.F.) ;
#485=ORIENTED_EDGE('',*,*,#272,.F.) ;
#486=ORIENTED_EDGE('',*,*,#246,.T.) ;
#487=ORIENTED_EDGE('',*,*,#215,.F.) ;
#488=ORIENTED_EDGE('',*,*,#160,.F.) ;
#489=ORIENTED_EDGE('',*,*,#196,.F.) ;
#490=ORIENTED_EDGE('',*,*,#442,.F.) ;
#491=ORIENTED_EDGE('',*,*,#413,.F.) ;
#492=ORIENTED_EDGE('',*,*,#58,.T.) ;
#493=ORIENTED_EDGE('',*,*,#94,.T.) ;
#494=ORIENTED_EDGE('',*,*,#125,.T.) ;
#495=ORIENTED_EDGE('',*,*,#394,.F.) ;
#496=ORIENTED_EDGE('',*,*,#377,.T.) ;
#21=MANIFOLD_SOLID_BREP('PartBody',#30) ;
#41=VERTEX_POINT('',#40) ;
#43=VERTEX_POINT('',#42) ;
#50=VERTEX_POINT('',#49) ;
#57=VERTEX_POINT('',#56) ;
#81=VERTEX_POINT('',#80) ;
#88=VERTEX_POINT('',#87) ;
#112=VERTEX_POINT('',#111) ;
#119=VERTEX_POINT('',#118) ;
#143=VERTEX_POINT('',#142) ;
#145=VERTEX_POINT('',#144) ;
#152=VERTEX_POINT('',#151) ;
#159=VERTEX_POINT('',#158) ;
#183=VERTEX_POINT('',#182) ;
#190=VERTEX_POINT('',#189) ;
#214=VERTEX_POINT('',#213) ;
#221=VERTEX_POINT('',#220) ;
#245=VERTEX_POINT('',#244) ;
#252=VERTEX_POINT('',#251) ;
#271=VERTEX_POINT('',#270) ;
#278=VERTEX_POINT('',#277) ;
#302=VERTEX_POINT('',#301) ;
#309=VERTEX_POINT('',#308) ;
#333=VERTEX_POINT('',#332) ;
#335=VERTEX_POINT('',#334) ;
#364=VERTEX_POINT('',#363) ;
#366=VERTEX_POINT('',#365) ;
#412=VERTEX_POINT('',#411) ;
#419=VERTEX_POINT('',#418) ;
#499=ADVANCED_BREP_SHAPE_REPRESENTATION('NONE',(#21),#16) ;
#70=ADVANCED_FACE('PartBody',(#69),#35,.F.) ;
#101=ADVANCED_FACE('PartBody',(#100),#75,.F.) ;
#132=ADVANCED_FACE('PartBody',(#131),#106,.F.) ;
#172=ADVANCED_FACE('PartBody',(#171),#137,.T.) ;
#203=ADVANCED_FACE('PartBody',(#202),#177,.F.) ;
#234=ADVANCED_FACE('PartBody',(#233),#208,.T.) ;
#265=ADVANCED_FACE('PartBody',(#264),#239,.T.) ;
#291=ADVANCED_FACE('PartBody',(#290),#177,.F.) ;
#322=ADVANCED_FACE('PartBody',(#321),#296,.F.) ;
#353=ADVANCED_FACE('PartBody',(#352),#327,.F.) ;
#384=ADVANCED_FACE('PartBody',(#383),#358,.F.) ;
#406=ADVANCED_FACE('PartBody',(#405),#389,.F.) ;
#432=ADVANCED_FACE('PartBody',(#431),#389,.F.) ;
#454=ADVANCED_FACE('PartBody',(#453),#437,.F.) ;
#476=ADVANCED_FACE('PartBody',(#475),#459,.T.) ;
#498=ADVANCED_FACE('PartBody',(#497),#481,.F.) ;
#4=APPLICATION_PROTOCOL_DEFINITION('international standard','ap242_managed_model_based_3d_engineering',2014,#1) ;
#22=COLOUR_RGB('Colour',0.2,0.2,0.2) ;
#69=FACE_OUTER_BOUND('',#64,.T.) ;
#100=FACE_OUTER_BOUND('',#95,.T.) ;
#131=FACE_OUTER_BOUND('',#126,.T.) ;
#171=FACE_OUTER_BOUND('',#166,.T.) ;
#202=FACE_OUTER_BOUND('',#197,.T.) ;
#233=FACE_OUTER_BOUND('',#228,.T.) ;
#264=FACE_OUTER_BOUND('',#259,.T.) ;
#290=FACE_OUTER_BOUND('',#285,.T.) ;
#321=FACE_OUTER_BOUND('',#316,.T.) ;
#352=FACE_OUTER_BOUND('',#347,.T.) ;
#383=FACE_OUTER_BOUND('',#378,.T.) ;
#405=FACE_OUTER_BOUND('',#400,.T.) ;
#431=FACE_OUTER_BOUND('',#426,.T.) ;
#453=FACE_OUTER_BOUND('',#448,.T.) ;
#475=FACE_OUTER_BOUND('',#460,.T.) ;
#497=FACE_OUTER_BOUND('',#482,.T.) ;
#9=PRODUCT_CATEGORY_RELATIONSHIP(' ',' ',#7,#8) ;
#6=PRODUCT_DEFINITION_FORMATION_WITH_SPECIFIED_SOURCE('',' ',#5,.NOT_KNOWN.) ;
#20=SHAPE_DEFINITION_REPRESENTATION(#11,#19) ;
#12=(LENGTH_UNIT()NAMED_UNIT(*)SI_UNIT(.MILLI.,.METRE.)) ;
#13=(NAMED_UNIT(*)PLANE_ANGLE_UNIT()SI_UNIT($,.RADIAN.)) ;
#14=(NAMED_UNIT(*)SI_UNIT($,.STERADIAN.)SOLID_ANGLE_UNIT()) ;
#16=(GEOMETRIC_REPRESENTATION_CONTEXT(3)GLOBAL_UNCERTAINTY_ASSIGNED_CONTEXT((#15))GLOBAL_UNIT_ASSIGNED_CONTEXT((#12,#13,#14))REPRESENTATION_CONTEXT(' ',' ')) ;
ENDSEC;
END-ISO-10303-21;
