ISO-10303-21;
HEADER;
FILE_DESCRIPTION(('CATIA V5 STEP Exchange','CAx-IF Rec.Pracs.--- Model Styling and Organization---1.4--- 2014-01-23','CAx-IF Rec.Pracs.---3D Tessellated Data Validation Properties---0.5---2014-09-14'),'2;1');

FILE_NAME('C:\\Users\\PCKT-13\\Documents\\GrabCAD\\I+D\\SERIE_LEXA\\IKOT-1360-170921A-LEXA_WAIST_SUPPORT\\2D\\1360.000.004.002.BISAGRA_TOPE.stp','2021-10-25T21:36:51+00:00',('none'),('none'),'CATIA Version 5-6 Release 2018','CATIA V5 STEP AP242','none');

FILE_SCHEMA(('AP242_MANAGED_MODEL_BASED_3D_ENGINEERING_MIM_LF  {1 0 10303 442 1 1 4}'));

ENDSEC;
DATA;
#5=PRODUCT('1360.000.004.002.BISAGRA_TOPE','','',(#2)) ;
#2=PRODUCT_CONTEXT(' ',#1,'mechanical') ;
#1=APPLICATION_CONTEXT('managed model based 3d engineering') ;
#10=PRODUCT_DEFINITION('',' ',#6,#3) ;
#3=PRODUCT_DEFINITION_CONTEXT('part definition',#1,' ') ;
#11=PRODUCT_DEFINITION_SHAPE(' ',' ',#10) ;
#468=MECHANICAL_DESIGN_GEOMETRIC_PRESENTATION_REPRESENTATION(' ',(#29),#16) ;
#19=SHAPE_REPRESENTATION(' ',(#18),#16) ;
#7=PRODUCT_CATEGORY('part','specification') ;
#17=CARTESIAN_POINT(' ',(0.,0.,0.)) ;
#31=CARTESIAN_POINT('Axis2P3D Location',(6.,-3.43811001174E-016,3.175)) ;
#36=CARTESIAN_POINT('Line Origine',(6.,-1.5875,3.175)) ;
#40=CARTESIAN_POINT('Vertex',(6.,-3.43811001174E-016,3.175)) ;
#42=CARTESIAN_POINT('Vertex',(6.,-3.175,3.175)) ;
#45=CARTESIAN_POINT('Line Origine',(6.,-3.43811001174E-016,1.5875)) ;
#49=CARTESIAN_POINT('Vertex',(6.,-3.43811001174E-016,-4.4408920985E-016)) ;
#52=CARTESIAN_POINT('Line Origine',(6.,-1.5875,-4.4408920985E-016)) ;
#56=CARTESIAN_POINT('Vertex',(6.,-3.175,-4.4408920985E-016)) ;
#59=CARTESIAN_POINT('Line Origine',(6.,-3.175,1.5875)) ;
#71=CARTESIAN_POINT('Axis2P3D Location',(-1.81933321455E-016,-3.175,0.)) ;
#76=CARTESIAN_POINT('Line Origine',(13.,-3.175,0.)) ;
#80=CARTESIAN_POINT('Vertex',(20.,-3.175,0.)) ;
#83=CARTESIAN_POINT('Line Origine',(20.,-3.175,1.5875)) ;
#87=CARTESIAN_POINT('Vertex',(20.,-3.175,3.175)) ;
#90=CARTESIAN_POINT('Line Origine',(13.,-3.175,3.175)) ;
#102=CARTESIAN_POINT('Axis2P3D Location',(20.,-1.14603667058E-015,0.)) ;
#107=CARTESIAN_POINT('Line Origine',(20.,-1.5875,0.)) ;
#111=CARTESIAN_POINT('Vertex',(20.,-1.14603667058E-015,0.)) ;
#114=CARTESIAN_POINT('Line Origine',(20.,-1.14603667058E-015,1.5875)) ;
#118=CARTESIAN_POINT('Vertex',(20.,-1.14603667058E-015,3.175)) ;
#121=CARTESIAN_POINT('Line Origine',(20.,-1.5875,3.175)) ;
#133=CARTESIAN_POINT('Axis2P3D Location',(24.,-3.5527136788E-015,0.)) ;
#138=CARTESIAN_POINT('Line Origine',(24.,-3.5527136788E-015,1.5875)) ;
#142=CARTESIAN_POINT('Vertex',(24.,-1.3752440047E-015,0.)) ;
#144=CARTESIAN_POINT('Vertex',(24.,-1.3752440047E-015,3.175)) ;
#147=CARTESIAN_POINT('Line Origine',(24.,2.5,0.)) ;
#151=CARTESIAN_POINT('Vertex',(24.,5.,0.)) ;
#154=CARTESIAN_POINT('Line Origine',(24.,5.,1.5875)) ;
#158=CARTESIAN_POINT('Vertex',(24.,5.,3.175)) ;
#161=CARTESIAN_POINT('Line Origine',(24.,2.5,3.175)) ;
#173=CARTESIAN_POINT('Axis2P3D Location',(24.,-1.3752440047E-015,0.)) ;
#178=CARTESIAN_POINT('Line Origine',(22.,-1.26064033764E-015,0.)) ;
#183=CARTESIAN_POINT('Line Origine',(22.,-1.26064033764E-015,3.175)) ;
#195=CARTESIAN_POINT('Axis2P3D Location',(14.,27.7,0.)) ;
#200=CARTESIAN_POINT('Line Origine',(19.,16.35,0.)) ;
#204=CARTESIAN_POINT('Vertex',(14.,27.7,0.)) ;
#207=CARTESIAN_POINT('Line Origine',(14.,27.7,1.5875)) ;
#211=CARTESIAN_POINT('Vertex',(14.,27.7,3.175)) ;
#214=CARTESIAN_POINT('Line Origine',(19.,16.35,3.175)) ;
#226=CARTESIAN_POINT('Line Origine',(3.,-1.71905500587E-016,3.175)) ;
#230=CARTESIAN_POINT('Vertex',(0.,0.,3.175)) ;
#233=CARTESIAN_POINT('Line Origine',(0.,0.,1.5875)) ;
#237=CARTESIAN_POINT('Vertex',(0.,0.,0.)) ;
#240=CARTESIAN_POINT('Line Origine',(3.,-1.71905500587E-016,0.)) ;
#252=CARTESIAN_POINT('Axis2P3D Location',(0.,27.7,0.)) ;
#257=CARTESIAN_POINT('Line Origine',(7.,27.7,0.)) ;
#261=CARTESIAN_POINT('Vertex',(0.,27.7,0.)) ;
#264=CARTESIAN_POINT('Line Origine',(0.,27.7,1.5875)) ;
#268=CARTESIAN_POINT('Vertex',(0.,27.7,3.175)) ;
#271=CARTESIAN_POINT('Line Origine',(7.,27.7,3.175)) ;
#283=CARTESIAN_POINT('Axis2P3D Location',(0.,21.5,0.)) ;
#288=CARTESIAN_POINT('Line Origine',(0.,24.6,0.)) ;
#292=CARTESIAN_POINT('Vertex',(0.,21.5,0.)) ;
#295=CARTESIAN_POINT('Line Origine',(0.,21.5,1.5875)) ;
#299=CARTESIAN_POINT('Vertex',(0.,21.5,3.175)) ;
#302=CARTESIAN_POINT('Line Origine',(0.,24.6,3.175)) ;
#314=CARTESIAN_POINT('Line Origine',(0.,11.,1.5875)) ;
#318=CARTESIAN_POINT('Vertex',(0.,11.,0.)) ;
#320=CARTESIAN_POINT('Vertex',(0.,11.,3.175)) ;
#323=CARTESIAN_POINT('Line Origine',(0.,5.5,0.)) ;
#328=CARTESIAN_POINT('Line Origine',(0.,5.5,3.175)) ;
#340=CARTESIAN_POINT('Axis2P3D Location',(0.,0.,0.)) ;
#345=CARTESIAN_POINT('Line Origine',(4.,11.,0.)) ;
#349=CARTESIAN_POINT('Vertex',(7.99999999211,11.,-2.16875479797E-008)) ;
#352=CARTESIAN_POINT('Line Origine',(8.,16.25,0.)) ;
#356=CARTESIAN_POINT('Vertex',(7.99999999211,21.5,-2.16875479797E-008)) ;
#359=CARTESIAN_POINT('Line Origine',(4.,21.5,0.)) ;
#380=CARTESIAN_POINT('Axis2P3D Location',(0.,0.,3.175)) ;
#385=CARTESIAN_POINT('Line Origine',(4.5778027469,11.,3.175)) ;
#389=CARTESIAN_POINT('Vertex',(9.1556054938,11.,3.175)) ;
#392=CARTESIAN_POINT('Line Origine',(4.5778027469,21.5,3.175)) ;
#396=CARTESIAN_POINT('Vertex',(9.1556054938,21.5,3.175)) ;
#399=CARTESIAN_POINT('Line Origine',(9.1556054938,16.25,3.175)) ;
#420=CARTESIAN_POINT('Axis2P3D Location',(7.99999999211,21.5,-2.16875479797E-008)) ;
#425=CARTESIAN_POINT('Line Origine',(8.57780274295,11.,1.58749998916)) ;
#430=CARTESIAN_POINT('Line Origine',(8.57780274295,21.5,1.58749998916)) ;
#442=CARTESIAN_POINT('Axis2P3D Location',(0.,11.,0.)) ;
#454=CARTESIAN_POINT('Axis2P3D Location',(8.,21.5,0.)) ;
#8=PRODUCT_RELATED_PRODUCT_CATEGORY('part',$,(#5)) ;
#29=STYLED_ITEM(' ',(#28),#21) ;
#28=PRESENTATION_STYLE_ASSIGNMENT((#27)) ;
#27=SURFACE_STYLE_USAGE(.BOTH.,#26) ;
#26=SURFACE_SIDE_STYLE(' ',(#25)) ;
#25=SURFACE_STYLE_FILL_AREA(#24) ;
#24=FILL_AREA_STYLE(' ',(#23)) ;
#23=FILL_AREA_STYLE_COLOUR(' ',#22) ;
#38=VECTOR('Line Direction',#37,1.) ;
#47=VECTOR('Line Direction',#46,1.) ;
#54=VECTOR('Line Direction',#53,1.) ;
#61=VECTOR('Line Direction',#60,1.) ;
#78=VECTOR('Line Direction',#77,1.) ;
#85=VECTOR('Line Direction',#84,1.) ;
#92=VECTOR('Line Direction',#91,1.) ;
#109=VECTOR('Line Direction',#108,1.) ;
#116=VECTOR('Line Direction',#115,1.) ;
#123=VECTOR('Line Direction',#122,1.) ;
#140=VECTOR('Line Direction',#139,1.) ;
#149=VECTOR('Line Direction',#148,1.) ;
#156=VECTOR('Line Direction',#155,1.) ;
#163=VECTOR('Line Direction',#162,1.) ;
#180=VECTOR('Line Direction',#179,1.) ;
#185=VECTOR('Line Direction',#184,1.) ;
#202=VECTOR('Line Direction',#201,1.) ;
#209=VECTOR('Line Direction',#208,1.) ;
#216=VECTOR('Line Direction',#215,1.) ;
#228=VECTOR('Line Direction',#227,1.) ;
#235=VECTOR('Line Direction',#234,1.) ;
#242=VECTOR('Line Direction',#241,1.) ;
#259=VECTOR('Line Direction',#258,1.) ;
#266=VECTOR('Line Direction',#265,1.) ;
#273=VECTOR('Line Direction',#272,1.) ;
#290=VECTOR('Line Direction',#289,1.) ;
#297=VECTOR('Line Direction',#296,1.) ;
#304=VECTOR('Line Direction',#303,1.) ;
#316=VECTOR('Line Direction',#315,1.) ;
#325=VECTOR('Line Direction',#324,1.) ;
#330=VECTOR('Line Direction',#329,1.) ;
#347=VECTOR('Line Direction',#346,1.) ;
#354=VECTOR('Line Direction',#353,1.) ;
#361=VECTOR('Line Direction',#360,1.) ;
#387=VECTOR('Line Direction',#386,1.) ;
#394=VECTOR('Line Direction',#393,1.) ;
#401=VECTOR('Line Direction',#400,1.) ;
#427=VECTOR('Line Direction',#426,1.) ;
#432=VECTOR('Line Direction',#431,1.) ;
#32=DIRECTION('Axis2P3D Direction',(-1.,5.7301833529E-017,0.)) ;
#33=DIRECTION('Axis2P3D XDirection',(0.,0.,-1.)) ;
#37=DIRECTION('Vector Direction',(0.,-1.,0.)) ;
#46=DIRECTION('Vector Direction',(0.,0.,-1.)) ;
#53=DIRECTION('Vector Direction',(0.,-1.,0.)) ;
#60=DIRECTION('Vector Direction',(0.,0.,-1.)) ;
#72=DIRECTION('Axis2P3D Direction',(-5.7301833529E-017,-1.,0.)) ;
#73=DIRECTION('Axis2P3D XDirection',(1.,-5.7301833529E-017,0.)) ;
#77=DIRECTION('Vector Direction',(-1.,6.34413156929E-017,0.)) ;
#84=DIRECTION('Vector Direction',(0.,0.,1.)) ;
#91=DIRECTION('Vector Direction',(1.,-6.34413156929E-017,0.)) ;
#103=DIRECTION('Axis2P3D Direction',(1.,-5.7301833529E-017,0.)) ;
#104=DIRECTION('Axis2P3D XDirection',(0.,0.,1.)) ;
#108=DIRECTION('Vector Direction',(0.,-1.,0.)) ;
#115=DIRECTION('Vector Direction',(0.,0.,1.)) ;
#122=DIRECTION('Vector Direction',(0.,-1.,0.)) ;
#134=DIRECTION('Axis2P3D Direction',(1.,0.,0.)) ;
#135=DIRECTION('Axis2P3D XDirection',(0.,1.,0.)) ;
#139=DIRECTION('Vector Direction',(0.,0.,1.)) ;
#148=DIRECTION('Vector Direction',(0.,1.,0.)) ;
#155=DIRECTION('Vector Direction',(0.,0.,1.)) ;
#162=DIRECTION('Vector Direction',(0.,1.,0.)) ;
#174=DIRECTION('Axis2P3D Direction',(5.7301833529E-017,1.,-0.)) ;
#175=DIRECTION('Axis2P3D XDirection',(-1.,5.7301833529E-017,0.)) ;
#179=DIRECTION('Vector Direction',(-1.,5.7301833529E-017,0.)) ;
#184=DIRECTION('Vector Direction',(-1.,5.7301833529E-017,0.)) ;
#196=DIRECTION('Axis2P3D Direction',(-0.915136608263,-0.403143880292,0.)) ;
#197=DIRECTION('Axis2P3D XDirection',(0.403143880292,-0.915136608263,0.)) ;
#201=DIRECTION('Vector Direction',(0.403143880292,-0.915136608263,0.)) ;
#208=DIRECTION('Vector Direction',(0.,0.,1.)) ;
#215=DIRECTION('Vector Direction',(0.403143880292,-0.915136608263,0.)) ;
#227=DIRECTION('Vector Direction',(-1.,5.7301833529E-017,0.)) ;
#234=DIRECTION('Vector Direction',(0.,0.,1.)) ;
#241=DIRECTION('Vector Direction',(-1.,5.7301833529E-017,0.)) ;
#253=DIRECTION('Axis2P3D Direction',(0.,-1.,0.)) ;
#254=DIRECTION('Axis2P3D XDirection',(1.,0.,0.)) ;
#258=DIRECTION('Vector Direction',(1.,0.,0.)) ;
#265=DIRECTION('Vector Direction',(0.,0.,1.)) ;
#272=DIRECTION('Vector Direction',(1.,0.,0.)) ;
#284=DIRECTION('Axis2P3D Direction',(1.,0.,0.)) ;
#285=DIRECTION('Axis2P3D XDirection',(0.,1.,0.)) ;
#289=DIRECTION('Vector Direction',(0.,1.,0.)) ;
#296=DIRECTION('Vector Direction',(0.,0.,1.)) ;
#303=DIRECTION('Vector Direction',(0.,1.,0.)) ;
#315=DIRECTION('Vector Direction',(0.,0.,1.)) ;
#324=DIRECTION('Vector Direction',(0.,1.,0.)) ;
#329=DIRECTION('Vector Direction',(0.,1.,0.)) ;
#341=DIRECTION('Axis2P3D Direction',(0.,0.,1.)) ;
#342=DIRECTION('Axis2P3D XDirection',(1.,0.,0.)) ;
#346=DIRECTION('Vector Direction',(1.,0.,0.)) ;
#353=DIRECTION('Vector Direction',(0.,1.,0.)) ;
#360=DIRECTION('Vector Direction',(-1.,0.,0.)) ;
#381=DIRECTION('Axis2P3D Direction',(0.,0.,1.)) ;
#382=DIRECTION('Axis2P3D XDirection',(1.,0.,0.)) ;
#386=DIRECTION('Vector Direction',(-1.,0.,0.)) ;
#393=DIRECTION('Vector Direction',(-1.,0.,0.)) ;
#400=DIRECTION('Vector Direction',(0.,-1.,0.)) ;
#421=DIRECTION('Axis2P3D Direction',(0.939692620786,0.,-0.342020143326)) ;
#422=DIRECTION('Axis2P3D XDirection',(0.342020143326,0.,0.939692620786)) ;
#426=DIRECTION('Vector Direction',(0.342020143326,0.,0.939692620786)) ;
#431=DIRECTION('Vector Direction',(0.342020143326,0.,0.939692620786)) ;
#443=DIRECTION('Axis2P3D Direction',(0.,-1.,0.)) ;
#444=DIRECTION('Axis2P3D XDirection',(1.,0.,0.)) ;
#455=DIRECTION('Axis2P3D Direction',(0.,1.,-0.)) ;
#456=DIRECTION('Axis2P3D XDirection',(-1.,0.,0.)) ;
#15=UNCERTAINTY_MEASURE_WITH_UNIT(LENGTH_MEASURE(0.005),#12,'distance_accuracy_value','CONFUSED CURVE UNCERTAINTY') ;
#18=AXIS2_PLACEMENT_3D(' ',#17,$,$) ;
#34=AXIS2_PLACEMENT_3D('Plane Axis2P3D',#31,#32,#33) ;
#74=AXIS2_PLACEMENT_3D('Plane Axis2P3D',#71,#72,#73) ;
#105=AXIS2_PLACEMENT_3D('Plane Axis2P3D',#102,#103,#104) ;
#136=AXIS2_PLACEMENT_3D('Plane Axis2P3D',#133,#134,#135) ;
#176=AXIS2_PLACEMENT_3D('Plane Axis2P3D',#173,#174,#175) ;
#198=AXIS2_PLACEMENT_3D('Plane Axis2P3D',#195,#196,#197) ;
#255=AXIS2_PLACEMENT_3D('Plane Axis2P3D',#252,#253,#254) ;
#286=AXIS2_PLACEMENT_3D('Plane Axis2P3D',#283,#284,#285) ;
#343=AXIS2_PLACEMENT_3D('Plane Axis2P3D',#340,#341,#342) ;
#383=AXIS2_PLACEMENT_3D('Plane Axis2P3D',#380,#381,#382) ;
#423=AXIS2_PLACEMENT_3D('Plane Axis2P3D',#420,#421,#422) ;
#445=AXIS2_PLACEMENT_3D('Plane Axis2P3D',#442,#443,#444) ;
#457=AXIS2_PLACEMENT_3D('Plane Axis2P3D',#454,#455,#456) ;
#39=LINE('Line',#36,#38) ;
#48=LINE('Line',#45,#47) ;
#55=LINE('Line',#52,#54) ;
#62=LINE('Line',#59,#61) ;
#79=LINE('Line',#76,#78) ;
#86=LINE('Line',#83,#85) ;
#93=LINE('Line',#90,#92) ;
#110=LINE('Line',#107,#109) ;
#117=LINE('Line',#114,#116) ;
#124=LINE('Line',#121,#123) ;
#141=LINE('Line',#138,#140) ;
#150=LINE('Line',#147,#149) ;
#157=LINE('Line',#154,#156) ;
#164=LINE('Line',#161,#163) ;
#181=LINE('Line',#178,#180) ;
#186=LINE('Line',#183,#185) ;
#203=LINE('Line',#200,#202) ;
#210=LINE('Line',#207,#209) ;
#217=LINE('Line',#214,#216) ;
#229=LINE('Line',#226,#228) ;
#236=LINE('Line',#233,#235) ;
#243=LINE('Line',#240,#242) ;
#260=LINE('Line',#257,#259) ;
#267=LINE('Line',#264,#266) ;
#274=LINE('Line',#271,#273) ;
#291=LINE('Line',#288,#290) ;
#298=LINE('Line',#295,#297) ;
#305=LINE('Line',#302,#304) ;
#317=LINE('Line',#314,#316) ;
#326=LINE('Line',#323,#325) ;
#331=LINE('Line',#328,#330) ;
#348=LINE('Line',#345,#347) ;
#355=LINE('Line',#352,#354) ;
#362=LINE('Line',#359,#361) ;
#388=LINE('Line',#385,#387) ;
#395=LINE('Line',#392,#394) ;
#402=LINE('Line',#399,#401) ;
#428=LINE('Line',#425,#427) ;
#433=LINE('Line',#430,#432) ;
#35=PLANE('',#34) ;
#75=PLANE('',#74) ;
#106=PLANE('',#105) ;
#137=PLANE('',#136) ;
#177=PLANE('',#176) ;
#199=PLANE('',#198) ;
#256=PLANE('',#255) ;
#287=PLANE('',#286) ;
#344=PLANE('',#343) ;
#384=PLANE('',#383) ;
#424=PLANE('',#423) ;
#446=PLANE('',#445) ;
#458=PLANE('',#457) ;
#44=EDGE_CURVE('',#41,#43,#39,.T.) ;
#51=EDGE_CURVE('',#41,#50,#48,.T.) ;
#58=EDGE_CURVE('',#50,#57,#55,.T.) ;
#63=EDGE_CURVE('',#43,#57,#62,.T.) ;
#82=EDGE_CURVE('',#57,#81,#79,.F.) ;
#89=EDGE_CURVE('',#81,#88,#86,.T.) ;
#94=EDGE_CURVE('',#88,#43,#93,.F.) ;
#113=EDGE_CURVE('',#112,#81,#110,.T.) ;
#120=EDGE_CURVE('',#112,#119,#117,.T.) ;
#125=EDGE_CURVE('',#119,#88,#124,.T.) ;
#146=EDGE_CURVE('',#143,#145,#141,.T.) ;
#153=EDGE_CURVE('',#143,#152,#150,.T.) ;
#160=EDGE_CURVE('',#152,#159,#157,.T.) ;
#165=EDGE_CURVE('',#145,#159,#164,.T.) ;
#182=EDGE_CURVE('',#112,#143,#181,.F.) ;
#187=EDGE_CURVE('',#119,#145,#186,.F.) ;
#206=EDGE_CURVE('',#152,#205,#203,.F.) ;
#213=EDGE_CURVE('',#205,#212,#210,.T.) ;
#218=EDGE_CURVE('',#159,#212,#217,.F.) ;
#232=EDGE_CURVE('',#231,#41,#229,.F.) ;
#239=EDGE_CURVE('',#238,#231,#236,.T.) ;
#244=EDGE_CURVE('',#238,#50,#243,.F.) ;
#263=EDGE_CURVE('',#205,#262,#260,.F.) ;
#270=EDGE_CURVE('',#262,#269,#267,.T.) ;
#275=EDGE_CURVE('',#212,#269,#274,.F.) ;
#294=EDGE_CURVE('',#262,#293,#291,.F.) ;
#301=EDGE_CURVE('',#293,#300,#298,.T.) ;
#306=EDGE_CURVE('',#269,#300,#305,.F.) ;
#322=EDGE_CURVE('',#319,#321,#317,.T.) ;
#327=EDGE_CURVE('',#319,#238,#326,.F.) ;
#332=EDGE_CURVE('',#321,#231,#331,.F.) ;
#351=EDGE_CURVE('',#350,#319,#348,.F.) ;
#358=EDGE_CURVE('',#357,#350,#355,.F.) ;
#363=EDGE_CURVE('',#293,#357,#362,.F.) ;
#391=EDGE_CURVE('',#390,#321,#388,.T.) ;
#398=EDGE_CURVE('',#397,#300,#395,.T.) ;
#403=EDGE_CURVE('',#397,#390,#402,.T.) ;
#429=EDGE_CURVE('',#350,#390,#428,.T.) ;
#434=EDGE_CURVE('',#357,#397,#433,.T.) ;
#30=CLOSED_SHELL('Closed Shell',(#70,#101,#132,#172,#194,#225,#251,#282,#313,#339,#379,#419,#441,#453,#465)) ;
#467=SHAPE_REPRESENTATION_RELATIONSHIP(' ',' ',#19,#466) ;
#64=EDGE_LOOP('',(#65,#66,#67,#68)) ;
#95=EDGE_LOOP('',(#96,#97,#98,#99)) ;
#126=EDGE_LOOP('',(#127,#128,#129,#130)) ;
#166=EDGE_LOOP('',(#167,#168,#169,#170)) ;
#188=EDGE_LOOP('',(#189,#190,#191,#192)) ;
#219=EDGE_LOOP('',(#220,#221,#222,#223)) ;
#245=EDGE_LOOP('',(#246,#247,#248,#249)) ;
#276=EDGE_LOOP('',(#277,#278,#279,#280)) ;
#307=EDGE_LOOP('',(#308,#309,#310,#311)) ;
#333=EDGE_LOOP('',(#334,#335,#336,#337)) ;
#364=EDGE_LOOP('',(#365,#366,#367,#368,#369,#370,#371,#372,#373,#374,#375,#376,#377)) ;
#404=EDGE_LOOP('',(#405,#406,#407,#408,#409,#410,#411,#412,#413,#414,#415,#416,#417)) ;
#435=EDGE_LOOP('',(#436,#437,#438,#439)) ;
#447=EDGE_LOOP('',(#448,#449,#450,#451)) ;
#459=EDGE_LOOP('',(#460,#461,#462,#463)) ;
#65=ORIENTED_EDGE('',*,*,#44,.F.) ;
#66=ORIENTED_EDGE('',*,*,#51,.T.) ;
#67=ORIENTED_EDGE('',*,*,#58,.T.) ;
#68=ORIENTED_EDGE('',*,*,#63,.F.) ;
#96=ORIENTED_EDGE('',*,*,#63,.T.) ;
#97=ORIENTED_EDGE('',*,*,#82,.T.) ;
#98=ORIENTED_EDGE('',*,*,#89,.T.) ;
#99=ORIENTED_EDGE('',*,*,#94,.T.) ;
#127=ORIENTED_EDGE('',*,*,#113,.F.) ;
#128=ORIENTED_EDGE('',*,*,#120,.T.) ;
#129=ORIENTED_EDGE('',*,*,#125,.T.) ;
#130=ORIENTED_EDGE('',*,*,#89,.F.) ;
#167=ORIENTED_EDGE('',*,*,#146,.F.) ;
#168=ORIENTED_EDGE('',*,*,#153,.T.) ;
#169=ORIENTED_EDGE('',*,*,#160,.T.) ;
#170=ORIENTED_EDGE('',*,*,#165,.F.) ;
#189=ORIENTED_EDGE('',*,*,#120,.F.) ;
#190=ORIENTED_EDGE('',*,*,#182,.T.) ;
#191=ORIENTED_EDGE('',*,*,#146,.T.) ;
#192=ORIENTED_EDGE('',*,*,#187,.F.) ;
#220=ORIENTED_EDGE('',*,*,#160,.F.) ;
#221=ORIENTED_EDGE('',*,*,#206,.T.) ;
#222=ORIENTED_EDGE('',*,*,#213,.T.) ;
#223=ORIENTED_EDGE('',*,*,#218,.F.) ;
#246=ORIENTED_EDGE('',*,*,#51,.F.) ;
#247=ORIENTED_EDGE('',*,*,#232,.F.) ;
#248=ORIENTED_EDGE('',*,*,#239,.F.) ;
#249=ORIENTED_EDGE('',*,*,#244,.T.) ;
#277=ORIENTED_EDGE('',*,*,#213,.F.) ;
#278=ORIENTED_EDGE('',*,*,#263,.T.) ;
#279=ORIENTED_EDGE('',*,*,#270,.T.) ;
#280=ORIENTED_EDGE('',*,*,#275,.F.) ;
#308=ORIENTED_EDGE('',*,*,#270,.F.) ;
#309=ORIENTED_EDGE('',*,*,#294,.T.) ;
#310=ORIENTED_EDGE('',*,*,#301,.T.) ;
#311=ORIENTED_EDGE('',*,*,#306,.F.) ;
#334=ORIENTED_EDGE('',*,*,#322,.F.) ;
#335=ORIENTED_EDGE('',*,*,#327,.T.) ;
#336=ORIENTED_EDGE('',*,*,#239,.T.) ;
#337=ORIENTED_EDGE('',*,*,#332,.F.) ;
#365=ORIENTED_EDGE('',*,*,#58,.F.) ;
#366=ORIENTED_EDGE('',*,*,#244,.F.) ;
#367=ORIENTED_EDGE('',*,*,#327,.F.) ;
#368=ORIENTED_EDGE('',*,*,#351,.F.) ;
#369=ORIENTED_EDGE('',*,*,#358,.F.) ;
#370=ORIENTED_EDGE('',*,*,#363,.F.) ;
#371=ORIENTED_EDGE('',*,*,#294,.F.) ;
#372=ORIENTED_EDGE('',*,*,#263,.F.) ;
#373=ORIENTED_EDGE('',*,*,#206,.F.) ;
#374=ORIENTED_EDGE('',*,*,#153,.F.) ;
#375=ORIENTED_EDGE('',*,*,#182,.F.) ;
#376=ORIENTED_EDGE('',*,*,#113,.T.) ;
#377=ORIENTED_EDGE('',*,*,#82,.F.) ;
#405=ORIENTED_EDGE('',*,*,#391,.T.) ;
#406=ORIENTED_EDGE('',*,*,#332,.T.) ;
#407=ORIENTED_EDGE('',*,*,#232,.T.) ;
#408=ORIENTED_EDGE('',*,*,#44,.T.) ;
#409=ORIENTED_EDGE('',*,*,#94,.F.) ;
#410=ORIENTED_EDGE('',*,*,#125,.F.) ;
#411=ORIENTED_EDGE('',*,*,#187,.T.) ;
#412=ORIENTED_EDGE('',*,*,#165,.T.) ;
#413=ORIENTED_EDGE('',*,*,#218,.T.) ;
#414=ORIENTED_EDGE('',*,*,#275,.T.) ;
#415=ORIENTED_EDGE('',*,*,#306,.T.) ;
#416=ORIENTED_EDGE('',*,*,#398,.F.) ;
#417=ORIENTED_EDGE('',*,*,#403,.T.) ;
#436=ORIENTED_EDGE('',*,*,#429,.T.) ;
#437=ORIENTED_EDGE('',*,*,#403,.F.) ;
#438=ORIENTED_EDGE('',*,*,#434,.F.) ;
#439=ORIENTED_EDGE('',*,*,#358,.T.) ;
#448=ORIENTED_EDGE('',*,*,#351,.T.) ;
#449=ORIENTED_EDGE('',*,*,#322,.T.) ;
#450=ORIENTED_EDGE('',*,*,#391,.F.) ;
#451=ORIENTED_EDGE('',*,*,#429,.F.) ;
#460=ORIENTED_EDGE('',*,*,#301,.F.) ;
#461=ORIENTED_EDGE('',*,*,#363,.T.) ;
#462=ORIENTED_EDGE('',*,*,#434,.T.) ;
#463=ORIENTED_EDGE('',*,*,#398,.T.) ;
#21=MANIFOLD_SOLID_BREP('PartBody',#30) ;
#41=VERTEX_POINT('',#40) ;
#43=VERTEX_POINT('',#42) ;
#50=VERTEX_POINT('',#49) ;
#57=VERTEX_POINT('',#56) ;
#81=VERTEX_POINT('',#80) ;
#88=VERTEX_POINT('',#87) ;
#112=VERTEX_POINT('',#111) ;
#119=VERTEX_POINT('',#118) ;
#143=VERTEX_POINT('',#142) ;
#145=VERTEX_POINT('',#144) ;
#152=VERTEX_POINT('',#151) ;
#159=VERTEX_POINT('',#158) ;
#205=VERTEX_POINT('',#204) ;
#212=VERTEX_POINT('',#211) ;
#231=VERTEX_POINT('',#230) ;
#238=VERTEX_POINT('',#237) ;
#262=VERTEX_POINT('',#261) ;
#269=VERTEX_POINT('',#268) ;
#293=VERTEX_POINT('',#292) ;
#300=VERTEX_POINT('',#299) ;
#319=VERTEX_POINT('',#318) ;
#321=VERTEX_POINT('',#320) ;
#350=VERTEX_POINT('',#349) ;
#357=VERTEX_POINT('',#356) ;
#390=VERTEX_POINT('',#389) ;
#397=VERTEX_POINT('',#396) ;
#466=ADVANCED_BREP_SHAPE_REPRESENTATION('NONE',(#21),#16) ;
#70=ADVANCED_FACE('PartBody',(#69),#35,.T.) ;
#101=ADVANCED_FACE('PartBody',(#100),#75,.T.) ;
#132=ADVANCED_FACE('PartBody',(#131),#106,.T.) ;
#172=ADVANCED_FACE('PartBody',(#171),#137,.T.) ;
#194=ADVANCED_FACE('PartBody',(#193),#177,.F.) ;
#225=ADVANCED_FACE('PartBody',(#224),#199,.F.) ;
#251=ADVANCED_FACE('PartBody',(#250),#177,.F.) ;
#282=ADVANCED_FACE('PartBody',(#281),#256,.F.) ;
#313=ADVANCED_FACE('PartBody',(#312),#287,.F.) ;
#339=ADVANCED_FACE('PartBody',(#338),#287,.F.) ;
#379=ADVANCED_FACE('PartBody',(#378),#344,.F.) ;
#419=ADVANCED_FACE('PartBody',(#418),#384,.T.) ;
#441=ADVANCED_FACE('PartBody',(#440),#424,.F.) ;
#453=ADVANCED_FACE('PartBody',(#452),#446,.F.) ;
#465=ADVANCED_FACE('PartBody',(#464),#458,.F.) ;
#4=APPLICATION_PROTOCOL_DEFINITION('international standard','ap242_managed_model_based_3d_engineering',2014,#1) ;
#22=COLOUR_RGB('Colour',0.2,0.2,0.2) ;
#69=FACE_OUTER_BOUND('',#64,.T.) ;
#100=FACE_OUTER_BOUND('',#95,.T.) ;
#131=FACE_OUTER_BOUND('',#126,.T.) ;
#171=FACE_OUTER_BOUND('',#166,.T.) ;
#193=FACE_OUTER_BOUND('',#188,.T.) ;
#224=FACE_OUTER_BOUND('',#219,.T.) ;
#250=FACE_OUTER_BOUND('',#245,.T.) ;
#281=FACE_OUTER_BOUND('',#276,.T.) ;
#312=FACE_OUTER_BOUND('',#307,.T.) ;
#338=FACE_OUTER_BOUND('',#333,.T.) ;
#378=FACE_OUTER_BOUND('',#364,.T.) ;
#418=FACE_OUTER_BOUND('',#404,.T.) ;
#440=FACE_OUTER_BOUND('',#435,.T.) ;
#452=FACE_OUTER_BOUND('',#447,.T.) ;
#464=FACE_OUTER_BOUND('',#459,.T.) ;
#9=PRODUCT_CATEGORY_RELATIONSHIP(' ',' ',#7,#8) ;
#6=PRODUCT_DEFINITION_FORMATION_WITH_SPECIFIED_SOURCE('',' ',#5,.NOT_KNOWN.) ;
#20=SHAPE_DEFINITION_REPRESENTATION(#11,#19) ;
#12=(LENGTH_UNIT()NAMED_UNIT(*)SI_UNIT(.MILLI.,.METRE.)) ;
#13=(NAMED_UNIT(*)PLANE_ANGLE_UNIT()SI_UNIT($,.RADIAN.)) ;
#14=(NAMED_UNIT(*)SI_UNIT($,.STERADIAN.)SOLID_ANGLE_UNIT()) ;
#16=(GEOMETRIC_REPRESENTATION_CONTEXT(3)GLOBAL_UNCERTAINTY_ASSIGNED_CONTEXT((#15))GLOBAL_UNIT_ASSIGNED_CONTEXT((#12,#13,#14))REPRESENTATION_CONTEXT(' ',' ')) ;
ENDSEC;
END-ISO-10303-21;
