ISO-10303-21;
HEADER;
FILE_DESCRIPTION(('CATIA V5 STEP Exchange','CAx-IF Rec.Pracs.--- Model Styling and Organization---1.4--- 2014-01-23','CAx-IF Rec.Pracs.---3D Tessellated Data Validation Properties---0.5---2014-09-14'),'2;1');

FILE_NAME('C:\\Users\\PCKT-13\\Documents\\GrabCAD\\I+D\\SERIE_LEXA\\IKOT-1360-170921A-LEXA_WAIST_SUPPORT\\2D\\1360.000.005.002.PLACA.stp','2021-10-25T21:36:03+00:00',('none'),('none'),'CATIA Version 5-6 Release 2018','CATIA V5 STEP AP242','none');

FILE_SCHEMA(('AP242_MANAGED_MODEL_BASED_3D_ENGINEERING_MIM_LF  {1 0 10303 442 1 1 4}'));

ENDSEC;
DATA;
#5=PRODUCT('1360.000.005.002.PLACA','','',(#2)) ;
#2=PRODUCT_CONTEXT(' ',#1,'mechanical') ;
#1=APPLICATION_CONTEXT('managed model based 3d engineering') ;
#10=PRODUCT_DEFINITION('',' ',#6,#3) ;
#3=PRODUCT_DEFINITION_CONTEXT('part definition',#1,' ') ;
#11=PRODUCT_DEFINITION_SHAPE(' ',' ',#10) ;
#408=MECHANICAL_DESIGN_GEOMETRIC_PRESENTATION_REPRESENTATION(' ',(#78,#110,#142,#165,#213,#231,#272,#304,#336,#359,#382,#405,#29),#16) ;
#19=SHAPE_REPRESENTATION(' ',(#18),#16) ;
#7=PRODUCT_CATEGORY('part','specification') ;
#17=CARTESIAN_POINT(' ',(0.,0.,0.)) ;
#31=CARTESIAN_POINT('Axis2P3D Location',(-0.683832700998,5.70919196008,0.)) ;
#36=CARTESIAN_POINT('Line Origine',(-0.683832700998,5.70919196008,1.6)) ;
#40=CARTESIAN_POINT('Vertex',(-0.683832700998,5.70919196008,0.)) ;
#42=CARTESIAN_POINT('Vertex',(-0.683832700998,5.70919196008,3.2)) ;
#45=CARTESIAN_POINT('Line Origine',(-20.3419163505,3.35459598004,0.)) ;
#49=CARTESIAN_POINT('Vertex',(-40.,1.,0.)) ;
#52=CARTESIAN_POINT('Line Origine',(-40.,1.,1.6)) ;
#56=CARTESIAN_POINT('Vertex',(-40.,1.,3.2)) ;
#59=CARTESIAN_POINT('Line Origine',(-20.3419163505,3.35459598004,3.2)) ;
#79=CARTESIAN_POINT('Axis2P3D Location',(-40.,1.,0.)) ;
#84=CARTESIAN_POINT('Line Origine',(-40.,-2.375,0.)) ;
#88=CARTESIAN_POINT('Vertex',(-40.,-5.75,0.)) ;
#91=CARTESIAN_POINT('Line Origine',(-40.,-5.75,1.6)) ;
#95=CARTESIAN_POINT('Vertex',(-40.,-5.75,3.2)) ;
#98=CARTESIAN_POINT('Line Origine',(-40.,-2.375,3.2)) ;
#111=CARTESIAN_POINT('Axis2P3D Location',(-7.1054273576E-015,-5.75,0.)) ;
#116=CARTESIAN_POINT('Line Origine',(-20.,-5.75,0.)) ;
#120=CARTESIAN_POINT('Vertex',(-7.1054273576E-015,-5.75,0.)) ;
#123=CARTESIAN_POINT('Line Origine',(-7.1054273576E-015,-5.75,1.6)) ;
#127=CARTESIAN_POINT('Vertex',(-7.1054273576E-015,-5.75,3.2)) ;
#130=CARTESIAN_POINT('Line Origine',(-20.,-5.75,3.2)) ;
#143=CARTESIAN_POINT('Axis2P3D Location',(0.,0.,1.6)) ;
#148=CARTESIAN_POINT('Axis2P3D Location',(0.,0.,0.)) ;
#153=CARTESIAN_POINT('Axis2P3D Location',(0.,0.,3.2)) ;
#166=CARTESIAN_POINT('Axis2P3D Location',(0.,0.,1.6)) ;
#171=CARTESIAN_POINT('Axis2P3D Location',(0.,0.,3.2)) ;
#175=CARTESIAN_POINT('Vertex',(-3.5,4.28626379702E-016,3.2)) ;
#177=CARTESIAN_POINT('Vertex',(3.5,0.,3.2)) ;
#180=CARTESIAN_POINT('Line Origine',(3.5,-8.57252759403E-016,1.6)) ;
#184=CARTESIAN_POINT('Vertex',(3.5,0.,0.)) ;
#187=CARTESIAN_POINT('Axis2P3D Location',(0.,0.,0.)) ;
#191=CARTESIAN_POINT('Vertex',(-3.5,4.28626379702E-016,0.)) ;
#194=CARTESIAN_POINT('Line Origine',(-3.5,4.28626379702E-016,1.6)) ;
#214=CARTESIAN_POINT('Axis2P3D Location',(0.,0.,3.2)) ;
#219=CARTESIAN_POINT('Axis2P3D Location',(0.,0.,0.)) ;
#232=CARTESIAN_POINT('Axis2P3D Location',(-15.5,-0.4,0.)) ;
#237=CARTESIAN_POINT('Line Origine',(-15.5,-2.,3.2)) ;
#241=CARTESIAN_POINT('Vertex',(-15.5,-3.6,3.2)) ;
#243=CARTESIAN_POINT('Vertex',(-15.5,-0.4,3.2)) ;
#246=CARTESIAN_POINT('Line Origine',(-15.5,-0.4,1.6)) ;
#250=CARTESIAN_POINT('Vertex',(-15.5,-0.4,0.)) ;
#253=CARTESIAN_POINT('Line Origine',(-15.5,-2.,0.)) ;
#257=CARTESIAN_POINT('Vertex',(-15.5,-3.6,0.)) ;
#260=CARTESIAN_POINT('Line Origine',(-15.5,-3.6,1.6)) ;
#273=CARTESIAN_POINT('Axis2P3D Location',(-15.5,-3.6,0.)) ;
#278=CARTESIAN_POINT('Line Origine',(-25.75,-3.6,3.2)) ;
#282=CARTESIAN_POINT('Vertex',(-36.,-3.6,3.2)) ;
#285=CARTESIAN_POINT('Line Origine',(-25.75,-3.6,0.)) ;
#289=CARTESIAN_POINT('Vertex',(-36.,-3.6,0.)) ;
#292=CARTESIAN_POINT('Line Origine',(-36.,-3.6,1.6)) ;
#305=CARTESIAN_POINT('Axis2P3D Location',(-36.,-3.6,0.)) ;
#310=CARTESIAN_POINT('Line Origine',(-36.,-2.,3.2)) ;
#314=CARTESIAN_POINT('Vertex',(-36.,-0.4,3.2)) ;
#317=CARTESIAN_POINT('Line Origine',(-36.,-2.,0.)) ;
#321=CARTESIAN_POINT('Vertex',(-36.,-0.4,0.)) ;
#324=CARTESIAN_POINT('Line Origine',(-36.,-0.4,1.6)) ;
#337=CARTESIAN_POINT('Axis2P3D Location',(-36.,-0.4,0.)) ;
#342=CARTESIAN_POINT('Line Origine',(-25.75,-0.4,3.2)) ;
#347=CARTESIAN_POINT('Line Origine',(-25.75,-0.4,0.)) ;
#360=CARTESIAN_POINT('Axis2P3D Location',(0.,0.,0.)) ;
#383=CARTESIAN_POINT('Axis2P3D Location',(0.,0.,3.2)) ;
#8=PRODUCT_RELATED_PRODUCT_CATEGORY('part',$,(#5)) ;
#29=STYLED_ITEM(' ',(#28),#21) ;
#28=PRESENTATION_STYLE_ASSIGNMENT((#27)) ;
#77=PRESENTATION_STYLE_ASSIGNMENT((#76)) ;
#212=PRESENTATION_STYLE_ASSIGNMENT((#211)) ;
#27=SURFACE_STYLE_USAGE(.BOTH.,#26) ;
#76=SURFACE_STYLE_USAGE(.BOTH.,#75) ;
#211=SURFACE_STYLE_USAGE(.BOTH.,#210) ;
#26=SURFACE_SIDE_STYLE(' ',(#25)) ;
#75=SURFACE_SIDE_STYLE(' ',(#74)) ;
#210=SURFACE_SIDE_STYLE(' ',(#209)) ;
#25=SURFACE_STYLE_FILL_AREA(#24) ;
#74=SURFACE_STYLE_FILL_AREA(#73) ;
#209=SURFACE_STYLE_FILL_AREA(#208) ;
#24=FILL_AREA_STYLE(' ',(#23)) ;
#73=FILL_AREA_STYLE(' ',(#72)) ;
#208=FILL_AREA_STYLE(' ',(#207)) ;
#23=FILL_AREA_STYLE_COLOUR(' ',#22) ;
#72=FILL_AREA_STYLE_COLOUR(' ',#71) ;
#207=FILL_AREA_STYLE_COLOUR(' ',#206) ;
#38=VECTOR('Line Direction',#37,1.) ;
#47=VECTOR('Line Direction',#46,1.) ;
#54=VECTOR('Line Direction',#53,1.) ;
#61=VECTOR('Line Direction',#60,1.) ;
#86=VECTOR('Line Direction',#85,1.) ;
#93=VECTOR('Line Direction',#92,1.) ;
#100=VECTOR('Line Direction',#99,1.) ;
#118=VECTOR('Line Direction',#117,1.) ;
#125=VECTOR('Line Direction',#124,1.) ;
#132=VECTOR('Line Direction',#131,1.) ;
#182=VECTOR('Line Direction',#181,1.) ;
#196=VECTOR('Line Direction',#195,1.) ;
#239=VECTOR('Line Direction',#238,1.) ;
#248=VECTOR('Line Direction',#247,1.) ;
#255=VECTOR('Line Direction',#254,1.) ;
#262=VECTOR('Line Direction',#261,1.) ;
#280=VECTOR('Line Direction',#279,1.) ;
#287=VECTOR('Line Direction',#286,1.) ;
#294=VECTOR('Line Direction',#293,1.) ;
#312=VECTOR('Line Direction',#311,1.) ;
#319=VECTOR('Line Direction',#318,1.) ;
#326=VECTOR('Line Direction',#325,1.) ;
#344=VECTOR('Line Direction',#343,1.) ;
#349=VECTOR('Line Direction',#348,1.) ;
#32=DIRECTION('Axis2P3D Direction',(-0.118927426261,0.992902949579,0.)) ;
#33=DIRECTION('Axis2P3D XDirection',(-0.992902949579,-0.118927426261,-0.)) ;
#37=DIRECTION('Vector Direction',(0.,0.,1.)) ;
#46=DIRECTION('Vector Direction',(-0.992902949579,-0.118927426261,0.)) ;
#53=DIRECTION('Vector Direction',(0.,0.,1.)) ;
#60=DIRECTION('Vector Direction',(-0.992902949579,-0.118927426261,0.)) ;
#80=DIRECTION('Axis2P3D Direction',(-1.,0.,0.)) ;
#81=DIRECTION('Axis2P3D XDirection',(0.,-1.,0.)) ;
#85=DIRECTION('Vector Direction',(0.,-1.,0.)) ;
#92=DIRECTION('Vector Direction',(0.,0.,1.)) ;
#99=DIRECTION('Vector Direction',(0.,-1.,0.)) ;
#112=DIRECTION('Axis2P3D Direction',(0.,1.,-0.)) ;
#113=DIRECTION('Axis2P3D XDirection',(-1.,0.,0.)) ;
#117=DIRECTION('Vector Direction',(-1.,0.,0.)) ;
#124=DIRECTION('Vector Direction',(0.,0.,1.)) ;
#131=DIRECTION('Vector Direction',(-1.,0.,0.)) ;
#144=DIRECTION('Axis2P3D Direction',(0.,0.,1.)) ;
#145=DIRECTION('Axis2P3D XDirection',(-1.07187543957E-015,-1.,-0.)) ;
#149=DIRECTION('Axis2P3D Direction',(0.,0.,1.)) ;
#154=DIRECTION('Axis2P3D Direction',(0.,0.,1.)) ;
#167=DIRECTION('Axis2P3D Direction',(0.,0.,1.)) ;
#168=DIRECTION('Axis2P3D XDirection',(1.,0.,0.)) ;
#172=DIRECTION('Axis2P3D Direction',(0.,0.,1.)) ;
#181=DIRECTION('Vector Direction',(0.,0.,1.)) ;
#188=DIRECTION('Axis2P3D Direction',(0.,0.,1.)) ;
#195=DIRECTION('Vector Direction',(0.,0.,1.)) ;
#215=DIRECTION('Axis2P3D Direction',(0.,0.,1.)) ;
#220=DIRECTION('Axis2P3D Direction',(0.,0.,1.)) ;
#233=DIRECTION('Axis2P3D Direction',(-1.,0.,0.)) ;
#234=DIRECTION('Axis2P3D XDirection',(0.,-1.,0.)) ;
#238=DIRECTION('Vector Direction',(0.,-1.,0.)) ;
#247=DIRECTION('Vector Direction',(0.,0.,1.)) ;
#254=DIRECTION('Vector Direction',(0.,-1.,0.)) ;
#261=DIRECTION('Vector Direction',(0.,0.,1.)) ;
#274=DIRECTION('Axis2P3D Direction',(0.,1.,-0.)) ;
#275=DIRECTION('Axis2P3D XDirection',(-1.,0.,0.)) ;
#279=DIRECTION('Vector Direction',(-1.,0.,0.)) ;
#286=DIRECTION('Vector Direction',(-1.,0.,0.)) ;
#293=DIRECTION('Vector Direction',(0.,0.,1.)) ;
#306=DIRECTION('Axis2P3D Direction',(1.,0.,0.)) ;
#307=DIRECTION('Axis2P3D XDirection',(0.,1.,0.)) ;
#311=DIRECTION('Vector Direction',(0.,1.,0.)) ;
#318=DIRECTION('Vector Direction',(0.,1.,0.)) ;
#325=DIRECTION('Vector Direction',(0.,0.,1.)) ;
#338=DIRECTION('Axis2P3D Direction',(0.,-1.,0.)) ;
#339=DIRECTION('Axis2P3D XDirection',(1.,0.,0.)) ;
#343=DIRECTION('Vector Direction',(1.,0.,0.)) ;
#348=DIRECTION('Vector Direction',(1.,0.,0.)) ;
#361=DIRECTION('Axis2P3D Direction',(0.,0.,1.)) ;
#362=DIRECTION('Axis2P3D XDirection',(1.,0.,0.)) ;
#384=DIRECTION('Axis2P3D Direction',(0.,0.,1.)) ;
#385=DIRECTION('Axis2P3D XDirection',(1.,0.,0.)) ;
#15=UNCERTAINTY_MEASURE_WITH_UNIT(LENGTH_MEASURE(0.005),#12,'distance_accuracy_value','CONFUSED CURVE UNCERTAINTY') ;
#18=AXIS2_PLACEMENT_3D(' ',#17,$,$) ;
#34=AXIS2_PLACEMENT_3D('Plane Axis2P3D',#31,#32,#33) ;
#82=AXIS2_PLACEMENT_3D('Plane Axis2P3D',#79,#80,#81) ;
#114=AXIS2_PLACEMENT_3D('Plane Axis2P3D',#111,#112,#113) ;
#146=AXIS2_PLACEMENT_3D('Cylinder Axis2P3D',#143,#144,#145) ;
#150=AXIS2_PLACEMENT_3D('Circle Axis2P3D',#148,#149,$) ;
#155=AXIS2_PLACEMENT_3D('Circle Axis2P3D',#153,#154,$) ;
#169=AXIS2_PLACEMENT_3D('Cylinder Axis2P3D',#166,#167,#168) ;
#173=AXIS2_PLACEMENT_3D('Circle Axis2P3D',#171,#172,$) ;
#189=AXIS2_PLACEMENT_3D('Circle Axis2P3D',#187,#188,$) ;
#216=AXIS2_PLACEMENT_3D('Circle Axis2P3D',#214,#215,$) ;
#221=AXIS2_PLACEMENT_3D('Circle Axis2P3D',#219,#220,$) ;
#235=AXIS2_PLACEMENT_3D('Plane Axis2P3D',#232,#233,#234) ;
#276=AXIS2_PLACEMENT_3D('Plane Axis2P3D',#273,#274,#275) ;
#308=AXIS2_PLACEMENT_3D('Plane Axis2P3D',#305,#306,#307) ;
#340=AXIS2_PLACEMENT_3D('Plane Axis2P3D',#337,#338,#339) ;
#363=AXIS2_PLACEMENT_3D('Plane Axis2P3D',#360,#361,#362) ;
#386=AXIS2_PLACEMENT_3D('Plane Axis2P3D',#383,#384,#385) ;
#39=LINE('Line',#36,#38) ;
#48=LINE('Line',#45,#47) ;
#55=LINE('Line',#52,#54) ;
#62=LINE('Line',#59,#61) ;
#87=LINE('Line',#84,#86) ;
#94=LINE('Line',#91,#93) ;
#101=LINE('Line',#98,#100) ;
#119=LINE('Line',#116,#118) ;
#126=LINE('Line',#123,#125) ;
#133=LINE('Line',#130,#132) ;
#183=LINE('Line',#180,#182) ;
#197=LINE('Line',#194,#196) ;
#240=LINE('Line',#237,#239) ;
#249=LINE('Line',#246,#248) ;
#256=LINE('Line',#253,#255) ;
#263=LINE('Line',#260,#262) ;
#281=LINE('Line',#278,#280) ;
#288=LINE('Line',#285,#287) ;
#295=LINE('Line',#292,#294) ;
#313=LINE('Line',#310,#312) ;
#320=LINE('Line',#317,#319) ;
#327=LINE('Line',#324,#326) ;
#345=LINE('Line',#342,#344) ;
#350=LINE('Line',#347,#349) ;
#151=CIRCLE('generated circle',#150,5.75) ;
#156=CIRCLE('generated circle',#155,5.75) ;
#174=CIRCLE('generated circle',#173,3.5) ;
#190=CIRCLE('generated circle',#189,3.5) ;
#217=CIRCLE('generated circle',#216,3.5) ;
#222=CIRCLE('generated circle',#221,3.5) ;
#35=PLANE('',#34) ;
#83=PLANE('',#82) ;
#115=PLANE('',#114) ;
#236=PLANE('',#235) ;
#277=PLANE('',#276) ;
#309=PLANE('',#308) ;
#341=PLANE('',#340) ;
#364=PLANE('',#363) ;
#387=PLANE('',#386) ;
#147=CYLINDRICAL_SURFACE('generated cylinder',#146,5.75) ;
#170=CYLINDRICAL_SURFACE('generated cylinder',#169,3.5) ;
#374=FACE_BOUND('',#371,.T.) ;
#380=FACE_BOUND('',#375,.T.) ;
#397=FACE_BOUND('',#394,.T.) ;
#403=FACE_BOUND('',#398,.T.) ;
#44=EDGE_CURVE('',#41,#43,#39,.T.) ;
#51=EDGE_CURVE('',#41,#50,#48,.T.) ;
#58=EDGE_CURVE('',#50,#57,#55,.T.) ;
#63=EDGE_CURVE('',#43,#57,#62,.T.) ;
#90=EDGE_CURVE('',#50,#89,#87,.T.) ;
#97=EDGE_CURVE('',#89,#96,#94,.T.) ;
#102=EDGE_CURVE('',#57,#96,#101,.T.) ;
#122=EDGE_CURVE('',#89,#121,#119,.F.) ;
#129=EDGE_CURVE('',#121,#128,#126,.T.) ;
#134=EDGE_CURVE('',#96,#128,#133,.F.) ;
#152=EDGE_CURVE('',#121,#41,#151,.T.) ;
#157=EDGE_CURVE('',#128,#43,#156,.T.) ;
#179=EDGE_CURVE('',#176,#178,#174,.T.) ;
#186=EDGE_CURVE('',#185,#178,#183,.T.) ;
#193=EDGE_CURVE('',#192,#185,#190,.T.) ;
#198=EDGE_CURVE('',#192,#176,#197,.T.) ;
#218=EDGE_CURVE('',#178,#176,#217,.T.) ;
#223=EDGE_CURVE('',#185,#192,#222,.T.) ;
#245=EDGE_CURVE('',#242,#244,#240,.F.) ;
#252=EDGE_CURVE('',#251,#244,#249,.T.) ;
#259=EDGE_CURVE('',#258,#251,#256,.F.) ;
#264=EDGE_CURVE('',#258,#242,#263,.T.) ;
#284=EDGE_CURVE('',#283,#242,#281,.F.) ;
#291=EDGE_CURVE('',#290,#258,#288,.F.) ;
#296=EDGE_CURVE('',#290,#283,#295,.T.) ;
#316=EDGE_CURVE('',#315,#283,#313,.F.) ;
#323=EDGE_CURVE('',#322,#290,#320,.F.) ;
#328=EDGE_CURVE('',#322,#315,#327,.T.) ;
#346=EDGE_CURVE('',#244,#315,#345,.F.) ;
#351=EDGE_CURVE('',#251,#322,#350,.F.) ;
#30=CLOSED_SHELL('Closed Shell',(#70,#109,#141,#164,#205,#230,#271,#303,#335,#358,#381,#404)) ;
#407=SHAPE_REPRESENTATION_RELATIONSHIP(' ',' ',#19,#406) ;
#64=EDGE_LOOP('',(#65,#66,#67,#68)) ;
#103=EDGE_LOOP('',(#104,#105,#106,#107)) ;
#135=EDGE_LOOP('',(#136,#137,#138,#139)) ;
#158=EDGE_LOOP('',(#159,#160,#161,#162)) ;
#199=EDGE_LOOP('',(#200,#201,#202,#203)) ;
#224=EDGE_LOOP('',(#225,#226,#227,#228)) ;
#265=EDGE_LOOP('',(#266,#267,#268,#269)) ;
#297=EDGE_LOOP('',(#298,#299,#300,#301)) ;
#329=EDGE_LOOP('',(#330,#331,#332,#333)) ;
#352=EDGE_LOOP('',(#353,#354,#355,#356)) ;
#365=EDGE_LOOP('',(#366,#367,#368,#369)) ;
#371=EDGE_LOOP('',(#372,#373)) ;
#375=EDGE_LOOP('',(#376,#377,#378,#379)) ;
#388=EDGE_LOOP('',(#389,#390,#391,#392)) ;
#394=EDGE_LOOP('',(#395,#396)) ;
#398=EDGE_LOOP('',(#399,#400,#401,#402)) ;
#65=ORIENTED_EDGE('',*,*,#44,.F.) ;
#66=ORIENTED_EDGE('',*,*,#51,.T.) ;
#67=ORIENTED_EDGE('',*,*,#58,.T.) ;
#68=ORIENTED_EDGE('',*,*,#63,.F.) ;
#104=ORIENTED_EDGE('',*,*,#58,.F.) ;
#105=ORIENTED_EDGE('',*,*,#90,.T.) ;
#106=ORIENTED_EDGE('',*,*,#97,.T.) ;
#107=ORIENTED_EDGE('',*,*,#102,.F.) ;
#136=ORIENTED_EDGE('',*,*,#97,.F.) ;
#137=ORIENTED_EDGE('',*,*,#122,.T.) ;
#138=ORIENTED_EDGE('',*,*,#129,.T.) ;
#139=ORIENTED_EDGE('',*,*,#134,.F.) ;
#159=ORIENTED_EDGE('',*,*,#129,.F.) ;
#160=ORIENTED_EDGE('',*,*,#152,.T.) ;
#161=ORIENTED_EDGE('',*,*,#44,.T.) ;
#162=ORIENTED_EDGE('',*,*,#157,.F.) ;
#200=ORIENTED_EDGE('',*,*,#179,.T.) ;
#201=ORIENTED_EDGE('',*,*,#186,.F.) ;
#202=ORIENTED_EDGE('',*,*,#193,.F.) ;
#203=ORIENTED_EDGE('',*,*,#198,.T.) ;
#225=ORIENTED_EDGE('',*,*,#218,.T.) ;
#226=ORIENTED_EDGE('',*,*,#198,.F.) ;
#227=ORIENTED_EDGE('',*,*,#223,.F.) ;
#228=ORIENTED_EDGE('',*,*,#186,.T.) ;
#266=ORIENTED_EDGE('',*,*,#245,.T.) ;
#267=ORIENTED_EDGE('',*,*,#252,.F.) ;
#268=ORIENTED_EDGE('',*,*,#259,.F.) ;
#269=ORIENTED_EDGE('',*,*,#264,.T.) ;
#298=ORIENTED_EDGE('',*,*,#284,.T.) ;
#299=ORIENTED_EDGE('',*,*,#264,.F.) ;
#300=ORIENTED_EDGE('',*,*,#291,.F.) ;
#301=ORIENTED_EDGE('',*,*,#296,.T.) ;
#330=ORIENTED_EDGE('',*,*,#316,.T.) ;
#331=ORIENTED_EDGE('',*,*,#296,.F.) ;
#332=ORIENTED_EDGE('',*,*,#323,.F.) ;
#333=ORIENTED_EDGE('',*,*,#328,.T.) ;
#353=ORIENTED_EDGE('',*,*,#346,.T.) ;
#354=ORIENTED_EDGE('',*,*,#328,.F.) ;
#355=ORIENTED_EDGE('',*,*,#351,.F.) ;
#356=ORIENTED_EDGE('',*,*,#252,.T.) ;
#366=ORIENTED_EDGE('',*,*,#152,.F.) ;
#367=ORIENTED_EDGE('',*,*,#122,.F.) ;
#368=ORIENTED_EDGE('',*,*,#90,.F.) ;
#369=ORIENTED_EDGE('',*,*,#51,.F.) ;
#372=ORIENTED_EDGE('',*,*,#223,.T.) ;
#373=ORIENTED_EDGE('',*,*,#193,.T.) ;
#376=ORIENTED_EDGE('',*,*,#351,.T.) ;
#377=ORIENTED_EDGE('',*,*,#323,.T.) ;
#378=ORIENTED_EDGE('',*,*,#291,.T.) ;
#379=ORIENTED_EDGE('',*,*,#259,.T.) ;
#389=ORIENTED_EDGE('',*,*,#63,.T.) ;
#390=ORIENTED_EDGE('',*,*,#102,.T.) ;
#391=ORIENTED_EDGE('',*,*,#134,.T.) ;
#392=ORIENTED_EDGE('',*,*,#157,.T.) ;
#395=ORIENTED_EDGE('',*,*,#179,.F.) ;
#396=ORIENTED_EDGE('',*,*,#218,.F.) ;
#399=ORIENTED_EDGE('',*,*,#245,.F.) ;
#400=ORIENTED_EDGE('',*,*,#284,.F.) ;
#401=ORIENTED_EDGE('',*,*,#316,.F.) ;
#402=ORIENTED_EDGE('',*,*,#346,.F.) ;
#21=MANIFOLD_SOLID_BREP('PartBody',#30) ;
#41=VERTEX_POINT('',#40) ;
#43=VERTEX_POINT('',#42) ;
#50=VERTEX_POINT('',#49) ;
#57=VERTEX_POINT('',#56) ;
#89=VERTEX_POINT('',#88) ;
#96=VERTEX_POINT('',#95) ;
#121=VERTEX_POINT('',#120) ;
#128=VERTEX_POINT('',#127) ;
#176=VERTEX_POINT('',#175) ;
#178=VERTEX_POINT('',#177) ;
#185=VERTEX_POINT('',#184) ;
#192=VERTEX_POINT('',#191) ;
#242=VERTEX_POINT('',#241) ;
#244=VERTEX_POINT('',#243) ;
#251=VERTEX_POINT('',#250) ;
#258=VERTEX_POINT('',#257) ;
#283=VERTEX_POINT('',#282) ;
#290=VERTEX_POINT('',#289) ;
#315=VERTEX_POINT('',#314) ;
#322=VERTEX_POINT('',#321) ;
#406=ADVANCED_BREP_SHAPE_REPRESENTATION('NONE',(#21),#16) ;
#70=ADVANCED_FACE('PartBody',(#69),#35,.T.) ;
#109=ADVANCED_FACE('PartBody',(#108),#83,.T.) ;
#141=ADVANCED_FACE('PartBody',(#140),#115,.F.) ;
#164=ADVANCED_FACE('PartBody',(#163),#147,.T.) ;
#205=ADVANCED_FACE('PartBody',(#204),#170,.F.) ;
#230=ADVANCED_FACE('PartBody',(#229),#170,.F.) ;
#271=ADVANCED_FACE('PartBody',(#270),#236,.T.) ;
#303=ADVANCED_FACE('PartBody',(#302),#277,.T.) ;
#335=ADVANCED_FACE('PartBody',(#334),#309,.T.) ;
#358=ADVANCED_FACE('PartBody',(#357),#341,.T.) ;
#381=ADVANCED_FACE('PartBody',(#370,#374,#380),#364,.F.) ;
#404=ADVANCED_FACE('PartBody',(#393,#397,#403),#387,.T.) ;
#4=APPLICATION_PROTOCOL_DEFINITION('international standard','ap242_managed_model_based_3d_engineering',2014,#1) ;
#22=COLOUR_RGB('Colour',0.823529411765,0.823529411765,1.) ;
#71=COLOUR_RGB('Colour',0.2,0.2,0.2) ;
#78=OVER_RIDING_STYLED_ITEM(' ',(#77),#70,#29) ;
#110=OVER_RIDING_STYLED_ITEM(' ',(#77),#109,#29) ;
#142=OVER_RIDING_STYLED_ITEM(' ',(#77),#141,#29) ;
#165=OVER_RIDING_STYLED_ITEM(' ',(#77),#164,#29) ;
#213=OVER_RIDING_STYLED_ITEM(' ',(#212),#205,#29) ;
#231=OVER_RIDING_STYLED_ITEM(' ',(#212),#230,#29) ;
#272=OVER_RIDING_STYLED_ITEM(' ',(#77),#271,#29) ;
#304=OVER_RIDING_STYLED_ITEM(' ',(#77),#303,#29) ;
#336=OVER_RIDING_STYLED_ITEM(' ',(#77),#335,#29) ;
#359=OVER_RIDING_STYLED_ITEM(' ',(#77),#358,#29) ;
#382=OVER_RIDING_STYLED_ITEM(' ',(#77),#381,#29) ;
#405=OVER_RIDING_STYLED_ITEM(' ',(#77),#404,#29) ;
#206=DRAUGHTING_PRE_DEFINED_COLOUR('blue') ;
#69=FACE_OUTER_BOUND('',#64,.T.) ;
#108=FACE_OUTER_BOUND('',#103,.T.) ;
#140=FACE_OUTER_BOUND('',#135,.T.) ;
#163=FACE_OUTER_BOUND('',#158,.T.) ;
#204=FACE_OUTER_BOUND('',#199,.T.) ;
#229=FACE_OUTER_BOUND('',#224,.T.) ;
#270=FACE_OUTER_BOUND('',#265,.T.) ;
#302=FACE_OUTER_BOUND('',#297,.T.) ;
#334=FACE_OUTER_BOUND('',#329,.T.) ;
#357=FACE_OUTER_BOUND('',#352,.T.) ;
#370=FACE_OUTER_BOUND('',#365,.T.) ;
#393=FACE_OUTER_BOUND('',#388,.T.) ;
#9=PRODUCT_CATEGORY_RELATIONSHIP(' ',' ',#7,#8) ;
#6=PRODUCT_DEFINITION_FORMATION_WITH_SPECIFIED_SOURCE('',' ',#5,.NOT_KNOWN.) ;
#20=SHAPE_DEFINITION_REPRESENTATION(#11,#19) ;
#12=(LENGTH_UNIT()NAMED_UNIT(*)SI_UNIT(.MILLI.,.METRE.)) ;
#13=(NAMED_UNIT(*)PLANE_ANGLE_UNIT()SI_UNIT($,.RADIAN.)) ;
#14=(NAMED_UNIT(*)SI_UNIT($,.STERADIAN.)SOLID_ANGLE_UNIT()) ;
#16=(GEOMETRIC_REPRESENTATION_CONTEXT(3)GLOBAL_UNCERTAINTY_ASSIGNED_CONTEXT((#15))GLOBAL_UNIT_ASSIGNED_CONTEXT((#12,#13,#14))REPRESENTATION_CONTEXT(' ',' ')) ;
ENDSEC;
END-ISO-10303-21;
