ISO-10303-21;
HEADER;
FILE_DESCRIPTION(('CATIA V5 STEP Exchange','CAx-IF Rec.Pracs.--- Model Styling and Organization---1.4--- 2014-01-23','CAx-IF Rec.Pracs.---3D Tessellated Data Validation Properties---0.5---2014-09-14'),'2;1');

FILE_NAME('C:\\Users\\PCKT-13\\Documents\\GrabCAD\\I+D\\SERIE_LEXA\\IKOT-1360-170921A-LEXA_WAIST_SUPPORT\\2D\\1360.000.005.003.SM.stp','2021-10-25T21:36:28+00:00',('none'),('none'),'CATIA Version 5-6 Release 2018','CATIA V5 STEP AP242','none');

FILE_SCHEMA(('AP242_MANAGED_MODEL_BASED_3D_ENGINEERING_MIM_LF  {1 0 10303 442 1 1 4}'));

ENDSEC;
DATA;
#5=PRODUCT('1360.000.005.003.SM','','',(#2)) ;
#2=PRODUCT_CONTEXT(' ',#1,'mechanical') ;
#1=APPLICATION_CONTEXT('managed model based 3d engineering') ;
#10=PRODUCT_DEFINITION('',' ',#6,#3) ;
#3=PRODUCT_DEFINITION_CONTEXT('part definition',#1,' ') ;
#11=PRODUCT_DEFINITION_SHAPE(' ',' ',#10) ;
#602=MECHANICAL_DESIGN_GEOMETRIC_PRESENTATION_REPRESENTATION(' ',(#494,#512,#29),#16) ;
#19=SHAPE_REPRESENTATION(' ',(#18),#16) ;
#7=PRODUCT_CATEGORY('part','specification') ;
#17=CARTESIAN_POINT(' ',(0.,0.,0.)) ;
#31=CARTESIAN_POINT('Axis2P3D Location',(1.24615635364,-3.5,-15.637373945)) ;
#36=CARTESIAN_POINT('Line Origine',(1.24615635364,-1.9,-15.637373945)) ;
#40=CARTESIAN_POINT('Vertex',(1.24615635364,-0.3,-15.637373945)) ;
#42=CARTESIAN_POINT('Vertex',(1.24615635364,-3.5,-15.637373945)) ;
#45=CARTESIAN_POINT('Line Origine',(2.8051484573,-0.3,-15.277452258)) ;
#49=CARTESIAN_POINT('Vertex',(4.36414056096,-0.3,-14.9175305711)) ;
#52=CARTESIAN_POINT('Line Origine',(4.36414056096,-1.9,-14.9175305711)) ;
#56=CARTESIAN_POINT('Vertex',(4.36414056096,-3.5,-14.9175305711)) ;
#59=CARTESIAN_POINT('Line Origine',(2.8051484573,-3.5,-15.277452258)) ;
#71=CARTESIAN_POINT('Axis2P3D Location',(0.,-0.3,-15.3)) ;
#76=CARTESIAN_POINT('Line Origine',(3.55190466067,-0.3,-25.624667109)) ;
#80=CARTESIAN_POINT('Vertex',(5.85765296769,-0.3,-35.6119602731)) ;
#83=CARTESIAN_POINT('Line Origine',(7.41664507135,-0.3,-35.2520385861)) ;
#87=CARTESIAN_POINT('Vertex',(8.97563717501,-0.3,-34.8921168992)) ;
#90=CARTESIAN_POINT('Line Origine',(6.66988886798,-0.3,-24.9048237351)) ;
#102=CARTESIAN_POINT('Axis2P3D Location',(5.85765296769,-0.3,-35.6119602731)) ;
#107=CARTESIAN_POINT('Line Origine',(5.85765296769,-1.9,-35.6119602731)) ;
#111=CARTESIAN_POINT('Vertex',(5.85765296769,-3.5,-35.6119602731)) ;
#114=CARTESIAN_POINT('Line Origine',(7.41664507135,-3.49999999832,-35.2520385861)) ;
#118=CARTESIAN_POINT('Vertex',(8.97563717501,-3.5,-34.8921168992)) ;
#121=CARTESIAN_POINT('Line Origine',(8.97563717501,-1.9,-34.8921168992)) ;
#133=CARTESIAN_POINT('Axis2P3D Location',(0.,-3.5,-35.8)) ;
#138=CARTESIAN_POINT('Line Origine',(3.55190466067,-3.5,-25.624667109)) ;
#143=CARTESIAN_POINT('Line Origine',(6.66988886798,-3.5,-24.9048237351)) ;
#155=CARTESIAN_POINT('Axis2P3D Location',(-2.19559477782,2.18490572533E-016,-0.729511953776)) ;
#160=CARTESIAN_POINT('Line Origine',(3.49349146472,-6.5,-25.37165176)) ;
#164=CARTESIAN_POINT('Vertex',(6.80244739573,-6.5,-39.7043145443)) ;
#166=CARTESIAN_POINT('Vertex',(0.184535533546,-6.5,-11.0389889751)) ;
#169=CARTESIAN_POINT('Line Origine',(0.184535533546,-0.64230452629,-11.0389889751)) ;
#173=CARTESIAN_POINT('Vertex',(0.184535533546,5.21539094742,-11.0389889751)) ;
#176=CARTESIAN_POINT('Line Origine',(3.49349146474,3.35769547371,-25.3716517601)) ;
#180=CARTESIAN_POINT('Vertex',(6.80244739594,1.5,-39.7043145452)) ;
#183=CARTESIAN_POINT('Line Origine',(6.80244739594,-2.5,-39.7043145452)) ;
#201=CARTESIAN_POINT('Axis2P3D Location',(6.80244739594,-6.5,-39.7043145452)) ;
#206=CARTESIAN_POINT('Line Origine',(8.36143949959,1.5,-39.3443928582)) ;
#210=CARTESIAN_POINT('Vertex',(9.92043160325,1.5,-38.9844711713)) ;
#213=CARTESIAN_POINT('Line Origine',(9.92043160325,-2.5,-38.9844711713)) ;
#217=CARTESIAN_POINT('Vertex',(9.92043160304,-6.5,-38.9844711704)) ;
#220=CARTESIAN_POINT('Line Origine',(8.36143949959,-6.5,-39.3443928582)) ;
#232=CARTESIAN_POINT('Axis2P3D Location',(0.,-6.5,0.)) ;
#237=CARTESIAN_POINT('Line Origine',(6.61147567203,-6.5,-24.6518083861)) ;
#241=CARTESIAN_POINT('Vertex',(3.30251974086,-6.5,-10.3191456012)) ;
#244=CARTESIAN_POINT('Line Origine',(1.7435276372,-6.5,-10.6790672881)) ;
#256=CARTESIAN_POINT('Axis2P3D Location',(0.922389429497,2.89576276519E-018,-0.00966857987515)) ;
#262=CARTESIAN_POINT('Control Point',(9.92043160325,1.5,-38.9844711713)) ;
#263=CARTESIAN_POINT('Control Point',(3.30251974086,5.21539094742,-10.3191456012)) ;
#264=CARTESIAN_POINT('Vertex',(3.30251974086,5.21539094742,-10.3191456012)) ;
#267=CARTESIAN_POINT('Line Origine',(3.30251974086,0.,-10.3191456012)) ;
#285=CARTESIAN_POINT('Axis2P3D Location',(6.80244739594,1.5,-39.7043145452)) ;
#290=CARTESIAN_POINT('Line Origine',(1.7435276372,5.21539094742,-10.6790672881)) ;
#303=CARTESIAN_POINT('Control Point',(3.30251974086,5.21539094742,-10.3191456012)) ;
#304=CARTESIAN_POINT('Control Point',(0.184535533546,5.21539094742,-11.0389889751)) ;
#305=CARTESIAN_POINT('Control Point',(3.2616879207,5.24472367432,-10.1422835573)) ;
#306=CARTESIAN_POINT('Control Point',(0.111038257253,5.24472367432,-10.720637296)) ;
#307=CARTESIAN_POINT('Control Point',(3.23088828175,5.27405640122,-9.96310540179)) ;
#308=CARTESIAN_POINT('Control Point',(0.0555989071425,5.27405640122,-10.3981166162)) ;
#309=CARTESIAN_POINT('Control Point',(3.21029606879,5.30338912813,-9.78236986823)) ;
#310=CARTESIAN_POINT('Control Point',(0.0185329238198,5.30338912813,-10.0727926558)) ;
#311=CARTESIAN_POINT('Control Point',(3.2,5.33272185503,-9.60085562603)) ;
#312=CARTESIAN_POINT('Control Point',(7.54951656745E-015,5.33272185503,-9.74606701979)) ;
#313=CARTESIAN_POINT('Control Point',(3.2,5.36205458193,-9.41934138382)) ;
#314=CARTESIAN_POINT('Control Point',(8.881784197E-015,5.36205458193,-9.41934138382)) ;
#316=CARTESIAN_POINT('Control Point',(0.184535533546,5.21539094742,-11.0389889751)) ;
#317=CARTESIAN_POINT('Control Point',(0.0620400730574,5.26427882559,-10.5084028433)) ;
#318=CARTESIAN_POINT('Control Point',(2.08802882392E-015,5.31316670376,-9.96388411044)) ;
#319=CARTESIAN_POINT('Control Point',(-1.38777878078E-016,5.36205458193,-9.41934138382)) ;
#320=CARTESIAN_POINT('Vertex',(0.,5.36205458193,-9.41934138382)) ;
#324=CARTESIAN_POINT('Control Point',(4.4408920985E-016,5.36205458193,-9.41934138382)) ;
#325=CARTESIAN_POINT('Control Point',(3.2,5.36205458193,-9.41934138382)) ;
#326=CARTESIAN_POINT('Vertex',(3.2,5.36205458193,-9.41934138382)) ;
#330=CARTESIAN_POINT('Control Point',(3.30251974086,5.21539094742,-10.3191456012)) ;
#331=CARTESIAN_POINT('Control Point',(3.23446670725,5.26427882559,-10.024375528)) ;
#332=CARTESIAN_POINT('Control Point',(3.2,5.31316670376,-9.72186512083)) ;
#333=CARTESIAN_POINT('Control Point',(3.2,5.36205458193,-9.41934138382)) ;
#342=CARTESIAN_POINT('Axis2P3D Location',(7.2,5.36205458193,-9.41934138382)) ;
#347=CARTESIAN_POINT('Axis2P3D Location',(7.2,-6.5,-9.41934138382)) ;
#351=CARTESIAN_POINT('Vertex',(3.2,-6.5,-9.41934138382)) ;
#354=CARTESIAN_POINT('Line Origine',(3.2,-0.568972709036,-9.41934138382)) ;
#366=CARTESIAN_POINT('Axis2P3D Location',(0.,-6.5,-9.41934138382)) ;
#371=CARTESIAN_POINT('Line Origine',(1.6,-6.5,-9.41934138382)) ;
#375=CARTESIAN_POINT('Vertex',(0.,-6.5,-9.41934138382)) ;
#378=CARTESIAN_POINT('Axis2P3D Location',(7.2,-6.5,-9.41934138382)) ;
#390=CARTESIAN_POINT('Axis2P3D Location',(7.2,5.36205458193,-9.41934138382)) ;
#395=CARTESIAN_POINT('Line Origine',(0.,-0.568972709036,-9.41934138382)) ;
#407=CARTESIAN_POINT('Axis2P3D Location',(0.,0.,0.)) ;
#412=CARTESIAN_POINT('Line Origine',(0.,5.90541555192,-5.11688113212)) ;
#416=CARTESIAN_POINT('Vertex',(0.,6.44877652191,-0.814420880428)) ;
#419=CARTESIAN_POINT('Line Origine',(0.,-6.5,-4.70967069191)) ;
#423=CARTESIAN_POINT('Vertex',(0.,-6.5,2.38806125834E-015)) ;
#426=CARTESIAN_POINT('Axis2P3D Location',(0.,0.,0.)) ;
#437=CARTESIAN_POINT('Axis2P3D Location',(0.,0.,0.)) ;
#441=CARTESIAN_POINT('Vertex',(0.,3.5,0.)) ;
#443=CARTESIAN_POINT('Vertex',(0.,-3.5,4.28626379702E-016)) ;
#446=CARTESIAN_POINT('Axis2P3D Location',(0.,0.,0.)) ;
#456=CARTESIAN_POINT('Axis2P3D Location',(0.,0.,0.)) ;
#461=CARTESIAN_POINT('Line Origine',(1.6,-3.5,4.28626379702E-016)) ;
#465=CARTESIAN_POINT('Vertex',(3.2,-3.5,4.28626379702E-016)) ;
#468=CARTESIAN_POINT('Axis2P3D Location',(3.2,0.,0.)) ;
#472=CARTESIAN_POINT('Vertex',(3.2,3.5,0.)) ;
#475=CARTESIAN_POINT('Line Origine',(1.6,3.5,-8.57252759403E-016)) ;
#495=CARTESIAN_POINT('Axis2P3D Location',(0.,0.,0.)) ;
#500=CARTESIAN_POINT('Axis2P3D Location',(3.2,0.,0.)) ;
#513=CARTESIAN_POINT('Axis2P3D Location',(3.2,0.,0.)) ;
#519=CARTESIAN_POINT('Control Point',(3.2,6.44877652191,-0.814420880428)) ;
#520=CARTESIAN_POINT('Control Point',(3.2,6.58182106403,0.23905716784)) ;
#521=CARTESIAN_POINT('Control Point',(3.2,6.49974418071,1.31970306417)) ;
#522=CARTESIAN_POINT('Control Point',(3.2,6.19489021178,2.36888705012)) ;
#523=CARTESIAN_POINT('Control Point',(3.2,5.17528452399,4.28161622946)) ;
#524=CARTESIAN_POINT('Control Point',(3.2,3.48741254961,5.64147536563)) ;
#525=CARTESIAN_POINT('Control Point',(3.2,2.51390815085,6.13747149902)) ;
#526=CARTESIAN_POINT('Control Point',(3.2,0.421625843428,6.70358404801)) ;
#527=CARTESIAN_POINT('Control Point',(3.2,-1.7250995261,6.40408636866)) ;
#528=CARTESIAN_POINT('Control Point',(3.2,-2.75307828276,6.03397469013)) ;
#529=CARTESIAN_POINT('Control Point',(3.2,-4.5980331805,4.89631476844)) ;
#530=CARTESIAN_POINT('Control Point',(3.2,-5.84926022716,3.12641094343)) ;
#531=CARTESIAN_POINT('Control Point',(3.2,-6.28316983685,2.12369192528)) ;
#532=CARTESIAN_POINT('Control Point',(3.2,-6.5,1.06184596264)) ;
#533=CARTESIAN_POINT('Control Point',(3.2,-6.5,1.7763568394E-015)) ;
#534=CARTESIAN_POINT('Vertex',(3.2,6.44877652191,-0.814420880428)) ;
#536=CARTESIAN_POINT('Vertex',(3.2,-6.5,0.)) ;
#539=CARTESIAN_POINT('Line Origine',(3.2,-6.5,-16.75)) ;
#545=CARTESIAN_POINT('Control Point',(3.2,5.36205458193,-9.41934138382)) ;
#546=CARTESIAN_POINT('Control Point',(3.2,6.44877652191,-0.814420880428)) ;
#559=CARTESIAN_POINT('Line Origine',(1.6,-6.5,0.)) ;
#571=CARTESIAN_POINT('Axis2P3D Location',(0.,0.,0.)) ;
#576=CARTESIAN_POINT('Line Origine',(1.6,6.44877652191,-0.814420880428)) ;
#588=CARTESIAN_POINT('Axis2P3D Location',(0.,1.5,-40.)) ;
#8=PRODUCT_RELATED_PRODUCT_CATEGORY('part',$,(#5)) ;
#29=STYLED_ITEM(' ',(#28),#21) ;
#28=PRESENTATION_STYLE_ASSIGNMENT((#27)) ;
#493=PRESENTATION_STYLE_ASSIGNMENT((#492)) ;
#27=SURFACE_STYLE_USAGE(.BOTH.,#26) ;
#492=SURFACE_STYLE_USAGE(.BOTH.,#491) ;
#26=SURFACE_SIDE_STYLE(' ',(#25)) ;
#491=SURFACE_SIDE_STYLE(' ',(#490)) ;
#25=SURFACE_STYLE_FILL_AREA(#24) ;
#490=SURFACE_STYLE_FILL_AREA(#489) ;
#24=FILL_AREA_STYLE(' ',(#23)) ;
#489=FILL_AREA_STYLE(' ',(#488)) ;
#23=FILL_AREA_STYLE_COLOUR(' ',#22) ;
#488=FILL_AREA_STYLE_COLOUR(' ',#487) ;
#38=VECTOR('Line Direction',#37,1.) ;
#47=VECTOR('Line Direction',#46,1.) ;
#54=VECTOR('Line Direction',#53,1.) ;
#61=VECTOR('Line Direction',#60,1.) ;
#78=VECTOR('Line Direction',#77,1.) ;
#85=VECTOR('Line Direction',#84,1.) ;
#92=VECTOR('Line Direction',#91,1.) ;
#109=VECTOR('Line Direction',#108,1.) ;
#116=VECTOR('Line Direction',#115,1.) ;
#123=VECTOR('Line Direction',#122,1.) ;
#140=VECTOR('Line Direction',#139,1.) ;
#145=VECTOR('Line Direction',#144,1.) ;
#162=VECTOR('Line Direction',#161,1.) ;
#171=VECTOR('Line Direction',#170,1.) ;
#178=VECTOR('Line Direction',#177,1.) ;
#185=VECTOR('Line Direction',#184,1.) ;
#208=VECTOR('Line Direction',#207,1.) ;
#215=VECTOR('Line Direction',#214,1.) ;
#222=VECTOR('Line Direction',#221,1.) ;
#239=VECTOR('Line Direction',#238,1.) ;
#246=VECTOR('Line Direction',#245,1.) ;
#269=VECTOR('Line Direction',#268,1.) ;
#292=VECTOR('Line Direction',#291,1.) ;
#356=VECTOR('Line Direction',#355,1.) ;
#373=VECTOR('Line Direction',#372,1.) ;
#397=VECTOR('Line Direction',#396,1.) ;
#414=VECTOR('Line Direction',#413,1.) ;
#421=VECTOR('Line Direction',#420,1.) ;
#463=VECTOR('Line Direction',#462,1.) ;
#477=VECTOR('Line Direction',#476,1.) ;
#541=VECTOR('Line Direction',#540,1.) ;
#561=VECTOR('Line Direction',#560,1.) ;
#578=VECTOR('Line Direction',#577,1.) ;
#32=DIRECTION('Axis2P3D Direction',(0.224951054344,-7.67622681175E-018,-0.974370064785)) ;
#33=DIRECTION('Axis2P3D XDirection',(6.73733780525E-017,1.,7.67622681175E-018)) ;
#37=DIRECTION('Vector Direction',(6.93889390391E-017,1.,0.)) ;
#46=DIRECTION('Vector Direction',(-0.974370064785,6.93889390391E-017,-0.224951054344)) ;
#53=DIRECTION('Vector Direction',(0.,1.,0.)) ;
#60=DIRECTION('Vector Direction',(-0.974370064785,0.,-0.224951054344)) ;
#72=DIRECTION('Axis2P3D Direction',(0.,-1.,0.)) ;
#73=DIRECTION('Axis2P3D XDirection',(0.,0.,-1.)) ;
#77=DIRECTION('Vector Direction',(-0.224951054344,0.,0.974370064785)) ;
#84=DIRECTION('Vector Direction',(-0.974370064785,0.,-0.224951054344)) ;
#91=DIRECTION('Vector Direction',(-0.224951054344,0.,0.974370064785)) ;
#103=DIRECTION('Axis2P3D Direction',(-0.224951054344,7.67622681175E-018,0.974370064785)) ;
#104=DIRECTION('Axis2P3D XDirection',(-6.73733780525E-017,-1.,-7.67622681175E-018)) ;
#108=DIRECTION('Vector Direction',(0.,-1.,0.)) ;
#115=DIRECTION('Vector Direction',(-0.974370064785,-1.38777878078E-016,-0.224951054344)) ;
#122=DIRECTION('Vector Direction',(0.,-1.,0.)) ;
#134=DIRECTION('Axis2P3D Direction',(0.,1.,0.)) ;
#135=DIRECTION('Axis2P3D XDirection',(0.,0.,1.)) ;
#139=DIRECTION('Vector Direction',(0.224951054344,0.,-0.974370064785)) ;
#144=DIRECTION('Vector Direction',(0.224951054344,0.,-0.974370064785)) ;
#156=DIRECTION('Axis2P3D Direction',(0.974370064785,-6.73733780525E-017,0.224951054344)) ;
#157=DIRECTION('Axis2P3D XDirection',(6.73733780525E-017,1.,7.67622681175E-018)) ;
#161=DIRECTION('Vector Direction',(-0.224951054344,0.,0.974370064785)) ;
#170=DIRECTION('Vector Direction',(7.58129561093E-017,1.,0.)) ;
#177=DIRECTION('Vector Direction',(-0.223178319666,0.125295520066,0.966691507298)) ;
#184=DIRECTION('Vector Direction',(0.,1.,0.)) ;
#202=DIRECTION('Axis2P3D Direction',(0.224951054344,-7.67622681175E-018,-0.974370064785)) ;
#203=DIRECTION('Axis2P3D XDirection',(6.73733780525E-017,1.,7.67622681175E-018)) ;
#207=DIRECTION('Vector Direction',(-0.974370064785,6.93889390391E-017,-0.224951054344)) ;
#214=DIRECTION('Vector Direction',(0.,1.,0.)) ;
#221=DIRECTION('Vector Direction',(-0.974370064785,0.,-0.224951054344)) ;
#233=DIRECTION('Axis2P3D Direction',(0.,-1.,0.)) ;
#234=DIRECTION('Axis2P3D XDirection',(0.,0.,-1.)) ;
#238=DIRECTION('Vector Direction',(-0.224951054344,0.,0.974370064785)) ;
#245=DIRECTION('Vector Direction',(0.974370064785,0.,0.224951054344)) ;
#257=DIRECTION('Axis2P3D Direction',(0.974370064785,-6.73733780525E-017,0.224951054344)) ;
#258=DIRECTION('Axis2P3D XDirection',(6.73733780525E-017,1.,7.67622681175E-018)) ;
#268=DIRECTION('Vector Direction',(6.83214169E-017,1.,0.)) ;
#286=DIRECTION('Axis2P3D Direction',(0.0281853593434,0.992119464909,-0.122084204004)) ;
#287=DIRECTION('Axis2P3D XDirection',(-0.223178319666,0.125295520066,0.966691507298)) ;
#291=DIRECTION('Vector Direction',(0.974370064785,0.,0.224951054344)) ;
#343=DIRECTION('Axis2P3D Direction',(-0.,-1.,-2.99502388415E-016)) ;
#344=DIRECTION('Axis2P3D XDirection',(0.993630992541,-3.37488172312E-017,0.112682965267)) ;
#348=DIRECTION('Axis2P3D Direction',(-0.,-1.,-2.99502388415E-016)) ;
#355=DIRECTION('Vector Direction',(0.,-1.,-2.99502388415E-016)) ;
#367=DIRECTION('Axis2P3D Direction',(9.59515745454E-015,-1.,5.44852525566E-016)) ;
#368=DIRECTION('Axis2P3D XDirection',(0.0566927875634,0.,-0.998391670557)) ;
#372=DIRECTION('Vector Direction',(1.,9.71445146547E-015,0.)) ;
#379=DIRECTION('Axis2P3D Direction',(9.59515745454E-015,-1.,5.44852525566E-016)) ;
#391=DIRECTION('Axis2P3D Direction',(-0.,-1.,-2.99502388415E-016)) ;
#392=DIRECTION('Axis2P3D XDirection',(0.993571855677,-3.39046328998E-017,0.113203213768)) ;
#396=DIRECTION('Vector Direction',(0.,-1.,-2.99502388415E-016)) ;
#408=DIRECTION('Axis2P3D Direction',(1.,0.,0.)) ;
#409=DIRECTION('Axis2P3D XDirection',(0.,1.,0.)) ;
#413=DIRECTION('Vector Direction',(0.,0.125295520066,0.992119464909)) ;
#420=DIRECTION('Vector Direction',(0.,0.,-1.)) ;
#427=DIRECTION('Axis2P3D Direction',(1.,0.,0.)) ;
#438=DIRECTION('Axis2P3D Direction',(1.,0.,0.)) ;
#447=DIRECTION('Axis2P3D Direction',(1.,0.,0.)) ;
#457=DIRECTION('Axis2P3D Direction',(1.,0.,0.)) ;
#458=DIRECTION('Axis2P3D XDirection',(0.,1.,0.)) ;
#462=DIRECTION('Vector Direction',(1.,0.,0.)) ;
#469=DIRECTION('Axis2P3D Direction',(1.,0.,0.)) ;
#476=DIRECTION('Vector Direction',(1.,0.,0.)) ;
#496=DIRECTION('Axis2P3D Direction',(1.,0.,0.)) ;
#497=DIRECTION('Axis2P3D XDirection',(0.,1.,0.)) ;
#501=DIRECTION('Axis2P3D Direction',(1.,0.,0.)) ;
#514=DIRECTION('Axis2P3D Direction',(1.,0.,0.)) ;
#515=DIRECTION('Axis2P3D XDirection',(0.,1.,0.)) ;
#540=DIRECTION('Vector Direction',(0.,0.,1.)) ;
#560=DIRECTION('Vector Direction',(-1.,0.,0.)) ;
#572=DIRECTION('Axis2P3D Direction',(1.,0.,0.)) ;
#573=DIRECTION('Axis2P3D XDirection',(0.,0.992119464909,-0.125295520066)) ;
#577=DIRECTION('Vector Direction',(1.,0.,0.)) ;
#589=DIRECTION('Axis2P3D Direction',(0.,0.992119464909,-0.125295520066)) ;
#590=DIRECTION('Axis2P3D XDirection',(0.,0.125295520066,0.992119464909)) ;
#15=UNCERTAINTY_MEASURE_WITH_UNIT(LENGTH_MEASURE(0.005),#12,'distance_accuracy_value','CONFUSED CURVE UNCERTAINTY') ;
#18=AXIS2_PLACEMENT_3D(' ',#17,$,$) ;
#34=AXIS2_PLACEMENT_3D('Plane Axis2P3D',#31,#32,#33) ;
#74=AXIS2_PLACEMENT_3D('Plane Axis2P3D',#71,#72,#73) ;
#105=AXIS2_PLACEMENT_3D('Plane Axis2P3D',#102,#103,#104) ;
#136=AXIS2_PLACEMENT_3D('Plane Axis2P3D',#133,#134,#135) ;
#158=AXIS2_PLACEMENT_3D('Plane Axis2P3D',#155,#156,#157) ;
#204=AXIS2_PLACEMENT_3D('Plane Axis2P3D',#201,#202,#203) ;
#235=AXIS2_PLACEMENT_3D('Plane Axis2P3D',#232,#233,#234) ;
#259=AXIS2_PLACEMENT_3D('Plane Axis2P3D',#256,#257,#258) ;
#288=AXIS2_PLACEMENT_3D('Plane Axis2P3D',#285,#286,#287) ;
#345=AXIS2_PLACEMENT_3D('Cylinder Axis2P3D',#342,#343,#344) ;
#349=AXIS2_PLACEMENT_3D('Circle Axis2P3D',#347,#348,$) ;
#369=AXIS2_PLACEMENT_3D('Plane Axis2P3D',#366,#367,#368) ;
#380=AXIS2_PLACEMENT_3D('Circle Axis2P3D',#378,#379,$) ;
#393=AXIS2_PLACEMENT_3D('Cylinder Axis2P3D',#390,#391,#392) ;
#410=AXIS2_PLACEMENT_3D('Plane Axis2P3D',#407,#408,#409) ;
#428=AXIS2_PLACEMENT_3D('Circle Axis2P3D',#426,#427,$) ;
#439=AXIS2_PLACEMENT_3D('Circle Axis2P3D',#437,#438,$) ;
#448=AXIS2_PLACEMENT_3D('Circle Axis2P3D',#446,#447,$) ;
#459=AXIS2_PLACEMENT_3D('Cylinder Axis2P3D',#456,#457,#458) ;
#470=AXIS2_PLACEMENT_3D('Circle Axis2P3D',#468,#469,$) ;
#498=AXIS2_PLACEMENT_3D('Cylinder Axis2P3D',#495,#496,#497) ;
#502=AXIS2_PLACEMENT_3D('Circle Axis2P3D',#500,#501,$) ;
#516=AXIS2_PLACEMENT_3D('Plane Axis2P3D',#513,#514,#515) ;
#574=AXIS2_PLACEMENT_3D('Cylinder Axis2P3D',#571,#572,#573) ;
#591=AXIS2_PLACEMENT_3D('Plane Axis2P3D',#588,#589,#590) ;
#39=LINE('Line',#36,#38) ;
#48=LINE('Line',#45,#47) ;
#55=LINE('Line',#52,#54) ;
#62=LINE('Line',#59,#61) ;
#79=LINE('Line',#76,#78) ;
#86=LINE('Line',#83,#85) ;
#93=LINE('Line',#90,#92) ;
#110=LINE('Line',#107,#109) ;
#117=LINE('Line',#114,#116) ;
#124=LINE('Line',#121,#123) ;
#141=LINE('Line',#138,#140) ;
#146=LINE('Line',#143,#145) ;
#163=LINE('Line',#160,#162) ;
#172=LINE('Line',#169,#171) ;
#179=LINE('Line',#176,#178) ;
#186=LINE('Line',#183,#185) ;
#209=LINE('Line',#206,#208) ;
#216=LINE('Line',#213,#215) ;
#223=LINE('Line',#220,#222) ;
#240=LINE('Line',#237,#239) ;
#247=LINE('Line',#244,#246) ;
#270=LINE('Line',#267,#269) ;
#293=LINE('Line',#290,#292) ;
#357=LINE('Line',#354,#356) ;
#374=LINE('Line',#371,#373) ;
#398=LINE('Line',#395,#397) ;
#415=LINE('Line',#412,#414) ;
#422=LINE('Line',#419,#421) ;
#464=LINE('Line',#461,#463) ;
#478=LINE('Line',#475,#477) ;
#542=LINE('Line',#539,#541) ;
#562=LINE('Line',#559,#561) ;
#579=LINE('Line',#576,#578) ;
#350=CIRCLE('generated circle',#349,4.) ;
#381=CIRCLE('generated circle',#380,7.2) ;
#429=CIRCLE('generated circle',#428,6.5) ;
#440=CIRCLE('generated circle',#439,3.5) ;
#449=CIRCLE('generated circle',#448,3.5) ;
#471=CIRCLE('generated circle',#470,3.5) ;
#503=CIRCLE('generated circle',#502,3.5) ;
#35=PLANE('',#34) ;
#75=PLANE('',#74) ;
#106=PLANE('',#105) ;
#137=PLANE('',#136) ;
#159=PLANE('',#158) ;
#205=PLANE('',#204) ;
#236=PLANE('',#235) ;
#260=PLANE('',#259) ;
#289=PLANE('',#288) ;
#370=PLANE('',#369) ;
#411=PLANE('',#410) ;
#517=PLANE('',#516) ;
#592=PLANE('',#591) ;
#346=CYLINDRICAL_SURFACE('generated cylinder',#345,4.) ;
#394=CYLINDRICAL_SURFACE('generated cylinder',#393,7.2) ;
#460=CYLINDRICAL_SURFACE('generated cylinder',#459,3.5) ;
#499=CYLINDRICAL_SURFACE('generated cylinder',#498,3.5) ;
#575=CYLINDRICAL_SURFACE('generated cylinder',#574,6.5) ;
#199=FACE_BOUND('',#194,.T.) ;
#283=FACE_BOUND('',#278,.T.) ;
#454=FACE_BOUND('',#451,.T.) ;
#557=FACE_BOUND('',#554,.T.) ;
#44=EDGE_CURVE('',#41,#43,#39,.F.) ;
#51=EDGE_CURVE('',#50,#41,#48,.T.) ;
#58=EDGE_CURVE('',#57,#50,#55,.T.) ;
#63=EDGE_CURVE('',#43,#57,#62,.F.) ;
#82=EDGE_CURVE('',#81,#41,#79,.T.) ;
#89=EDGE_CURVE('',#81,#88,#86,.F.) ;
#94=EDGE_CURVE('',#88,#50,#93,.T.) ;
#113=EDGE_CURVE('',#112,#81,#110,.F.) ;
#120=EDGE_CURVE('',#112,#119,#117,.F.) ;
#125=EDGE_CURVE('',#88,#119,#124,.T.) ;
#142=EDGE_CURVE('',#43,#112,#141,.T.) ;
#147=EDGE_CURVE('',#57,#119,#146,.T.) ;
#168=EDGE_CURVE('',#165,#167,#163,.T.) ;
#175=EDGE_CURVE('',#167,#174,#172,.T.) ;
#182=EDGE_CURVE('',#181,#174,#179,.T.) ;
#187=EDGE_CURVE('',#165,#181,#186,.T.) ;
#212=EDGE_CURVE('',#181,#211,#209,.F.) ;
#219=EDGE_CURVE('',#218,#211,#216,.T.) ;
#224=EDGE_CURVE('',#165,#218,#223,.F.) ;
#243=EDGE_CURVE('',#218,#242,#240,.T.) ;
#248=EDGE_CURVE('',#167,#242,#247,.T.) ;
#266=EDGE_CURVE('',#211,#265,#261,.T.) ;
#271=EDGE_CURVE('',#242,#265,#270,.T.) ;
#294=EDGE_CURVE('',#174,#265,#293,.T.) ;
#322=EDGE_CURVE('',#174,#321,#315,.T.) ;
#328=EDGE_CURVE('',#321,#327,#323,.T.) ;
#334=EDGE_CURVE('',#265,#327,#329,.T.) ;
#353=EDGE_CURVE('',#352,#242,#350,.T.) ;
#358=EDGE_CURVE('',#352,#327,#357,.F.) ;
#377=EDGE_CURVE('',#376,#352,#374,.T.) ;
#382=EDGE_CURVE('',#376,#167,#381,.T.) ;
#399=EDGE_CURVE('',#376,#321,#398,.F.) ;
#418=EDGE_CURVE('',#321,#417,#415,.T.) ;
#425=EDGE_CURVE('',#424,#376,#422,.T.) ;
#430=EDGE_CURVE('',#417,#424,#429,.T.) ;
#445=EDGE_CURVE('',#442,#444,#440,.T.) ;
#450=EDGE_CURVE('',#444,#442,#449,.T.) ;
#467=EDGE_CURVE('',#466,#444,#464,.F.) ;
#474=EDGE_CURVE('',#466,#473,#471,.T.) ;
#479=EDGE_CURVE('',#442,#473,#478,.T.) ;
#504=EDGE_CURVE('',#473,#466,#503,.T.) ;
#538=EDGE_CURVE('',#535,#537,#518,.T.) ;
#543=EDGE_CURVE('',#537,#352,#542,.F.) ;
#547=EDGE_CURVE('',#327,#535,#544,.T.) ;
#563=EDGE_CURVE('',#537,#424,#562,.T.) ;
#580=EDGE_CURVE('',#417,#535,#579,.T.) ;
#30=CLOSED_SHELL('Closed Shell',(#70,#101,#132,#154,#200,#231,#255,#284,#301,#341,#365,#389,#406,#455,#486,#511,#558,#570,#587,#599)) ;
#601=SHAPE_REPRESENTATION_RELATIONSHIP(' ',' ',#19,#600) ;
#64=EDGE_LOOP('',(#65,#66,#67,#68)) ;
#95=EDGE_LOOP('',(#96,#97,#98,#99)) ;
#126=EDGE_LOOP('',(#127,#128,#129,#130)) ;
#148=EDGE_LOOP('',(#149,#150,#151,#152)) ;
#188=EDGE_LOOP('',(#189,#190,#191,#192)) ;
#194=EDGE_LOOP('',(#195,#196,#197,#198)) ;
#225=EDGE_LOOP('',(#226,#227,#228,#229)) ;
#249=EDGE_LOOP('',(#250,#251,#252,#253)) ;
#272=EDGE_LOOP('',(#273,#274,#275,#276)) ;
#278=EDGE_LOOP('',(#279,#280,#281,#282)) ;
#295=EDGE_LOOP('',(#296,#297,#298,#299)) ;
#335=EDGE_LOOP('',(#336,#337,#338,#339)) ;
#359=EDGE_LOOP('',(#360,#361,#362,#363)) ;
#383=EDGE_LOOP('',(#384,#385,#386,#387)) ;
#400=EDGE_LOOP('',(#401,#402,#403,#404)) ;
#431=EDGE_LOOP('',(#432,#433,#434,#435)) ;
#451=EDGE_LOOP('',(#452,#453)) ;
#480=EDGE_LOOP('',(#481,#482,#483,#484)) ;
#505=EDGE_LOOP('',(#506,#507,#508,#509)) ;
#548=EDGE_LOOP('',(#549,#550,#551,#552)) ;
#554=EDGE_LOOP('',(#555,#556)) ;
#564=EDGE_LOOP('',(#565,#566,#567,#568)) ;
#581=EDGE_LOOP('',(#582,#583,#584,#585)) ;
#593=EDGE_LOOP('',(#594,#595,#596,#597)) ;
#65=ORIENTED_EDGE('',*,*,#44,.F.) ;
#66=ORIENTED_EDGE('',*,*,#51,.F.) ;
#67=ORIENTED_EDGE('',*,*,#58,.F.) ;
#68=ORIENTED_EDGE('',*,*,#63,.F.) ;
#96=ORIENTED_EDGE('',*,*,#82,.F.) ;
#97=ORIENTED_EDGE('',*,*,#89,.T.) ;
#98=ORIENTED_EDGE('',*,*,#94,.T.) ;
#99=ORIENTED_EDGE('',*,*,#51,.T.) ;
#127=ORIENTED_EDGE('',*,*,#113,.F.) ;
#128=ORIENTED_EDGE('',*,*,#120,.T.) ;
#129=ORIENTED_EDGE('',*,*,#125,.F.) ;
#130=ORIENTED_EDGE('',*,*,#89,.F.) ;
#149=ORIENTED_EDGE('',*,*,#142,.F.) ;
#150=ORIENTED_EDGE('',*,*,#63,.T.) ;
#151=ORIENTED_EDGE('',*,*,#147,.T.) ;
#152=ORIENTED_EDGE('',*,*,#120,.F.) ;
#189=ORIENTED_EDGE('',*,*,#168,.T.) ;
#190=ORIENTED_EDGE('',*,*,#175,.T.) ;
#191=ORIENTED_EDGE('',*,*,#182,.F.) ;
#192=ORIENTED_EDGE('',*,*,#187,.F.) ;
#195=ORIENTED_EDGE('',*,*,#82,.T.) ;
#196=ORIENTED_EDGE('',*,*,#44,.T.) ;
#197=ORIENTED_EDGE('',*,*,#142,.T.) ;
#198=ORIENTED_EDGE('',*,*,#113,.T.) ;
#226=ORIENTED_EDGE('',*,*,#187,.T.) ;
#227=ORIENTED_EDGE('',*,*,#212,.T.) ;
#228=ORIENTED_EDGE('',*,*,#219,.F.) ;
#229=ORIENTED_EDGE('',*,*,#224,.F.) ;
#250=ORIENTED_EDGE('',*,*,#224,.T.) ;
#251=ORIENTED_EDGE('',*,*,#243,.T.) ;
#252=ORIENTED_EDGE('',*,*,#248,.F.) ;
#253=ORIENTED_EDGE('',*,*,#168,.F.) ;
#273=ORIENTED_EDGE('',*,*,#219,.T.) ;
#274=ORIENTED_EDGE('',*,*,#266,.T.) ;
#275=ORIENTED_EDGE('',*,*,#271,.F.) ;
#276=ORIENTED_EDGE('',*,*,#243,.F.) ;
#279=ORIENTED_EDGE('',*,*,#147,.F.) ;
#280=ORIENTED_EDGE('',*,*,#58,.T.) ;
#281=ORIENTED_EDGE('',*,*,#94,.F.) ;
#282=ORIENTED_EDGE('',*,*,#125,.T.) ;
#296=ORIENTED_EDGE('',*,*,#182,.T.) ;
#297=ORIENTED_EDGE('',*,*,#294,.T.) ;
#298=ORIENTED_EDGE('',*,*,#266,.F.) ;
#299=ORIENTED_EDGE('',*,*,#212,.F.) ;
#336=ORIENTED_EDGE('',*,*,#322,.T.) ;
#337=ORIENTED_EDGE('',*,*,#328,.T.) ;
#338=ORIENTED_EDGE('',*,*,#334,.F.) ;
#339=ORIENTED_EDGE('',*,*,#294,.F.) ;
#360=ORIENTED_EDGE('',*,*,#353,.T.) ;
#361=ORIENTED_EDGE('',*,*,#271,.T.) ;
#362=ORIENTED_EDGE('',*,*,#334,.T.) ;
#363=ORIENTED_EDGE('',*,*,#358,.F.) ;
#384=ORIENTED_EDGE('',*,*,#248,.T.) ;
#385=ORIENTED_EDGE('',*,*,#353,.F.) ;
#386=ORIENTED_EDGE('',*,*,#377,.F.) ;
#387=ORIENTED_EDGE('',*,*,#382,.T.) ;
#401=ORIENTED_EDGE('',*,*,#399,.T.) ;
#402=ORIENTED_EDGE('',*,*,#322,.F.) ;
#403=ORIENTED_EDGE('',*,*,#175,.F.) ;
#404=ORIENTED_EDGE('',*,*,#382,.F.) ;
#432=ORIENTED_EDGE('',*,*,#418,.F.) ;
#433=ORIENTED_EDGE('',*,*,#399,.F.) ;
#434=ORIENTED_EDGE('',*,*,#425,.F.) ;
#435=ORIENTED_EDGE('',*,*,#430,.F.) ;
#452=ORIENTED_EDGE('',*,*,#445,.T.) ;
#453=ORIENTED_EDGE('',*,*,#450,.T.) ;
#481=ORIENTED_EDGE('',*,*,#450,.F.) ;
#482=ORIENTED_EDGE('',*,*,#467,.F.) ;
#483=ORIENTED_EDGE('',*,*,#474,.T.) ;
#484=ORIENTED_EDGE('',*,*,#479,.F.) ;
#506=ORIENTED_EDGE('',*,*,#445,.F.) ;
#507=ORIENTED_EDGE('',*,*,#479,.T.) ;
#508=ORIENTED_EDGE('',*,*,#504,.T.) ;
#509=ORIENTED_EDGE('',*,*,#467,.T.) ;
#549=ORIENTED_EDGE('',*,*,#538,.T.) ;
#550=ORIENTED_EDGE('',*,*,#543,.T.) ;
#551=ORIENTED_EDGE('',*,*,#358,.T.) ;
#552=ORIENTED_EDGE('',*,*,#547,.T.) ;
#555=ORIENTED_EDGE('',*,*,#474,.F.) ;
#556=ORIENTED_EDGE('',*,*,#504,.F.) ;
#565=ORIENTED_EDGE('',*,*,#425,.T.) ;
#566=ORIENTED_EDGE('',*,*,#377,.T.) ;
#567=ORIENTED_EDGE('',*,*,#543,.F.) ;
#568=ORIENTED_EDGE('',*,*,#563,.T.) ;
#582=ORIENTED_EDGE('',*,*,#430,.T.) ;
#583=ORIENTED_EDGE('',*,*,#563,.F.) ;
#584=ORIENTED_EDGE('',*,*,#538,.F.) ;
#585=ORIENTED_EDGE('',*,*,#580,.F.) ;
#594=ORIENTED_EDGE('',*,*,#580,.T.) ;
#595=ORIENTED_EDGE('',*,*,#547,.F.) ;
#596=ORIENTED_EDGE('',*,*,#328,.F.) ;
#597=ORIENTED_EDGE('',*,*,#418,.T.) ;
#21=MANIFOLD_SOLID_BREP('PartBody',#30) ;
#41=VERTEX_POINT('',#40) ;
#43=VERTEX_POINT('',#42) ;
#50=VERTEX_POINT('',#49) ;
#57=VERTEX_POINT('',#56) ;
#81=VERTEX_POINT('',#80) ;
#88=VERTEX_POINT('',#87) ;
#112=VERTEX_POINT('',#111) ;
#119=VERTEX_POINT('',#118) ;
#165=VERTEX_POINT('',#164) ;
#167=VERTEX_POINT('',#166) ;
#174=VERTEX_POINT('',#173) ;
#181=VERTEX_POINT('',#180) ;
#211=VERTEX_POINT('',#210) ;
#218=VERTEX_POINT('',#217) ;
#242=VERTEX_POINT('',#241) ;
#265=VERTEX_POINT('',#264) ;
#321=VERTEX_POINT('',#320) ;
#327=VERTEX_POINT('',#326) ;
#352=VERTEX_POINT('',#351) ;
#376=VERTEX_POINT('',#375) ;
#417=VERTEX_POINT('',#416) ;
#424=VERTEX_POINT('',#423) ;
#442=VERTEX_POINT('',#441) ;
#444=VERTEX_POINT('',#443) ;
#466=VERTEX_POINT('',#465) ;
#473=VERTEX_POINT('',#472) ;
#535=VERTEX_POINT('',#534) ;
#537=VERTEX_POINT('',#536) ;
#600=ADVANCED_BREP_SHAPE_REPRESENTATION('NONE',(#21),#16) ;
#70=ADVANCED_FACE('PartBody',(#69),#35,.T.) ;
#101=ADVANCED_FACE('PartBody',(#100),#75,.T.) ;
#132=ADVANCED_FACE('PartBody',(#131),#106,.T.) ;
#154=ADVANCED_FACE('PartBody',(#153),#137,.T.) ;
#200=ADVANCED_FACE('PartBody',(#193,#199),#159,.F.) ;
#231=ADVANCED_FACE('PartBody',(#230),#205,.T.) ;
#255=ADVANCED_FACE('PartBody',(#254),#236,.T.) ;
#284=ADVANCED_FACE('PartBody',(#277,#283),#260,.T.) ;
#301=ADVANCED_FACE('PartBody',(#300),#289,.T.) ;
#341=ADVANCED_FACE('PartBody',(#340),#302,.F.) ;
#365=ADVANCED_FACE('PartBody',(#364),#346,.F.) ;
#389=ADVANCED_FACE('PartBody',(#388),#370,.T.) ;
#406=ADVANCED_FACE('PartBody',(#405),#394,.T.) ;
#455=ADVANCED_FACE('PartBody',(#436,#454),#411,.F.) ;
#486=ADVANCED_FACE('PartBody',(#485),#460,.F.) ;
#511=ADVANCED_FACE('PartBody',(#510),#499,.F.) ;
#558=ADVANCED_FACE('PartBody',(#553,#557),#517,.T.) ;
#570=ADVANCED_FACE('PartBody',(#569),#236,.T.) ;
#587=ADVANCED_FACE('PartBody',(#586),#575,.T.) ;
#599=ADVANCED_FACE('PartBody',(#598),#592,.T.) ;
#4=APPLICATION_PROTOCOL_DEFINITION('international standard','ap242_managed_model_based_3d_engineering',2014,#1) ;
#261=B_SPLINE_CURVE_WITH_KNOTS('',1,(#262,#263),.UNSPECIFIED.,.F.,.U.,(2,2),(-19.7484176581,9.90460541456),.UNSPECIFIED.) ;
#315=B_SPLINE_CURVE_WITH_KNOTS('',3,(#316,#317,#318,#319),.UNSPECIFIED.,.F.,.U.,(4,4),(1.26882953308E-014,1.17054172752),.UNSPECIFIED.) ;
#323=B_SPLINE_CURVE_WITH_KNOTS('',1,(#324,#325),.UNSPECIFIED.,.F.,.U.,(2,2),(-1.6,1.6),.UNSPECIFIED.) ;
#329=B_SPLINE_CURVE_WITH_KNOTS('',3,(#330,#331,#332,#333),.UNSPECIFIED.,.F.,.U.,(4,4),(1.48396788606E-014,1.17054172752),.UNSPECIFIED.) ;
#518=B_SPLINE_CURVE_WITH_KNOTS('',5,(#519,#520,#521,#522,#523,#524,#525,#526,#527,#528,#529,#530,#531,#532,#533),.UNSPECIFIED.,.F.,.U.,(6,3,3,3,6),(40.0241374922,45.3333673054,50.6425971186,55.9518269318,61.261056745),.UNSPECIFIED.) ;
#544=B_SPLINE_CURVE_WITH_KNOTS('',1,(#545,#546),.UNSPECIFIED.,.F.,.U.,(2,2),(11.0751471421,19.7484176581),.UNSPECIFIED.) ;
#302=B_SPLINE_SURFACE_WITH_KNOTS('',5,1,((#303,#304),(#305,#306),(#307,#308),(#309,#310),(#311,#312),(#313,#314)),.UNSPECIFIED.,.F.,.F.,.U.,(6,6),(2,2),(0.,1.17054172752),(-3.2,1.66533453694E-016),.UNSPECIFIED.) ;
#22=COLOUR_RGB('Colour',0.2,0.2,0.2) ;
#494=OVER_RIDING_STYLED_ITEM(' ',(#493),#486,#29) ;
#512=OVER_RIDING_STYLED_ITEM(' ',(#493),#511,#29) ;
#487=DRAUGHTING_PRE_DEFINED_COLOUR('blue') ;
#69=FACE_OUTER_BOUND('',#64,.T.) ;
#100=FACE_OUTER_BOUND('',#95,.T.) ;
#131=FACE_OUTER_BOUND('',#126,.T.) ;
#153=FACE_OUTER_BOUND('',#148,.T.) ;
#193=FACE_OUTER_BOUND('',#188,.T.) ;
#230=FACE_OUTER_BOUND('',#225,.T.) ;
#254=FACE_OUTER_BOUND('',#249,.T.) ;
#277=FACE_OUTER_BOUND('',#272,.T.) ;
#300=FACE_OUTER_BOUND('',#295,.T.) ;
#340=FACE_OUTER_BOUND('',#335,.T.) ;
#364=FACE_OUTER_BOUND('',#359,.T.) ;
#388=FACE_OUTER_BOUND('',#383,.T.) ;
#405=FACE_OUTER_BOUND('',#400,.T.) ;
#436=FACE_OUTER_BOUND('',#431,.T.) ;
#485=FACE_OUTER_BOUND('',#480,.T.) ;
#510=FACE_OUTER_BOUND('',#505,.T.) ;
#553=FACE_OUTER_BOUND('',#548,.T.) ;
#569=FACE_OUTER_BOUND('',#564,.T.) ;
#586=FACE_OUTER_BOUND('',#581,.T.) ;
#598=FACE_OUTER_BOUND('',#593,.T.) ;
#9=PRODUCT_CATEGORY_RELATIONSHIP(' ',' ',#7,#8) ;
#6=PRODUCT_DEFINITION_FORMATION_WITH_SPECIFIED_SOURCE('',' ',#5,.NOT_KNOWN.) ;
#20=SHAPE_DEFINITION_REPRESENTATION(#11,#19) ;
#12=(LENGTH_UNIT()NAMED_UNIT(*)SI_UNIT(.MILLI.,.METRE.)) ;
#13=(NAMED_UNIT(*)PLANE_ANGLE_UNIT()SI_UNIT($,.RADIAN.)) ;
#14=(NAMED_UNIT(*)SI_UNIT($,.STERADIAN.)SOLID_ANGLE_UNIT()) ;
#16=(GEOMETRIC_REPRESENTATION_CONTEXT(3)GLOBAL_UNCERTAINTY_ASSIGNED_CONTEXT((#15))GLOBAL_UNIT_ASSIGNED_CONTEXT((#12,#13,#14))REPRESENTATION_CONTEXT(' ',' ')) ;
ENDSEC;
END-ISO-10303-21;
