ISO-10303-21;
HEADER;
FILE_DESCRIPTION(('CATIA V5 STEP Exchange','CAx-IF Rec.Pracs.--- Model Styling and Organization---1.4--- 2014-01-23','CAx-IF Rec.Pracs.---3D Tessellated Data Validation Properties---0.5---2014-09-14'),'2;1');

FILE_NAME('C:\\Users\\PCKT-13\\Documents\\GrabCAD\\I+D\\SERIE_LEXA\\IKOT-1360-170921A-LEXA_WAIST_SUPPORT\\2D\\1360.000.004.001.BISAGRA.stp','2021-10-25T21:38:26+00:00',('none'),('none'),'CATIA Version 5-6 Release 2018','CATIA V5 STEP AP242','none');

FILE_SCHEMA(('AP242_MANAGED_MODEL_BASED_3D_ENGINEERING_MIM_LF  {1 0 10303 442 1 1 4}'));

ENDSEC;
DATA;
#5=PRODUCT('1360.000.004.001.BISAGRA','','',(#2)) ;
#2=PRODUCT_CONTEXT(' ',#1,'mechanical') ;
#1=APPLICATION_CONTEXT('managed model based 3d engineering') ;
#10=PRODUCT_DEFINITION('',' ',#6,#3) ;
#3=PRODUCT_DEFINITION_CONTEXT('part definition',#1,' ') ;
#11=PRODUCT_DEFINITION_SHAPE(' ',' ',#10) ;
#989=MECHANICAL_DESIGN_GEOMETRIC_PRESENTATION_REPRESENTATION(' ',(#78,#96,#389,#407,#448,#466,#507,#525,#566,#584,#625,#643,#29),#16) ;
#19=SHAPE_REPRESENTATION(' ',(#18),#16) ;
#7=PRODUCT_CATEGORY('part','specification') ;
#17=CARTESIAN_POINT(' ',(0.,0.,0.)) ;
#31=CARTESIAN_POINT('Axis2P3D Location',(11.,19.0525588833,3.175)) ;
#36=CARTESIAN_POINT('Line Origine',(9.3,19.0525588833,-1.66999999998)) ;
#40=CARTESIAN_POINT('Vertex',(9.3,19.0525588833,8.881784197E-016)) ;
#42=CARTESIAN_POINT('Vertex',(9.3,19.0525588833,3.175)) ;
#45=CARTESIAN_POINT('Axis2P3D Location',(11.,19.0525588833,0.)) ;
#49=CARTESIAN_POINT('Vertex',(12.7,19.0525588833,0.)) ;
#52=CARTESIAN_POINT('Line Origine',(12.7,19.0525588833,-1.66999999998)) ;
#56=CARTESIAN_POINT('Vertex',(12.7,19.0525588833,3.175)) ;
#59=CARTESIAN_POINT('Axis2P3D Location',(11.,19.0525588833,3.175)) ;
#79=CARTESIAN_POINT('Axis2P3D Location',(11.,19.0525588833,0.)) ;
#84=CARTESIAN_POINT('Axis2P3D Location',(11.,19.0525588833,3.175)) ;
#97=CARTESIAN_POINT('Axis2P3D Location',(0.,0.,1.5875)) ;
#102=CARTESIAN_POINT('Line Origine',(20.8928571429,-15.4754166473,1.5875)) ;
#106=CARTESIAN_POINT('Vertex',(20.8928571429,-15.4754166473,0.)) ;
#108=CARTESIAN_POINT('Vertex',(20.8928571429,-15.4754166473,3.175)) ;
#111=CARTESIAN_POINT('Axis2P3D Location',(0.,0.,0.)) ;
#115=CARTESIAN_POINT('Vertex',(-25.3336216844,-5.84872741294,0.)) ;
#118=CARTESIAN_POINT('Line Origine',(-25.3336216844,-5.84872741294,1.5875)) ;
#122=CARTESIAN_POINT('Vertex',(-25.3336216844,-5.84872741294,3.175)) ;
#125=CARTESIAN_POINT('Axis2P3D Location',(0.,0.,3.175)) ;
#137=CARTESIAN_POINT('Axis2P3D Location',(45.,-33.331666625,1.5875)) ;
#142=CARTESIAN_POINT('Line Origine',(15.,-33.331666625,1.5875)) ;
#146=CARTESIAN_POINT('Vertex',(15.,-33.331666625,0.)) ;
#148=CARTESIAN_POINT('Vertex',(15.,-33.331666625,3.175)) ;
#151=CARTESIAN_POINT('Axis2P3D Location',(45.,-33.331666625,0.)) ;
#156=CARTESIAN_POINT('Axis2P3D Location',(45.,-33.331666625,3.175)) ;
#168=CARTESIAN_POINT('Axis2P3D Location',(-9.5,-42.4,0.)) ;
#173=CARTESIAN_POINT('Line Origine',(-9.5,-44.,3.175)) ;
#177=CARTESIAN_POINT('Vertex',(-9.5,-42.4,3.175)) ;
#179=CARTESIAN_POINT('Vertex',(-9.5,-45.6,3.175)) ;
#182=CARTESIAN_POINT('Line Origine',(-9.5,-45.6,1.5875)) ;
#186=CARTESIAN_POINT('Vertex',(-9.5,-45.6,0.)) ;
#189=CARTESIAN_POINT('Line Origine',(-9.5,-44.,0.)) ;
#193=CARTESIAN_POINT('Vertex',(-9.5,-42.4,0.)) ;
#196=CARTESIAN_POINT('Line Origine',(-9.5,-42.4,1.5875)) ;
#208=CARTESIAN_POINT('Axis2P3D Location',(4.5,-45.6,0.)) ;
#213=CARTESIAN_POINT('Line Origine',(-2.5,-45.6,3.175)) ;
#217=CARTESIAN_POINT('Vertex',(4.5,-45.6,3.175)) ;
#220=CARTESIAN_POINT('Line Origine',(4.5,-45.6,1.5875)) ;
#224=CARTESIAN_POINT('Vertex',(4.5,-45.6,0.)) ;
#227=CARTESIAN_POINT('Line Origine',(-2.5,-45.6,0.)) ;
#239=CARTESIAN_POINT('Axis2P3D Location',(4.5,-45.6,0.)) ;
#244=CARTESIAN_POINT('Line Origine',(4.5,-44.,3.175)) ;
#248=CARTESIAN_POINT('Vertex',(4.5,-42.4,3.175)) ;
#251=CARTESIAN_POINT('Line Origine',(4.5,-42.4,1.5875)) ;
#255=CARTESIAN_POINT('Vertex',(4.5,-42.4,0.)) ;
#258=CARTESIAN_POINT('Line Origine',(4.5,-44.,0.)) ;
#270=CARTESIAN_POINT('Axis2P3D Location',(-9.5,-42.4,0.)) ;
#275=CARTESIAN_POINT('Line Origine',(-2.5,-42.4,3.175)) ;
#280=CARTESIAN_POINT('Line Origine',(-2.5,-42.4,0.)) ;
#292=CARTESIAN_POINT('Axis2P3D Location',(0.,0.,1.5875)) ;
#297=CARTESIAN_POINT('Axis2P3D Location',(0.,0.,3.175)) ;
#301=CARTESIAN_POINT('Vertex',(15.,0.,3.175)) ;
#303=CARTESIAN_POINT('Vertex',(-15.,8.49830834647E-015,3.175)) ;
#306=CARTESIAN_POINT('Line Origine',(-15.,8.49830834647E-015,1.5875)) ;
#310=CARTESIAN_POINT('Vertex',(-15.,8.49830834647E-015,0.)) ;
#313=CARTESIAN_POINT('Axis2P3D Location',(0.,0.,0.)) ;
#317=CARTESIAN_POINT('Vertex',(15.,0.,0.)) ;
#320=CARTESIAN_POINT('Line Origine',(15.,0.,1.5875)) ;
#332=CARTESIAN_POINT('Axis2P3D Location',(0.,0.,3.175)) ;
#337=CARTESIAN_POINT('Axis2P3D Location',(0.,0.,0.)) ;
#349=CARTESIAN_POINT('Axis2P3D Location',(-11.,19.0525588833,3.175)) ;
#354=CARTESIAN_POINT('Line Origine',(-11.85,17.5803156968,-1.66999999998)) ;
#358=CARTESIAN_POINT('Vertex',(-11.85,17.5803156968,0.)) ;
#360=CARTESIAN_POINT('Vertex',(-11.85,17.5803156968,3.175)) ;
#363=CARTESIAN_POINT('Axis2P3D Location',(-11.,19.0525588833,0.)) ;
#367=CARTESIAN_POINT('Vertex',(-10.15,20.5248020697,0.)) ;
#370=CARTESIAN_POINT('Line Origine',(-10.15,20.5248020697,-1.66999999998)) ;
#374=CARTESIAN_POINT('Vertex',(-10.15,20.5248020697,3.175)) ;
#377=CARTESIAN_POINT('Axis2P3D Location',(-11.,19.0525588833,3.175)) ;
#390=CARTESIAN_POINT('Axis2P3D Location',(-11.,19.0525588833,0.)) ;
#395=CARTESIAN_POINT('Axis2P3D Location',(-11.,19.0525588833,3.175)) ;
#408=CARTESIAN_POINT('Axis2P3D Location',(-22.,4.12205039113E-016,3.175)) ;
#413=CARTESIAN_POINT('Line Origine',(-21.15,-1.47224318643,-1.66999999998)) ;
#417=CARTESIAN_POINT('Vertex',(-21.15,-1.47224318643,0.)) ;
#419=CARTESIAN_POINT('Vertex',(-21.15,-1.47224318643,3.175)) ;
#422=CARTESIAN_POINT('Axis2P3D Location',(-22.,4.12205039113E-016,0.)) ;
#426=CARTESIAN_POINT('Vertex',(-22.85,1.47224318643,0.)) ;
#429=CARTESIAN_POINT('Line Origine',(-22.85,1.47224318643,-1.66999999998)) ;
#433=CARTESIAN_POINT('Vertex',(-22.85,1.47224318643,3.175)) ;
#436=CARTESIAN_POINT('Axis2P3D Location',(-22.,4.12205039113E-016,3.175)) ;
#449=CARTESIAN_POINT('Axis2P3D Location',(-22.,4.12205039113E-016,0.)) ;
#454=CARTESIAN_POINT('Axis2P3D Location',(-22.,4.12205039113E-016,3.175)) ;
#467=CARTESIAN_POINT('Axis2P3D Location',(-11.,-19.0525588833,3.175)) ;
#472=CARTESIAN_POINT('Line Origine',(-9.3,-19.0525588833,-1.66999999998)) ;
#476=CARTESIAN_POINT('Vertex',(-9.3,-19.0525588833,0.)) ;
#478=CARTESIAN_POINT('Vertex',(-9.3,-19.0525588833,3.175)) ;
#481=CARTESIAN_POINT('Axis2P3D Location',(-11.,-19.0525588833,0.)) ;
#485=CARTESIAN_POINT('Vertex',(-12.7,-19.0525588833,0.)) ;
#488=CARTESIAN_POINT('Line Origine',(-12.7,-19.0525588833,-1.66999999998)) ;
#492=CARTESIAN_POINT('Vertex',(-12.7,-19.0525588833,3.175)) ;
#495=CARTESIAN_POINT('Axis2P3D Location',(-11.,-19.0525588833,3.175)) ;
#508=CARTESIAN_POINT('Axis2P3D Location',(-11.,-19.0525588833,0.)) ;
#513=CARTESIAN_POINT('Axis2P3D Location',(-11.,-19.0525588833,3.175)) ;
#526=CARTESIAN_POINT('Axis2P3D Location',(11.,-19.0525588833,3.175)) ;
#531=CARTESIAN_POINT('Line Origine',(11.85,-17.5803156968,-1.66999999998)) ;
#535=CARTESIAN_POINT('Vertex',(11.85,-17.5803156968,0.)) ;
#537=CARTESIAN_POINT('Vertex',(11.85,-17.5803156968,3.175)) ;
#540=CARTESIAN_POINT('Axis2P3D Location',(11.,-19.0525588833,0.)) ;
#544=CARTESIAN_POINT('Vertex',(10.15,-20.5248020697,0.)) ;
#547=CARTESIAN_POINT('Line Origine',(10.15,-20.5248020697,-1.66999999998)) ;
#551=CARTESIAN_POINT('Vertex',(10.15,-20.5248020697,3.175)) ;
#554=CARTESIAN_POINT('Axis2P3D Location',(11.,-19.0525588833,3.175)) ;
#567=CARTESIAN_POINT('Axis2P3D Location',(11.,-19.0525588833,0.)) ;
#572=CARTESIAN_POINT('Axis2P3D Location',(11.,-19.0525588833,3.175)) ;
#585=CARTESIAN_POINT('Axis2P3D Location',(22.,-1.63994165937E-014,3.175)) ;
#590=CARTESIAN_POINT('Line Origine',(21.15,1.47224318643,-1.66999999998)) ;
#594=CARTESIAN_POINT('Vertex',(21.15,1.47224318643,0.)) ;
#596=CARTESIAN_POINT('Vertex',(21.15,1.47224318643,3.175)) ;
#599=CARTESIAN_POINT('Axis2P3D Location',(22.,-1.63994165937E-014,-8.881784197E-016)) ;
#603=CARTESIAN_POINT('Vertex',(22.85,-1.47224318643,0.)) ;
#606=CARTESIAN_POINT('Line Origine',(22.85,-1.47224318643,-1.66999999998)) ;
#610=CARTESIAN_POINT('Vertex',(22.85,-1.47224318643,3.175)) ;
#613=CARTESIAN_POINT('Axis2P3D Location',(22.,-1.63994165937E-014,3.175)) ;
#626=CARTESIAN_POINT('Axis2P3D Location',(22.,-1.63994165937E-014,-8.881784197E-016)) ;
#631=CARTESIAN_POINT('Axis2P3D Location',(22.,-1.63994165937E-014,3.175)) ;
#644=CARTESIAN_POINT('Axis2P3D Location',(0.,0.,0.)) ;
#649=CARTESIAN_POINT('Line Origine',(13.,-48.5,0.)) ;
#653=CARTESIAN_POINT('Vertex',(13.,-46.,0.)) ;
#655=CARTESIAN_POINT('Vertex',(13.,-51.,4.4408920985E-016)) ;
#658=CARTESIAN_POINT('Line Origine',(-0.262853196552,-51.,0.)) ;
#662=CARTESIAN_POINT('Vertex',(-13.5257063931,-51.,2.22044604925E-016)) ;
#665=CARTESIAN_POINT('Line Origine',(-13.5257063931,-48.5,0.)) ;
#669=CARTESIAN_POINT('Vertex',(-13.5257063931,-46.,0.)) ;
#672=CARTESIAN_POINT('Axis2P3D Location',(-15.5257063931,-46.,0.)) ;
#676=CARTESIAN_POINT('Vertex',(-15.5257063931,-44.,0.)) ;
#679=CARTESIAN_POINT('Line Origine',(-16.0257063931,-44.,0.)) ;
#683=CARTESIAN_POINT('Vertex',(-16.5257063931,-44.,2.22044604925E-016)) ;
#686=CARTESIAN_POINT('Line Origine',(-20.9296640388,-24.9243637065,0.)) ;
#691=CARTESIAN_POINT('Line Origine',(15.,-38.6658333125,0.)) ;
#695=CARTESIAN_POINT('Vertex',(15.,-44.,2.22044604925E-016)) ;
#698=CARTESIAN_POINT('Axis2P3D Location',(15.,-46.,0.)) ;
#750=CARTESIAN_POINT('Axis2P3D Location',(15.,-33.331666625,0.)) ;
#755=CARTESIAN_POINT('Line Origine',(15.,-44.,1.5875)) ;
#759=CARTESIAN_POINT('Vertex',(15.,-44.,3.175)) ;
#762=CARTESIAN_POINT('Line Origine',(15.,-38.6658333125,3.175)) ;
#774=CARTESIAN_POINT('Axis2P3D Location',(-14.9096290552,-51.,0.)) ;
#779=CARTESIAN_POINT('Line Origine',(13.,-51.,1.5875)) ;
#783=CARTESIAN_POINT('Vertex',(13.,-51.,3.175)) ;
#786=CARTESIAN_POINT('Line Origine',(-0.262853196552,-51.,3.175)) ;
#790=CARTESIAN_POINT('Vertex',(-13.5257063931,-51.,3.175)) ;
#793=CARTESIAN_POINT('Line Origine',(-13.5257063931,-51.,1.5875)) ;
#805=CARTESIAN_POINT('Axis2P3D Location',(-25.3336216844,-5.84872741294,0.)) ;
#810=CARTESIAN_POINT('Line Origine',(-20.9296640388,-24.9243637065,3.175)) ;
#814=CARTESIAN_POINT('Vertex',(-16.5257063931,-44.,3.175)) ;
#817=CARTESIAN_POINT('Line Origine',(-16.5257063931,-44.,1.5875)) ;
#829=CARTESIAN_POINT('Axis2P3D Location',(0.,0.,3.175)) ;
#834=CARTESIAN_POINT('Axis2P3D Location',(15.,-46.,3.175)) ;
#838=CARTESIAN_POINT('Vertex',(13.,-46.,3.175)) ;
#841=CARTESIAN_POINT('Line Origine',(-16.0257063931,-44.,3.175)) ;
#845=CARTESIAN_POINT('Vertex',(-15.5257063931,-44.,3.175)) ;
#848=CARTESIAN_POINT('Axis2P3D Location',(-15.5257063931,-46.,3.175)) ;
#852=CARTESIAN_POINT('Vertex',(-13.5257063931,-46.,3.175)) ;
#855=CARTESIAN_POINT('Line Origine',(-13.5257063931,-48.5,3.175)) ;
#860=CARTESIAN_POINT('Line Origine',(13.,-48.5,3.175)) ;
#912=CARTESIAN_POINT('Axis2P3D Location',(15.,-46.,1.5875)) ;
#917=CARTESIAN_POINT('Line Origine',(13.,-46.,1.5875)) ;
#929=CARTESIAN_POINT('Axis2P3D Location',(13.,-51.,3.175)) ;
#941=CARTESIAN_POINT('Axis2P3D Location',(-13.5257063931,-51.,3.175)) ;
#946=CARTESIAN_POINT('Line Origine',(-13.5257063931,-46.,1.5875)) ;
#958=CARTESIAN_POINT('Axis2P3D Location',(-15.5257063931,-46.,1.5875)) ;
#963=CARTESIAN_POINT('Line Origine',(-15.5257063931,-44.,1.5875)) ;
#975=CARTESIAN_POINT('Axis2P3D Location',(-16.5257063931,-44.,3.175)) ;
#8=PRODUCT_RELATED_PRODUCT_CATEGORY('part',$,(#5)) ;
#29=STYLED_ITEM(' ',(#28),#21) ;
#28=PRESENTATION_STYLE_ASSIGNMENT((#27)) ;
#77=PRESENTATION_STYLE_ASSIGNMENT((#76)) ;
#27=SURFACE_STYLE_USAGE(.BOTH.,#26) ;
#76=SURFACE_STYLE_USAGE(.BOTH.,#75) ;
#26=SURFACE_SIDE_STYLE(' ',(#25)) ;
#75=SURFACE_SIDE_STYLE(' ',(#74)) ;
#25=SURFACE_STYLE_FILL_AREA(#24) ;
#74=SURFACE_STYLE_FILL_AREA(#73) ;
#24=FILL_AREA_STYLE(' ',(#23)) ;
#73=FILL_AREA_STYLE(' ',(#72)) ;
#23=FILL_AREA_STYLE_COLOUR(' ',#22) ;
#72=FILL_AREA_STYLE_COLOUR(' ',#71) ;
#38=VECTOR('Line Direction',#37,1.) ;
#54=VECTOR('Line Direction',#53,1.) ;
#104=VECTOR('Line Direction',#103,1.) ;
#120=VECTOR('Line Direction',#119,1.) ;
#144=VECTOR('Line Direction',#143,1.) ;
#175=VECTOR('Line Direction',#174,1.) ;
#184=VECTOR('Line Direction',#183,1.) ;
#191=VECTOR('Line Direction',#190,1.) ;
#198=VECTOR('Line Direction',#197,1.) ;
#215=VECTOR('Line Direction',#214,1.) ;
#222=VECTOR('Line Direction',#221,1.) ;
#229=VECTOR('Line Direction',#228,1.) ;
#246=VECTOR('Line Direction',#245,1.) ;
#253=VECTOR('Line Direction',#252,1.) ;
#260=VECTOR('Line Direction',#259,1.) ;
#277=VECTOR('Line Direction',#276,1.) ;
#282=VECTOR('Line Direction',#281,1.) ;
#308=VECTOR('Line Direction',#307,1.) ;
#322=VECTOR('Line Direction',#321,1.) ;
#356=VECTOR('Line Direction',#355,1.) ;
#372=VECTOR('Line Direction',#371,1.) ;
#415=VECTOR('Line Direction',#414,1.) ;
#431=VECTOR('Line Direction',#430,1.) ;
#474=VECTOR('Line Direction',#473,1.) ;
#490=VECTOR('Line Direction',#489,1.) ;
#533=VECTOR('Line Direction',#532,1.) ;
#549=VECTOR('Line Direction',#548,1.) ;
#592=VECTOR('Line Direction',#591,1.) ;
#608=VECTOR('Line Direction',#607,1.) ;
#651=VECTOR('Line Direction',#650,1.) ;
#660=VECTOR('Line Direction',#659,1.) ;
#667=VECTOR('Line Direction',#666,1.) ;
#681=VECTOR('Line Direction',#680,1.) ;
#688=VECTOR('Line Direction',#687,1.) ;
#693=VECTOR('Line Direction',#692,1.) ;
#757=VECTOR('Line Direction',#756,1.) ;
#764=VECTOR('Line Direction',#763,1.) ;
#781=VECTOR('Line Direction',#780,1.) ;
#788=VECTOR('Line Direction',#787,1.) ;
#795=VECTOR('Line Direction',#794,1.) ;
#812=VECTOR('Line Direction',#811,1.) ;
#819=VECTOR('Line Direction',#818,1.) ;
#843=VECTOR('Line Direction',#842,1.) ;
#857=VECTOR('Line Direction',#856,1.) ;
#862=VECTOR('Line Direction',#861,1.) ;
#919=VECTOR('Line Direction',#918,1.) ;
#948=VECTOR('Line Direction',#947,1.) ;
#965=VECTOR('Line Direction',#964,1.) ;
#32=DIRECTION('Axis2P3D Direction',(0.,-0.,-1.)) ;
#33=DIRECTION('Axis2P3D XDirection',(1.,0.,0.)) ;
#37=DIRECTION('Vector Direction',(0.,0.,-1.)) ;
#46=DIRECTION('Axis2P3D Direction',(0.,-0.,-1.)) ;
#53=DIRECTION('Vector Direction',(0.,0.,-1.)) ;
#60=DIRECTION('Axis2P3D Direction',(0.,-0.,-1.)) ;
#80=DIRECTION('Axis2P3D Direction',(0.,-0.,-1.)) ;
#85=DIRECTION('Axis2P3D Direction',(0.,-0.,-1.)) ;
#98=DIRECTION('Axis2P3D Direction',(0.,0.,1.)) ;
#99=DIRECTION('Axis2P3D XDirection',(0.803571428571,-0.595208332589,0.)) ;
#103=DIRECTION('Vector Direction',(0.,0.,1.)) ;
#112=DIRECTION('Axis2P3D Direction',(0.,0.,1.)) ;
#119=DIRECTION('Vector Direction',(0.,0.,1.)) ;
#126=DIRECTION('Axis2P3D Direction',(0.,0.,1.)) ;
#138=DIRECTION('Axis2P3D Direction',(0.,0.,1.)) ;
#139=DIRECTION('Axis2P3D XDirection',(-0.803571428571,0.595208332589,0.)) ;
#143=DIRECTION('Vector Direction',(0.,0.,1.)) ;
#152=DIRECTION('Axis2P3D Direction',(0.,0.,1.)) ;
#157=DIRECTION('Axis2P3D Direction',(0.,0.,1.)) ;
#169=DIRECTION('Axis2P3D Direction',(-1.,0.,0.)) ;
#170=DIRECTION('Axis2P3D XDirection',(0.,-1.,0.)) ;
#174=DIRECTION('Vector Direction',(0.,-1.,0.)) ;
#183=DIRECTION('Vector Direction',(0.,0.,1.)) ;
#190=DIRECTION('Vector Direction',(0.,-1.,0.)) ;
#197=DIRECTION('Vector Direction',(0.,0.,1.)) ;
#209=DIRECTION('Axis2P3D Direction',(0.,1.,-0.)) ;
#210=DIRECTION('Axis2P3D XDirection',(-1.,0.,0.)) ;
#214=DIRECTION('Vector Direction',(-1.,0.,0.)) ;
#221=DIRECTION('Vector Direction',(0.,0.,1.)) ;
#228=DIRECTION('Vector Direction',(-1.,0.,0.)) ;
#240=DIRECTION('Axis2P3D Direction',(1.,0.,0.)) ;
#241=DIRECTION('Axis2P3D XDirection',(0.,1.,0.)) ;
#245=DIRECTION('Vector Direction',(0.,1.,0.)) ;
#252=DIRECTION('Vector Direction',(0.,0.,1.)) ;
#259=DIRECTION('Vector Direction',(0.,1.,0.)) ;
#271=DIRECTION('Axis2P3D Direction',(0.,-1.,0.)) ;
#272=DIRECTION('Axis2P3D XDirection',(1.,0.,0.)) ;
#276=DIRECTION('Vector Direction',(1.,0.,0.)) ;
#281=DIRECTION('Vector Direction',(1.,0.,0.)) ;
#293=DIRECTION('Axis2P3D Direction',(0.,0.,1.)) ;
#294=DIRECTION('Axis2P3D XDirection',(1.,0.,0.)) ;
#298=DIRECTION('Axis2P3D Direction',(0.,0.,1.)) ;
#307=DIRECTION('Vector Direction',(0.,0.,1.)) ;
#314=DIRECTION('Axis2P3D Direction',(0.,0.,1.)) ;
#321=DIRECTION('Vector Direction',(0.,0.,1.)) ;
#333=DIRECTION('Axis2P3D Direction',(0.,0.,1.)) ;
#338=DIRECTION('Axis2P3D Direction',(0.,0.,1.)) ;
#350=DIRECTION('Axis2P3D Direction',(0.,0.,-1.)) ;
#351=DIRECTION('Axis2P3D XDirection',(0.5,0.866025403784,0.)) ;
#355=DIRECTION('Vector Direction',(0.,0.,-1.)) ;
#364=DIRECTION('Axis2P3D Direction',(0.,0.,-1.)) ;
#371=DIRECTION('Vector Direction',(0.,0.,-1.)) ;
#378=DIRECTION('Axis2P3D Direction',(0.,0.,-1.)) ;
#391=DIRECTION('Axis2P3D Direction',(0.,0.,-1.)) ;
#396=DIRECTION('Axis2P3D Direction',(0.,0.,-1.)) ;
#409=DIRECTION('Axis2P3D Direction',(0.,0.,-1.)) ;
#410=DIRECTION('Axis2P3D XDirection',(-0.5,0.866025403784,0.)) ;
#414=DIRECTION('Vector Direction',(0.,0.,-1.)) ;
#423=DIRECTION('Axis2P3D Direction',(0.,0.,-1.)) ;
#430=DIRECTION('Vector Direction',(0.,0.,-1.)) ;
#437=DIRECTION('Axis2P3D Direction',(0.,0.,-1.)) ;
#450=DIRECTION('Axis2P3D Direction',(0.,0.,-1.)) ;
#455=DIRECTION('Axis2P3D Direction',(0.,0.,-1.)) ;
#468=DIRECTION('Axis2P3D Direction',(0.,0.,-1.)) ;
#469=DIRECTION('Axis2P3D XDirection',(-1.,6.10622663544E-016,0.)) ;
#473=DIRECTION('Vector Direction',(0.,0.,-1.)) ;
#482=DIRECTION('Axis2P3D Direction',(0.,0.,-1.)) ;
#489=DIRECTION('Vector Direction',(0.,0.,-1.)) ;
#496=DIRECTION('Axis2P3D Direction',(0.,0.,-1.)) ;
#509=DIRECTION('Axis2P3D Direction',(0.,0.,-1.)) ;
#514=DIRECTION('Axis2P3D Direction',(0.,0.,-1.)) ;
#527=DIRECTION('Axis2P3D Direction',(-0.,0.,-1.)) ;
#528=DIRECTION('Axis2P3D XDirection',(-0.5,-0.866025403784,0.)) ;
#532=DIRECTION('Vector Direction',(0.,0.,-1.)) ;
#541=DIRECTION('Axis2P3D Direction',(-0.,0.,-1.)) ;
#548=DIRECTION('Vector Direction',(0.,0.,-1.)) ;
#555=DIRECTION('Axis2P3D Direction',(-0.,0.,-1.)) ;
#568=DIRECTION('Axis2P3D Direction',(-0.,0.,-1.)) ;
#573=DIRECTION('Axis2P3D Direction',(-0.,0.,-1.)) ;
#586=DIRECTION('Axis2P3D Direction',(0.,-0.,-1.)) ;
#587=DIRECTION('Axis2P3D XDirection',(0.5,-0.866025403784,0.)) ;
#591=DIRECTION('Vector Direction',(0.,0.,-1.)) ;
#600=DIRECTION('Axis2P3D Direction',(0.,-0.,-1.)) ;
#607=DIRECTION('Vector Direction',(0.,0.,-1.)) ;
#614=DIRECTION('Axis2P3D Direction',(0.,-0.,-1.)) ;
#627=DIRECTION('Axis2P3D Direction',(0.,-0.,-1.)) ;
#632=DIRECTION('Axis2P3D Direction',(0.,-0.,-1.)) ;
#645=DIRECTION('Axis2P3D Direction',(0.,0.,1.)) ;
#646=DIRECTION('Axis2P3D XDirection',(1.,0.,0.)) ;
#650=DIRECTION('Vector Direction',(0.,1.,0.)) ;
#659=DIRECTION('Vector Direction',(1.,0.,0.)) ;
#666=DIRECTION('Vector Direction',(0.,1.,0.)) ;
#673=DIRECTION('Axis2P3D Direction',(0.,0.,1.)) ;
#680=DIRECTION('Vector Direction',(1.,0.,0.)) ;
#687=DIRECTION('Vector Direction',(0.224951054344,-0.974370064785,0.)) ;
#692=DIRECTION('Vector Direction',(0.,-1.,0.)) ;
#699=DIRECTION('Axis2P3D Direction',(0.,0.,1.)) ;
#751=DIRECTION('Axis2P3D Direction',(-1.,0.,0.)) ;
#752=DIRECTION('Axis2P3D XDirection',(0.,-1.,0.)) ;
#756=DIRECTION('Vector Direction',(0.,0.,-1.)) ;
#763=DIRECTION('Vector Direction',(0.,-1.,0.)) ;
#775=DIRECTION('Axis2P3D Direction',(0.,-1.,0.)) ;
#776=DIRECTION('Axis2P3D XDirection',(1.,0.,0.)) ;
#780=DIRECTION('Vector Direction',(0.,0.,-1.)) ;
#787=DIRECTION('Vector Direction',(1.,0.,0.)) ;
#794=DIRECTION('Vector Direction',(0.,0.,-1.)) ;
#806=DIRECTION('Axis2P3D Direction',(-0.974370064785,-0.224951054344,0.)) ;
#807=DIRECTION('Axis2P3D XDirection',(0.224951054344,-0.974370064785,0.)) ;
#811=DIRECTION('Vector Direction',(0.224951054344,-0.974370064785,0.)) ;
#818=DIRECTION('Vector Direction',(0.,0.,-1.)) ;
#830=DIRECTION('Axis2P3D Direction',(0.,0.,1.)) ;
#831=DIRECTION('Axis2P3D XDirection',(1.,0.,0.)) ;
#835=DIRECTION('Axis2P3D Direction',(0.,0.,1.)) ;
#842=DIRECTION('Vector Direction',(1.,0.,0.)) ;
#849=DIRECTION('Axis2P3D Direction',(0.,0.,1.)) ;
#856=DIRECTION('Vector Direction',(0.,1.,0.)) ;
#861=DIRECTION('Vector Direction',(0.,1.,0.)) ;
#913=DIRECTION('Axis2P3D Direction',(0.,0.,-1.)) ;
#914=DIRECTION('Axis2P3D XDirection',(-1.,0.,0.)) ;
#918=DIRECTION('Vector Direction',(0.,0.,-1.)) ;
#930=DIRECTION('Axis2P3D Direction',(-1.,0.,0.)) ;
#931=DIRECTION('Axis2P3D XDirection',(0.,1.,0.)) ;
#942=DIRECTION('Axis2P3D Direction',(-1.,0.,0.)) ;
#943=DIRECTION('Axis2P3D XDirection',(0.,1.,0.)) ;
#947=DIRECTION('Vector Direction',(0.,0.,-1.)) ;
#959=DIRECTION('Axis2P3D Direction',(0.,0.,-1.)) ;
#960=DIRECTION('Axis2P3D XDirection',(0.,1.,0.)) ;
#964=DIRECTION('Vector Direction',(0.,0.,-1.)) ;
#976=DIRECTION('Axis2P3D Direction',(-0.,1.,0.)) ;
#977=DIRECTION('Axis2P3D XDirection',(1.,0.,0.)) ;
#15=UNCERTAINTY_MEASURE_WITH_UNIT(LENGTH_MEASURE(0.005),#12,'distance_accuracy_value','CONFUSED CURVE UNCERTAINTY') ;
#18=AXIS2_PLACEMENT_3D(' ',#17,$,$) ;
#34=AXIS2_PLACEMENT_3D('Cylinder Axis2P3D',#31,#32,#33) ;
#47=AXIS2_PLACEMENT_3D('Circle Axis2P3D',#45,#46,$) ;
#61=AXIS2_PLACEMENT_3D('Circle Axis2P3D',#59,#60,$) ;
#81=AXIS2_PLACEMENT_3D('Circle Axis2P3D',#79,#80,$) ;
#86=AXIS2_PLACEMENT_3D('Circle Axis2P3D',#84,#85,$) ;
#100=AXIS2_PLACEMENT_3D('Cylinder Axis2P3D',#97,#98,#99) ;
#113=AXIS2_PLACEMENT_3D('Circle Axis2P3D',#111,#112,$) ;
#127=AXIS2_PLACEMENT_3D('Circle Axis2P3D',#125,#126,$) ;
#140=AXIS2_PLACEMENT_3D('Cylinder Axis2P3D',#137,#138,#139) ;
#153=AXIS2_PLACEMENT_3D('Circle Axis2P3D',#151,#152,$) ;
#158=AXIS2_PLACEMENT_3D('Circle Axis2P3D',#156,#157,$) ;
#171=AXIS2_PLACEMENT_3D('Plane Axis2P3D',#168,#169,#170) ;
#211=AXIS2_PLACEMENT_3D('Plane Axis2P3D',#208,#209,#210) ;
#242=AXIS2_PLACEMENT_3D('Plane Axis2P3D',#239,#240,#241) ;
#273=AXIS2_PLACEMENT_3D('Plane Axis2P3D',#270,#271,#272) ;
#295=AXIS2_PLACEMENT_3D('Cylinder Axis2P3D',#292,#293,#294) ;
#299=AXIS2_PLACEMENT_3D('Circle Axis2P3D',#297,#298,$) ;
#315=AXIS2_PLACEMENT_3D('Circle Axis2P3D',#313,#314,$) ;
#334=AXIS2_PLACEMENT_3D('Circle Axis2P3D',#332,#333,$) ;
#339=AXIS2_PLACEMENT_3D('Circle Axis2P3D',#337,#338,$) ;
#352=AXIS2_PLACEMENT_3D('Cylinder Axis2P3D',#349,#350,#351) ;
#365=AXIS2_PLACEMENT_3D('Circle Axis2P3D',#363,#364,$) ;
#379=AXIS2_PLACEMENT_3D('Circle Axis2P3D',#377,#378,$) ;
#392=AXIS2_PLACEMENT_3D('Circle Axis2P3D',#390,#391,$) ;
#397=AXIS2_PLACEMENT_3D('Circle Axis2P3D',#395,#396,$) ;
#411=AXIS2_PLACEMENT_3D('Cylinder Axis2P3D',#408,#409,#410) ;
#424=AXIS2_PLACEMENT_3D('Circle Axis2P3D',#422,#423,$) ;
#438=AXIS2_PLACEMENT_3D('Circle Axis2P3D',#436,#437,$) ;
#451=AXIS2_PLACEMENT_3D('Circle Axis2P3D',#449,#450,$) ;
#456=AXIS2_PLACEMENT_3D('Circle Axis2P3D',#454,#455,$) ;
#470=AXIS2_PLACEMENT_3D('Cylinder Axis2P3D',#467,#468,#469) ;
#483=AXIS2_PLACEMENT_3D('Circle Axis2P3D',#481,#482,$) ;
#497=AXIS2_PLACEMENT_3D('Circle Axis2P3D',#495,#496,$) ;
#510=AXIS2_PLACEMENT_3D('Circle Axis2P3D',#508,#509,$) ;
#515=AXIS2_PLACEMENT_3D('Circle Axis2P3D',#513,#514,$) ;
#529=AXIS2_PLACEMENT_3D('Cylinder Axis2P3D',#526,#527,#528) ;
#542=AXIS2_PLACEMENT_3D('Circle Axis2P3D',#540,#541,$) ;
#556=AXIS2_PLACEMENT_3D('Circle Axis2P3D',#554,#555,$) ;
#569=AXIS2_PLACEMENT_3D('Circle Axis2P3D',#567,#568,$) ;
#574=AXIS2_PLACEMENT_3D('Circle Axis2P3D',#572,#573,$) ;
#588=AXIS2_PLACEMENT_3D('Cylinder Axis2P3D',#585,#586,#587) ;
#601=AXIS2_PLACEMENT_3D('Circle Axis2P3D',#599,#600,$) ;
#615=AXIS2_PLACEMENT_3D('Circle Axis2P3D',#613,#614,$) ;
#628=AXIS2_PLACEMENT_3D('Circle Axis2P3D',#626,#627,$) ;
#633=AXIS2_PLACEMENT_3D('Circle Axis2P3D',#631,#632,$) ;
#647=AXIS2_PLACEMENT_3D('Plane Axis2P3D',#644,#645,#646) ;
#674=AXIS2_PLACEMENT_3D('Circle Axis2P3D',#672,#673,$) ;
#700=AXIS2_PLACEMENT_3D('Circle Axis2P3D',#698,#699,$) ;
#753=AXIS2_PLACEMENT_3D('Plane Axis2P3D',#750,#751,#752) ;
#777=AXIS2_PLACEMENT_3D('Plane Axis2P3D',#774,#775,#776) ;
#808=AXIS2_PLACEMENT_3D('Plane Axis2P3D',#805,#806,#807) ;
#832=AXIS2_PLACEMENT_3D('Plane Axis2P3D',#829,#830,#831) ;
#836=AXIS2_PLACEMENT_3D('Circle Axis2P3D',#834,#835,$) ;
#850=AXIS2_PLACEMENT_3D('Circle Axis2P3D',#848,#849,$) ;
#915=AXIS2_PLACEMENT_3D('Cylinder Axis2P3D',#912,#913,#914) ;
#932=AXIS2_PLACEMENT_3D('Plane Axis2P3D',#929,#930,#931) ;
#944=AXIS2_PLACEMENT_3D('Plane Axis2P3D',#941,#942,#943) ;
#961=AXIS2_PLACEMENT_3D('Cylinder Axis2P3D',#958,#959,#960) ;
#978=AXIS2_PLACEMENT_3D('Plane Axis2P3D',#975,#976,#977) ;
#39=LINE('Line',#36,#38) ;
#55=LINE('Line',#52,#54) ;
#105=LINE('Line',#102,#104) ;
#121=LINE('Line',#118,#120) ;
#145=LINE('Line',#142,#144) ;
#176=LINE('Line',#173,#175) ;
#185=LINE('Line',#182,#184) ;
#192=LINE('Line',#189,#191) ;
#199=LINE('Line',#196,#198) ;
#216=LINE('Line',#213,#215) ;
#223=LINE('Line',#220,#222) ;
#230=LINE('Line',#227,#229) ;
#247=LINE('Line',#244,#246) ;
#254=LINE('Line',#251,#253) ;
#261=LINE('Line',#258,#260) ;
#278=LINE('Line',#275,#277) ;
#283=LINE('Line',#280,#282) ;
#309=LINE('Line',#306,#308) ;
#323=LINE('Line',#320,#322) ;
#357=LINE('Line',#354,#356) ;
#373=LINE('Line',#370,#372) ;
#416=LINE('Line',#413,#415) ;
#432=LINE('Line',#429,#431) ;
#475=LINE('Line',#472,#474) ;
#491=LINE('Line',#488,#490) ;
#534=LINE('Line',#531,#533) ;
#550=LINE('Line',#547,#549) ;
#593=LINE('Line',#590,#592) ;
#609=LINE('Line',#606,#608) ;
#652=LINE('Line',#649,#651) ;
#661=LINE('Line',#658,#660) ;
#668=LINE('Line',#665,#667) ;
#682=LINE('Line',#679,#681) ;
#689=LINE('Line',#686,#688) ;
#694=LINE('Line',#691,#693) ;
#758=LINE('Line',#755,#757) ;
#765=LINE('Line',#762,#764) ;
#782=LINE('Line',#779,#781) ;
#789=LINE('Line',#786,#788) ;
#796=LINE('Line',#793,#795) ;
#813=LINE('Line',#810,#812) ;
#820=LINE('Line',#817,#819) ;
#844=LINE('Line',#841,#843) ;
#858=LINE('Line',#855,#857) ;
#863=LINE('Line',#860,#862) ;
#920=LINE('Line',#917,#919) ;
#949=LINE('Line',#946,#948) ;
#966=LINE('Line',#963,#965) ;
#48=CIRCLE('generated circle',#47,1.7) ;
#62=CIRCLE('generated circle',#61,1.7) ;
#82=CIRCLE('generated circle',#81,1.7) ;
#87=CIRCLE('generated circle',#86,1.7) ;
#114=CIRCLE('generated circle',#113,26.) ;
#128=CIRCLE('generated circle',#127,26.) ;
#154=CIRCLE('generated circle',#153,30.) ;
#159=CIRCLE('generated circle',#158,30.) ;
#300=CIRCLE('generated circle',#299,15.) ;
#316=CIRCLE('generated circle',#315,15.) ;
#335=CIRCLE('generated circle',#334,15.) ;
#340=CIRCLE('generated circle',#339,15.) ;
#366=CIRCLE('generated circle',#365,1.7) ;
#380=CIRCLE('generated circle',#379,1.7) ;
#393=CIRCLE('generated circle',#392,1.7) ;
#398=CIRCLE('generated circle',#397,1.7) ;
#425=CIRCLE('generated circle',#424,1.7) ;
#439=CIRCLE('generated circle',#438,1.7) ;
#452=CIRCLE('generated circle',#451,1.7) ;
#457=CIRCLE('generated circle',#456,1.7) ;
#484=CIRCLE('generated circle',#483,1.7) ;
#498=CIRCLE('generated circle',#497,1.7) ;
#511=CIRCLE('generated circle',#510,1.7) ;
#516=CIRCLE('generated circle',#515,1.7) ;
#543=CIRCLE('generated circle',#542,1.7) ;
#557=CIRCLE('generated circle',#556,1.7) ;
#570=CIRCLE('generated circle',#569,1.7) ;
#575=CIRCLE('generated circle',#574,1.7) ;
#602=CIRCLE('generated circle',#601,1.7) ;
#616=CIRCLE('generated circle',#615,1.7) ;
#629=CIRCLE('generated circle',#628,1.7) ;
#634=CIRCLE('generated circle',#633,1.7) ;
#675=CIRCLE('generated circle',#674,2.) ;
#701=CIRCLE('generated circle',#700,2.) ;
#837=CIRCLE('generated circle',#836,2.) ;
#851=CIRCLE('generated circle',#850,2.) ;
#172=PLANE('',#171) ;
#212=PLANE('',#211) ;
#243=PLANE('',#242) ;
#274=PLANE('',#273) ;
#648=PLANE('',#647) ;
#754=PLANE('',#753) ;
#778=PLANE('',#777) ;
#809=PLANE('',#808) ;
#833=PLANE('',#832) ;
#933=PLANE('',#932) ;
#945=PLANE('',#944) ;
#979=PLANE('',#978) ;
#35=CYLINDRICAL_SURFACE('generated cylinder',#34,1.7) ;
#101=CYLINDRICAL_SURFACE('generated cylinder',#100,26.) ;
#141=CYLINDRICAL_SURFACE('generated cylinder',#140,30.) ;
#296=CYLINDRICAL_SURFACE('generated cylinder',#295,15.) ;
#353=CYLINDRICAL_SURFACE('generated cylinder',#352,1.7) ;
#412=CYLINDRICAL_SURFACE('generated cylinder',#411,1.7) ;
#471=CYLINDRICAL_SURFACE('generated cylinder',#470,1.7) ;
#530=CYLINDRICAL_SURFACE('generated cylinder',#529,1.7) ;
#589=CYLINDRICAL_SURFACE('generated cylinder',#588,1.7) ;
#916=CYLINDRICAL_SURFACE('generated cylinder',#915,2.) ;
#962=CYLINDRICAL_SURFACE('generated cylinder',#961,2.) ;
#718=FACE_BOUND('',#715,.T.) ;
#722=FACE_BOUND('',#719,.T.) ;
#726=FACE_BOUND('',#723,.T.) ;
#732=FACE_BOUND('',#727,.T.) ;
#736=FACE_BOUND('',#733,.T.) ;
#740=FACE_BOUND('',#737,.T.) ;
#744=FACE_BOUND('',#741,.T.) ;
#748=FACE_BOUND('',#745,.T.) ;
#880=FACE_BOUND('',#877,.T.) ;
#884=FACE_BOUND('',#881,.T.) ;
#888=FACE_BOUND('',#885,.T.) ;
#894=FACE_BOUND('',#889,.T.) ;
#898=FACE_BOUND('',#895,.T.) ;
#902=FACE_BOUND('',#899,.T.) ;
#906=FACE_BOUND('',#903,.T.) ;
#910=FACE_BOUND('',#907,.T.) ;
#44=EDGE_CURVE('',#41,#43,#39,.F.) ;
#51=EDGE_CURVE('',#50,#41,#48,.F.) ;
#58=EDGE_CURVE('',#50,#57,#55,.F.) ;
#63=EDGE_CURVE('',#57,#43,#62,.F.) ;
#83=EDGE_CURVE('',#41,#50,#82,.F.) ;
#88=EDGE_CURVE('',#43,#57,#87,.F.) ;
#110=EDGE_CURVE('',#107,#109,#105,.T.) ;
#117=EDGE_CURVE('',#107,#116,#114,.T.) ;
#124=EDGE_CURVE('',#116,#123,#121,.T.) ;
#129=EDGE_CURVE('',#109,#123,#128,.T.) ;
#150=EDGE_CURVE('',#147,#149,#145,.T.) ;
#155=EDGE_CURVE('',#147,#107,#154,.F.) ;
#160=EDGE_CURVE('',#149,#109,#159,.F.) ;
#181=EDGE_CURVE('',#178,#180,#176,.T.) ;
#188=EDGE_CURVE('',#187,#180,#185,.T.) ;
#195=EDGE_CURVE('',#194,#187,#192,.T.) ;
#200=EDGE_CURVE('',#194,#178,#199,.T.) ;
#219=EDGE_CURVE('',#180,#218,#216,.F.) ;
#226=EDGE_CURVE('',#225,#218,#223,.T.) ;
#231=EDGE_CURVE('',#187,#225,#230,.F.) ;
#250=EDGE_CURVE('',#218,#249,#247,.T.) ;
#257=EDGE_CURVE('',#256,#249,#254,.T.) ;
#262=EDGE_CURVE('',#225,#256,#261,.T.) ;
#279=EDGE_CURVE('',#249,#178,#278,.F.) ;
#284=EDGE_CURVE('',#256,#194,#283,.F.) ;
#305=EDGE_CURVE('',#302,#304,#300,.T.) ;
#312=EDGE_CURVE('',#311,#304,#309,.T.) ;
#319=EDGE_CURVE('',#318,#311,#316,.T.) ;
#324=EDGE_CURVE('',#318,#302,#323,.T.) ;
#336=EDGE_CURVE('',#304,#302,#335,.T.) ;
#341=EDGE_CURVE('',#311,#318,#340,.T.) ;
#362=EDGE_CURVE('',#359,#361,#357,.F.) ;
#369=EDGE_CURVE('',#368,#359,#366,.F.) ;
#376=EDGE_CURVE('',#368,#375,#373,.F.) ;
#381=EDGE_CURVE('',#375,#361,#380,.F.) ;
#394=EDGE_CURVE('',#359,#368,#393,.F.) ;
#399=EDGE_CURVE('',#361,#375,#398,.F.) ;
#421=EDGE_CURVE('',#418,#420,#416,.F.) ;
#428=EDGE_CURVE('',#427,#418,#425,.F.) ;
#435=EDGE_CURVE('',#427,#434,#432,.F.) ;
#440=EDGE_CURVE('',#434,#420,#439,.F.) ;
#453=EDGE_CURVE('',#418,#427,#452,.F.) ;
#458=EDGE_CURVE('',#420,#434,#457,.F.) ;
#480=EDGE_CURVE('',#477,#479,#475,.F.) ;
#487=EDGE_CURVE('',#486,#477,#484,.F.) ;
#494=EDGE_CURVE('',#486,#493,#491,.F.) ;
#499=EDGE_CURVE('',#493,#479,#498,.F.) ;
#512=EDGE_CURVE('',#477,#486,#511,.F.) ;
#517=EDGE_CURVE('',#479,#493,#516,.F.) ;
#539=EDGE_CURVE('',#536,#538,#534,.F.) ;
#546=EDGE_CURVE('',#545,#536,#543,.F.) ;
#553=EDGE_CURVE('',#545,#552,#550,.F.) ;
#558=EDGE_CURVE('',#552,#538,#557,.F.) ;
#571=EDGE_CURVE('',#536,#545,#570,.F.) ;
#576=EDGE_CURVE('',#538,#552,#575,.F.) ;
#598=EDGE_CURVE('',#595,#597,#593,.F.) ;
#605=EDGE_CURVE('',#604,#595,#602,.F.) ;
#612=EDGE_CURVE('',#604,#611,#609,.F.) ;
#617=EDGE_CURVE('',#611,#597,#616,.F.) ;
#630=EDGE_CURVE('',#595,#604,#629,.F.) ;
#635=EDGE_CURVE('',#597,#611,#634,.F.) ;
#657=EDGE_CURVE('',#654,#656,#652,.F.) ;
#664=EDGE_CURVE('',#663,#656,#661,.T.) ;
#671=EDGE_CURVE('',#663,#670,#668,.T.) ;
#678=EDGE_CURVE('',#670,#677,#675,.T.) ;
#685=EDGE_CURVE('',#677,#684,#682,.F.) ;
#690=EDGE_CURVE('',#116,#684,#689,.T.) ;
#697=EDGE_CURVE('',#696,#147,#694,.F.) ;
#702=EDGE_CURVE('',#696,#654,#701,.T.) ;
#761=EDGE_CURVE('',#696,#760,#758,.F.) ;
#766=EDGE_CURVE('',#760,#149,#765,.F.) ;
#785=EDGE_CURVE('',#784,#656,#782,.T.) ;
#792=EDGE_CURVE('',#791,#784,#789,.T.) ;
#797=EDGE_CURVE('',#791,#663,#796,.T.) ;
#816=EDGE_CURVE('',#123,#815,#813,.T.) ;
#821=EDGE_CURVE('',#815,#684,#820,.T.) ;
#840=EDGE_CURVE('',#839,#760,#837,.F.) ;
#847=EDGE_CURVE('',#846,#815,#844,.F.) ;
#854=EDGE_CURVE('',#846,#853,#851,.F.) ;
#859=EDGE_CURVE('',#791,#853,#858,.T.) ;
#864=EDGE_CURVE('',#839,#784,#863,.F.) ;
#921=EDGE_CURVE('',#654,#839,#920,.F.) ;
#950=EDGE_CURVE('',#670,#853,#949,.F.) ;
#967=EDGE_CURVE('',#677,#846,#966,.F.) ;
#30=CLOSED_SHELL('Closed Shell',(#70,#95,#136,#167,#207,#238,#269,#291,#331,#348,#388,#406,#447,#465,#506,#524,#565,#583,#624,#642,#749,#773,#804,#828,#911,#928,#940,#957,#974,#986)) ;
#988=SHAPE_REPRESENTATION_RELATIONSHIP(' ',' ',#19,#987) ;
#64=EDGE_LOOP('',(#65,#66,#67,#68)) ;
#89=EDGE_LOOP('',(#90,#91,#92,#93)) ;
#130=EDGE_LOOP('',(#131,#132,#133,#134)) ;
#161=EDGE_LOOP('',(#162,#163,#164,#165)) ;
#201=EDGE_LOOP('',(#202,#203,#204,#205)) ;
#232=EDGE_LOOP('',(#233,#234,#235,#236)) ;
#263=EDGE_LOOP('',(#264,#265,#266,#267)) ;
#285=EDGE_LOOP('',(#286,#287,#288,#289)) ;
#325=EDGE_LOOP('',(#326,#327,#328,#329)) ;
#342=EDGE_LOOP('',(#343,#344,#345,#346)) ;
#382=EDGE_LOOP('',(#383,#384,#385,#386)) ;
#400=EDGE_LOOP('',(#401,#402,#403,#404)) ;
#441=EDGE_LOOP('',(#442,#443,#444,#445)) ;
#459=EDGE_LOOP('',(#460,#461,#462,#463)) ;
#500=EDGE_LOOP('',(#501,#502,#503,#504)) ;
#518=EDGE_LOOP('',(#519,#520,#521,#522)) ;
#559=EDGE_LOOP('',(#560,#561,#562,#563)) ;
#577=EDGE_LOOP('',(#578,#579,#580,#581)) ;
#618=EDGE_LOOP('',(#619,#620,#621,#622)) ;
#636=EDGE_LOOP('',(#637,#638,#639,#640)) ;
#703=EDGE_LOOP('',(#704,#705,#706,#707,#708,#709,#710,#711,#712,#713)) ;
#715=EDGE_LOOP('',(#716,#717)) ;
#719=EDGE_LOOP('',(#720,#721)) ;
#723=EDGE_LOOP('',(#724,#725)) ;
#727=EDGE_LOOP('',(#728,#729,#730,#731)) ;
#733=EDGE_LOOP('',(#734,#735)) ;
#737=EDGE_LOOP('',(#738,#739)) ;
#741=EDGE_LOOP('',(#742,#743)) ;
#745=EDGE_LOOP('',(#746,#747)) ;
#767=EDGE_LOOP('',(#768,#769,#770,#771)) ;
#798=EDGE_LOOP('',(#799,#800,#801,#802)) ;
#822=EDGE_LOOP('',(#823,#824,#825,#826)) ;
#865=EDGE_LOOP('',(#866,#867,#868,#869,#870,#871,#872,#873,#874,#875)) ;
#877=EDGE_LOOP('',(#878,#879)) ;
#881=EDGE_LOOP('',(#882,#883)) ;
#885=EDGE_LOOP('',(#886,#887)) ;
#889=EDGE_LOOP('',(#890,#891,#892,#893)) ;
#895=EDGE_LOOP('',(#896,#897)) ;
#899=EDGE_LOOP('',(#900,#901)) ;
#903=EDGE_LOOP('',(#904,#905)) ;
#907=EDGE_LOOP('',(#908,#909)) ;
#922=EDGE_LOOP('',(#923,#924,#925,#926)) ;
#934=EDGE_LOOP('',(#935,#936,#937,#938)) ;
#951=EDGE_LOOP('',(#952,#953,#954,#955)) ;
#968=EDGE_LOOP('',(#969,#970,#971,#972)) ;
#980=EDGE_LOOP('',(#981,#982,#983,#984)) ;
#65=ORIENTED_EDGE('',*,*,#44,.F.) ;
#66=ORIENTED_EDGE('',*,*,#51,.F.) ;
#67=ORIENTED_EDGE('',*,*,#58,.T.) ;
#68=ORIENTED_EDGE('',*,*,#63,.T.) ;
#90=ORIENTED_EDGE('',*,*,#58,.F.) ;
#91=ORIENTED_EDGE('',*,*,#83,.F.) ;
#92=ORIENTED_EDGE('',*,*,#44,.T.) ;
#93=ORIENTED_EDGE('',*,*,#88,.T.) ;
#131=ORIENTED_EDGE('',*,*,#110,.F.) ;
#132=ORIENTED_EDGE('',*,*,#117,.T.) ;
#133=ORIENTED_EDGE('',*,*,#124,.T.) ;
#134=ORIENTED_EDGE('',*,*,#129,.F.) ;
#162=ORIENTED_EDGE('',*,*,#150,.F.) ;
#163=ORIENTED_EDGE('',*,*,#155,.T.) ;
#164=ORIENTED_EDGE('',*,*,#110,.T.) ;
#165=ORIENTED_EDGE('',*,*,#160,.F.) ;
#202=ORIENTED_EDGE('',*,*,#181,.T.) ;
#203=ORIENTED_EDGE('',*,*,#188,.F.) ;
#204=ORIENTED_EDGE('',*,*,#195,.F.) ;
#205=ORIENTED_EDGE('',*,*,#200,.T.) ;
#233=ORIENTED_EDGE('',*,*,#219,.T.) ;
#234=ORIENTED_EDGE('',*,*,#226,.F.) ;
#235=ORIENTED_EDGE('',*,*,#231,.F.) ;
#236=ORIENTED_EDGE('',*,*,#188,.T.) ;
#264=ORIENTED_EDGE('',*,*,#250,.T.) ;
#265=ORIENTED_EDGE('',*,*,#257,.F.) ;
#266=ORIENTED_EDGE('',*,*,#262,.F.) ;
#267=ORIENTED_EDGE('',*,*,#226,.T.) ;
#286=ORIENTED_EDGE('',*,*,#279,.T.) ;
#287=ORIENTED_EDGE('',*,*,#200,.F.) ;
#288=ORIENTED_EDGE('',*,*,#284,.F.) ;
#289=ORIENTED_EDGE('',*,*,#257,.T.) ;
#326=ORIENTED_EDGE('',*,*,#305,.T.) ;
#327=ORIENTED_EDGE('',*,*,#312,.F.) ;
#328=ORIENTED_EDGE('',*,*,#319,.F.) ;
#329=ORIENTED_EDGE('',*,*,#324,.T.) ;
#343=ORIENTED_EDGE('',*,*,#336,.T.) ;
#344=ORIENTED_EDGE('',*,*,#324,.F.) ;
#345=ORIENTED_EDGE('',*,*,#341,.F.) ;
#346=ORIENTED_EDGE('',*,*,#312,.T.) ;
#383=ORIENTED_EDGE('',*,*,#362,.F.) ;
#384=ORIENTED_EDGE('',*,*,#369,.F.) ;
#385=ORIENTED_EDGE('',*,*,#376,.T.) ;
#386=ORIENTED_EDGE('',*,*,#381,.T.) ;
#401=ORIENTED_EDGE('',*,*,#376,.F.) ;
#402=ORIENTED_EDGE('',*,*,#394,.F.) ;
#403=ORIENTED_EDGE('',*,*,#362,.T.) ;
#404=ORIENTED_EDGE('',*,*,#399,.T.) ;
#442=ORIENTED_EDGE('',*,*,#421,.F.) ;
#443=ORIENTED_EDGE('',*,*,#428,.F.) ;
#444=ORIENTED_EDGE('',*,*,#435,.T.) ;
#445=ORIENTED_EDGE('',*,*,#440,.T.) ;
#460=ORIENTED_EDGE('',*,*,#435,.F.) ;
#461=ORIENTED_EDGE('',*,*,#453,.F.) ;
#462=ORIENTED_EDGE('',*,*,#421,.T.) ;
#463=ORIENTED_EDGE('',*,*,#458,.T.) ;
#501=ORIENTED_EDGE('',*,*,#480,.F.) ;
#502=ORIENTED_EDGE('',*,*,#487,.F.) ;
#503=ORIENTED_EDGE('',*,*,#494,.T.) ;
#504=ORIENTED_EDGE('',*,*,#499,.T.) ;
#519=ORIENTED_EDGE('',*,*,#494,.F.) ;
#520=ORIENTED_EDGE('',*,*,#512,.F.) ;
#521=ORIENTED_EDGE('',*,*,#480,.T.) ;
#522=ORIENTED_EDGE('',*,*,#517,.T.) ;
#560=ORIENTED_EDGE('',*,*,#539,.F.) ;
#561=ORIENTED_EDGE('',*,*,#546,.F.) ;
#562=ORIENTED_EDGE('',*,*,#553,.T.) ;
#563=ORIENTED_EDGE('',*,*,#558,.T.) ;
#578=ORIENTED_EDGE('',*,*,#553,.F.) ;
#579=ORIENTED_EDGE('',*,*,#571,.F.) ;
#580=ORIENTED_EDGE('',*,*,#539,.T.) ;
#581=ORIENTED_EDGE('',*,*,#576,.T.) ;
#619=ORIENTED_EDGE('',*,*,#598,.F.) ;
#620=ORIENTED_EDGE('',*,*,#605,.F.) ;
#621=ORIENTED_EDGE('',*,*,#612,.T.) ;
#622=ORIENTED_EDGE('',*,*,#617,.T.) ;
#637=ORIENTED_EDGE('',*,*,#612,.F.) ;
#638=ORIENTED_EDGE('',*,*,#630,.F.) ;
#639=ORIENTED_EDGE('',*,*,#598,.T.) ;
#640=ORIENTED_EDGE('',*,*,#635,.T.) ;
#704=ORIENTED_EDGE('',*,*,#657,.T.) ;
#705=ORIENTED_EDGE('',*,*,#664,.F.) ;
#706=ORIENTED_EDGE('',*,*,#671,.T.) ;
#707=ORIENTED_EDGE('',*,*,#678,.T.) ;
#708=ORIENTED_EDGE('',*,*,#685,.T.) ;
#709=ORIENTED_EDGE('',*,*,#690,.F.) ;
#710=ORIENTED_EDGE('',*,*,#117,.F.) ;
#711=ORIENTED_EDGE('',*,*,#155,.F.) ;
#712=ORIENTED_EDGE('',*,*,#697,.F.) ;
#713=ORIENTED_EDGE('',*,*,#702,.T.) ;
#716=ORIENTED_EDGE('',*,*,#394,.T.) ;
#717=ORIENTED_EDGE('',*,*,#369,.T.) ;
#720=ORIENTED_EDGE('',*,*,#51,.T.) ;
#721=ORIENTED_EDGE('',*,*,#83,.T.) ;
#724=ORIENTED_EDGE('',*,*,#319,.T.) ;
#725=ORIENTED_EDGE('',*,*,#341,.T.) ;
#728=ORIENTED_EDGE('',*,*,#195,.T.) ;
#729=ORIENTED_EDGE('',*,*,#231,.T.) ;
#730=ORIENTED_EDGE('',*,*,#262,.T.) ;
#731=ORIENTED_EDGE('',*,*,#284,.T.) ;
#734=ORIENTED_EDGE('',*,*,#453,.T.) ;
#735=ORIENTED_EDGE('',*,*,#428,.T.) ;
#738=ORIENTED_EDGE('',*,*,#512,.T.) ;
#739=ORIENTED_EDGE('',*,*,#487,.T.) ;
#742=ORIENTED_EDGE('',*,*,#571,.T.) ;
#743=ORIENTED_EDGE('',*,*,#546,.T.) ;
#746=ORIENTED_EDGE('',*,*,#630,.T.) ;
#747=ORIENTED_EDGE('',*,*,#605,.T.) ;
#768=ORIENTED_EDGE('',*,*,#761,.F.) ;
#769=ORIENTED_EDGE('',*,*,#697,.T.) ;
#770=ORIENTED_EDGE('',*,*,#150,.T.) ;
#771=ORIENTED_EDGE('',*,*,#766,.F.) ;
#799=ORIENTED_EDGE('',*,*,#785,.F.) ;
#800=ORIENTED_EDGE('',*,*,#792,.F.) ;
#801=ORIENTED_EDGE('',*,*,#797,.T.) ;
#802=ORIENTED_EDGE('',*,*,#664,.T.) ;
#823=ORIENTED_EDGE('',*,*,#816,.F.) ;
#824=ORIENTED_EDGE('',*,*,#124,.F.) ;
#825=ORIENTED_EDGE('',*,*,#690,.T.) ;
#826=ORIENTED_EDGE('',*,*,#821,.F.) ;
#866=ORIENTED_EDGE('',*,*,#840,.T.) ;
#867=ORIENTED_EDGE('',*,*,#766,.T.) ;
#868=ORIENTED_EDGE('',*,*,#160,.T.) ;
#869=ORIENTED_EDGE('',*,*,#129,.T.) ;
#870=ORIENTED_EDGE('',*,*,#816,.T.) ;
#871=ORIENTED_EDGE('',*,*,#847,.F.) ;
#872=ORIENTED_EDGE('',*,*,#854,.T.) ;
#873=ORIENTED_EDGE('',*,*,#859,.F.) ;
#874=ORIENTED_EDGE('',*,*,#792,.T.) ;
#875=ORIENTED_EDGE('',*,*,#864,.F.) ;
#878=ORIENTED_EDGE('',*,*,#381,.F.) ;
#879=ORIENTED_EDGE('',*,*,#399,.F.) ;
#882=ORIENTED_EDGE('',*,*,#88,.F.) ;
#883=ORIENTED_EDGE('',*,*,#63,.F.) ;
#886=ORIENTED_EDGE('',*,*,#336,.F.) ;
#887=ORIENTED_EDGE('',*,*,#305,.F.) ;
#890=ORIENTED_EDGE('',*,*,#279,.F.) ;
#891=ORIENTED_EDGE('',*,*,#250,.F.) ;
#892=ORIENTED_EDGE('',*,*,#219,.F.) ;
#893=ORIENTED_EDGE('',*,*,#181,.F.) ;
#896=ORIENTED_EDGE('',*,*,#440,.F.) ;
#897=ORIENTED_EDGE('',*,*,#458,.F.) ;
#900=ORIENTED_EDGE('',*,*,#499,.F.) ;
#901=ORIENTED_EDGE('',*,*,#517,.F.) ;
#904=ORIENTED_EDGE('',*,*,#558,.F.) ;
#905=ORIENTED_EDGE('',*,*,#576,.F.) ;
#908=ORIENTED_EDGE('',*,*,#617,.F.) ;
#909=ORIENTED_EDGE('',*,*,#635,.F.) ;
#923=ORIENTED_EDGE('',*,*,#921,.F.) ;
#924=ORIENTED_EDGE('',*,*,#702,.F.) ;
#925=ORIENTED_EDGE('',*,*,#761,.T.) ;
#926=ORIENTED_EDGE('',*,*,#840,.F.) ;
#935=ORIENTED_EDGE('',*,*,#921,.T.) ;
#936=ORIENTED_EDGE('',*,*,#864,.T.) ;
#937=ORIENTED_EDGE('',*,*,#785,.T.) ;
#938=ORIENTED_EDGE('',*,*,#657,.F.) ;
#952=ORIENTED_EDGE('',*,*,#671,.F.) ;
#953=ORIENTED_EDGE('',*,*,#797,.F.) ;
#954=ORIENTED_EDGE('',*,*,#859,.T.) ;
#955=ORIENTED_EDGE('',*,*,#950,.F.) ;
#969=ORIENTED_EDGE('',*,*,#967,.F.) ;
#970=ORIENTED_EDGE('',*,*,#678,.F.) ;
#971=ORIENTED_EDGE('',*,*,#950,.T.) ;
#972=ORIENTED_EDGE('',*,*,#854,.F.) ;
#981=ORIENTED_EDGE('',*,*,#967,.T.) ;
#982=ORIENTED_EDGE('',*,*,#847,.T.) ;
#983=ORIENTED_EDGE('',*,*,#821,.T.) ;
#984=ORIENTED_EDGE('',*,*,#685,.F.) ;
#21=MANIFOLD_SOLID_BREP('PartBody',#30) ;
#41=VERTEX_POINT('',#40) ;
#43=VERTEX_POINT('',#42) ;
#50=VERTEX_POINT('',#49) ;
#57=VERTEX_POINT('',#56) ;
#107=VERTEX_POINT('',#106) ;
#109=VERTEX_POINT('',#108) ;
#116=VERTEX_POINT('',#115) ;
#123=VERTEX_POINT('',#122) ;
#147=VERTEX_POINT('',#146) ;
#149=VERTEX_POINT('',#148) ;
#178=VERTEX_POINT('',#177) ;
#180=VERTEX_POINT('',#179) ;
#187=VERTEX_POINT('',#186) ;
#194=VERTEX_POINT('',#193) ;
#218=VERTEX_POINT('',#217) ;
#225=VERTEX_POINT('',#224) ;
#249=VERTEX_POINT('',#248) ;
#256=VERTEX_POINT('',#255) ;
#302=VERTEX_POINT('',#301) ;
#304=VERTEX_POINT('',#303) ;
#311=VERTEX_POINT('',#310) ;
#318=VERTEX_POINT('',#317) ;
#359=VERTEX_POINT('',#358) ;
#361=VERTEX_POINT('',#360) ;
#368=VERTEX_POINT('',#367) ;
#375=VERTEX_POINT('',#374) ;
#418=VERTEX_POINT('',#417) ;
#420=VERTEX_POINT('',#419) ;
#427=VERTEX_POINT('',#426) ;
#434=VERTEX_POINT('',#433) ;
#477=VERTEX_POINT('',#476) ;
#479=VERTEX_POINT('',#478) ;
#486=VERTEX_POINT('',#485) ;
#493=VERTEX_POINT('',#492) ;
#536=VERTEX_POINT('',#535) ;
#538=VERTEX_POINT('',#537) ;
#545=VERTEX_POINT('',#544) ;
#552=VERTEX_POINT('',#551) ;
#595=VERTEX_POINT('',#594) ;
#597=VERTEX_POINT('',#596) ;
#604=VERTEX_POINT('',#603) ;
#611=VERTEX_POINT('',#610) ;
#654=VERTEX_POINT('',#653) ;
#656=VERTEX_POINT('',#655) ;
#663=VERTEX_POINT('',#662) ;
#670=VERTEX_POINT('',#669) ;
#677=VERTEX_POINT('',#676) ;
#684=VERTEX_POINT('',#683) ;
#696=VERTEX_POINT('',#695) ;
#760=VERTEX_POINT('',#759) ;
#784=VERTEX_POINT('',#783) ;
#791=VERTEX_POINT('',#790) ;
#815=VERTEX_POINT('',#814) ;
#839=VERTEX_POINT('',#838) ;
#846=VERTEX_POINT('',#845) ;
#853=VERTEX_POINT('',#852) ;
#987=ADVANCED_BREP_SHAPE_REPRESENTATION('NONE',(#21),#16) ;
#70=ADVANCED_FACE('PartBody',(#69),#35,.F.) ;
#95=ADVANCED_FACE('PartBody',(#94),#35,.F.) ;
#136=ADVANCED_FACE('PartBody',(#135),#101,.T.) ;
#167=ADVANCED_FACE('PartBody',(#166),#141,.F.) ;
#207=ADVANCED_FACE('PartBody',(#206),#172,.F.) ;
#238=ADVANCED_FACE('PartBody',(#237),#212,.T.) ;
#269=ADVANCED_FACE('PartBody',(#268),#243,.F.) ;
#291=ADVANCED_FACE('PartBody',(#290),#274,.T.) ;
#331=ADVANCED_FACE('PartBody',(#330),#296,.F.) ;
#348=ADVANCED_FACE('PartBody',(#347),#296,.F.) ;
#388=ADVANCED_FACE('PartBody',(#387),#353,.F.) ;
#406=ADVANCED_FACE('PartBody',(#405),#353,.F.) ;
#447=ADVANCED_FACE('PartBody',(#446),#412,.F.) ;
#465=ADVANCED_FACE('PartBody',(#464),#412,.F.) ;
#506=ADVANCED_FACE('PartBody',(#505),#471,.F.) ;
#524=ADVANCED_FACE('PartBody',(#523),#471,.F.) ;
#565=ADVANCED_FACE('PartBody',(#564),#530,.F.) ;
#583=ADVANCED_FACE('PartBody',(#582),#530,.F.) ;
#624=ADVANCED_FACE('PartBody',(#623),#589,.F.) ;
#642=ADVANCED_FACE('PartBody',(#641),#589,.F.) ;
#749=ADVANCED_FACE('PartBody',(#714,#718,#722,#726,#732,#736,#740,#744,#748),#648,.F.) ;
#773=ADVANCED_FACE('PartBody',(#772),#754,.F.) ;
#804=ADVANCED_FACE('PartBody',(#803),#778,.T.) ;
#828=ADVANCED_FACE('PartBody',(#827),#809,.T.) ;
#911=ADVANCED_FACE('PartBody',(#876,#880,#884,#888,#894,#898,#902,#906,#910),#833,.T.) ;
#928=ADVANCED_FACE('PartBody',(#927),#916,.F.) ;
#940=ADVANCED_FACE('PartBody',(#939),#933,.F.) ;
#957=ADVANCED_FACE('PartBody',(#956),#945,.T.) ;
#974=ADVANCED_FACE('PartBody',(#973),#962,.F.) ;
#986=ADVANCED_FACE('PartBody',(#985),#979,.F.) ;
#4=APPLICATION_PROTOCOL_DEFINITION('international standard','ap242_managed_model_based_3d_engineering',2014,#1) ;
#22=COLOUR_RGB('Colour',0.2,0.2,0.2) ;
#71=COLOUR_RGB('Colour',0.,0.686274509804,0.686274509804) ;
#78=OVER_RIDING_STYLED_ITEM(' ',(#77),#70,#29) ;
#96=OVER_RIDING_STYLED_ITEM(' ',(#77),#95,#29) ;
#389=OVER_RIDING_STYLED_ITEM(' ',(#77),#388,#29) ;
#407=OVER_RIDING_STYLED_ITEM(' ',(#77),#406,#29) ;
#448=OVER_RIDING_STYLED_ITEM(' ',(#77),#447,#29) ;
#466=OVER_RIDING_STYLED_ITEM(' ',(#77),#465,#29) ;
#507=OVER_RIDING_STYLED_ITEM(' ',(#77),#506,#29) ;
#525=OVER_RIDING_STYLED_ITEM(' ',(#77),#524,#29) ;
#566=OVER_RIDING_STYLED_ITEM(' ',(#77),#565,#29) ;
#584=OVER_RIDING_STYLED_ITEM(' ',(#77),#583,#29) ;
#625=OVER_RIDING_STYLED_ITEM(' ',(#77),#624,#29) ;
#643=OVER_RIDING_STYLED_ITEM(' ',(#77),#642,#29) ;
#69=FACE_OUTER_BOUND('',#64,.T.) ;
#94=FACE_OUTER_BOUND('',#89,.T.) ;
#135=FACE_OUTER_BOUND('',#130,.T.) ;
#166=FACE_OUTER_BOUND('',#161,.T.) ;
#206=FACE_OUTER_BOUND('',#201,.T.) ;
#237=FACE_OUTER_BOUND('',#232,.T.) ;
#268=FACE_OUTER_BOUND('',#263,.T.) ;
#290=FACE_OUTER_BOUND('',#285,.T.) ;
#330=FACE_OUTER_BOUND('',#325,.T.) ;
#347=FACE_OUTER_BOUND('',#342,.T.) ;
#387=FACE_OUTER_BOUND('',#382,.T.) ;
#405=FACE_OUTER_BOUND('',#400,.T.) ;
#446=FACE_OUTER_BOUND('',#441,.T.) ;
#464=FACE_OUTER_BOUND('',#459,.T.) ;
#505=FACE_OUTER_BOUND('',#500,.T.) ;
#523=FACE_OUTER_BOUND('',#518,.T.) ;
#564=FACE_OUTER_BOUND('',#559,.T.) ;
#582=FACE_OUTER_BOUND('',#577,.T.) ;
#623=FACE_OUTER_BOUND('',#618,.T.) ;
#641=FACE_OUTER_BOUND('',#636,.T.) ;
#714=FACE_OUTER_BOUND('',#703,.T.) ;
#772=FACE_OUTER_BOUND('',#767,.T.) ;
#803=FACE_OUTER_BOUND('',#798,.T.) ;
#827=FACE_OUTER_BOUND('',#822,.T.) ;
#876=FACE_OUTER_BOUND('',#865,.T.) ;
#927=FACE_OUTER_BOUND('',#922,.T.) ;
#939=FACE_OUTER_BOUND('',#934,.T.) ;
#956=FACE_OUTER_BOUND('',#951,.T.) ;
#973=FACE_OUTER_BOUND('',#968,.T.) ;
#985=FACE_OUTER_BOUND('',#980,.T.) ;
#9=PRODUCT_CATEGORY_RELATIONSHIP(' ',' ',#7,#8) ;
#6=PRODUCT_DEFINITION_FORMATION_WITH_SPECIFIED_SOURCE('',' ',#5,.NOT_KNOWN.) ;
#20=SHAPE_DEFINITION_REPRESENTATION(#11,#19) ;
#12=(LENGTH_UNIT()NAMED_UNIT(*)SI_UNIT(.MILLI.,.METRE.)) ;
#13=(NAMED_UNIT(*)PLANE_ANGLE_UNIT()SI_UNIT($,.RADIAN.)) ;
#14=(NAMED_UNIT(*)SI_UNIT($,.STERADIAN.)SOLID_ANGLE_UNIT()) ;
#16=(GEOMETRIC_REPRESENTATION_CONTEXT(3)GLOBAL_UNCERTAINTY_ASSIGNED_CONTEXT((#15))GLOBAL_UNIT_ASSIGNED_CONTEXT((#12,#13,#14))REPRESENTATION_CONTEXT(' ',' ')) ;
ENDSEC;
END-ISO-10303-21;
