ISO-10303-21;
HEADER;
FILE_DESCRIPTION(('CATIA V5 STEP Exchange','CAx-IF Rec.Pracs.--- Model Styling and Organization---1.4--- 2014-01-23','CAx-IF Rec.Pracs.---3D Tessellated Data Validation Properties---0.5---2014-09-14'),'2;1');

FILE_NAME('D:\\GrabCAD\\I+D\\SERIE_LEXA\\EKOT-1360-170921A-LEXA_WAIST_SUPPORT\\FAB\\FAB_C\\PDF\\MAQUINADO\\1360.000.011.000.BUJE_AJUSTE.stp','2024-11-01T00:02:15+00:00',('none'),('none'),'CATIA Version 5-6 Release 2018 SP6','CATIA V5 STEP AP242','none');

FILE_SCHEMA(('AP242_MANAGED_MODEL_BASED_3D_ENGINEERING_MIM_LF  {1 0 10303 442 1 1 4}'));

ENDSEC;
DATA;
#5=PRODUCT('1360.000.011.000.BUJE_AJUSTE','','',(#2)) ;
#2=PRODUCT_CONTEXT(' ',#1,'mechanical') ;
#1=APPLICATION_CONTEXT('managed model based 3d engineering') ;
#10=PRODUCT_DEFINITION('',' ',#6,#3) ;
#3=PRODUCT_DEFINITION_CONTEXT('part definition',#1,' ') ;
#11=PRODUCT_DEFINITION_SHAPE(' ',' ',#10) ;
#424=MECHANICAL_DESIGN_GEOMETRIC_PRESENTATION_REPRESENTATION(' ',(#106,#152,#208,#229,#29),#16) ;
#19=SHAPE_REPRESENTATION(' ',(#18),#16) ;
#7=PRODUCT_CATEGORY('part','specification') ;
#17=CARTESIAN_POINT(' ',(0.,0.,0.)) ;
#31=CARTESIAN_POINT('Axis2P3D Location',(-9.,1.10218211923E-015,5.)) ;
#36=CARTESIAN_POINT('Line Origine',(-5.65500000005,-2.067,5.)) ;
#40=CARTESIAN_POINT('Vertex',(-4.29056141514,-2.067,5.)) ;
#42=CARTESIAN_POINT('Vertex',(-8.75942568129,-2.067,5.)) ;
#46=CARTESIAN_POINT('Control Point',(-4.29056141514,-2.067,5.)) ;
#47=CARTESIAN_POINT('Control Point',(-4.29056147075,-2.067,4.34234982635)) ;
#48=CARTESIAN_POINT('Control Point',(-4.42165123122,-1.79696161092,3.68848194858)) ;
#49=CARTESIAN_POINT('Control Point',(-4.6498664059,-1.31417447253,3.20369466934)) ;
#50=CARTESIAN_POINT('Control Point',(-4.76250120753,-0.657637803448,2.93299997544)) ;
#51=CARTESIAN_POINT('Control Point',(-4.76249995513,7.7197912729E-008,2.933)) ;
#52=CARTESIAN_POINT('Vertex',(-4.7625,5.83238038094E-016,2.93300001618)) ;
#56=CARTESIAN_POINT('Control Point',(-4.76249995513,7.7197912951E-008,2.933)) ;
#57=CARTESIAN_POINT('Control Point',(-4.76249870266,0.657675612674,2.93300002456)) ;
#58=CARTESIAN_POINT('Control Point',(-4.64994507259,1.31378646297,3.20338444993)) ;
#59=CARTESIAN_POINT('Control Point',(-4.42158934141,1.79722182956,3.68880399077)) ;
#60=CARTESIAN_POINT('Control Point',(-4.29056141431,2.067,4.3423110106)) ;
#61=CARTESIAN_POINT('Control Point',(-4.29056141431,2.067,5.)) ;
#62=CARTESIAN_POINT('Vertex',(-4.29056141431,2.067,5.)) ;
#65=CARTESIAN_POINT('Line Origine',(-5.65500000005,2.067,5.)) ;
#69=CARTESIAN_POINT('Vertex',(-8.75942412491,2.067,5.)) ;
#73=CARTESIAN_POINT('Control Point',(-8.99999971948,-3.07635432684E-008,2.933)) ;
#74=CARTESIAN_POINT('Control Point',(-9.00000226495,0.651515125551,2.9329999903)) ;
#75=CARTESIAN_POINT('Control Point',(-8.94165231962,1.30316068395,3.19176342054)) ;
#76=CARTESIAN_POINT('Control Point',(-8.82027173857,1.80829606659,3.69681357283)) ;
#77=CARTESIAN_POINT('Control Point',(-8.75942412491,2.067,4.34846541135)) ;
#78=CARTESIAN_POINT('Control Point',(-8.75942412491,2.067,5.)) ;
#79=CARTESIAN_POINT('Vertex',(-9.,1.10218211923E-015,2.93300010622)) ;
#83=CARTESIAN_POINT('Control Point',(-8.75942568129,-2.067,5.)) ;
#84=CARTESIAN_POINT('Control Point',(-8.7594220157,-2.067,4.34852446782)) ;
#85=CARTESIAN_POINT('Control Point',(-8.82025703257,-1.80838449479,3.6968970125)) ;
#86=CARTESIAN_POINT('Control Point',(-8.94166690386,-1.30308723052,3.19169233016)) ;
#87=CARTESIAN_POINT('Control Point',(-8.99999717396,-0.651526788492,2.9330000097)) ;
#88=CARTESIAN_POINT('Control Point',(-8.99999971948,-3.07635434904E-008,2.933)) ;
#108=CARTESIAN_POINT('Control Point',(-4.29056141431,2.067,5.)) ;
#109=CARTESIAN_POINT('Control Point',(-4.29056141431,2.067,5.65765260754)) ;
#110=CARTESIAN_POINT('Control Point',(-4.42164988002,1.79698028933,6.31151419152)) ;
#111=CARTESIAN_POINT('Control Point',(-4.64986731363,1.31415201257,6.79630324736)) ;
#112=CARTESIAN_POINT('Control Point',(-4.76250058225,0.657646503322,7.06700000896)) ;
#113=CARTESIAN_POINT('Control Point',(-4.7624999858,-2.81638121713E-008,7.067)) ;
#114=CARTESIAN_POINT('Vertex',(-4.7625,5.83238038094E-016,7.06699999449)) ;
#118=CARTESIAN_POINT('Control Point',(-4.7624999858,-2.81638123933E-008,7.067)) ;
#119=CARTESIAN_POINT('Control Point',(-4.76249938933,-0.657670520347,7.06699999104)) ;
#120=CARTESIAN_POINT('Control Point',(-4.64994165843,-1.3138060558,6.79658206109)) ;
#121=CARTESIAN_POINT('Control Point',(-4.4216028264,-1.79717433818,6.31128223791)) ;
#122=CARTESIAN_POINT('Control Point',(-4.29056135953,-2.067,5.65767540826)) ;
#123=CARTESIAN_POINT('Control Point',(-4.29056141514,-2.067,5.)) ;
#126=CARTESIAN_POINT('Control Point',(-8.99999966279,-2.02829008256E-007,7.067)) ;
#127=CARTESIAN_POINT('Control Point',(-8.99999698417,-0.651536314404,7.06699993607)) ;
#128=CARTESIAN_POINT('Control Point',(-8.94167207406,-1.30311917509,6.80833853876)) ;
#129=CARTESIAN_POINT('Control Point',(-8.82023480566,-1.80841705636,6.30298374682)) ;
#130=CARTESIAN_POINT('Control Point',(-8.75942934694,-2.067,5.65148765536)) ;
#131=CARTESIAN_POINT('Control Point',(-8.75942568129,-2.067,5.)) ;
#132=CARTESIAN_POINT('Vertex',(-9.,1.10218211923E-015,7.0669998697)) ;
#136=CARTESIAN_POINT('Control Point',(-8.75942412491,2.067,5.)) ;
#137=CARTESIAN_POINT('Control Point',(-8.75942412491,2.067,5.65155950901)) ;
#138=CARTESIAN_POINT('Control Point',(-8.82025159222,1.80839830432,6.30285640792)) ;
#139=CARTESIAN_POINT('Control Point',(-8.94164907502,1.30319314654,6.80836466488)) ;
#140=CARTESIAN_POINT('Control Point',(-9.00000234141,0.651537102805,7.06700006393)) ;
#141=CARTESIAN_POINT('Control Point',(-8.99999966279,-2.02829008256E-007,7.067)) ;
#153=CARTESIAN_POINT('Axis2P3D Location',(0.,0.,5.)) ;
#158=CARTESIAN_POINT('Line Origine',(-4.7625,5.83238038094E-016,5.)) ;
#162=CARTESIAN_POINT('Vertex',(-4.7625,5.83238038094E-016,0.)) ;
#165=CARTESIAN_POINT('Axis2P3D Location',(0.,0.,0.)) ;
#169=CARTESIAN_POINT('Vertex',(4.7625,0.,0.)) ;
#172=CARTESIAN_POINT('Line Origine',(4.7625,0.,5.)) ;
#176=CARTESIAN_POINT('Vertex',(4.7625,0.,10.)) ;
#179=CARTESIAN_POINT('Axis2P3D Location',(0.,0.,10.)) ;
#183=CARTESIAN_POINT('Vertex',(-4.7625,5.83238038094E-016,10.)) ;
#186=CARTESIAN_POINT('Line Origine',(-4.7625,5.83238038094E-016,5.)) ;
#209=CARTESIAN_POINT('Axis2P3D Location',(0.,0.,10.)) ;
#214=CARTESIAN_POINT('Axis2P3D Location',(0.,0.,0.)) ;
#230=CARTESIAN_POINT('Axis2P3D Location',(0.,0.,10.)) ;
#235=CARTESIAN_POINT('Axis2P3D Location',(3.41860033135E-016,-2.56395024851E-016,10.)) ;
#239=CARTESIAN_POINT('Vertex',(-8.,-6.38210494313E-015,10.)) ;
#241=CARTESIAN_POINT('Vertex',(8.,-2.21582990349E-015,10.)) ;
#244=CARTESIAN_POINT('Axis2P3D Location',(3.41860033135E-016,-2.56395024851E-016,10.)) ;
#258=CARTESIAN_POINT('Axis2P3D Location',(-8.881784197E-016,6.45523562819E-015,18.)) ;
#263=CARTESIAN_POINT('Line Origine',(-8.5,-8.21565038223E-015,9.5)) ;
#267=CARTESIAN_POINT('Vertex',(-9.,1.10218211923E-015,9.)) ;
#270=CARTESIAN_POINT('Axis2P3D Location',(-8.881784197E-016,-1.53837014911E-015,9.)) ;
#274=CARTESIAN_POINT('Vertex',(9.,-1.01979700158E-014,9.)) ;
#277=CARTESIAN_POINT('Line Origine',(8.5,-1.55431223448E-014,9.5)) ;
#289=CARTESIAN_POINT('Axis2P3D Location',(-3.10862446895E-015,-3.5527136788E-015,18.)) ;
#294=CARTESIAN_POINT('Axis2P3D Location',(8.881784197E-016,4.4408920985E-016,9.)) ;
#306=CARTESIAN_POINT('Axis2P3D Location',(-8.881784197E-016,6.45523562819E-015,-8.)) ;
#311=CARTESIAN_POINT('Line Origine',(-8.5,-1.1768364061E-014,0.5)) ;
#315=CARTESIAN_POINT('Vertex',(-9.,1.10218211923E-015,1.)) ;
#317=CARTESIAN_POINT('Vertex',(-8.,-6.38210494313E-015,0.)) ;
#320=CARTESIAN_POINT('Axis2P3D Location',(-8.881784197E-016,-6.50191729407E-016,-6.2172489379E-015)) ;
#324=CARTESIAN_POINT('Vertex',(8.,-2.21582990349E-015,0.)) ;
#327=CARTESIAN_POINT('Line Origine',(8.5,-1.55431223448E-014,0.5)) ;
#331=CARTESIAN_POINT('Vertex',(9.,-1.01979700158E-014,1.)) ;
#334=CARTESIAN_POINT('Axis2P3D Location',(-8.881784197E-016,-1.53837014911E-015,1.)) ;
#346=CARTESIAN_POINT('Axis2P3D Location',(-3.10862446895E-015,-3.5527136788E-015,-8.)) ;
#351=CARTESIAN_POINT('Axis2P3D Location',(4.4408920985E-016,1.57772181044E-030,3.5527136788E-015)) ;
#356=CARTESIAN_POINT('Axis2P3D Location',(8.881784197E-016,4.4408920985E-016,1.)) ;
#368=CARTESIAN_POINT('Axis2P3D Location',(0.,0.,0.)) ;
#382=CARTESIAN_POINT('Axis2P3D Location',(0.,0.,5.)) ;
#387=CARTESIAN_POINT('Line Origine',(-9.,1.10218211923E-015,5.)) ;
#392=CARTESIAN_POINT('Line Origine',(9.,0.,5.)) ;
#397=CARTESIAN_POINT('Line Origine',(-9.,1.10218211923E-015,5.)) ;
#8=PRODUCT_RELATED_PRODUCT_CATEGORY('part',$,(#5)) ;
#29=STYLED_ITEM(' ',(#28),#21) ;
#28=PRESENTATION_STYLE_ASSIGNMENT((#27)) ;
#105=PRESENTATION_STYLE_ASSIGNMENT((#104)) ;
#207=PRESENTATION_STYLE_ASSIGNMENT((#206)) ;
#27=SURFACE_STYLE_USAGE(.BOTH.,#26) ;
#104=SURFACE_STYLE_USAGE(.BOTH.,#103) ;
#206=SURFACE_STYLE_USAGE(.BOTH.,#205) ;
#26=SURFACE_SIDE_STYLE(' ',(#25)) ;
#103=SURFACE_SIDE_STYLE(' ',(#102)) ;
#205=SURFACE_SIDE_STYLE(' ',(#204)) ;
#25=SURFACE_STYLE_FILL_AREA(#24) ;
#102=SURFACE_STYLE_FILL_AREA(#101) ;
#204=SURFACE_STYLE_FILL_AREA(#203) ;
#24=FILL_AREA_STYLE(' ',(#23)) ;
#101=FILL_AREA_STYLE(' ',(#100)) ;
#203=FILL_AREA_STYLE(' ',(#202)) ;
#23=FILL_AREA_STYLE_COLOUR(' ',#22) ;
#100=FILL_AREA_STYLE_COLOUR(' ',#99) ;
#202=FILL_AREA_STYLE_COLOUR(' ',#201) ;
#38=VECTOR('Line Direction',#37,1.) ;
#67=VECTOR('Line Direction',#66,1.) ;
#160=VECTOR('Line Direction',#159,1.) ;
#174=VECTOR('Line Direction',#173,1.) ;
#188=VECTOR('Line Direction',#187,1.) ;
#265=VECTOR('Line Direction',#264,1.) ;
#279=VECTOR('Line Direction',#278,1.) ;
#313=VECTOR('Line Direction',#312,1.) ;
#329=VECTOR('Line Direction',#328,1.) ;
#389=VECTOR('Line Direction',#388,1.) ;
#394=VECTOR('Line Direction',#393,1.) ;
#399=VECTOR('Line Direction',#398,1.) ;
#32=DIRECTION('Axis2P3D Direction',(1.,-1.22464679915E-016,-0.)) ;
#33=DIRECTION('Axis2P3D XDirection',(1.22464679915E-016,1.,1.50410684367E-017)) ;
#37=DIRECTION('Vector Direction',(1.,-1.21501835799E-016,0.)) ;
#66=DIRECTION('Vector Direction',(1.,-1.21501835799E-016,0.)) ;
#154=DIRECTION('Axis2P3D Direction',(0.,0.,1.)) ;
#155=DIRECTION('Axis2P3D XDirection',(1.,0.,0.)) ;
#159=DIRECTION('Vector Direction',(0.,0.,1.)) ;
#166=DIRECTION('Axis2P3D Direction',(0.,0.,1.)) ;
#173=DIRECTION('Vector Direction',(0.,0.,1.)) ;
#180=DIRECTION('Axis2P3D Direction',(0.,0.,1.)) ;
#187=DIRECTION('Vector Direction',(0.,0.,1.)) ;
#210=DIRECTION('Axis2P3D Direction',(0.,0.,1.)) ;
#215=DIRECTION('Axis2P3D Direction',(0.,0.,1.)) ;
#231=DIRECTION('Axis2P3D Direction',(0.,0.,1.)) ;
#232=DIRECTION('Axis2P3D XDirection',(1.,0.,0.)) ;
#236=DIRECTION('Axis2P3D Direction',(0.,0.,1.)) ;
#245=DIRECTION('Axis2P3D Direction',(0.,0.,1.)) ;
#259=DIRECTION('Axis2P3D Direction',(0.,-8.881784197E-016,-1.)) ;
#260=DIRECTION('Axis2P3D XDirection',(-0.5,0.866025403784,-7.90253409579E-016)) ;
#264=DIRECTION('Vector Direction',(-0.707106781187,-1.57009245868E-015,-0.707106781187)) ;
#271=DIRECTION('Axis2P3D Direction',(3.84592537277E-016,2.22044604925E-016,1.)) ;
#278=DIRECTION('Vector Direction',(0.707106781187,-1.88411095042E-015,-0.707106781187)) ;
#290=DIRECTION('Axis2P3D Direction',(4.4408920985E-016,4.4408920985E-016,-1.)) ;
#291=DIRECTION('Axis2P3D XDirection',(1.,-4.93432455389E-017,3.9512670479E-016)) ;
#295=DIRECTION('Axis2P3D Direction',(-2.19128029228E-032,-4.4408920985E-016,1.)) ;
#307=DIRECTION('Axis2P3D Direction',(0.,-8.881784197E-016,1.)) ;
#308=DIRECTION('Axis2P3D XDirection',(-0.5,0.866025403784,7.90253409579E-016)) ;
#312=DIRECTION('Vector Direction',(-0.707106781187,-1.57009245868E-015,0.707106781187)) ;
#321=DIRECTION('Axis2P3D Direction',(-3.84592537277E-016,-2.22044604925E-016,1.)) ;
#328=DIRECTION('Vector Direction',(0.707106781187,-1.88411095042E-015,0.707106781187)) ;
#335=DIRECTION('Axis2P3D Direction',(-3.84592537277E-016,-2.22044604925E-016,1.)) ;
#347=DIRECTION('Axis2P3D Direction',(4.4408920985E-016,4.4408920985E-016,1.)) ;
#348=DIRECTION('Axis2P3D XDirection',(1.,-4.93432455389E-017,-3.9512670479E-016)) ;
#352=DIRECTION('Axis2P3D Direction',(2.19128029228E-032,4.4408920985E-016,1.)) ;
#357=DIRECTION('Axis2P3D Direction',(2.19128029228E-032,4.4408920985E-016,1.)) ;
#369=DIRECTION('Axis2P3D Direction',(0.,0.,1.)) ;
#370=DIRECTION('Axis2P3D XDirection',(1.,0.,0.)) ;
#383=DIRECTION('Axis2P3D Direction',(0.,0.,1.)) ;
#384=DIRECTION('Axis2P3D XDirection',(1.,0.,0.)) ;
#388=DIRECTION('Vector Direction',(0.,0.,1.)) ;
#393=DIRECTION('Vector Direction',(0.,0.,1.)) ;
#398=DIRECTION('Vector Direction',(0.,0.,1.)) ;
#15=UNCERTAINTY_MEASURE_WITH_UNIT(LENGTH_MEASURE(0.005),#12,'distance_accuracy_value','CONFUSED CURVE UNCERTAINTY') ;
#18=AXIS2_PLACEMENT_3D(' ',#17,$,$) ;
#34=AXIS2_PLACEMENT_3D('Cylinder Axis2P3D',#31,#32,#33) ;
#156=AXIS2_PLACEMENT_3D('Cylinder Axis2P3D',#153,#154,#155) ;
#167=AXIS2_PLACEMENT_3D('Circle Axis2P3D',#165,#166,$) ;
#181=AXIS2_PLACEMENT_3D('Circle Axis2P3D',#179,#180,$) ;
#211=AXIS2_PLACEMENT_3D('Circle Axis2P3D',#209,#210,$) ;
#216=AXIS2_PLACEMENT_3D('Circle Axis2P3D',#214,#215,$) ;
#233=AXIS2_PLACEMENT_3D('Plane Axis2P3D',#230,#231,#232) ;
#237=AXIS2_PLACEMENT_3D('Circle Axis2P3D',#235,#236,$) ;
#246=AXIS2_PLACEMENT_3D('Circle Axis2P3D',#244,#245,$) ;
#261=AXIS2_PLACEMENT_3D('Cone Axis2P3D',#258,#259,#260) ;
#272=AXIS2_PLACEMENT_3D('Circle Axis2P3D',#270,#271,$) ;
#292=AXIS2_PLACEMENT_3D('Cone Axis2P3D',#289,#290,#291) ;
#296=AXIS2_PLACEMENT_3D('Circle Axis2P3D',#294,#295,$) ;
#309=AXIS2_PLACEMENT_3D('Cone Axis2P3D',#306,#307,#308) ;
#322=AXIS2_PLACEMENT_3D('Circle Axis2P3D',#320,#321,$) ;
#336=AXIS2_PLACEMENT_3D('Circle Axis2P3D',#334,#335,$) ;
#349=AXIS2_PLACEMENT_3D('Cone Axis2P3D',#346,#347,#348) ;
#353=AXIS2_PLACEMENT_3D('Circle Axis2P3D',#351,#352,$) ;
#358=AXIS2_PLACEMENT_3D('Circle Axis2P3D',#356,#357,$) ;
#371=AXIS2_PLACEMENT_3D('Plane Axis2P3D',#368,#369,#370) ;
#385=AXIS2_PLACEMENT_3D('Cylinder Axis2P3D',#382,#383,#384) ;
#39=LINE('Line',#36,#38) ;
#68=LINE('Line',#65,#67) ;
#161=LINE('Line',#158,#160) ;
#175=LINE('Line',#172,#174) ;
#189=LINE('Line',#186,#188) ;
#266=LINE('Line',#263,#265) ;
#280=LINE('Line',#277,#279) ;
#314=LINE('Line',#311,#313) ;
#330=LINE('Line',#327,#329) ;
#390=LINE('Line',#387,#389) ;
#395=LINE('Line',#392,#394) ;
#400=LINE('Line',#397,#399) ;
#168=CIRCLE('generated circle',#167,4.7625) ;
#182=CIRCLE('generated circle',#181,4.7625) ;
#212=CIRCLE('generated circle',#211,4.7625) ;
#217=CIRCLE('generated circle',#216,4.7625) ;
#238=CIRCLE('generated circle',#237,8.) ;
#247=CIRCLE('generated circle',#246,8.) ;
#273=CIRCLE('generated circle',#272,9.) ;
#297=CIRCLE('generated circle',#296,9.) ;
#323=CIRCLE('generated circle',#322,8.) ;
#337=CIRCLE('generated circle',#336,9.) ;
#354=CIRCLE('generated circle',#353,8.) ;
#359=CIRCLE('generated circle',#358,9.) ;
#234=PLANE('',#233) ;
#372=PLANE('',#371) ;
#35=CYLINDRICAL_SURFACE('generated cylinder',#34,2.067) ;
#157=CYLINDRICAL_SURFACE('generated cylinder',#156,4.7625) ;
#386=CYLINDRICAL_SURFACE('generated cylinder',#385,9.) ;
#262=CONICAL_SURFACE('Cone',#261,0.,0.785398163397) ;
#293=CONICAL_SURFACE('Cone',#292,0.,0.785398163397) ;
#310=CONICAL_SURFACE('Cone',#309,0.,0.785398163397) ;
#350=CONICAL_SURFACE('Cone',#349,0.,0.785398163397) ;
#256=FACE_BOUND('',#253,.T.) ;
#380=FACE_BOUND('',#377,.T.) ;
#44=EDGE_CURVE('',#41,#43,#39,.F.) ;
#54=EDGE_CURVE('',#41,#53,#45,.T.) ;
#64=EDGE_CURVE('',#53,#63,#55,.T.) ;
#71=EDGE_CURVE('',#63,#70,#68,.F.) ;
#81=EDGE_CURVE('',#80,#70,#72,.T.) ;
#89=EDGE_CURVE('',#43,#80,#82,.T.) ;
#116=EDGE_CURVE('',#63,#115,#107,.T.) ;
#124=EDGE_CURVE('',#115,#41,#117,.T.) ;
#134=EDGE_CURVE('',#133,#43,#125,.T.) ;
#142=EDGE_CURVE('',#70,#133,#135,.T.) ;
#164=EDGE_CURVE('',#163,#53,#161,.T.) ;
#171=EDGE_CURVE('',#170,#163,#168,.T.) ;
#178=EDGE_CURVE('',#170,#177,#175,.T.) ;
#185=EDGE_CURVE('',#177,#184,#182,.T.) ;
#190=EDGE_CURVE('',#115,#184,#189,.T.) ;
#213=EDGE_CURVE('',#184,#177,#212,.T.) ;
#218=EDGE_CURVE('',#163,#170,#217,.T.) ;
#243=EDGE_CURVE('',#240,#242,#238,.T.) ;
#248=EDGE_CURVE('',#242,#240,#247,.T.) ;
#269=EDGE_CURVE('',#240,#268,#266,.T.) ;
#276=EDGE_CURVE('',#268,#275,#273,.T.) ;
#281=EDGE_CURVE('',#242,#275,#280,.T.) ;
#298=EDGE_CURVE('',#275,#268,#297,.T.) ;
#319=EDGE_CURVE('',#316,#318,#314,.F.) ;
#326=EDGE_CURVE('',#318,#325,#323,.T.) ;
#333=EDGE_CURVE('',#332,#325,#330,.F.) ;
#338=EDGE_CURVE('',#316,#332,#337,.T.) ;
#355=EDGE_CURVE('',#325,#318,#354,.T.) ;
#360=EDGE_CURVE('',#332,#316,#359,.T.) ;
#391=EDGE_CURVE('',#133,#268,#390,.T.) ;
#396=EDGE_CURVE('',#332,#275,#395,.T.) ;
#401=EDGE_CURVE('',#316,#80,#400,.T.) ;
#30=CLOSED_SHELL('Closed Shell',(#98,#151,#200,#228,#257,#288,#305,#345,#367,#381,#411,#421)) ;
#423=SHAPE_REPRESENTATION_RELATIONSHIP(' ',' ',#19,#422) ;
#90=EDGE_LOOP('',(#91,#92,#93,#94,#95,#96)) ;
#143=EDGE_LOOP('',(#144,#145,#146,#147,#148,#149)) ;
#191=EDGE_LOOP('',(#192,#193,#194,#195,#196,#197,#198)) ;
#219=EDGE_LOOP('',(#220,#221,#222,#223,#224,#225,#226)) ;
#249=EDGE_LOOP('',(#250,#251)) ;
#253=EDGE_LOOP('',(#254,#255)) ;
#282=EDGE_LOOP('',(#283,#284,#285,#286)) ;
#299=EDGE_LOOP('',(#300,#301,#302,#303)) ;
#339=EDGE_LOOP('',(#340,#341,#342,#343)) ;
#361=EDGE_LOOP('',(#362,#363,#364,#365)) ;
#373=EDGE_LOOP('',(#374,#375)) ;
#377=EDGE_LOOP('',(#378,#379)) ;
#402=EDGE_LOOP('',(#403,#404,#405,#406,#407,#408,#409)) ;
#412=EDGE_LOOP('',(#413,#414,#415,#416,#417,#418,#419)) ;
#91=ORIENTED_EDGE('',*,*,#44,.F.) ;
#92=ORIENTED_EDGE('',*,*,#54,.T.) ;
#93=ORIENTED_EDGE('',*,*,#64,.T.) ;
#94=ORIENTED_EDGE('',*,*,#71,.T.) ;
#95=ORIENTED_EDGE('',*,*,#81,.F.) ;
#96=ORIENTED_EDGE('',*,*,#89,.F.) ;
#144=ORIENTED_EDGE('',*,*,#71,.F.) ;
#145=ORIENTED_EDGE('',*,*,#116,.T.) ;
#146=ORIENTED_EDGE('',*,*,#124,.T.) ;
#147=ORIENTED_EDGE('',*,*,#44,.T.) ;
#148=ORIENTED_EDGE('',*,*,#134,.F.) ;
#149=ORIENTED_EDGE('',*,*,#142,.F.) ;
#192=ORIENTED_EDGE('',*,*,#116,.F.) ;
#193=ORIENTED_EDGE('',*,*,#64,.F.) ;
#194=ORIENTED_EDGE('',*,*,#164,.F.) ;
#195=ORIENTED_EDGE('',*,*,#171,.F.) ;
#196=ORIENTED_EDGE('',*,*,#178,.T.) ;
#197=ORIENTED_EDGE('',*,*,#185,.T.) ;
#198=ORIENTED_EDGE('',*,*,#190,.F.) ;
#220=ORIENTED_EDGE('',*,*,#54,.F.) ;
#221=ORIENTED_EDGE('',*,*,#124,.F.) ;
#222=ORIENTED_EDGE('',*,*,#190,.T.) ;
#223=ORIENTED_EDGE('',*,*,#213,.T.) ;
#224=ORIENTED_EDGE('',*,*,#178,.F.) ;
#225=ORIENTED_EDGE('',*,*,#218,.F.) ;
#226=ORIENTED_EDGE('',*,*,#164,.T.) ;
#250=ORIENTED_EDGE('',*,*,#243,.T.) ;
#251=ORIENTED_EDGE('',*,*,#248,.T.) ;
#254=ORIENTED_EDGE('',*,*,#213,.F.) ;
#255=ORIENTED_EDGE('',*,*,#185,.F.) ;
#283=ORIENTED_EDGE('',*,*,#269,.T.) ;
#284=ORIENTED_EDGE('',*,*,#276,.T.) ;
#285=ORIENTED_EDGE('',*,*,#281,.F.) ;
#286=ORIENTED_EDGE('',*,*,#243,.F.) ;
#300=ORIENTED_EDGE('',*,*,#281,.T.) ;
#301=ORIENTED_EDGE('',*,*,#298,.T.) ;
#302=ORIENTED_EDGE('',*,*,#269,.F.) ;
#303=ORIENTED_EDGE('',*,*,#248,.F.) ;
#340=ORIENTED_EDGE('',*,*,#319,.T.) ;
#341=ORIENTED_EDGE('',*,*,#326,.T.) ;
#342=ORIENTED_EDGE('',*,*,#333,.F.) ;
#343=ORIENTED_EDGE('',*,*,#338,.F.) ;
#362=ORIENTED_EDGE('',*,*,#333,.T.) ;
#363=ORIENTED_EDGE('',*,*,#355,.T.) ;
#364=ORIENTED_EDGE('',*,*,#319,.F.) ;
#365=ORIENTED_EDGE('',*,*,#360,.F.) ;
#374=ORIENTED_EDGE('',*,*,#355,.F.) ;
#375=ORIENTED_EDGE('',*,*,#326,.F.) ;
#378=ORIENTED_EDGE('',*,*,#171,.T.) ;
#379=ORIENTED_EDGE('',*,*,#218,.T.) ;
#403=ORIENTED_EDGE('',*,*,#391,.T.) ;
#404=ORIENTED_EDGE('',*,*,#298,.F.) ;
#405=ORIENTED_EDGE('',*,*,#396,.F.) ;
#406=ORIENTED_EDGE('',*,*,#360,.T.) ;
#407=ORIENTED_EDGE('',*,*,#401,.T.) ;
#408=ORIENTED_EDGE('',*,*,#81,.T.) ;
#409=ORIENTED_EDGE('',*,*,#142,.T.) ;
#413=ORIENTED_EDGE('',*,*,#401,.F.) ;
#414=ORIENTED_EDGE('',*,*,#338,.T.) ;
#415=ORIENTED_EDGE('',*,*,#396,.T.) ;
#416=ORIENTED_EDGE('',*,*,#276,.F.) ;
#417=ORIENTED_EDGE('',*,*,#391,.F.) ;
#418=ORIENTED_EDGE('',*,*,#134,.T.) ;
#419=ORIENTED_EDGE('',*,*,#89,.T.) ;
#21=MANIFOLD_SOLID_BREP('PartBody',#30) ;
#41=VERTEX_POINT('',#40) ;
#43=VERTEX_POINT('',#42) ;
#53=VERTEX_POINT('',#52) ;
#63=VERTEX_POINT('',#62) ;
#70=VERTEX_POINT('',#69) ;
#80=VERTEX_POINT('',#79) ;
#115=VERTEX_POINT('',#114) ;
#133=VERTEX_POINT('',#132) ;
#163=VERTEX_POINT('',#162) ;
#170=VERTEX_POINT('',#169) ;
#177=VERTEX_POINT('',#176) ;
#184=VERTEX_POINT('',#183) ;
#240=VERTEX_POINT('',#239) ;
#242=VERTEX_POINT('',#241) ;
#268=VERTEX_POINT('',#267) ;
#275=VERTEX_POINT('',#274) ;
#316=VERTEX_POINT('',#315) ;
#318=VERTEX_POINT('',#317) ;
#325=VERTEX_POINT('',#324) ;
#332=VERTEX_POINT('',#331) ;
#422=ADVANCED_BREP_SHAPE_REPRESENTATION('NONE',(#21),#16) ;
#98=ADVANCED_FACE('PartBody',(#97),#35,.F.) ;
#151=ADVANCED_FACE('PartBody',(#150),#35,.F.) ;
#200=ADVANCED_FACE('PartBody',(#199),#157,.F.) ;
#228=ADVANCED_FACE('PartBody',(#227),#157,.F.) ;
#257=ADVANCED_FACE('PartBody',(#252,#256),#234,.T.) ;
#288=ADVANCED_FACE('PartBody',(#287),#262,.T.) ;
#305=ADVANCED_FACE('PartBody',(#304),#293,.T.) ;
#345=ADVANCED_FACE('PartBody',(#344),#310,.T.) ;
#367=ADVANCED_FACE('PartBody',(#366),#350,.T.) ;
#381=ADVANCED_FACE('PartBody',(#376,#380),#372,.F.) ;
#411=ADVANCED_FACE('PartBody',(#410),#386,.T.) ;
#421=ADVANCED_FACE('PartBody',(#420),#386,.T.) ;
#4=APPLICATION_PROTOCOL_DEFINITION('international standard','ap242_managed_model_based_3d_engineering',2014,#1) ;
#45=B_SPLINE_CURVE_WITH_KNOTS('',5,(#46,#47,#48,#49,#50,#51),.UNSPECIFIED.,.F.,.U.,(6,6),(9.30078179837,13.9510789762),.UNSPECIFIED.) ;
#55=B_SPLINE_CURVE_WITH_KNOTS('',5,(#56,#57,#58,#59,#60,#61),.UNSPECIFIED.,.F.,.U.,(6,6),(13.9510789762,18.6016424194),.UNSPECIFIED.) ;
#72=B_SPLINE_CURVE_WITH_KNOTS('',5,(#73,#74,#75,#76,#77,#78),.UNSPECIFIED.,.F.,.U.,(6,6),(13.8215617947,18.4286070528),.UNSPECIFIED.) ;
#82=B_SPLINE_CURVE_WITH_KNOTS('',5,(#83,#84,#85,#86,#87,#88),.UNSPECIFIED.,.F.,.U.,(6,6),(9.21443449975,13.8215617947),.UNSPECIFIED.) ;
#107=B_SPLINE_CURVE_WITH_KNOTS('',5,(#108,#109,#110,#111,#112,#113),.UNSPECIFIED.,.F.,.U.,(6,6),(0.,4.65030618454),.UNSPECIFIED.) ;
#117=B_SPLINE_CURVE_WITH_KNOTS('',5,(#118,#119,#120,#121,#122,#123),.UNSPECIFIED.,.F.,.U.,(6,6),(4.65030618454,9.30078179837),.UNSPECIFIED.) ;
#125=B_SPLINE_CURVE_WITH_KNOTS('',5,(#126,#127,#128,#129,#130,#131),.UNSPECIFIED.,.F.,.U.,(6,6),(4.60722147165,9.21443449975),.UNSPECIFIED.) ;
#135=B_SPLINE_CURVE_WITH_KNOTS('',5,(#136,#137,#138,#139,#140,#141),.UNSPECIFIED.,.F.,.U.,(6,6),(0.,4.60722147165),.UNSPECIFIED.) ;
#22=COLOUR_RGB('Colour',0.2,0.2,0.2) ;
#99=COLOUR_RGB('Colour',1.,0.882352941176,0.) ;
#201=COLOUR_RGB('Colour',0.,0.686274509804,0.686274509804) ;
#106=OVER_RIDING_STYLED_ITEM(' ',(#105),#98,#29) ;
#152=OVER_RIDING_STYLED_ITEM(' ',(#105),#151,#29) ;
#208=OVER_RIDING_STYLED_ITEM(' ',(#207),#200,#29) ;
#229=OVER_RIDING_STYLED_ITEM(' ',(#207),#228,#29) ;
#97=FACE_OUTER_BOUND('',#90,.T.) ;
#150=FACE_OUTER_BOUND('',#143,.T.) ;
#199=FACE_OUTER_BOUND('',#191,.T.) ;
#227=FACE_OUTER_BOUND('',#219,.T.) ;
#252=FACE_OUTER_BOUND('',#249,.T.) ;
#287=FACE_OUTER_BOUND('',#282,.T.) ;
#304=FACE_OUTER_BOUND('',#299,.T.) ;
#344=FACE_OUTER_BOUND('',#339,.T.) ;
#366=FACE_OUTER_BOUND('',#361,.T.) ;
#376=FACE_OUTER_BOUND('',#373,.T.) ;
#410=FACE_OUTER_BOUND('',#402,.T.) ;
#420=FACE_OUTER_BOUND('',#412,.T.) ;
#9=PRODUCT_CATEGORY_RELATIONSHIP(' ',' ',#7,#8) ;
#6=PRODUCT_DEFINITION_FORMATION_WITH_SPECIFIED_SOURCE('',' ',#5,.NOT_KNOWN.) ;
#20=SHAPE_DEFINITION_REPRESENTATION(#11,#19) ;
#12=(LENGTH_UNIT()NAMED_UNIT(*)SI_UNIT(.MILLI.,.METRE.)) ;
#13=(NAMED_UNIT(*)PLANE_ANGLE_UNIT()SI_UNIT($,.RADIAN.)) ;
#14=(NAMED_UNIT(*)SI_UNIT($,.STERADIAN.)SOLID_ANGLE_UNIT()) ;
#16=(GEOMETRIC_REPRESENTATION_CONTEXT(3)GLOBAL_UNCERTAINTY_ASSIGNED_CONTEXT((#15))GLOBAL_UNIT_ASSIGNED_CONTEXT((#12,#13,#14))REPRESENTATION_CONTEXT(' ',' ')) ;
ENDSEC;
END-ISO-10303-21;
