ISO-10303-21;
HEADER;
FILE_DESCRIPTION(('CATIA V5 STEP Exchange','CAx-IF Rec.Pracs.--- Model Styling and Organization---1.4--- 2014-01-23','CAx-IF Rec.Pracs.---3D Tessellated Data Validation Properties---0.5---2014-09-14'),'2;1');

FILE_NAME('D:\\GrabCAD\\I+D\\SERIE_LEXA\\EKOT-1360-170921A-LEXA_WAIST_SUPPORT\\FAB\\FAB_C\\PDF\\MAQUINADO\\1360.000.014.000.PERILLA.stp','2024-11-01T00:04:36+00:00',('none'),('none'),'CATIA Version 5-6 Release 2018 SP6','CATIA V5 STEP AP242','none');

FILE_SCHEMA(('AP242_MANAGED_MODEL_BASED_3D_ENGINEERING_MIM_LF  {1 0 10303 442 1 1 4}'));

ENDSEC;
DATA;
#5=PRODUCT('1360.000.014.000.PERILLA','','',(#2)) ;
#2=PRODUCT_CONTEXT(' ',#1,'mechanical') ;
#1=APPLICATION_CONTEXT('managed model based 3d engineering') ;
#10=PRODUCT_DEFINITION('',' ',#6,#3) ;
#3=PRODUCT_DEFINITION_CONTEXT('part definition',#1,' ') ;
#11=PRODUCT_DEFINITION_SHAPE(' ',' ',#10) ;
#503=MECHANICAL_DESIGN_GEOMETRIC_PRESENTATION_REPRESENTATION(' ',(#96,#410,#418,#500,#29),#16) ;
#19=SHAPE_REPRESENTATION(' ',(#18),#16) ;
#7=PRODUCT_CATEGORY('part','specification') ;
#17=CARTESIAN_POINT(' ',(0.,0.,0.)) ;
#31=CARTESIAN_POINT('Axis2P3D Location',(-3.5,-2.22044604925E-016,7.5)) ;
#37=CARTESIAN_POINT('Control Point',(-2.5,1.11022302463E-016,-7.5)) ;
#38=CARTESIAN_POINT('Control Point',(-2.5,0.361456821695,-7.5)) ;
#39=CARTESIAN_POINT('Control Point',(-2.66331379244,0.722913540741,-7.47822482773)) ;
#40=CARTESIAN_POINT('Control Point',(-2.99129148196,0.98208554645,-7.43422101585)) ;
#41=CARTESIAN_POINT('Control Point',(-3.66980210638,1.11176496024,-7.41936297423)) ;
#42=CARTESIAN_POINT('Control Point',(-4.23164586371,0.76131894317,-7.46363916916)) ;
#43=CARTESIAN_POINT('Control Point',(-4.41052608337,0.535085594469,-7.48807014448)) ;
#44=CARTESIAN_POINT('Control Point',(-4.5,0.267542769116,-7.5)) ;
#45=CARTESIAN_POINT('Control Point',(-4.5,9.99200722163E-016,-7.5)) ;
#46=CARTESIAN_POINT('Vertex',(-2.5,-2.22044604925E-016,-7.5)) ;
#48=CARTESIAN_POINT('Vertex',(-4.5,-3.4450928484E-016,-7.5)) ;
#51=CARTESIAN_POINT('Line Origine',(-2.5,2.28847549044E-017,1.16750000005)) ;
#55=CARTESIAN_POINT('Vertex',(-2.5,-2.22044604925E-016,-2.5)) ;
#59=CARTESIAN_POINT('Control Point',(-4.5,-7.77156117238E-016,-2.49999793646)) ;
#60=CARTESIAN_POINT('Control Point',(-4.5,0.157648783144,-2.50000327864)) ;
#61=CARTESIAN_POINT('Control Point',(-4.46893357647,0.31543026016,-2.48757631237)) ;
#62=CARTESIAN_POINT('Control Point',(-4.40668861216,0.463293460505,-2.46263433071)) ;
#63=CARTESIAN_POINT('Control Point',(-4.24296107422,0.707743782289,-2.40365180608)) ;
#64=CARTESIAN_POINT('Control Point',(-4.00556390674,0.878576007239,-2.34246848175)) ;
#65=CARTESIAN_POINT('Control Point',(-3.88211108601,0.939371481931,-2.31740236372)) ;
#66=CARTESIAN_POINT('Control Point',(-3.62627184676,1.01389815795,-2.28542230641)) ;
#67=CARTESIAN_POINT('Control Point',(-3.35883152238,1.00235598128,-2.29014571113)) ;
#68=CARTESIAN_POINT('Control Point',(-3.23277612116,0.976027083803,-2.3021092885)) ;
#69=CARTESIAN_POINT('Control Point',(-2.91451792871,0.855083013359,-2.35314624788)) ;
#70=CARTESIAN_POINT('Control Point',(-2.66980169569,0.615001415585,-2.43178456619)) ;
#71=CARTESIAN_POINT('Control Point',(-2.55692583594,0.426804873597,-2.47722966568)) ;
#72=CARTESIAN_POINT('Control Point',(-2.5,0.213402597809,-2.5)) ;
#73=CARTESIAN_POINT('Control Point',(-2.5,7.43993633861E-017,-2.5)) ;
#74=CARTESIAN_POINT('Vertex',(-4.5,-3.4450928484E-016,-2.49999793646)) ;
#77=CARTESIAN_POINT('Line Origine',(-4.5,-3.4450928484E-016,1.16750000005)) ;
#97=CARTESIAN_POINT('Axis2P3D Location',(-12.5,0.,0.)) ;
#102=CARTESIAN_POINT('Axis2P3D Location',(0.,0.,0.)) ;
#106=CARTESIAN_POINT('Vertex',(0.,-1.19856384651,-2.19395640473)) ;
#108=CARTESIAN_POINT('Vertex',(0.,1.19856384651,2.19395640473)) ;
#111=CARTESIAN_POINT('Line Origine',(-3.5,-1.19856384651,-2.19395640473)) ;
#115=CARTESIAN_POINT('Vertex',(-7.,-1.19856384651,-2.19395640473)) ;
#118=CARTESIAN_POINT('Axis2P3D Location',(-7.,0.,0.)) ;
#122=CARTESIAN_POINT('Vertex',(-7.,1.19856384651,2.19395640473)) ;
#125=CARTESIAN_POINT('Line Origine',(-3.5,1.19856384651,2.19395640473)) ;
#137=CARTESIAN_POINT('Control Point',(-2.5,-1.11022302463E-015,2.5)) ;
#138=CARTESIAN_POINT('Control Point',(-2.5,-0.197001417336,2.5)) ;
#139=CARTESIAN_POINT('Control Point',(-2.54851194798,-0.394001119515,2.48059522078)) ;
#140=CARTESIAN_POINT('Control Point',(-2.64489240237,-0.571015298316,2.44188420328)) ;
#141=CARTESIAN_POINT('Control Point',(-2.86832069121,-0.818491178725,2.36706941832)) ;
#142=CARTESIAN_POINT('Control Point',(-3.16943940452,-0.958104192822,2.31000353828)) ;
#143=CARTESIAN_POINT('Control Point',(-3.30196359543,-0.994442795923,2.29364278119)) ;
#144=CARTESIAN_POINT('Control Point',(-3.63428779793,-1.02553729368,2.28027255891)) ;
#145=CARTESIAN_POINT('Control Point',(-3.95481223151,-0.922363195232,2.32493205473)) ;
#146=CARTESIAN_POINT('Control Point',(-4.12101342742,-0.818154385369,2.36809991202)) ;
#147=CARTESIAN_POINT('Control Point',(-4.33447828682,-0.60204962,2.43597165718)) ;
#148=CARTESIAN_POINT('Control Point',(-4.45506315453,-0.325145823484,2.4820150783)) ;
#149=CARTESIAN_POINT('Control Point',(-4.48500704633,-0.218944124621,2.49400433447)) ;
#150=CARTESIAN_POINT('Control Point',(-4.4999986425,-0.109504596628,2.50000007428)) ;
#151=CARTESIAN_POINT('Control Point',(-4.49999949103,1.69577804582E-006,2.5)) ;
#152=CARTESIAN_POINT('Vertex',(-2.5,-2.22044604925E-016,2.5)) ;
#154=CARTESIAN_POINT('Vertex',(-4.5,-3.4450928484E-016,2.49999793646)) ;
#158=CARTESIAN_POINT('Control Point',(-4.49999949103,1.69577804576E-006,2.5)) ;
#159=CARTESIAN_POINT('Control Point',(-4.50000071257,0.157645883009,2.49999989307)) ;
#160=CARTESIAN_POINT('Control Point',(-4.468934809,0.315428434143,2.48757394116)) ;
#161=CARTESIAN_POINT('Control Point',(-4.40668934441,0.463292682852,2.46263391775)) ;
#162=CARTESIAN_POINT('Control Point',(-4.24296043749,0.707744458504,2.40365216517)) ;
#163=CARTESIAN_POINT('Control Point',(-4.00556446041,0.878575419237,2.3424681695)) ;
#164=CARTESIAN_POINT('Control Point',(-3.88211190501,0.939371319542,2.31740228291)) ;
#165=CARTESIAN_POINT('Control Point',(-3.62627108988,1.01389830802,2.28542238109)) ;
#166=CARTESIAN_POINT('Control Point',(-3.35883222182,1.0023558426,2.29014564212)) ;
#167=CARTESIAN_POINT('Control Point',(-3.23277668426,0.976027531134,2.30210952553)) ;
#168=CARTESIAN_POINT('Control Point',(-2.91451698051,0.855082260113,2.35314584877)) ;
#169=CARTESIAN_POINT('Control Point',(-2.66980329231,0.615002683936,2.43178523824)) ;
#170=CARTESIAN_POINT('Control Point',(-2.55692583587,0.426803182979,2.47722966562)) ;
#171=CARTESIAN_POINT('Control Point',(-2.5,0.213402597806,2.5)) ;
#172=CARTESIAN_POINT('Control Point',(-2.5,-1.14684596372E-015,2.5)) ;
#179=CARTESIAN_POINT('Axis2P3D Location',(-7.,0.,2.5)) ;
#184=CARTESIAN_POINT('Axis2P3D Location',(-7.,0.,0.)) ;
#194=CARTESIAN_POINT('Axis2P3D Location',(-25.,0.,0.)) ;
#199=CARTESIAN_POINT('Axis2P3D Location',(-25.,0.,-1.88156638837E-017)) ;
#203=CARTESIAN_POINT('Vertex',(-25.,4.0871027166,7.48139134012)) ;
#205=CARTESIAN_POINT('Vertex',(-25.,-4.0871027166,-7.48139134012)) ;
#208=CARTESIAN_POINT('Axis2P3D Location',(-25.,0.,-1.88156638837E-017)) ;
#218=CARTESIAN_POINT('Axis2P3D Location',(-33.525,9.34807786734E-015,-5.46090950237E-016)) ;
#223=CARTESIAN_POINT('Line Origine',(-24.5,4.3268154859,7.92018262106)) ;
#227=CARTESIAN_POINT('Vertex',(-24.,4.56652825521,8.35897390201)) ;
#230=CARTESIAN_POINT('Axis2P3D Location',(-24.,8.881784197E-016,1.30451205393E-015)) ;
#234=CARTESIAN_POINT('Vertex',(-24.,-4.56652825521,-8.35897390201)) ;
#237=CARTESIAN_POINT('Line Origine',(-24.5,-4.3268154859,-7.92018262106)) ;
#249=CARTESIAN_POINT('Axis2P3D Location',(-33.525,-6.23945339839E-015,-2.87214696471E-014)) ;
#254=CARTESIAN_POINT('Axis2P3D Location',(-24.,2.22044604925E-015,8.881784197E-016)) ;
#266=CARTESIAN_POINT('Axis2P3D Location',(-12.5,0.,0.)) ;
#271=CARTESIAN_POINT('Line Origine',(-16.,4.56652825521,8.35897390201)) ;
#275=CARTESIAN_POINT('Vertex',(-7.,4.56652825521,8.35897390201)) ;
#278=CARTESIAN_POINT('Axis2P3D Location',(-7.,0.,0.)) ;
#282=CARTESIAN_POINT('Vertex',(-7.,-4.56652825521,-8.35897390201)) ;
#285=CARTESIAN_POINT('Line Origine',(-16.,-4.56652825521,-8.35897390201)) ;
#297=CARTESIAN_POINT('Axis2P3D Location',(-7.,0.,0.)) ;
#313=CARTESIAN_POINT('Axis2P3D Location',(-7.,0.,0.)) ;
#317=CARTESIAN_POINT('Vertex',(-7.,-3.59569153953,-6.58186921418)) ;
#319=CARTESIAN_POINT('Vertex',(-7.,3.59569153953,6.58186921418)) ;
#322=CARTESIAN_POINT('Axis2P3D Location',(-7.,0.,0.)) ;
#332=CARTESIAN_POINT('Axis2P3D Location',(-12.5,0.,0.)) ;
#337=CARTESIAN_POINT('Line Origine',(-3.5,-3.59569153953,-6.58186921418)) ;
#341=CARTESIAN_POINT('Vertex',(0.,-3.59569153953,-6.58186921418)) ;
#344=CARTESIAN_POINT('Axis2P3D Location',(0.,0.,0.)) ;
#348=CARTESIAN_POINT('Vertex',(0.,3.59569153953,6.58186921418)) ;
#351=CARTESIAN_POINT('Line Origine',(-3.5,3.59569153953,6.58186921418)) ;
#363=CARTESIAN_POINT('Control Point',(-4.49999818891,2.06102052092E-007,7.5)) ;
#364=CARTESIAN_POINT('Control Point',(-4.50000296804,0.308781602454,7.49999999151)) ;
#365=CARTESIAN_POINT('Control Point',(-4.38082793133,0.617602283048,7.48410899124)) ;
#366=CARTESIAN_POINT('Control Point',(-4.14237499635,0.862859899483,7.45146360873)) ;
#367=CARTESIAN_POINT('Control Point',(-3.52066913046,1.12346089965,7.41644521495)) ;
#368=CARTESIAN_POINT('Control Point',(-2.88464316304,0.889731545822,7.44784894144)) ;
#369=CARTESIAN_POINT('Control Point',(-2.6281555397,0.640384200501,7.48291259469)) ;
#370=CARTESIAN_POINT('Control Point',(-2.5,0.320194365742,7.5)) ;
#371=CARTESIAN_POINT('Control Point',(-2.5,-1.64313007645E-014,7.5)) ;
#372=CARTESIAN_POINT('Vertex',(-4.5,-3.4450928484E-016,7.49999757852)) ;
#374=CARTESIAN_POINT('Vertex',(-2.5,-2.22044604925E-016,7.5)) ;
#378=CARTESIAN_POINT('Control Point',(-2.5,2.34257058196E-014,7.5)) ;
#379=CARTESIAN_POINT('Control Point',(-2.5,-0.267542721159,7.5)) ;
#380=CARTESIAN_POINT('Control Point',(-2.58947388448,-0.535082278938,7.48807014873)) ;
#381=CARTESIAN_POINT('Control Point',(-2.7683510843,-0.761318198339,7.46363956094)) ;
#382=CARTESIAN_POINT('Control Point',(-3.33020607995,-1.11176845863,7.41936212996)) ;
#383=CARTESIAN_POINT('Control Point',(-4.00871219954,-0.982082291082,7.43422194931)) ;
#384=CARTESIAN_POINT('Control Point',(-4.33669421888,-0.722821062249,7.47822716985)) ;
#385=CARTESIAN_POINT('Control Point',(-4.4999925948,-0.361437340488,7.50000000993)) ;
#386=CARTESIAN_POINT('Control Point',(-4.49999818891,2.06102052203E-007,7.5)) ;
#393=CARTESIAN_POINT('Line Origine',(-2.5,-2.22044604925E-016,1.16750000005)) ;
#398=CARTESIAN_POINT('Line Origine',(-4.5,-3.4450928484E-016,1.16750000005)) ;
#419=CARTESIAN_POINT('Axis2P3D Location',(4.52640868081E-017,0.,7.5)) ;
#424=CARTESIAN_POINT('Axis2P3D Location',(4.52640868081E-017,0.,0.)) ;
#433=CARTESIAN_POINT('Axis2P3D Location',(4.52640868081E-017,0.,0.)) ;
#450=CARTESIAN_POINT('Control Point',(-4.5,-1.09912079438E-014,-7.5)) ;
#451=CARTESIAN_POINT('Control Point',(-4.5,-0.267542721116,-7.5)) ;
#452=CARTESIAN_POINT('Control Point',(-4.41052611555,-0.535082278852,-7.48807014873)) ;
#453=CARTESIAN_POINT('Control Point',(-4.23164891561,-0.761318198399,-7.46363956093)) ;
#454=CARTESIAN_POINT('Control Point',(-3.66979802631,-1.11176589736,-7.41936245356)) ;
#455=CARTESIAN_POINT('Control Point',(-2.99129771817,-0.982084186672,-7.43422173211)) ;
#456=CARTESIAN_POINT('Control Point',(-2.66331357903,-0.722907397374,-7.47822485611)) ;
#457=CARTESIAN_POINT('Control Point',(-2.5,-0.36145658569,-7.5)) ;
#458=CARTESIAN_POINT('Control Point',(-2.5,8.99280649946E-015,-7.5)) ;
#472=CARTESIAN_POINT('Control Point',(-2.5,-3.71924713249E-015,-2.5)) ;
#473=CARTESIAN_POINT('Control Point',(-2.5,-0.197001417342,-2.5)) ;
#474=CARTESIAN_POINT('Control Point',(-2.54851194798,-0.394001119528,-2.48059522078)) ;
#475=CARTESIAN_POINT('Control Point',(-2.64489240236,-0.5710152983,-2.44188420328)) ;
#476=CARTESIAN_POINT('Control Point',(-2.86832069119,-0.818491178716,-2.36706941832)) ;
#477=CARTESIAN_POINT('Control Point',(-3.16943940451,-0.958104192819,-2.31000353828)) ;
#478=CARTESIAN_POINT('Control Point',(-3.30196359543,-0.994442795921,-2.29364278119)) ;
#479=CARTESIAN_POINT('Control Point',(-3.63428779793,-1.02553729368,-2.28027255891)) ;
#480=CARTESIAN_POINT('Control Point',(-3.95481223152,-0.922363195231,-2.32493205473)) ;
#481=CARTESIAN_POINT('Control Point',(-4.1210134274,-0.818154385383,-2.36809991201)) ;
#482=CARTESIAN_POINT('Control Point',(-4.33447828681,-0.602049620015,-2.43597165718)) ;
#483=CARTESIAN_POINT('Control Point',(-4.45506315453,-0.325145823498,-2.4820150783)) ;
#484=CARTESIAN_POINT('Control Point',(-4.48500704632,-0.218944124624,-2.49400433447)) ;
#485=CARTESIAN_POINT('Control Point',(-4.4999986425,-0.109504596627,-2.50000007428)) ;
#486=CARTESIAN_POINT('Control Point',(-4.49999949103,1.69577810094E-006,-2.5)) ;
#8=PRODUCT_RELATED_PRODUCT_CATEGORY('part',$,(#5)) ;
#29=STYLED_ITEM(' ',(#28),#21) ;
#28=PRESENTATION_STYLE_ASSIGNMENT((#27)) ;
#95=PRESENTATION_STYLE_ASSIGNMENT((#94)) ;
#27=SURFACE_STYLE_USAGE(.BOTH.,#26) ;
#94=SURFACE_STYLE_USAGE(.BOTH.,#93) ;
#26=SURFACE_SIDE_STYLE(' ',(#25)) ;
#93=SURFACE_SIDE_STYLE(' ',(#92)) ;
#25=SURFACE_STYLE_FILL_AREA(#24) ;
#92=SURFACE_STYLE_FILL_AREA(#91) ;
#24=FILL_AREA_STYLE(' ',(#23)) ;
#91=FILL_AREA_STYLE(' ',(#90)) ;
#23=FILL_AREA_STYLE_COLOUR(' ',#22) ;
#90=FILL_AREA_STYLE_COLOUR(' ',#89) ;
#53=VECTOR('Line Direction',#52,1.) ;
#79=VECTOR('Line Direction',#78,1.) ;
#113=VECTOR('Line Direction',#112,1.) ;
#127=VECTOR('Line Direction',#126,1.) ;
#225=VECTOR('Line Direction',#224,1.) ;
#239=VECTOR('Line Direction',#238,1.) ;
#273=VECTOR('Line Direction',#272,1.) ;
#287=VECTOR('Line Direction',#286,1.) ;
#339=VECTOR('Line Direction',#338,1.) ;
#353=VECTOR('Line Direction',#352,1.) ;
#395=VECTOR('Line Direction',#394,1.) ;
#400=VECTOR('Line Direction',#399,1.) ;
#32=DIRECTION('Axis2P3D Direction',(0.,-0.,-1.)) ;
#33=DIRECTION('Axis2P3D XDirection',(1.,0.,0.)) ;
#52=DIRECTION('Vector Direction',(0.,0.,-1.)) ;
#78=DIRECTION('Vector Direction',(0.,0.,-1.)) ;
#98=DIRECTION('Axis2P3D Direction',(-1.,0.,0.)) ;
#99=DIRECTION('Axis2P3D XDirection',(0.,0.479425538604,0.87758256189)) ;
#103=DIRECTION('Axis2P3D Direction',(-1.,0.,0.)) ;
#112=DIRECTION('Vector Direction',(-1.,0.,0.)) ;
#119=DIRECTION('Axis2P3D Direction',(-1.,0.,0.)) ;
#126=DIRECTION('Vector Direction',(-1.,0.,0.)) ;
#180=DIRECTION('Axis2P3D Direction',(-1.,0.,0.)) ;
#181=DIRECTION('Axis2P3D XDirection',(0.,1.,0.)) ;
#185=DIRECTION('Axis2P3D Direction',(-1.,0.,0.)) ;
#195=DIRECTION('Axis2P3D Direction',(-1.,0.,0.)) ;
#196=DIRECTION('Axis2P3D XDirection',(0.,1.,0.)) ;
#200=DIRECTION('Axis2P3D Direction',(-1.,0.,0.)) ;
#209=DIRECTION('Axis2P3D Direction',(-1.,0.,0.)) ;
#219=DIRECTION('Axis2P3D Direction',(1.,-8.881784197E-016,1.94289029309E-016)) ;
#220=DIRECTION('Axis2P3D XDirection',(2.63417803193E-016,0.479425538604,0.87758256189)) ;
#224=DIRECTION('Vector Direction',(0.707106781187,0.339005049421,0.620544580564)) ;
#231=DIRECTION('Axis2P3D Direction',(-1.,7.65775924358E-016,-4.18345294139E-016)) ;
#238=DIRECTION('Vector Direction',(0.707106781187,-0.339005049421,-0.620544580564)) ;
#250=DIRECTION('Axis2P3D Direction',(1.,8.881784197E-016,3.10862446895E-015)) ;
#251=DIRECTION('Axis2P3D XDirection',(2.10734242554E-015,0.520296023213,-0.853985976599)) ;
#255=DIRECTION('Axis2P3D Direction',(-1.,-2.0289826037E-015,-1.2361696899E-015)) ;
#267=DIRECTION('Axis2P3D Direction',(-1.,0.,0.)) ;
#268=DIRECTION('Axis2P3D XDirection',(0.,0.479425538604,0.87758256189)) ;
#272=DIRECTION('Vector Direction',(-1.,0.,0.)) ;
#279=DIRECTION('Axis2P3D Direction',(-1.,0.,0.)) ;
#286=DIRECTION('Vector Direction',(-1.,0.,0.)) ;
#298=DIRECTION('Axis2P3D Direction',(-1.,0.,0.)) ;
#314=DIRECTION('Axis2P3D Direction',(-1.,0.,0.)) ;
#323=DIRECTION('Axis2P3D Direction',(-1.,0.,0.)) ;
#333=DIRECTION('Axis2P3D Direction',(-1.,0.,0.)) ;
#334=DIRECTION('Axis2P3D XDirection',(0.,0.479425538604,0.87758256189)) ;
#338=DIRECTION('Vector Direction',(-1.,0.,0.)) ;
#345=DIRECTION('Axis2P3D Direction',(-1.,0.,0.)) ;
#352=DIRECTION('Vector Direction',(-1.,0.,0.)) ;
#394=DIRECTION('Vector Direction',(0.,0.,-1.)) ;
#399=DIRECTION('Vector Direction',(0.,0.,-1.)) ;
#420=DIRECTION('Axis2P3D Direction',(-1.,0.,0.)) ;
#421=DIRECTION('Axis2P3D XDirection',(0.,1.,0.)) ;
#425=DIRECTION('Axis2P3D Direction',(-1.,0.,0.)) ;
#434=DIRECTION('Axis2P3D Direction',(-1.,0.,0.)) ;
#15=UNCERTAINTY_MEASURE_WITH_UNIT(LENGTH_MEASURE(0.005),#12,'distance_accuracy_value','CONFUSED CURVE UNCERTAINTY') ;
#18=AXIS2_PLACEMENT_3D(' ',#17,$,$) ;
#34=AXIS2_PLACEMENT_3D('Cylinder Axis2P3D',#31,#32,#33) ;
#100=AXIS2_PLACEMENT_3D('Cylinder Axis2P3D',#97,#98,#99) ;
#104=AXIS2_PLACEMENT_3D('Circle Axis2P3D',#102,#103,$) ;
#120=AXIS2_PLACEMENT_3D('Circle Axis2P3D',#118,#119,$) ;
#182=AXIS2_PLACEMENT_3D('Plane Axis2P3D',#179,#180,#181) ;
#186=AXIS2_PLACEMENT_3D('Circle Axis2P3D',#184,#185,$) ;
#197=AXIS2_PLACEMENT_3D('Plane Axis2P3D',#194,#195,#196) ;
#201=AXIS2_PLACEMENT_3D('Circle Axis2P3D',#199,#200,$) ;
#210=AXIS2_PLACEMENT_3D('Circle Axis2P3D',#208,#209,$) ;
#221=AXIS2_PLACEMENT_3D('Cone Axis2P3D',#218,#219,#220) ;
#232=AXIS2_PLACEMENT_3D('Circle Axis2P3D',#230,#231,$) ;
#252=AXIS2_PLACEMENT_3D('Cone Axis2P3D',#249,#250,#251) ;
#256=AXIS2_PLACEMENT_3D('Circle Axis2P3D',#254,#255,$) ;
#269=AXIS2_PLACEMENT_3D('Cylinder Axis2P3D',#266,#267,#268) ;
#280=AXIS2_PLACEMENT_3D('Circle Axis2P3D',#278,#279,$) ;
#299=AXIS2_PLACEMENT_3D('Circle Axis2P3D',#297,#298,$) ;
#315=AXIS2_PLACEMENT_3D('Circle Axis2P3D',#313,#314,$) ;
#324=AXIS2_PLACEMENT_3D('Circle Axis2P3D',#322,#323,$) ;
#335=AXIS2_PLACEMENT_3D('Cylinder Axis2P3D',#332,#333,#334) ;
#346=AXIS2_PLACEMENT_3D('Circle Axis2P3D',#344,#345,$) ;
#422=AXIS2_PLACEMENT_3D('Plane Axis2P3D',#419,#420,#421) ;
#426=AXIS2_PLACEMENT_3D('Circle Axis2P3D',#424,#425,$) ;
#435=AXIS2_PLACEMENT_3D('Circle Axis2P3D',#433,#434,$) ;
#54=LINE('Line',#51,#53) ;
#80=LINE('Line',#77,#79) ;
#114=LINE('Line',#111,#113) ;
#128=LINE('Line',#125,#127) ;
#226=LINE('Line',#223,#225) ;
#240=LINE('Line',#237,#239) ;
#274=LINE('Line',#271,#273) ;
#288=LINE('Line',#285,#287) ;
#340=LINE('Line',#337,#339) ;
#354=LINE('Line',#351,#353) ;
#396=LINE('Line',#393,#395) ;
#401=LINE('Line',#398,#400) ;
#105=CIRCLE('generated circle',#104,2.5) ;
#121=CIRCLE('generated circle',#120,2.5) ;
#187=CIRCLE('generated circle',#186,2.5) ;
#202=CIRCLE('generated circle',#201,8.525) ;
#211=CIRCLE('generated circle',#210,8.525) ;
#233=CIRCLE('generated circle',#232,9.525) ;
#257=CIRCLE('generated circle',#256,9.525) ;
#281=CIRCLE('generated circle',#280,9.525) ;
#300=CIRCLE('generated circle',#299,9.525) ;
#316=CIRCLE('generated circle',#315,7.5) ;
#325=CIRCLE('generated circle',#324,7.5) ;
#347=CIRCLE('generated circle',#346,7.5) ;
#427=CIRCLE('generated circle',#426,7.5) ;
#436=CIRCLE('generated circle',#435,2.5) ;
#183=PLANE('',#182) ;
#198=PLANE('',#197) ;
#423=PLANE('',#422) ;
#35=CYLINDRICAL_SURFACE('generated cylinder',#34,1.) ;
#101=CYLINDRICAL_SURFACE('generated cylinder',#100,2.5) ;
#270=CYLINDRICAL_SURFACE('generated cylinder',#269,9.525) ;
#336=CYLINDRICAL_SURFACE('generated cylinder',#335,7.5) ;
#222=CONICAL_SURFACE('Cone',#221,0.,0.785398163397) ;
#253=CONICAL_SURFACE('Cone',#252,0.,0.785398163397) ;
#177=FACE_BOUND('',#174,.T.) ;
#330=FACE_BOUND('',#327,.T.) ;
#391=FACE_BOUND('',#388,.T.) ;
#441=FACE_BOUND('',#438,.T.) ;
#463=FACE_BOUND('',#460,.T.) ;
#491=FACE_BOUND('',#488,.T.) ;
#50=EDGE_CURVE('',#47,#49,#36,.T.) ;
#57=EDGE_CURVE('',#47,#56,#54,.F.) ;
#76=EDGE_CURVE('',#75,#56,#58,.T.) ;
#81=EDGE_CURVE('',#49,#75,#80,.F.) ;
#110=EDGE_CURVE('',#107,#109,#105,.T.) ;
#117=EDGE_CURVE('',#107,#116,#114,.T.) ;
#124=EDGE_CURVE('',#116,#123,#121,.T.) ;
#129=EDGE_CURVE('',#109,#123,#128,.T.) ;
#156=EDGE_CURVE('',#153,#155,#136,.T.) ;
#173=EDGE_CURVE('',#155,#153,#157,.T.) ;
#188=EDGE_CURVE('',#123,#116,#187,.T.) ;
#207=EDGE_CURVE('',#204,#206,#202,.T.) ;
#212=EDGE_CURVE('',#206,#204,#211,.T.) ;
#229=EDGE_CURVE('',#204,#228,#226,.T.) ;
#236=EDGE_CURVE('',#228,#235,#233,.T.) ;
#241=EDGE_CURVE('',#206,#235,#240,.T.) ;
#258=EDGE_CURVE('',#235,#228,#257,.T.) ;
#277=EDGE_CURVE('',#228,#276,#274,.F.) ;
#284=EDGE_CURVE('',#276,#283,#281,.T.) ;
#289=EDGE_CURVE('',#235,#283,#288,.F.) ;
#301=EDGE_CURVE('',#283,#276,#300,.T.) ;
#321=EDGE_CURVE('',#318,#320,#316,.T.) ;
#326=EDGE_CURVE('',#320,#318,#325,.T.) ;
#343=EDGE_CURVE('',#318,#342,#340,.F.) ;
#350=EDGE_CURVE('',#342,#349,#347,.T.) ;
#355=EDGE_CURVE('',#320,#349,#354,.F.) ;
#376=EDGE_CURVE('',#373,#375,#362,.T.) ;
#387=EDGE_CURVE('',#375,#373,#377,.T.) ;
#397=EDGE_CURVE('',#153,#375,#396,.F.) ;
#402=EDGE_CURVE('',#155,#373,#401,.F.) ;
#428=EDGE_CURVE('',#349,#342,#427,.T.) ;
#437=EDGE_CURVE('',#109,#107,#436,.T.) ;
#459=EDGE_CURVE('',#49,#47,#449,.T.) ;
#487=EDGE_CURVE('',#56,#75,#471,.T.) ;
#30=CLOSED_SHELL('Closed Shell',(#88,#178,#193,#217,#248,#265,#296,#308,#331,#392,#409,#417,#442,#464,#492,#499)) ;
#502=SHAPE_REPRESENTATION_RELATIONSHIP(' ',' ',#19,#501) ;
#82=EDGE_LOOP('',(#83,#84,#85,#86)) ;
#130=EDGE_LOOP('',(#131,#132,#133,#134)) ;
#174=EDGE_LOOP('',(#175,#176)) ;
#189=EDGE_LOOP('',(#190,#191)) ;
#213=EDGE_LOOP('',(#214,#215)) ;
#242=EDGE_LOOP('',(#243,#244,#245,#246)) ;
#259=EDGE_LOOP('',(#260,#261,#262,#263)) ;
#290=EDGE_LOOP('',(#291,#292,#293,#294)) ;
#302=EDGE_LOOP('',(#303,#304,#305,#306)) ;
#309=EDGE_LOOP('',(#310,#311)) ;
#327=EDGE_LOOP('',(#328,#329)) ;
#356=EDGE_LOOP('',(#357,#358,#359,#360)) ;
#388=EDGE_LOOP('',(#389,#390)) ;
#403=EDGE_LOOP('',(#404,#405,#406,#407)) ;
#411=EDGE_LOOP('',(#412,#413,#414,#415)) ;
#429=EDGE_LOOP('',(#430,#431)) ;
#438=EDGE_LOOP('',(#439,#440)) ;
#443=EDGE_LOOP('',(#444,#445,#446,#447)) ;
#460=EDGE_LOOP('',(#461,#462)) ;
#465=EDGE_LOOP('',(#466,#467,#468,#469)) ;
#488=EDGE_LOOP('',(#489,#490)) ;
#493=EDGE_LOOP('',(#494,#495,#496,#497)) ;
#83=ORIENTED_EDGE('',*,*,#50,.F.) ;
#84=ORIENTED_EDGE('',*,*,#57,.T.) ;
#85=ORIENTED_EDGE('',*,*,#76,.F.) ;
#86=ORIENTED_EDGE('',*,*,#81,.F.) ;
#131=ORIENTED_EDGE('',*,*,#110,.F.) ;
#132=ORIENTED_EDGE('',*,*,#117,.T.) ;
#133=ORIENTED_EDGE('',*,*,#124,.T.) ;
#134=ORIENTED_EDGE('',*,*,#129,.F.) ;
#175=ORIENTED_EDGE('',*,*,#156,.F.) ;
#176=ORIENTED_EDGE('',*,*,#173,.F.) ;
#190=ORIENTED_EDGE('',*,*,#188,.F.) ;
#191=ORIENTED_EDGE('',*,*,#124,.F.) ;
#214=ORIENTED_EDGE('',*,*,#207,.T.) ;
#215=ORIENTED_EDGE('',*,*,#212,.T.) ;
#243=ORIENTED_EDGE('',*,*,#229,.T.) ;
#244=ORIENTED_EDGE('',*,*,#236,.T.) ;
#245=ORIENTED_EDGE('',*,*,#241,.F.) ;
#246=ORIENTED_EDGE('',*,*,#207,.F.) ;
#260=ORIENTED_EDGE('',*,*,#241,.T.) ;
#261=ORIENTED_EDGE('',*,*,#258,.T.) ;
#262=ORIENTED_EDGE('',*,*,#229,.F.) ;
#263=ORIENTED_EDGE('',*,*,#212,.F.) ;
#291=ORIENTED_EDGE('',*,*,#277,.T.) ;
#292=ORIENTED_EDGE('',*,*,#284,.T.) ;
#293=ORIENTED_EDGE('',*,*,#289,.F.) ;
#294=ORIENTED_EDGE('',*,*,#236,.F.) ;
#303=ORIENTED_EDGE('',*,*,#289,.T.) ;
#304=ORIENTED_EDGE('',*,*,#301,.T.) ;
#305=ORIENTED_EDGE('',*,*,#277,.F.) ;
#306=ORIENTED_EDGE('',*,*,#258,.F.) ;
#310=ORIENTED_EDGE('',*,*,#284,.F.) ;
#311=ORIENTED_EDGE('',*,*,#301,.F.) ;
#328=ORIENTED_EDGE('',*,*,#321,.T.) ;
#329=ORIENTED_EDGE('',*,*,#326,.T.) ;
#357=ORIENTED_EDGE('',*,*,#321,.F.) ;
#358=ORIENTED_EDGE('',*,*,#343,.T.) ;
#359=ORIENTED_EDGE('',*,*,#350,.T.) ;
#360=ORIENTED_EDGE('',*,*,#355,.F.) ;
#389=ORIENTED_EDGE('',*,*,#376,.T.) ;
#390=ORIENTED_EDGE('',*,*,#387,.T.) ;
#404=ORIENTED_EDGE('',*,*,#387,.F.) ;
#405=ORIENTED_EDGE('',*,*,#397,.F.) ;
#406=ORIENTED_EDGE('',*,*,#156,.T.) ;
#407=ORIENTED_EDGE('',*,*,#402,.T.) ;
#412=ORIENTED_EDGE('',*,*,#376,.F.) ;
#413=ORIENTED_EDGE('',*,*,#402,.F.) ;
#414=ORIENTED_EDGE('',*,*,#173,.T.) ;
#415=ORIENTED_EDGE('',*,*,#397,.T.) ;
#430=ORIENTED_EDGE('',*,*,#428,.F.) ;
#431=ORIENTED_EDGE('',*,*,#350,.F.) ;
#439=ORIENTED_EDGE('',*,*,#110,.T.) ;
#440=ORIENTED_EDGE('',*,*,#437,.T.) ;
#444=ORIENTED_EDGE('',*,*,#326,.F.) ;
#445=ORIENTED_EDGE('',*,*,#355,.T.) ;
#446=ORIENTED_EDGE('',*,*,#428,.T.) ;
#447=ORIENTED_EDGE('',*,*,#343,.F.) ;
#461=ORIENTED_EDGE('',*,*,#50,.T.) ;
#462=ORIENTED_EDGE('',*,*,#459,.T.) ;
#466=ORIENTED_EDGE('',*,*,#437,.F.) ;
#467=ORIENTED_EDGE('',*,*,#129,.T.) ;
#468=ORIENTED_EDGE('',*,*,#188,.T.) ;
#469=ORIENTED_EDGE('',*,*,#117,.F.) ;
#489=ORIENTED_EDGE('',*,*,#76,.T.) ;
#490=ORIENTED_EDGE('',*,*,#487,.T.) ;
#494=ORIENTED_EDGE('',*,*,#459,.F.) ;
#495=ORIENTED_EDGE('',*,*,#81,.T.) ;
#496=ORIENTED_EDGE('',*,*,#487,.F.) ;
#497=ORIENTED_EDGE('',*,*,#57,.F.) ;
#21=MANIFOLD_SOLID_BREP('PartBody',#30) ;
#47=VERTEX_POINT('',#46) ;
#49=VERTEX_POINT('',#48) ;
#56=VERTEX_POINT('',#55) ;
#75=VERTEX_POINT('',#74) ;
#107=VERTEX_POINT('',#106) ;
#109=VERTEX_POINT('',#108) ;
#116=VERTEX_POINT('',#115) ;
#123=VERTEX_POINT('',#122) ;
#153=VERTEX_POINT('',#152) ;
#155=VERTEX_POINT('',#154) ;
#204=VERTEX_POINT('',#203) ;
#206=VERTEX_POINT('',#205) ;
#228=VERTEX_POINT('',#227) ;
#235=VERTEX_POINT('',#234) ;
#276=VERTEX_POINT('',#275) ;
#283=VERTEX_POINT('',#282) ;
#318=VERTEX_POINT('',#317) ;
#320=VERTEX_POINT('',#319) ;
#342=VERTEX_POINT('',#341) ;
#349=VERTEX_POINT('',#348) ;
#373=VERTEX_POINT('',#372) ;
#375=VERTEX_POINT('',#374) ;
#501=ADVANCED_BREP_SHAPE_REPRESENTATION('NONE',(#21),#16) ;
#88=ADVANCED_FACE('PartBody',(#87),#35,.F.) ;
#178=ADVANCED_FACE('PartBody',(#135,#177),#101,.F.) ;
#193=ADVANCED_FACE('PartBody',(#192),#183,.F.) ;
#217=ADVANCED_FACE('PartBody',(#216),#198,.T.) ;
#248=ADVANCED_FACE('PartBody',(#247),#222,.T.) ;
#265=ADVANCED_FACE('PartBody',(#264),#253,.T.) ;
#296=ADVANCED_FACE('PartBody',(#295),#270,.T.) ;
#308=ADVANCED_FACE('PartBody',(#307),#270,.T.) ;
#331=ADVANCED_FACE('PartBody',(#312,#330),#183,.F.) ;
#392=ADVANCED_FACE('PartBody',(#361,#391),#336,.T.) ;
#409=ADVANCED_FACE('PartBody',(#408),#35,.F.) ;
#417=ADVANCED_FACE('PartBody',(#416),#35,.F.) ;
#442=ADVANCED_FACE('PartBody',(#432,#441),#423,.F.) ;
#464=ADVANCED_FACE('PartBody',(#448,#463),#336,.T.) ;
#492=ADVANCED_FACE('PartBody',(#470,#491),#101,.F.) ;
#499=ADVANCED_FACE('PartBody',(#498),#35,.F.) ;
#4=APPLICATION_PROTOCOL_DEFINITION('international standard','ap242_managed_model_based_3d_engineering',2014,#1) ;
#36=B_SPLINE_CURVE_WITH_KNOTS('',5,(#37,#38,#39,#40,#41,#42,#43,#44,#45),.UNSPECIFIED.,.F.,.U.,(6,3,6),(0.,2.55588569727,4.44769876026),.UNSPECIFIED.) ;
#58=B_SPLINE_CURVE_WITH_KNOTS('',5,(#59,#60,#61,#62,#63,#64,#65,#66,#67,#68,#69,#70,#71,#72,#73),.UNSPECIFIED.,.F.,.U.,(6,3,3,3,6),(4.49070049406,5.60588879674,6.5756094461,7.47175866839,8.98074290873),.UNSPECIFIED.) ;
#136=B_SPLINE_CURVE_WITH_KNOTS('',5,(#137,#138,#139,#140,#141,#142,#143,#144,#145,#146,#147,#148,#149,#150,#151),.UNSPECIFIED.,.F.,.U.,(6,3,3,3,6),(0.,1.39301038102,2.34989162725,3.71604372734,4.490700494),.UNSPECIFIED.) ;
#157=B_SPLINE_CURVE_WITH_KNOTS('',5,(#158,#159,#160,#161,#162,#163,#164,#165,#166,#167,#168,#169,#170,#171,#172),.UNSPECIFIED.,.F.,.U.,(6,3,3,3,6),(4.490700494,5.60588879671,6.57560944608,7.47175866837,8.98074290869),.UNSPECIFIED.) ;
#362=B_SPLINE_CURVE_WITH_KNOTS('',5,(#363,#364,#365,#366,#367,#368,#369,#370,#371),.UNSPECIFIED.,.F.,.U.,(6,3,6),(4.4477292586,6.63128623544,8.89540230857),.UNSPECIFIED.) ;
#377=B_SPLINE_CURVE_WITH_KNOTS('',5,(#378,#379,#380,#381,#382,#383,#384,#385,#386),.UNSPECIFIED.,.F.,.U.,(6,3,6),(0.,1.89181272389,4.4477292586),.UNSPECIFIED.) ;
#449=B_SPLINE_CURVE_WITH_KNOTS('',5,(#450,#451,#452,#453,#454,#455,#456,#457,#458),.UNSPECIFIED.,.F.,.U.,(6,3,6),(4.44769876026,6.33951148384,8.8953955123),.UNSPECIFIED.) ;
#471=B_SPLINE_CURVE_WITH_KNOTS('',5,(#472,#473,#474,#475,#476,#477,#478,#479,#480,#481,#482,#483,#484,#485,#486),.UNSPECIFIED.,.F.,.U.,(6,3,3,3,6),(0.,1.39301038106,2.34989162729,3.71604372743,4.49070049406),.UNSPECIFIED.) ;
#22=COLOUR_RGB('Colour',0.2,0.2,0.2) ;
#96=OVER_RIDING_STYLED_ITEM(' ',(#95),#88,#29) ;
#410=OVER_RIDING_STYLED_ITEM(' ',(#95),#409,#29) ;
#418=OVER_RIDING_STYLED_ITEM(' ',(#95),#417,#29) ;
#500=OVER_RIDING_STYLED_ITEM(' ',(#95),#499,#29) ;
#89=DRAUGHTING_PRE_DEFINED_COLOUR('blue') ;
#87=FACE_OUTER_BOUND('',#82,.T.) ;
#135=FACE_OUTER_BOUND('',#130,.T.) ;
#192=FACE_OUTER_BOUND('',#189,.T.) ;
#216=FACE_OUTER_BOUND('',#213,.T.) ;
#247=FACE_OUTER_BOUND('',#242,.T.) ;
#264=FACE_OUTER_BOUND('',#259,.T.) ;
#295=FACE_OUTER_BOUND('',#290,.T.) ;
#307=FACE_OUTER_BOUND('',#302,.T.) ;
#312=FACE_OUTER_BOUND('',#309,.T.) ;
#361=FACE_OUTER_BOUND('',#356,.T.) ;
#408=FACE_OUTER_BOUND('',#403,.T.) ;
#416=FACE_OUTER_BOUND('',#411,.T.) ;
#432=FACE_OUTER_BOUND('',#429,.T.) ;
#448=FACE_OUTER_BOUND('',#443,.T.) ;
#470=FACE_OUTER_BOUND('',#465,.T.) ;
#498=FACE_OUTER_BOUND('',#493,.T.) ;
#9=PRODUCT_CATEGORY_RELATIONSHIP(' ',' ',#7,#8) ;
#6=PRODUCT_DEFINITION_FORMATION_WITH_SPECIFIED_SOURCE('',' ',#5,.NOT_KNOWN.) ;
#20=SHAPE_DEFINITION_REPRESENTATION(#11,#19) ;
#12=(LENGTH_UNIT()NAMED_UNIT(*)SI_UNIT(.MILLI.,.METRE.)) ;
#13=(NAMED_UNIT(*)PLANE_ANGLE_UNIT()SI_UNIT($,.RADIAN.)) ;
#14=(NAMED_UNIT(*)SI_UNIT($,.STERADIAN.)SOLID_ANGLE_UNIT()) ;
#16=(GEOMETRIC_REPRESENTATION_CONTEXT(3)GLOBAL_UNCERTAINTY_ASSIGNED_CONTEXT((#15))GLOBAL_UNIT_ASSIGNED_CONTEXT((#12,#13,#14))REPRESENTATION_CONTEXT(' ',' ')) ;
ENDSEC;
END-ISO-10303-21;
