  0
SECTION
  2
HEADER
  9
$ACADVER
  1
AC1015
  9
$ACADMAINTVER
 70
     6
  9
$DWGCODEPAGE
  3
ANSI_1252
  9
$INSBASE
 10
0.0
 20
0.0
 30
0.0
  9
$EXTMIN
 10
0.0
 20
0.0
 30
0.0
  9
$EXTMAX
 10
399.5
 20
184.75
 30
2.0
  9
$LIMMIN
 10
0.0
 20
0.0
  9
$LIMMAX
 10
420.0
 20
297.0
  9
$ORTHOMODE
 70
     0
  9
$REGENMODE
 70
     1
  9
$FILLMODE
 70
     1
  9
$QTEXTMODE
 70
     0
  9
$MIRRTEXT
 70
     1
  9
$LTSCALE
 40
1.0
  9
$ATTMODE
 70
     1
  9
$TEXTSIZE
 40
2.5
  9
$TRACEWID
 40
1.0
  9
$TEXTSTYLE
  7
Standard
  9
$CLAYER
  8
0
  9
$CELTYPE
  6
ByLayer
  9
$CECOLOR
 62
   256
  9
$CELTSCALE
 40
1.0
  9
$DISPSILH
 70
     0
  9
$DIMSCALE
 40
1.0
  9
$DIMASZ
 40
2.5
  9
$DIMEXO
 40
0.625
  9
$DIMDLI
 40
3.75
  9
$DIMRND
 40
0.0
  9
$DIMDLE
 40
0.0
  9
$DIMEXE
 40
1.25
  9
$DIMTP
 40
0.0
  9
$DIMTM
 40
0.0
  9
$DIMTXT
 40
2.5
  9
$DIMCEN
 40
2.5
  9
$DIMTSZ
 40
0.0
  9
$DIMTOL
 70
     0
  9
$DIMLIM
 70
     0
  9
$DIMTIH
 70
     0
  9
$DIMTOH
 70
     0
  9
$DIMSE1
 70
     0
  9
$DIMSE2
 70
     0
  9
$DIMTAD
 70
     1
  9
$DIMZIN
 70
     8
  9
$DIMBLK
  1

  9
$DIMASO
 70
     1
  9
$DIMSHO
 70
     1
  9
$DIMPOST
  1

  9
$DIMAPOST
  1

  9
$DIMALT
 70
     0
  9
$DIMALTD
 70
     3
  9
$DIMALTF
 40
0.03937
  9
$DIMLFAC
 40
1.0
  9
$DIMTOFL
 70
     1
  9
$DIMTVP
 40
0.0
  9
$DIMTIX
 70
     0
  9
$DIMSOXD
 70
     0
  9
$DIMSAH
 70
     0
  9
$DIMBLK1
  1

  9
$DIMBLK2
  1

  9
$DIMSTYLE
  2
Standard
  9
$DIMCLRD
 70
     0
  9
$DIMCLRE
 70
     0
  9
$DIMCLRT
 70
     0
  9
$DIMTFAC
 40
1.0
  9
$DIMGAP
 40
0.625
  9
$DIMJUST
 70
     0
  9
$DIMSD1
 70
     0
  9
$DIMSD2
 70
     0
  9
$DIMTOLJ
 70
     0
  9
$DIMTZIN
 70
     8
  9
$DIMALTZ
 70
     0
  9
$DIMALTTZ
 70
     0
  9
$DIMUPT
 70
     0
  9
$DIMDEC
 70
     2
  9
$DIMTDEC
 70
     2
  9
$DIMALTU
 70
     2
  9
$DIMALTTD
 70
     3
  9
$DIMTXSTY
  7
Standard
  9
$DIMAUNIT
 70
     0
  9
$DIMADEC
 70
     0
  9
$DIMALTRND
 40
0.0
  9
$DIMAZIN
 70
     0
  9
$DIMDSEP
 70
    44
  9
$DIMATFIT
 70
     0
  9
$DIMFRAC
 70
     0
  9
$DIMLDRBLK
  1

  9
$DIMLUNIT
 70
     2
  9
$DIMLWD
 70
    -2
  9
$DIMLWE
 70
    -2
  9
$DIMTMOVE
 70
     0
  9
$LUNITS
 70
     2
  9
$LUPREC
 70
     4
  9
$SKETCHINC
 40
1.0
  9
$FILLETRAD
 40
2.5
  9
$AUNITS
 70
     0
  9
$AUPREC
 70
     0
  9
$MENU
  1
.
  9
$ELEVATION
 40
0.0
  9
$PELEVATION
 40
0.0
  9
$THICKNESS
 40
0.0
  9
$LIMCHECK
 70
     0
  9
$CHAMFERA
 40
2.5
  9
$CHAMFERB
 40
2.5
  9
$CHAMFERC
 40
0.0
  9
$CHAMFERD
 40
0.0
  9
$SKPOLY
 70
     0
  9
$TDCREATE
 40
2447892.75
  9
$TDUCREATE
 40
0.0
  9
$TDUPDATE
 40
2461113.337369491
  9
$TDUUPDATE
 40
2461113.587369491
  9
$TDINDWG
 40
0.0
  9
$TDUSRTIMER
 40
0.0
  9
$USRTIMER
 70
     1
  9
$ANGBASE
 50
0.0
  9
$ANGDIR
 70
     0
  9
$PDMODE
 70
     0
  9
$PDSIZE
 40
0.0
  9
$PLINEWID
 40
0.0
  9
$SPLFRAME
 70
     0
  9
$SPLINETYPE
 70
     6
  9
$SPLINESEGS
 70
     8
  9
$HANDSEED
  5
532
  9
$SURFTAB1
 70
     6
  9
$SURFTAB2
 70
     6
  9
$SURFTYPE
 70
     6
  9
$SURFU
 70
     6
  9
$SURFV
 70
     6
  9
$UCSBASE
  2

  9
$UCSNAME
  2

  9
$UCSORG
 10
0.0
 20
0.0
 30
0.0
  9
$UCSXDIR
 10
1.0
 20
0.0
 30
0.0
  9
$UCSYDIR
 10
0.0
 20
1.0
 30
0.0
  9
$UCSORTHOREF
  2

  9
$UCSORTHOVIEW
 70
     1
  9
$UCSORGTOP
 10
0.0
 20
0.0
 30
0.0
  9
$UCSORGBOTTOM
 10
0.0
 20
0.0
 30
0.0
  9
$UCSORGLEFT
 10
0.0
 20
0.0
 30
0.0
  9
$UCSORGRIGHT
 10
0.0
 20
0.0
 30
0.0
  9
$UCSORGFRONT
 10
0.0
 20
0.0
 30
0.0
  9
$UCSORGBACK
 10
0.0
 20
0.0
 30
0.0
  9
$PUCSBASE
  2

  9
$PUCSNAME
  2

  9
$PUCSORG
 10
0.0
 20
0.0
 30
0.0
  9
$PUCSXDIR
 10
1.0
 20
0.0
 30
0.0
  9
$PUCSYDIR
 10
0.0
 20
1.0
 30
0.0
  9
$PUCSORTHOREF
  2

  9
$PUCSORTHOVIEW
 70
     0
  9
$PUCSORGTOP
 10
0.0
 20
0.0
 30
0.0
  9
$PUCSORGBOTTOM
 10
0.0
 20
0.0
 30
0.0
  9
$PUCSORGLEFT
 10
0.0
 20
0.0
 30
0.0
  9
$PUCSORGRIGHT
 10
0.0
 20
0.0
 30
0.0
  9
$PUCSORGFRONT
 10
0.0
 20
0.0
 30
0.0
  9
$PUCSORGBACK
 10
0.0
 20
0.0
 30
0.0
  9
$USERI1
 70
     0
  9
$USERI2
 70
     0
  9
$USERI3
 70
     0
  9
$USERI4
 70
     0
  9
$USERI5
 70
     0
  9
$USERR1
 40
0.0
  9
$USERR2
 40
0.0
  9
$USERR3
 40
0.0
  9
$USERR4
 40
0.0
  9
$USERR5
 40
0.0
  9
$WORLDVIEW
 70
     1
  9
$SHADEDGE
 70
     3
  9
$SHADEDIF
 70
    70
  9
$TILEMODE
 70
     1
  9
$MAXACTVP
 70
    64
  9
$PINSBASE
 10
0.0
 20
0.0
 30
0.0
  9
$PLIMCHECK
 70
     0
  9
$PEXTMIN
 10
0.0
 20
0.0
 30
0.0
  9
$PEXTMAX
 10
399.5
 20
184.75
 30
2.0
  9
$PLIMMIN
 10
0.0
 20
0.0
  9
$PLIMMAX
 10
420.0
 20
297.0
  9
$UNITMODE
 70
     0
  9
$VISRETAIN
 70
     0
  9
$PLINEGEN
 70
     0
  9
$PSLTSCALE
 70
     1
  9
$TREEDEPTH
 70
  3020
  9
$CMLSTYLE
  2
Standard
  9
$CMLJUST
 70
     0
  9
$CMLSCALE
 40
20.0
  9
$PROXYGRAPHICS
 70
     1
  9
$MEASUREMENT
 70
     1
  9
$CELWEIGHT
370
    -1
  9
$ENDCAPS
280
     0
  9
$JOINSTYLE
280
     0
  9
$LWDISPLAY
290
     0
  9
$INSUNITS
 70
     0
  9
$HYPERLINKBASE
  1

  9
$STYLESHEET
  1

  9
$XEDIT
290
     1
  9
$CEPSNTYPE
380
     0
  9
$PSTYLEMODE
290
     0
  9
$FINGERPRINTGUID
  2
{9B194B5E-5EA4-478A-94C6-68D570967DC5}
  9
$VERSIONGUID
  2
{FAEB1C32-E019-11D5-929B-00C0DF256EC4}
  9
$EXTNAMES
290
     1
  9
$PSVPSCALE
 40
0.0
  9
$OLESTARTUP
290
     0
  0
ENDSEC
  0
SECTION
  2
CLASSES
  0
CLASS
  1
ACDBDICTIONARYWDFLT
  2
AcDbDictionaryWithDefault
  3
ObjectDBX Classes
 90
        0
280
     0
281
     0
  0
CLASS
  1
VISUALSTYLE
  2
AcDbVisualStyle
  3
ObjectDBX Classes
 90
     4095
280
     0
281
     0
  0
CLASS
  1
MATERIAL
  2
AcDbMaterial
  3
ObjectDBX Classes
 90
     1153
280
     0
281
     0
  0
CLASS
  1
SCALE
  2
AcDbScale
  3
ObjectDBX Classes
 90
     1153
280
     0
281
     0
  0
CLASS
  1
TABLESTYLE
  2
AcDbTableStyle
  3
ObjectDBX Classes
 90
     4095
280
     0
281
     0
  0
CLASS
  1
MLEADERSTYLE
  2
AcDbMLeaderStyle
  3
ACDB_MLEADERSTYLE_CLASS
 90
     4095
280
     0
281
     0
  0
CLASS
  1
SUN
  2
AcDbSun
  3
SCENEOE
 90
     1153
280
     0
281
     0
  0
CLASS
  1
ACDBPLACEHOLDER
  2
AcDbPlaceHolder
  3
ObjectDBX Classes
 90
        0
280
     0
281
     0
  0
CLASS
  1
LAYOUT
  2
AcDbLayout
  3
ObjectDBX Classes
 90
        0
280
     0
281
     0
  0
ENDSEC
  0
SECTION
  2
TABLES
  0
TABLE
  2
VPORT
  5
8
330
0
100
AcDbSymbolTable
 70
     1
  0
VPORT
  5
29
330
8
100
AcDbSymbolTableRecord
100
AcDbViewportTableRecord
  2
*Active
 70
     0
 10
0.0
 20
0.0
 11
1.0
 21
1.0
 12
10.429907
 22
4.5
 13
0.0
 23
0.0
 14
0.5
 24
0.5
 15
0.5
 25
0.5
 16
0.0
 26
0.0
 36
1.0
 17
0.0
 27
0.0
 37
0.0
 40
9.0
 41
1.972973
 42
50.0
 43
0.0
 44
0.0
 50
0.0
 51
0.0
 71
     0
 72
   100
 73
     1
 74
     3
 75
     0
 76
     0
 77
     0
 78
     0
281
     0
 65
     1
110
0.0
120
0.0
130
0.0
111
1.0
121
0.0
131
0.0
112
0.0
122
1.0
132
0.0
 79
     0
146
0.0
  0
ENDTAB
  0
TABLE
  2
LTYPE
  5
5
330
0
100
AcDbSymbolTable
 70
     2
  0
LTYPE
  5
14
330
5
100
AcDbSymbolTableRecord
100
AcDbLinetypeTableRecord
  2
ByBlock
 70
     0
  3

 72
    65
 73
     0
 40
0.0
  0
LTYPE
  5
15
330
5
100
AcDbSymbolTableRecord
100
AcDbLinetypeTableRecord
  2
ByLayer
 70
     0
  3

 72
    65
 73
     0
 40
0.0
  0
LTYPE
  5
16
330
5
100
AcDbSymbolTableRecord
100
AcDbLinetypeTableRecord
  2
Continuous
 70
     0
  3
Solid line
 72
    65
 73
     0
 40
0.0
  0
LTYPE
  5
6E
330
5
100
AcDbSymbolTableRecord
100
AcDbLinetypeTableRecord
  2
DASHDOT
 70
     0
  3
 __ . __ . __ . __ . __ . __ . __ . 
 72
    65
 73
     4
 40
18.5
 49
12.0
 74
     0
 49
-3.0
 74
     0
 49
0.5
 74
     0
 49
-3.0
 74
     0
  0
ENDTAB
  0
TABLE
  2
LAYER
  5
2
330
0
100
AcDbSymbolTable
 70
     1
  0
LAYER
  5
10
330
2
100
AcDbSymbolTableRecord
100
AcDbLayerTableRecord
  2
0
 70
     0
 62
     7
  6
Continuous
370
    -3
390
F
  0
ENDTAB
  0
TABLE
  2
STYLE
  5
3
330
0
100
AcDbSymbolTable
 70
     1
  0
STYLE
  5
11
330
3
100
AcDbSymbolTableRecord
100
AcDbTextStyleTableRecord
  2
Standard
 70
     0
 40
0.0
 41
1.0
 50
0.0
 71
     0
 42
2.5
  3
txt
  4

  0
ENDTAB
  0
TABLE
  2
VIEW
  5
6
330
0
100
AcDbSymbolTable
 70
     0
  0
ENDTAB
  0
TABLE
  2
UCS
  5
7
330
0
100
AcDbSymbolTable
 70
     0
  0
ENDTAB
  0
TABLE
  2
APPID
  5
9
330
0
100
AcDbSymbolTable
 70
     1
  0
APPID
  5
12
330
9
100
AcDbSymbolTableRecord
100
AcDbRegAppTableRecord
  2
ACAD
 70
     0
  0
ENDTAB
  0
TABLE
  2
DIMSTYLE
  5
A
330
0
100
AcDbSymbolTable
 70
     1
100
AcDbDimStyleTable
  0
DIMSTYLE
105
27
330
A
100
AcDbSymbolTableRecord
100
AcDbDimStyleTableRecord
  2
Standard
 70
     0
178
     0
340
11
  0
ENDTAB
  0
TABLE
  2
BLOCK_RECORD
  5
1
330
0
100
AcDbSymbolTable
 70
     1
  0
BLOCK_RECORD
  5
1F
330
1
100
AcDbSymbolTableRecord
100
AcDbBlockTableRecord
  2
*Model_Space
340
22
  0
BLOCK_RECORD
  5
1B
330
1
100
AcDbSymbolTableRecord
100
AcDbBlockTableRecord
  2
*Paper_Space
340
1E
  0
BLOCK_RECORD
  5
23
330
1
100
AcDbSymbolTableRecord
100
AcDbBlockTableRecord
  2
*Paper_Space0
340
26
  0
ENDTAB
  0
ENDSEC
  0
SECTION
  2
BLOCKS
  0
BLOCK
  5
20
330
1F
100
AcDbEntity
  8
0
100
AcDbBlockBegin
  2
*Model_Space
 70
     0
 10
0.0
 20
0.0
 30
0.0
  3
*Model_Space
  1

  0
ENDBLK
  5
21
330
1F
100
AcDbEntity
  8
0
100
AcDbBlockEnd
  0
BLOCK
  5
1C
330
1B
100
AcDbEntity
 67
     1
  8
0
100
AcDbBlockBegin
  2
*Paper_Space
 70
     0
 10
0.0
 20
0.0
 30
0.0
  3
*Paper_Space
  1

  0
ENDBLK
  5
1D
330
1B
100
AcDbEntity
 67
     1
  8
0
100
AcDbBlockEnd
  0
BLOCK
  5
24
330
23
100
AcDbEntity
  8
0
100
AcDbBlockBegin
  2
*Paper_Space0
 70
     0
 10
0.0
 20
0.0
 30
0.0
  3
*Paper_Space0
  1

  0
ENDBLK
  5
25
330
23
100
AcDbEntity
  8
0
100
AcDbBlockEnd
  0
ENDSEC
  0
SECTION
  2
ENTITIES
  0
LINE
  5
6F
330
1F
100
AcDbEntity
  8
0
  6
DASHDOT
 62
     7
 48
0.079918
370
    13
100
AcDbLine
 10
76.598351
 20
147.25
 30
0.0
 11
73.401649
 21
147.25
 31
0.0
  0
LINE
  5
70
330
1F
100
AcDbEntity
  8
0
  6
DASHDOT
 62
     7
 48
0.079917
370
    13
100
AcDbLine
 10
75.0
 20
148.848343
 30
0.0
 11
75.0
 21
145.651657
 31
0.0
  0
ARC
  5
71
330
1F
100
AcDbEntity
  8
0
 62
     7
370
    13
100
AcDbCircle
 10
75.0
 20
147.25
 30
0.0
 40
1.5
100
AcDbArc
 50
169.999993
 51
100.000014
  0
LINE
  5
72
330
1F
100
AcDbEntity
  8
0
  6
DASHDOT
 62
     7
 48
0.079918
370
    13
100
AcDbLine
 10
76.598351
 20
154.75
 30
0.0
 11
73.401649
 21
154.75
 31
0.0
  0
LINE
  5
73
330
1F
100
AcDbEntity
  8
0
  6
DASHDOT
 62
     7
 48
0.079917
370
    13
100
AcDbLine
 10
75.0
 20
156.348343
 30
0.0
 11
75.0
 21
153.151657
 31
0.0
  0
ARC
  5
74
330
1F
100
AcDbEntity
  8
0
 62
     7
370
    13
100
AcDbCircle
 10
75.0
 20
154.75
 30
0.0
 40
1.5
100
AcDbArc
 50
169.999993
 51
100.000014
  0
LINE
  5
75
330
1F
100
AcDbEntity
  8
0
  6
DASHDOT
 62
     7
 48
0.110614
370
    13
100
AcDbLine
 10
237.182755
 20
164.640915
 30
0.0
 11
232.758179
 21
164.640915
 31
0.0
  0
LINE
  5
76
330
1F
100
AcDbEntity
  8
0
  6
DASHDOT
 62
     7
 48
0.110614
370
    13
100
AcDbLine
 10
234.970459
 20
166.85321
 30
0.0
 11
234.970459
 21
162.428635
 31
0.0
  0
LINE
  5
77
330
1F
100
AcDbEntity
  8
0
  6
DASHDOT
 62
     7
 48
0.110614
370
    13
100
AcDbLine
 10
242.533997
 20
156.548798
 30
0.0
 11
238.109421
 21
156.548798
 31
0.0
  0
LINE
  5
78
330
1F
100
AcDbEntity
  8
0
  6
DASHDOT
 62
     7
 48
0.110614
370
    13
100
AcDbLine
 10
240.321701
 20
158.761078
 30
0.0
 11
240.321701
 21
154.336502
 31
0.0
  0
LINE
  5
79
330
1F
100
AcDbEntity
  8
0
  6
DASHDOT
 62
     7
 48
0.110614
370
    13
100
AcDbLine
 10
227.524399
 20
164.640915
 30
0.0
 11
223.099823
 21
164.640915
 31
0.0
  0
LINE
  5
7A
330
1F
100
AcDbEntity
  8
0
  6
DASHDOT
 62
     7
 48
0.110614
370
    13
100
AcDbLine
 10
225.312103
 20
166.85321
 30
0.0
 11
225.312103
 21
162.428635
 31
0.0
  0
LINE
  5
7B
330
1F
100
AcDbEntity
  8
0
  6
DASHDOT
 62
     7
 48
0.110614
370
    13
100
AcDbLine
 10
232.875641
 20
156.548798
 30
0.0
 11
228.451065
 21
156.548798
 31
0.0
  0
LINE
  5
7C
330
1F
100
AcDbEntity
  8
0
  6
DASHDOT
 62
     7
 48
0.110614
370
    13
100
AcDbLine
 10
230.663345
 20
158.761078
 30
0.0
 11
230.663345
 21
154.336502
 31
0.0
  0
LINE
  5
7D
330
1F
100
AcDbEntity
  8
0
  6
DASHDOT
 62
     7
 48
0.110614
370
    13
100
AcDbLine
 10
217.866043
 20
164.640915
 30
0.0
 11
213.441467
 21
164.640915
 31
0.0
  0
LINE
  5
7E
330
1F
100
AcDbEntity
  8
0
  6
DASHDOT
 62
     7
 48
0.110614
370
    13
100
AcDbLine
 10
215.653748
 20
166.85321
 30
0.0
 11
215.653748
 21
162.428635
 31
0.0
  0
LINE
  5
7F
330
1F
100
AcDbEntity
  8
0
  6
DASHDOT
 62
     7
 48
0.110614
370
    13
100
AcDbLine
 10
223.217285
 20
156.548798
 30
0.0
 11
218.792709
 21
156.548798
 31
0.0
  0
LINE
  5
80
330
1F
100
AcDbEntity
  8
0
  6
DASHDOT
 62
     7
 48
0.110614
370
    13
100
AcDbLine
 10
221.00499
 20
158.761078
 30
0.0
 11
221.00499
 21
154.336502
 31
0.0
  0
LINE
  5
81
330
1F
100
AcDbEntity
  8
0
  6
DASHDOT
 62
     7
 48
0.110614
370
    13
100
AcDbLine
 10
208.207687
 20
164.640915
 30
0.0
 11
203.783112
 21
164.640915
 31
0.0
  0
LINE
  5
82
330
1F
100
AcDbEntity
  8
0
  6
DASHDOT
 62
     7
 48
0.110614
370
    13
100
AcDbLine
 10
205.995392
 20
166.85321
 30
0.0
 11
205.995392
 21
162.428635
 31
0.0
  0
LINE
  5
83
330
1F
100
AcDbEntity
  8
0
  6
DASHDOT
 62
     7
 48
0.110614
370
    13
100
AcDbLine
 10
213.558929
 20
156.548798
 30
0.0
 11
209.134354
 21
156.548798
 31
0.0
  0
LINE
  5
84
330
1F
100
AcDbEntity
  8
0
  6
DASHDOT
 62
     7
 48
0.110614
370
    13
100
AcDbLine
 10
211.346634
 20
158.761078
 30
0.0
 11
211.346634
 21
154.336502
 31
0.0
  0
LINE
  5
85
330
1F
100
AcDbEntity
  8
0
  6
DASHDOT
 62
     7
 48
0.110614
370
    13
100
AcDbLine
 10
198.549316
 20
164.640915
 30
0.0
 11
194.124756
 21
164.640915
 31
0.0
  0
LINE
  5
86
330
1F
100
AcDbEntity
  8
0
  6
DASHDOT
 62
     7
 48
0.110614
370
    13
100
AcDbLine
 10
196.337036
 20
166.85321
 30
0.0
 11
196.337036
 21
162.428635
 31
0.0
  0
LINE
  5
87
330
1F
100
AcDbEntity
  8
0
  6
DASHDOT
 62
     7
 48
0.110614
370
    13
100
AcDbLine
 10
203.900574
 20
156.548798
 30
0.0
 11
199.475998
 21
156.548798
 31
0.0
  0
LINE
  5
88
330
1F
100
AcDbEntity
  8
0
  6
DASHDOT
 62
     7
 48
0.110614
370
    13
100
AcDbLine
 10
201.688293
 20
158.761078
 30
0.0
 11
201.688293
 21
154.336502
 31
0.0
  0
LINE
  5
89
330
1F
100
AcDbEntity
  8
0
  6
DASHDOT
 62
     7
 48
0.110614
370
    13
100
AcDbLine
 10
188.890961
 20
164.640915
 30
0.0
 11
184.4664
 21
164.640915
 31
0.0
  0
LINE
  5
8A
330
1F
100
AcDbEntity
  8
0
  6
DASHDOT
 62
     7
 48
0.110614
370
    13
100
AcDbLine
 10
186.67868
 20
166.85321
 30
0.0
 11
186.67868
 21
162.428635
 31
0.0
  0
LINE
  5
8B
330
1F
100
AcDbEntity
  8
0
  6
DASHDOT
 62
     7
 48
0.110614
370
    13
100
AcDbLine
 10
194.242218
 20
156.548798
 30
0.0
 11
189.817642
 21
156.548798
 31
0.0
  0
LINE
  5
8C
330
1F
100
AcDbEntity
  8
0
  6
DASHDOT
 62
     7
 48
0.110614
370
    13
100
AcDbLine
 10
192.029938
 20
158.761078
 30
0.0
 11
192.029938
 21
154.336502
 31
0.0
  0
LINE
  5
8D
330
1F
100
AcDbEntity
  8
0
  6
DASHDOT
 62
     7
 48
0.13
370
    13
100
AcDbLine
 10
112.599998
 20
177.25
 30
0.0
 11
107.400002
 21
177.25
 31
0.0
  0
LINE
  5
8E
330
1F
100
AcDbEntity
  8
0
  6
DASHDOT
 62
     7
 48
0.13
370
    13
100
AcDbLine
 10
110.0
 20
179.850006
 30
0.0
 11
110.0
 21
174.649994
 31
0.0
  0
LINE
  5
8F
330
1F
100
AcDbEntity
  8
0
  6
DASHDOT
 62
     7
 48
0.13
370
    13
100
AcDbLine
 10
172.600006
 20
177.25
 30
0.0
 11
167.399994
 21
177.25
 31
0.0
  0
LINE
  5
90
330
1F
100
AcDbEntity
  8
0
  6
DASHDOT
 62
     7
 48
0.13
370
    13
100
AcDbLine
 10
170.0
 20
179.850006
 30
0.0
 11
170.0
 21
174.649994
 31
0.0
  0
LINE
  5
91
330
1F
100
AcDbEntity
  8
0
  6
DASHDOT
 62
     7
 48
0.30875
370
    13
100
AcDbLine
 10
261.174988
 20
160.75
 30
0.0
 11
248.824997
 21
160.75
 31
0.0
  0
LINE
  5
92
330
1F
100
AcDbEntity
  8
0
  6
DASHDOT
 62
     7
 48
0.30875
370
    13
100
AcDbLine
 10
255.0
 20
166.925003
 30
0.0
 11
255.0
 21
154.574997
 31
0.0
  0
LINE
  5
93
330
1F
100
AcDbEntity
  8
0
  6
DASHDOT
 62
     7
 48
0.308749
370
    13
100
AcDbLine
 10
351.174988
 20
160.75
 30
0.0
 11
338.825012
 21
160.75
 31
0.0
  0
LINE
  5
94
330
1F
100
AcDbEntity
  8
0
  6
DASHDOT
 62
     7
 48
0.30875
370
    13
100
AcDbLine
 10
345.0
 20
166.925003
 30
0.0
 11
345.0
 21
154.574997
 31
0.0
  0
LINE
  5
95
330
1F
100
AcDbEntity
  8
0
  6
DASHDOT
 62
     7
 48
0.21125
370
    13
100
AcDbLine
 10
364.225006
 20
160.75
 30
0.0
 11
355.774994
 21
160.75
 31
0.0
  0
LINE
  5
96
330
1F
100
AcDbEntity
  8
0
  6
DASHDOT
 62
     7
 48
0.21125
370
    13
100
AcDbLine
 10
360.0
 20
164.975006
 30
0.0
 11
360.0
 21
156.524994
 31
0.0
  0
LINE
  5
97
330
1F
100
AcDbEntity
  8
0
  6
DASHDOT
 62
     7
 48
0.21125
370
    13
100
AcDbLine
 10
374.225006
 20
160.75
 30
0.0
 11
365.774994
 21
160.75
 31
0.0
  0
LINE
  5
98
330
1F
100
AcDbEntity
  8
0
  6
DASHDOT
 62
     7
 48
0.21125
370
    13
100
AcDbLine
 10
370.0
 20
164.975006
 30
0.0
 11
370.0
 21
156.524994
 31
0.0
  0
LINE
  5
99
330
1F
100
AcDbEntity
  8
0
  6
DASHDOT
 62
     7
 48
0.325
370
    13
100
AcDbLine
 10
41.5
 20
144.912827
 30
0.0
 11
28.5
 21
144.912827
 31
0.0
  0
LINE
  5
9A
330
1F
100
AcDbEntity
  8
0
  6
DASHDOT
 62
     7
 48
0.325
370
    13
100
AcDbLine
 10
35.0
 20
151.412827
 30
0.0
 11
35.0
 21
138.412827
 31
0.0
  0
LINE
  5
9B
330
1F
100
AcDbEntity
  8
0
  6
DASHDOT
 62
     7
 48
0.3575
370
    13
100
AcDbLine
 10
162.149994
 20
130.75
 30
0.0
 11
147.850006
 21
130.75
 31
0.0
  0
LINE
  5
9C
330
1F
100
AcDbEntity
  8
0
  6
DASHDOT
 62
     7
 48
0.3575
370
    13
100
AcDbLine
 10
155.0
 20
137.899994
 30
0.0
 11
155.0
 21
123.599998
 31
0.0
  0
LINE
  5
9D
330
1F
100
AcDbEntity
  8
0
  6
DASHDOT
 62
     7
370
    13
100
AcDbLine
 10
399.5
 20
160.75
 30
0.0
 11
360.5
 21
160.75
 31
0.0
  0
LINE
  5
9E
330
1F
100
AcDbEntity
  8
0
  6
DASHDOT
 62
     7
370
    13
100
AcDbLine
 10
380.0
 20
180.25
 30
0.0
 11
380.0
 21
141.25
 31
0.0
  0
LINE
  5
9F
330
1F
100
AcDbEntity
  8
0
  6
DASHDOT
 62
     7
 48
0.26
370
    13
100
AcDbLine
 10
80.199997
 20
124.75
 30
0.0
 11
69.800003
 21
124.75
 31
0.0
  0
LINE
  5
A0
330
1F
100
AcDbEntity
  8
0
  6
DASHDOT
 62
     7
 48
0.26
370
    13
100
AcDbLine
 10
75.0
 20
129.949997
 30
0.0
 11
75.0
 21
119.550003
 31
0.0
  0
POLYLINE
  5
A1
330
1F
100
AcDbEntity
  8
0
 62
     7
370
    13
100
AcDb2dPolyline
 66
     1
 10
0.0
 20
0.0
 30
0.0
 70
     1
  0
VERTEX
  5
A2
330
A1
100
AcDbEntity
  8
0
370
     0
100
AcDbVertex
100
AcDb2dVertex
 10
266.484161
 20
107.893372
 30
0.0
  0
VERTEX
  5
A3
330
A1
100
AcDbEntity
  8
0
370
     0
100
AcDbVertex
100
AcDb2dVertex
 10
266.953156
 20
107.893372
 30
0.0
  0
VERTEX
  5
A4
330
A1
100
AcDbEntity
  8
0
370
     0
100
AcDbVertex
100
AcDb2dVertex
 10
266.953156
 20
109.502159
 30
0.0
  0
VERTEX
  5
A5
330
A1
100
AcDbEntity
  8
0
370
     0
100
AcDbVertex
100
AcDb2dVertex
 10
268.425781
 20
109.502159
 30
0.0
  0
VERTEX
  5
A6
330
A1
100
AcDbEntity
  8
0
370
     0
100
AcDbVertex
100
AcDb2dVertex
 10
268.425781
 20
109.920746
 30
0.0
  0
VERTEX
  5
A7
330
A1
100
AcDbEntity
  8
0
370
     0
100
AcDbVertex
100
AcDb2dVertex
 10
266.953156
 20
109.920746
 30
0.0
  0
VERTEX
  5
A8
330
A1
100
AcDbEntity
  8
0
370
     0
100
AcDbVertex
100
AcDb2dVertex
 10
266.953156
 20
110.969742
 30
0.0
  0
VERTEX
  5
A9
330
A1
100
AcDbEntity
  8
0
370
     0
100
AcDbVertex
100
AcDb2dVertex
 10
268.763702
 20
110.969742
 30
0.0
  0
VERTEX
  5
AA
330
A1
100
AcDbEntity
  8
0
370
     0
100
AcDbVertex
100
AcDb2dVertex
 10
268.763702
 20
111.393372
 30
0.0
  0
VERTEX
  5
AB
330
A1
100
AcDbEntity
  8
0
370
     0
100
AcDbVertex
100
AcDb2dVertex
 10
266.484161
 20
111.393372
 30
0.0
  0
SEQEND
  5
AC
330
A1
100
AcDbEntity
  8
0
 62
     7
370
    13
  0
POLYLINE
  5
AD
330
1F
100
AcDbEntity
  8
0
 62
     7
370
    13
100
AcDb2dPolyline
 66
     1
 10
0.0
 20
0.0
 30
0.0
 70
     1
  0
VERTEX
  5
AE
330
AD
100
AcDbEntity
  8
0
370
     0
100
AcDbVertex
100
AcDb2dVertex
 10
269.020905
 20
107.893372
 30
0.0
  0
VERTEX
  5
AF
330
AD
100
AcDbEntity
  8
0
370
     0
100
AcDbVertex
100
AcDb2dVertex
 10
269.484863
 20
107.893372
 30
0.0
  0
VERTEX
  5
B0
330
AD
100
AcDbEntity
  8
0
370
     0
100
AcDbVertex
100
AcDb2dVertex
 10
269.853027
 20
108.922188
 30
0.0
  0
VERTEX
  5
B1
330
AD
100
AcDbEntity
  8
0
370
     0
100
AcDbVertex
100
AcDb2dVertex
 10
271.25
 20
108.922188
 30
0.0
  0
VERTEX
  5
B2
330
AD
100
AcDbEntity
  8
0
370
     0
100
AcDbVertex
100
AcDb2dVertex
 10
271.618164
 20
107.893372
 30
0.0
  0
VERTEX
  5
B3
330
AD
100
AcDbEntity
  8
0
370
     0
100
AcDbVertex
100
AcDb2dVertex
 10
272.092224
 20
107.893372
 30
0.0
  0
VERTEX
  5
B4
330
AD
100
AcDbEntity
  8
0
370
     0
100
AcDbVertex
100
AcDb2dVertex
 10
270.811249
 20
111.398415
 30
0.0
  0
VERTEX
  5
B5
330
AD
100
AcDbEntity
  8
0
370
     0
100
AcDbVertex
100
AcDb2dVertex
 10
270.296844
 20
111.398415
 30
0.0
  0
SEQEND
  5
B6
330
AD
100
AcDbEntity
  8
0
 62
     7
370
    13
  0
POLYLINE
  5
B7
330
1F
100
AcDbEntity
  8
0
 62
     7
370
    13
100
AcDb2dPolyline
 66
     1
 10
0.0
 20
0.0
 30
0.0
 70
     1
  0
VERTEX
  5
B8
330
B7
100
AcDbEntity
  8
0
370
     0
100
AcDbVertex
100
AcDb2dVertex
 10
270.014404
 20
109.350861
 30
0.0
  0
VERTEX
  5
B9
330
B7
100
AcDbEntity
  8
0
370
     0
100
AcDbVertex
100
AcDb2dVertex
 10
270.554047
 20
110.894089
 30
0.0
  0
VERTEX
  5
BA
330
B7
100
AcDbEntity
  8
0
370
     0
100
AcDbVertex
100
AcDb2dVertex
 10
271.093658
 20
109.350861
 30
0.0
  0
SEQEND
  5
BB
330
B7
100
AcDbEntity
  8
0
 62
     7
370
    13
  0
POLYLINE
  5
BC
330
1F
100
AcDbEntity
  8
0
 62
     7
370
    13
100
AcDb2dPolyline
 66
     1
 10
0.0
 20
0.0
 30
0.0
 70
     1
  0
VERTEX
  5
BD
330
BC
100
AcDbEntity
  8
0
370
     0
100
AcDbVertex
100
AcDb2dVertex
 10
274.220459
 20
109.784584
 30
0.0
  0
VERTEX
  5
BE
330
BC
100
AcDbEntity
  8
0
370
     0
100
AcDbVertex
100
AcDb2dVertex
 10
274.573486
 20
110.077087
 30
0.0
  0
VERTEX
  5
BF
330
BC
100
AcDbEntity
  8
0
370
     0
100
AcDbVertex
100
AcDb2dVertex
 10
274.664276
 20
110.273773
 30
0.0
  0
VERTEX
  5
C0
330
BC
100
AcDbEntity
  8
0
370
     0
100
AcDbVertex
100
AcDb2dVertex
 10
274.694519
 20
110.515854
 30
0.0
  0
VERTEX
  5
C1
330
BC
100
AcDbEntity
  8
0
370
     0
100
AcDbVertex
100
AcDb2dVertex
 10
274.628967
 20
110.894089
 30
0.0
  0
VERTEX
  5
C2
330
BC
100
AcDbEntity
  8
0
370
     0
100
AcDbVertex
100
AcDb2dVertex
 10
274.432281
 20
111.166428
 30
0.0
  0
VERTEX
  5
C3
330
BC
100
AcDbEntity
  8
0
370
     0
100
AcDbVertex
100
AcDb2dVertex
 10
274.114563
 20
111.332855
 30
0.0
  0
VERTEX
  5
C4
330
BC
100
AcDbEntity
  8
0
370
     0
100
AcDbVertex
100
AcDb2dVertex
 10
273.670746
 20
111.393372
 30
0.0
  0
VERTEX
  5
C5
330
BC
100
AcDbEntity
  8
0
370
     0
100
AcDbVertex
100
AcDb2dVertex
 10
272.425079
 20
111.393372
 30
0.0
  0
VERTEX
  5
C6
330
BC
100
AcDbEntity
  8
0
370
     0
100
AcDbVertex
100
AcDb2dVertex
 10
272.425079
 20
107.893372
 30
0.0
  0
VERTEX
  5
C7
330
BC
100
AcDbEntity
  8
0
370
     0
100
AcDbVertex
100
AcDb2dVertex
 10
273.741364
 20
107.893372
 30
0.0
  0
VERTEX
  5
C8
330
BC
100
AcDbEntity
  8
0
370
     0
100
AcDbVertex
100
AcDb2dVertex
 10
274.210388
 20
107.963974
 30
0.0
  0
VERTEX
  5
C9
330
BC
100
AcDbEntity
  8
0
370
     0
100
AcDbVertex
100
AcDb2dVertex
 10
274.55835
 20
108.170746
 30
0.0
  0
VERTEX
  5
CA
330
BC
100
AcDbEntity
  8
0
370
     0
100
AcDbVertex
100
AcDb2dVertex
 10
274.775208
 20
108.498558
 30
0.0
  0
VERTEX
  5
CB
330
BC
100
AcDbEntity
  8
0
370
     0
100
AcDbVertex
100
AcDb2dVertex
 10
274.850861
 20
108.94236
 30
0.0
  0
VERTEX
  5
CC
330
BC
100
AcDbEntity
  8
0
370
     0
100
AcDbVertex
100
AcDb2dVertex
 10
274.805481
 20
109.239914
 30
0.0
  0
VERTEX
  5
CD
330
BC
100
AcDbEntity
  8
0
370
     0
100
AcDbVertex
100
AcDb2dVertex
 10
274.684448
 20
109.48703
 30
0.0
  0
VERTEX
  5
CE
330
BC
100
AcDbEntity
  8
0
370
     0
100
AcDbVertex
100
AcDb2dVertex
 10
274.487762
 20
109.668587
 30
0.0
  0
SEQEND
  5
CF
330
BC
100
AcDbEntity
  8
0
 62
     7
370
    13
  0
POLYLINE
  5
D0
330
1F
100
AcDbEntity
  8
0
 62
     7
370
    13
100
AcDb2dPolyline
 66
     1
 10
0.0
 20
0.0
 30
0.0
 70
     1
  0
VERTEX
  5
D1
330
D0
100
AcDbEntity
  8
0
370
     0
100
AcDbVertex
100
AcDb2dVertex
 10
273.574921
 20
109.940926
 30
0.0
  0
VERTEX
  5
D2
330
D0
100
AcDbEntity
  8
0
370
     0
100
AcDbVertex
100
AcDb2dVertex
 10
272.889038
 20
109.940926
 30
0.0
  0
VERTEX
  5
D3
330
D0
100
AcDbEntity
  8
0
370
     0
100
AcDbVertex
100
AcDb2dVertex
 10
272.889038
 20
110.974785
 30
0.0
  0
VERTEX
  5
D4
330
D0
100
AcDbEntity
  8
0
370
     0
100
AcDbVertex
100
AcDb2dVertex
 10
273.615265
 20
110.974785
 30
0.0
  0
VERTEX
  5
D5
330
D0
100
AcDbEntity
  8
0
370
     0
100
AcDbVertex
100
AcDb2dVertex
 10
273.887604
 20
110.944527
 30
0.0
  0
VERTEX
  5
D6
330
D0
100
AcDbEntity
  8
0
370
     0
100
AcDbVertex
100
AcDb2dVertex
 10
274.079254
 20
110.853745
 30
0.0
  0
VERTEX
  5
D7
330
D0
100
AcDbEntity
  8
0
370
     0
100
AcDbVertex
100
AcDb2dVertex
 10
274.195251
 20
110.697403
 30
0.0
  0
VERTEX
  5
D8
330
D0
100
AcDbEntity
  8
0
370
     0
100
AcDbVertex
100
AcDb2dVertex
 10
274.235596
 20
110.465416
 30
0.0
  0
VERTEX
  5
D9
330
D0
100
AcDbEntity
  8
0
370
     0
100
AcDbVertex
100
AcDb2dVertex
 10
274.190216
 20
110.233429
 30
0.0
  0
VERTEX
  5
DA
330
D0
100
AcDbEntity
  8
0
370
     0
100
AcDbVertex
100
AcDb2dVertex
 10
274.069153
 20
110.072044
 30
0.0
  0
VERTEX
  5
DB
330
D0
100
AcDbEntity
  8
0
370
     0
100
AcDbVertex
100
AcDb2dVertex
 10
273.862396
 20
109.971184
 30
0.0
  0
SEQEND
  5
DC
330
D0
100
AcDbEntity
  8
0
 62
     7
370
    13
  0
POLYLINE
  5
DD
330
1F
100
AcDbEntity
  8
0
 62
     7
370
    13
100
AcDb2dPolyline
 66
     1
 10
0.0
 20
0.0
 30
0.0
 70
     1
  0
VERTEX
  5
DE
330
DD
100
AcDbEntity
  8
0
370
     0
100
AcDbVertex
100
AcDb2dVertex
 10
273.685883
 20
108.311958
 30
0.0
  0
VERTEX
  5
DF
330
DD
100
AcDbEntity
  8
0
370
     0
100
AcDbVertex
100
AcDb2dVertex
 10
272.889038
 20
108.311958
 30
0.0
  0
VERTEX
  5
E0
330
DD
100
AcDbEntity
  8
0
370
     0
100
AcDbVertex
100
AcDb2dVertex
 10
272.889038
 20
109.517288
 30
0.0
  0
VERTEX
  5
E1
330
DD
100
AcDbEntity
  8
0
370
     0
100
AcDbVertex
100
AcDb2dVertex
 10
273.640503
 20
109.517288
 30
0.0
  0
VERTEX
  5
E2
330
DD
100
AcDbEntity
  8
0
370
     0
100
AcDbVertex
100
AcDb2dVertex
 10
273.958221
 20
109.481987
 30
0.0
  0
VERTEX
  5
E3
330
DD
100
AcDbEntity
  8
0
370
     0
100
AcDbVertex
100
AcDb2dVertex
 10
274.18515
 20
109.376083
 30
0.0
  0
VERTEX
  5
E4
330
DD
100
AcDbEntity
  8
0
370
     0
100
AcDbVertex
100
AcDb2dVertex
 10
274.32132
 20
109.194527
 30
0.0
  0
VERTEX
  5
E5
330
DD
100
AcDbEntity
  8
0
370
     0
100
AcDbVertex
100
AcDb2dVertex
 10
274.366699
 20
108.932274
 30
0.0
  0
VERTEX
  5
E6
330
DD
100
AcDbEntity
  8
0
370
     0
100
AcDbVertex
100
AcDb2dVertex
 10
274.32132
 20
108.6549
 30
0.0
  0
VERTEX
  5
E7
330
DD
100
AcDbEntity
  8
0
370
     0
100
AcDbVertex
100
AcDb2dVertex
 10
274.195251
 20
108.463257
 30
0.0
  0
VERTEX
  5
E8
330
DD
100
AcDbEntity
  8
0
370
     0
100
AcDbVertex
100
AcDb2dVertex
 10
273.983429
 20
108.34726
 30
0.0
  0
SEQEND
  5
E9
330
DD
100
AcDbEntity
  8
0
 62
     7
370
    13
  0
POLYLINE
  5
EA
330
1F
100
AcDbEntity
  8
0
 62
     7
370
    13
100
AcDb2dPolyline
 66
     1
 10
0.0
 20
0.0
 30
0.0
 70
     1
  0
VERTEX
  5
EB
330
EA
100
AcDbEntity
  8
0
370
     0
100
AcDbVertex
100
AcDb2dVertex
 10
275.501434
 20
107.893372
 30
0.0
  0
VERTEX
  5
EC
330
EA
100
AcDbEntity
  8
0
370
     0
100
AcDbVertex
100
AcDb2dVertex
 10
275.970459
 20
107.893372
 30
0.0
  0
VERTEX
  5
ED
330
EA
100
AcDbEntity
  8
0
370
     0
100
AcDbVertex
100
AcDb2dVertex
 10
275.970459
 20
109.37104
 30
0.0
  0
VERTEX
  5
EE
330
EA
100
AcDbEntity
  8
0
370
     0
100
AcDbVertex
100
AcDb2dVertex
 10
276.449554
 20
109.37104
 30
0.0
  0
VERTEX
  5
EF
330
EA
100
AcDbEntity
  8
0
370
     0
100
AcDbVertex
100
AcDb2dVertex
 10
276.802582
 20
109.355911
 30
0.0
  0
VERTEX
  5
F0
330
EA
100
AcDbEntity
  8
0
370
     0
100
AcDbVertex
100
AcDb2dVertex
 10
277.024506
 20
109.285301
 30
0.0
  0
VERTEX
  5
F1
330
EA
100
AcDbEntity
  8
0
370
     0
100
AcDbVertex
100
AcDb2dVertex
 10
277.145538
 20
109.118874
 30
0.0
  0
VERTEX
  5
F2
330
EA
100
AcDbEntity
  8
0
370
     0
100
AcDbVertex
100
AcDb2dVertex
 10
277.195953
 20
108.821327
 30
0.0
  0
VERTEX
  5
F3
330
EA
100
AcDbEntity
  8
0
370
     0
100
AcDbVertex
100
AcDb2dVertex
 10
277.221191
 20
108.367432
 30
0.0
  0
VERTEX
  5
F4
330
EA
100
AcDbEntity
  8
0
370
     0
100
AcDbVertex
100
AcDb2dVertex
 10
277.251434
 20
108.069885
 30
0.0
  0
VERTEX
  5
F5
330
EA
100
AcDbEntity
  8
0
370
     0
100
AcDbVertex
100
AcDb2dVertex
 10
277.311951
 20
107.893372
 30
0.0
  0
VERTEX
  5
F6
330
EA
100
AcDbEntity
  8
0
370
     0
100
AcDbVertex
100
AcDb2dVertex
 10
277.841492
 20
107.893372
 30
0.0
  0
VERTEX
  5
F7
330
EA
100
AcDbEntity
  8
0
370
     0
100
AcDbVertex
100
AcDb2dVertex
 10
277.841492
 20
107.989189
 30
0.0
  0
VERTEX
  5
F8
330
EA
100
AcDbEntity
  8
0
370
     0
100
AcDbVertex
100
AcDb2dVertex
 10
277.725494
 20
108.130402
 30
0.0
  0
VERTEX
  5
F9
330
EA
100
AcDbEntity
  8
0
370
     0
100
AcDbVertex
100
AcDb2dVertex
 10
277.68515
 20
108.392654
 30
0.0
  0
VERTEX
  5
FA
330
EA
100
AcDbEntity
  8
0
370
     0
100
AcDbVertex
100
AcDb2dVertex
 10
277.649841
 20
108.957489
 30
0.0
  0
VERTEX
  5
FB
330
EA
100
AcDbEntity
  8
0
370
     0
100
AcDbVertex
100
AcDb2dVertex
 10
277.564117
 20
109.376083
 30
0.0
  0
VERTEX
  5
FC
330
EA
100
AcDbEntity
  8
0
370
     0
100
AcDbVertex
100
AcDb2dVertex
 10
277.44812
 20
109.507202
 30
0.0
  0
VERTEX
  5
FD
330
EA
100
AcDbEntity
  8
0
370
     0
100
AcDbVertex
100
AcDb2dVertex
 10
277.266571
 20
109.603027
 30
0.0
  0
VERTEX
  5
FE
330
EA
100
AcDbEntity
  8
0
370
     0
100
AcDbVertex
100
AcDb2dVertex
 10
277.468292
 20
109.729103
 30
0.0
  0
VERTEX
  5
FF
330
EA
100
AcDbEntity
  8
0
370
     0
100
AcDbVertex
100
AcDb2dVertex
 10
277.609497
 20
109.905617
 30
0.0
  0
VERTEX
  5
100
330
EA
100
AcDbEntity
  8
0
370
     0
100
AcDbVertex
100
AcDb2dVertex
 10
277.700287
 20
110.127518
 30
0.0
  0
VERTEX
  5
101
330
EA
100
AcDbEntity
  8
0
370
     0
100
AcDbVertex
100
AcDb2dVertex
 10
277.73056
 20
110.394814
 30
0.0
  0
VERTEX
  5
102
330
EA
100
AcDbEntity
  8
0
370
     0
100
AcDbVertex
100
AcDb2dVertex
 10
277.659943
 20
110.818443
 30
0.0
  0
VERTEX
  5
103
330
EA
100
AcDbEntity
  8
0
370
     0
100
AcDbVertex
100
AcDb2dVertex
 10
277.458221
 20
111.136169
 30
0.0
  0
VERTEX
  5
104
330
EA
100
AcDbEntity
  8
0
370
     0
100
AcDbVertex
100
AcDb2dVertex
 10
277.125366
 20
111.327812
 30
0.0
  0
VERTEX
  5
105
330
EA
100
AcDbEntity
  8
0
370
     0
100
AcDbVertex
100
AcDb2dVertex
 10
276.671478
 20
111.393372
 30
0.0
  0
VERTEX
  5
106
330
EA
100
AcDbEntity
  8
0
370
     0
100
AcDbVertex
100
AcDb2dVertex
 10
275.501434
 20
111.393372
 30
0.0
  0
SEQEND
  5
107
330
EA
100
AcDbEntity
  8
0
 62
     7
370
    13
  0
POLYLINE
  5
108
330
1F
100
AcDbEntity
  8
0
 62
     7
370
    13
100
AcDb2dPolyline
 66
     1
 10
0.0
 20
0.0
 30
0.0
 70
     1
  0
VERTEX
  5
109
330
108
100
AcDbEntity
  8
0
370
     0
100
AcDbVertex
100
AcDb2dVertex
 10
276.540344
 20
110.964699
 30
0.0
  0
VERTEX
  5
10A
330
108
100
AcDbEntity
  8
0
370
     0
100
AcDbVertex
100
AcDb2dVertex
 10
276.847992
 20
110.934441
 30
0.0
  0
VERTEX
  5
10B
330
108
100
AcDbEntity
  8
0
370
     0
100
AcDbVertex
100
AcDb2dVertex
 10
277.06485
 20
110.838615
 30
0.0
  0
VERTEX
  5
10C
330
108
100
AcDbEntity
  8
0
370
     0
100
AcDbVertex
100
AcDb2dVertex
 10
277.201019
 20
110.662102
 30
0.0
  0
VERTEX
  5
10D
330
108
100
AcDbEntity
  8
0
370
     0
100
AcDbVertex
100
AcDb2dVertex
 10
277.246399
 20
110.384727
 30
0.0
  0
VERTEX
  5
10E
330
108
100
AcDbEntity
  8
0
370
     0
100
AcDbVertex
100
AcDb2dVertex
 10
277.195953
 20
110.092216
 30
0.0
  0
VERTEX
  5
10F
330
108
100
AcDbEntity
  8
0
370
     0
100
AcDbVertex
100
AcDb2dVertex
 10
277.059784
 20
109.915703
 30
0.0
  0
VERTEX
  5
110
330
108
100
AcDbEntity
  8
0
370
     0
100
AcDbVertex
100
AcDb2dVertex
 10
276.82782
 20
109.824928
 30
0.0
  0
VERTEX
  5
111
330
108
100
AcDbEntity
  8
0
370
     0
100
AcDbVertex
100
AcDb2dVertex
 10
276.510101
 20
109.799713
 30
0.0
  0
VERTEX
  5
112
330
108
100
AcDbEntity
  8
0
370
     0
100
AcDbVertex
100
AcDb2dVertex
 10
275.970459
 20
109.799713
 30
0.0
  0
VERTEX
  5
113
330
108
100
AcDbEntity
  8
0
370
     0
100
AcDbVertex
100
AcDb2dVertex
 10
275.970459
 20
110.964699
 30
0.0
  0
SEQEND
  5
114
330
108
100
AcDbEntity
  8
0
 62
     7
370
    13
  0
POLYLINE
  5
115
330
1F
100
AcDbEntity
  8
0
 62
     7
370
    13
100
AcDb2dPolyline
 66
     1
 10
0.0
 20
0.0
 30
0.0
 70
     1
  0
VERTEX
  5
116
330
115
100
AcDbEntity
  8
0
370
     0
100
AcDbVertex
100
AcDb2dVertex
 10
279.430115
 20
108.317001
 30
0.0
  0
VERTEX
  5
117
330
115
100
AcDbEntity
  8
0
370
     0
100
AcDbVertex
100
AcDb2dVertex
 10
278.784576
 20
108.317001
 30
0.0
  0
VERTEX
  5
118
330
115
100
AcDbEntity
  8
0
370
     0
100
AcDbVertex
100
AcDb2dVertex
 10
278.784576
 20
107.893372
 30
0.0
  0
VERTEX
  5
119
330
115
100
AcDbEntity
  8
0
370
     0
100
AcDbVertex
100
AcDb2dVertex
 10
280.539612
 20
107.893372
 30
0.0
  0
VERTEX
  5
11A
330
115
100
AcDbEntity
  8
0
370
     0
100
AcDbVertex
100
AcDb2dVertex
 10
280.539612
 20
108.317001
 30
0.0
  0
VERTEX
  5
11B
330
115
100
AcDbEntity
  8
0
370
     0
100
AcDbVertex
100
AcDb2dVertex
 10
279.894104
 20
108.317001
 30
0.0
  0
VERTEX
  5
11C
330
115
100
AcDbEntity
  8
0
370
     0
100
AcDbVertex
100
AcDb2dVertex
 10
279.894104
 20
110.969742
 30
0.0
  0
VERTEX
  5
11D
330
115
100
AcDbEntity
  8
0
370
     0
100
AcDbVertex
100
AcDb2dVertex
 10
280.539612
 20
110.969742
 30
0.0
  0
VERTEX
  5
11E
330
115
100
AcDbEntity
  8
0
370
     0
100
AcDbVertex
100
AcDb2dVertex
 10
280.539612
 20
111.393372
 30
0.0
  0
VERTEX
  5
11F
330
115
100
AcDbEntity
  8
0
370
     0
100
AcDbVertex
100
AcDb2dVertex
 10
278.784576
 20
111.393372
 30
0.0
  0
VERTEX
  5
120
330
115
100
AcDbEntity
  8
0
370
     0
100
AcDbVertex
100
AcDb2dVertex
 10
278.784576
 20
110.969742
 30
0.0
  0
VERTEX
  5
121
330
115
100
AcDbEntity
  8
0
370
     0
100
AcDbVertex
100
AcDb2dVertex
 10
279.430115
 20
110.969742
 30
0.0
  0
SEQEND
  5
122
330
115
100
AcDbEntity
  8
0
 62
     7
370
    13
  0
POLYLINE
  5
123
330
1F
100
AcDbEntity
  8
0
 62
     7
370
    13
100
AcDb2dPolyline
 66
     1
 10
0.0
 20
0.0
 30
0.0
 70
     1
  0
VERTEX
  5
124
330
123
100
AcDbEntity
  8
0
370
     0
100
AcDbVertex
100
AcDb2dVertex
 10
283.515137
 20
109.194527
 30
0.0
  0
VERTEX
  5
125
330
123
100
AcDbEntity
  8
0
370
     0
100
AcDbVertex
100
AcDb2dVertex
 10
283.414276
 20
108.770897
 30
0.0
  0
VERTEX
  5
126
330
123
100
AcDbEntity
  8
0
370
     0
100
AcDbVertex
100
AcDb2dVertex
 10
283.247833
 20
108.4683
 30
0.0
  0
VERTEX
  5
127
330
123
100
AcDbEntity
  8
0
370
     0
100
AcDbVertex
100
AcDb2dVertex
 10
283.015839
 20
108.2817
 30
0.0
  0
VERTEX
  5
128
330
123
100
AcDbEntity
  8
0
370
     0
100
AcDbVertex
100
AcDb2dVertex
 10
282.74353
 20
108.221184
 30
0.0
  0
VERTEX
  5
129
330
123
100
AcDbEntity
  8
0
370
     0
100
AcDbVertex
100
AcDb2dVertex
 10
282.41571
 20
108.311958
 30
0.0
  0
VERTEX
  5
12A
330
123
100
AcDbEntity
  8
0
370
     0
100
AcDbVertex
100
AcDb2dVertex
 10
282.158508
 20
108.584297
 30
0.0
  0
VERTEX
  5
12B
330
123
100
AcDbEntity
  8
0
370
     0
100
AcDbVertex
100
AcDb2dVertex
 10
281.98703
 20
109.028099
 30
0.0
  0
VERTEX
  5
12C
330
123
100
AcDbEntity
  8
0
370
     0
100
AcDbVertex
100
AcDb2dVertex
 10
281.931549
 20
109.643372
 30
0.0
  0
VERTEX
  5
12D
330
123
100
AcDbEntity
  8
0
370
     0
100
AcDbVertex
100
AcDb2dVertex
 10
281.98703
 20
110.253601
 30
0.0
  0
VERTEX
  5
12E
330
123
100
AcDbEntity
  8
0
370
     0
100
AcDbVertex
100
AcDb2dVertex
 10
282.153473
 20
110.702446
 30
0.0
  0
VERTEX
  5
12F
330
123
100
AcDbEntity
  8
0
370
     0
100
AcDbVertex
100
AcDb2dVertex
 10
282.410675
 20
110.974785
 30
0.0
  0
VERTEX
  5
130
330
123
100
AcDbEntity
  8
0
370
     0
100
AcDbVertex
100
AcDb2dVertex
 10
282.74353
 20
111.070602
 30
0.0
  0
VERTEX
  5
131
330
123
100
AcDbEntity
  8
0
370
     0
100
AcDbVertex
100
AcDb2dVertex
 10
282.985596
 20
111.020172
 30
0.0
  0
VERTEX
  5
132
330
123
100
AcDbEntity
  8
0
370
     0
100
AcDbVertex
100
AcDb2dVertex
 10
283.192352
 20
110.87896
 30
0.0
  0
VERTEX
  5
133
330
123
100
AcDbEntity
  8
0
370
     0
100
AcDbVertex
100
AcDb2dVertex
 10
283.35376
 20
110.652016
 30
0.0
  0
VERTEX
  5
134
330
123
100
AcDbEntity
  8
0
370
     0
100
AcDbVertex
100
AcDb2dVertex
 10
283.464691
 20
110.33934
 30
0.0
  0
VERTEX
  5
135
330
123
100
AcDbEntity
  8
0
370
     0
100
AcDbVertex
100
AcDb2dVertex
 10
283.943817
 20
110.33934
 30
0.0
  0
VERTEX
  5
136
330
123
100
AcDbEntity
  8
0
370
     0
100
AcDbVertex
100
AcDb2dVertex
 10
283.792511
 20
110.818443
 30
0.0
  0
VERTEX
  5
137
330
123
100
AcDbEntity
  8
0
370
     0
100
AcDbVertex
100
AcDb2dVertex
 10
283.530273
 20
111.181557
 30
0.0
  0
VERTEX
  5
138
330
123
100
AcDbEntity
  8
0
370
     0
100
AcDbVertex
100
AcDb2dVertex
 10
283.17218
 20
111.408501
 30
0.0
  0
VERTEX
  5
139
330
123
100
AcDbEntity
  8
0
370
     0
100
AcDbVertex
100
AcDb2dVertex
 10
282.74353
 20
111.489197
 30
0.0
  0
VERTEX
  5
13A
330
123
100
AcDbEntity
  8
0
370
     0
100
AcDbVertex
100
AcDb2dVertex
 10
282.208923
 20
111.363113
 30
0.0
  0
VERTEX
  5
13B
330
123
100
AcDbEntity
  8
0
370
     0
100
AcDbVertex
100
AcDb2dVertex
 10
281.800446
 20
111.010086
 30
0.0
  0
VERTEX
  5
13C
330
123
100
AcDbEntity
  8
0
370
     0
100
AcDbVertex
100
AcDb2dVertex
 10
281.538177
 20
110.430115
 30
0.0
  0
VERTEX
  5
13D
330
123
100
AcDbEntity
  8
0
370
     0
100
AcDbVertex
100
AcDb2dVertex
 10
281.447418
 20
109.643372
 30
0.0
  0
VERTEX
  5
13E
330
123
100
AcDbEntity
  8
0
370
     0
100
AcDbVertex
100
AcDb2dVertex
 10
281.538177
 20
108.856628
 30
0.0
  0
VERTEX
  5
13F
330
123
100
AcDbEntity
  8
0
370
     0
100
AcDbVertex
100
AcDb2dVertex
 10
281.800446
 20
108.276657
 30
0.0
  0
VERTEX
  5
140
330
123
100
AcDbEntity
  8
0
370
     0
100
AcDbVertex
100
AcDb2dVertex
 10
282.208923
 20
107.918587
 30
0.0
  0
VERTEX
  5
141
330
123
100
AcDbEntity
  8
0
370
     0
100
AcDbVertex
100
AcDb2dVertex
 10
282.74353
 20
107.797554
 30
0.0
  0
VERTEX
  5
142
330
123
100
AcDbEntity
  8
0
370
     0
100
AcDbVertex
100
AcDb2dVertex
 10
283.212524
 20
107.893372
 30
0.0
  0
VERTEX
  5
143
330
123
100
AcDbEntity
  8
0
370
     0
100
AcDbVertex
100
AcDb2dVertex
 10
283.59079
 20
108.16066
 30
0.0
  0
VERTEX
  5
144
330
123
100
AcDbEntity
  8
0
370
     0
100
AcDbVertex
100
AcDb2dVertex
 10
283.858063
 20
108.599426
 30
0.0
  0
VERTEX
  5
145
330
123
100
AcDbEntity
  8
0
370
     0
100
AcDbVertex
100
AcDb2dVertex
 10
283.999268
 20
109.194527
 30
0.0
  0
SEQEND
  5
146
330
123
100
AcDbEntity
  8
0
 62
     7
370
    13
  0
POLYLINE
  5
147
330
1F
100
AcDbEntity
  8
0
 62
     7
370
    13
100
AcDb2dPolyline
 66
     1
 10
0.0
 20
0.0
 30
0.0
 70
     1
  0
VERTEX
  5
148
330
147
100
AcDbEntity
  8
0
370
     0
100
AcDbVertex
100
AcDb2dVertex
 10
284.201019
 20
107.893372
 30
0.0
  0
VERTEX
  5
149
330
147
100
AcDbEntity
  8
0
370
     0
100
AcDbVertex
100
AcDb2dVertex
 10
284.664978
 20
107.893372
 30
0.0
  0
VERTEX
  5
14A
330
147
100
AcDbEntity
  8
0
370
     0
100
AcDbVertex
100
AcDb2dVertex
 10
285.033142
 20
108.922188
 30
0.0
  0
VERTEX
  5
14B
330
147
100
AcDbEntity
  8
0
370
     0
100
AcDbVertex
100
AcDb2dVertex
 10
286.430115
 20
108.922188
 30
0.0
  0
VERTEX
  5
14C
330
147
100
AcDbEntity
  8
0
370
     0
100
AcDbVertex
100
AcDb2dVertex
 10
286.798279
 20
107.893372
 30
0.0
  0
VERTEX
  5
14D
330
147
100
AcDbEntity
  8
0
370
     0
100
AcDbVertex
100
AcDb2dVertex
 10
287.272339
 20
107.893372
 30
0.0
  0
VERTEX
  5
14E
330
147
100
AcDbEntity
  8
0
370
     0
100
AcDbVertex
100
AcDb2dVertex
 10
285.991364
 20
111.398415
 30
0.0
  0
VERTEX
  5
14F
330
147
100
AcDbEntity
  8
0
370
     0
100
AcDbVertex
100
AcDb2dVertex
 10
285.476959
 20
111.398415
 30
0.0
  0
SEQEND
  5
150
330
147
100
AcDbEntity
  8
0
 62
     7
370
    13
  0
POLYLINE
  5
151
330
1F
100
AcDbEntity
  8
0
 62
     7
370
    13
100
AcDb2dPolyline
 66
     1
 10
0.0
 20
0.0
 30
0.0
 70
     1
  0
VERTEX
  5
152
330
151
100
AcDbEntity
  8
0
370
     0
100
AcDbVertex
100
AcDb2dVertex
 10
285.194519
 20
109.350861
 30
0.0
  0
VERTEX
  5
153
330
151
100
AcDbEntity
  8
0
370
     0
100
AcDbVertex
100
AcDb2dVertex
 10
285.734161
 20
110.894089
 30
0.0
  0
VERTEX
  5
154
330
151
100
AcDbEntity
  8
0
370
     0
100
AcDbVertex
100
AcDb2dVertex
 10
286.273773
 20
109.350861
 30
0.0
  0
SEQEND
  5
155
330
151
100
AcDbEntity
  8
0
 62
     7
370
    13
  0
POLYLINE
  5
156
330
1F
100
AcDbEntity
  8
0
 62
     7
370
    13
100
AcDb2dPolyline
 66
     1
 10
0.0
 20
0.0
 30
0.0
 70
     1
  0
VERTEX
  5
157
330
156
100
AcDbEntity
  8
0
370
     0
100
AcDbVertex
100
AcDb2dVertex
 10
287.645538
 20
107.893372
 30
0.0
  0
VERTEX
  5
158
330
156
100
AcDbEntity
  8
0
370
     0
100
AcDbVertex
100
AcDb2dVertex
 10
288.114563
 20
107.893372
 30
0.0
  0
VERTEX
  5
159
330
156
100
AcDbEntity
  8
0
370
     0
100
AcDbVertex
100
AcDb2dVertex
 10
288.114563
 20
109.37104
 30
0.0
  0
VERTEX
  5
15A
330
156
100
AcDbEntity
  8
0
370
     0
100
AcDbVertex
100
AcDb2dVertex
 10
288.593658
 20
109.37104
 30
0.0
  0
VERTEX
  5
15B
330
156
100
AcDbEntity
  8
0
370
     0
100
AcDbVertex
100
AcDb2dVertex
 10
288.946686
 20
109.355911
 30
0.0
  0
VERTEX
  5
15C
330
156
100
AcDbEntity
  8
0
370
     0
100
AcDbVertex
100
AcDb2dVertex
 10
289.168579
 20
109.285301
 30
0.0
  0
VERTEX
  5
15D
330
156
100
AcDbEntity
  8
0
370
     0
100
AcDbVertex
100
AcDb2dVertex
 10
289.289612
 20
109.118874
 30
0.0
  0
VERTEX
  5
15E
330
156
100
AcDbEntity
  8
0
370
     0
100
AcDbVertex
100
AcDb2dVertex
 10
289.340057
 20
108.821327
 30
0.0
  0
VERTEX
  5
15F
330
156
100
AcDbEntity
  8
0
370
     0
100
AcDbVertex
100
AcDb2dVertex
 10
289.365265
 20
108.367432
 30
0.0
  0
VERTEX
  5
160
330
156
100
AcDbEntity
  8
0
370
     0
100
AcDbVertex
100
AcDb2dVertex
 10
289.395538
 20
108.069885
 30
0.0
  0
VERTEX
  5
161
330
156
100
AcDbEntity
  8
0
370
     0
100
AcDbVertex
100
AcDb2dVertex
 10
289.456055
 20
107.893372
 30
0.0
  0
VERTEX
  5
162
330
156
100
AcDbEntity
  8
0
370
     0
100
AcDbVertex
100
AcDb2dVertex
 10
289.985596
 20
107.893372
 30
0.0
  0
VERTEX
  5
163
330
156
100
AcDbEntity
  8
0
370
     0
100
AcDbVertex
100
AcDb2dVertex
 10
289.985596
 20
107.989189
 30
0.0
  0
VERTEX
  5
164
330
156
100
AcDbEntity
  8
0
370
     0
100
AcDbVertex
100
AcDb2dVertex
 10
289.869598
 20
108.130402
 30
0.0
  0
VERTEX
  5
165
330
156
100
AcDbEntity
  8
0
370
     0
100
AcDbVertex
100
AcDb2dVertex
 10
289.829254
 20
108.392654
 30
0.0
  0
VERTEX
  5
166
330
156
100
AcDbEntity
  8
0
370
     0
100
AcDbVertex
100
AcDb2dVertex
 10
289.793945
 20
108.957489
 30
0.0
  0
VERTEX
  5
167
330
156
100
AcDbEntity
  8
0
370
     0
100
AcDbVertex
100
AcDb2dVertex
 10
289.708221
 20
109.376083
 30
0.0
  0
VERTEX
  5
168
330
156
100
AcDbEntity
  8
0
370
     0
100
AcDbVertex
100
AcDb2dVertex
 10
289.592224
 20
109.507202
 30
0.0
  0
VERTEX
  5
169
330
156
100
AcDbEntity
  8
0
370
     0
100
AcDbVertex
100
AcDb2dVertex
 10
289.410675
 20
109.603027
 30
0.0
  0
VERTEX
  5
16A
330
156
100
AcDbEntity
  8
0
370
     0
100
AcDbVertex
100
AcDb2dVertex
 10
289.612396
 20
109.729103
 30
0.0
  0
VERTEX
  5
16B
330
156
100
AcDbEntity
  8
0
370
     0
100
AcDbVertex
100
AcDb2dVertex
 10
289.753601
 20
109.905617
 30
0.0
  0
VERTEX
  5
16C
330
156
100
AcDbEntity
  8
0
370
     0
100
AcDbVertex
100
AcDb2dVertex
 10
289.844391
 20
110.127518
 30
0.0
  0
VERTEX
  5
16D
330
156
100
AcDbEntity
  8
0
370
     0
100
AcDbVertex
100
AcDb2dVertex
 10
289.874634
 20
110.394814
 30
0.0
  0
VERTEX
  5
16E
330
156
100
AcDbEntity
  8
0
370
     0
100
AcDbVertex
100
AcDb2dVertex
 10
289.804047
 20
110.818443
 30
0.0
  0
VERTEX
  5
16F
330
156
100
AcDbEntity
  8
0
370
     0
100
AcDbVertex
100
AcDb2dVertex
 10
289.602295
 20
111.136169
 30
0.0
  0
VERTEX
  5
170
330
156
100
AcDbEntity
  8
0
370
     0
100
AcDbVertex
100
AcDb2dVertex
 10
289.26947
 20
111.327812
 30
0.0
  0
VERTEX
  5
171
330
156
100
AcDbEntity
  8
0
370
     0
100
AcDbVertex
100
AcDb2dVertex
 10
288.815552
 20
111.393372
 30
0.0
  0
VERTEX
  5
172
330
156
100
AcDbEntity
  8
0
370
     0
100
AcDbVertex
100
AcDb2dVertex
 10
287.645538
 20
111.393372
 30
0.0
  0
SEQEND
  5
173
330
156
100
AcDbEntity
  8
0
 62
     7
370
    13
  0
POLYLINE
  5
174
330
1F
100
AcDbEntity
  8
0
 62
     7
370
    13
100
AcDb2dPolyline
 66
     1
 10
0.0
 20
0.0
 30
0.0
 70
     1
  0
VERTEX
  5
175
330
174
100
AcDbEntity
  8
0
370
     0
100
AcDbVertex
100
AcDb2dVertex
 10
288.684448
 20
110.964699
 30
0.0
  0
VERTEX
  5
176
330
174
100
AcDbEntity
  8
0
370
     0
100
AcDbVertex
100
AcDb2dVertex
 10
288.992065
 20
110.934441
 30
0.0
  0
VERTEX
  5
177
330
174
100
AcDbEntity
  8
0
370
     0
100
AcDbVertex
100
AcDb2dVertex
 10
289.208923
 20
110.838615
 30
0.0
  0
VERTEX
  5
178
330
174
100
AcDbEntity
  8
0
370
     0
100
AcDbVertex
100
AcDb2dVertex
 10
289.345093
 20
110.662102
 30
0.0
  0
VERTEX
  5
179
330
174
100
AcDbEntity
  8
0
370
     0
100
AcDbVertex
100
AcDb2dVertex
 10
289.390503
 20
110.384727
 30
0.0
  0
VERTEX
  5
17A
330
174
100
AcDbEntity
  8
0
370
     0
100
AcDbVertex
100
AcDb2dVertex
 10
289.340057
 20
110.092216
 30
0.0
  0
VERTEX
  5
17B
330
174
100
AcDbEntity
  8
0
370
     0
100
AcDbVertex
100
AcDb2dVertex
 10
289.203888
 20
109.915703
 30
0.0
  0
VERTEX
  5
17C
330
174
100
AcDbEntity
  8
0
370
     0
100
AcDbVertex
100
AcDb2dVertex
 10
288.971893
 20
109.824928
 30
0.0
  0
VERTEX
  5
17D
330
174
100
AcDbEntity
  8
0
370
     0
100
AcDbVertex
100
AcDb2dVertex
 10
288.654175
 20
109.799713
 30
0.0
  0
VERTEX
  5
17E
330
174
100
AcDbEntity
  8
0
370
     0
100
AcDbVertex
100
AcDb2dVertex
 10
288.114563
 20
109.799713
 30
0.0
  0
VERTEX
  5
17F
330
174
100
AcDbEntity
  8
0
370
     0
100
AcDbVertex
100
AcDb2dVertex
 10
288.114563
 20
110.964699
 30
0.0
  0
SEQEND
  5
180
330
174
100
AcDbEntity
  8
0
 62
     7
370
    13
  0
POLYLINE
  5
181
330
1F
100
AcDbEntity
  8
0
 62
     7
370
    13
100
AcDb2dPolyline
 66
     1
 10
0.0
 20
0.0
 30
0.0
 70
     1
  0
VERTEX
  5
182
330
181
100
AcDbEntity
  8
0
370
     0
100
AcDbVertex
100
AcDb2dVertex
 10
293.611664
 20
107.893372
 30
0.0
  0
VERTEX
  5
183
330
181
100
AcDbEntity
  8
0
370
     0
100
AcDbVertex
100
AcDb2dVertex
 10
296.017303
 20
107.893372
 30
0.0
  0
VERTEX
  5
184
330
181
100
AcDbEntity
  8
0
370
     0
100
AcDbVertex
100
AcDb2dVertex
 10
296.017303
 20
108.327087
 30
0.0
  0
VERTEX
  5
185
330
181
100
AcDbEntity
  8
0
370
     0
100
AcDbVertex
100
AcDb2dVertex
 10
294.115997
 20
108.327087
 30
0.0
  0
VERTEX
  5
186
330
181
100
AcDbEntity
  8
0
370
     0
100
AcDbVertex
100
AcDb2dVertex
 10
294.221893
 20
108.564117
 30
0.0
  0
VERTEX
  5
187
330
181
100
AcDbEntity
  8
0
370
     0
100
AcDbVertex
100
AcDb2dVertex
 10
294.403442
 20
108.760803
 30
0.0
  0
VERTEX
  5
188
330
181
100
AcDbEntity
  8
0
370
     0
100
AcDbVertex
100
AcDb2dVertex
 10
294.963257
 20
109.118874
 30
0.0
  0
VERTEX
  5
189
330
181
100
AcDbEntity
  8
0
370
     0
100
AcDbVertex
100
AcDb2dVertex
 10
295.260803
 20
109.270172
 30
0.0
  0
VERTEX
  5
18A
330
181
100
AcDbEntity
  8
0
370
     0
100
AcDbVertex
100
AcDb2dVertex
 10
295.593658
 20
109.48703
 30
0.0
  0
VERTEX
  5
18B
330
181
100
AcDbEntity
  8
0
370
     0
100
AcDbVertex
100
AcDb2dVertex
 10
295.830688
 20
109.739197
 30
0.0
  0
VERTEX
  5
18C
330
181
100
AcDbEntity
  8
0
370
     0
100
AcDbVertex
100
AcDb2dVertex
 10
295.966858
 20
110.036743
 30
0.0
  0
VERTEX
  5
18D
330
181
100
AcDbEntity
  8
0
370
     0
100
AcDbVertex
100
AcDb2dVertex
 10
296.017303
 20
110.374641
 30
0.0
  0
VERTEX
  5
18E
330
181
100
AcDbEntity
  8
0
370
     0
100
AcDbVertex
100
AcDb2dVertex
 10
295.931549
 20
110.798271
 30
0.0
  0
VERTEX
  5
18F
330
181
100
AcDbEntity
  8
0
370
     0
100
AcDbVertex
100
AcDb2dVertex
 10
295.694519
 20
111.131126
 30
0.0
  0
VERTEX
  5
190
330
181
100
AcDbEntity
  8
0
370
     0
100
AcDbVertex
100
AcDb2dVertex
 10
295.331421
 20
111.342941
 30
0.0
  0
VERTEX
  5
191
330
181
100
AcDbEntity
  8
0
370
     0
100
AcDbVertex
100
AcDb2dVertex
 10
294.862396
 20
111.418587
 30
0.0
  0
VERTEX
  5
192
330
181
100
AcDbEntity
  8
0
370
     0
100
AcDbVertex
100
AcDb2dVertex
 10
294.378235
 20
111.332855
 30
0.0
  0
VERTEX
  5
193
330
181
100
AcDbEntity
  8
0
370
     0
100
AcDbVertex
100
AcDb2dVertex
 10
294.010071
 20
111.095818
 30
0.0
  0
VERTEX
  5
194
330
181
100
AcDbEntity
  8
0
370
     0
100
AcDbVertex
100
AcDb2dVertex
 10
293.773041
 20
110.717583
 30
0.0
  0
VERTEX
  5
195
330
181
100
AcDbEntity
  8
0
370
     0
100
AcDbVertex
100
AcDb2dVertex
 10
293.692352
 20
110.2183
 30
0.0
  0
VERTEX
  5
196
330
181
100
AcDbEntity
  8
0
370
     0
100
AcDbVertex
100
AcDb2dVertex
 10
293.692352
 20
110.147697
 30
0.0
  0
VERTEX
  5
197
330
181
100
AcDbEntity
  8
0
370
     0
100
AcDbVertex
100
AcDb2dVertex
 10
294.151306
 20
110.147697
 30
0.0
  0
VERTEX
  5
198
330
181
100
AcDbEntity
  8
0
370
     0
100
AcDbVertex
100
AcDb2dVertex
 10
294.151306
 20
110.188042
 30
0.0
  0
VERTEX
  5
199
330
181
100
AcDbEntity
  8
0
370
     0
100
AcDbVertex
100
AcDb2dVertex
 10
294.196686
 20
110.530983
 30
0.0
  0
VERTEX
  5
19A
330
181
100
AcDbEntity
  8
0
370
     0
100
AcDbVertex
100
AcDb2dVertex
 10
294.332855
 20
110.783142
 30
0.0
  0
VERTEX
  5
19B
330
181
100
AcDbEntity
  8
0
370
     0
100
AcDbVertex
100
AcDb2dVertex
 10
294.549713
 20
110.944527
 30
0.0
  0
VERTEX
  5
19C
330
181
100
AcDbEntity
  8
0
370
     0
100
AcDbVertex
100
AcDb2dVertex
 10
294.837189
 20
111.0
 30
0.0
  0
VERTEX
  5
19D
330
181
100
AcDbEntity
  8
0
370
     0
100
AcDbVertex
100
AcDb2dVertex
 10
295.129669
 20
110.94957
 30
0.0
  0
VERTEX
  5
19E
330
181
100
AcDbEntity
  8
0
370
     0
100
AcDbVertex
100
AcDb2dVertex
 10
295.346558
 20
110.823486
 30
0.0
  0
VERTEX
  5
19F
330
181
100
AcDbEntity
  8
0
370
     0
100
AcDbVertex
100
AcDb2dVertex
 10
295.487762
 20
110.626801
 30
0.0
  0
VERTEX
  5
1A0
330
181
100
AcDbEntity
  8
0
370
     0
100
AcDbVertex
100
AcDb2dVertex
 10
295.538177
 20
110.379684
 30
0.0
  0
VERTEX
  5
1A1
330
181
100
AcDbEntity
  8
0
370
     0
100
AcDbVertex
100
AcDb2dVertex
 10
295.502869
 20
110.147697
 30
0.0
  0
VERTEX
  5
1A2
330
181
100
AcDbEntity
  8
0
370
     0
100
AcDbVertex
100
AcDb2dVertex
 10
295.407074
 20
109.951012
 30
0.0
  0
VERTEX
  5
1A3
330
181
100
AcDbEntity
  8
0
370
     0
100
AcDbVertex
100
AcDb2dVertex
 10
295.245667
 20
109.779541
 30
0.0
  0
VERTEX
  5
1A4
330
181
100
AcDbEntity
  8
0
370
     0
100
AcDbVertex
100
AcDb2dVertex
 10
295.023773
 20
109.628242
 30
0.0
  0
VERTEX
  5
1A5
330
181
100
AcDbEntity
  8
0
370
     0
100
AcDbVertex
100
AcDb2dVertex
 10
294.726227
 20
109.466858
 30
0.0
  0
VERTEX
  5
1A6
330
181
100
AcDbEntity
  8
0
370
     0
100
AcDbVertex
100
AcDb2dVertex
 10
294.231995
 20
109.154175
 30
0.0
  0
VERTEX
  5
1A7
330
181
100
AcDbEntity
  8
0
370
     0
100
AcDbVertex
100
AcDb2dVertex
 10
293.884003
 20
108.821327
 30
0.0
  0
VERTEX
  5
1A8
330
181
100
AcDbEntity
  8
0
370
     0
100
AcDbVertex
100
AcDb2dVertex
 10
293.677246
 20
108.41787
 30
0.0
  0
VERTEX
  5
1A9
330
181
100
AcDbEntity
  8
0
370
     0
100
AcDbVertex
100
AcDb2dVertex
 10
293.611664
 20
107.908501
 30
0.0
  0
SEQEND
  5
1AA
330
181
100
AcDbEntity
  8
0
 62
     7
370
    13
  0
POLYLINE
  5
1AB
330
1F
100
AcDbEntity
  8
0
 62
     7
370
    13
100
AcDb2dPolyline
 66
     1
 10
0.0
 20
0.0
 30
0.0
 70
     1
  0
VERTEX
  5
1AC
330
1AB
100
AcDbEntity
  8
0
370
     0
100
AcDbVertex
100
AcDb2dVertex
 10
299.850159
 20
107.893372
 30
0.0
  0
VERTEX
  5
1AD
330
1AB
100
AcDbEntity
  8
0
370
     0
100
AcDbVertex
100
AcDb2dVertex
 10
300.314117
 20
107.893372
 30
0.0
  0
VERTEX
  5
1AE
330
1AB
100
AcDbEntity
  8
0
370
     0
100
AcDbVertex
100
AcDb2dVertex
 10
300.314117
 20
109.37104
 30
0.0
  0
VERTEX
  5
1AF
330
1AB
100
AcDbEntity
  8
0
370
     0
100
AcDbVertex
100
AcDb2dVertex
 10
300.828522
 20
109.37104
 30
0.0
  0
VERTEX
  5
1B0
330
1AB
100
AcDbEntity
  8
0
370
     0
100
AcDbVertex
100
AcDb2dVertex
 10
301.347992
 20
109.396255
 30
0.0
  0
VERTEX
  5
1B1
330
1AB
100
AcDbEntity
  8
0
370
     0
100
AcDbVertex
100
AcDb2dVertex
 10
301.761536
 20
109.572769
 30
0.0
  0
VERTEX
  5
1B2
330
1AB
100
AcDbEntity
  8
0
370
     0
100
AcDbVertex
100
AcDb2dVertex
 10
302.028809
 20
109.915703
 30
0.0
  0
VERTEX
  5
1B3
330
1AB
100
AcDbEntity
  8
0
370
     0
100
AcDbVertex
100
AcDb2dVertex
 10
302.119598
 20
110.384727
 30
0.0
  0
VERTEX
  5
1B4
330
1AB
100
AcDbEntity
  8
0
370
     0
100
AcDbVertex
100
AcDb2dVertex
 10
302.048981
 20
110.818443
 30
0.0
  0
VERTEX
  5
1B5
330
1AB
100
AcDbEntity
  8
0
370
     0
100
AcDbVertex
100
AcDb2dVertex
 10
301.84726
 20
111.136169
 30
0.0
  0
VERTEX
  5
1B6
330
1AB
100
AcDbEntity
  8
0
370
     0
100
AcDbVertex
100
AcDb2dVertex
 10
301.514404
 20
111.327812
 30
0.0
  0
VERTEX
  5
1B7
330
1AB
100
AcDbEntity
  8
0
370
     0
100
AcDbVertex
100
AcDb2dVertex
 10
301.060516
 20
111.393372
 30
0.0
  0
VERTEX
  5
1B8
330
1AB
100
AcDbEntity
  8
0
370
     0
100
AcDbVertex
100
AcDb2dVertex
 10
299.850159
 20
111.393372
 30
0.0
  0
SEQEND
  5
1B9
330
1AB
100
AcDbEntity
  8
0
 62
     7
370
    13
  0
POLYLINE
  5
1BA
330
1F
100
AcDbEntity
  8
0
 62
     7
370
    13
100
AcDb2dPolyline
 66
     1
 10
0.0
 20
0.0
 30
0.0
 70
     1
  0
VERTEX
  5
1BB
330
1BA
100
AcDbEntity
  8
0
370
     0
100
AcDbVertex
100
AcDb2dVertex
 10
300.934448
 20
110.964699
 30
0.0
  0
VERTEX
  5
1BC
330
1BA
100
AcDbEntity
  8
0
370
     0
100
AcDbVertex
100
AcDb2dVertex
 10
301.23703
 20
110.934441
 30
0.0
  0
VERTEX
  5
1BD
330
1BA
100
AcDbEntity
  8
0
370
     0
100
AcDbVertex
100
AcDb2dVertex
 10
301.458923
 20
110.838615
 30
0.0
  0
VERTEX
  5
1BE
330
1BA
100
AcDbEntity
  8
0
370
     0
100
AcDbVertex
100
AcDb2dVertex
 10
301.590057
 20
110.662102
 30
0.0
  0
VERTEX
  5
1BF
330
1BA
100
AcDbEntity
  8
0
370
     0
100
AcDbVertex
100
AcDb2dVertex
 10
301.635437
 20
110.384727
 30
0.0
  0
VERTEX
  5
1C0
330
1BA
100
AcDbEntity
  8
0
370
     0
100
AcDbVertex
100
AcDb2dVertex
 10
301.585022
 20
110.092216
 30
0.0
  0
VERTEX
  5
1C1
330
1BA
100
AcDbEntity
  8
0
370
     0
100
AcDbVertex
100
AcDb2dVertex
 10
301.448853
 20
109.915703
 30
0.0
  0
VERTEX
  5
1C2
330
1BA
100
AcDbEntity
  8
0
370
     0
100
AcDbVertex
100
AcDb2dVertex
 10
301.216858
 20
109.824928
 30
0.0
  0
VERTEX
  5
1C3
330
1BA
100
AcDbEntity
  8
0
370
     0
100
AcDbVertex
100
AcDb2dVertex
 10
300.899139
 20
109.799713
 30
0.0
  0
VERTEX
  5
1C4
330
1BA
100
AcDbEntity
  8
0
370
     0
100
AcDbVertex
100
AcDb2dVertex
 10
300.314117
 20
109.799713
 30
0.0
  0
VERTEX
  5
1C5
330
1BA
100
AcDbEntity
  8
0
370
     0
100
AcDbVertex
100
AcDb2dVertex
 10
300.314117
 20
110.964699
 30
0.0
  0
SEQEND
  5
1C6
330
1BA
100
AcDbEntity
  8
0
 62
     7
370
    13
  0
POLYLINE
  5
1C7
330
1F
100
AcDbEntity
  8
0
 62
     7
370
    13
100
AcDb2dPolyline
 66
     1
 10
0.0
 20
0.0
 30
0.0
 70
     1
  0
VERTEX
  5
1C8
330
1C7
100
AcDbEntity
  8
0
370
     0
100
AcDbVertex
100
AcDb2dVertex
 10
303.718292
 20
108.317001
 30
0.0
  0
VERTEX
  5
1C9
330
1C7
100
AcDbEntity
  8
0
370
     0
100
AcDbVertex
100
AcDb2dVertex
 10
303.072754
 20
108.317001
 30
0.0
  0
VERTEX
  5
1CA
330
1C7
100
AcDbEntity
  8
0
370
     0
100
AcDbVertex
100
AcDb2dVertex
 10
303.072754
 20
107.893372
 30
0.0
  0
VERTEX
  5
1CB
330
1C7
100
AcDbEntity
  8
0
370
     0
100
AcDbVertex
100
AcDb2dVertex
 10
304.82782
 20
107.893372
 30
0.0
  0
VERTEX
  5
1CC
330
1C7
100
AcDbEntity
  8
0
370
     0
100
AcDbVertex
100
AcDb2dVertex
 10
304.82782
 20
108.317001
 30
0.0
  0
VERTEX
  5
1CD
330
1C7
100
AcDbEntity
  8
0
370
     0
100
AcDbVertex
100
AcDb2dVertex
 10
304.182281
 20
108.317001
 30
0.0
  0
VERTEX
  5
1CE
330
1C7
100
AcDbEntity
  8
0
370
     0
100
AcDbVertex
100
AcDb2dVertex
 10
304.182281
 20
110.969742
 30
0.0
  0
VERTEX
  5
1CF
330
1C7
100
AcDbEntity
  8
0
370
     0
100
AcDbVertex
100
AcDb2dVertex
 10
304.82782
 20
110.969742
 30
0.0
  0
VERTEX
  5
1D0
330
1C7
100
AcDbEntity
  8
0
370
     0
100
AcDbVertex
100
AcDb2dVertex
 10
304.82782
 20
111.393372
 30
0.0
  0
VERTEX
  5
1D1
330
1C7
100
AcDbEntity
  8
0
370
     0
100
AcDbVertex
100
AcDb2dVertex
 10
303.072754
 20
111.393372
 30
0.0
  0
VERTEX
  5
1D2
330
1C7
100
AcDbEntity
  8
0
370
     0
100
AcDbVertex
100
AcDb2dVertex
 10
303.072754
 20
110.969742
 30
0.0
  0
VERTEX
  5
1D3
330
1C7
100
AcDbEntity
  8
0
370
     0
100
AcDbVertex
100
AcDb2dVertex
 10
303.718292
 20
110.969742
 30
0.0
  0
SEQEND
  5
1D4
330
1C7
100
AcDbEntity
  8
0
 62
     7
370
    13
  0
POLYLINE
  5
1D5
330
1F
100
AcDbEntity
  8
0
 62
     7
370
    13
100
AcDb2dPolyline
 66
     1
 10
0.0
 20
0.0
 30
0.0
 70
     1
  0
VERTEX
  5
1D6
330
1D5
100
AcDbEntity
  8
0
370
     0
100
AcDbVertex
100
AcDb2dVertex
 10
305.927246
 20
107.893372
 30
0.0
  0
VERTEX
  5
1D7
330
1D5
100
AcDbEntity
  8
0
370
     0
100
AcDbVertex
100
AcDb2dVertex
 10
308.14624
 20
107.893372
 30
0.0
  0
VERTEX
  5
1D8
330
1D5
100
AcDbEntity
  8
0
370
     0
100
AcDbVertex
100
AcDb2dVertex
 10
308.14624
 20
108.317001
 30
0.0
  0
VERTEX
  5
1D9
330
1D5
100
AcDbEntity
  8
0
370
     0
100
AcDbVertex
100
AcDb2dVertex
 10
306.391205
 20
108.317001
 30
0.0
  0
VERTEX
  5
1DA
330
1D5
100
AcDbEntity
  8
0
370
     0
100
AcDbVertex
100
AcDb2dVertex
 10
306.391205
 20
109.502159
 30
0.0
  0
VERTEX
  5
1DB
330
1D5
100
AcDbEntity
  8
0
370
     0
100
AcDbVertex
100
AcDb2dVertex
 10
307.95462
 20
109.502159
 30
0.0
  0
VERTEX
  5
1DC
330
1D5
100
AcDbEntity
  8
0
370
     0
100
AcDbVertex
100
AcDb2dVertex
 10
307.95462
 20
109.920746
 30
0.0
  0
VERTEX
  5
1DD
330
1D5
100
AcDbEntity
  8
0
370
     0
100
AcDbVertex
100
AcDb2dVertex
 10
306.391205
 20
109.920746
 30
0.0
  0
VERTEX
  5
1DE
330
1D5
100
AcDbEntity
  8
0
370
     0
100
AcDbVertex
100
AcDb2dVertex
 10
306.391205
 20
110.969742
 30
0.0
  0
VERTEX
  5
1DF
330
1D5
100
AcDbEntity
  8
0
370
     0
100
AcDbVertex
100
AcDb2dVertex
 10
308.105896
 20
110.969742
 30
0.0
  0
VERTEX
  5
1E0
330
1D5
100
AcDbEntity
  8
0
370
     0
100
AcDbVertex
100
AcDb2dVertex
 10
308.105896
 20
111.393372
 30
0.0
  0
VERTEX
  5
1E1
330
1D5
100
AcDbEntity
  8
0
370
     0
100
AcDbVertex
100
AcDb2dVertex
 10
305.927246
 20
111.393372
 30
0.0
  0
SEQEND
  5
1E2
330
1D5
100
AcDbEntity
  8
0
 62
     7
370
    13
  0
POLYLINE
  5
1E3
330
1F
100
AcDbEntity
  8
0
 62
     7
370
    13
100
AcDb2dPolyline
 66
     1
 10
0.0
 20
0.0
 30
0.0
 70
     1
  0
VERTEX
  5
1E4
330
1E3
100
AcDbEntity
  8
0
370
     0
100
AcDbVertex
100
AcDb2dVertex
 10
308.766571
 20
107.893372
 30
0.0
  0
VERTEX
  5
1E5
330
1E3
100
AcDbEntity
  8
0
370
     0
100
AcDbVertex
100
AcDb2dVertex
 10
311.278107
 20
107.893372
 30
0.0
  0
VERTEX
  5
1E6
330
1E3
100
AcDbEntity
  8
0
370
     0
100
AcDbVertex
100
AcDb2dVertex
 10
311.278107
 20
108.317001
 30
0.0
  0
VERTEX
  5
1E7
330
1E3
100
AcDbEntity
  8
0
370
     0
100
AcDbVertex
100
AcDb2dVertex
 10
309.32132
 20
108.317001
 30
0.0
  0
VERTEX
  5
1E8
330
1E3
100
AcDbEntity
  8
0
370
     0
100
AcDbVertex
100
AcDb2dVertex
 10
311.278107
 20
110.994957
 30
0.0
  0
VERTEX
  5
1E9
330
1E3
100
AcDbEntity
  8
0
370
     0
100
AcDbVertex
100
AcDb2dVertex
 10
311.278107
 20
111.393372
 30
0.0
  0
VERTEX
  5
1EA
330
1E3
100
AcDbEntity
  8
0
370
     0
100
AcDbVertex
100
AcDb2dVertex
 10
308.90274
 20
111.393372
 30
0.0
  0
VERTEX
  5
1EB
330
1E3
100
AcDbEntity
  8
0
370
     0
100
AcDbVertex
100
AcDb2dVertex
 10
308.90274
 20
110.969742
 30
0.0
  0
VERTEX
  5
1EC
330
1E3
100
AcDbEntity
  8
0
370
     0
100
AcDbVertex
100
AcDb2dVertex
 10
310.753601
 20
110.969742
 30
0.0
  0
VERTEX
  5
1ED
330
1E3
100
AcDbEntity
  8
0
370
     0
100
AcDbVertex
100
AcDb2dVertex
 10
308.766571
 20
108.296829
 30
0.0
  0
SEQEND
  5
1EE
330
1E3
100
AcDbEntity
  8
0
 62
     7
370
    13
  0
POLYLINE
  5
1EF
330
1F
100
AcDbEntity
  8
0
 62
     7
370
    13
100
AcDb2dPolyline
 66
     1
 10
0.0
 20
0.0
 30
0.0
 70
     1
  0
VERTEX
  5
1F0
330
1EF
100
AcDbEntity
  8
0
370
     0
100
AcDbVertex
100
AcDb2dVertex
 10
311.525208
 20
107.893372
 30
0.0
  0
VERTEX
  5
1F1
330
1EF
100
AcDbEntity
  8
0
370
     0
100
AcDbVertex
100
AcDb2dVertex
 10
311.989197
 20
107.893372
 30
0.0
  0
VERTEX
  5
1F2
330
1EF
100
AcDbEntity
  8
0
370
     0
100
AcDbVertex
100
AcDb2dVertex
 10
312.35733
 20
108.922188
 30
0.0
  0
VERTEX
  5
1F3
330
1EF
100
AcDbEntity
  8
0
370
     0
100
AcDbVertex
100
AcDb2dVertex
 10
313.754333
 20
108.922188
 30
0.0
  0
VERTEX
  5
1F4
330
1EF
100
AcDbEntity
  8
0
370
     0
100
AcDbVertex
100
AcDb2dVertex
 10
314.122467
 20
107.893372
 30
0.0
  0
VERTEX
  5
1F5
330
1EF
100
AcDbEntity
  8
0
370
     0
100
AcDbVertex
100
AcDb2dVertex
 10
314.596527
 20
107.893372
 30
0.0
  0
VERTEX
  5
1F6
330
1EF
100
AcDbEntity
  8
0
370
     0
100
AcDbVertex
100
AcDb2dVertex
 10
313.315552
 20
111.398415
 30
0.0
  0
VERTEX
  5
1F7
330
1EF
100
AcDbEntity
  8
0
370
     0
100
AcDbVertex
100
AcDb2dVertex
 10
312.801147
 20
111.398415
 30
0.0
  0
SEQEND
  5
1F8
330
1EF
100
AcDbEntity
  8
0
 62
     7
370
    13
  0
POLYLINE
  5
1F9
330
1F
100
AcDbEntity
  8
0
 62
     7
370
    13
100
AcDb2dPolyline
 66
     1
 10
0.0
 20
0.0
 30
0.0
 70
     1
  0
VERTEX
  5
1FA
330
1F9
100
AcDbEntity
  8
0
370
     0
100
AcDbVertex
100
AcDb2dVertex
 10
312.518738
 20
109.350861
 30
0.0
  0
VERTEX
  5
1FB
330
1F9
100
AcDbEntity
  8
0
370
     0
100
AcDbVertex
100
AcDb2dVertex
 10
313.05835
 20
110.894089
 30
0.0
  0
VERTEX
  5
1FC
330
1F9
100
AcDbEntity
  8
0
370
     0
100
AcDbVertex
100
AcDb2dVertex
 10
313.597961
 20
109.350861
 30
0.0
  0
SEQEND
  5
1FD
330
1F9
100
AcDbEntity
  8
0
 62
     7
370
    13
  0
POLYLINE
  5
1FE
330
1F
100
AcDbEntity
  8
0
 62
     7
370
    13
100
AcDb2dPolyline
 66
     1
 10
0.0
 20
0.0
 30
0.0
 70
     1
  0
VERTEX
  5
1FF
330
1FE
100
AcDbEntity
  8
0
370
     0
100
AcDbVertex
100
AcDb2dVertex
 10
315.297546
 20
109.048271
 30
0.0
  0
VERTEX
  5
200
330
1FE
100
AcDbEntity
  8
0
370
     0
100
AcDbVertex
100
AcDb2dVertex
 10
314.838623
 20
109.048271
 30
0.0
  0
VERTEX
  5
201
330
1FE
100
AcDbEntity
  8
0
370
     0
100
AcDbVertex
100
AcDb2dVertex
 10
314.939484
 20
108.513687
 30
0.0
  0
VERTEX
  5
202
330
1FE
100
AcDbEntity
  8
0
370
     0
100
AcDbVertex
100
AcDb2dVertex
 10
315.19165
 20
108.120316
 30
0.0
  0
VERTEX
  5
203
330
1FE
100
AcDbEntity
  8
0
370
     0
100
AcDbVertex
100
AcDb2dVertex
 10
315.579956
 20
107.883286
 30
0.0
  0
VERTEX
  5
204
330
1FE
100
AcDbEntity
  8
0
370
     0
100
AcDbVertex
100
AcDb2dVertex
 10
316.104462
 20
107.797554
 30
0.0
  0
VERTEX
  5
205
330
1FE
100
AcDbEntity
  8
0
370
     0
100
AcDbVertex
100
AcDb2dVertex
 10
316.623901
 20
107.878242
 30
0.0
  0
VERTEX
  5
206
330
1FE
100
AcDbEntity
  8
0
370
     0
100
AcDbVertex
100
AcDb2dVertex
 10
317.012238
 20
108.100143
 30
0.0
  0
VERTEX
  5
207
330
1FE
100
AcDbEntity
  8
0
370
     0
100
AcDbVertex
100
AcDb2dVertex
 10
317.259369
 20
108.448128
 30
0.0
  0
VERTEX
  5
208
330
1FE
100
AcDbEntity
  8
0
370
     0
100
AcDbVertex
100
AcDb2dVertex
 10
317.350128
 20
108.907059
 30
0.0
  0
VERTEX
  5
209
330
1FE
100
AcDbEntity
  8
0
370
     0
100
AcDbVertex
100
AcDb2dVertex
 10
317.274475
 20
109.320602
 30
0.0
  0
VERTEX
  5
20A
330
1FE
100
AcDbEntity
  8
0
370
     0
100
AcDbVertex
100
AcDb2dVertex
 10
317.062683
 20
109.587898
 30
0.0
  0
VERTEX
  5
20B
330
1FE
100
AcDbEntity
  8
0
370
     0
100
AcDbVertex
100
AcDb2dVertex
 10
316.719727
 20
109.764412
 30
0.0
  0
VERTEX
  5
20C
330
1FE
100
AcDbEntity
  8
0
370
     0
100
AcDbVertex
100
AcDb2dVertex
 10
316.260803
 20
109.895531
 30
0.0
  0
VERTEX
  5
20D
330
1FE
100
AcDbEntity
  8
0
370
     0
100
AcDbVertex
100
AcDb2dVertex
 10
315.867432
 20
109.991356
 30
0.0
  0
VERTEX
  5
20E
330
1FE
100
AcDbEntity
  8
0
370
     0
100
AcDbVertex
100
AcDb2dVertex
 10
315.610229
 20
110.102303
 30
0.0
  0
VERTEX
  5
20F
330
1FE
100
AcDbEntity
  8
0
370
     0
100
AcDbVertex
100
AcDb2dVertex
 10
315.463959
 20
110.263687
 30
0.0
  0
VERTEX
  5
210
330
1FE
100
AcDbEntity
  8
0
370
     0
100
AcDbVertex
100
AcDb2dVertex
 10
315.418579
 20
110.515854
 30
0.0
  0
VERTEX
  5
211
330
1FE
100
AcDbEntity
  8
0
370
     0
100
AcDbVertex
100
AcDb2dVertex
 10
315.463959
 20
110.742798
 30
0.0
  0
VERTEX
  5
212
330
1FE
100
AcDbEntity
  8
0
370
     0
100
AcDbVertex
100
AcDb2dVertex
 10
315.595093
 20
110.914268
 30
0.0
  0
VERTEX
  5
213
330
1FE
100
AcDbEntity
  8
0
370
     0
100
AcDbVertex
100
AcDb2dVertex
 10
315.796814
 20
111.030258
 30
0.0
  0
VERTEX
  5
214
330
1FE
100
AcDbEntity
  8
0
370
     0
100
AcDbVertex
100
AcDb2dVertex
 10
316.074188
 20
111.070602
 30
0.0
  0
VERTEX
  5
215
330
1FE
100
AcDbEntity
  8
0
370
     0
100
AcDbVertex
100
AcDb2dVertex
 10
316.356628
 20
111.020172
 30
0.0
  0
VERTEX
  5
216
330
1FE
100
AcDbEntity
  8
0
370
     0
100
AcDbVertex
100
AcDb2dVertex
 10
316.578522
 20
110.884003
 30
0.0
  0
VERTEX
  5
217
330
1FE
100
AcDbEntity
  8
0
370
     0
100
AcDbVertex
100
AcDb2dVertex
 10
316.724792
 20
110.657059
 30
0.0
  0
VERTEX
  5
218
330
1FE
100
AcDbEntity
  8
0
370
     0
100
AcDbVertex
100
AcDb2dVertex
 10
316.79538
 20
110.349426
 30
0.0
  0
VERTEX
  5
219
330
1FE
100
AcDbEntity
  8
0
370
     0
100
AcDbVertex
100
AcDb2dVertex
 10
317.254333
 20
110.349426
 30
0.0
  0
VERTEX
  5
21A
330
1FE
100
AcDbEntity
  8
0
370
     0
100
AcDbVertex
100
AcDb2dVertex
 10
317.254333
 20
110.359512
 30
0.0
  0
VERTEX
  5
21B
330
1FE
100
AcDbEntity
  8
0
370
     0
100
AcDbVertex
100
AcDb2dVertex
 10
317.173615
 20
110.833572
 30
0.0
  0
VERTEX
  5
21C
330
1FE
100
AcDbEntity
  8
0
370
     0
100
AcDbVertex
100
AcDb2dVertex
 10
316.936584
 20
111.1866
 30
0.0
  0
VERTEX
  5
21D
330
1FE
100
AcDbEntity
  8
0
370
     0
100
AcDbVertex
100
AcDb2dVertex
 10
316.563385
 20
111.408501
 30
0.0
  0
VERTEX
  5
21E
330
1FE
100
AcDbEntity
  8
0
370
     0
100
AcDbVertex
100
AcDb2dVertex
 10
316.059082
 20
111.484146
 30
0.0
  0
VERTEX
  5
21F
330
1FE
100
AcDbEntity
  8
0
370
     0
100
AcDbVertex
100
AcDb2dVertex
 10
315.605194
 20
111.408501
 30
0.0
  0
VERTEX
  5
220
330
1FE
100
AcDbEntity
  8
0
370
     0
100
AcDbVertex
100
AcDb2dVertex
 10
315.252167
 20
111.196686
 30
0.0
  0
VERTEX
  5
221
330
1FE
100
AcDbEntity
  8
0
370
     0
100
AcDbVertex
100
AcDb2dVertex
 10
315.025208
 20
110.868874
 30
0.0
  0
VERTEX
  5
222
330
1FE
100
AcDbEntity
  8
0
370
     0
100
AcDbVertex
100
AcDb2dVertex
 10
314.944519
 20
110.445244
 30
0.0
  0
VERTEX
  5
223
330
1FE
100
AcDbEntity
  8
0
370
     0
100
AcDbVertex
100
AcDb2dVertex
 10
315.010071
 20
110.067001
 30
0.0
  0
VERTEX
  5
224
330
1FE
100
AcDbEntity
  8
0
370
     0
100
AcDbVertex
100
AcDb2dVertex
 10
315.201721
 20
109.809799
 30
0.0
  0
VERTEX
  5
225
330
1FE
100
AcDbEntity
  8
0
370
     0
100
AcDbVertex
100
AcDb2dVertex
 10
315.504333
 20
109.638329
 30
0.0
  0
VERTEX
  5
226
330
1FE
100
AcDbEntity
  8
0
370
     0
100
AcDbVertex
100
AcDb2dVertex
 10
315.917847
 20
109.507202
 30
0.0
  0
VERTEX
  5
227
330
1FE
100
AcDbEntity
  8
0
370
     0
100
AcDbVertex
100
AcDb2dVertex
 10
316.326355
 20
109.391212
 30
0.0
  0
VERTEX
  5
228
330
1FE
100
AcDbEntity
  8
0
370
     0
100
AcDbVertex
100
AcDb2dVertex
 10
316.634003
 20
109.280258
 30
0.0
  0
VERTEX
  5
229
330
1FE
100
AcDbEntity
  8
0
370
     0
100
AcDbVertex
100
AcDb2dVertex
 10
316.820587
 20
109.118874
 30
0.0
  0
VERTEX
  5
22A
330
1FE
100
AcDbEntity
  8
0
370
     0
100
AcDbVertex
100
AcDb2dVertex
 10
316.886169
 20
108.856628
 30
0.0
  0
VERTEX
  5
22B
330
1FE
100
AcDbEntity
  8
0
370
     0
100
AcDbVertex
100
AcDb2dVertex
 10
316.825653
 20
108.58934
 30
0.0
  0
VERTEX
  5
22C
330
1FE
100
AcDbEntity
  8
0
370
     0
100
AcDbVertex
100
AcDb2dVertex
 10
316.669312
 20
108.387611
 30
0.0
  0
VERTEX
  5
22D
330
1FE
100
AcDbEntity
  8
0
370
     0
100
AcDbVertex
100
AcDb2dVertex
 10
316.432281
 20
108.261528
 30
0.0
  0
VERTEX
  5
22E
330
1FE
100
AcDbEntity
  8
0
370
     0
100
AcDbVertex
100
AcDb2dVertex
 10
316.124634
 20
108.221184
 30
0.0
  0
VERTEX
  5
22F
330
1FE
100
AcDbEntity
  8
0
370
     0
100
AcDbVertex
100
AcDb2dVertex
 10
315.781677
 20
108.276657
 30
0.0
  0
VERTEX
  5
230
330
1FE
100
AcDbEntity
  8
0
370
     0
100
AcDbVertex
100
AcDb2dVertex
 10
315.51944
 20
108.438042
 30
0.0
  0
VERTEX
  5
231
330
1FE
100
AcDbEntity
  8
0
370
     0
100
AcDbVertex
100
AcDb2dVertex
 10
315.353027
 20
108.700287
 30
0.0
  0
SEQEND
  5
232
330
1FE
100
AcDbEntity
  8
0
 62
     7
370
    13
  0
POLYLINE
  5
233
330
1F
100
AcDbEntity
  8
0
 62
     7
370
    13
100
AcDb2dPolyline
 66
     1
 10
0.0
 20
0.0
 30
0.0
 70
     1
  0
VERTEX
  5
234
330
233
100
AcDbEntity
  8
0
370
     0
100
AcDbVertex
100
AcDb2dVertex
 10
266.458923
 20
101.846542
 30
0.0
  0
VERTEX
  5
235
330
233
100
AcDbEntity
  8
0
370
     0
100
AcDbVertex
100
AcDb2dVertex
 10
268.677948
 20
101.846542
 30
0.0
  0
VERTEX
  5
236
330
233
100
AcDbEntity
  8
0
370
     0
100
AcDbVertex
100
AcDb2dVertex
 10
268.677948
 20
102.270172
 30
0.0
  0
VERTEX
  5
237
330
233
100
AcDbEntity
  8
0
370
     0
100
AcDbVertex
100
AcDb2dVertex
 10
266.922913
 20
102.270172
 30
0.0
  0
VERTEX
  5
238
330
233
100
AcDbEntity
  8
0
370
     0
100
AcDbVertex
100
AcDb2dVertex
 10
266.922913
 20
103.45533
 30
0.0
  0
VERTEX
  5
239
330
233
100
AcDbEntity
  8
0
370
     0
100
AcDbVertex
100
AcDb2dVertex
 10
268.486298
 20
103.45533
 30
0.0
  0
VERTEX
  5
23A
330
233
100
AcDbEntity
  8
0
370
     0
100
AcDbVertex
100
AcDb2dVertex
 10
268.486298
 20
103.873917
 30
0.0
  0
VERTEX
  5
23B
330
233
100
AcDbEntity
  8
0
370
     0
100
AcDbVertex
100
AcDb2dVertex
 10
266.922913
 20
103.873917
 30
0.0
  0
VERTEX
  5
23C
330
233
100
AcDbEntity
  8
0
370
     0
100
AcDbVertex
100
AcDb2dVertex
 10
266.922913
 20
104.922913
 30
0.0
  0
VERTEX
  5
23D
330
233
100
AcDbEntity
  8
0
370
     0
100
AcDbVertex
100
AcDb2dVertex
 10
268.637604
 20
104.922913
 30
0.0
  0
VERTEX
  5
23E
330
233
100
AcDbEntity
  8
0
370
     0
100
AcDbVertex
100
AcDb2dVertex
 10
268.637604
 20
105.346542
 30
0.0
  0
VERTEX
  5
23F
330
233
100
AcDbEntity
  8
0
370
     0
100
AcDbVertex
100
AcDb2dVertex
 10
266.458923
 20
105.346542
 30
0.0
  0
SEQEND
  5
240
330
233
100
AcDbEntity
  8
0
 62
     7
370
    13
  0
POLYLINE
  5
241
330
1F
100
AcDbEntity
  8
0
 62
     7
370
    13
100
AcDb2dPolyline
 66
     1
 10
0.0
 20
0.0
 30
0.0
 70
     1
  0
VERTEX
  5
242
330
241
100
AcDbEntity
  8
0
370
     0
100
AcDbVertex
100
AcDb2dVertex
 10
269.757202
 20
103.001442
 30
0.0
  0
VERTEX
  5
243
330
241
100
AcDbEntity
  8
0
370
     0
100
AcDbVertex
100
AcDb2dVertex
 10
269.298279
 20
103.001442
 30
0.0
  0
VERTEX
  5
244
330
241
100
AcDbEntity
  8
0
370
     0
100
AcDbVertex
100
AcDb2dVertex
 10
269.399139
 20
102.466858
 30
0.0
  0
VERTEX
  5
245
330
241
100
AcDbEntity
  8
0
370
     0
100
AcDbVertex
100
AcDb2dVertex
 10
269.651306
 20
102.073486
 30
0.0
  0
VERTEX
  5
246
330
241
100
AcDbEntity
  8
0
370
     0
100
AcDbVertex
100
AcDb2dVertex
 10
270.039612
 20
101.836456
 30
0.0
  0
VERTEX
  5
247
330
241
100
AcDbEntity
  8
0
370
     0
100
AcDbVertex
100
AcDb2dVertex
 10
270.564117
 20
101.750725
 30
0.0
  0
VERTEX
  5
248
330
241
100
AcDbEntity
  8
0
370
     0
100
AcDbVertex
100
AcDb2dVertex
 10
271.083588
 20
101.831413
 30
0.0
  0
VERTEX
  5
249
330
241
100
AcDbEntity
  8
0
370
     0
100
AcDbVertex
100
AcDb2dVertex
 10
271.471893
 20
102.053314
 30
0.0
  0
VERTEX
  5
24A
330
241
100
AcDbEntity
  8
0
370
     0
100
AcDbVertex
100
AcDb2dVertex
 10
271.719025
 20
102.401299
 30
0.0
  0
VERTEX
  5
24B
330
241
100
AcDbEntity
  8
0
370
     0
100
AcDbVertex
100
AcDb2dVertex
 10
271.809784
 20
102.860229
 30
0.0
  0
VERTEX
  5
24C
330
241
100
AcDbEntity
  8
0
370
     0
100
AcDbVertex
100
AcDb2dVertex
 10
271.734161
 20
103.273773
 30
0.0
  0
VERTEX
  5
24D
330
241
100
AcDbEntity
  8
0
370
     0
100
AcDbVertex
100
AcDb2dVertex
 10
271.522339
 20
103.541069
 30
0.0
  0
VERTEX
  5
24E
330
241
100
AcDbEntity
  8
0
370
     0
100
AcDbVertex
100
AcDb2dVertex
 10
271.179382
 20
103.717583
 30
0.0
  0
VERTEX
  5
24F
330
241
100
AcDbEntity
  8
0
370
     0
100
AcDbVertex
100
AcDb2dVertex
 10
270.720459
 20
103.848701
 30
0.0
  0
VERTEX
  5
250
330
241
100
AcDbEntity
  8
0
370
     0
100
AcDbVertex
100
AcDb2dVertex
 10
270.327087
 20
103.944527
 30
0.0
  0
VERTEX
  5
251
330
241
100
AcDbEntity
  8
0
370
     0
100
AcDbVertex
100
AcDb2dVertex
 10
270.069885
 20
104.055473
 30
0.0
  0
VERTEX
  5
252
330
241
100
AcDbEntity
  8
0
370
     0
100
AcDbVertex
100
AcDb2dVertex
 10
269.923645
 20
104.216858
 30
0.0
  0
VERTEX
  5
253
330
241
100
AcDbEntity
  8
0
370
     0
100
AcDbVertex
100
AcDb2dVertex
 10
269.878235
 20
104.469025
 30
0.0
  0
VERTEX
  5
254
330
241
100
AcDbEntity
  8
0
370
     0
100
AcDbVertex
100
AcDb2dVertex
 10
269.923645
 20
104.695969
 30
0.0
  0
VERTEX
  5
255
330
241
100
AcDbEntity
  8
0
370
     0
100
AcDbVertex
100
AcDb2dVertex
 10
270.054749
 20
104.867439
 30
0.0
  0
VERTEX
  5
256
330
241
100
AcDbEntity
  8
0
370
     0
100
AcDbVertex
100
AcDb2dVertex
 10
270.25647
 20
104.983429
 30
0.0
  0
VERTEX
  5
257
330
241
100
AcDbEntity
  8
0
370
     0
100
AcDbVertex
100
AcDb2dVertex
 10
270.533875
 20
105.023773
 30
0.0
  0
VERTEX
  5
258
330
241
100
AcDbEntity
  8
0
370
     0
100
AcDbVertex
100
AcDb2dVertex
 10
270.816284
 20
104.973343
 30
0.0
  0
VERTEX
  5
259
330
241
100
AcDbEntity
  8
0
370
     0
100
AcDbVertex
100
AcDb2dVertex
 10
271.038177
 20
104.837173
 30
0.0
  0
VERTEX
  5
25A
330
241
100
AcDbEntity
  8
0
370
     0
100
AcDbVertex
100
AcDb2dVertex
 10
271.184448
 20
104.610229
 30
0.0
  0
VERTEX
  5
25B
330
241
100
AcDbEntity
  8
0
370
     0
100
AcDbVertex
100
AcDb2dVertex
 10
271.255035
 20
104.302597
 30
0.0
  0
VERTEX
  5
25C
330
241
100
AcDbEntity
  8
0
370
     0
100
AcDbVertex
100
AcDb2dVertex
 10
271.713989
 20
104.302597
 30
0.0
  0
VERTEX
  5
25D
330
241
100
AcDbEntity
  8
0
370
     0
100
AcDbVertex
100
AcDb2dVertex
 10
271.713989
 20
104.312683
 30
0.0
  0
VERTEX
  5
25E
330
241
100
AcDbEntity
  8
0
370
     0
100
AcDbVertex
100
AcDb2dVertex
 10
271.633301
 20
104.786743
 30
0.0
  0
VERTEX
  5
25F
330
241
100
AcDbEntity
  8
0
370
     0
100
AcDbVertex
100
AcDb2dVertex
 10
271.39624
 20
105.139771
 30
0.0
  0
VERTEX
  5
260
330
241
100
AcDbEntity
  8
0
370
     0
100
AcDbVertex
100
AcDb2dVertex
 10
271.023041
 20
105.361671
 30
0.0
  0
VERTEX
  5
261
330
241
100
AcDbEntity
  8
0
370
     0
100
AcDbVertex
100
AcDb2dVertex
 10
270.518738
 20
105.437317
 30
0.0
  0
VERTEX
  5
262
330
241
100
AcDbEntity
  8
0
370
     0
100
AcDbVertex
100
AcDb2dVertex
 10
270.06485
 20
105.361671
 30
0.0
  0
VERTEX
  5
263
330
241
100
AcDbEntity
  8
0
370
     0
100
AcDbVertex
100
AcDb2dVertex
 10
269.711823
 20
105.149857
 30
0.0
  0
VERTEX
  5
264
330
241
100
AcDbEntity
  8
0
370
     0
100
AcDbVertex
100
AcDb2dVertex
 10
269.484863
 20
104.822044
 30
0.0
  0
VERTEX
  5
265
330
241
100
AcDbEntity
  8
0
370
     0
100
AcDbVertex
100
AcDb2dVertex
 10
269.404175
 20
104.398415
 30
0.0
  0
VERTEX
  5
266
330
241
100
AcDbEntity
  8
0
370
     0
100
AcDbVertex
100
AcDb2dVertex
 10
269.469727
 20
104.020172
 30
0.0
  0
VERTEX
  5
267
330
241
100
AcDbEntity
  8
0
370
     0
100
AcDbVertex
100
AcDb2dVertex
 10
269.661377
 20
103.76297
 30
0.0
  0
VERTEX
  5
268
330
241
100
AcDbEntity
  8
0
370
     0
100
AcDbVertex
100
AcDb2dVertex
 10
269.963989
 20
103.591499
 30
0.0
  0
VERTEX
  5
269
330
241
100
AcDbEntity
  8
0
370
     0
100
AcDbVertex
100
AcDb2dVertex
 10
270.377533
 20
103.460373
 30
0.0
  0
VERTEX
  5
26A
330
241
100
AcDbEntity
  8
0
370
     0
100
AcDbVertex
100
AcDb2dVertex
 10
270.786011
 20
103.344383
 30
0.0
  0
VERTEX
  5
26B
330
241
100
AcDbEntity
  8
0
370
     0
100
AcDbVertex
100
AcDb2dVertex
 10
271.093658
 20
103.233429
 30
0.0
  0
VERTEX
  5
26C
330
241
100
AcDbEntity
  8
0
370
     0
100
AcDbVertex
100
AcDb2dVertex
 10
271.280273
 20
103.072044
 30
0.0
  0
VERTEX
  5
26D
330
241
100
AcDbEntity
  8
0
370
     0
100
AcDbVertex
100
AcDb2dVertex
 10
271.345825
 20
102.809799
 30
0.0
  0
VERTEX
  5
26E
330
241
100
AcDbEntity
  8
0
370
     0
100
AcDbVertex
100
AcDb2dVertex
 10
271.285309
 20
102.542511
 30
0.0
  0
VERTEX
  5
26F
330
241
100
AcDbEntity
  8
0
370
     0
100
AcDbVertex
100
AcDb2dVertex
 10
271.128967
 20
102.340782
 30
0.0
  0
VERTEX
  5
270
330
241
100
AcDbEntity
  8
0
370
     0
100
AcDbVertex
100
AcDb2dVertex
 10
270.891937
 20
102.214699
 30
0.0
  0
VERTEX
  5
271
330
241
100
AcDbEntity
  8
0
370
     0
100
AcDbVertex
100
AcDb2dVertex
 10
270.58429
 20
102.174355
 30
0.0
  0
VERTEX
  5
272
330
241
100
AcDbEntity
  8
0
370
     0
100
AcDbVertex
100
AcDb2dVertex
 10
270.241364
 20
102.229828
 30
0.0
  0
VERTEX
  5
273
330
241
100
AcDbEntity
  8
0
370
     0
100
AcDbVertex
100
AcDb2dVertex
 10
269.979095
 20
102.391212
 30
0.0
  0
VERTEX
  5
274
330
241
100
AcDbEntity
  8
0
370
     0
100
AcDbVertex
100
AcDb2dVertex
 10
269.812683
 20
102.653458
 30
0.0
  0
SEQEND
  5
275
330
241
100
AcDbEntity
  8
0
 62
     7
370
    13
  0
POLYLINE
  5
276
330
1F
100
AcDbEntity
  8
0
 62
     7
370
    13
100
AcDb2dPolyline
 66
     1
 10
0.0
 20
0.0
 30
0.0
 70
     1
  0
VERTEX
  5
277
330
276
100
AcDbEntity
  8
0
370
     0
100
AcDbVertex
100
AcDb2dVertex
 10
272.52594
 20
101.846542
 30
0.0
  0
VERTEX
  5
278
330
276
100
AcDbEntity
  8
0
370
     0
100
AcDbVertex
100
AcDb2dVertex
 10
272.989929
 20
101.846542
 30
0.0
  0
VERTEX
  5
279
330
276
100
AcDbEntity
  8
0
370
     0
100
AcDbVertex
100
AcDb2dVertex
 10
272.989929
 20
103.324211
 30
0.0
  0
VERTEX
  5
27A
330
276
100
AcDbEntity
  8
0
370
     0
100
AcDbVertex
100
AcDb2dVertex
 10
273.504333
 20
103.324211
 30
0.0
  0
VERTEX
  5
27B
330
276
100
AcDbEntity
  8
0
370
     0
100
AcDbVertex
100
AcDb2dVertex
 10
274.023773
 20
103.349426
 30
0.0
  0
VERTEX
  5
27C
330
276
100
AcDbEntity
  8
0
370
     0
100
AcDbVertex
100
AcDb2dVertex
 10
274.437317
 20
103.52594
 30
0.0
  0
VERTEX
  5
27D
330
276
100
AcDbEntity
  8
0
370
     0
100
AcDbVertex
100
AcDb2dVertex
 10
274.70462
 20
103.868874
 30
0.0
  0
VERTEX
  5
27E
330
276
100
AcDbEntity
  8
0
370
     0
100
AcDbVertex
100
AcDb2dVertex
 10
274.79538
 20
104.337898
 30
0.0
  0
VERTEX
  5
27F
330
276
100
AcDbEntity
  8
0
370
     0
100
AcDbVertex
100
AcDb2dVertex
 10
274.724792
 20
104.771614
 30
0.0
  0
VERTEX
  5
280
330
276
100
AcDbEntity
  8
0
370
     0
100
AcDbVertex
100
AcDb2dVertex
 10
274.523041
 20
105.08934
 30
0.0
  0
VERTEX
  5
281
330
276
100
AcDbEntity
  8
0
370
     0
100
AcDbVertex
100
AcDb2dVertex
 10
274.190216
 20
105.280983
 30
0.0
  0
VERTEX
  5
282
330
276
100
AcDbEntity
  8
0
370
     0
100
AcDbVertex
100
AcDb2dVertex
 10
273.736298
 20
105.346542
 30
0.0
  0
VERTEX
  5
283
330
276
100
AcDbEntity
  8
0
370
     0
100
AcDbVertex
100
AcDb2dVertex
 10
272.52594
 20
105.346542
 30
0.0
  0
SEQEND
  5
284
330
276
100
AcDbEntity
  8
0
 62
     7
370
    13
  0
POLYLINE
  5
285
330
1F
100
AcDbEntity
  8
0
 62
     7
370
    13
100
AcDb2dPolyline
 66
     1
 10
0.0
 20
0.0
 30
0.0
 70
     1
  0
VERTEX
  5
286
330
285
100
AcDbEntity
  8
0
370
     0
100
AcDbVertex
100
AcDb2dVertex
 10
273.610229
 20
104.91787
 30
0.0
  0
VERTEX
  5
287
330
285
100
AcDbEntity
  8
0
370
     0
100
AcDbVertex
100
AcDb2dVertex
 10
273.912811
 20
104.887611
 30
0.0
  0
VERTEX
  5
288
330
285
100
AcDbEntity
  8
0
370
     0
100
AcDbVertex
100
AcDb2dVertex
 10
274.134735
 20
104.791786
 30
0.0
  0
VERTEX
  5
289
330
285
100
AcDbEntity
  8
0
370
     0
100
AcDbVertex
100
AcDb2dVertex
 10
274.265839
 20
104.615273
 30
0.0
  0
VERTEX
  5
28A
330
285
100
AcDbEntity
  8
0
370
     0
100
AcDbVertex
100
AcDb2dVertex
 10
274.311249
 20
104.337898
 30
0.0
  0
VERTEX
  5
28B
330
285
100
AcDbEntity
  8
0
370
     0
100
AcDbVertex
100
AcDb2dVertex
 10
274.260803
 20
104.045387
 30
0.0
  0
VERTEX
  5
28C
330
285
100
AcDbEntity
  8
0
370
     0
100
AcDbVertex
100
AcDb2dVertex
 10
274.124634
 20
103.868874
 30
0.0
  0
VERTEX
  5
28D
330
285
100
AcDbEntity
  8
0
370
     0
100
AcDbVertex
100
AcDb2dVertex
 10
273.892639
 20
103.778099
 30
0.0
  0
VERTEX
  5
28E
330
285
100
AcDbEntity
  8
0
370
     0
100
AcDbVertex
100
AcDb2dVertex
 10
273.574921
 20
103.752884
 30
0.0
  0
VERTEX
  5
28F
330
285
100
AcDbEntity
  8
0
370
     0
100
AcDbVertex
100
AcDb2dVertex
 10
272.989929
 20
103.752884
 30
0.0
  0
VERTEX
  5
290
330
285
100
AcDbEntity
  8
0
370
     0
100
AcDbVertex
100
AcDb2dVertex
 10
272.989929
 20
104.91787
 30
0.0
  0
SEQEND
  5
291
330
285
100
AcDbEntity
  8
0
 62
     7
370
    13
  0
POLYLINE
  5
292
330
1F
100
AcDbEntity
  8
0
 62
     7
370
    13
100
AcDb2dPolyline
 66
     1
 10
0.0
 20
0.0
 30
0.0
 70
     1
  0
VERTEX
  5
293
330
292
100
AcDbEntity
  8
0
370
     0
100
AcDbVertex
100
AcDb2dVertex
 10
275.567017
 20
101.846542
 30
0.0
  0
VERTEX
  5
294
330
292
100
AcDbEntity
  8
0
370
     0
100
AcDbVertex
100
AcDb2dVertex
 10
277.786011
 20
101.846542
 30
0.0
  0
VERTEX
  5
295
330
292
100
AcDbEntity
  8
0
370
     0
100
AcDbVertex
100
AcDb2dVertex
 10
277.786011
 20
102.270172
 30
0.0
  0
VERTEX
  5
296
330
292
100
AcDbEntity
  8
0
370
     0
100
AcDbVertex
100
AcDb2dVertex
 10
276.030975
 20
102.270172
 30
0.0
  0
VERTEX
  5
297
330
292
100
AcDbEntity
  8
0
370
     0
100
AcDbVertex
100
AcDb2dVertex
 10
276.030975
 20
103.45533
 30
0.0
  0
VERTEX
  5
298
330
292
100
AcDbEntity
  8
0
370
     0
100
AcDbVertex
100
AcDb2dVertex
 10
277.594391
 20
103.45533
 30
0.0
  0
VERTEX
  5
299
330
292
100
AcDbEntity
  8
0
370
     0
100
AcDbVertex
100
AcDb2dVertex
 10
277.594391
 20
103.873917
 30
0.0
  0
VERTEX
  5
29A
330
292
100
AcDbEntity
  8
0
370
     0
100
AcDbVertex
100
AcDb2dVertex
 10
276.030975
 20
103.873917
 30
0.0
  0
VERTEX
  5
29B
330
292
100
AcDbEntity
  8
0
370
     0
100
AcDbVertex
100
AcDb2dVertex
 10
276.030975
 20
104.922913
 30
0.0
  0
VERTEX
  5
29C
330
292
100
AcDbEntity
  8
0
370
     0
100
AcDbVertex
100
AcDb2dVertex
 10
277.745667
 20
104.922913
 30
0.0
  0
VERTEX
  5
29D
330
292
100
AcDbEntity
  8
0
370
     0
100
AcDbVertex
100
AcDb2dVertex
 10
277.745667
 20
105.346542
 30
0.0
  0
VERTEX
  5
29E
330
292
100
AcDbEntity
  8
0
370
     0
100
AcDbVertex
100
AcDb2dVertex
 10
275.567017
 20
105.346542
 30
0.0
  0
SEQEND
  5
29F
330
292
100
AcDbEntity
  8
0
 62
     7
370
    13
  0
POLYLINE
  5
2A0
330
1F
100
AcDbEntity
  8
0
 62
     7
370
    13
100
AcDb2dPolyline
 66
     1
 10
0.0
 20
0.0
 30
0.0
 70
     1
  0
VERTEX
  5
2A1
330
2A0
100
AcDbEntity
  8
0
370
     0
100
AcDbVertex
100
AcDb2dVertex
 10
278.865265
 20
103.001442
 30
0.0
  0
VERTEX
  5
2A2
330
2A0
100
AcDbEntity
  8
0
370
     0
100
AcDbVertex
100
AcDb2dVertex
 10
278.406342
 20
103.001442
 30
0.0
  0
VERTEX
  5
2A3
330
2A0
100
AcDbEntity
  8
0
370
     0
100
AcDbVertex
100
AcDb2dVertex
 10
278.507202
 20
102.466858
 30
0.0
  0
VERTEX
  5
2A4
330
2A0
100
AcDbEntity
  8
0
370
     0
100
AcDbVertex
100
AcDb2dVertex
 10
278.759369
 20
102.073486
 30
0.0
  0
VERTEX
  5
2A5
330
2A0
100
AcDbEntity
  8
0
370
     0
100
AcDbVertex
100
AcDb2dVertex
 10
279.147705
 20
101.836456
 30
0.0
  0
VERTEX
  5
2A6
330
2A0
100
AcDbEntity
  8
0
370
     0
100
AcDbVertex
100
AcDb2dVertex
 10
279.67218
 20
101.750725
 30
0.0
  0
VERTEX
  5
2A7
330
2A0
100
AcDbEntity
  8
0
370
     0
100
AcDbVertex
100
AcDb2dVertex
 10
280.19165
 20
101.831413
 30
0.0
  0
VERTEX
  5
2A8
330
2A0
100
AcDbEntity
  8
0
370
     0
100
AcDbVertex
100
AcDb2dVertex
 10
280.579956
 20
102.053314
 30
0.0
  0
VERTEX
  5
2A9
330
2A0
100
AcDbEntity
  8
0
370
     0
100
AcDbVertex
100
AcDb2dVertex
 10
280.827087
 20
102.401299
 30
0.0
  0
VERTEX
  5
2AA
330
2A0
100
AcDbEntity
  8
0
370
     0
100
AcDbVertex
100
AcDb2dVertex
 10
280.917877
 20
102.860229
 30
0.0
  0
VERTEX
  5
2AB
330
2A0
100
AcDbEntity
  8
0
370
     0
100
AcDbVertex
100
AcDb2dVertex
 10
280.842224
 20
103.273773
 30
0.0
  0
VERTEX
  5
2AC
330
2A0
100
AcDbEntity
  8
0
370
     0
100
AcDbVertex
100
AcDb2dVertex
 10
280.630402
 20
103.541069
 30
0.0
  0
VERTEX
  5
2AD
330
2A0
100
AcDbEntity
  8
0
370
     0
100
AcDbVertex
100
AcDb2dVertex
 10
280.287476
 20
103.717583
 30
0.0
  0
VERTEX
  5
2AE
330
2A0
100
AcDbEntity
  8
0
370
     0
100
AcDbVertex
100
AcDb2dVertex
 10
279.828522
 20
103.848701
 30
0.0
  0
VERTEX
  5
2AF
330
2A0
100
AcDbEntity
  8
0
370
     0
100
AcDbVertex
100
AcDb2dVertex
 10
279.43515
 20
103.944527
 30
0.0
  0
VERTEX
  5
2B0
330
2A0
100
AcDbEntity
  8
0
370
     0
100
AcDbVertex
100
AcDb2dVertex
 10
279.177948
 20
104.055473
 30
0.0
  0
VERTEX
  5
2B1
330
2A0
100
AcDbEntity
  8
0
370
     0
100
AcDbVertex
100
AcDb2dVertex
 10
279.031708
 20
104.216858
 30
0.0
  0
VERTEX
  5
2B2
330
2A0
100
AcDbEntity
  8
0
370
     0
100
AcDbVertex
100
AcDb2dVertex
 10
278.986298
 20
104.469025
 30
0.0
  0
VERTEX
  5
2B3
330
2A0
100
AcDbEntity
  8
0
370
     0
100
AcDbVertex
100
AcDb2dVertex
 10
279.031708
 20
104.695969
 30
0.0
  0
VERTEX
  5
2B4
330
2A0
100
AcDbEntity
  8
0
370
     0
100
AcDbVertex
100
AcDb2dVertex
 10
279.162811
 20
104.867439
 30
0.0
  0
VERTEX
  5
2B5
330
2A0
100
AcDbEntity
  8
0
370
     0
100
AcDbVertex
100
AcDb2dVertex
 10
279.364563
 20
104.983429
 30
0.0
  0
VERTEX
  5
2B6
330
2A0
100
AcDbEntity
  8
0
370
     0
100
AcDbVertex
100
AcDb2dVertex
 10
279.641937
 20
105.023773
 30
0.0
  0
VERTEX
  5
2B7
330
2A0
100
AcDbEntity
  8
0
370
     0
100
AcDbVertex
100
AcDb2dVertex
 10
279.924347
 20
104.973343
 30
0.0
  0
VERTEX
  5
2B8
330
2A0
100
AcDbEntity
  8
0
370
     0
100
AcDbVertex
100
AcDb2dVertex
 10
280.14624
 20
104.837173
 30
0.0
  0
VERTEX
  5
2B9
330
2A0
100
AcDbEntity
  8
0
370
     0
100
AcDbVertex
100
AcDb2dVertex
 10
280.292511
 20
104.610229
 30
0.0
  0
VERTEX
  5
2BA
330
2A0
100
AcDbEntity
  8
0
370
     0
100
AcDbVertex
100
AcDb2dVertex
 10
280.363098
 20
104.302597
 30
0.0
  0
VERTEX
  5
2BB
330
2A0
100
AcDbEntity
  8
0
370
     0
100
AcDbVertex
100
AcDb2dVertex
 10
280.822052
 20
104.302597
 30
0.0
  0
VERTEX
  5
2BC
330
2A0
100
AcDbEntity
  8
0
370
     0
100
AcDbVertex
100
AcDb2dVertex
 10
280.822052
 20
104.312683
 30
0.0
  0
VERTEX
  5
2BD
330
2A0
100
AcDbEntity
  8
0
370
     0
100
AcDbVertex
100
AcDb2dVertex
 10
280.741364
 20
104.786743
 30
0.0
  0
VERTEX
  5
2BE
330
2A0
100
AcDbEntity
  8
0
370
     0
100
AcDbVertex
100
AcDb2dVertex
 10
280.504333
 20
105.139771
 30
0.0
  0
VERTEX
  5
2BF
330
2A0
100
AcDbEntity
  8
0
370
     0
100
AcDbVertex
100
AcDb2dVertex
 10
280.131134
 20
105.361671
 30
0.0
  0
VERTEX
  5
2C0
330
2A0
100
AcDbEntity
  8
0
370
     0
100
AcDbVertex
100
AcDb2dVertex
 10
279.626801
 20
105.437317
 30
0.0
  0
VERTEX
  5
2C1
330
2A0
100
AcDbEntity
  8
0
370
     0
100
AcDbVertex
100
AcDb2dVertex
 10
279.172913
 20
105.361671
 30
0.0
  0
VERTEX
  5
2C2
330
2A0
100
AcDbEntity
  8
0
370
     0
100
AcDbVertex
100
AcDb2dVertex
 10
278.819885
 20
105.149857
 30
0.0
  0
VERTEX
  5
2C3
330
2A0
100
AcDbEntity
  8
0
370
     0
100
AcDbVertex
100
AcDb2dVertex
 10
278.592926
 20
104.822044
 30
0.0
  0
VERTEX
  5
2C4
330
2A0
100
AcDbEntity
  8
0
370
     0
100
AcDbVertex
100
AcDb2dVertex
 10
278.512238
 20
104.398415
 30
0.0
  0
VERTEX
  5
2C5
330
2A0
100
AcDbEntity
  8
0
370
     0
100
AcDbVertex
100
AcDb2dVertex
 10
278.57782
 20
104.020172
 30
0.0
  0
VERTEX
  5
2C6
330
2A0
100
AcDbEntity
  8
0
370
     0
100
AcDbVertex
100
AcDb2dVertex
 10
278.76944
 20
103.76297
 30
0.0
  0
VERTEX
  5
2C7
330
2A0
100
AcDbEntity
  8
0
370
     0
100
AcDbVertex
100
AcDb2dVertex
 10
279.072052
 20
103.591499
 30
0.0
  0
VERTEX
  5
2C8
330
2A0
100
AcDbEntity
  8
0
370
     0
100
AcDbVertex
100
AcDb2dVertex
 10
279.485596
 20
103.460373
 30
0.0
  0
VERTEX
  5
2C9
330
2A0
100
AcDbEntity
  8
0
370
     0
100
AcDbVertex
100
AcDb2dVertex
 10
279.894104
 20
103.344383
 30
0.0
  0
VERTEX
  5
2CA
330
2A0
100
AcDbEntity
  8
0
370
     0
100
AcDbVertex
100
AcDb2dVertex
 10
280.201721
 20
103.233429
 30
0.0
  0
VERTEX
  5
2CB
330
2A0
100
AcDbEntity
  8
0
370
     0
100
AcDbVertex
100
AcDb2dVertex
 10
280.388336
 20
103.072044
 30
0.0
  0
VERTEX
  5
2CC
330
2A0
100
AcDbEntity
  8
0
370
     0
100
AcDbVertex
100
AcDb2dVertex
 10
280.453888
 20
102.809799
 30
0.0
  0
VERTEX
  5
2CD
330
2A0
100
AcDbEntity
  8
0
370
     0
100
AcDbVertex
100
AcDb2dVertex
 10
280.393372
 20
102.542511
 30
0.0
  0
VERTEX
  5
2CE
330
2A0
100
AcDbEntity
  8
0
370
     0
100
AcDbVertex
100
AcDb2dVertex
 10
280.23703
 20
102.340782
 30
0.0
  0
VERTEX
  5
2CF
330
2A0
100
AcDbEntity
  8
0
370
     0
100
AcDbVertex
100
AcDb2dVertex
 10
280.0
 20
102.214699
 30
0.0
  0
VERTEX
  5
2D0
330
2A0
100
AcDbEntity
  8
0
370
     0
100
AcDbVertex
100
AcDb2dVertex
 10
279.692352
 20
102.174355
 30
0.0
  0
VERTEX
  5
2D1
330
2A0
100
AcDbEntity
  8
0
370
     0
100
AcDbVertex
100
AcDb2dVertex
 10
279.349426
 20
102.229828
 30
0.0
  0
VERTEX
  5
2D2
330
2A0
100
AcDbEntity
  8
0
370
     0
100
AcDbVertex
100
AcDb2dVertex
 10
279.087189
 20
102.391212
 30
0.0
  0
VERTEX
  5
2D3
330
2A0
100
AcDbEntity
  8
0
370
     0
100
AcDbVertex
100
AcDb2dVertex
 10
278.920746
 20
102.653458
 30
0.0
  0
SEQEND
  5
2D4
330
2A0
100
AcDbEntity
  8
0
 62
     7
370
    13
  0
POLYLINE
  5
2D5
330
1F
100
AcDbEntity
  8
0
 62
     7
370
    13
100
AcDb2dPolyline
 66
     1
 10
0.0
 20
0.0
 30
0.0
 70
     1
  0
VERTEX
  5
2D6
330
2D5
100
AcDbEntity
  8
0
370
     0
100
AcDbVertex
100
AcDb2dVertex
 10
281.402008
 20
103.596542
 30
0.0
  0
VERTEX
  5
2D7
330
2D5
100
AcDbEntity
  8
0
370
     0
100
AcDbVertex
100
AcDb2dVertex
 10
281.492798
 20
102.809799
 30
0.0
  0
VERTEX
  5
2D8
330
2D5
100
AcDbEntity
  8
0
370
     0
100
AcDbVertex
100
AcDb2dVertex
 10
281.755035
 20
102.229828
 30
0.0
  0
VERTEX
  5
2D9
330
2D5
100
AcDbEntity
  8
0
370
     0
100
AcDbVertex
100
AcDb2dVertex
 10
282.163544
 20
101.871758
 30
0.0
  0
VERTEX
  5
2DA
330
2D5
100
AcDbEntity
  8
0
370
     0
100
AcDbVertex
100
AcDb2dVertex
 10
282.69812
 20
101.750725
 30
0.0
  0
VERTEX
  5
2DB
330
2D5
100
AcDbEntity
  8
0
370
     0
100
AcDbVertex
100
AcDb2dVertex
 10
283.227661
 20
101.871758
 30
0.0
  0
VERTEX
  5
2DC
330
2D5
100
AcDbEntity
  8
0
370
     0
100
AcDbVertex
100
AcDb2dVertex
 10
283.641205
 20
102.229828
 30
0.0
  0
VERTEX
  5
2DD
330
2D5
100
AcDbEntity
  8
0
370
     0
100
AcDbVertex
100
AcDb2dVertex
 10
283.898407
 20
102.809799
 30
0.0
  0
VERTEX
  5
2DE
330
2D5
100
AcDbEntity
  8
0
370
     0
100
AcDbVertex
100
AcDb2dVertex
 10
283.994232
 20
103.596542
 30
0.0
  0
VERTEX
  5
2DF
330
2D5
100
AcDbEntity
  8
0
370
     0
100
AcDbVertex
100
AcDb2dVertex
 10
283.898407
 20
104.378242
 30
0.0
  0
VERTEX
  5
2E0
330
2D5
100
AcDbEntity
  8
0
370
     0
100
AcDbVertex
100
AcDb2dVertex
 10
283.787476
 20
104.695969
 30
0.0
  0
VERTEX
  5
2E1
330
2D5
100
AcDbEntity
  8
0
370
     0
100
AcDbVertex
100
AcDb2dVertex
 10
283.641205
 20
104.958214
 30
0.0
  0
VERTEX
  5
2E2
330
2D5
100
AcDbEntity
  8
0
370
     0
100
AcDbVertex
100
AcDb2dVertex
 10
283.227661
 20
105.316284
 30
0.0
  0
VERTEX
  5
2E3
330
2D5
100
AcDbEntity
  8
0
370
     0
100
AcDbVertex
100
AcDb2dVertex
 10
282.975494
 20
105.407059
 30
0.0
  0
VERTEX
  5
2E4
330
2D5
100
AcDbEntity
  8
0
370
     0
100
AcDbVertex
100
AcDb2dVertex
 10
282.69812
 20
105.442368
 30
0.0
  0
VERTEX
  5
2E5
330
2D5
100
AcDbEntity
  8
0
370
     0
100
AcDbVertex
100
AcDb2dVertex
 10
282.158508
 20
105.316284
 30
0.0
  0
VERTEX
  5
2E6
330
2D5
100
AcDbEntity
  8
0
370
     0
100
AcDbVertex
100
AcDb2dVertex
 10
281.75
 20
104.963257
 30
0.0
  0
VERTEX
  5
2E7
330
2D5
100
AcDbEntity
  8
0
370
     0
100
AcDbVertex
100
AcDb2dVertex
 10
281.492798
 20
104.383286
 30
0.0
  0
SEQEND
  5
2E8
330
2D5
100
AcDbEntity
  8
0
 62
     7
370
    13
  0
POLYLINE
  5
2E9
330
1F
100
AcDbEntity
  8
0
 62
     7
370
    13
100
AcDb2dPolyline
 66
     1
 10
0.0
 20
0.0
 30
0.0
 70
     1
  0
VERTEX
  5
2EA
330
2E9
100
AcDbEntity
  8
0
370
     0
100
AcDbVertex
100
AcDb2dVertex
 10
281.886169
 20
103.596542
 30
0.0
  0
VERTEX
  5
2EB
330
2E9
100
AcDbEntity
  8
0
370
     0
100
AcDbVertex
100
AcDb2dVertex
 10
281.94165
 20
104.206772
 30
0.0
  0
VERTEX
  5
2EC
330
2E9
100
AcDbEntity
  8
0
370
     0
100
AcDbVertex
100
AcDb2dVertex
 10
282.108063
 20
104.655617
 30
0.0
  0
VERTEX
  5
2ED
330
2E9
100
AcDbEntity
  8
0
370
     0
100
AcDbVertex
100
AcDb2dVertex
 10
282.365265
 20
104.927956
 30
0.0
  0
VERTEX
  5
2EE
330
2E9
100
AcDbEntity
  8
0
370
     0
100
AcDbVertex
100
AcDb2dVertex
 10
282.69812
 20
105.023773
 30
0.0
  0
VERTEX
  5
2EF
330
2E9
100
AcDbEntity
  8
0
370
     0
100
AcDbVertex
100
AcDb2dVertex
 10
283.02594
 20
104.927956
 30
0.0
  0
VERTEX
  5
2F0
330
2E9
100
AcDbEntity
  8
0
370
     0
100
AcDbVertex
100
AcDb2dVertex
 10
283.283142
 20
104.650574
 30
0.0
  0
VERTEX
  5
2F1
330
2E9
100
AcDbEntity
  8
0
370
     0
100
AcDbVertex
100
AcDb2dVertex
 10
283.449554
 20
104.201729
 30
0.0
  0
VERTEX
  5
2F2
330
2E9
100
AcDbEntity
  8
0
370
     0
100
AcDbVertex
100
AcDb2dVertex
 10
283.510071
 20
103.596542
 30
0.0
  0
VERTEX
  5
2F3
330
2E9
100
AcDbEntity
  8
0
370
     0
100
AcDbVertex
100
AcDb2dVertex
 10
283.449554
 20
102.986313
 30
0.0
  0
VERTEX
  5
2F4
330
2E9
100
AcDbEntity
  8
0
370
     0
100
AcDbVertex
100
AcDb2dVertex
 10
283.283142
 20
102.537468
 30
0.0
  0
VERTEX
  5
2F5
330
2E9
100
AcDbEntity
  8
0
370
     0
100
AcDbVertex
100
AcDb2dVertex
 10
283.02594
 20
102.265129
 30
0.0
  0
VERTEX
  5
2F6
330
2E9
100
AcDbEntity
  8
0
370
     0
100
AcDbVertex
100
AcDb2dVertex
 10
282.69812
 20
102.174355
 30
0.0
  0
VERTEX
  5
2F7
330
2E9
100
AcDbEntity
  8
0
370
     0
100
AcDbVertex
100
AcDb2dVertex
 10
282.365265
 20
102.265129
 30
0.0
  0
VERTEX
  5
2F8
330
2E9
100
AcDbEntity
  8
0
370
     0
100
AcDbVertex
100
AcDb2dVertex
 10
282.108063
 20
102.537468
 30
0.0
  0
VERTEX
  5
2F9
330
2E9
100
AcDbEntity
  8
0
370
     0
100
AcDbVertex
100
AcDb2dVertex
 10
281.94165
 20
102.98127
 30
0.0
  0
SEQEND
  5
2FA
330
2E9
100
AcDbEntity
  8
0
 62
     7
370
    13
  0
POLYLINE
  5
2FB
330
1F
100
AcDbEntity
  8
0
 62
     7
370
    13
100
AcDb2dPolyline
 66
     1
 10
0.0
 20
0.0
 30
0.0
 70
     1
  0
VERTEX
  5
2FC
330
2FB
100
AcDbEntity
  8
0
370
     0
100
AcDbVertex
100
AcDb2dVertex
 10
284.609497
 20
101.846542
 30
0.0
  0
VERTEX
  5
2FD
330
2FB
100
AcDbEntity
  8
0
370
     0
100
AcDbVertex
100
AcDb2dVertex
 10
285.078522
 20
101.846542
 30
0.0
  0
VERTEX
  5
2FE
330
2FB
100
AcDbEntity
  8
0
370
     0
100
AcDbVertex
100
AcDb2dVertex
 10
285.078522
 20
103.324211
 30
0.0
  0
VERTEX
  5
2FF
330
2FB
100
AcDbEntity
  8
0
370
     0
100
AcDbVertex
100
AcDb2dVertex
 10
285.557648
 20
103.324211
 30
0.0
  0
VERTEX
  5
300
330
2FB
100
AcDbEntity
  8
0
370
     0
100
AcDbVertex
100
AcDb2dVertex
 10
285.910675
 20
103.309082
 30
0.0
  0
VERTEX
  5
301
330
2FB
100
AcDbEntity
  8
0
370
     0
100
AcDbVertex
100
AcDb2dVertex
 10
286.132568
 20
103.238472
 30
0.0
  0
VERTEX
  5
302
330
2FB
100
AcDbEntity
  8
0
370
     0
100
AcDbVertex
100
AcDb2dVertex
 10
286.253601
 20
103.072044
 30
0.0
  0
VERTEX
  5
303
330
2FB
100
AcDbEntity
  8
0
370
     0
100
AcDbVertex
100
AcDb2dVertex
 10
286.304047
 20
102.774498
 30
0.0
  0
VERTEX
  5
304
330
2FB
100
AcDbEntity
  8
0
370
     0
100
AcDbVertex
100
AcDb2dVertex
 10
286.329254
 20
102.320602
 30
0.0
  0
VERTEX
  5
305
330
2FB
100
AcDbEntity
  8
0
370
     0
100
AcDbVertex
100
AcDb2dVertex
 10
286.359497
 20
102.023056
 30
0.0
  0
VERTEX
  5
306
330
2FB
100
AcDbEntity
  8
0
370
     0
100
AcDbVertex
100
AcDb2dVertex
 10
286.420044
 20
101.846542
 30
0.0
  0
VERTEX
  5
307
330
2FB
100
AcDbEntity
  8
0
370
     0
100
AcDbVertex
100
AcDb2dVertex
 10
286.949554
 20
101.846542
 30
0.0
  0
VERTEX
  5
308
330
2FB
100
AcDbEntity
  8
0
370
     0
100
AcDbVertex
100
AcDb2dVertex
 10
286.949554
 20
101.94236
 30
0.0
  0
VERTEX
  5
309
330
2FB
100
AcDbEntity
  8
0
370
     0
100
AcDbVertex
100
AcDb2dVertex
 10
286.833588
 20
102.083572
 30
0.0
  0
VERTEX
  5
30A
330
2FB
100
AcDbEntity
  8
0
370
     0
100
AcDbVertex
100
AcDb2dVertex
 10
286.793213
 20
102.345825
 30
0.0
  0
VERTEX
  5
30B
330
2FB
100
AcDbEntity
  8
0
370
     0
100
AcDbVertex
100
AcDb2dVertex
 10
286.757935
 20
102.91066
 30
0.0
  0
VERTEX
  5
30C
330
2FB
100
AcDbEntity
  8
0
370
     0
100
AcDbVertex
100
AcDb2dVertex
 10
286.67218
 20
103.329254
 30
0.0
  0
VERTEX
  5
30D
330
2FB
100
AcDbEntity
  8
0
370
     0
100
AcDbVertex
100
AcDb2dVertex
 10
286.556183
 20
103.460373
 30
0.0
  0
VERTEX
  5
30E
330
2FB
100
AcDbEntity
  8
0
370
     0
100
AcDbVertex
100
AcDb2dVertex
 10
286.374634
 20
103.556198
 30
0.0
  0
VERTEX
  5
30F
330
2FB
100
AcDbEntity
  8
0
370
     0
100
AcDbVertex
100
AcDb2dVertex
 10
286.576355
 20
103.682274
 30
0.0
  0
VERTEX
  5
310
330
2FB
100
AcDbEntity
  8
0
370
     0
100
AcDbVertex
100
AcDb2dVertex
 10
286.71759
 20
103.858788
 30
0.0
  0
VERTEX
  5
311
330
2FB
100
AcDbEntity
  8
0
370
     0
100
AcDbVertex
100
AcDb2dVertex
 10
286.80835
 20
104.080688
 30
0.0
  0
VERTEX
  5
312
330
2FB
100
AcDbEntity
  8
0
370
     0
100
AcDbVertex
100
AcDb2dVertex
 10
286.838623
 20
104.347984
 30
0.0
  0
VERTEX
  5
313
330
2FB
100
AcDbEntity
  8
0
370
     0
100
AcDbVertex
100
AcDb2dVertex
 10
286.768005
 20
104.771614
 30
0.0
  0
VERTEX
  5
314
330
2FB
100
AcDbEntity
  8
0
370
     0
100
AcDbVertex
100
AcDb2dVertex
 10
286.566284
 20
105.08934
 30
0.0
  0
VERTEX
  5
315
330
2FB
100
AcDbEntity
  8
0
370
     0
100
AcDbVertex
100
AcDb2dVertex
 10
286.233429
 20
105.280983
 30
0.0
  0
VERTEX
  5
316
330
2FB
100
AcDbEntity
  8
0
370
     0
100
AcDbVertex
100
AcDb2dVertex
 10
285.779541
 20
105.346542
 30
0.0
  0
VERTEX
  5
317
330
2FB
100
AcDbEntity
  8
0
370
     0
100
AcDbVertex
100
AcDb2dVertex
 10
284.609497
 20
105.346542
 30
0.0
  0
SEQEND
  5
318
330
2FB
100
AcDbEntity
  8
0
 62
     7
370
    13
  0
POLYLINE
  5
319
330
1F
100
AcDbEntity
  8
0
 62
     7
370
    13
100
AcDb2dPolyline
 66
     1
 10
0.0
 20
0.0
 30
0.0
 70
     1
  0
VERTEX
  5
31A
330
319
100
AcDbEntity
  8
0
370
     0
100
AcDbVertex
100
AcDb2dVertex
 10
285.648407
 20
104.91787
 30
0.0
  0
VERTEX
  5
31B
330
319
100
AcDbEntity
  8
0
370
     0
100
AcDbVertex
100
AcDb2dVertex
 10
285.956055
 20
104.887611
 30
0.0
  0
VERTEX
  5
31C
330
319
100
AcDbEntity
  8
0
370
     0
100
AcDbVertex
100
AcDb2dVertex
 10
286.172913
 20
104.791786
 30
0.0
  0
VERTEX
  5
31D
330
319
100
AcDbEntity
  8
0
370
     0
100
AcDbVertex
100
AcDb2dVertex
 10
286.309082
 20
104.615273
 30
0.0
  0
VERTEX
  5
31E
330
319
100
AcDbEntity
  8
0
370
     0
100
AcDbVertex
100
AcDb2dVertex
 10
286.354462
 20
104.337898
 30
0.0
  0
VERTEX
  5
31F
330
319
100
AcDbEntity
  8
0
370
     0
100
AcDbVertex
100
AcDb2dVertex
 10
286.304047
 20
104.045387
 30
0.0
  0
VERTEX
  5
320
330
319
100
AcDbEntity
  8
0
370
     0
100
AcDbVertex
100
AcDb2dVertex
 10
286.167877
 20
103.868874
 30
0.0
  0
VERTEX
  5
321
330
319
100
AcDbEntity
  8
0
370
     0
100
AcDbVertex
100
AcDb2dVertex
 10
285.935883
 20
103.778099
 30
0.0
  0
VERTEX
  5
322
330
319
100
AcDbEntity
  8
0
370
     0
100
AcDbVertex
100
AcDb2dVertex
 10
285.618164
 20
103.752884
 30
0.0
  0
VERTEX
  5
323
330
319
100
AcDbEntity
  8
0
370
     0
100
AcDbVertex
100
AcDb2dVertex
 10
285.078522
 20
103.752884
 30
0.0
  0
VERTEX
  5
324
330
319
100
AcDbEntity
  8
0
370
     0
100
AcDbVertex
100
AcDb2dVertex
 10
285.078522
 20
104.91787
 30
0.0
  0
SEQEND
  5
325
330
319
100
AcDbEntity
  8
0
 62
     7
370
    13
  0
POLYLINE
  5
326
330
1F
100
AcDbEntity
  8
0
 62
     7
370
    13
100
AcDb2dPolyline
 66
     1
 10
0.0
 20
0.0
 30
0.0
 70
     1
  0
VERTEX
  5
327
330
326
100
AcDbEntity
  8
0
370
     0
100
AcDbVertex
100
AcDb2dVertex
 10
290.535309
 20
102.945969
 30
0.0
  0
VERTEX
  5
328
330
326
100
AcDbEntity
  8
0
370
     0
100
AcDbVertex
100
AcDb2dVertex
 10
290.535309
 20
102.91066
 30
0.0
  0
VERTEX
  5
329
330
326
100
AcDbEntity
  8
0
370
     0
100
AcDbVertex
100
AcDb2dVertex
 10
290.615997
 20
102.426514
 30
0.0
  0
VERTEX
  5
32A
330
326
100
AcDbEntity
  8
0
370
     0
100
AcDbVertex
100
AcDb2dVertex
 10
290.853027
 20
102.0634
 30
0.0
  0
VERTEX
  5
32B
330
326
100
AcDbEntity
  8
0
370
     0
100
AcDbVertex
100
AcDb2dVertex
 10
291.226227
 20
101.831413
 30
0.0
  0
VERTEX
  5
32C
330
326
100
AcDbEntity
  8
0
370
     0
100
AcDbVertex
100
AcDb2dVertex
 10
291.720459
 20
101.745674
 30
0.0
  0
VERTEX
  5
32D
330
326
100
AcDbEntity
  8
0
370
     0
100
AcDbVertex
100
AcDb2dVertex
 10
292.244965
 20
101.831413
 30
0.0
  0
VERTEX
  5
32E
330
326
100
AcDbEntity
  8
0
370
     0
100
AcDbVertex
100
AcDb2dVertex
 10
292.638336
 20
102.053314
 30
0.0
  0
VERTEX
  5
32F
330
326
100
AcDbEntity
  8
0
370
     0
100
AcDbVertex
100
AcDb2dVertex
 10
292.890503
 20
102.406342
 30
0.0
  0
VERTEX
  5
330
330
326
100
AcDbEntity
  8
0
370
     0
100
AcDbVertex
100
AcDb2dVertex
 10
292.981262
 20
102.860229
 30
0.0
  0
VERTEX
  5
331
330
326
100
AcDbEntity
  8
0
370
     0
100
AcDbVertex
100
AcDb2dVertex
 10
292.940918
 20
103.157784
 30
0.0
  0
VERTEX
  5
332
330
326
100
AcDbEntity
  8
0
370
     0
100
AcDbVertex
100
AcDb2dVertex
 10
292.829956
 20
103.399857
 30
0.0
  0
VERTEX
  5
333
330
326
100
AcDbEntity
  8
0
370
     0
100
AcDbVertex
100
AcDb2dVertex
 10
292.648407
 20
103.586456
 30
0.0
  0
VERTEX
  5
334
330
326
100
AcDbEntity
  8
0
370
     0
100
AcDbVertex
100
AcDb2dVertex
 10
292.406342
 20
103.722626
 30
0.0
  0
VERTEX
  5
335
330
326
100
AcDbEntity
  8
0
370
     0
100
AcDbVertex
100
AcDb2dVertex
 10
292.734161
 20
103.994957
 30
0.0
  0
VERTEX
  5
336
330
326
100
AcDbEntity
  8
0
370
     0
100
AcDbVertex
100
AcDb2dVertex
 10
292.850159
 20
104.428673
 30
0.0
  0
VERTEX
  5
337
330
326
100
AcDbEntity
  8
0
370
     0
100
AcDbVertex
100
AcDb2dVertex
 10
292.774506
 20
104.822044
 30
0.0
  0
VERTEX
  5
338
330
326
100
AcDbEntity
  8
0
370
     0
100
AcDbVertex
100
AcDb2dVertex
 10
292.557648
 20
105.119598
 30
0.0
  0
VERTEX
  5
339
330
326
100
AcDbEntity
  8
0
370
     0
100
AcDbVertex
100
AcDb2dVertex
 10
292.20462
 20
105.306198
 30
0.0
  0
VERTEX
  5
33A
330
326
100
AcDbEntity
  8
0
370
     0
100
AcDbVertex
100
AcDb2dVertex
 10
291.720459
 20
105.371758
 30
0.0
  0
VERTEX
  5
33B
330
326
100
AcDbEntity
  8
0
370
     0
100
AcDbVertex
100
AcDb2dVertex
 10
291.266571
 20
105.291069
 30
0.0
  0
VERTEX
  5
33C
330
326
100
AcDbEntity
  8
0
370
     0
100
AcDbVertex
100
AcDb2dVertex
 10
290.918579
 20
105.069168
 30
0.0
  0
VERTEX
  5
33D
330
326
100
AcDbEntity
  8
0
370
     0
100
AcDbVertex
100
AcDb2dVertex
 10
290.69165
 20
104.716141
 30
0.0
  0
VERTEX
  5
33E
330
326
100
AcDbEntity
  8
0
370
     0
100
AcDbVertex
100
AcDb2dVertex
 10
290.615997
 20
104.247116
 30
0.0
  0
VERTEX
  5
33F
330
326
100
AcDbEntity
  8
0
370
     0
100
AcDbVertex
100
AcDb2dVertex
 10
290.615997
 20
104.211815
 30
0.0
  0
VERTEX
  5
340
330
326
100
AcDbEntity
  8
0
370
     0
100
AcDbVertex
100
AcDb2dVertex
 10
291.06485
 20
104.211815
 30
0.0
  0
VERTEX
  5
341
330
326
100
AcDbEntity
  8
0
370
     0
100
AcDbVertex
100
AcDb2dVertex
 10
291.105194
 20
104.534584
 30
0.0
  0
VERTEX
  5
342
330
326
100
AcDbEntity
  8
0
370
     0
100
AcDbVertex
100
AcDb2dVertex
 10
291.236328
 20
104.766571
 30
0.0
  0
VERTEX
  5
343
330
326
100
AcDbEntity
  8
0
370
     0
100
AcDbVertex
100
AcDb2dVertex
 10
291.44812
 20
104.907784
 30
0.0
  0
VERTEX
  5
344
330
326
100
AcDbEntity
  8
0
370
     0
100
AcDbVertex
100
AcDb2dVertex
 10
291.745667
 20
104.958214
 30
0.0
  0
VERTEX
  5
345
330
326
100
AcDbEntity
  8
0
370
     0
100
AcDbVertex
100
AcDb2dVertex
 10
292.007935
 20
104.91787
 30
0.0
  0
VERTEX
  5
346
330
326
100
AcDbEntity
  8
0
370
     0
100
AcDbVertex
100
AcDb2dVertex
 10
292.199554
 20
104.811958
 30
0.0
  0
VERTEX
  5
347
330
326
100
AcDbEntity
  8
0
370
     0
100
AcDbVertex
100
AcDb2dVertex
 10
292.315552
 20
104.640488
 30
0.0
  0
VERTEX
  5
348
330
326
100
AcDbEntity
  8
0
370
     0
100
AcDbVertex
100
AcDb2dVertex
 10
292.360962
 20
104.408501
 30
0.0
  0
VERTEX
  5
349
330
326
100
AcDbEntity
  8
0
370
     0
100
AcDbVertex
100
AcDb2dVertex
 10
292.315552
 20
104.161385
 30
0.0
  0
VERTEX
  5
34A
330
326
100
AcDbEntity
  8
0
370
     0
100
AcDbVertex
100
AcDb2dVertex
 10
292.194519
 20
103.994957
 30
0.0
  0
VERTEX
  5
34B
330
326
100
AcDbEntity
  8
0
370
     0
100
AcDbVertex
100
AcDb2dVertex
 10
291.982697
 20
103.894096
 30
0.0
  0
VERTEX
  5
34C
330
326
100
AcDbEntity
  8
0
370
     0
100
AcDbVertex
100
AcDb2dVertex
 10
291.695251
 20
103.863831
 30
0.0
  0
VERTEX
  5
34D
330
326
100
AcDbEntity
  8
0
370
     0
100
AcDbVertex
100
AcDb2dVertex
 10
291.498566
 20
103.868874
 30
0.0
  0
VERTEX
  5
34E
330
326
100
AcDbEntity
  8
0
370
     0
100
AcDbVertex
100
AcDb2dVertex
 10
291.498566
 20
103.470459
 30
0.0
  0
VERTEX
  5
34F
330
326
100
AcDbEntity
  8
0
370
     0
100
AcDbVertex
100
AcDb2dVertex
 10
291.745667
 20
103.480545
 30
0.0
  0
VERTEX
  5
350
330
326
100
AcDbEntity
  8
0
370
     0
100
AcDbVertex
100
AcDb2dVertex
 10
292.063416
 20
103.435158
 30
0.0
  0
VERTEX
  5
351
330
326
100
AcDbEntity
  8
0
370
     0
100
AcDbVertex
100
AcDb2dVertex
 10
292.300446
 20
103.314125
 30
0.0
  0
VERTEX
  5
352
330
326
100
AcDbEntity
  8
0
370
     0
100
AcDbVertex
100
AcDb2dVertex
 10
292.44165
 20
103.117439
 30
0.0
  0
VERTEX
  5
353
330
326
100
AcDbEntity
  8
0
370
     0
100
AcDbVertex
100
AcDb2dVertex
 10
292.492065
 20
102.860229
 30
0.0
  0
VERTEX
  5
354
330
326
100
AcDbEntity
  8
0
370
     0
100
AcDbVertex
100
AcDb2dVertex
 10
292.436584
 20
102.567726
 30
0.0
  0
VERTEX
  5
355
330
326
100
AcDbEntity
  8
0
370
     0
100
AcDbVertex
100
AcDb2dVertex
 10
292.290344
 20
102.350868
 30
0.0
  0
VERTEX
  5
356
330
326
100
AcDbEntity
  8
0
370
     0
100
AcDbVertex
100
AcDb2dVertex
 10
292.05835
 20
102.214699
 30
0.0
  0
VERTEX
  5
357
330
326
100
AcDbEntity
  8
0
370
     0
100
AcDbVertex
100
AcDb2dVertex
 10
291.750732
 20
102.169312
 30
0.0
  0
VERTEX
  5
358
330
326
100
AcDbEntity
  8
0
370
     0
100
AcDbVertex
100
AcDb2dVertex
 10
291.432983
 20
102.219742
 30
0.0
  0
VERTEX
  5
359
330
326
100
AcDbEntity
  8
0
370
     0
100
AcDbVertex
100
AcDb2dVertex
 10
291.201019
 20
102.37104
 30
0.0
  0
VERTEX
  5
35A
330
326
100
AcDbEntity
  8
0
370
     0
100
AcDbVertex
100
AcDb2dVertex
 10
291.054749
 20
102.613113
 30
0.0
  0
VERTEX
  5
35B
330
326
100
AcDbEntity
  8
0
370
     0
100
AcDbVertex
100
AcDb2dVertex
 10
290.999268
 20
102.945969
 30
0.0
  0
SEQEND
  5
35C
330
326
100
AcDbEntity
  8
0
 62
     7
370
    13
  0
POLYLINE
  5
35D
330
1F
100
AcDbEntity
  8
0
 62
     7
370
    13
100
AcDb2dPolyline
 66
     1
 10
0.0
 20
0.0
 30
0.0
 70
     1
  0
VERTEX
  5
35E
330
35D
100
AcDbEntity
  8
0
370
     0
100
AcDbVertex
100
AcDb2dVertex
 10
294.494232
 20
101.846542
 30
0.0
  0
VERTEX
  5
35F
330
35D
100
AcDbEntity
  8
0
370
     0
100
AcDbVertex
100
AcDb2dVertex
 10
295.190186
 20
101.846542
 30
0.0
  0
VERTEX
  5
360
330
35D
100
AcDbEntity
  8
0
370
     0
100
AcDbVertex
100
AcDb2dVertex
 10
295.190186
 20
102.597984
 30
0.0
  0
VERTEX
  5
361
330
35D
100
AcDbEntity
  8
0
370
     0
100
AcDbVertex
100
AcDb2dVertex
 10
294.494232
 20
102.597984
 30
0.0
  0
SEQEND
  5
362
330
35D
100
AcDbEntity
  8
0
 62
     7
370
    13
  0
POLYLINE
  5
363
330
1F
100
AcDbEntity
  8
0
 62
     7
370
    13
100
AcDb2dPolyline
 66
     1
 10
0.0
 20
0.0
 30
0.0
 70
     1
  0
VERTEX
  5
364
330
363
100
AcDbEntity
  8
0
370
     0
100
AcDbVertex
100
AcDb2dVertex
 10
296.647705
 20
101.846542
 30
0.0
  0
VERTEX
  5
365
330
363
100
AcDbEntity
  8
0
370
     0
100
AcDbVertex
100
AcDb2dVertex
 10
299.053314
 20
101.846542
 30
0.0
  0
VERTEX
  5
366
330
363
100
AcDbEntity
  8
0
370
     0
100
AcDbVertex
100
AcDb2dVertex
 10
299.053314
 20
102.280258
 30
0.0
  0
VERTEX
  5
367
330
363
100
AcDbEntity
  8
0
370
     0
100
AcDbVertex
100
AcDb2dVertex
 10
297.152008
 20
102.280258
 30
0.0
  0
VERTEX
  5
368
330
363
100
AcDbEntity
  8
0
370
     0
100
AcDbVertex
100
AcDb2dVertex
 10
297.257935
 20
102.517288
 30
0.0
  0
VERTEX
  5
369
330
363
100
AcDbEntity
  8
0
370
     0
100
AcDbVertex
100
AcDb2dVertex
 10
297.439484
 20
102.713974
 30
0.0
  0
VERTEX
  5
36A
330
363
100
AcDbEntity
  8
0
370
     0
100
AcDbVertex
100
AcDb2dVertex
 10
297.999268
 20
103.072044
 30
0.0
  0
VERTEX
  5
36B
330
363
100
AcDbEntity
  8
0
370
     0
100
AcDbVertex
100
AcDb2dVertex
 10
298.296814
 20
103.223343
 30
0.0
  0
VERTEX
  5
36C
330
363
100
AcDbEntity
  8
0
370
     0
100
AcDbVertex
100
AcDb2dVertex
 10
298.629669
 20
103.440201
 30
0.0
  0
VERTEX
  5
36D
330
363
100
AcDbEntity
  8
0
370
     0
100
AcDbVertex
100
AcDb2dVertex
 10
298.866699
 20
103.692368
 30
0.0
  0
VERTEX
  5
36E
330
363
100
AcDbEntity
  8
0
370
     0
100
AcDbVertex
100
AcDb2dVertex
 10
299.002869
 20
103.989914
 30
0.0
  0
VERTEX
  5
36F
330
363
100
AcDbEntity
  8
0
370
     0
100
AcDbVertex
100
AcDb2dVertex
 10
299.053314
 20
104.327812
 30
0.0
  0
VERTEX
  5
370
330
363
100
AcDbEntity
  8
0
370
     0
100
AcDbVertex
100
AcDb2dVertex
 10
298.96759
 20
104.751442
 30
0.0
  0
VERTEX
  5
371
330
363
100
AcDbEntity
  8
0
370
     0
100
AcDbVertex
100
AcDb2dVertex
 10
298.73053
 20
105.084297
 30
0.0
  0
VERTEX
  5
372
330
363
100
AcDbEntity
  8
0
370
     0
100
AcDbVertex
100
AcDb2dVertex
 10
298.367432
 20
105.296112
 30
0.0
  0
VERTEX
  5
373
330
363
100
AcDbEntity
  8
0
370
     0
100
AcDbVertex
100
AcDb2dVertex
 10
297.898407
 20
105.371758
 30
0.0
  0
VERTEX
  5
374
330
363
100
AcDbEntity
  8
0
370
     0
100
AcDbVertex
100
AcDb2dVertex
 10
297.414276
 20
105.286026
 30
0.0
  0
VERTEX
  5
375
330
363
100
AcDbEntity
  8
0
370
     0
100
AcDbVertex
100
AcDb2dVertex
 10
297.046112
 20
105.048988
 30
0.0
  0
VERTEX
  5
376
330
363
100
AcDbEntity
  8
0
370
     0
100
AcDbVertex
100
AcDb2dVertex
 10
296.809082
 20
104.670753
 30
0.0
  0
VERTEX
  5
377
330
363
100
AcDbEntity
  8
0
370
     0
100
AcDbVertex
100
AcDb2dVertex
 10
296.728394
 20
104.171471
 30
0.0
  0
VERTEX
  5
378
330
363
100
AcDbEntity
  8
0
370
     0
100
AcDbVertex
100
AcDb2dVertex
 10
296.728394
 20
104.100868
 30
0.0
  0
VERTEX
  5
379
330
363
100
AcDbEntity
  8
0
370
     0
100
AcDbVertex
100
AcDb2dVertex
 10
297.187317
 20
104.100868
 30
0.0
  0
VERTEX
  5
37A
330
363
100
AcDbEntity
  8
0
370
     0
100
AcDbVertex
100
AcDb2dVertex
 10
297.187317
 20
104.141212
 30
0.0
  0
VERTEX
  5
37B
330
363
100
AcDbEntity
  8
0
370
     0
100
AcDbVertex
100
AcDb2dVertex
 10
297.232697
 20
104.484154
 30
0.0
  0
VERTEX
  5
37C
330
363
100
AcDbEntity
  8
0
370
     0
100
AcDbVertex
100
AcDb2dVertex
 10
297.368866
 20
104.736313
 30
0.0
  0
VERTEX
  5
37D
330
363
100
AcDbEntity
  8
0
370
     0
100
AcDbVertex
100
AcDb2dVertex
 10
297.585724
 20
104.897697
 30
0.0
  0
VERTEX
  5
37E
330
363
100
AcDbEntity
  8
0
370
     0
100
AcDbVertex
100
AcDb2dVertex
 10
297.873199
 20
104.953171
 30
0.0
  0
VERTEX
  5
37F
330
363
100
AcDbEntity
  8
0
370
     0
100
AcDbVertex
100
AcDb2dVertex
 10
298.16571
 20
104.90274
 30
0.0
  0
VERTEX
  5
380
330
363
100
AcDbEntity
  8
0
370
     0
100
AcDbVertex
100
AcDb2dVertex
 10
298.382568
 20
104.776657
 30
0.0
  0
VERTEX
  5
381
330
363
100
AcDbEntity
  8
0
370
     0
100
AcDbVertex
100
AcDb2dVertex
 10
298.523773
 20
104.579971
 30
0.0
  0
VERTEX
  5
382
330
363
100
AcDbEntity
  8
0
370
     0
100
AcDbVertex
100
AcDb2dVertex
 10
298.574219
 20
104.332855
 30
0.0
  0
VERTEX
  5
383
330
363
100
AcDbEntity
  8
0
370
     0
100
AcDbVertex
100
AcDb2dVertex
 10
298.53891
 20
104.100868
 30
0.0
  0
VERTEX
  5
384
330
363
100
AcDbEntity
  8
0
370
     0
100
AcDbVertex
100
AcDb2dVertex
 10
298.443085
 20
103.904182
 30
0.0
  0
VERTEX
  5
385
330
363
100
AcDbEntity
  8
0
370
     0
100
AcDbVertex
100
AcDb2dVertex
 10
298.281708
 20
103.732712
 30
0.0
  0
VERTEX
  5
386
330
363
100
AcDbEntity
  8
0
370
     0
100
AcDbVertex
100
AcDb2dVertex
 10
298.059784
 20
103.581413
 30
0.0
  0
VERTEX
  5
387
330
363
100
AcDbEntity
  8
0
370
     0
100
AcDbVertex
100
AcDb2dVertex
 10
297.762238
 20
103.420029
 30
0.0
  0
VERTEX
  5
388
330
363
100
AcDbEntity
  8
0
370
     0
100
AcDbVertex
100
AcDb2dVertex
 10
297.268005
 20
103.107346
 30
0.0
  0
VERTEX
  5
389
330
363
100
AcDbEntity
  8
0
370
     0
100
AcDbVertex
100
AcDb2dVertex
 10
296.920044
 20
102.774498
 30
0.0
  0
VERTEX
  5
38A
330
363
100
AcDbEntity
  8
0
370
     0
100
AcDbVertex
100
AcDb2dVertex
 10
296.713257
 20
102.37104
 30
0.0
  0
VERTEX
  5
38B
330
363
100
AcDbEntity
  8
0
370
     0
100
AcDbVertex
100
AcDb2dVertex
 10
296.647705
 20
101.861671
 30
0.0
  0
SEQEND
  5
38C
330
363
100
AcDbEntity
  8
0
 62
     7
370
    13
  0
POLYLINE
  5
38D
330
1F
100
AcDbEntity
  8
0
 62
     7
370
    13
100
AcDb2dPolyline
 66
     1
 10
0.0
 20
0.0
 30
0.0
 70
     1
  0
VERTEX
  5
38E
330
38D
100
AcDbEntity
  8
0
370
     0
100
AcDbVertex
100
AcDb2dVertex
 10
299.693787
 20
101.846542
 30
0.0
  0
VERTEX
  5
38F
330
38D
100
AcDbEntity
  8
0
370
     0
100
AcDbVertex
100
AcDb2dVertex
 10
300.102295
 20
101.846542
 30
0.0
  0
VERTEX
  5
390
330
38D
100
AcDbEntity
  8
0
370
     0
100
AcDbVertex
100
AcDb2dVertex
 10
300.102295
 20
103.657059
 30
0.0
  0
VERTEX
  5
391
330
38D
100
AcDbEntity
  8
0
370
     0
100
AcDbVertex
100
AcDb2dVertex
 10
300.127533
 20
103.929398
 30
0.0
  0
VERTEX
  5
392
330
38D
100
AcDbEntity
  8
0
370
     0
100
AcDbVertex
100
AcDb2dVertex
 10
300.203156
 20
104.126083
 30
0.0
  0
VERTEX
  5
393
330
38D
100
AcDbEntity
  8
0
370
     0
100
AcDbVertex
100
AcDb2dVertex
 10
300.319153
 20
104.242073
 30
0.0
  0
VERTEX
  5
394
330
38D
100
AcDbEntity
  8
0
370
     0
100
AcDbVertex
100
AcDb2dVertex
 10
300.470459
 20
104.287468
 30
0.0
  0
VERTEX
  5
395
330
38D
100
AcDbEntity
  8
0
370
     0
100
AcDbVertex
100
AcDb2dVertex
 10
300.591492
 20
104.247116
 30
0.0
  0
VERTEX
  5
396
330
38D
100
AcDbEntity
  8
0
370
     0
100
AcDbVertex
100
AcDb2dVertex
 10
300.67218
 20
104.146255
 30
0.0
  0
VERTEX
  5
397
330
38D
100
AcDbEntity
  8
0
370
     0
100
AcDbVertex
100
AcDb2dVertex
 10
300.712524
 20
103.974785
 30
0.0
  0
VERTEX
  5
398
330
38D
100
AcDbEntity
  8
0
370
     0
100
AcDbVertex
100
AcDb2dVertex
 10
300.727661
 20
103.747841
 30
0.0
  0
VERTEX
  5
399
330
38D
100
AcDbEntity
  8
0
370
     0
100
AcDbVertex
100
AcDb2dVertex
 10
300.727661
 20
101.846542
 30
0.0
  0
VERTEX
  5
39A
330
38D
100
AcDbEntity
  8
0
370
     0
100
AcDbVertex
100
AcDb2dVertex
 10
301.110962
 20
101.846542
 30
0.0
  0
VERTEX
  5
39B
330
38D
100
AcDbEntity
  8
0
370
     0
100
AcDbVertex
100
AcDb2dVertex
 10
301.110962
 20
103.657059
 30
0.0
  0
VERTEX
  5
39C
330
38D
100
AcDbEntity
  8
0
370
     0
100
AcDbVertex
100
AcDb2dVertex
 10
301.136169
 20
103.924355
 30
0.0
  0
VERTEX
  5
39D
330
38D
100
AcDbEntity
  8
0
370
     0
100
AcDbVertex
100
AcDb2dVertex
 10
301.211823
 20
104.12104
 30
0.0
  0
VERTEX
  5
39E
330
38D
100
AcDbEntity
  8
0
370
     0
100
AcDbVertex
100
AcDb2dVertex
 10
301.332855
 20
104.242073
 30
0.0
  0
VERTEX
  5
39F
330
38D
100
AcDbEntity
  8
0
370
     0
100
AcDbVertex
100
AcDb2dVertex
 10
301.484131
 20
104.287468
 30
0.0
  0
VERTEX
  5
3A0
330
38D
100
AcDbEntity
  8
0
370
     0
100
AcDbVertex
100
AcDb2dVertex
 10
301.605194
 20
104.247116
 30
0.0
  0
VERTEX
  5
3A1
330
38D
100
AcDbEntity
  8
0
370
     0
100
AcDbVertex
100
AcDb2dVertex
 10
301.685883
 20
104.146255
 30
0.0
  0
VERTEX
  5
3A2
330
38D
100
AcDbEntity
  8
0
370
     0
100
AcDbVertex
100
AcDb2dVertex
 10
301.736298
 20
103.747841
 30
0.0
  0
VERTEX
  5
3A3
330
38D
100
AcDbEntity
  8
0
370
     0
100
AcDbVertex
100
AcDb2dVertex
 10
301.736298
 20
101.846542
 30
0.0
  0
VERTEX
  5
3A4
330
38D
100
AcDbEntity
  8
0
370
     0
100
AcDbVertex
100
AcDb2dVertex
 10
302.144806
 20
101.846542
 30
0.0
  0
VERTEX
  5
3A5
330
38D
100
AcDbEntity
  8
0
370
     0
100
AcDbVertex
100
AcDb2dVertex
 10
302.144806
 20
103.717583
 30
0.0
  0
VERTEX
  5
3A6
330
38D
100
AcDbEntity
  8
0
370
     0
100
AcDbVertex
100
AcDb2dVertex
 10
302.119598
 20
104.105911
 30
0.0
  0
VERTEX
  5
3A7
330
38D
100
AcDbEntity
  8
0
370
     0
100
AcDbVertex
100
AcDb2dVertex
 10
302.03891
 20
104.403458
 30
0.0
  0
VERTEX
  5
3A8
330
38D
100
AcDbEntity
  8
0
370
     0
100
AcDbVertex
100
AcDb2dVertex
 10
301.877502
 20
104.585014
 30
0.0
  0
VERTEX
  5
3A9
330
38D
100
AcDbEntity
  8
0
370
     0
100
AcDbVertex
100
AcDb2dVertex
 10
301.615265
 20
104.650574
 30
0.0
  0
VERTEX
  5
3AA
330
38D
100
AcDbEntity
  8
0
370
     0
100
AcDbVertex
100
AcDb2dVertex
 10
301.307648
 20
104.549713
 30
0.0
  0
VERTEX
  5
3AB
330
38D
100
AcDbEntity
  8
0
370
     0
100
AcDbVertex
100
AcDb2dVertex
 10
301.070618
 20
104.257202
 30
0.0
  0
VERTEX
  5
3AC
330
38D
100
AcDbEntity
  8
0
370
     0
100
AcDbVertex
100
AcDb2dVertex
 10
300.884003
 20
104.54467
 30
0.0
  0
VERTEX
  5
3AD
330
38D
100
AcDbEntity
  8
0
370
     0
100
AcDbVertex
100
AcDb2dVertex
 10
300.57132
 20
104.650574
 30
0.0
  0
VERTEX
  5
3AE
330
38D
100
AcDbEntity
  8
0
370
     0
100
AcDbVertex
100
AcDb2dVertex
 10
300.283875
 20
104.549713
 30
0.0
  0
VERTEX
  5
3AF
330
38D
100
AcDbEntity
  8
0
370
     0
100
AcDbVertex
100
AcDb2dVertex
 10
300.087158
 20
104.267288
 30
0.0
  0
VERTEX
  5
3B0
330
38D
100
AcDbEntity
  8
0
370
     0
100
AcDbVertex
100
AcDb2dVertex
 10
300.087158
 20
104.554756
 30
0.0
  0
VERTEX
  5
3B1
330
38D
100
AcDbEntity
  8
0
370
     0
100
AcDbVertex
100
AcDb2dVertex
 10
299.693787
 20
104.554756
 30
0.0
  0
SEQEND
  5
3B2
330
38D
100
AcDbEntity
  8
0
 62
     7
370
    13
  0
POLYLINE
  5
3B3
330
1F
100
AcDbEntity
  8
0
 62
     7
370
    13
100
AcDb2dPolyline
 66
     1
 10
0.0
 20
0.0
 30
0.0
 70
     1
  0
VERTEX
  5
3B4
330
3B3
100
AcDbEntity
  8
0
370
     0
100
AcDbVertex
100
AcDb2dVertex
 10
302.729828
 20
101.846542
 30
0.0
  0
VERTEX
  5
3B5
330
3B3
100
AcDbEntity
  8
0
370
     0
100
AcDbVertex
100
AcDb2dVertex
 10
303.138336
 20
101.846542
 30
0.0
  0
VERTEX
  5
3B6
330
3B3
100
AcDbEntity
  8
0
370
     0
100
AcDbVertex
100
AcDb2dVertex
 10
303.138336
 20
103.657059
 30
0.0
  0
VERTEX
  5
3B7
330
3B3
100
AcDbEntity
  8
0
370
     0
100
AcDbVertex
100
AcDb2dVertex
 10
303.163544
 20
103.929398
 30
0.0
  0
VERTEX
  5
3B8
330
3B3
100
AcDbEntity
  8
0
370
     0
100
AcDbVertex
100
AcDb2dVertex
 10
303.239197
 20
104.126083
 30
0.0
  0
VERTEX
  5
3B9
330
3B3
100
AcDbEntity
  8
0
370
     0
100
AcDbVertex
100
AcDb2dVertex
 10
303.355194
 20
104.242073
 30
0.0
  0
VERTEX
  5
3BA
330
3B3
100
AcDbEntity
  8
0
370
     0
100
AcDbVertex
100
AcDb2dVertex
 10
303.50647
 20
104.287468
 30
0.0
  0
VERTEX
  5
3BB
330
3B3
100
AcDbEntity
  8
0
370
     0
100
AcDbVertex
100
AcDb2dVertex
 10
303.627502
 20
104.247116
 30
0.0
  0
VERTEX
  5
3BC
330
3B3
100
AcDbEntity
  8
0
370
     0
100
AcDbVertex
100
AcDb2dVertex
 10
303.708221
 20
104.146255
 30
0.0
  0
VERTEX
  5
3BD
330
3B3
100
AcDbEntity
  8
0
370
     0
100
AcDbVertex
100
AcDb2dVertex
 10
303.748566
 20
103.974785
 30
0.0
  0
VERTEX
  5
3BE
330
3B3
100
AcDbEntity
  8
0
370
     0
100
AcDbVertex
100
AcDb2dVertex
 10
303.763672
 20
103.747841
 30
0.0
  0
VERTEX
  5
3BF
330
3B3
100
AcDbEntity
  8
0
370
     0
100
AcDbVertex
100
AcDb2dVertex
 10
303.763672
 20
101.846542
 30
0.0
  0
VERTEX
  5
3C0
330
3B3
100
AcDbEntity
  8
0
370
     0
100
AcDbVertex
100
AcDb2dVertex
 10
304.146973
 20
101.846542
 30
0.0
  0
VERTEX
  5
3C1
330
3B3
100
AcDbEntity
  8
0
370
     0
100
AcDbVertex
100
AcDb2dVertex
 10
304.146973
 20
103.657059
 30
0.0
  0
VERTEX
  5
3C2
330
3B3
100
AcDbEntity
  8
0
370
     0
100
AcDbVertex
100
AcDb2dVertex
 10
304.17218
 20
103.924355
 30
0.0
  0
VERTEX
  5
3C3
330
3B3
100
AcDbEntity
  8
0
370
     0
100
AcDbVertex
100
AcDb2dVertex
 10
304.247833
 20
104.12104
 30
0.0
  0
VERTEX
  5
3C4
330
3B3
100
AcDbEntity
  8
0
370
     0
100
AcDbVertex
100
AcDb2dVertex
 10
304.368866
 20
104.242073
 30
0.0
  0
VERTEX
  5
3C5
330
3B3
100
AcDbEntity
  8
0
370
     0
100
AcDbVertex
100
AcDb2dVertex
 10
304.520172
 20
104.287468
 30
0.0
  0
VERTEX
  5
3C6
330
3B3
100
AcDbEntity
  8
0
370
     0
100
AcDbVertex
100
AcDb2dVertex
 10
304.641205
 20
104.247116
 30
0.0
  0
VERTEX
  5
3C7
330
3B3
100
AcDbEntity
  8
0
370
     0
100
AcDbVertex
100
AcDb2dVertex
 10
304.721893
 20
104.146255
 30
0.0
  0
VERTEX
  5
3C8
330
3B3
100
AcDbEntity
  8
0
370
     0
100
AcDbVertex
100
AcDb2dVertex
 10
304.772339
 20
103.747841
 30
0.0
  0
VERTEX
  5
3C9
330
3B3
100
AcDbEntity
  8
0
370
     0
100
AcDbVertex
100
AcDb2dVertex
 10
304.772339
 20
101.846542
 30
0.0
  0
VERTEX
  5
3CA
330
3B3
100
AcDbEntity
  8
0
370
     0
100
AcDbVertex
100
AcDb2dVertex
 10
305.180847
 20
101.846542
 30
0.0
  0
VERTEX
  5
3CB
330
3B3
100
AcDbEntity
  8
0
370
     0
100
AcDbVertex
100
AcDb2dVertex
 10
305.180847
 20
103.717583
 30
0.0
  0
VERTEX
  5
3CC
330
3B3
100
AcDbEntity
  8
0
370
     0
100
AcDbVertex
100
AcDb2dVertex
 10
305.155609
 20
104.105911
 30
0.0
  0
VERTEX
  5
3CD
330
3B3
100
AcDbEntity
  8
0
370
     0
100
AcDbVertex
100
AcDb2dVertex
 10
305.074921
 20
104.403458
 30
0.0
  0
VERTEX
  5
3CE
330
3B3
100
AcDbEntity
  8
0
370
     0
100
AcDbVertex
100
AcDb2dVertex
 10
304.913544
 20
104.585014
 30
0.0
  0
VERTEX
  5
3CF
330
3B3
100
AcDbEntity
  8
0
370
     0
100
AcDbVertex
100
AcDb2dVertex
 10
304.651306
 20
104.650574
 30
0.0
  0
VERTEX
  5
3D0
330
3B3
100
AcDbEntity
  8
0
370
     0
100
AcDbVertex
100
AcDb2dVertex
 10
304.343658
 20
104.549713
 30
0.0
  0
VERTEX
  5
3D1
330
3B3
100
AcDbEntity
  8
0
370
     0
100
AcDbVertex
100
AcDb2dVertex
 10
304.106628
 20
104.257202
 30
0.0
  0
VERTEX
  5
3D2
330
3B3
100
AcDbEntity
  8
0
370
     0
100
AcDbVertex
100
AcDb2dVertex
 10
303.920013
 20
104.54467
 30
0.0
  0
VERTEX
  5
3D3
330
3B3
100
AcDbEntity
  8
0
370
     0
100
AcDbVertex
100
AcDb2dVertex
 10
303.607361
 20
104.650574
 30
0.0
  0
VERTEX
  5
3D4
330
3B3
100
AcDbEntity
  8
0
370
     0
100
AcDbVertex
100
AcDb2dVertex
 10
303.319885
 20
104.549713
 30
0.0
  0
VERTEX
  5
3D5
330
3B3
100
AcDbEntity
  8
0
370
     0
100
AcDbVertex
100
AcDb2dVertex
 10
303.123199
 20
104.267288
 30
0.0
  0
VERTEX
  5
3D6
330
3B3
100
AcDbEntity
  8
0
370
     0
100
AcDbVertex
100
AcDb2dVertex
 10
303.123199
 20
104.554756
 30
0.0
  0
VERTEX
  5
3D7
330
3B3
100
AcDbEntity
  8
0
370
     0
100
AcDbVertex
100
AcDb2dVertex
 10
302.729828
 20
104.554756
 30
0.0
  0
SEQEND
  5
3D8
330
3B3
100
AcDbEntity
  8
0
 62
     7
370
    13
  0
POLYLINE
  5
3D9
330
1F
100
AcDbEntity
  8
0
 62
     7
370
    13
100
AcDb2dPolyline
 66
     1
 10
0.0
 20
0.0
 30
0.0
 70
     1
  0
VERTEX
  5
3DA
330
3D9
100
AcDbEntity
  8
0
370
     0
100
AcDbVertex
100
AcDb2dVertex
 10
266.257202
 20
95.799713
 30
0.0
  0
VERTEX
  5
3DB
330
3D9
100
AcDbEntity
  8
0
370
     0
100
AcDbVertex
100
AcDb2dVertex
 10
266.645538
 20
95.799713
 30
0.0
  0
VERTEX
  5
3DC
330
3D9
100
AcDbEntity
  8
0
370
     0
100
AcDbVertex
100
AcDb2dVertex
 10
266.645538
 20
98.976944
 30
0.0
  0
VERTEX
  5
3DD
330
3D9
100
AcDbEntity
  8
0
370
     0
100
AcDbVertex
100
AcDb2dVertex
 10
267.301147
 20
95.799713
 30
0.0
  0
VERTEX
  5
3DE
330
3D9
100
AcDbEntity
  8
0
370
     0
100
AcDbVertex
100
AcDb2dVertex
 10
267.734863
 20
95.799713
 30
0.0
  0
VERTEX
  5
3DF
330
3D9
100
AcDbEntity
  8
0
370
     0
100
AcDbVertex
100
AcDb2dVertex
 10
268.385437
 20
98.976944
 30
0.0
  0
VERTEX
  5
3E0
330
3D9
100
AcDbEntity
  8
0
370
     0
100
AcDbVertex
100
AcDb2dVertex
 10
268.385437
 20
95.799713
 30
0.0
  0
VERTEX
  5
3E1
330
3D9
100
AcDbEntity
  8
0
370
     0
100
AcDbVertex
100
AcDb2dVertex
 10
268.778809
 20
95.799713
 30
0.0
  0
VERTEX
  5
3E2
330
3D9
100
AcDbEntity
  8
0
370
     0
100
AcDbVertex
100
AcDb2dVertex
 10
268.778809
 20
99.299713
 30
0.0
  0
VERTEX
  5
3E3
330
3D9
100
AcDbEntity
  8
0
370
     0
100
AcDbVertex
100
AcDb2dVertex
 10
268.163544
 20
99.299713
 30
0.0
  0
VERTEX
  5
3E4
330
3D9
100
AcDbEntity
  8
0
370
     0
100
AcDbVertex
100
AcDb2dVertex
 10
267.518005
 20
96.213257
 30
0.0
  0
VERTEX
  5
3E5
330
3D9
100
AcDbEntity
  8
0
370
     0
100
AcDbVertex
100
AcDb2dVertex
 10
266.877533
 20
99.299713
 30
0.0
  0
VERTEX
  5
3E6
330
3D9
100
AcDbEntity
  8
0
370
     0
100
AcDbVertex
100
AcDb2dVertex
 10
266.257202
 20
99.299713
 30
0.0
  0
SEQEND
  5
3E7
330
3D9
100
AcDbEntity
  8
0
 62
     7
370
    13
  0
POLYLINE
  5
3E8
330
1F
100
AcDbEntity
  8
0
 62
     7
370
    13
100
AcDb2dPolyline
 66
     1
 10
0.0
 20
0.0
 30
0.0
 70
     1
  0
VERTEX
  5
3E9
330
3E8
100
AcDbEntity
  8
0
370
     0
100
AcDbVertex
100
AcDb2dVertex
 10
269.020905
 20
95.799713
 30
0.0
  0
VERTEX
  5
3EA
330
3E8
100
AcDbEntity
  8
0
370
     0
100
AcDbVertex
100
AcDb2dVertex
 10
269.484863
 20
95.799713
 30
0.0
  0
VERTEX
  5
3EB
330
3E8
100
AcDbEntity
  8
0
370
     0
100
AcDbVertex
100
AcDb2dVertex
 10
269.853027
 20
96.828529
 30
0.0
  0
VERTEX
  5
3EC
330
3E8
100
AcDbEntity
  8
0
370
     0
100
AcDbVertex
100
AcDb2dVertex
 10
271.25
 20
96.828529
 30
0.0
  0
VERTEX
  5
3ED
330
3E8
100
AcDbEntity
  8
0
370
     0
100
AcDbVertex
100
AcDb2dVertex
 10
271.618164
 20
95.799713
 30
0.0
  0
VERTEX
  5
3EE
330
3E8
100
AcDbEntity
  8
0
370
     0
100
AcDbVertex
100
AcDb2dVertex
 10
272.092224
 20
95.799713
 30
0.0
  0
VERTEX
  5
3EF
330
3E8
100
AcDbEntity
  8
0
370
     0
100
AcDbVertex
100
AcDb2dVertex
 10
270.811249
 20
99.304756
 30
0.0
  0
VERTEX
  5
3F0
330
3E8
100
AcDbEntity
  8
0
370
     0
100
AcDbVertex
100
AcDb2dVertex
 10
270.296844
 20
99.304756
 30
0.0
  0
SEQEND
  5
3F1
330
3E8
100
AcDbEntity
  8
0
 62
     7
370
    13
  0
POLYLINE
  5
3F2
330
1F
100
AcDbEntity
  8
0
 62
     7
370
    13
100
AcDb2dPolyline
 66
     1
 10
0.0
 20
0.0
 30
0.0
 70
     1
  0
VERTEX
  5
3F3
330
3F2
100
AcDbEntity
  8
0
370
     0
100
AcDbVertex
100
AcDb2dVertex
 10
270.014404
 20
97.257202
 30
0.0
  0
VERTEX
  5
3F4
330
3F2
100
AcDbEntity
  8
0
370
     0
100
AcDbVertex
100
AcDb2dVertex
 10
270.554047
 20
98.80043
 30
0.0
  0
VERTEX
  5
3F5
330
3F2
100
AcDbEntity
  8
0
370
     0
100
AcDbVertex
100
AcDb2dVertex
 10
271.093658
 20
97.257202
 30
0.0
  0
SEQEND
  5
3F6
330
3F2
100
AcDbEntity
  8
0
 62
     7
370
    13
  0
POLYLINE
  5
3F7
330
1F
100
AcDbEntity
  8
0
 62
     7
370
    13
100
AcDb2dPolyline
 66
     1
 10
0.0
 20
0.0
 30
0.0
 70
     1
  0
VERTEX
  5
3F8
330
3F7
100
AcDbEntity
  8
0
370
     0
100
AcDbVertex
100
AcDb2dVertex
 10
273.358063
 20
95.799713
 30
0.0
  0
VERTEX
  5
3F9
330
3F7
100
AcDbEntity
  8
0
370
     0
100
AcDbVertex
100
AcDb2dVertex
 10
273.822052
 20
95.799713
 30
0.0
  0
VERTEX
  5
3FA
330
3F7
100
AcDbEntity
  8
0
370
     0
100
AcDbVertex
100
AcDb2dVertex
 10
273.822052
 20
98.876083
 30
0.0
  0
VERTEX
  5
3FB
330
3F7
100
AcDbEntity
  8
0
370
     0
100
AcDbVertex
100
AcDb2dVertex
 10
274.881134
 20
98.876083
 30
0.0
  0
VERTEX
  5
3FC
330
3F7
100
AcDbEntity
  8
0
370
     0
100
AcDbVertex
100
AcDb2dVertex
 10
274.881134
 20
99.299713
 30
0.0
  0
VERTEX
  5
3FD
330
3F7
100
AcDbEntity
  8
0
370
     0
100
AcDbVertex
100
AcDb2dVertex
 10
272.293945
 20
99.299713
 30
0.0
  0
VERTEX
  5
3FE
330
3F7
100
AcDbEntity
  8
0
370
     0
100
AcDbVertex
100
AcDb2dVertex
 10
272.293945
 20
98.876083
 30
0.0
  0
VERTEX
  5
3FF
330
3F7
100
AcDbEntity
  8
0
370
     0
100
AcDbVertex
100
AcDb2dVertex
 10
273.358063
 20
98.876083
 30
0.0
  0
SEQEND
  5
400
330
3F7
100
AcDbEntity
  8
0
 62
     7
370
    13
  0
POLYLINE
  5
401
330
1F
100
AcDbEntity
  8
0
 62
     7
370
    13
100
AcDb2dPolyline
 66
     1
 10
0.0
 20
0.0
 30
0.0
 70
     1
  0
VERTEX
  5
402
330
401
100
AcDbEntity
  8
0
370
     0
100
AcDbVertex
100
AcDb2dVertex
 10
275.567017
 20
95.799713
 30
0.0
  0
VERTEX
  5
403
330
401
100
AcDbEntity
  8
0
370
     0
100
AcDbVertex
100
AcDb2dVertex
 10
277.786011
 20
95.799713
 30
0.0
  0
VERTEX
  5
404
330
401
100
AcDbEntity
  8
0
370
     0
100
AcDbVertex
100
AcDb2dVertex
 10
277.786011
 20
96.223343
 30
0.0
  0
VERTEX
  5
405
330
401
100
AcDbEntity
  8
0
370
     0
100
AcDbVertex
100
AcDb2dVertex
 10
276.030975
 20
96.223343
 30
0.0
  0
VERTEX
  5
406
330
401
100
AcDbEntity
  8
0
370
     0
100
AcDbVertex
100
AcDb2dVertex
 10
276.030975
 20
97.408501
 30
0.0
  0
VERTEX
  5
407
330
401
100
AcDbEntity
  8
0
370
     0
100
AcDbVertex
100
AcDb2dVertex
 10
277.594391
 20
97.408501
 30
0.0
  0
VERTEX
  5
408
330
401
100
AcDbEntity
  8
0
370
     0
100
AcDbVertex
100
AcDb2dVertex
 10
277.594391
 20
97.827087
 30
0.0
  0
VERTEX
  5
409
330
401
100
AcDbEntity
  8
0
370
     0
100
AcDbVertex
100
AcDb2dVertex
 10
276.030975
 20
97.827087
 30
0.0
  0
VERTEX
  5
40A
330
401
100
AcDbEntity
  8
0
370
     0
100
AcDbVertex
100
AcDb2dVertex
 10
276.030975
 20
98.876083
 30
0.0
  0
VERTEX
  5
40B
330
401
100
AcDbEntity
  8
0
370
     0
100
AcDbVertex
100
AcDb2dVertex
 10
277.745667
 20
98.876083
 30
0.0
  0
VERTEX
  5
40C
330
401
100
AcDbEntity
  8
0
370
     0
100
AcDbVertex
100
AcDb2dVertex
 10
277.745667
 20
99.299713
 30
0.0
  0
VERTEX
  5
40D
330
401
100
AcDbEntity
  8
0
370
     0
100
AcDbVertex
100
AcDb2dVertex
 10
275.567017
 20
99.299713
 30
0.0
  0
SEQEND
  5
40E
330
401
100
AcDbEntity
  8
0
 62
     7
370
    13
  0
POLYLINE
  5
40F
330
1F
100
AcDbEntity
  8
0
 62
     7
370
    13
100
AcDb2dPolyline
 66
     1
 10
0.0
 20
0.0
 30
0.0
 70
     1
  0
VERTEX
  5
410
330
40F
100
AcDbEntity
  8
0
370
     0
100
AcDbVertex
100
AcDb2dVertex
 10
278.537476
 20
95.799713
 30
0.0
  0
VERTEX
  5
411
330
40F
100
AcDbEntity
  8
0
370
     0
100
AcDbVertex
100
AcDb2dVertex
 10
279.00647
 20
95.799713
 30
0.0
  0
VERTEX
  5
412
330
40F
100
AcDbEntity
  8
0
370
     0
100
AcDbVertex
100
AcDb2dVertex
 10
279.00647
 20
97.277382
 30
0.0
  0
VERTEX
  5
413
330
40F
100
AcDbEntity
  8
0
370
     0
100
AcDbVertex
100
AcDb2dVertex
 10
279.485596
 20
97.277382
 30
0.0
  0
VERTEX
  5
414
330
40F
100
AcDbEntity
  8
0
370
     0
100
AcDbVertex
100
AcDb2dVertex
 10
279.838623
 20
97.262253
 30
0.0
  0
VERTEX
  5
415
330
40F
100
AcDbEntity
  8
0
370
     0
100
AcDbVertex
100
AcDb2dVertex
 10
280.060516
 20
97.191643
 30
0.0
  0
VERTEX
  5
416
330
40F
100
AcDbEntity
  8
0
370
     0
100
AcDbVertex
100
AcDb2dVertex
 10
280.181549
 20
97.025215
 30
0.0
  0
VERTEX
  5
417
330
40F
100
AcDbEntity
  8
0
370
     0
100
AcDbVertex
100
AcDb2dVertex
 10
280.231995
 20
96.727669
 30
0.0
  0
VERTEX
  5
418
330
40F
100
AcDbEntity
  8
0
370
     0
100
AcDbVertex
100
AcDb2dVertex
 10
280.257202
 20
96.273773
 30
0.0
  0
VERTEX
  5
419
330
40F
100
AcDbEntity
  8
0
370
     0
100
AcDbVertex
100
AcDb2dVertex
 10
280.287476
 20
95.976227
 30
0.0
  0
VERTEX
  5
41A
330
40F
100
AcDbEntity
  8
0
370
     0
100
AcDbVertex
100
AcDb2dVertex
 10
280.347992
 20
95.799713
 30
0.0
  0
VERTEX
  5
41B
330
40F
100
AcDbEntity
  8
0
370
     0
100
AcDbVertex
100
AcDb2dVertex
 10
280.877533
 20
95.799713
 30
0.0
  0
VERTEX
  5
41C
330
40F
100
AcDbEntity
  8
0
370
     0
100
AcDbVertex
100
AcDb2dVertex
 10
280.877533
 20
95.895531
 30
0.0
  0
VERTEX
  5
41D
330
40F
100
AcDbEntity
  8
0
370
     0
100
AcDbVertex
100
AcDb2dVertex
 10
280.761536
 20
96.036743
 30
0.0
  0
VERTEX
  5
41E
330
40F
100
AcDbEntity
  8
0
370
     0
100
AcDbVertex
100
AcDb2dVertex
 10
280.721191
 20
96.298996
 30
0.0
  0
VERTEX
  5
41F
330
40F
100
AcDbEntity
  8
0
370
     0
100
AcDbVertex
100
AcDb2dVertex
 10
280.685883
 20
96.863831
 30
0.0
  0
VERTEX
  5
420
330
40F
100
AcDbEntity
  8
0
370
     0
100
AcDbVertex
100
AcDb2dVertex
 10
280.600159
 20
97.282425
 30
0.0
  0
VERTEX
  5
421
330
40F
100
AcDbEntity
  8
0
370
     0
100
AcDbVertex
100
AcDb2dVertex
 10
280.484161
 20
97.413544
 30
0.0
  0
VERTEX
  5
422
330
40F
100
AcDbEntity
  8
0
370
     0
100
AcDbVertex
100
AcDb2dVertex
 10
280.302582
 20
97.509369
 30
0.0
  0
VERTEX
  5
423
330
40F
100
AcDbEntity
  8
0
370
     0
100
AcDbVertex
100
AcDb2dVertex
 10
280.504333
 20
97.635445
 30
0.0
  0
VERTEX
  5
424
330
40F
100
AcDbEntity
  8
0
370
     0
100
AcDbVertex
100
AcDb2dVertex
 10
280.645538
 20
97.811958
 30
0.0
  0
VERTEX
  5
425
330
40F
100
AcDbEntity
  8
0
370
     0
100
AcDbVertex
100
AcDb2dVertex
 10
280.736298
 20
98.033859
 30
0.0
  0
VERTEX
  5
426
330
40F
100
AcDbEntity
  8
0
370
     0
100
AcDbVertex
100
AcDb2dVertex
 10
280.766571
 20
98.301155
 30
0.0
  0
VERTEX
  5
427
330
40F
100
AcDbEntity
  8
0
370
     0
100
AcDbVertex
100
AcDb2dVertex
 10
280.695953
 20
98.724785
 30
0.0
  0
VERTEX
  5
428
330
40F
100
AcDbEntity
  8
0
370
     0
100
AcDbVertex
100
AcDb2dVertex
 10
280.494232
 20
99.042511
 30
0.0
  0
VERTEX
  5
429
330
40F
100
AcDbEntity
  8
0
370
     0
100
AcDbVertex
100
AcDb2dVertex
 10
280.161377
 20
99.234154
 30
0.0
  0
VERTEX
  5
42A
330
40F
100
AcDbEntity
  8
0
370
     0
100
AcDbVertex
100
AcDb2dVertex
 10
279.707489
 20
99.299713
 30
0.0
  0
VERTEX
  5
42B
330
40F
100
AcDbEntity
  8
0
370
     0
100
AcDbVertex
100
AcDb2dVertex
 10
278.537476
 20
99.299713
 30
0.0
  0
SEQEND
  5
42C
330
40F
100
AcDbEntity
  8
0
 62
     7
370
    13
  0
POLYLINE
  5
42D
330
1F
100
AcDbEntity
  8
0
 62
     7
370
    13
100
AcDb2dPolyline
 66
     1
 10
0.0
 20
0.0
 30
0.0
 70
     1
  0
VERTEX
  5
42E
330
42D
100
AcDbEntity
  8
0
370
     0
100
AcDbVertex
100
AcDb2dVertex
 10
279.576355
 20
98.87104
 30
0.0
  0
VERTEX
  5
42F
330
42D
100
AcDbEntity
  8
0
370
     0
100
AcDbVertex
100
AcDb2dVertex
 10
279.884003
 20
98.840782
 30
0.0
  0
VERTEX
  5
430
330
42D
100
AcDbEntity
  8
0
370
     0
100
AcDbVertex
100
AcDb2dVertex
 10
280.100861
 20
98.744957
 30
0.0
  0
VERTEX
  5
431
330
42D
100
AcDbEntity
  8
0
370
     0
100
AcDbVertex
100
AcDb2dVertex
 10
280.23703
 20
98.568443
 30
0.0
  0
VERTEX
  5
432
330
42D
100
AcDbEntity
  8
0
370
     0
100
AcDbVertex
100
AcDb2dVertex
 10
280.28241
 20
98.291069
 30
0.0
  0
VERTEX
  5
433
330
42D
100
AcDbEntity
  8
0
370
     0
100
AcDbVertex
100
AcDb2dVertex
 10
280.231995
 20
97.998558
 30
0.0
  0
VERTEX
  5
434
330
42D
100
AcDbEntity
  8
0
370
     0
100
AcDbVertex
100
AcDb2dVertex
 10
280.095825
 20
97.822044
 30
0.0
  0
VERTEX
  5
435
330
42D
100
AcDbEntity
  8
0
370
     0
100
AcDbVertex
100
AcDb2dVertex
 10
279.863831
 20
97.73127
 30
0.0
  0
VERTEX
  5
436
330
42D
100
AcDbEntity
  8
0
370
     0
100
AcDbVertex
100
AcDb2dVertex
 10
279.546112
 20
97.706055
 30
0.0
  0
VERTEX
  5
437
330
42D
100
AcDbEntity
  8
0
370
     0
100
AcDbVertex
100
AcDb2dVertex
 10
279.00647
 20
97.706055
 30
0.0
  0
VERTEX
  5
438
330
42D
100
AcDbEntity
  8
0
370
     0
100
AcDbVertex
100
AcDb2dVertex
 10
279.00647
 20
98.87104
 30
0.0
  0
SEQEND
  5
439
330
42D
100
AcDbEntity
  8
0
 62
     7
370
    13
  0
POLYLINE
  5
43A
330
1F
100
AcDbEntity
  8
0
 62
     7
370
    13
100
AcDb2dPolyline
 66
     1
 10
0.0
 20
0.0
 30
0.0
 70
     1
  0
VERTEX
  5
43B
330
43A
100
AcDbEntity
  8
0
370
     0
100
AcDbVertex
100
AcDb2dVertex
 10
282.466125
 20
96.223343
 30
0.0
  0
VERTEX
  5
43C
330
43A
100
AcDbEntity
  8
0
370
     0
100
AcDbVertex
100
AcDb2dVertex
 10
281.820618
 20
96.223343
 30
0.0
  0
VERTEX
  5
43D
330
43A
100
AcDbEntity
  8
0
370
     0
100
AcDbVertex
100
AcDb2dVertex
 10
281.820618
 20
95.799713
 30
0.0
  0
VERTEX
  5
43E
330
43A
100
AcDbEntity
  8
0
370
     0
100
AcDbVertex
100
AcDb2dVertex
 10
283.575653
 20
95.799713
 30
0.0
  0
VERTEX
  5
43F
330
43A
100
AcDbEntity
  8
0
370
     0
100
AcDbVertex
100
AcDb2dVertex
 10
283.575653
 20
96.223343
 30
0.0
  0
VERTEX
  5
440
330
43A
100
AcDbEntity
  8
0
370
     0
100
AcDbVertex
100
AcDb2dVertex
 10
282.930115
 20
96.223343
 30
0.0
  0
VERTEX
  5
441
330
43A
100
AcDbEntity
  8
0
370
     0
100
AcDbVertex
100
AcDb2dVertex
 10
282.930115
 20
98.876083
 30
0.0
  0
VERTEX
  5
442
330
43A
100
AcDbEntity
  8
0
370
     0
100
AcDbVertex
100
AcDb2dVertex
 10
283.575653
 20
98.876083
 30
0.0
  0
VERTEX
  5
443
330
43A
100
AcDbEntity
  8
0
370
     0
100
AcDbVertex
100
AcDb2dVertex
 10
283.575653
 20
99.299713
 30
0.0
  0
VERTEX
  5
444
330
43A
100
AcDbEntity
  8
0
370
     0
100
AcDbVertex
100
AcDb2dVertex
 10
281.820618
 20
99.299713
 30
0.0
  0
VERTEX
  5
445
330
43A
100
AcDbEntity
  8
0
370
     0
100
AcDbVertex
100
AcDb2dVertex
 10
281.820618
 20
98.876083
 30
0.0
  0
VERTEX
  5
446
330
43A
100
AcDbEntity
  8
0
370
     0
100
AcDbVertex
100
AcDb2dVertex
 10
282.466125
 20
98.876083
 30
0.0
  0
SEQEND
  5
447
330
43A
100
AcDbEntity
  8
0
 62
     7
370
    13
  0
POLYLINE
  5
448
330
1F
100
AcDbEntity
  8
0
 62
     7
370
    13
100
AcDb2dPolyline
 66
     1
 10
0.0
 20
0.0
 30
0.0
 70
     1
  0
VERTEX
  5
449
330
448
100
AcDbEntity
  8
0
370
     0
100
AcDbVertex
100
AcDb2dVertex
 10
284.201019
 20
95.799713
 30
0.0
  0
VERTEX
  5
44A
330
448
100
AcDbEntity
  8
0
370
     0
100
AcDbVertex
100
AcDb2dVertex
 10
284.664978
 20
95.799713
 30
0.0
  0
VERTEX
  5
44B
330
448
100
AcDbEntity
  8
0
370
     0
100
AcDbVertex
100
AcDb2dVertex
 10
285.033142
 20
96.828529
 30
0.0
  0
VERTEX
  5
44C
330
448
100
AcDbEntity
  8
0
370
     0
100
AcDbVertex
100
AcDb2dVertex
 10
286.430115
 20
96.828529
 30
0.0
  0
VERTEX
  5
44D
330
448
100
AcDbEntity
  8
0
370
     0
100
AcDbVertex
100
AcDb2dVertex
 10
286.798279
 20
95.799713
 30
0.0
  0
VERTEX
  5
44E
330
448
100
AcDbEntity
  8
0
370
     0
100
AcDbVertex
100
AcDb2dVertex
 10
287.272339
 20
95.799713
 30
0.0
  0
VERTEX
  5
44F
330
448
100
AcDbEntity
  8
0
370
     0
100
AcDbVertex
100
AcDb2dVertex
 10
285.991364
 20
99.304756
 30
0.0
  0
VERTEX
  5
450
330
448
100
AcDbEntity
  8
0
370
     0
100
AcDbVertex
100
AcDb2dVertex
 10
285.476959
 20
99.304756
 30
0.0
  0
SEQEND
  5
451
330
448
100
AcDbEntity
  8
0
 62
     7
370
    13
  0
POLYLINE
  5
452
330
1F
100
AcDbEntity
  8
0
 62
     7
370
    13
100
AcDb2dPolyline
 66
     1
 10
0.0
 20
0.0
 30
0.0
 70
     1
  0
VERTEX
  5
453
330
452
100
AcDbEntity
  8
0
370
     0
100
AcDbVertex
100
AcDb2dVertex
 10
285.194519
 20
97.257202
 30
0.0
  0
VERTEX
  5
454
330
452
100
AcDbEntity
  8
0
370
     0
100
AcDbVertex
100
AcDb2dVertex
 10
285.734161
 20
98.80043
 30
0.0
  0
VERTEX
  5
455
330
452
100
AcDbEntity
  8
0
370
     0
100
AcDbVertex
100
AcDb2dVertex
 10
286.273773
 20
97.257202
 30
0.0
  0
SEQEND
  5
456
330
452
100
AcDbEntity
  8
0
 62
     7
370
    13
  0
POLYLINE
  5
457
330
1F
100
AcDbEntity
  8
0
 62
     7
370
    13
100
AcDb2dPolyline
 66
     1
 10
0.0
 20
0.0
 30
0.0
 70
     1
  0
VERTEX
  5
458
330
457
100
AcDbEntity
  8
0
370
     0
100
AcDbVertex
100
AcDb2dVertex
 10
287.746399
 20
95.799713
 30
0.0
  0
VERTEX
  5
459
330
457
100
AcDbEntity
  8
0
370
     0
100
AcDbVertex
100
AcDb2dVertex
 10
289.995667
 20
95.799713
 30
0.0
  0
VERTEX
  5
45A
330
457
100
AcDbEntity
  8
0
370
     0
100
AcDbVertex
100
AcDb2dVertex
 10
289.995667
 20
96.223343
 30
0.0
  0
VERTEX
  5
45B
330
457
100
AcDbEntity
  8
0
370
     0
100
AcDbVertex
100
AcDb2dVertex
 10
288.210388
 20
96.223343
 30
0.0
  0
VERTEX
  5
45C
330
457
100
AcDbEntity
  8
0
370
     0
100
AcDbVertex
100
AcDb2dVertex
 10
288.210388
 20
99.299713
 30
0.0
  0
VERTEX
  5
45D
330
457
100
AcDbEntity
  8
0
370
     0
100
AcDbVertex
100
AcDb2dVertex
 10
287.746399
 20
99.299713
 30
0.0
  0
SEQEND
  5
45E
330
457
100
AcDbEntity
  8
0
 62
     7
370
    13
  0
POLYLINE
  5
45F
330
1F
100
AcDbEntity
  8
0
 62
     7
370
    13
100
AcDb2dPolyline
 66
     1
 10
0.0
 20
0.0
 30
0.0
 70
     1
  0
VERTEX
  5
460
330
45F
100
AcDbEntity
  8
0
370
     0
100
AcDbVertex
100
AcDb2dVertex
 10
291.458221
 20
95.799713
 30
0.0
  0
VERTEX
  5
461
330
45F
100
AcDbEntity
  8
0
370
     0
100
AcDbVertex
100
AcDb2dVertex
 10
292.154175
 20
95.799713
 30
0.0
  0
VERTEX
  5
462
330
45F
100
AcDbEntity
  8
0
370
     0
100
AcDbVertex
100
AcDb2dVertex
 10
292.154175
 20
96.551155
 30
0.0
  0
VERTEX
  5
463
330
45F
100
AcDbEntity
  8
0
370
     0
100
AcDbVertex
100
AcDb2dVertex
 10
291.458221
 20
96.551155
 30
0.0
  0
SEQEND
  5
464
330
45F
100
AcDbEntity
  8
0
 62
     7
370
    13
  0
POLYLINE
  5
465
330
1F
100
AcDbEntity
  8
0
 62
     7
370
    13
100
AcDb2dPolyline
 66
     1
 10
0.0
 20
0.0
 30
0.0
 70
     1
  0
VERTEX
  5
466
330
465
100
AcDbEntity
  8
0
370
     0
100
AcDbVertex
100
AcDb2dVertex
 10
291.458221
 20
97.756485
 30
0.0
  0
VERTEX
  5
467
330
465
100
AcDbEntity
  8
0
370
     0
100
AcDbVertex
100
AcDb2dVertex
 10
292.154175
 20
97.756485
 30
0.0
  0
VERTEX
  5
468
330
465
100
AcDbEntity
  8
0
370
     0
100
AcDbVertex
100
AcDb2dVertex
 10
292.154175
 20
98.507927
 30
0.0
  0
VERTEX
  5
469
330
465
100
AcDbEntity
  8
0
370
     0
100
AcDbVertex
100
AcDb2dVertex
 10
291.458221
 20
98.507927
 30
0.0
  0
SEQEND
  5
46A
330
465
100
AcDbEntity
  8
0
 62
     7
370
    13
  0
POLYLINE
  5
46B
330
1F
100
AcDbEntity
  8
0
 62
     7
370
    13
100
AcDb2dPolyline
 66
     1
 10
0.0
 20
0.0
 30
0.0
 70
     1
  0
VERTEX
  5
46C
330
46B
100
AcDbEntity
  8
0
370
     0
100
AcDbVertex
100
AcDb2dVertex
 10
296.345093
 20
95.799713
 30
0.0
  0
VERTEX
  5
46D
330
46B
100
AcDbEntity
  8
0
370
     0
100
AcDbVertex
100
AcDb2dVertex
 10
296.809082
 20
95.799713
 30
0.0
  0
VERTEX
  5
46E
330
46B
100
AcDbEntity
  8
0
370
     0
100
AcDbVertex
100
AcDb2dVertex
 10
297.177246
 20
96.828529
 30
0.0
  0
VERTEX
  5
46F
330
46B
100
AcDbEntity
  8
0
370
     0
100
AcDbVertex
100
AcDb2dVertex
 10
298.574219
 20
96.828529
 30
0.0
  0
VERTEX
  5
470
330
46B
100
AcDbEntity
  8
0
370
     0
100
AcDbVertex
100
AcDb2dVertex
 10
298.942352
 20
95.799713
 30
0.0
  0
VERTEX
  5
471
330
46B
100
AcDbEntity
  8
0
370
     0
100
AcDbVertex
100
AcDb2dVertex
 10
299.416412
 20
95.799713
 30
0.0
  0
VERTEX
  5
472
330
46B
100
AcDbEntity
  8
0
370
     0
100
AcDbVertex
100
AcDb2dVertex
 10
298.135437
 20
99.304756
 30
0.0
  0
VERTEX
  5
473
330
46B
100
AcDbEntity
  8
0
370
     0
100
AcDbVertex
100
AcDb2dVertex
 10
297.621033
 20
99.304756
 30
0.0
  0
SEQEND
  5
474
330
46B
100
AcDbEntity
  8
0
 62
     7
370
    13
  0
POLYLINE
  5
475
330
1F
100
AcDbEntity
  8
0
 62
     7
370
    13
100
AcDb2dPolyline
 66
     1
 10
0.0
 20
0.0
 30
0.0
 70
     1
  0
VERTEX
  5
476
330
475
100
AcDbEntity
  8
0
370
     0
100
AcDbVertex
100
AcDb2dVertex
 10
297.338623
 20
97.257202
 30
0.0
  0
VERTEX
  5
477
330
475
100
AcDbEntity
  8
0
370
     0
100
AcDbVertex
100
AcDb2dVertex
 10
297.878235
 20
98.80043
 30
0.0
  0
VERTEX
  5
478
330
475
100
AcDbEntity
  8
0
370
     0
100
AcDbVertex
100
AcDb2dVertex
 10
298.417877
 20
97.257202
 30
0.0
  0
SEQEND
  5
479
330
475
100
AcDbEntity
  8
0
 62
     7
370
    13
  0
POLYLINE
  5
47A
330
1F
100
AcDbEntity
  8
0
 62
     7
370
    13
100
AcDb2dPolyline
 66
     1
 10
0.0
 20
0.0
 30
0.0
 70
     1
  0
VERTEX
  5
47B
330
47A
100
AcDbEntity
  8
0
370
     0
100
AcDbVertex
100
AcDb2dVertex
 10
299.890503
 20
95.799713
 30
0.0
  0
VERTEX
  5
47C
330
47A
100
AcDbEntity
  8
0
370
     0
100
AcDbVertex
100
AcDb2dVertex
 10
302.139771
 20
95.799713
 30
0.0
  0
VERTEX
  5
47D
330
47A
100
AcDbEntity
  8
0
370
     0
100
AcDbVertex
100
AcDb2dVertex
 10
302.139771
 20
96.223343
 30
0.0
  0
VERTEX
  5
47E
330
47A
100
AcDbEntity
  8
0
370
     0
100
AcDbVertex
100
AcDb2dVertex
 10
300.354462
 20
96.223343
 30
0.0
  0
VERTEX
  5
47F
330
47A
100
AcDbEntity
  8
0
370
     0
100
AcDbVertex
100
AcDb2dVertex
 10
300.354462
 20
99.299713
 30
0.0
  0
VERTEX
  5
480
330
47A
100
AcDbEntity
  8
0
370
     0
100
AcDbVertex
100
AcDb2dVertex
 10
299.890503
 20
99.299713
 30
0.0
  0
SEQEND
  5
481
330
47A
100
AcDbEntity
  8
0
 62
     7
370
    13
  0
POLYLINE
  5
482
330
1F
100
AcDbEntity
  8
0
 62
     7
370
    13
100
AcDb2dPolyline
 66
     1
 10
0.0
 20
0.0
 30
0.0
 70
     1
  0
VERTEX
  5
483
330
482
100
AcDbEntity
  8
0
370
     0
100
AcDbVertex
100
AcDb2dVertex
 10
302.744965
 20
97.131126
 30
0.0
  0
VERTEX
  5
484
330
482
100
AcDbEntity
  8
0
370
     0
100
AcDbVertex
100
AcDb2dVertex
 10
302.815552
 20
96.500725
 30
0.0
  0
VERTEX
  5
485
330
482
100
AcDbEntity
  8
0
370
     0
100
AcDbVertex
100
AcDb2dVertex
 10
303.037476
 20
96.051872
 30
0.0
  0
VERTEX
  5
486
330
482
100
AcDbEntity
  8
0
370
     0
100
AcDbVertex
100
AcDb2dVertex
 10
303.410645
 20
95.79467
 30
0.0
  0
VERTEX
  5
487
330
482
100
AcDbEntity
  8
0
370
     0
100
AcDbVertex
100
AcDb2dVertex
 10
303.950287
 20
95.703896
 30
0.0
  0
VERTEX
  5
488
330
482
100
AcDbEntity
  8
0
370
     0
100
AcDbVertex
100
AcDb2dVertex
 10
304.484863
 20
95.79467
 30
0.0
  0
VERTEX
  5
489
330
482
100
AcDbEntity
  8
0
370
     0
100
AcDbVertex
100
AcDb2dVertex
 10
304.858063
 20
96.051872
 30
0.0
  0
VERTEX
  5
48A
330
482
100
AcDbEntity
  8
0
370
     0
100
AcDbVertex
100
AcDb2dVertex
 10
305.079956
 20
96.495682
 30
0.0
  0
VERTEX
  5
48B
330
482
100
AcDbEntity
  8
0
370
     0
100
AcDbVertex
100
AcDb2dVertex
 10
305.155609
 20
97.131126
 30
0.0
  0
VERTEX
  5
48C
330
482
100
AcDbEntity
  8
0
370
     0
100
AcDbVertex
100
AcDb2dVertex
 10
305.155609
 20
99.299713
 30
0.0
  0
VERTEX
  5
48D
330
482
100
AcDbEntity
  8
0
370
     0
100
AcDbVertex
100
AcDb2dVertex
 10
304.686584
 20
99.299713
 30
0.0
  0
VERTEX
  5
48E
330
482
100
AcDbEntity
  8
0
370
     0
100
AcDbVertex
100
AcDb2dVertex
 10
304.686584
 20
97.105911
 30
0.0
  0
VERTEX
  5
48F
330
482
100
AcDbEntity
  8
0
370
     0
100
AcDbVertex
100
AcDb2dVertex
 10
304.641205
 20
96.677238
 30
0.0
  0
VERTEX
  5
490
330
482
100
AcDbEntity
  8
0
370
     0
100
AcDbVertex
100
AcDb2dVertex
 10
304.505035
 20
96.369598
 30
0.0
  0
VERTEX
  5
491
330
482
100
AcDbEntity
  8
0
370
     0
100
AcDbVertex
100
AcDb2dVertex
 10
304.273041
 20
96.188042
 30
0.0
  0
VERTEX
  5
492
330
482
100
AcDbEntity
  8
0
370
     0
100
AcDbVertex
100
AcDb2dVertex
 10
303.950287
 20
96.127525
 30
0.0
  0
VERTEX
  5
493
330
482
100
AcDbEntity
  8
0
370
     0
100
AcDbVertex
100
AcDb2dVertex
 10
303.617432
 20
96.188042
 30
0.0
  0
VERTEX
  5
494
330
482
100
AcDbEntity
  8
0
370
     0
100
AcDbVertex
100
AcDb2dVertex
 10
303.385437
 20
96.369598
 30
0.0
  0
VERTEX
  5
495
330
482
100
AcDbEntity
  8
0
370
     0
100
AcDbVertex
100
AcDb2dVertex
 10
303.249268
 20
96.672188
 30
0.0
  0
VERTEX
  5
496
330
482
100
AcDbEntity
  8
0
370
     0
100
AcDbVertex
100
AcDb2dVertex
 10
303.208923
 20
97.105911
 30
0.0
  0
VERTEX
  5
497
330
482
100
AcDbEntity
  8
0
370
     0
100
AcDbVertex
100
AcDb2dVertex
 10
303.208923
 20
99.299713
 30
0.0
  0
VERTEX
  5
498
330
482
100
AcDbEntity
  8
0
370
     0
100
AcDbVertex
100
AcDb2dVertex
 10
302.744965
 20
99.299713
 30
0.0
  0
SEQEND
  5
499
330
482
100
AcDbEntity
  8
0
 62
     7
370
    13
  0
POLYLINE
  5
49A
330
1F
100
AcDbEntity
  8
0
 62
     7
370
    13
100
AcDb2dPolyline
 66
     1
 10
0.0
 20
0.0
 30
0.0
 70
     1
  0
VERTEX
  5
49B
330
49A
100
AcDbEntity
  8
0
370
     0
100
AcDbVertex
100
AcDb2dVertex
 10
305.725494
 20
95.799713
 30
0.0
  0
VERTEX
  5
49C
330
49A
100
AcDbEntity
  8
0
370
     0
100
AcDbVertex
100
AcDb2dVertex
 10
306.113831
 20
95.799713
 30
0.0
  0
VERTEX
  5
49D
330
49A
100
AcDbEntity
  8
0
370
     0
100
AcDbVertex
100
AcDb2dVertex
 10
306.113831
 20
98.976944
 30
0.0
  0
VERTEX
  5
49E
330
49A
100
AcDbEntity
  8
0
370
     0
100
AcDbVertex
100
AcDb2dVertex
 10
306.76944
 20
95.799713
 30
0.0
  0
VERTEX
  5
49F
330
49A
100
AcDbEntity
  8
0
370
     0
100
AcDbVertex
100
AcDb2dVertex
 10
307.203156
 20
95.799713
 30
0.0
  0
VERTEX
  5
4A0
330
49A
100
AcDbEntity
  8
0
370
     0
100
AcDbVertex
100
AcDb2dVertex
 10
307.85376
 20
98.976944
 30
0.0
  0
VERTEX
  5
4A1
330
49A
100
AcDbEntity
  8
0
370
     0
100
AcDbVertex
100
AcDb2dVertex
 10
307.85376
 20
95.799713
 30
0.0
  0
VERTEX
  5
4A2
330
49A
100
AcDbEntity
  8
0
370
     0
100
AcDbVertex
100
AcDb2dVertex
 10
308.247131
 20
95.799713
 30
0.0
  0
VERTEX
  5
4A3
330
49A
100
AcDbEntity
  8
0
370
     0
100
AcDbVertex
100
AcDb2dVertex
 10
308.247131
 20
99.299713
 30
0.0
  0
VERTEX
  5
4A4
330
49A
100
AcDbEntity
  8
0
370
     0
100
AcDbVertex
100
AcDb2dVertex
 10
307.631836
 20
99.299713
 30
0.0
  0
VERTEX
  5
4A5
330
49A
100
AcDbEntity
  8
0
370
     0
100
AcDbVertex
100
AcDb2dVertex
 10
306.986298
 20
96.213257
 30
0.0
  0
VERTEX
  5
4A6
330
49A
100
AcDbEntity
  8
0
370
     0
100
AcDbVertex
100
AcDb2dVertex
 10
306.345825
 20
99.299713
 30
0.0
  0
VERTEX
  5
4A7
330
49A
100
AcDbEntity
  8
0
370
     0
100
AcDbVertex
100
AcDb2dVertex
 10
305.725494
 20
99.299713
 30
0.0
  0
SEQEND
  5
4A8
330
49A
100
AcDbEntity
  8
0
 62
     7
370
    13
  0
POLYLINE
  5
4A9
330
1F
100
AcDbEntity
  8
0
 62
     7
370
    13
100
AcDb2dPolyline
 66
     1
 10
0.0
 20
0.0
 30
0.0
 70
     1
  0
VERTEX
  5
4AA
330
4A9
100
AcDbEntity
  8
0
370
     0
100
AcDbVertex
100
AcDb2dVertex
 10
309.790344
 20
96.223343
 30
0.0
  0
VERTEX
  5
4AB
330
4A9
100
AcDbEntity
  8
0
370
     0
100
AcDbVertex
100
AcDb2dVertex
 10
309.144806
 20
96.223343
 30
0.0
  0
VERTEX
  5
4AC
330
4A9
100
AcDbEntity
  8
0
370
     0
100
AcDbVertex
100
AcDb2dVertex
 10
309.144806
 20
95.799713
 30
0.0
  0
VERTEX
  5
4AD
330
4A9
100
AcDbEntity
  8
0
370
     0
100
AcDbVertex
100
AcDb2dVertex
 10
310.899841
 20
95.799713
 30
0.0
  0
VERTEX
  5
4AE
330
4A9
100
AcDbEntity
  8
0
370
     0
100
AcDbVertex
100
AcDb2dVertex
 10
310.899841
 20
96.223343
 30
0.0
  0
VERTEX
  5
4AF
330
4A9
100
AcDbEntity
  8
0
370
     0
100
AcDbVertex
100
AcDb2dVertex
 10
310.254333
 20
96.223343
 30
0.0
  0
VERTEX
  5
4B0
330
4A9
100
AcDbEntity
  8
0
370
     0
100
AcDbVertex
100
AcDb2dVertex
 10
310.254333
 20
98.876083
 30
0.0
  0
VERTEX
  5
4B1
330
4A9
100
AcDbEntity
  8
0
370
     0
100
AcDbVertex
100
AcDb2dVertex
 10
310.899841
 20
98.876083
 30
0.0
  0
VERTEX
  5
4B2
330
4A9
100
AcDbEntity
  8
0
370
     0
100
AcDbVertex
100
AcDb2dVertex
 10
310.899841
 20
99.299713
 30
0.0
  0
VERTEX
  5
4B3
330
4A9
100
AcDbEntity
  8
0
370
     0
100
AcDbVertex
100
AcDb2dVertex
 10
309.144806
 20
99.299713
 30
0.0
  0
VERTEX
  5
4B4
330
4A9
100
AcDbEntity
  8
0
370
     0
100
AcDbVertex
100
AcDb2dVertex
 10
309.144806
 20
98.876083
 30
0.0
  0
VERTEX
  5
4B5
330
4A9
100
AcDbEntity
  8
0
370
     0
100
AcDbVertex
100
AcDb2dVertex
 10
309.790344
 20
98.876083
 30
0.0
  0
SEQEND
  5
4B6
330
4A9
100
AcDbEntity
  8
0
 62
     7
370
    13
  0
POLYLINE
  5
4B7
330
1F
100
AcDbEntity
  8
0
 62
     7
370
    13
100
AcDb2dPolyline
 66
     1
 10
0.0
 20
0.0
 30
0.0
 70
     1
  0
VERTEX
  5
4B8
330
4B7
100
AcDbEntity
  8
0
370
     0
100
AcDbVertex
100
AcDb2dVertex
 10
311.908508
 20
95.799713
 30
0.0
  0
VERTEX
  5
4B9
330
4B7
100
AcDbEntity
  8
0
370
     0
100
AcDbVertex
100
AcDb2dVertex
 10
312.327087
 20
95.799713
 30
0.0
  0
VERTEX
  5
4BA
330
4B7
100
AcDbEntity
  8
0
370
     0
100
AcDbVertex
100
AcDb2dVertex
 10
312.327087
 20
98.669312
 30
0.0
  0
VERTEX
  5
4BB
330
4B7
100
AcDbEntity
  8
0
370
     0
100
AcDbVertex
100
AcDb2dVertex
 10
313.668579
 20
95.799713
 30
0.0
  0
VERTEX
  5
4BC
330
4B7
100
AcDbEntity
  8
0
370
     0
100
AcDbVertex
100
AcDb2dVertex
 10
314.208191
 20
95.799713
 30
0.0
  0
VERTEX
  5
4BD
330
4B7
100
AcDbEntity
  8
0
370
     0
100
AcDbVertex
100
AcDb2dVertex
 10
314.208191
 20
99.299713
 30
0.0
  0
VERTEX
  5
4BE
330
4B7
100
AcDbEntity
  8
0
370
     0
100
AcDbVertex
100
AcDb2dVertex
 10
313.784576
 20
99.299713
 30
0.0
  0
VERTEX
  5
4BF
330
4B7
100
AcDbEntity
  8
0
370
     0
100
AcDbVertex
100
AcDb2dVertex
 10
313.784576
 20
96.430115
 30
0.0
  0
VERTEX
  5
4C0
330
4B7
100
AcDbEntity
  8
0
370
     0
100
AcDbVertex
100
AcDb2dVertex
 10
312.458191
 20
99.299713
 30
0.0
  0
VERTEX
  5
4C1
330
4B7
100
AcDbEntity
  8
0
370
     0
100
AcDbVertex
100
AcDb2dVertex
 10
311.908508
 20
99.299713
 30
0.0
  0
SEQEND
  5
4C2
330
4B7
100
AcDbEntity
  8
0
 62
     7
370
    13
  0
POLYLINE
  5
4C3
330
1F
100
AcDbEntity
  8
0
 62
     7
370
    13
100
AcDb2dPolyline
 66
     1
 10
0.0
 20
0.0
 30
0.0
 70
     1
  0
VERTEX
  5
4C4
330
4C3
100
AcDbEntity
  8
0
370
     0
100
AcDbVertex
100
AcDb2dVertex
 10
315.862396
 20
96.223343
 30
0.0
  0
VERTEX
  5
4C5
330
4C3
100
AcDbEntity
  8
0
370
     0
100
AcDbVertex
100
AcDb2dVertex
 10
315.216858
 20
96.223343
 30
0.0
  0
VERTEX
  5
4C6
330
4C3
100
AcDbEntity
  8
0
370
     0
100
AcDbVertex
100
AcDb2dVertex
 10
315.216858
 20
95.799713
 30
0.0
  0
VERTEX
  5
4C7
330
4C3
100
AcDbEntity
  8
0
370
     0
100
AcDbVertex
100
AcDb2dVertex
 10
316.971893
 20
95.799713
 30
0.0
  0
VERTEX
  5
4C8
330
4C3
100
AcDbEntity
  8
0
370
     0
100
AcDbVertex
100
AcDb2dVertex
 10
316.971893
 20
96.223343
 30
0.0
  0
VERTEX
  5
4C9
330
4C3
100
AcDbEntity
  8
0
370
     0
100
AcDbVertex
100
AcDb2dVertex
 10
316.326355
 20
96.223343
 30
0.0
  0
VERTEX
  5
4CA
330
4C3
100
AcDbEntity
  8
0
370
     0
100
AcDbVertex
100
AcDb2dVertex
 10
316.326355
 20
98.876083
 30
0.0
  0
VERTEX
  5
4CB
330
4C3
100
AcDbEntity
  8
0
370
     0
100
AcDbVertex
100
AcDb2dVertex
 10
316.971893
 20
98.876083
 30
0.0
  0
VERTEX
  5
4CC
330
4C3
100
AcDbEntity
  8
0
370
     0
100
AcDbVertex
100
AcDb2dVertex
 10
316.971893
 20
99.299713
 30
0.0
  0
VERTEX
  5
4CD
330
4C3
100
AcDbEntity
  8
0
370
     0
100
AcDbVertex
100
AcDb2dVertex
 10
315.216858
 20
99.299713
 30
0.0
  0
VERTEX
  5
4CE
330
4C3
100
AcDbEntity
  8
0
370
     0
100
AcDbVertex
100
AcDb2dVertex
 10
315.216858
 20
98.876083
 30
0.0
  0
VERTEX
  5
4CF
330
4C3
100
AcDbEntity
  8
0
370
     0
100
AcDbVertex
100
AcDb2dVertex
 10
315.862396
 20
98.876083
 30
0.0
  0
SEQEND
  5
4D0
330
4C3
100
AcDbEntity
  8
0
 62
     7
370
    13
  0
POLYLINE
  5
4D1
330
1F
100
AcDbEntity
  8
0
 62
     7
370
    13
100
AcDb2dPolyline
 66
     1
 10
0.0
 20
0.0
 30
0.0
 70
     1
  0
VERTEX
  5
4D2
330
4D1
100
AcDbEntity
  8
0
370
     0
100
AcDbVertex
100
AcDb2dVertex
 10
317.83429
 20
97.549713
 30
0.0
  0
VERTEX
  5
4D3
330
4D1
100
AcDbEntity
  8
0
370
     0
100
AcDbVertex
100
AcDb2dVertex
 10
317.925049
 20
96.76297
 30
0.0
  0
VERTEX
  5
4D4
330
4D1
100
AcDbEntity
  8
0
370
     0
100
AcDbVertex
100
AcDb2dVertex
 10
318.187317
 20
96.182999
 30
0.0
  0
VERTEX
  5
4D5
330
4D1
100
AcDbEntity
  8
0
370
     0
100
AcDbVertex
100
AcDb2dVertex
 10
318.595825
 20
95.824928
 30
0.0
  0
VERTEX
  5
4D6
330
4D1
100
AcDbEntity
  8
0
370
     0
100
AcDbVertex
100
AcDb2dVertex
 10
319.130402
 20
95.703896
 30
0.0
  0
VERTEX
  5
4D7
330
4D1
100
AcDbEntity
  8
0
370
     0
100
AcDbVertex
100
AcDb2dVertex
 10
319.659943
 20
95.824928
 30
0.0
  0
VERTEX
  5
4D8
330
4D1
100
AcDbEntity
  8
0
370
     0
100
AcDbVertex
100
AcDb2dVertex
 10
320.073486
 20
96.182999
 30
0.0
  0
VERTEX
  5
4D9
330
4D1
100
AcDbEntity
  8
0
370
     0
100
AcDbVertex
100
AcDb2dVertex
 10
320.330688
 20
96.76297
 30
0.0
  0
VERTEX
  5
4DA
330
4D1
100
AcDbEntity
  8
0
370
     0
100
AcDbVertex
100
AcDb2dVertex
 10
320.426514
 20
97.549713
 30
0.0
  0
VERTEX
  5
4DB
330
4D1
100
AcDbEntity
  8
0
370
     0
100
AcDbVertex
100
AcDb2dVertex
 10
320.330688
 20
98.331413
 30
0.0
  0
VERTEX
  5
4DC
330
4D1
100
AcDbEntity
  8
0
370
     0
100
AcDbVertex
100
AcDb2dVertex
 10
320.219727
 20
98.649139
 30
0.0
  0
VERTEX
  5
4DD
330
4D1
100
AcDbEntity
  8
0
370
     0
100
AcDbVertex
100
AcDb2dVertex
 10
320.073486
 20
98.911385
 30
0.0
  0
VERTEX
  5
4DE
330
4D1
100
AcDbEntity
  8
0
370
     0
100
AcDbVertex
100
AcDb2dVertex
 10
319.659943
 20
99.269455
 30
0.0
  0
VERTEX
  5
4DF
330
4D1
100
AcDbEntity
  8
0
370
     0
100
AcDbVertex
100
AcDb2dVertex
 10
319.407776
 20
99.360229
 30
0.0
  0
VERTEX
  5
4E0
330
4D1
100
AcDbEntity
  8
0
370
     0
100
AcDbVertex
100
AcDb2dVertex
 10
319.130402
 20
99.395538
 30
0.0
  0
VERTEX
  5
4E1
330
4D1
100
AcDbEntity
  8
0
370
     0
100
AcDbVertex
100
AcDb2dVertex
 10
318.590759
 20
99.269455
 30
0.0
  0
VERTEX
  5
4E2
330
4D1
100
AcDbEntity
  8
0
370
     0
100
AcDbVertex
100
AcDb2dVertex
 10
318.182281
 20
98.916428
 30
0.0
  0
VERTEX
  5
4E3
330
4D1
100
AcDbEntity
  8
0
370
     0
100
AcDbVertex
100
AcDb2dVertex
 10
317.925049
 20
98.336456
 30
0.0
  0
SEQEND
  5
4E4
330
4D1
100
AcDbEntity
  8
0
 62
     7
370
    13
  0
POLYLINE
  5
4E5
330
1F
100
AcDbEntity
  8
0
 62
     7
370
    13
100
AcDb2dPolyline
 66
     1
 10
0.0
 20
0.0
 30
0.0
 70
     1
  0
VERTEX
  5
4E6
330
4E5
100
AcDbEntity
  8
0
370
     0
100
AcDbVertex
100
AcDb2dVertex
 10
318.31842
 20
97.549713
 30
0.0
  0
VERTEX
  5
4E7
330
4E5
100
AcDbEntity
  8
0
370
     0
100
AcDbVertex
100
AcDb2dVertex
 10
318.373901
 20
98.159943
 30
0.0
  0
VERTEX
  5
4E8
330
4E5
100
AcDbEntity
  8
0
370
     0
100
AcDbVertex
100
AcDb2dVertex
 10
318.540344
 20
98.608788
 30
0.0
  0
VERTEX
  5
4E9
330
4E5
100
AcDbEntity
  8
0
370
     0
100
AcDbVertex
100
AcDb2dVertex
 10
318.797546
 20
98.881126
 30
0.0
  0
VERTEX
  5
4EA
330
4E5
100
AcDbEntity
  8
0
370
     0
100
AcDbVertex
100
AcDb2dVertex
 10
319.130402
 20
98.976944
 30
0.0
  0
VERTEX
  5
4EB
330
4E5
100
AcDbEntity
  8
0
370
     0
100
AcDbVertex
100
AcDb2dVertex
 10
319.458191
 20
98.881126
 30
0.0
  0
VERTEX
  5
4EC
330
4E5
100
AcDbEntity
  8
0
370
     0
100
AcDbVertex
100
AcDb2dVertex
 10
319.715424
 20
98.603745
 30
0.0
  0
VERTEX
  5
4ED
330
4E5
100
AcDbEntity
  8
0
370
     0
100
AcDbVertex
100
AcDb2dVertex
 10
319.881836
 20
98.1549
 30
0.0
  0
VERTEX
  5
4EE
330
4E5
100
AcDbEntity
  8
0
370
     0
100
AcDbVertex
100
AcDb2dVertex
 10
319.942352
 20
97.549713
 30
0.0
  0
VERTEX
  5
4EF
330
4E5
100
AcDbEntity
  8
0
370
     0
100
AcDbVertex
100
AcDb2dVertex
 10
319.881836
 20
96.939484
 30
0.0
  0
VERTEX
  5
4F0
330
4E5
100
AcDbEntity
  8
0
370
     0
100
AcDbVertex
100
AcDb2dVertex
 10
319.715424
 20
96.490639
 30
0.0
  0
VERTEX
  5
4F1
330
4E5
100
AcDbEntity
  8
0
370
     0
100
AcDbVertex
100
AcDb2dVertex
 10
319.458191
 20
96.2183
 30
0.0
  0
VERTEX
  5
4F2
330
4E5
100
AcDbEntity
  8
0
370
     0
100
AcDbVertex
100
AcDb2dVertex
 10
319.130402
 20
96.127525
 30
0.0
  0
VERTEX
  5
4F3
330
4E5
100
AcDbEntity
  8
0
370
     0
100
AcDbVertex
100
AcDb2dVertex
 10
318.797546
 20
96.2183
 30
0.0
  0
VERTEX
  5
4F4
330
4E5
100
AcDbEntity
  8
0
370
     0
100
AcDbVertex
100
AcDb2dVertex
 10
318.540344
 20
96.490639
 30
0.0
  0
VERTEX
  5
4F5
330
4E5
100
AcDbEntity
  8
0
370
     0
100
AcDbVertex
100
AcDb2dVertex
 10
318.373901
 20
96.934441
 30
0.0
  0
SEQEND
  5
4F6
330
4E5
100
AcDbEntity
  8
0
 62
     7
370
    13
  0
CIRCLE
  5
4F7
330
1F
100
AcDbEntity
  8
0
 62
     7
370
    35
100
AcDbCircle
 10
75.0
 20
147.25
 30
0.0
 40
1.2295
  0
ARC
  5
4F8
330
1F
100
AcDbEntity
  8
0
 62
     7
370
    35
100
AcDbCircle
 10
169.983398
 20
140.75
 30
0.0
 40
4.999999999999996
100
AcDbArc
 50
90.000003
 51
200.000005
  0
LINE
  5
4F9
330
1F
100
AcDbEntity
  8
0
 62
     7
370
    35
100
AcDbLine
 10
380.0
 20
145.75
 30
0.0
 11
169.983398
 21
145.75
 31
0.0
  0
ARC
  5
4FA
330
1F
100
AcDbEntity
  8
0
 62
     7
370
    35
100
AcDbCircle
 10
380.0
 20
160.75
 30
0.0
 40
15.0
100
AcDbArc
 50
269.999997
 51
90.000003
  0
LINE
  5
4FB
330
1F
100
AcDbEntity
  8
0
 62
     7
370
    35
100
AcDbLine
 10
380.0
 20
175.75
 30
0.0
 11
320.0
 21
175.75
 31
0.0
  0
LINE
  5
4FC
330
1F
100
AcDbEntity
  8
0
 62
     7
370
    35
100
AcDbLine
 10
320.0
 20
175.75
 30
0.0
 11
317.0
 21
172.75
 31
0.0
  0
LINE
  5
4FD
330
1F
100
AcDbEntity
  8
0
 62
     7
370
    35
100
AcDbLine
 10
215.784607
 20
172.75
 30
0.0
 11
317.0
 21
172.75
 31
0.0
  0
LINE
  5
4FE
330
1F
100
AcDbEntity
  8
0
 62
     7
370
    35
100
AcDbLine
 10
195.0
 20
184.75
 30
0.0
 11
215.784607
 21
172.75
 31
0.0
  0
LINE
  5
4FF
330
1F
100
AcDbEntity
  8
0
 62
     7
370
    35
100
AcDbLine
 10
84.0
 20
184.75
 30
0.0
 11
195.0
 21
184.75
 31
0.0
  0
LINE
  5
500
330
1F
100
AcDbEntity
  8
0
 62
     7
370
    35
100
AcDbLine
 10
30.0
 20
153.57309
 30
0.0
 11
84.0
 21
184.75
 31
0.0
  0
ARC
  5
501
330
1F
100
AcDbEntity
  8
0
 62
     7
370
    35
100
AcDbCircle
 10
35.0
 20
144.912827
 30
0.0
 40
10.0
100
AcDbArc
 50
120.000003
 51
269.999997
  0
LINE
  5
502
330
1F
100
AcDbEntity
  8
0
 62
     7
370
    35
100
AcDbLine
 10
35.0
 20
134.912827
 30
0.0
 11
42.212887
 21
134.912827
 31
0.0
  0
ARC
  5
503
330
1F
100
AcDbEntity
  8
0
 62
     7
370
    35
100
AcDbCircle
 10
42.212887
 20
114.912834
 30
0.0
 40
20.0
100
AcDbArc
 50
35.0
 51
90.000003
  0
LINE
  5
504
330
1F
100
AcDbEntity
  8
0
 62
     7
370
    35
100
AcDbLine
 10
58.595924
 20
126.384361
 30
0.0
 11
64.760597
 21
117.580292
 31
0.0
  0
ARC
  5
505
330
1F
100
AcDbEntity
  8
0
 62
     7
370
    35
100
AcDbCircle
 10
75.0
 20
124.75
 30
0.0
 40
12.5
100
AcDbArc
 50
215.000002
 51
325.0
  0
LINE
  5
506
330
1F
100
AcDbEntity
  8
0
 62
     7
370
    35
100
AcDbLine
 10
95.736435
 20
132.571625
 30
0.0
 11
85.239403
 21
117.580292
 31
0.0
  0
ARC
  5
507
330
1F
100
AcDbEntity
  8
0
 62
     7
370
    35
100
AcDbCircle
 10
112.119476
 20
121.10009
 30
0.0
 40
20.0
100
AcDbArc
 50
54.999999
 51
144.999998
  0
LINE
  5
508
330
1F
100
AcDbEntity
  8
0
 62
     7
370
    35
100
AcDbLine
 10
123.591003
 20
137.483124
 30
0.0
 11
147.830292
 21
120.510597
 31
0.0
  0
ARC
  5
509
330
1F
100
AcDbEntity
  8
0
 62
     7
370
    35
100
AcDbCircle
 10
155.0
 20
130.75
 30
0.0
 40
12.5
100
AcDbArc
 50
234.999998
 51
20.000001
  0
LINE
  5
50A
330
1F
100
AcDbEntity
  8
0
 62
     7
370
    35
100
AcDbLine
 10
165.284943
 20
139.039902
 30
0.0
 11
166.746155
 21
135.025253
 31
0.0
  0
CIRCLE
  5
50B
330
1F
100
AcDbEntity
  8
0
 62
     7
370
    35
100
AcDbCircle
 10
75.0
 20
154.75
 30
0.0
 40
1.2295
  0
CIRCLE
  5
50C
330
1F
100
AcDbEntity
  8
0
 62
     7
370
    35
100
AcDbCircle
 10
75.0
 20
124.75
 30
0.0
 40
4.0
  0
CIRCLE
  5
50D
330
1F
100
AcDbEntity
  8
0
 62
     7
370
    35
100
AcDbCircle
 10
380.0
 20
160.75
 30
0.0
 40
3.25
  0
CIRCLE
  5
50E
330
1F
100
AcDbEntity
  8
0
 62
     7
370
    35
100
AcDbCircle
 10
155.0
 20
130.75
 30
0.0
 40
5.5
  0
CIRCLE
  5
50F
330
1F
100
AcDbEntity
  8
0
 62
     7
370
    35
100
AcDbCircle
 10
35.0
 20
144.912827
 30
0.0
 40
5.0
  0
CIRCLE
  5
510
330
1F
100
AcDbEntity
  8
0
 62
     7
370
    35
100
AcDbCircle
 10
370.0
 20
160.75
 30
0.0
 40
3.25
  0
CIRCLE
  5
511
330
1F
100
AcDbEntity
  8
0
 62
     7
370
    35
100
AcDbCircle
 10
360.0
 20
160.75
 30
0.0
 40
3.25
  0
LINE
  5
512
330
1F
100
AcDbEntity
  8
0
 62
     7
370
    35
100
AcDbLine
 10
255.0
 20
165.5
 30
0.0
 11
345.0
 21
165.5
 31
0.0
  0
ARC
  5
513
330
1F
100
AcDbEntity
  8
0
 62
     7
370
    35
100
AcDbCircle
 10
345.0
 20
160.75
 30
0.0
 40
4.749999999999999
100
AcDbArc
 50
269.999997
 51
90.000003
  0
LINE
  5
514
330
1F
100
AcDbEntity
  8
0
 62
     7
370
    35
100
AcDbLine
 10
345.0
 20
156.0
 30
0.0
 11
255.0
 21
156.0
 31
0.0
  0
ARC
  5
515
330
1F
100
AcDbEntity
  8
0
 62
     7
370
    35
100
AcDbCircle
 10
255.0
 20
160.75
 30
0.0
 40
4.749999999999999
100
AcDbArc
 50
90.000003
 51
269.999997
  0
ARC
  5
516
330
1F
100
AcDbEntity
  8
0
 62
     7
370
    35
100
AcDbCircle
 10
170.0
 20
177.25
 30
0.0
 40
2.0
100
AcDbArc
 50
269.999997
 51
90.000003
  0
LINE
  5
517
330
1F
100
AcDbEntity
  8
0
 62
     7
370
    35
100
AcDbLine
 10
170.0
 20
175.25
 30
0.0
 11
110.0
 21
175.25
 31
0.0
  0
ARC
  5
518
330
1F
100
AcDbEntity
  8
0
 62
     7
370
    35
100
AcDbCircle
 10
110.0
 20
177.25
 30
0.0
 40
2.0
100
AcDbArc
 50
90.000003
 51
269.999997
  0
LINE
  5
519
330
1F
100
AcDbEntity
  8
0
 62
     7
370
    35
100
AcDbLine
 10
110.0
 20
179.25
 30
0.0
 11
170.0
 21
179.25
 31
0.0
  0
ARC
  5
51A
330
1F
100
AcDbEntity
  8
0
 62
     7
370
    35
100
AcDbCircle
 10
192.029938
 20
156.548798
 30
0.0
 40
1.701759450624923
100
AcDbArc
 50
213.476268
 51
33.47627
  0
LINE
  5
51B
330
1F
100
AcDbEntity
  8
0
 62
     7
370
    35
100
AcDbLine
 10
190.610474
 20
155.610123
 30
0.0
 11
185.259216
 21
163.70224
 31
0.0
  0
ARC
  5
51C
330
1F
100
AcDbEntity
  8
0
 62
     7
370
    35
100
AcDbCircle
 10
186.67868
 20
164.640915
 30
0.0
 40
1.701759450624923
100
AcDbArc
 50
33.47627
 51
213.476268
  0
LINE
  5
51D
330
1F
100
AcDbEntity
  8
0
 62
     7
370
    35
100
AcDbLine
 10
188.098145
 20
165.57959
 30
0.0
 11
193.449387
 21
157.487473
 31
0.0
  0
ARC
  5
51E
330
1F
100
AcDbEntity
  8
0
 62
     7
370
    35
100
AcDbCircle
 10
201.688293
 20
156.548798
 30
0.0
 40
1.701759450624923
100
AcDbArc
 50
213.476268
 51
33.47627
  0
LINE
  5
51F
330
1F
100
AcDbEntity
  8
0
 62
     7
370
    35
100
AcDbLine
 10
200.268829
 20
155.610123
 30
0.0
 11
194.917572
 21
163.70224
 31
0.0
  0
ARC
  5
520
330
1F
100
AcDbEntity
  8
0
 62
     7
370
    35
100
AcDbCircle
 10
196.337036
 20
164.640915
 30
0.0
 40
1.701759450624923
100
AcDbArc
 50
33.47627
 51
213.476268
  0
LINE
  5
521
330
1F
100
AcDbEntity
  8
0
 62
     7
370
    35
100
AcDbLine
 10
197.7565
 20
165.57959
 30
0.0
 11
203.107742
 21
157.487473
 31
0.0
  0
ARC
  5
522
330
1F
100
AcDbEntity
  8
0
 62
     7
370
    35
100
AcDbCircle
 10
211.346634
 20
156.548798
 30
0.0
 40
1.701759450624923
100
AcDbArc
 50
213.476268
 51
33.47627
  0
LINE
  5
523
330
1F
100
AcDbEntity
  8
0
 62
     7
370
    35
100
AcDbLine
 10
209.92717
 20
155.610123
 30
0.0
 11
204.575928
 21
163.70224
 31
0.0
  0
ARC
  5
524
330
1F
100
AcDbEntity
  8
0
 62
     7
370
    35
100
AcDbCircle
 10
205.995392
 20
164.640915
 30
0.0
 40
1.701759450624923
100
AcDbArc
 50
33.47627
 51
213.476268
  0
LINE
  5
525
330
1F
100
AcDbEntity
  8
0
 62
     7
370
    35
100
AcDbLine
 10
207.414856
 20
165.57959
 30
0.0
 11
212.766098
 21
157.487473
 31
0.0
  0
ARC
  5
526
330
1F
100
AcDbEntity
  8
0
 62
     7
370
    35
100
AcDbCircle
 10
221.00499
 20
156.548798
 30
0.0
 40
1.701759450624923
100
AcDbArc
 50
213.476268
 51
33.47627
  0
LINE
  5
527
330
1F
100
AcDbEntity
  8
0
 62
     7
370
    35
100
AcDbLine
 10
219.585526
 20
155.610123
 30
0.0
 11
214.234283
 21
163.70224
 31
0.0
  0
ARC
  5
528
330
1F
100
AcDbEntity
  8
0
 62
     7
370
    35
100
AcDbCircle
 10
215.653748
 20
164.640915
 30
0.0
 40
1.701759450624923
100
AcDbArc
 50
33.47627
 51
213.476268
  0
LINE
  5
529
330
1F
100
AcDbEntity
  8
0
 62
     7
370
    35
100
AcDbLine
 10
217.073212
 20
165.57959
 30
0.0
 11
222.424454
 21
157.487473
 31
0.0
  0
ARC
  5
52A
330
1F
100
AcDbEntity
  8
0
 62
     7
370
    35
100
AcDbCircle
 10
230.663345
 20
156.548798
 30
0.0
 40
1.701759450624923
100
AcDbArc
 50
213.476268
 51
33.47627
  0
LINE
  5
52B
330
1F
100
AcDbEntity
  8
0
 62
     7
370
    35
100
AcDbLine
 10
229.243881
 20
155.610123
 30
0.0
 11
223.892639
 21
163.70224
 31
0.0
  0
ARC
  5
52C
330
1F
100
AcDbEntity
  8
0
 62
     7
370
    35
100
AcDbCircle
 10
225.312103
 20
164.640915
 30
0.0
 40
1.701759450624923
100
AcDbArc
 50
33.47627
 51
213.476268
  0
LINE
  5
52D
330
1F
100
AcDbEntity
  8
0
 62
     7
370
    35
100
AcDbLine
 10
226.731567
 20
165.57959
 30
0.0
 11
232.082809
 21
157.487473
 31
0.0
  0
ARC
  5
52E
330
1F
100
AcDbEntity
  8
0
 62
     7
370
    35
100
AcDbCircle
 10
240.321701
 20
156.548798
 30
0.0
 40
1.701759450624923
100
AcDbArc
 50
213.476268
 51
33.47627
  0
LINE
  5
52F
330
1F
100
AcDbEntity
  8
0
 62
     7
370
    35
100
AcDbLine
 10
238.902237
 20
155.610123
 30
0.0
 11
233.550995
 21
163.70224
 31
0.0
  0
ARC
  5
530
330
1F
100
AcDbEntity
  8
0
 62
     7
370
    35
100
AcDbCircle
 10
234.970459
 20
164.640915
 30
0.0
 40
1.701759450624923
100
AcDbArc
 50
33.47627
 51
213.476268
  0
LINE
  5
531
330
1F
100
AcDbEntity
  8
0
 62
     7
370
    35
100
AcDbLine
 10
236.389923
 20
165.57959
 30
0.0
 11
241.741165
 21
157.487473
 31
0.0
  0
ENDSEC
  0
SECTION
  2
OBJECTS
  0
DICTIONARY
  5
C
330
0
100
AcDbDictionary
281
     1
  3
ACAD_GROUP
350
D
  3
ACAD_LAYOUT
350
1A
  3
ACAD_MLINESTYLE
350
17
  3
ACAD_PLOTSETTINGS
350
19
  3
ACAD_PLOTSTYLENAME
350
E
  3
ACAD_SCALELIST
350
47
  0
DICTIONARY
  5
D
102
{ACAD_REACTORS
330
C
102
}
330
C
100
AcDbDictionary
281
     1
  0
DICTIONARY
  5
1A
102
{ACAD_REACTORS
330
C
102
}
330
C
100
AcDbDictionary
281
     1
  3
Layout1
350
1E
  3
Layout2
350
26
  3
Model
350
22
  0
DICTIONARY
  5
17
102
{ACAD_REACTORS
330
C
102
}
330
C
100
AcDbDictionary
281
     1
  3
Standard
350
18
  0
DICTIONARY
  5
19
102
{ACAD_REACTORS
330
C
102
}
330
C
100
AcDbDictionary
281
     1
  0
ACDBDICTIONARYWDFLT
  5
E
102
{ACAD_REACTORS
330
C
102
}
330
C
100
AcDbDictionary
281
     1
  3
Normal
350
F
100
AcDbDictionaryWithDefault
340
F
  0
DICTIONARY
  5
47
102
{ACAD_REACTORS
330
C
102
}
330
C
100
AcDbDictionary
281
     1
  3
A0
350
48
  3
A1
350
49
  3
A2
350
4A
  3
A3
350
4B
  3
A4
350
4C
  3
A5
350
4D
  3
A6
350
4E
  3
A7
350
4F
  3
A8
350
50
  3
A9
350
51
  3
B0
350
52
  3
B1
350
53
  3
B2
350
54
  3
B3
350
55
  3
B4
350
56
  3
B5
350
57
  3
B6
350
58
  3
B7
350
59
  3
B8
350
5A
  3
B9
350
5B
  3
C0
350
5C
  3
C1
350
5D
  3
C2
350
5E
  3
C3
350
5F
  3
C4
350
60
  3
C5
350
61
  3
C6
350
62
  3
C7
350
63
  3
C8
350
64
  3
C9
350
65
  3
D0
350
66
  3
D1
350
67
  3
D2
350
68
  0
LAYOUT
  5
1E
102
{ACAD_REACTORS
330
1A
102
}
330
1A
100
AcDbPlotSettings
  1

  2
none_device
  4

  6

 40
0.0
 41
0.0
 42
0.0
 43
0.0
 44
0.0
 45
0.0
 46
0.0
 47
0.0
 48
0.0
 49
0.0
140
0.0
141
0.0
142
1.0
143
1.0
 70
  4784
 72
     0
 73
     0
 74
     5
  7

 75
    16
147
1.0
148
0.0
149
0.0
100
AcDbLayout
  1
Layout1
 70
     1
 71
     1
 10
0.0
 20
0.0
 11
420.0
 21
297.0
 12
0.0
 22
0.0
 32
0.0
 14
0.0
 24
0.0
 34
0.0
 15
399.5
 25
184.75
 35
2.0
146
0.0
 13
0.0
 23
0.0
 33
0.0
 16
1.0
 26
0.0
 36
0.0
 17
0.0
 27
1.0
 37
0.0
 76
     0
330
1B
  0
LAYOUT
  5
26
102
{ACAD_REACTORS
330
1A
102
}
330
1A
100
AcDbPlotSettings
  1

  2
none_device
  4

  6

 40
0.0
 41
0.0
 42
0.0
 43
0.0
 44
0.0
 45
0.0
 46
0.0
 47
0.0
 48
0.0
 49
0.0
140
0.0
141
0.0
142
1.0
143
1.0
 70
  4784
 72
     0
 73
     0
 74
     5
  7

 75
    16
147
1.0
148
0.0
149
0.0
100
AcDbLayout
  1
Layout2
 70
     1
 71
     2
 10
0.0
 20
0.0
 11
0.0
 21
0.0
 12
0.0
 22
0.0
 32
0.0
 14
0.0
 24
0.0
 34
0.0
 15
0.0
 25
0.0
 35
0.0
146
0.0
 13
0.0
 23
0.0
 33
0.0
 16
1.0
 26
0.0
 36
0.0
 17
0.0
 27
1.0
 37
0.0
 76
     0
330
23
  0
LAYOUT
  5
22
102
{ACAD_REACTORS
330
1A
102
}
330
1A
100
AcDbPlotSettings
  1

  2
none_device
  4
Letter_(8.50_x_11.00_Inches)
  6

 40
6.35
 41
6.35
 42
6.350005
 43
6.350005
 44
215.9
 45
279.4
 46
0.0
 47
0.0
 48
0.0
 49
0.0
140
0.0
141
0.0
142
1.0
143
1.0
 70
  5808
 72
     0
 73
     0
 74
     0
  7

 75
     0
147
1.0
148
0.0
149
0.0
100
AcDbLayout
  1
Model
 70
     1
 71
     0
 10
0.0
 20
0.0
 11
420.0
 21
297.0
 12
0.0
 22
0.0
 32
0.0
 14
0.0
 24
0.0
 34
0.0
 15
399.5
 25
184.75
 35
2.0
146
0.0
 13
0.0
 23
0.0
 33
0.0
 16
1.0
 26
0.0
 36
0.0
 17
0.0
 27
1.0
 37
0.0
 76
     0
330
1F
331
29
  0
MLINESTYLE
  5
18
102
{ACAD_REACTORS
330
17
102
}
330
17
100
AcDbMlineStyle
  2
Standard
 70
     0
  3

 62
   256
 51
90.0
 52
90.0
 71
     2
 49
0.5
 62
   256
  6
BYLAYER
 49
-0.5
 62
   256
  6
BYLAYER
  0
ACDBPLACEHOLDER
  5
F
102
{ACAD_REACTORS
330
E
102
}
330
E
  0
SCALE
  5
48
102
{ACAD_REACTORS
330
47
102
}
330
47
100
AcDbScale
 70
     0
300
1:1
140
1.0
141
1.0
290
     1
  0
SCALE
  5
49
102
{ACAD_REACTORS
330
47
102
}
330
47
100
AcDbScale
 70
     0
300
1:2
140
1.0
141
2.0
290
     0
  0
SCALE
  5
4A
102
{ACAD_REACTORS
330
47
102
}
330
47
100
AcDbScale
 70
     0
300
1:4
140
1.0
141
4.0
290
     0
  0
SCALE
  5
4B
102
{ACAD_REACTORS
330
47
102
}
330
47
100
AcDbScale
 70
     0
300
1:5
140
1.0
141
5.0
290
     0
  0
SCALE
  5
4C
102
{ACAD_REACTORS
330
47
102
}
330
47
100
AcDbScale
 70
     0
300
1:8
140
1.0
141
8.0
290
     0
  0
SCALE
  5
4D
102
{ACAD_REACTORS
330
47
102
}
330
47
100
AcDbScale
 70
     0
300
1:10
140
1.0
141
10.0
290
     0
  0
SCALE
  5
4E
102
{ACAD_REACTORS
330
47
102
}
330
47
100
AcDbScale
 70
     0
300
1:16
140
1.0
141
16.0
290
     0
  0
SCALE
  5
4F
102
{ACAD_REACTORS
330
47
102
}
330
47
100
AcDbScale
 70
     0
300
1:20
140
1.0
141
20.0
290
     0
  0
SCALE
  5
50
102
{ACAD_REACTORS
330
47
102
}
330
47
100
AcDbScale
 70
     0
300
1:30
140
1.0
141
30.0
290
     0
  0
SCALE
  5
51
102
{ACAD_REACTORS
330
47
102
}
330
47
100
AcDbScale
 70
     0
300
1:40
140
1.0
141
40.0
290
     0
  0
SCALE
  5
52
102
{ACAD_REACTORS
330
47
102
}
330
47
100
AcDbScale
 70
     0
300
1:50
140
1.0
141
50.0
290
     0
  0
SCALE
  5
53
102
{ACAD_REACTORS
330
47
102
}
330
47
100
AcDbScale
 70
     0
300
1:100
140
1.0
141
100.0
290
     0
  0
SCALE
  5
54
102
{ACAD_REACTORS
330
47
102
}
330
47
100
AcDbScale
 70
     0
300
2:1
140
2.0
141
1.0
290
     0
  0
SCALE
  5
55
102
{ACAD_REACTORS
330
47
102
}
330
47
100
AcDbScale
 70
     0
300
4:1
140
4.0
141
1.0
290
     0
  0
SCALE
  5
56
102
{ACAD_REACTORS
330
47
102
}
330
47
100
AcDbScale
 70
     0
300
8:1
140
8.0
141
1.0
290
     0
  0
SCALE
  5
57
102
{ACAD_REACTORS
330
47
102
}
330
47
100
AcDbScale
 70
     0
300
10:1
140
10.0
141
1.0
290
     0
  0
SCALE
  5
58
102
{ACAD_REACTORS
330
47
102
}
330
47
100
AcDbScale
 70
     0
300
100:1
140
100.0
141
1.0
290
     0
  0
SCALE
  5
59
102
{ACAD_REACTORS
330
47
102
}
330
47
100
AcDbScale
 70
     0
300
1/128" = 1'-0"
140
0.007812
141
12.0
290
     0
  0
SCALE
  5
5A
102
{ACAD_REACTORS
330
47
102
}
330
47
100
AcDbScale
 70
     0
300
1/64" = 1'-0"
140
0.015625
141
12.0
290
     0
  0
SCALE
  5
5B
102
{ACAD_REACTORS
330
47
102
}
330
47
100
AcDbScale
 70
     0
300
1/32" = 1'-0"
140
0.03125
141
12.0
290
     0
  0
SCALE
  5
5C
102
{ACAD_REACTORS
330
47
102
}
330
47
100
AcDbScale
 70
     0
300
1/16" = 1'-0"
140
0.0625
141
12.0
290
     0
  0
SCALE
  5
5D
102
{ACAD_REACTORS
330
47
102
}
330
47
100
AcDbScale
 70
     0
300
3/32" = 1'-0"
140
0.09375
141
12.0
290
     0
  0
SCALE
  5
5E
102
{ACAD_REACTORS
330
47
102
}
330
47
100
AcDbScale
 70
     0
300
1/8" = 1'-0"
140
0.125
141
12.0
290
     0
  0
SCALE
  5
5F
102
{ACAD_REACTORS
330
47
102
}
330
47
100
AcDbScale
 70
     0
300
3/16" = 1'-0"
140
0.1875
141
12.0
290
     0
  0
SCALE
  5
60
102
{ACAD_REACTORS
330
47
102
}
330
47
100
AcDbScale
 70
     0
300
1/4" = 1'-0"
140
0.25
141
12.0
290
     0
  0
SCALE
  5
61
102
{ACAD_REACTORS
330
47
102
}
330
47
100
AcDbScale
 70
     0
300
3/8" = 1'-0"
140
0.375
141
12.0
290
     0
  0
SCALE
  5
62
102
{ACAD_REACTORS
330
47
102
}
330
47
100
AcDbScale
 70
     0
300
1/2" = 1'-0"
140
0.5
141
12.0
290
     0
  0
SCALE
  5
63
102
{ACAD_REACTORS
330
47
102
}
330
47
100
AcDbScale
 70
     0
300
3/4" = 1'-0"
140
0.75
141
12.0
290
     0
  0
SCALE
  5
64
102
{ACAD_REACTORS
330
47
102
}
330
47
100
AcDbScale
 70
     0
300
1" = 1'-0"
140
1.0
141
12.0
290
     0
  0
SCALE
  5
65
102
{ACAD_REACTORS
330
47
102
}
330
47
100
AcDbScale
 70
     0
300
1-1/2" = 1'-0"
140
1.5
141
12.0
290
     0
  0
SCALE
  5
66
102
{ACAD_REACTORS
330
47
102
}
330
47
100
AcDbScale
 70
     0
300
3" = 1'-0"
140
3.0
141
12.0
290
     0
  0
SCALE
  5
67
102
{ACAD_REACTORS
330
47
102
}
330
47
100
AcDbScale
 70
     0
300
6" = 1'-0"
140
6.0
141
12.0
290
     0
  0
SCALE
  5
68
102
{ACAD_REACTORS
330
47
102
}
330
47
100
AcDbScale
 70
     0
300
1'-0" = 1'-0"
140
12.0
141
12.0
290
     0
  0
ENDSEC
  0
EOF
