  0
SECTION
  2
HEADER
  9
$ACADVER
  1
AC1015
  9
$ACADMAINTVER
 70
     6
  9
$DWGCODEPAGE
  3
ANSI_1252
  9
$INSBASE
 10
0.0
 20
0.0
 30
0.0
  9
$EXTMIN
 10
0.0
 20
0.0
 30
0.0
  9
$EXTMAX
 10
387.202728
 20
184.75
 30
2.0
  9
$LIMMIN
 10
0.0
 20
0.0
  9
$LIMMAX
 10
420.0
 20
297.0
  9
$ORTHOMODE
 70
     0
  9
$REGENMODE
 70
     1
  9
$FILLMODE
 70
     1
  9
$QTEXTMODE
 70
     0
  9
$MIRRTEXT
 70
     1
  9
$LTSCALE
 40
1.0
  9
$ATTMODE
 70
     1
  9
$TEXTSIZE
 40
2.5
  9
$TRACEWID
 40
1.0
  9
$TEXTSTYLE
  7
Standard
  9
$CLAYER
  8
0
  9
$CELTYPE
  6
ByLayer
  9
$CECOLOR
 62
   256
  9
$CELTSCALE
 40
1.0
  9
$DISPSILH
 70
     0
  9
$DIMSCALE
 40
1.0
  9
$DIMASZ
 40
2.5
  9
$DIMEXO
 40
0.625
  9
$DIMDLI
 40
3.75
  9
$DIMRND
 40
0.0
  9
$DIMDLE
 40
0.0
  9
$DIMEXE
 40
1.25
  9
$DIMTP
 40
0.0
  9
$DIMTM
 40
0.0
  9
$DIMTXT
 40
2.5
  9
$DIMCEN
 40
2.5
  9
$DIMTSZ
 40
0.0
  9
$DIMTOL
 70
     0
  9
$DIMLIM
 70
     0
  9
$DIMTIH
 70
     0
  9
$DIMTOH
 70
     0
  9
$DIMSE1
 70
     0
  9
$DIMSE2
 70
     0
  9
$DIMTAD
 70
     1
  9
$DIMZIN
 70
     8
  9
$DIMBLK
  1

  9
$DIMASO
 70
     1
  9
$DIMSHO
 70
     1
  9
$DIMPOST
  1

  9
$DIMAPOST
  1

  9
$DIMALT
 70
     0
  9
$DIMALTD
 70
     3
  9
$DIMALTF
 40
0.03937
  9
$DIMLFAC
 40
1.0
  9
$DIMTOFL
 70
     1
  9
$DIMTVP
 40
0.0
  9
$DIMTIX
 70
     0
  9
$DIMSOXD
 70
     0
  9
$DIMSAH
 70
     0
  9
$DIMBLK1
  1

  9
$DIMBLK2
  1

  9
$DIMSTYLE
  2
Standard
  9
$DIMCLRD
 70
     0
  9
$DIMCLRE
 70
     0
  9
$DIMCLRT
 70
     0
  9
$DIMTFAC
 40
1.0
  9
$DIMGAP
 40
0.625
  9
$DIMJUST
 70
     0
  9
$DIMSD1
 70
     0
  9
$DIMSD2
 70
     0
  9
$DIMTOLJ
 70
     0
  9
$DIMTZIN
 70
     8
  9
$DIMALTZ
 70
     0
  9
$DIMALTTZ
 70
     0
  9
$DIMUPT
 70
     0
  9
$DIMDEC
 70
     2
  9
$DIMTDEC
 70
     2
  9
$DIMALTU
 70
     2
  9
$DIMALTTD
 70
     3
  9
$DIMTXSTY
  7
Standard
  9
$DIMAUNIT
 70
     0
  9
$DIMADEC
 70
     0
  9
$DIMALTRND
 40
0.0
  9
$DIMAZIN
 70
     0
  9
$DIMDSEP
 70
    44
  9
$DIMATFIT
 70
     0
  9
$DIMFRAC
 70
     0
  9
$DIMLDRBLK
  1

  9
$DIMLUNIT
 70
     2
  9
$DIMLWD
 70
    -2
  9
$DIMLWE
 70
    -2
  9
$DIMTMOVE
 70
     0
  9
$LUNITS
 70
     2
  9
$LUPREC
 70
     4
  9
$SKETCHINC
 40
1.0
  9
$FILLETRAD
 40
2.5
  9
$AUNITS
 70
     0
  9
$AUPREC
 70
     0
  9
$MENU
  1
.
  9
$ELEVATION
 40
0.0
  9
$PELEVATION
 40
0.0
  9
$THICKNESS
 40
0.0
  9
$LIMCHECK
 70
     0
  9
$CHAMFERA
 40
2.5
  9
$CHAMFERB
 40
2.5
  9
$CHAMFERC
 40
0.0
  9
$CHAMFERD
 40
0.0
  9
$SKPOLY
 70
     0
  9
$TDCREATE
 40
2447892.75
  9
$TDUCREATE
 40
0.0
  9
$TDUPDATE
 40
2461118.63202522
  9
$TDUUPDATE
 40
2461118.88202522
  9
$TDINDWG
 40
0.0
  9
$TDUSRTIMER
 40
0.0
  9
$USRTIMER
 70
     1
  9
$ANGBASE
 50
0.0
  9
$ANGDIR
 70
     0
  9
$PDMODE
 70
     0
  9
$PDSIZE
 40
0.0
  9
$PLINEWID
 40
0.0
  9
$SPLFRAME
 70
     0
  9
$SPLINETYPE
 70
     6
  9
$SPLINESEGS
 70
     8
  9
$HANDSEED
  5
525
  9
$SURFTAB1
 70
     6
  9
$SURFTAB2
 70
     6
  9
$SURFTYPE
 70
     6
  9
$SURFU
 70
     6
  9
$SURFV
 70
     6
  9
$UCSBASE
  2

  9
$UCSNAME
  2

  9
$UCSORG
 10
0.0
 20
0.0
 30
0.0
  9
$UCSXDIR
 10
1.0
 20
0.0
 30
0.0
  9
$UCSYDIR
 10
0.0
 20
1.0
 30
0.0
  9
$UCSORTHOREF
  2

  9
$UCSORTHOVIEW
 70
     1
  9
$UCSORGTOP
 10
0.0
 20
0.0
 30
0.0
  9
$UCSORGBOTTOM
 10
0.0
 20
0.0
 30
0.0
  9
$UCSORGLEFT
 10
0.0
 20
0.0
 30
0.0
  9
$UCSORGRIGHT
 10
0.0
 20
0.0
 30
0.0
  9
$UCSORGFRONT
 10
0.0
 20
0.0
 30
0.0
  9
$UCSORGBACK
 10
0.0
 20
0.0
 30
0.0
  9
$PUCSBASE
  2

  9
$PUCSNAME
  2

  9
$PUCSORG
 10
0.0
 20
0.0
 30
0.0
  9
$PUCSXDIR
 10
1.0
 20
0.0
 30
0.0
  9
$PUCSYDIR
 10
0.0
 20
1.0
 30
0.0
  9
$PUCSORTHOREF
  2

  9
$PUCSORTHOVIEW
 70
     0
  9
$PUCSORGTOP
 10
0.0
 20
0.0
 30
0.0
  9
$PUCSORGBOTTOM
 10
0.0
 20
0.0
 30
0.0
  9
$PUCSORGLEFT
 10
0.0
 20
0.0
 30
0.0
  9
$PUCSORGRIGHT
 10
0.0
 20
0.0
 30
0.0
  9
$PUCSORGFRONT
 10
0.0
 20
0.0
 30
0.0
  9
$PUCSORGBACK
 10
0.0
 20
0.0
 30
0.0
  9
$USERI1
 70
     0
  9
$USERI2
 70
     0
  9
$USERI3
 70
     0
  9
$USERI4
 70
     0
  9
$USERI5
 70
     0
  9
$USERR1
 40
0.0
  9
$USERR2
 40
0.0
  9
$USERR3
 40
0.0
  9
$USERR4
 40
0.0
  9
$USERR5
 40
0.0
  9
$WORLDVIEW
 70
     1
  9
$SHADEDGE
 70
     3
  9
$SHADEDIF
 70
    70
  9
$TILEMODE
 70
     1
  9
$MAXACTVP
 70
    64
  9
$PINSBASE
 10
0.0
 20
0.0
 30
0.0
  9
$PLIMCHECK
 70
     0
  9
$PEXTMIN
 10
0.0
 20
0.0
 30
0.0
  9
$PEXTMAX
 10
387.202728
 20
184.75
 30
2.0
  9
$PLIMMIN
 10
0.0
 20
0.0
  9
$PLIMMAX
 10
420.0
 20
297.0
  9
$UNITMODE
 70
     0
  9
$VISRETAIN
 70
     0
  9
$PLINEGEN
 70
     0
  9
$PSLTSCALE
 70
     1
  9
$TREEDEPTH
 70
  3020
  9
$CMLSTYLE
  2
Standard
  9
$CMLJUST
 70
     0
  9
$CMLSCALE
 40
20.0
  9
$PROXYGRAPHICS
 70
     1
  9
$MEASUREMENT
 70
     1
  9
$CELWEIGHT
370
    -1
  9
$ENDCAPS
280
     0
  9
$JOINSTYLE
280
     0
  9
$LWDISPLAY
290
     0
  9
$INSUNITS
 70
     0
  9
$HYPERLINKBASE
  1

  9
$STYLESHEET
  1

  9
$XEDIT
290
     1
  9
$CEPSNTYPE
380
     0
  9
$PSTYLEMODE
290
     0
  9
$FINGERPRINTGUID
  2
{35D1EF7A-BE37-4699-AD1D-2A740327642F}
  9
$VERSIONGUID
  2
{FAEB1C32-E019-11D5-929B-00C0DF256EC4}
  9
$EXTNAMES
290
     1
  9
$PSVPSCALE
 40
0.0
  9
$OLESTARTUP
290
     0
  0
ENDSEC
  0
SECTION
  2
CLASSES
  0
CLASS
  1
ACDBDICTIONARYWDFLT
  2
AcDbDictionaryWithDefault
  3
ObjectDBX Classes
 90
        0
280
     0
281
     0
  0
CLASS
  1
VISUALSTYLE
  2
AcDbVisualStyle
  3
ObjectDBX Classes
 90
     4095
280
     0
281
     0
  0
CLASS
  1
MATERIAL
  2
AcDbMaterial
  3
ObjectDBX Classes
 90
     1153
280
     0
281
     0
  0
CLASS
  1
SCALE
  2
AcDbScale
  3
ObjectDBX Classes
 90
     1153
280
     0
281
     0
  0
CLASS
  1
TABLESTYLE
  2
AcDbTableStyle
  3
ObjectDBX Classes
 90
     4095
280
     0
281
     0
  0
CLASS
  1
MLEADERSTYLE
  2
AcDbMLeaderStyle
  3
ACDB_MLEADERSTYLE_CLASS
 90
     4095
280
     0
281
     0
  0
CLASS
  1
SUN
  2
AcDbSun
  3
SCENEOE
 90
     1153
280
     0
281
     0
  0
CLASS
  1
ACDBPLACEHOLDER
  2
AcDbPlaceHolder
  3
ObjectDBX Classes
 90
        0
280
     0
281
     0
  0
CLASS
  1
LAYOUT
  2
AcDbLayout
  3
ObjectDBX Classes
 90
        0
280
     0
281
     0
  0
ENDSEC
  0
SECTION
  2
TABLES
  0
TABLE
  2
VPORT
  5
8
330
0
100
AcDbSymbolTable
 70
     1
  0
VPORT
  5
29
330
8
100
AcDbSymbolTableRecord
100
AcDbViewportTableRecord
  2
*Active
 70
     0
 10
0.0
 20
0.0
 11
1.0
 21
1.0
 12
10.429907
 22
4.5
 13
0.0
 23
0.0
 14
0.5
 24
0.5
 15
0.5
 25
0.5
 16
0.0
 26
0.0
 36
1.0
 17
0.0
 27
0.0
 37
0.0
 40
9.0
 41
1.972973
 42
50.0
 43
0.0
 44
0.0
 50
0.0
 51
0.0
 71
     0
 72
   100
 73
     1
 74
     3
 75
     0
 76
     0
 77
     0
 78
     0
281
     0
 65
     1
110
0.0
120
0.0
130
0.0
111
1.0
121
0.0
131
0.0
112
0.0
122
1.0
132
0.0
 79
     0
146
0.0
  0
ENDTAB
  0
TABLE
  2
LTYPE
  5
5
330
0
100
AcDbSymbolTable
 70
     2
  0
LTYPE
  5
14
330
5
100
AcDbSymbolTableRecord
100
AcDbLinetypeTableRecord
  2
ByBlock
 70
     0
  3

 72
    65
 73
     0
 40
0.0
  0
LTYPE
  5
15
330
5
100
AcDbSymbolTableRecord
100
AcDbLinetypeTableRecord
  2
ByLayer
 70
     0
  3

 72
    65
 73
     0
 40
0.0
  0
LTYPE
  5
16
330
5
100
AcDbSymbolTableRecord
100
AcDbLinetypeTableRecord
  2
Continuous
 70
     0
  3
Solid line
 72
    65
 73
     0
 40
0.0
  0
LTYPE
  5
6E
330
5
100
AcDbSymbolTableRecord
100
AcDbLinetypeTableRecord
  2
DASHDOT
 70
     0
  3
 __ . __ . __ . __ . __ . __ . __ . 
 72
    65
 73
     4
 40
18.5
 49
12.0
 74
     0
 49
-3.0
 74
     0
 49
0.5
 74
     0
 49
-3.0
 74
     0
  0
ENDTAB
  0
TABLE
  2
LAYER
  5
2
330
0
100
AcDbSymbolTable
 70
     1
  0
LAYER
  5
10
330
2
100
AcDbSymbolTableRecord
100
AcDbLayerTableRecord
  2
0
 70
     0
 62
     7
  6
Continuous
370
    -3
390
F
  0
ENDTAB
  0
TABLE
  2
STYLE
  5
3
330
0
100
AcDbSymbolTable
 70
     1
  0
STYLE
  5
11
330
3
100
AcDbSymbolTableRecord
100
AcDbTextStyleTableRecord
  2
Standard
 70
     0
 40
0.0
 41
1.0
 50
0.0
 71
     0
 42
2.5
  3
txt
  4

  0
ENDTAB
  0
TABLE
  2
VIEW
  5
6
330
0
100
AcDbSymbolTable
 70
     0
  0
ENDTAB
  0
TABLE
  2
UCS
  5
7
330
0
100
AcDbSymbolTable
 70
     0
  0
ENDTAB
  0
TABLE
  2
APPID
  5
9
330
0
100
AcDbSymbolTable
 70
     1
  0
APPID
  5
12
330
9
100
AcDbSymbolTableRecord
100
AcDbRegAppTableRecord
  2
ACAD
 70
     0
  0
ENDTAB
  0
TABLE
  2
DIMSTYLE
  5
A
330
0
100
AcDbSymbolTable
 70
     1
100
AcDbDimStyleTable
  0
DIMSTYLE
105
27
330
A
100
AcDbSymbolTableRecord
100
AcDbDimStyleTableRecord
  2
Standard
 70
     0
178
     0
340
11
  0
ENDTAB
  0
TABLE
  2
BLOCK_RECORD
  5
1
330
0
100
AcDbSymbolTable
 70
     1
  0
BLOCK_RECORD
  5
1F
330
1
100
AcDbSymbolTableRecord
100
AcDbBlockTableRecord
  2
*Model_Space
340
22
  0
BLOCK_RECORD
  5
1B
330
1
100
AcDbSymbolTableRecord
100
AcDbBlockTableRecord
  2
*Paper_Space
340
1E
  0
BLOCK_RECORD
  5
23
330
1
100
AcDbSymbolTableRecord
100
AcDbBlockTableRecord
  2
*Paper_Space0
340
26
  0
ENDTAB
  0
ENDSEC
  0
SECTION
  2
BLOCKS
  0
BLOCK
  5
20
330
1F
100
AcDbEntity
  8
0
100
AcDbBlockBegin
  2
*Model_Space
 70
     0
 10
0.0
 20
0.0
 30
0.0
  3
*Model_Space
  1

  0
ENDBLK
  5
21
330
1F
100
AcDbEntity
  8
0
100
AcDbBlockEnd
  0
BLOCK
  5
1C
330
1B
100
AcDbEntity
 67
     1
  8
0
100
AcDbBlockBegin
  2
*Paper_Space
 70
     0
 10
0.0
 20
0.0
 30
0.0
  3
*Paper_Space
  1

  0
ENDBLK
  5
1D
330
1B
100
AcDbEntity
 67
     1
  8
0
100
AcDbBlockEnd
  0
BLOCK
  5
24
330
23
100
AcDbEntity
  8
0
100
AcDbBlockBegin
  2
*Paper_Space0
 70
     0
 10
0.0
 20
0.0
 30
0.0
  3
*Paper_Space0
  1

  0
ENDBLK
  5
25
330
23
100
AcDbEntity
  8
0
100
AcDbBlockEnd
  0
ENDSEC
  0
SECTION
  2
ENTITIES
  0
LINE
  5
6F
330
1F
100
AcDbEntity
  8
0
  6
DASHDOT
 62
     7
 48
0.110614
370
    13
100
AcDbLine
 10
224.885468
 20
164.640915
 30
0.0
 11
220.460907
 21
164.640915
 31
0.0
  0
LINE
  5
70
330
1F
100
AcDbEntity
  8
0
  6
DASHDOT
 62
     7
 48
0.110614
370
    13
100
AcDbLine
 10
222.673187
 20
166.85321
 30
0.0
 11
222.673187
 21
162.428635
 31
0.0
  0
LINE
  5
71
330
1F
100
AcDbEntity
  8
0
  6
DASHDOT
 62
     7
 48
0.110615
370
    13
100
AcDbLine
 10
230.236725
 20
156.548798
 30
0.0
 11
225.812134
 21
156.548798
 31
0.0
  0
LINE
  5
72
330
1F
100
AcDbEntity
  8
0
  6
DASHDOT
 62
     7
 48
0.110614
370
    13
100
AcDbLine
 10
228.024414
 20
158.761078
 30
0.0
 11
228.024414
 21
154.336502
 31
0.0
  0
LINE
  5
73
330
1F
100
AcDbEntity
  8
0
  6
DASHDOT
 62
     7
 48
0.110614
370
    13
100
AcDbLine
 10
215.227112
 20
164.640915
 30
0.0
 11
210.802551
 21
164.640915
 31
0.0
  0
LINE
  5
74
330
1F
100
AcDbEntity
  8
0
  6
DASHDOT
 62
     7
 48
0.110614
370
    13
100
AcDbLine
 10
213.014832
 20
166.85321
 30
0.0
 11
213.014832
 21
162.428635
 31
0.0
  0
LINE
  5
75
330
1F
100
AcDbEntity
  8
0
  6
DASHDOT
 62
     7
 48
0.110615
370
    13
100
AcDbLine
 10
220.578369
 20
156.548798
 30
0.0
 11
216.153778
 21
156.548798
 31
0.0
  0
LINE
  5
76
330
1F
100
AcDbEntity
  8
0
  6
DASHDOT
 62
     7
 48
0.110614
370
    13
100
AcDbLine
 10
218.366058
 20
158.761078
 30
0.0
 11
218.366058
 21
154.336502
 31
0.0
  0
LINE
  5
77
330
1F
100
AcDbEntity
  8
0
  6
DASHDOT
 62
     7
 48
0.110614
370
    13
100
AcDbLine
 10
205.568756
 20
164.640915
 30
0.0
 11
201.144196
 21
164.640915
 31
0.0
  0
LINE
  5
78
330
1F
100
AcDbEntity
  8
0
  6
DASHDOT
 62
     7
 48
0.110614
370
    13
100
AcDbLine
 10
203.356476
 20
166.85321
 30
0.0
 11
203.356476
 21
162.428635
 31
0.0
  0
LINE
  5
79
330
1F
100
AcDbEntity
  8
0
  6
DASHDOT
 62
     7
 48
0.110615
370
    13
100
AcDbLine
 10
210.920013
 20
156.548798
 30
0.0
 11
206.495422
 21
156.548798
 31
0.0
  0
LINE
  5
7A
330
1F
100
AcDbEntity
  8
0
  6
DASHDOT
 62
     7
 48
0.110614
370
    13
100
AcDbLine
 10
208.707703
 20
158.761078
 30
0.0
 11
208.707703
 21
154.336502
 31
0.0
  0
LINE
  5
7B
330
1F
100
AcDbEntity
  8
0
  6
DASHDOT
 62
     7
 48
0.110614
370
    13
100
AcDbLine
 10
195.9104
 20
164.640915
 30
0.0
 11
191.48584
 21
164.640915
 31
0.0
  0
LINE
  5
7C
330
1F
100
AcDbEntity
  8
0
  6
DASHDOT
 62
     7
 48
0.110614
370
    13
100
AcDbLine
 10
193.69812
 20
166.85321
 30
0.0
 11
193.69812
 21
162.428635
 31
0.0
  0
LINE
  5
7D
330
1F
100
AcDbEntity
  8
0
  6
DASHDOT
 62
     7
 48
0.110615
370
    13
100
AcDbLine
 10
201.261658
 20
156.548798
 30
0.0
 11
196.837067
 21
156.548798
 31
0.0
  0
LINE
  5
7E
330
1F
100
AcDbEntity
  8
0
  6
DASHDOT
 62
     7
 48
0.110614
370
    13
100
AcDbLine
 10
199.049347
 20
158.761078
 30
0.0
 11
199.049347
 21
154.336502
 31
0.0
  0
LINE
  5
7F
330
1F
100
AcDbEntity
  8
0
  6
DASHDOT
 62
     7
 48
0.110614
370
    13
100
AcDbLine
 10
186.252045
 20
164.640915
 30
0.0
 11
181.827484
 21
164.640915
 31
0.0
  0
LINE
  5
80
330
1F
100
AcDbEntity
  8
0
  6
DASHDOT
 62
     7
 48
0.110614
370
    13
100
AcDbLine
 10
184.039764
 20
166.85321
 30
0.0
 11
184.039764
 21
162.428635
 31
0.0
  0
LINE
  5
81
330
1F
100
AcDbEntity
  8
0
  6
DASHDOT
 62
     7
 48
0.110615
370
    13
100
AcDbLine
 10
191.603302
 20
156.548798
 30
0.0
 11
187.178711
 21
156.548798
 31
0.0
  0
LINE
  5
82
330
1F
100
AcDbEntity
  8
0
  6
DASHDOT
 62
     7
 48
0.110614
370
    13
100
AcDbLine
 10
189.391006
 20
158.761078
 30
0.0
 11
189.391006
 21
154.336502
 31
0.0
  0
LINE
  5
83
330
1F
100
AcDbEntity
  8
0
  6
DASHDOT
 62
     7
 48
0.110614
370
    13
100
AcDbLine
 10
176.593689
 20
164.640915
 30
0.0
 11
172.169128
 21
164.640915
 31
0.0
  0
LINE
  5
84
330
1F
100
AcDbEntity
  8
0
  6
DASHDOT
 62
     7
 48
0.110614
370
    13
100
AcDbLine
 10
174.381409
 20
166.85321
 30
0.0
 11
174.381409
 21
162.428635
 31
0.0
  0
LINE
  5
85
330
1F
100
AcDbEntity
  8
0
  6
DASHDOT
 62
     7
 48
0.110614
370
    13
100
AcDbLine
 10
181.944931
 20
156.548798
 30
0.0
 11
177.520355
 21
156.548798
 31
0.0
  0
LINE
  5
86
330
1F
100
AcDbEntity
  8
0
  6
DASHDOT
 62
     7
 48
0.110614
370
    13
100
AcDbLine
 10
179.732651
 20
158.761078
 30
0.0
 11
179.732651
 21
154.336502
 31
0.0
  0
LINE
  5
87
330
1F
100
AcDbEntity
  8
0
  6
DASHDOT
 62
     7
 48
0.13
370
    13
100
AcDbLine
 10
80.302719
 20
177.25
 30
0.0
 11
75.102722
 21
177.25
 31
0.0
  0
LINE
  5
88
330
1F
100
AcDbEntity
  8
0
  6
DASHDOT
 62
     7
 48
0.13
370
    13
100
AcDbLine
 10
77.702721
 20
179.850006
 30
0.0
 11
77.702721
 21
174.649994
 31
0.0
  0
LINE
  5
89
330
1F
100
AcDbEntity
  8
0
  6
DASHDOT
 62
     7
 48
0.13
370
    13
100
AcDbLine
 10
160.302719
 20
177.25
 30
0.0
 11
155.102722
 21
177.25
 31
0.0
  0
LINE
  5
8A
330
1F
100
AcDbEntity
  8
0
  6
DASHDOT
 62
     7
 48
0.13
370
    13
100
AcDbLine
 10
157.702728
 20
179.850006
 30
0.0
 11
157.702728
 21
174.649994
 31
0.0
  0
LINE
  5
8B
330
1F
100
AcDbEntity
  8
0
  6
DASHDOT
 62
     7
 48
0.30875
370
    13
100
AcDbLine
 10
248.877716
 20
160.75
 30
0.0
 11
236.52771
 21
160.75
 31
0.0
  0
LINE
  5
8C
330
1F
100
AcDbEntity
  8
0
  6
DASHDOT
 62
     7
 48
0.30875
370
    13
100
AcDbLine
 10
242.702728
 20
166.925003
 30
0.0
 11
242.702728
 21
154.574997
 31
0.0
  0
LINE
  5
8D
330
1F
100
AcDbEntity
  8
0
  6
DASHDOT
 62
     7
 48
0.308749
370
    13
100
AcDbLine
 10
338.877716
 20
160.75
 30
0.0
 11
326.52774
 21
160.75
 31
0.0
  0
LINE
  5
8E
330
1F
100
AcDbEntity
  8
0
  6
DASHDOT
 62
     7
 48
0.30875
370
    13
100
AcDbLine
 10
332.702728
 20
166.925003
 30
0.0
 11
332.702728
 21
154.574997
 31
0.0
  0
LINE
  5
8F
330
1F
100
AcDbEntity
  8
0
  6
DASHDOT
 62
     7
 48
0.21125
370
    13
100
AcDbLine
 10
351.927734
 20
160.75
 30
0.0
 11
343.477722
 21
160.75
 31
0.0
  0
LINE
  5
90
330
1F
100
AcDbEntity
  8
0
  6
DASHDOT
 62
     7
 48
0.21125
370
    13
100
AcDbLine
 10
347.702728
 20
164.975006
 30
0.0
 11
347.702728
 21
156.524994
 31
0.0
  0
LINE
  5
91
330
1F
100
AcDbEntity
  8
0
  6
DASHDOT
 62
     7
 48
0.21125
370
    13
100
AcDbLine
 10
361.927734
 20
160.75
 30
0.0
 11
353.477722
 21
160.75
 31
0.0
  0
LINE
  5
92
330
1F
100
AcDbEntity
  8
0
  6
DASHDOT
 62
     7
 48
0.21125
370
    13
100
AcDbLine
 10
357.702728
 20
164.975006
 30
0.0
 11
357.702728
 21
156.524994
 31
0.0
  0
LINE
  5
93
330
1F
100
AcDbEntity
  8
0
  6
DASHDOT
 62
     7
 48
0.3575
370
    13
100
AcDbLine
 10
149.852722
 20
130.75
 30
0.0
 11
135.552719
 21
130.75
 31
0.0
  0
LINE
  5
94
330
1F
100
AcDbEntity
  8
0
  6
DASHDOT
 62
     7
 48
0.3575
370
    13
100
AcDbLine
 10
142.702728
 20
137.899994
 30
0.0
 11
142.702728
 21
123.599998
 31
0.0
  0
LINE
  5
95
330
1F
100
AcDbEntity
  8
0
  6
DASHDOT
 62
     7
370
    13
100
AcDbLine
 10
387.202728
 20
160.75
 30
0.0
 11
348.202728
 21
160.75
 31
0.0
  0
LINE
  5
96
330
1F
100
AcDbEntity
  8
0
  6
DASHDOT
 62
     7
370
    13
100
AcDbLine
 10
367.702728
 20
180.25
 30
0.0
 11
367.702728
 21
141.25
 31
0.0
  0
LINE
  5
97
330
1F
100
AcDbEntity
  8
0
  6
DASHDOT
 62
     7
 48
0.26
370
    13
100
AcDbLine
 10
67.902718
 20
124.75
 30
0.0
 11
57.50272
 21
124.75
 31
0.0
  0
LINE
  5
98
330
1F
100
AcDbEntity
  8
0
  6
DASHDOT
 62
     7
 48
0.26
370
    13
100
AcDbLine
 10
62.702721
 20
129.949997
 30
0.0
 11
62.702721
 21
119.550003
 31
0.0
  0
POLYLINE
  5
99
330
1F
100
AcDbEntity
  8
0
 62
     7
370
    13
100
AcDb2dPolyline
 66
     1
 10
0.0
 20
0.0
 30
0.0
 70
     1
  0
VERTEX
  5
9A
330
99
100
AcDbEntity
  8
0
370
     0
100
AcDbVertex
100
AcDb2dVertex
 10
254.186874
 20
107.893372
 30
0.0
  0
VERTEX
  5
9B
330
99
100
AcDbEntity
  8
0
370
     0
100
AcDbVertex
100
AcDb2dVertex
 10
254.655899
 20
107.893372
 30
0.0
  0
VERTEX
  5
9C
330
99
100
AcDbEntity
  8
0
370
     0
100
AcDbVertex
100
AcDb2dVertex
 10
254.655899
 20
109.502159
 30
0.0
  0
VERTEX
  5
9D
330
99
100
AcDbEntity
  8
0
370
     0
100
AcDbVertex
100
AcDb2dVertex
 10
256.12851
 20
109.502159
 30
0.0
  0
VERTEX
  5
9E
330
99
100
AcDbEntity
  8
0
370
     0
100
AcDbVertex
100
AcDb2dVertex
 10
256.12851
 20
109.920746
 30
0.0
  0
VERTEX
  5
9F
330
99
100
AcDbEntity
  8
0
370
     0
100
AcDbVertex
100
AcDb2dVertex
 10
254.655899
 20
109.920746
 30
0.0
  0
VERTEX
  5
A0
330
99
100
AcDbEntity
  8
0
370
     0
100
AcDbVertex
100
AcDb2dVertex
 10
254.655899
 20
110.969742
 30
0.0
  0
VERTEX
  5
A1
330
99
100
AcDbEntity
  8
0
370
     0
100
AcDbVertex
100
AcDb2dVertex
 10
256.466431
 20
110.969742
 30
0.0
  0
VERTEX
  5
A2
330
99
100
AcDbEntity
  8
0
370
     0
100
AcDbVertex
100
AcDb2dVertex
 10
256.466431
 20
111.393372
 30
0.0
  0
VERTEX
  5
A3
330
99
100
AcDbEntity
  8
0
370
     0
100
AcDbVertex
100
AcDb2dVertex
 10
254.186874
 20
111.393372
 30
0.0
  0
SEQEND
  5
A4
330
99
100
AcDbEntity
  8
0
 62
     7
370
    13
  0
POLYLINE
  5
A5
330
1F
100
AcDbEntity
  8
0
 62
     7
370
    13
100
AcDb2dPolyline
 66
     1
 10
0.0
 20
0.0
 30
0.0
 70
     1
  0
VERTEX
  5
A6
330
A5
100
AcDbEntity
  8
0
370
     0
100
AcDbVertex
100
AcDb2dVertex
 10
256.723633
 20
107.893372
 30
0.0
  0
VERTEX
  5
A7
330
A5
100
AcDbEntity
  8
0
370
     0
100
AcDbVertex
100
AcDb2dVertex
 10
257.187592
 20
107.893372
 30
0.0
  0
VERTEX
  5
A8
330
A5
100
AcDbEntity
  8
0
370
     0
100
AcDbVertex
100
AcDb2dVertex
 10
257.555756
 20
108.922188
 30
0.0
  0
VERTEX
  5
A9
330
A5
100
AcDbEntity
  8
0
370
     0
100
AcDbVertex
100
AcDb2dVertex
 10
258.952728
 20
108.922188
 30
0.0
  0
VERTEX
  5
AA
330
A5
100
AcDbEntity
  8
0
370
     0
100
AcDbVertex
100
AcDb2dVertex
 10
259.320892
 20
107.893372
 30
0.0
  0
VERTEX
  5
AB
330
A5
100
AcDbEntity
  8
0
370
     0
100
AcDbVertex
100
AcDb2dVertex
 10
259.794952
 20
107.893372
 30
0.0
  0
VERTEX
  5
AC
330
A5
100
AcDbEntity
  8
0
370
     0
100
AcDbVertex
100
AcDb2dVertex
 10
258.513977
 20
111.398415
 30
0.0
  0
VERTEX
  5
AD
330
A5
100
AcDbEntity
  8
0
370
     0
100
AcDbVertex
100
AcDb2dVertex
 10
257.999573
 20
111.398415
 30
0.0
  0
SEQEND
  5
AE
330
A5
100
AcDbEntity
  8
0
 62
     7
370
    13
  0
POLYLINE
  5
AF
330
1F
100
AcDbEntity
  8
0
 62
     7
370
    13
100
AcDb2dPolyline
 66
     1
 10
0.0
 20
0.0
 30
0.0
 70
     1
  0
VERTEX
  5
B0
330
AF
100
AcDbEntity
  8
0
370
     0
100
AcDbVertex
100
AcDb2dVertex
 10
257.717133
 20
109.350861
 30
0.0
  0
VERTEX
  5
B1
330
AF
100
AcDbEntity
  8
0
370
     0
100
AcDbVertex
100
AcDb2dVertex
 10
258.256775
 20
110.894089
 30
0.0
  0
VERTEX
  5
B2
330
AF
100
AcDbEntity
  8
0
370
     0
100
AcDbVertex
100
AcDb2dVertex
 10
258.796387
 20
109.350861
 30
0.0
  0
SEQEND
  5
B3
330
AF
100
AcDbEntity
  8
0
 62
     7
370
    13
  0
POLYLINE
  5
B4
330
1F
100
AcDbEntity
  8
0
 62
     7
370
    13
100
AcDb2dPolyline
 66
     1
 10
0.0
 20
0.0
 30
0.0
 70
     1
  0
VERTEX
  5
B5
330
B4
100
AcDbEntity
  8
0
370
     0
100
AcDbVertex
100
AcDb2dVertex
 10
261.923187
 20
109.784584
 30
0.0
  0
VERTEX
  5
B6
330
B4
100
AcDbEntity
  8
0
370
     0
100
AcDbVertex
100
AcDb2dVertex
 10
262.276215
 20
110.077087
 30
0.0
  0
VERTEX
  5
B7
330
B4
100
AcDbEntity
  8
0
370
     0
100
AcDbVertex
100
AcDb2dVertex
 10
262.367004
 20
110.273773
 30
0.0
  0
VERTEX
  5
B8
330
B4
100
AcDbEntity
  8
0
370
     0
100
AcDbVertex
100
AcDb2dVertex
 10
262.397247
 20
110.515854
 30
0.0
  0
VERTEX
  5
B9
330
B4
100
AcDbEntity
  8
0
370
     0
100
AcDbVertex
100
AcDb2dVertex
 10
262.331696
 20
110.894089
 30
0.0
  0
VERTEX
  5
BA
330
B4
100
AcDbEntity
  8
0
370
     0
100
AcDbVertex
100
AcDb2dVertex
 10
262.13501
 20
111.166428
 30
0.0
  0
VERTEX
  5
BB
330
B4
100
AcDbEntity
  8
0
370
     0
100
AcDbVertex
100
AcDb2dVertex
 10
261.817291
 20
111.332855
 30
0.0
  0
VERTEX
  5
BC
330
B4
100
AcDbEntity
  8
0
370
     0
100
AcDbVertex
100
AcDb2dVertex
 10
261.373474
 20
111.393372
 30
0.0
  0
VERTEX
  5
BD
330
B4
100
AcDbEntity
  8
0
370
     0
100
AcDbVertex
100
AcDb2dVertex
 10
260.127808
 20
111.393372
 30
0.0
  0
VERTEX
  5
BE
330
B4
100
AcDbEntity
  8
0
370
     0
100
AcDbVertex
100
AcDb2dVertex
 10
260.127808
 20
107.893372
 30
0.0
  0
VERTEX
  5
BF
330
B4
100
AcDbEntity
  8
0
370
     0
100
AcDbVertex
100
AcDb2dVertex
 10
261.444092
 20
107.893372
 30
0.0
  0
VERTEX
  5
C0
330
B4
100
AcDbEntity
  8
0
370
     0
100
AcDbVertex
100
AcDb2dVertex
 10
261.913116
 20
107.963974
 30
0.0
  0
VERTEX
  5
C1
330
B4
100
AcDbEntity
  8
0
370
     0
100
AcDbVertex
100
AcDb2dVertex
 10
262.261078
 20
108.170746
 30
0.0
  0
VERTEX
  5
C2
330
B4
100
AcDbEntity
  8
0
370
     0
100
AcDbVertex
100
AcDb2dVertex
 10
262.477936
 20
108.498558
 30
0.0
  0
VERTEX
  5
C3
330
B4
100
AcDbEntity
  8
0
370
     0
100
AcDbVertex
100
AcDb2dVertex
 10
262.553589
 20
108.94236
 30
0.0
  0
VERTEX
  5
C4
330
B4
100
AcDbEntity
  8
0
370
     0
100
AcDbVertex
100
AcDb2dVertex
 10
262.508209
 20
109.239914
 30
0.0
  0
VERTEX
  5
C5
330
B4
100
AcDbEntity
  8
0
370
     0
100
AcDbVertex
100
AcDb2dVertex
 10
262.387177
 20
109.48703
 30
0.0
  0
VERTEX
  5
C6
330
B4
100
AcDbEntity
  8
0
370
     0
100
AcDbVertex
100
AcDb2dVertex
 10
262.190491
 20
109.668587
 30
0.0
  0
SEQEND
  5
C7
330
B4
100
AcDbEntity
  8
0
 62
     7
370
    13
  0
POLYLINE
  5
C8
330
1F
100
AcDbEntity
  8
0
 62
     7
370
    13
100
AcDb2dPolyline
 66
     1
 10
0.0
 20
0.0
 30
0.0
 70
     1
  0
VERTEX
  5
C9
330
C8
100
AcDbEntity
  8
0
370
     0
100
AcDbVertex
100
AcDb2dVertex
 10
261.277649
 20
109.940926
 30
0.0
  0
VERTEX
  5
CA
330
C8
100
AcDbEntity
  8
0
370
     0
100
AcDbVertex
100
AcDb2dVertex
 10
260.591766
 20
109.940926
 30
0.0
  0
VERTEX
  5
CB
330
C8
100
AcDbEntity
  8
0
370
     0
100
AcDbVertex
100
AcDb2dVertex
 10
260.591766
 20
110.974785
 30
0.0
  0
VERTEX
  5
CC
330
C8
100
AcDbEntity
  8
0
370
     0
100
AcDbVertex
100
AcDb2dVertex
 10
261.317993
 20
110.974785
 30
0.0
  0
VERTEX
  5
CD
330
C8
100
AcDbEntity
  8
0
370
     0
100
AcDbVertex
100
AcDb2dVertex
 10
261.590332
 20
110.944527
 30
0.0
  0
VERTEX
  5
CE
330
C8
100
AcDbEntity
  8
0
370
     0
100
AcDbVertex
100
AcDb2dVertex
 10
261.781982
 20
110.853745
 30
0.0
  0
VERTEX
  5
CF
330
C8
100
AcDbEntity
  8
0
370
     0
100
AcDbVertex
100
AcDb2dVertex
 10
261.89798
 20
110.697403
 30
0.0
  0
VERTEX
  5
D0
330
C8
100
AcDbEntity
  8
0
370
     0
100
AcDbVertex
100
AcDb2dVertex
 10
261.938324
 20
110.465416
 30
0.0
  0
VERTEX
  5
D1
330
C8
100
AcDbEntity
  8
0
370
     0
100
AcDbVertex
100
AcDb2dVertex
 10
261.892944
 20
110.233429
 30
0.0
  0
VERTEX
  5
D2
330
C8
100
AcDbEntity
  8
0
370
     0
100
AcDbVertex
100
AcDb2dVertex
 10
261.771881
 20
110.072044
 30
0.0
  0
VERTEX
  5
D3
330
C8
100
AcDbEntity
  8
0
370
     0
100
AcDbVertex
100
AcDb2dVertex
 10
261.565125
 20
109.971184
 30
0.0
  0
SEQEND
  5
D4
330
C8
100
AcDbEntity
  8
0
 62
     7
370
    13
  0
POLYLINE
  5
D5
330
1F
100
AcDbEntity
  8
0
 62
     7
370
    13
100
AcDb2dPolyline
 66
     1
 10
0.0
 20
0.0
 30
0.0
 70
     1
  0
VERTEX
  5
D6
330
D5
100
AcDbEntity
  8
0
370
     0
100
AcDbVertex
100
AcDb2dVertex
 10
261.388611
 20
108.311958
 30
0.0
  0
VERTEX
  5
D7
330
D5
100
AcDbEntity
  8
0
370
     0
100
AcDbVertex
100
AcDb2dVertex
 10
260.591766
 20
108.311958
 30
0.0
  0
VERTEX
  5
D8
330
D5
100
AcDbEntity
  8
0
370
     0
100
AcDbVertex
100
AcDb2dVertex
 10
260.591766
 20
109.517288
 30
0.0
  0
VERTEX
  5
D9
330
D5
100
AcDbEntity
  8
0
370
     0
100
AcDbVertex
100
AcDb2dVertex
 10
261.343231
 20
109.517288
 30
0.0
  0
VERTEX
  5
DA
330
D5
100
AcDbEntity
  8
0
370
     0
100
AcDbVertex
100
AcDb2dVertex
 10
261.66095
 20
109.481987
 30
0.0
  0
VERTEX
  5
DB
330
D5
100
AcDbEntity
  8
0
370
     0
100
AcDbVertex
100
AcDb2dVertex
 10
261.887878
 20
109.376083
 30
0.0
  0
VERTEX
  5
DC
330
D5
100
AcDbEntity
  8
0
370
     0
100
AcDbVertex
100
AcDb2dVertex
 10
262.024048
 20
109.194527
 30
0.0
  0
VERTEX
  5
DD
330
D5
100
AcDbEntity
  8
0
370
     0
100
AcDbVertex
100
AcDb2dVertex
 10
262.069458
 20
108.932274
 30
0.0
  0
VERTEX
  5
DE
330
D5
100
AcDbEntity
  8
0
370
     0
100
AcDbVertex
100
AcDb2dVertex
 10
262.024048
 20
108.6549
 30
0.0
  0
VERTEX
  5
DF
330
D5
100
AcDbEntity
  8
0
370
     0
100
AcDbVertex
100
AcDb2dVertex
 10
261.89798
 20
108.463257
 30
0.0
  0
VERTEX
  5
E0
330
D5
100
AcDbEntity
  8
0
370
     0
100
AcDbVertex
100
AcDb2dVertex
 10
261.686157
 20
108.34726
 30
0.0
  0
SEQEND
  5
E1
330
D5
100
AcDbEntity
  8
0
 62
     7
370
    13
  0
POLYLINE
  5
E2
330
1F
100
AcDbEntity
  8
0
 62
     7
370
    13
100
AcDb2dPolyline
 66
     1
 10
0.0
 20
0.0
 30
0.0
 70
     1
  0
VERTEX
  5
E3
330
E2
100
AcDbEntity
  8
0
370
     0
100
AcDbVertex
100
AcDb2dVertex
 10
263.204163
 20
107.893372
 30
0.0
  0
VERTEX
  5
E4
330
E2
100
AcDbEntity
  8
0
370
     0
100
AcDbVertex
100
AcDb2dVertex
 10
263.673187
 20
107.893372
 30
0.0
  0
VERTEX
  5
E5
330
E2
100
AcDbEntity
  8
0
370
     0
100
AcDbVertex
100
AcDb2dVertex
 10
263.673187
 20
109.37104
 30
0.0
  0
VERTEX
  5
E6
330
E2
100
AcDbEntity
  8
0
370
     0
100
AcDbVertex
100
AcDb2dVertex
 10
264.152283
 20
109.37104
 30
0.0
  0
VERTEX
  5
E7
330
E2
100
AcDbEntity
  8
0
370
     0
100
AcDbVertex
100
AcDb2dVertex
 10
264.50531
 20
109.355911
 30
0.0
  0
VERTEX
  5
E8
330
E2
100
AcDbEntity
  8
0
370
     0
100
AcDbVertex
100
AcDb2dVertex
 10
264.727234
 20
109.285301
 30
0.0
  0
VERTEX
  5
E9
330
E2
100
AcDbEntity
  8
0
370
     0
100
AcDbVertex
100
AcDb2dVertex
 10
264.848267
 20
109.118874
 30
0.0
  0
VERTEX
  5
EA
330
E2
100
AcDbEntity
  8
0
370
     0
100
AcDbVertex
100
AcDb2dVertex
 10
264.898682
 20
108.821327
 30
0.0
  0
VERTEX
  5
EB
330
E2
100
AcDbEntity
  8
0
370
     0
100
AcDbVertex
100
AcDb2dVertex
 10
264.92392
 20
108.367432
 30
0.0
  0
VERTEX
  5
EC
330
E2
100
AcDbEntity
  8
0
370
     0
100
AcDbVertex
100
AcDb2dVertex
 10
264.954163
 20
108.069885
 30
0.0
  0
VERTEX
  5
ED
330
E2
100
AcDbEntity
  8
0
370
     0
100
AcDbVertex
100
AcDb2dVertex
 10
265.014679
 20
107.893372
 30
0.0
  0
VERTEX
  5
EE
330
E2
100
AcDbEntity
  8
0
370
     0
100
AcDbVertex
100
AcDb2dVertex
 10
265.54422
 20
107.893372
 30
0.0
  0
VERTEX
  5
EF
330
E2
100
AcDbEntity
  8
0
370
     0
100
AcDbVertex
100
AcDb2dVertex
 10
265.54422
 20
107.989189
 30
0.0
  0
VERTEX
  5
F0
330
E2
100
AcDbEntity
  8
0
370
     0
100
AcDbVertex
100
AcDb2dVertex
 10
265.428223
 20
108.130402
 30
0.0
  0
VERTEX
  5
F1
330
E2
100
AcDbEntity
  8
0
370
     0
100
AcDbVertex
100
AcDb2dVertex
 10
265.387878
 20
108.392654
 30
0.0
  0
VERTEX
  5
F2
330
E2
100
AcDbEntity
  8
0
370
     0
100
AcDbVertex
100
AcDb2dVertex
 10
265.3526
 20
108.957489
 30
0.0
  0
VERTEX
  5
F3
330
E2
100
AcDbEntity
  8
0
370
     0
100
AcDbVertex
100
AcDb2dVertex
 10
265.266846
 20
109.376083
 30
0.0
  0
VERTEX
  5
F4
330
E2
100
AcDbEntity
  8
0
370
     0
100
AcDbVertex
100
AcDb2dVertex
 10
265.150848
 20
109.507202
 30
0.0
  0
VERTEX
  5
F5
330
E2
100
AcDbEntity
  8
0
370
     0
100
AcDbVertex
100
AcDb2dVertex
 10
264.969299
 20
109.603027
 30
0.0
  0
VERTEX
  5
F6
330
E2
100
AcDbEntity
  8
0
370
     0
100
AcDbVertex
100
AcDb2dVertex
 10
265.171021
 20
109.729103
 30
0.0
  0
VERTEX
  5
F7
330
E2
100
AcDbEntity
  8
0
370
     0
100
AcDbVertex
100
AcDb2dVertex
 10
265.312225
 20
109.905617
 30
0.0
  0
VERTEX
  5
F8
330
E2
100
AcDbEntity
  8
0
370
     0
100
AcDbVertex
100
AcDb2dVertex
 10
265.403015
 20
110.127518
 30
0.0
  0
VERTEX
  5
F9
330
E2
100
AcDbEntity
  8
0
370
     0
100
AcDbVertex
100
AcDb2dVertex
 10
265.433289
 20
110.394814
 30
0.0
  0
VERTEX
  5
FA
330
E2
100
AcDbEntity
  8
0
370
     0
100
AcDbVertex
100
AcDb2dVertex
 10
265.362671
 20
110.818443
 30
0.0
  0
VERTEX
  5
FB
330
E2
100
AcDbEntity
  8
0
370
     0
100
AcDbVertex
100
AcDb2dVertex
 10
265.16095
 20
111.136169
 30
0.0
  0
VERTEX
  5
FC
330
E2
100
AcDbEntity
  8
0
370
     0
100
AcDbVertex
100
AcDb2dVertex
 10
264.828094
 20
111.327812
 30
0.0
  0
VERTEX
  5
FD
330
E2
100
AcDbEntity
  8
0
370
     0
100
AcDbVertex
100
AcDb2dVertex
 10
264.374207
 20
111.393372
 30
0.0
  0
VERTEX
  5
FE
330
E2
100
AcDbEntity
  8
0
370
     0
100
AcDbVertex
100
AcDb2dVertex
 10
263.204163
 20
111.393372
 30
0.0
  0
SEQEND
  5
FF
330
E2
100
AcDbEntity
  8
0
 62
     7
370
    13
  0
POLYLINE
  5
100
330
1F
100
AcDbEntity
  8
0
 62
     7
370
    13
100
AcDb2dPolyline
 66
     1
 10
0.0
 20
0.0
 30
0.0
 70
     1
  0
VERTEX
  5
101
330
100
100
AcDbEntity
  8
0
370
     0
100
AcDbVertex
100
AcDb2dVertex
 10
264.243073
 20
110.964699
 30
0.0
  0
VERTEX
  5
102
330
100
100
AcDbEntity
  8
0
370
     0
100
AcDbVertex
100
AcDb2dVertex
 10
264.55072
 20
110.934441
 30
0.0
  0
VERTEX
  5
103
330
100
100
AcDbEntity
  8
0
370
     0
100
AcDbVertex
100
AcDb2dVertex
 10
264.767578
 20
110.838615
 30
0.0
  0
VERTEX
  5
104
330
100
100
AcDbEntity
  8
0
370
     0
100
AcDbVertex
100
AcDb2dVertex
 10
264.903748
 20
110.662102
 30
0.0
  0
VERTEX
  5
105
330
100
100
AcDbEntity
  8
0
370
     0
100
AcDbVertex
100
AcDb2dVertex
 10
264.949127
 20
110.384727
 30
0.0
  0
VERTEX
  5
106
330
100
100
AcDbEntity
  8
0
370
     0
100
AcDbVertex
100
AcDb2dVertex
 10
264.898682
 20
110.092216
 30
0.0
  0
VERTEX
  5
107
330
100
100
AcDbEntity
  8
0
370
     0
100
AcDbVertex
100
AcDb2dVertex
 10
264.762512
 20
109.915703
 30
0.0
  0
VERTEX
  5
108
330
100
100
AcDbEntity
  8
0
370
     0
100
AcDbVertex
100
AcDb2dVertex
 10
264.530548
 20
109.824928
 30
0.0
  0
VERTEX
  5
109
330
100
100
AcDbEntity
  8
0
370
     0
100
AcDbVertex
100
AcDb2dVertex
 10
264.21283
 20
109.799713
 30
0.0
  0
VERTEX
  5
10A
330
100
100
AcDbEntity
  8
0
370
     0
100
AcDbVertex
100
AcDb2dVertex
 10
263.673187
 20
109.799713
 30
0.0
  0
VERTEX
  5
10B
330
100
100
AcDbEntity
  8
0
370
     0
100
AcDbVertex
100
AcDb2dVertex
 10
263.673187
 20
110.964699
 30
0.0
  0
SEQEND
  5
10C
330
100
100
AcDbEntity
  8
0
 62
     7
370
    13
  0
POLYLINE
  5
10D
330
1F
100
AcDbEntity
  8
0
 62
     7
370
    13
100
AcDb2dPolyline
 66
     1
 10
0.0
 20
0.0
 30
0.0
 70
     1
  0
VERTEX
  5
10E
330
10D
100
AcDbEntity
  8
0
370
     0
100
AcDbVertex
100
AcDb2dVertex
 10
267.132843
 20
108.317001
 30
0.0
  0
VERTEX
  5
10F
330
10D
100
AcDbEntity
  8
0
370
     0
100
AcDbVertex
100
AcDb2dVertex
 10
266.487305
 20
108.317001
 30
0.0
  0
VERTEX
  5
110
330
10D
100
AcDbEntity
  8
0
370
     0
100
AcDbVertex
100
AcDb2dVertex
 10
266.487305
 20
107.893372
 30
0.0
  0
VERTEX
  5
111
330
10D
100
AcDbEntity
  8
0
370
     0
100
AcDbVertex
100
AcDb2dVertex
 10
268.24234
 20
107.893372
 30
0.0
  0
VERTEX
  5
112
330
10D
100
AcDbEntity
  8
0
370
     0
100
AcDbVertex
100
AcDb2dVertex
 10
268.24234
 20
108.317001
 30
0.0
  0
VERTEX
  5
113
330
10D
100
AcDbEntity
  8
0
370
     0
100
AcDbVertex
100
AcDb2dVertex
 10
267.596832
 20
108.317001
 30
0.0
  0
VERTEX
  5
114
330
10D
100
AcDbEntity
  8
0
370
     0
100
AcDbVertex
100
AcDb2dVertex
 10
267.596832
 20
110.969742
 30
0.0
  0
VERTEX
  5
115
330
10D
100
AcDbEntity
  8
0
370
     0
100
AcDbVertex
100
AcDb2dVertex
 10
268.24234
 20
110.969742
 30
0.0
  0
VERTEX
  5
116
330
10D
100
AcDbEntity
  8
0
370
     0
100
AcDbVertex
100
AcDb2dVertex
 10
268.24234
 20
111.393372
 30
0.0
  0
VERTEX
  5
117
330
10D
100
AcDbEntity
  8
0
370
     0
100
AcDbVertex
100
AcDb2dVertex
 10
266.487305
 20
111.393372
 30
0.0
  0
VERTEX
  5
118
330
10D
100
AcDbEntity
  8
0
370
     0
100
AcDbVertex
100
AcDb2dVertex
 10
266.487305
 20
110.969742
 30
0.0
  0
VERTEX
  5
119
330
10D
100
AcDbEntity
  8
0
370
     0
100
AcDbVertex
100
AcDb2dVertex
 10
267.132843
 20
110.969742
 30
0.0
  0
SEQEND
  5
11A
330
10D
100
AcDbEntity
  8
0
 62
     7
370
    13
  0
POLYLINE
  5
11B
330
1F
100
AcDbEntity
  8
0
 62
     7
370
    13
100
AcDb2dPolyline
 66
     1
 10
0.0
 20
0.0
 30
0.0
 70
     1
  0
VERTEX
  5
11C
330
11B
100
AcDbEntity
  8
0
370
     0
100
AcDbVertex
100
AcDb2dVertex
 10
271.217865
 20
109.194527
 30
0.0
  0
VERTEX
  5
11D
330
11B
100
AcDbEntity
  8
0
370
     0
100
AcDbVertex
100
AcDb2dVertex
 10
271.117004
 20
108.770897
 30
0.0
  0
VERTEX
  5
11E
330
11B
100
AcDbEntity
  8
0
370
     0
100
AcDbVertex
100
AcDb2dVertex
 10
270.950562
 20
108.4683
 30
0.0
  0
VERTEX
  5
11F
330
11B
100
AcDbEntity
  8
0
370
     0
100
AcDbVertex
100
AcDb2dVertex
 10
270.718567
 20
108.2817
 30
0.0
  0
VERTEX
  5
120
330
11B
100
AcDbEntity
  8
0
370
     0
100
AcDbVertex
100
AcDb2dVertex
 10
270.446259
 20
108.221184
 30
0.0
  0
VERTEX
  5
121
330
11B
100
AcDbEntity
  8
0
370
     0
100
AcDbVertex
100
AcDb2dVertex
 10
270.118439
 20
108.311958
 30
0.0
  0
VERTEX
  5
122
330
11B
100
AcDbEntity
  8
0
370
     0
100
AcDbVertex
100
AcDb2dVertex
 10
269.861237
 20
108.584297
 30
0.0
  0
VERTEX
  5
123
330
11B
100
AcDbEntity
  8
0
370
     0
100
AcDbVertex
100
AcDb2dVertex
 10
269.689758
 20
109.028099
 30
0.0
  0
VERTEX
  5
124
330
11B
100
AcDbEntity
  8
0
370
     0
100
AcDbVertex
100
AcDb2dVertex
 10
269.634277
 20
109.643372
 30
0.0
  0
VERTEX
  5
125
330
11B
100
AcDbEntity
  8
0
370
     0
100
AcDbVertex
100
AcDb2dVertex
 10
269.689758
 20
110.253601
 30
0.0
  0
VERTEX
  5
126
330
11B
100
AcDbEntity
  8
0
370
     0
100
AcDbVertex
100
AcDb2dVertex
 10
269.856201
 20
110.702446
 30
0.0
  0
VERTEX
  5
127
330
11B
100
AcDbEntity
  8
0
370
     0
100
AcDbVertex
100
AcDb2dVertex
 10
270.113403
 20
110.974785
 30
0.0
  0
VERTEX
  5
128
330
11B
100
AcDbEntity
  8
0
370
     0
100
AcDbVertex
100
AcDb2dVertex
 10
270.446259
 20
111.070602
 30
0.0
  0
VERTEX
  5
129
330
11B
100
AcDbEntity
  8
0
370
     0
100
AcDbVertex
100
AcDb2dVertex
 10
270.688324
 20
111.020172
 30
0.0
  0
VERTEX
  5
12A
330
11B
100
AcDbEntity
  8
0
370
     0
100
AcDbVertex
100
AcDb2dVertex
 10
270.895081
 20
110.87896
 30
0.0
  0
VERTEX
  5
12B
330
11B
100
AcDbEntity
  8
0
370
     0
100
AcDbVertex
100
AcDb2dVertex
 10
271.056488
 20
110.652016
 30
0.0
  0
VERTEX
  5
12C
330
11B
100
AcDbEntity
  8
0
370
     0
100
AcDbVertex
100
AcDb2dVertex
 10
271.167419
 20
110.33934
 30
0.0
  0
VERTEX
  5
12D
330
11B
100
AcDbEntity
  8
0
370
     0
100
AcDbVertex
100
AcDb2dVertex
 10
271.646545
 20
110.33934
 30
0.0
  0
VERTEX
  5
12E
330
11B
100
AcDbEntity
  8
0
370
     0
100
AcDbVertex
100
AcDb2dVertex
 10
271.495239
 20
110.818443
 30
0.0
  0
VERTEX
  5
12F
330
11B
100
AcDbEntity
  8
0
370
     0
100
AcDbVertex
100
AcDb2dVertex
 10
271.233002
 20
111.181557
 30
0.0
  0
VERTEX
  5
130
330
11B
100
AcDbEntity
  8
0
370
     0
100
AcDbVertex
100
AcDb2dVertex
 10
270.874908
 20
111.408501
 30
0.0
  0
VERTEX
  5
131
330
11B
100
AcDbEntity
  8
0
370
     0
100
AcDbVertex
100
AcDb2dVertex
 10
270.446259
 20
111.489197
 30
0.0
  0
VERTEX
  5
132
330
11B
100
AcDbEntity
  8
0
370
     0
100
AcDbVertex
100
AcDb2dVertex
 10
269.911652
 20
111.363113
 30
0.0
  0
VERTEX
  5
133
330
11B
100
AcDbEntity
  8
0
370
     0
100
AcDbVertex
100
AcDb2dVertex
 10
269.503174
 20
111.010086
 30
0.0
  0
VERTEX
  5
134
330
11B
100
AcDbEntity
  8
0
370
     0
100
AcDbVertex
100
AcDb2dVertex
 10
269.240906
 20
110.430115
 30
0.0
  0
VERTEX
  5
135
330
11B
100
AcDbEntity
  8
0
370
     0
100
AcDbVertex
100
AcDb2dVertex
 10
269.150146
 20
109.643372
 30
0.0
  0
VERTEX
  5
136
330
11B
100
AcDbEntity
  8
0
370
     0
100
AcDbVertex
100
AcDb2dVertex
 10
269.240906
 20
108.856628
 30
0.0
  0
VERTEX
  5
137
330
11B
100
AcDbEntity
  8
0
370
     0
100
AcDbVertex
100
AcDb2dVertex
 10
269.503174
 20
108.276657
 30
0.0
  0
VERTEX
  5
138
330
11B
100
AcDbEntity
  8
0
370
     0
100
AcDbVertex
100
AcDb2dVertex
 10
269.911652
 20
107.918587
 30
0.0
  0
VERTEX
  5
139
330
11B
100
AcDbEntity
  8
0
370
     0
100
AcDbVertex
100
AcDb2dVertex
 10
270.446259
 20
107.797554
 30
0.0
  0
VERTEX
  5
13A
330
11B
100
AcDbEntity
  8
0
370
     0
100
AcDbVertex
100
AcDb2dVertex
 10
270.915253
 20
107.893372
 30
0.0
  0
VERTEX
  5
13B
330
11B
100
AcDbEntity
  8
0
370
     0
100
AcDbVertex
100
AcDb2dVertex
 10
271.293518
 20
108.16066
 30
0.0
  0
VERTEX
  5
13C
330
11B
100
AcDbEntity
  8
0
370
     0
100
AcDbVertex
100
AcDb2dVertex
 10
271.560791
 20
108.599426
 30
0.0
  0
VERTEX
  5
13D
330
11B
100
AcDbEntity
  8
0
370
     0
100
AcDbVertex
100
AcDb2dVertex
 10
271.701996
 20
109.194527
 30
0.0
  0
SEQEND
  5
13E
330
11B
100
AcDbEntity
  8
0
 62
     7
370
    13
  0
POLYLINE
  5
13F
330
1F
100
AcDbEntity
  8
0
 62
     7
370
    13
100
AcDb2dPolyline
 66
     1
 10
0.0
 20
0.0
 30
0.0
 70
     1
  0
VERTEX
  5
140
330
13F
100
AcDbEntity
  8
0
370
     0
100
AcDbVertex
100
AcDb2dVertex
 10
271.903748
 20
107.893372
 30
0.0
  0
VERTEX
  5
141
330
13F
100
AcDbEntity
  8
0
370
     0
100
AcDbVertex
100
AcDb2dVertex
 10
272.367706
 20
107.893372
 30
0.0
  0
VERTEX
  5
142
330
13F
100
AcDbEntity
  8
0
370
     0
100
AcDbVertex
100
AcDb2dVertex
 10
272.73587
 20
108.922188
 30
0.0
  0
VERTEX
  5
143
330
13F
100
AcDbEntity
  8
0
370
     0
100
AcDbVertex
100
AcDb2dVertex
 10
274.132843
 20
108.922188
 30
0.0
  0
VERTEX
  5
144
330
13F
100
AcDbEntity
  8
0
370
     0
100
AcDbVertex
100
AcDb2dVertex
 10
274.501007
 20
107.893372
 30
0.0
  0
VERTEX
  5
145
330
13F
100
AcDbEntity
  8
0
370
     0
100
AcDbVertex
100
AcDb2dVertex
 10
274.975067
 20
107.893372
 30
0.0
  0
VERTEX
  5
146
330
13F
100
AcDbEntity
  8
0
370
     0
100
AcDbVertex
100
AcDb2dVertex
 10
273.694092
 20
111.398415
 30
0.0
  0
VERTEX
  5
147
330
13F
100
AcDbEntity
  8
0
370
     0
100
AcDbVertex
100
AcDb2dVertex
 10
273.179688
 20
111.398415
 30
0.0
  0
SEQEND
  5
148
330
13F
100
AcDbEntity
  8
0
 62
     7
370
    13
  0
POLYLINE
  5
149
330
1F
100
AcDbEntity
  8
0
 62
     7
370
    13
100
AcDb2dPolyline
 66
     1
 10
0.0
 20
0.0
 30
0.0
 70
     1
  0
VERTEX
  5
14A
330
149
100
AcDbEntity
  8
0
370
     0
100
AcDbVertex
100
AcDb2dVertex
 10
272.897247
 20
109.350861
 30
0.0
  0
VERTEX
  5
14B
330
149
100
AcDbEntity
  8
0
370
     0
100
AcDbVertex
100
AcDb2dVertex
 10
273.43689
 20
110.894089
 30
0.0
  0
VERTEX
  5
14C
330
149
100
AcDbEntity
  8
0
370
     0
100
AcDbVertex
100
AcDb2dVertex
 10
273.976501
 20
109.350861
 30
0.0
  0
SEQEND
  5
14D
330
149
100
AcDbEntity
  8
0
 62
     7
370
    13
  0
POLYLINE
  5
14E
330
1F
100
AcDbEntity
  8
0
 62
     7
370
    13
100
AcDb2dPolyline
 66
     1
 10
0.0
 20
0.0
 30
0.0
 70
     1
  0
VERTEX
  5
14F
330
14E
100
AcDbEntity
  8
0
370
     0
100
AcDbVertex
100
AcDb2dVertex
 10
275.348267
 20
107.893372
 30
0.0
  0
VERTEX
  5
150
330
14E
100
AcDbEntity
  8
0
370
     0
100
AcDbVertex
100
AcDb2dVertex
 10
275.817291
 20
107.893372
 30
0.0
  0
VERTEX
  5
151
330
14E
100
AcDbEntity
  8
0
370
     0
100
AcDbVertex
100
AcDb2dVertex
 10
275.817291
 20
109.37104
 30
0.0
  0
VERTEX
  5
152
330
14E
100
AcDbEntity
  8
0
370
     0
100
AcDbVertex
100
AcDb2dVertex
 10
276.296387
 20
109.37104
 30
0.0
  0
VERTEX
  5
153
330
14E
100
AcDbEntity
  8
0
370
     0
100
AcDbVertex
100
AcDb2dVertex
 10
276.649414
 20
109.355911
 30
0.0
  0
VERTEX
  5
154
330
14E
100
AcDbEntity
  8
0
370
     0
100
AcDbVertex
100
AcDb2dVertex
 10
276.871307
 20
109.285301
 30
0.0
  0
VERTEX
  5
155
330
14E
100
AcDbEntity
  8
0
370
     0
100
AcDbVertex
100
AcDb2dVertex
 10
276.992371
 20
109.118874
 30
0.0
  0
VERTEX
  5
156
330
14E
100
AcDbEntity
  8
0
370
     0
100
AcDbVertex
100
AcDb2dVertex
 10
277.042786
 20
108.821327
 30
0.0
  0
VERTEX
  5
157
330
14E
100
AcDbEntity
  8
0
370
     0
100
AcDbVertex
100
AcDb2dVertex
 10
277.067993
 20
108.367432
 30
0.0
  0
VERTEX
  5
158
330
14E
100
AcDbEntity
  8
0
370
     0
100
AcDbVertex
100
AcDb2dVertex
 10
277.098267
 20
108.069885
 30
0.0
  0
VERTEX
  5
159
330
14E
100
AcDbEntity
  8
0
370
     0
100
AcDbVertex
100
AcDb2dVertex
 10
277.158783
 20
107.893372
 30
0.0
  0
VERTEX
  5
15A
330
14E
100
AcDbEntity
  8
0
370
     0
100
AcDbVertex
100
AcDb2dVertex
 10
277.688324
 20
107.893372
 30
0.0
  0
VERTEX
  5
15B
330
14E
100
AcDbEntity
  8
0
370
     0
100
AcDbVertex
100
AcDb2dVertex
 10
277.688324
 20
107.989189
 30
0.0
  0
VERTEX
  5
15C
330
14E
100
AcDbEntity
  8
0
370
     0
100
AcDbVertex
100
AcDb2dVertex
 10
277.572327
 20
108.130402
 30
0.0
  0
VERTEX
  5
15D
330
14E
100
AcDbEntity
  8
0
370
     0
100
AcDbVertex
100
AcDb2dVertex
 10
277.531982
 20
108.392654
 30
0.0
  0
VERTEX
  5
15E
330
14E
100
AcDbEntity
  8
0
370
     0
100
AcDbVertex
100
AcDb2dVertex
 10
277.496674
 20
108.957489
 30
0.0
  0
VERTEX
  5
15F
330
14E
100
AcDbEntity
  8
0
370
     0
100
AcDbVertex
100
AcDb2dVertex
 10
277.41095
 20
109.376083
 30
0.0
  0
VERTEX
  5
160
330
14E
100
AcDbEntity
  8
0
370
     0
100
AcDbVertex
100
AcDb2dVertex
 10
277.294952
 20
109.507202
 30
0.0
  0
VERTEX
  5
161
330
14E
100
AcDbEntity
  8
0
370
     0
100
AcDbVertex
100
AcDb2dVertex
 10
277.113403
 20
109.603027
 30
0.0
  0
VERTEX
  5
162
330
14E
100
AcDbEntity
  8
0
370
     0
100
AcDbVertex
100
AcDb2dVertex
 10
277.315125
 20
109.729103
 30
0.0
  0
VERTEX
  5
163
330
14E
100
AcDbEntity
  8
0
370
     0
100
AcDbVertex
100
AcDb2dVertex
 10
277.456329
 20
109.905617
 30
0.0
  0
VERTEX
  5
164
330
14E
100
AcDbEntity
  8
0
370
     0
100
AcDbVertex
100
AcDb2dVertex
 10
277.547119
 20
110.127518
 30
0.0
  0
VERTEX
  5
165
330
14E
100
AcDbEntity
  8
0
370
     0
100
AcDbVertex
100
AcDb2dVertex
 10
277.577362
 20
110.394814
 30
0.0
  0
VERTEX
  5
166
330
14E
100
AcDbEntity
  8
0
370
     0
100
AcDbVertex
100
AcDb2dVertex
 10
277.506775
 20
110.818443
 30
0.0
  0
VERTEX
  5
167
330
14E
100
AcDbEntity
  8
0
370
     0
100
AcDbVertex
100
AcDb2dVertex
 10
277.305023
 20
111.136169
 30
0.0
  0
VERTEX
  5
168
330
14E
100
AcDbEntity
  8
0
370
     0
100
AcDbVertex
100
AcDb2dVertex
 10
276.972168
 20
111.327812
 30
0.0
  0
VERTEX
  5
169
330
14E
100
AcDbEntity
  8
0
370
     0
100
AcDbVertex
100
AcDb2dVertex
 10
276.51828
 20
111.393372
 30
0.0
  0
VERTEX
  5
16A
330
14E
100
AcDbEntity
  8
0
370
     0
100
AcDbVertex
100
AcDb2dVertex
 10
275.348267
 20
111.393372
 30
0.0
  0
SEQEND
  5
16B
330
14E
100
AcDbEntity
  8
0
 62
     7
370
    13
  0
POLYLINE
  5
16C
330
1F
100
AcDbEntity
  8
0
 62
     7
370
    13
100
AcDb2dPolyline
 66
     1
 10
0.0
 20
0.0
 30
0.0
 70
     1
  0
VERTEX
  5
16D
330
16C
100
AcDbEntity
  8
0
370
     0
100
AcDbVertex
100
AcDb2dVertex
 10
276.387177
 20
110.964699
 30
0.0
  0
VERTEX
  5
16E
330
16C
100
AcDbEntity
  8
0
370
     0
100
AcDbVertex
100
AcDb2dVertex
 10
276.694794
 20
110.934441
 30
0.0
  0
VERTEX
  5
16F
330
16C
100
AcDbEntity
  8
0
370
     0
100
AcDbVertex
100
AcDb2dVertex
 10
276.911652
 20
110.838615
 30
0.0
  0
VERTEX
  5
170
330
16C
100
AcDbEntity
  8
0
370
     0
100
AcDbVertex
100
AcDb2dVertex
 10
277.047821
 20
110.662102
 30
0.0
  0
VERTEX
  5
171
330
16C
100
AcDbEntity
  8
0
370
     0
100
AcDbVertex
100
AcDb2dVertex
 10
277.093231
 20
110.384727
 30
0.0
  0
VERTEX
  5
172
330
16C
100
AcDbEntity
  8
0
370
     0
100
AcDbVertex
100
AcDb2dVertex
 10
277.042786
 20
110.092216
 30
0.0
  0
VERTEX
  5
173
330
16C
100
AcDbEntity
  8
0
370
     0
100
AcDbVertex
100
AcDb2dVertex
 10
276.906616
 20
109.915703
 30
0.0
  0
VERTEX
  5
174
330
16C
100
AcDbEntity
  8
0
370
     0
100
AcDbVertex
100
AcDb2dVertex
 10
276.674622
 20
109.824928
 30
0.0
  0
VERTEX
  5
175
330
16C
100
AcDbEntity
  8
0
370
     0
100
AcDbVertex
100
AcDb2dVertex
 10
276.356903
 20
109.799713
 30
0.0
  0
VERTEX
  5
176
330
16C
100
AcDbEntity
  8
0
370
     0
100
AcDbVertex
100
AcDb2dVertex
 10
275.817291
 20
109.799713
 30
0.0
  0
VERTEX
  5
177
330
16C
100
AcDbEntity
  8
0
370
     0
100
AcDbVertex
100
AcDb2dVertex
 10
275.817291
 20
110.964699
 30
0.0
  0
SEQEND
  5
178
330
16C
100
AcDbEntity
  8
0
 62
     7
370
    13
  0
POLYLINE
  5
179
330
1F
100
AcDbEntity
  8
0
 62
     7
370
    13
100
AcDb2dPolyline
 66
     1
 10
0.0
 20
0.0
 30
0.0
 70
     1
  0
VERTEX
  5
17A
330
179
100
AcDbEntity
  8
0
370
     0
100
AcDbVertex
100
AcDb2dVertex
 10
281.314392
 20
107.893372
 30
0.0
  0
VERTEX
  5
17B
330
179
100
AcDbEntity
  8
0
370
     0
100
AcDbVertex
100
AcDb2dVertex
 10
283.720032
 20
107.893372
 30
0.0
  0
VERTEX
  5
17C
330
179
100
AcDbEntity
  8
0
370
     0
100
AcDbVertex
100
AcDb2dVertex
 10
283.720032
 20
108.327087
 30
0.0
  0
VERTEX
  5
17D
330
179
100
AcDbEntity
  8
0
370
     0
100
AcDbVertex
100
AcDb2dVertex
 10
281.818726
 20
108.327087
 30
0.0
  0
VERTEX
  5
17E
330
179
100
AcDbEntity
  8
0
370
     0
100
AcDbVertex
100
AcDb2dVertex
 10
281.924622
 20
108.564117
 30
0.0
  0
VERTEX
  5
17F
330
179
100
AcDbEntity
  8
0
370
     0
100
AcDbVertex
100
AcDb2dVertex
 10
282.106201
 20
108.760803
 30
0.0
  0
VERTEX
  5
180
330
179
100
AcDbEntity
  8
0
370
     0
100
AcDbVertex
100
AcDb2dVertex
 10
282.665985
 20
109.118874
 30
0.0
  0
VERTEX
  5
181
330
179
100
AcDbEntity
  8
0
370
     0
100
AcDbVertex
100
AcDb2dVertex
 10
282.963531
 20
109.270172
 30
0.0
  0
VERTEX
  5
182
330
179
100
AcDbEntity
  8
0
370
     0
100
AcDbVertex
100
AcDb2dVertex
 10
283.296387
 20
109.48703
 30
0.0
  0
VERTEX
  5
183
330
179
100
AcDbEntity
  8
0
370
     0
100
AcDbVertex
100
AcDb2dVertex
 10
283.533417
 20
109.739197
 30
0.0
  0
VERTEX
  5
184
330
179
100
AcDbEntity
  8
0
370
     0
100
AcDbVertex
100
AcDb2dVertex
 10
283.669586
 20
110.036743
 30
0.0
  0
VERTEX
  5
185
330
179
100
AcDbEntity
  8
0
370
     0
100
AcDbVertex
100
AcDb2dVertex
 10
283.720032
 20
110.374641
 30
0.0
  0
VERTEX
  5
186
330
179
100
AcDbEntity
  8
0
370
     0
100
AcDbVertex
100
AcDb2dVertex
 10
283.634277
 20
110.798271
 30
0.0
  0
VERTEX
  5
187
330
179
100
AcDbEntity
  8
0
370
     0
100
AcDbVertex
100
AcDb2dVertex
 10
283.397247
 20
111.131126
 30
0.0
  0
VERTEX
  5
188
330
179
100
AcDbEntity
  8
0
370
     0
100
AcDbVertex
100
AcDb2dVertex
 10
283.034149
 20
111.342941
 30
0.0
  0
VERTEX
  5
189
330
179
100
AcDbEntity
  8
0
370
     0
100
AcDbVertex
100
AcDb2dVertex
 10
282.565125
 20
111.418587
 30
0.0
  0
VERTEX
  5
18A
330
179
100
AcDbEntity
  8
0
370
     0
100
AcDbVertex
100
AcDb2dVertex
 10
282.080963
 20
111.332855
 30
0.0
  0
VERTEX
  5
18B
330
179
100
AcDbEntity
  8
0
370
     0
100
AcDbVertex
100
AcDb2dVertex
 10
281.71283
 20
111.095818
 30
0.0
  0
VERTEX
  5
18C
330
179
100
AcDbEntity
  8
0
370
     0
100
AcDbVertex
100
AcDb2dVertex
 10
281.475769
 20
110.717583
 30
0.0
  0
VERTEX
  5
18D
330
179
100
AcDbEntity
  8
0
370
     0
100
AcDbVertex
100
AcDb2dVertex
 10
281.395081
 20
110.2183
 30
0.0
  0
VERTEX
  5
18E
330
179
100
AcDbEntity
  8
0
370
     0
100
AcDbVertex
100
AcDb2dVertex
 10
281.395081
 20
110.147697
 30
0.0
  0
VERTEX
  5
18F
330
179
100
AcDbEntity
  8
0
370
     0
100
AcDbVertex
100
AcDb2dVertex
 10
281.854034
 20
110.147697
 30
0.0
  0
VERTEX
  5
190
330
179
100
AcDbEntity
  8
0
370
     0
100
AcDbVertex
100
AcDb2dVertex
 10
281.854034
 20
110.188042
 30
0.0
  0
VERTEX
  5
191
330
179
100
AcDbEntity
  8
0
370
     0
100
AcDbVertex
100
AcDb2dVertex
 10
281.899414
 20
110.530983
 30
0.0
  0
VERTEX
  5
192
330
179
100
AcDbEntity
  8
0
370
     0
100
AcDbVertex
100
AcDb2dVertex
 10
282.035583
 20
110.783142
 30
0.0
  0
VERTEX
  5
193
330
179
100
AcDbEntity
  8
0
370
     0
100
AcDbVertex
100
AcDb2dVertex
 10
282.252441
 20
110.944527
 30
0.0
  0
VERTEX
  5
194
330
179
100
AcDbEntity
  8
0
370
     0
100
AcDbVertex
100
AcDb2dVertex
 10
282.539917
 20
111.0
 30
0.0
  0
VERTEX
  5
195
330
179
100
AcDbEntity
  8
0
370
     0
100
AcDbVertex
100
AcDb2dVertex
 10
282.832397
 20
110.94957
 30
0.0
  0
VERTEX
  5
196
330
179
100
AcDbEntity
  8
0
370
     0
100
AcDbVertex
100
AcDb2dVertex
 10
283.049255
 20
110.823486
 30
0.0
  0
VERTEX
  5
197
330
179
100
AcDbEntity
  8
0
370
     0
100
AcDbVertex
100
AcDb2dVertex
 10
283.190491
 20
110.626801
 30
0.0
  0
VERTEX
  5
198
330
179
100
AcDbEntity
  8
0
370
     0
100
AcDbVertex
100
AcDb2dVertex
 10
283.240906
 20
110.379684
 30
0.0
  0
VERTEX
  5
199
330
179
100
AcDbEntity
  8
0
370
     0
100
AcDbVertex
100
AcDb2dVertex
 10
283.205597
 20
110.147697
 30
0.0
  0
VERTEX
  5
19A
330
179
100
AcDbEntity
  8
0
370
     0
100
AcDbVertex
100
AcDb2dVertex
 10
283.109802
 20
109.951012
 30
0.0
  0
VERTEX
  5
19B
330
179
100
AcDbEntity
  8
0
370
     0
100
AcDbVertex
100
AcDb2dVertex
 10
282.948395
 20
109.779541
 30
0.0
  0
VERTEX
  5
19C
330
179
100
AcDbEntity
  8
0
370
     0
100
AcDbVertex
100
AcDb2dVertex
 10
282.726501
 20
109.628242
 30
0.0
  0
VERTEX
  5
19D
330
179
100
AcDbEntity
  8
0
370
     0
100
AcDbVertex
100
AcDb2dVertex
 10
282.428955
 20
109.466858
 30
0.0
  0
VERTEX
  5
19E
330
179
100
AcDbEntity
  8
0
370
     0
100
AcDbVertex
100
AcDb2dVertex
 10
281.934723
 20
109.154175
 30
0.0
  0
VERTEX
  5
19F
330
179
100
AcDbEntity
  8
0
370
     0
100
AcDbVertex
100
AcDb2dVertex
 10
281.586731
 20
108.821327
 30
0.0
  0
VERTEX
  5
1A0
330
179
100
AcDbEntity
  8
0
370
     0
100
AcDbVertex
100
AcDb2dVertex
 10
281.379974
 20
108.41787
 30
0.0
  0
VERTEX
  5
1A1
330
179
100
AcDbEntity
  8
0
370
     0
100
AcDbVertex
100
AcDb2dVertex
 10
281.314392
 20
107.908501
 30
0.0
  0
SEQEND
  5
1A2
330
179
100
AcDbEntity
  8
0
 62
     7
370
    13
  0
POLYLINE
  5
1A3
330
1F
100
AcDbEntity
  8
0
 62
     7
370
    13
100
AcDb2dPolyline
 66
     1
 10
0.0
 20
0.0
 30
0.0
 70
     1
  0
VERTEX
  5
1A4
330
1A3
100
AcDbEntity
  8
0
370
     0
100
AcDbVertex
100
AcDb2dVertex
 10
287.552856
 20
107.893372
 30
0.0
  0
VERTEX
  5
1A5
330
1A3
100
AcDbEntity
  8
0
370
     0
100
AcDbVertex
100
AcDb2dVertex
 10
288.016846
 20
107.893372
 30
0.0
  0
VERTEX
  5
1A6
330
1A3
100
AcDbEntity
  8
0
370
     0
100
AcDbVertex
100
AcDb2dVertex
 10
288.016846
 20
109.37104
 30
0.0
  0
VERTEX
  5
1A7
330
1A3
100
AcDbEntity
  8
0
370
     0
100
AcDbVertex
100
AcDb2dVertex
 10
288.53125
 20
109.37104
 30
0.0
  0
VERTEX
  5
1A8
330
1A3
100
AcDbEntity
  8
0
370
     0
100
AcDbVertex
100
AcDb2dVertex
 10
289.05072
 20
109.396255
 30
0.0
  0
VERTEX
  5
1A9
330
1A3
100
AcDbEntity
  8
0
370
     0
100
AcDbVertex
100
AcDb2dVertex
 10
289.464264
 20
109.572769
 30
0.0
  0
VERTEX
  5
1AA
330
1A3
100
AcDbEntity
  8
0
370
     0
100
AcDbVertex
100
AcDb2dVertex
 10
289.731537
 20
109.915703
 30
0.0
  0
VERTEX
  5
1AB
330
1A3
100
AcDbEntity
  8
0
370
     0
100
AcDbVertex
100
AcDb2dVertex
 10
289.822327
 20
110.384727
 30
0.0
  0
VERTEX
  5
1AC
330
1A3
100
AcDbEntity
  8
0
370
     0
100
AcDbVertex
100
AcDb2dVertex
 10
289.751709
 20
110.818443
 30
0.0
  0
VERTEX
  5
1AD
330
1A3
100
AcDbEntity
  8
0
370
     0
100
AcDbVertex
100
AcDb2dVertex
 10
289.549988
 20
111.136169
 30
0.0
  0
VERTEX
  5
1AE
330
1A3
100
AcDbEntity
  8
0
370
     0
100
AcDbVertex
100
AcDb2dVertex
 10
289.217133
 20
111.327812
 30
0.0
  0
VERTEX
  5
1AF
330
1A3
100
AcDbEntity
  8
0
370
     0
100
AcDbVertex
100
AcDb2dVertex
 10
288.763245
 20
111.393372
 30
0.0
  0
VERTEX
  5
1B0
330
1A3
100
AcDbEntity
  8
0
370
     0
100
AcDbVertex
100
AcDb2dVertex
 10
287.552856
 20
111.393372
 30
0.0
  0
SEQEND
  5
1B1
330
1A3
100
AcDbEntity
  8
0
 62
     7
370
    13
  0
POLYLINE
  5
1B2
330
1F
100
AcDbEntity
  8
0
 62
     7
370
    13
100
AcDb2dPolyline
 66
     1
 10
0.0
 20
0.0
 30
0.0
 70
     1
  0
VERTEX
  5
1B3
330
1B2
100
AcDbEntity
  8
0
370
     0
100
AcDbVertex
100
AcDb2dVertex
 10
288.637177
 20
110.964699
 30
0.0
  0
VERTEX
  5
1B4
330
1B2
100
AcDbEntity
  8
0
370
     0
100
AcDbVertex
100
AcDb2dVertex
 10
288.939758
 20
110.934441
 30
0.0
  0
VERTEX
  5
1B5
330
1B2
100
AcDbEntity
  8
0
370
     0
100
AcDbVertex
100
AcDb2dVertex
 10
289.161652
 20
110.838615
 30
0.0
  0
VERTEX
  5
1B6
330
1B2
100
AcDbEntity
  8
0
370
     0
100
AcDbVertex
100
AcDb2dVertex
 10
289.292786
 20
110.662102
 30
0.0
  0
VERTEX
  5
1B7
330
1B2
100
AcDbEntity
  8
0
370
     0
100
AcDbVertex
100
AcDb2dVertex
 10
289.338165
 20
110.384727
 30
0.0
  0
VERTEX
  5
1B8
330
1B2
100
AcDbEntity
  8
0
370
     0
100
AcDbVertex
100
AcDb2dVertex
 10
289.28775
 20
110.092216
 30
0.0
  0
VERTEX
  5
1B9
330
1B2
100
AcDbEntity
  8
0
370
     0
100
AcDbVertex
100
AcDb2dVertex
 10
289.151581
 20
109.915703
 30
0.0
  0
VERTEX
  5
1BA
330
1B2
100
AcDbEntity
  8
0
370
     0
100
AcDbVertex
100
AcDb2dVertex
 10
288.919586
 20
109.824928
 30
0.0
  0
VERTEX
  5
1BB
330
1B2
100
AcDbEntity
  8
0
370
     0
100
AcDbVertex
100
AcDb2dVertex
 10
288.601868
 20
109.799713
 30
0.0
  0
VERTEX
  5
1BC
330
1B2
100
AcDbEntity
  8
0
370
     0
100
AcDbVertex
100
AcDb2dVertex
 10
288.016846
 20
109.799713
 30
0.0
  0
VERTEX
  5
1BD
330
1B2
100
AcDbEntity
  8
0
370
     0
100
AcDbVertex
100
AcDb2dVertex
 10
288.016846
 20
110.964699
 30
0.0
  0
SEQEND
  5
1BE
330
1B2
100
AcDbEntity
  8
0
 62
     7
370
    13
  0
POLYLINE
  5
1BF
330
1F
100
AcDbEntity
  8
0
 62
     7
370
    13
100
AcDb2dPolyline
 66
     1
 10
0.0
 20
0.0
 30
0.0
 70
     1
  0
VERTEX
  5
1C0
330
1BF
100
AcDbEntity
  8
0
370
     0
100
AcDbVertex
100
AcDb2dVertex
 10
291.421021
 20
108.317001
 30
0.0
  0
VERTEX
  5
1C1
330
1BF
100
AcDbEntity
  8
0
370
     0
100
AcDbVertex
100
AcDb2dVertex
 10
290.775482
 20
108.317001
 30
0.0
  0
VERTEX
  5
1C2
330
1BF
100
AcDbEntity
  8
0
370
     0
100
AcDbVertex
100
AcDb2dVertex
 10
290.775482
 20
107.893372
 30
0.0
  0
VERTEX
  5
1C3
330
1BF
100
AcDbEntity
  8
0
370
     0
100
AcDbVertex
100
AcDb2dVertex
 10
292.530548
 20
107.893372
 30
0.0
  0
VERTEX
  5
1C4
330
1BF
100
AcDbEntity
  8
0
370
     0
100
AcDbVertex
100
AcDb2dVertex
 10
292.530548
 20
108.317001
 30
0.0
  0
VERTEX
  5
1C5
330
1BF
100
AcDbEntity
  8
0
370
     0
100
AcDbVertex
100
AcDb2dVertex
 10
291.88501
 20
108.317001
 30
0.0
  0
VERTEX
  5
1C6
330
1BF
100
AcDbEntity
  8
0
370
     0
100
AcDbVertex
100
AcDb2dVertex
 10
291.88501
 20
110.969742
 30
0.0
  0
VERTEX
  5
1C7
330
1BF
100
AcDbEntity
  8
0
370
     0
100
AcDbVertex
100
AcDb2dVertex
 10
292.530548
 20
110.969742
 30
0.0
  0
VERTEX
  5
1C8
330
1BF
100
AcDbEntity
  8
0
370
     0
100
AcDbVertex
100
AcDb2dVertex
 10
292.530548
 20
111.393372
 30
0.0
  0
VERTEX
  5
1C9
330
1BF
100
AcDbEntity
  8
0
370
     0
100
AcDbVertex
100
AcDb2dVertex
 10
290.775482
 20
111.393372
 30
0.0
  0
VERTEX
  5
1CA
330
1BF
100
AcDbEntity
  8
0
370
     0
100
AcDbVertex
100
AcDb2dVertex
 10
290.775482
 20
110.969742
 30
0.0
  0
VERTEX
  5
1CB
330
1BF
100
AcDbEntity
  8
0
370
     0
100
AcDbVertex
100
AcDb2dVertex
 10
291.421021
 20
110.969742
 30
0.0
  0
SEQEND
  5
1CC
330
1BF
100
AcDbEntity
  8
0
 62
     7
370
    13
  0
POLYLINE
  5
1CD
330
1F
100
AcDbEntity
  8
0
 62
     7
370
    13
100
AcDb2dPolyline
 66
     1
 10
0.0
 20
0.0
 30
0.0
 70
     1
  0
VERTEX
  5
1CE
330
1CD
100
AcDbEntity
  8
0
370
     0
100
AcDbVertex
100
AcDb2dVertex
 10
293.629944
 20
107.893372
 30
0.0
  0
VERTEX
  5
1CF
330
1CD
100
AcDbEntity
  8
0
370
     0
100
AcDbVertex
100
AcDb2dVertex
 10
295.848969
 20
107.893372
 30
0.0
  0
VERTEX
  5
1D0
330
1CD
100
AcDbEntity
  8
0
370
     0
100
AcDbVertex
100
AcDb2dVertex
 10
295.848969
 20
108.317001
 30
0.0
  0
VERTEX
  5
1D1
330
1CD
100
AcDbEntity
  8
0
370
     0
100
AcDbVertex
100
AcDb2dVertex
 10
294.093933
 20
108.317001
 30
0.0
  0
VERTEX
  5
1D2
330
1CD
100
AcDbEntity
  8
0
370
     0
100
AcDbVertex
100
AcDb2dVertex
 10
294.093933
 20
109.502159
 30
0.0
  0
VERTEX
  5
1D3
330
1CD
100
AcDbEntity
  8
0
370
     0
100
AcDbVertex
100
AcDb2dVertex
 10
295.657349
 20
109.502159
 30
0.0
  0
VERTEX
  5
1D4
330
1CD
100
AcDbEntity
  8
0
370
     0
100
AcDbVertex
100
AcDb2dVertex
 10
295.657349
 20
109.920746
 30
0.0
  0
VERTEX
  5
1D5
330
1CD
100
AcDbEntity
  8
0
370
     0
100
AcDbVertex
100
AcDb2dVertex
 10
294.093933
 20
109.920746
 30
0.0
  0
VERTEX
  5
1D6
330
1CD
100
AcDbEntity
  8
0
370
     0
100
AcDbVertex
100
AcDb2dVertex
 10
294.093933
 20
110.969742
 30
0.0
  0
VERTEX
  5
1D7
330
1CD
100
AcDbEntity
  8
0
370
     0
100
AcDbVertex
100
AcDb2dVertex
 10
295.808624
 20
110.969742
 30
0.0
  0
VERTEX
  5
1D8
330
1CD
100
AcDbEntity
  8
0
370
     0
100
AcDbVertex
100
AcDb2dVertex
 10
295.808624
 20
111.393372
 30
0.0
  0
VERTEX
  5
1D9
330
1CD
100
AcDbEntity
  8
0
370
     0
100
AcDbVertex
100
AcDb2dVertex
 10
293.629944
 20
111.393372
 30
0.0
  0
SEQEND
  5
1DA
330
1CD
100
AcDbEntity
  8
0
 62
     7
370
    13
  0
POLYLINE
  5
1DB
330
1F
100
AcDbEntity
  8
0
 62
     7
370
    13
100
AcDb2dPolyline
 66
     1
 10
0.0
 20
0.0
 30
0.0
 70
     1
  0
VERTEX
  5
1DC
330
1DB
100
AcDbEntity
  8
0
370
     0
100
AcDbVertex
100
AcDb2dVertex
 10
296.469299
 20
107.893372
 30
0.0
  0
VERTEX
  5
1DD
330
1DB
100
AcDbEntity
  8
0
370
     0
100
AcDbVertex
100
AcDb2dVertex
 10
298.980835
 20
107.893372
 30
0.0
  0
VERTEX
  5
1DE
330
1DB
100
AcDbEntity
  8
0
370
     0
100
AcDbVertex
100
AcDb2dVertex
 10
298.980835
 20
108.317001
 30
0.0
  0
VERTEX
  5
1DF
330
1DB
100
AcDbEntity
  8
0
370
     0
100
AcDbVertex
100
AcDb2dVertex
 10
297.024048
 20
108.317001
 30
0.0
  0
VERTEX
  5
1E0
330
1DB
100
AcDbEntity
  8
0
370
     0
100
AcDbVertex
100
AcDb2dVertex
 10
298.980835
 20
110.994957
 30
0.0
  0
VERTEX
  5
1E1
330
1DB
100
AcDbEntity
  8
0
370
     0
100
AcDbVertex
100
AcDb2dVertex
 10
298.980835
 20
111.393372
 30
0.0
  0
VERTEX
  5
1E2
330
1DB
100
AcDbEntity
  8
0
370
     0
100
AcDbVertex
100
AcDb2dVertex
 10
296.605469
 20
111.393372
 30
0.0
  0
VERTEX
  5
1E3
330
1DB
100
AcDbEntity
  8
0
370
     0
100
AcDbVertex
100
AcDb2dVertex
 10
296.605469
 20
110.969742
 30
0.0
  0
VERTEX
  5
1E4
330
1DB
100
AcDbEntity
  8
0
370
     0
100
AcDbVertex
100
AcDb2dVertex
 10
298.456329
 20
110.969742
 30
0.0
  0
VERTEX
  5
1E5
330
1DB
100
AcDbEntity
  8
0
370
     0
100
AcDbVertex
100
AcDb2dVertex
 10
296.469299
 20
108.296829
 30
0.0
  0
SEQEND
  5
1E6
330
1DB
100
AcDbEntity
  8
0
 62
     7
370
    13
  0
POLYLINE
  5
1E7
330
1F
100
AcDbEntity
  8
0
 62
     7
370
    13
100
AcDb2dPolyline
 66
     1
 10
0.0
 20
0.0
 30
0.0
 70
     1
  0
VERTEX
  5
1E8
330
1E7
100
AcDbEntity
  8
0
370
     0
100
AcDbVertex
100
AcDb2dVertex
 10
299.227936
 20
107.893372
 30
0.0
  0
VERTEX
  5
1E9
330
1E7
100
AcDbEntity
  8
0
370
     0
100
AcDbVertex
100
AcDb2dVertex
 10
299.691925
 20
107.893372
 30
0.0
  0
VERTEX
  5
1EA
330
1E7
100
AcDbEntity
  8
0
370
     0
100
AcDbVertex
100
AcDb2dVertex
 10
300.060059
 20
108.922188
 30
0.0
  0
VERTEX
  5
1EB
330
1E7
100
AcDbEntity
  8
0
370
     0
100
AcDbVertex
100
AcDb2dVertex
 10
301.457031
 20
108.922188
 30
0.0
  0
VERTEX
  5
1EC
330
1E7
100
AcDbEntity
  8
0
370
     0
100
AcDbVertex
100
AcDb2dVertex
 10
301.825195
 20
107.893372
 30
0.0
  0
VERTEX
  5
1ED
330
1E7
100
AcDbEntity
  8
0
370
     0
100
AcDbVertex
100
AcDb2dVertex
 10
302.299255
 20
107.893372
 30
0.0
  0
VERTEX
  5
1EE
330
1E7
100
AcDbEntity
  8
0
370
     0
100
AcDbVertex
100
AcDb2dVertex
 10
301.01828
 20
111.398415
 30
0.0
  0
VERTEX
  5
1EF
330
1E7
100
AcDbEntity
  8
0
370
     0
100
AcDbVertex
100
AcDb2dVertex
 10
300.503876
 20
111.398415
 30
0.0
  0
SEQEND
  5
1F0
330
1E7
100
AcDbEntity
  8
0
 62
     7
370
    13
  0
POLYLINE
  5
1F1
330
1F
100
AcDbEntity
  8
0
 62
     7
370
    13
100
AcDb2dPolyline
 66
     1
 10
0.0
 20
0.0
 30
0.0
 70
     1
  0
VERTEX
  5
1F2
330
1F1
100
AcDbEntity
  8
0
370
     0
100
AcDbVertex
100
AcDb2dVertex
 10
300.221466
 20
109.350861
 30
0.0
  0
VERTEX
  5
1F3
330
1F1
100
AcDbEntity
  8
0
370
     0
100
AcDbVertex
100
AcDb2dVertex
 10
300.761078
 20
110.894089
 30
0.0
  0
VERTEX
  5
1F4
330
1F1
100
AcDbEntity
  8
0
370
     0
100
AcDbVertex
100
AcDb2dVertex
 10
301.30072
 20
109.350861
 30
0.0
  0
SEQEND
  5
1F5
330
1F1
100
AcDbEntity
  8
0
 62
     7
370
    13
  0
POLYLINE
  5
1F6
330
1F
100
AcDbEntity
  8
0
 62
     7
370
    13
100
AcDb2dPolyline
 66
     1
 10
0.0
 20
0.0
 30
0.0
 70
     1
  0
VERTEX
  5
1F7
330
1F6
100
AcDbEntity
  8
0
370
     0
100
AcDbVertex
100
AcDb2dVertex
 10
303.000275
 20
109.048271
 30
0.0
  0
VERTEX
  5
1F8
330
1F6
100
AcDbEntity
  8
0
370
     0
100
AcDbVertex
100
AcDb2dVertex
 10
302.541351
 20
109.048271
 30
0.0
  0
VERTEX
  5
1F9
330
1F6
100
AcDbEntity
  8
0
370
     0
100
AcDbVertex
100
AcDb2dVertex
 10
302.642212
 20
108.513687
 30
0.0
  0
VERTEX
  5
1FA
330
1F6
100
AcDbEntity
  8
0
370
     0
100
AcDbVertex
100
AcDb2dVertex
 10
302.894348
 20
108.120316
 30
0.0
  0
VERTEX
  5
1FB
330
1F6
100
AcDbEntity
  8
0
370
     0
100
AcDbVertex
100
AcDb2dVertex
 10
303.282684
 20
107.883286
 30
0.0
  0
VERTEX
  5
1FC
330
1F6
100
AcDbEntity
  8
0
370
     0
100
AcDbVertex
100
AcDb2dVertex
 10
303.80719
 20
107.797554
 30
0.0
  0
VERTEX
  5
1FD
330
1F6
100
AcDbEntity
  8
0
370
     0
100
AcDbVertex
100
AcDb2dVertex
 10
304.32663
 20
107.878242
 30
0.0
  0
VERTEX
  5
1FE
330
1F6
100
AcDbEntity
  8
0
370
     0
100
AcDbVertex
100
AcDb2dVertex
 10
304.714966
 20
108.100143
 30
0.0
  0
VERTEX
  5
1FF
330
1F6
100
AcDbEntity
  8
0
370
     0
100
AcDbVertex
100
AcDb2dVertex
 10
304.962097
 20
108.448128
 30
0.0
  0
VERTEX
  5
200
330
1F6
100
AcDbEntity
  8
0
370
     0
100
AcDbVertex
100
AcDb2dVertex
 10
305.052856
 20
108.907059
 30
0.0
  0
VERTEX
  5
201
330
1F6
100
AcDbEntity
  8
0
370
     0
100
AcDbVertex
100
AcDb2dVertex
 10
304.977234
 20
109.320602
 30
0.0
  0
VERTEX
  5
202
330
1F6
100
AcDbEntity
  8
0
370
     0
100
AcDbVertex
100
AcDb2dVertex
 10
304.765411
 20
109.587898
 30
0.0
  0
VERTEX
  5
203
330
1F6
100
AcDbEntity
  8
0
370
     0
100
AcDbVertex
100
AcDb2dVertex
 10
304.422455
 20
109.764412
 30
0.0
  0
VERTEX
  5
204
330
1F6
100
AcDbEntity
  8
0
370
     0
100
AcDbVertex
100
AcDb2dVertex
 10
303.963531
 20
109.895531
 30
0.0
  0
VERTEX
  5
205
330
1F6
100
AcDbEntity
  8
0
370
     0
100
AcDbVertex
100
AcDb2dVertex
 10
303.57016
 20
109.991356
 30
0.0
  0
VERTEX
  5
206
330
1F6
100
AcDbEntity
  8
0
370
     0
100
AcDbVertex
100
AcDb2dVertex
 10
303.312958
 20
110.102303
 30
0.0
  0
VERTEX
  5
207
330
1F6
100
AcDbEntity
  8
0
370
     0
100
AcDbVertex
100
AcDb2dVertex
 10
303.166687
 20
110.263687
 30
0.0
  0
VERTEX
  5
208
330
1F6
100
AcDbEntity
  8
0
370
     0
100
AcDbVertex
100
AcDb2dVertex
 10
303.121307
 20
110.515854
 30
0.0
  0
VERTEX
  5
209
330
1F6
100
AcDbEntity
  8
0
370
     0
100
AcDbVertex
100
AcDb2dVertex
 10
303.166687
 20
110.742798
 30
0.0
  0
VERTEX
  5
20A
330
1F6
100
AcDbEntity
  8
0
370
     0
100
AcDbVertex
100
AcDb2dVertex
 10
303.297821
 20
110.914268
 30
0.0
  0
VERTEX
  5
20B
330
1F6
100
AcDbEntity
  8
0
370
     0
100
AcDbVertex
100
AcDb2dVertex
 10
303.499542
 20
111.030258
 30
0.0
  0
VERTEX
  5
20C
330
1F6
100
AcDbEntity
  8
0
370
     0
100
AcDbVertex
100
AcDb2dVertex
 10
303.776917
 20
111.070602
 30
0.0
  0
VERTEX
  5
20D
330
1F6
100
AcDbEntity
  8
0
370
     0
100
AcDbVertex
100
AcDb2dVertex
 10
304.059357
 20
111.020172
 30
0.0
  0
VERTEX
  5
20E
330
1F6
100
AcDbEntity
  8
0
370
     0
100
AcDbVertex
100
AcDb2dVertex
 10
304.28125
 20
110.884003
 30
0.0
  0
VERTEX
  5
20F
330
1F6
100
AcDbEntity
  8
0
370
     0
100
AcDbVertex
100
AcDb2dVertex
 10
304.42749
 20
110.657059
 30
0.0
  0
VERTEX
  5
210
330
1F6
100
AcDbEntity
  8
0
370
     0
100
AcDbVertex
100
AcDb2dVertex
 10
304.498108
 20
110.349426
 30
0.0
  0
VERTEX
  5
211
330
1F6
100
AcDbEntity
  8
0
370
     0
100
AcDbVertex
100
AcDb2dVertex
 10
304.957031
 20
110.349426
 30
0.0
  0
VERTEX
  5
212
330
1F6
100
AcDbEntity
  8
0
370
     0
100
AcDbVertex
100
AcDb2dVertex
 10
304.957031
 20
110.359512
 30
0.0
  0
VERTEX
  5
213
330
1F6
100
AcDbEntity
  8
0
370
     0
100
AcDbVertex
100
AcDb2dVertex
 10
304.876343
 20
110.833572
 30
0.0
  0
VERTEX
  5
214
330
1F6
100
AcDbEntity
  8
0
370
     0
100
AcDbVertex
100
AcDb2dVertex
 10
304.639313
 20
111.1866
 30
0.0
  0
VERTEX
  5
215
330
1F6
100
AcDbEntity
  8
0
370
     0
100
AcDbVertex
100
AcDb2dVertex
 10
304.266113
 20
111.408501
 30
0.0
  0
VERTEX
  5
216
330
1F6
100
AcDbEntity
  8
0
370
     0
100
AcDbVertex
100
AcDb2dVertex
 10
303.76181
 20
111.484146
 30
0.0
  0
VERTEX
  5
217
330
1F6
100
AcDbEntity
  8
0
370
     0
100
AcDbVertex
100
AcDb2dVertex
 10
303.307922
 20
111.408501
 30
0.0
  0
VERTEX
  5
218
330
1F6
100
AcDbEntity
  8
0
370
     0
100
AcDbVertex
100
AcDb2dVertex
 10
302.954895
 20
111.196686
 30
0.0
  0
VERTEX
  5
219
330
1F6
100
AcDbEntity
  8
0
370
     0
100
AcDbVertex
100
AcDb2dVertex
 10
302.727936
 20
110.868874
 30
0.0
  0
VERTEX
  5
21A
330
1F6
100
AcDbEntity
  8
0
370
     0
100
AcDbVertex
100
AcDb2dVertex
 10
302.647247
 20
110.445244
 30
0.0
  0
VERTEX
  5
21B
330
1F6
100
AcDbEntity
  8
0
370
     0
100
AcDbVertex
100
AcDb2dVertex
 10
302.712799
 20
110.067001
 30
0.0
  0
VERTEX
  5
21C
330
1F6
100
AcDbEntity
  8
0
370
     0
100
AcDbVertex
100
AcDb2dVertex
 10
302.904449
 20
109.809799
 30
0.0
  0
VERTEX
  5
21D
330
1F6
100
AcDbEntity
  8
0
370
     0
100
AcDbVertex
100
AcDb2dVertex
 10
303.207031
 20
109.638329
 30
0.0
  0
VERTEX
  5
21E
330
1F6
100
AcDbEntity
  8
0
370
     0
100
AcDbVertex
100
AcDb2dVertex
 10
303.620605
 20
109.507202
 30
0.0
  0
VERTEX
  5
21F
330
1F6
100
AcDbEntity
  8
0
370
     0
100
AcDbVertex
100
AcDb2dVertex
 10
304.029083
 20
109.391212
 30
0.0
  0
VERTEX
  5
220
330
1F6
100
AcDbEntity
  8
0
370
     0
100
AcDbVertex
100
AcDb2dVertex
 10
304.336731
 20
109.280258
 30
0.0
  0
VERTEX
  5
221
330
1F6
100
AcDbEntity
  8
0
370
     0
100
AcDbVertex
100
AcDb2dVertex
 10
304.523315
 20
109.118874
 30
0.0
  0
VERTEX
  5
222
330
1F6
100
AcDbEntity
  8
0
370
     0
100
AcDbVertex
100
AcDb2dVertex
 10
304.588898
 20
108.856628
 30
0.0
  0
VERTEX
  5
223
330
1F6
100
AcDbEntity
  8
0
370
     0
100
AcDbVertex
100
AcDb2dVertex
 10
304.528381
 20
108.58934
 30
0.0
  0
VERTEX
  5
224
330
1F6
100
AcDbEntity
  8
0
370
     0
100
AcDbVertex
100
AcDb2dVertex
 10
304.37204
 20
108.387611
 30
0.0
  0
VERTEX
  5
225
330
1F6
100
AcDbEntity
  8
0
370
     0
100
AcDbVertex
100
AcDb2dVertex
 10
304.13501
 20
108.261528
 30
0.0
  0
VERTEX
  5
226
330
1F6
100
AcDbEntity
  8
0
370
     0
100
AcDbVertex
100
AcDb2dVertex
 10
303.827362
 20
108.221184
 30
0.0
  0
VERTEX
  5
227
330
1F6
100
AcDbEntity
  8
0
370
     0
100
AcDbVertex
100
AcDb2dVertex
 10
303.484436
 20
108.276657
 30
0.0
  0
VERTEX
  5
228
330
1F6
100
AcDbEntity
  8
0
370
     0
100
AcDbVertex
100
AcDb2dVertex
 10
303.222168
 20
108.438042
 30
0.0
  0
VERTEX
  5
229
330
1F6
100
AcDbEntity
  8
0
370
     0
100
AcDbVertex
100
AcDb2dVertex
 10
303.055756
 20
108.700287
 30
0.0
  0
SEQEND
  5
22A
330
1F6
100
AcDbEntity
  8
0
 62
     7
370
    13
  0
POLYLINE
  5
22B
330
1F
100
AcDbEntity
  8
0
 62
     7
370
    13
100
AcDb2dPolyline
 66
     1
 10
0.0
 20
0.0
 30
0.0
 70
     1
  0
VERTEX
  5
22C
330
22B
100
AcDbEntity
  8
0
370
     0
100
AcDbVertex
100
AcDb2dVertex
 10
254.161667
 20
101.846542
 30
0.0
  0
VERTEX
  5
22D
330
22B
100
AcDbEntity
  8
0
370
     0
100
AcDbVertex
100
AcDb2dVertex
 10
256.380676
 20
101.846542
 30
0.0
  0
VERTEX
  5
22E
330
22B
100
AcDbEntity
  8
0
370
     0
100
AcDbVertex
100
AcDb2dVertex
 10
256.380676
 20
102.270172
 30
0.0
  0
VERTEX
  5
22F
330
22B
100
AcDbEntity
  8
0
370
     0
100
AcDbVertex
100
AcDb2dVertex
 10
254.625641
 20
102.270172
 30
0.0
  0
VERTEX
  5
230
330
22B
100
AcDbEntity
  8
0
370
     0
100
AcDbVertex
100
AcDb2dVertex
 10
254.625641
 20
103.45533
 30
0.0
  0
VERTEX
  5
231
330
22B
100
AcDbEntity
  8
0
370
     0
100
AcDbVertex
100
AcDb2dVertex
 10
256.189026
 20
103.45533
 30
0.0
  0
VERTEX
  5
232
330
22B
100
AcDbEntity
  8
0
370
     0
100
AcDbVertex
100
AcDb2dVertex
 10
256.189026
 20
103.873917
 30
0.0
  0
VERTEX
  5
233
330
22B
100
AcDbEntity
  8
0
370
     0
100
AcDbVertex
100
AcDb2dVertex
 10
254.625641
 20
103.873917
 30
0.0
  0
VERTEX
  5
234
330
22B
100
AcDbEntity
  8
0
370
     0
100
AcDbVertex
100
AcDb2dVertex
 10
254.625641
 20
104.922913
 30
0.0
  0
VERTEX
  5
235
330
22B
100
AcDbEntity
  8
0
370
     0
100
AcDbVertex
100
AcDb2dVertex
 10
256.340332
 20
104.922913
 30
0.0
  0
VERTEX
  5
236
330
22B
100
AcDbEntity
  8
0
370
     0
100
AcDbVertex
100
AcDb2dVertex
 10
256.340332
 20
105.346542
 30
0.0
  0
VERTEX
  5
237
330
22B
100
AcDbEntity
  8
0
370
     0
100
AcDbVertex
100
AcDb2dVertex
 10
254.161667
 20
105.346542
 30
0.0
  0
SEQEND
  5
238
330
22B
100
AcDbEntity
  8
0
 62
     7
370
    13
  0
POLYLINE
  5
239
330
1F
100
AcDbEntity
  8
0
 62
     7
370
    13
100
AcDb2dPolyline
 66
     1
 10
0.0
 20
0.0
 30
0.0
 70
     1
  0
VERTEX
  5
23A
330
239
100
AcDbEntity
  8
0
370
     0
100
AcDbVertex
100
AcDb2dVertex
 10
257.45993
 20
103.001442
 30
0.0
  0
VERTEX
  5
23B
330
239
100
AcDbEntity
  8
0
370
     0
100
AcDbVertex
100
AcDb2dVertex
 10
257.001007
 20
103.001442
 30
0.0
  0
VERTEX
  5
23C
330
239
100
AcDbEntity
  8
0
370
     0
100
AcDbVertex
100
AcDb2dVertex
 10
257.101868
 20
102.466858
 30
0.0
  0
VERTEX
  5
23D
330
239
100
AcDbEntity
  8
0
370
     0
100
AcDbVertex
100
AcDb2dVertex
 10
257.354034
 20
102.073486
 30
0.0
  0
VERTEX
  5
23E
330
239
100
AcDbEntity
  8
0
370
     0
100
AcDbVertex
100
AcDb2dVertex
 10
257.74234
 20
101.836456
 30
0.0
  0
VERTEX
  5
23F
330
239
100
AcDbEntity
  8
0
370
     0
100
AcDbVertex
100
AcDb2dVertex
 10
258.266846
 20
101.750725
 30
0.0
  0
VERTEX
  5
240
330
239
100
AcDbEntity
  8
0
370
     0
100
AcDbVertex
100
AcDb2dVertex
 10
258.786316
 20
101.831413
 30
0.0
  0
VERTEX
  5
241
330
239
100
AcDbEntity
  8
0
370
     0
100
AcDbVertex
100
AcDb2dVertex
 10
259.174622
 20
102.053314
 30
0.0
  0
VERTEX
  5
242
330
239
100
AcDbEntity
  8
0
370
     0
100
AcDbVertex
100
AcDb2dVertex
 10
259.421753
 20
102.401299
 30
0.0
  0
VERTEX
  5
243
330
239
100
AcDbEntity
  8
0
370
     0
100
AcDbVertex
100
AcDb2dVertex
 10
259.512512
 20
102.860229
 30
0.0
  0
VERTEX
  5
244
330
239
100
AcDbEntity
  8
0
370
     0
100
AcDbVertex
100
AcDb2dVertex
 10
259.43689
 20
103.273773
 30
0.0
  0
VERTEX
  5
245
330
239
100
AcDbEntity
  8
0
370
     0
100
AcDbVertex
100
AcDb2dVertex
 10
259.225067
 20
103.541069
 30
0.0
  0
VERTEX
  5
246
330
239
100
AcDbEntity
  8
0
370
     0
100
AcDbVertex
100
AcDb2dVertex
 10
258.882111
 20
103.717583
 30
0.0
  0
VERTEX
  5
247
330
239
100
AcDbEntity
  8
0
370
     0
100
AcDbVertex
100
AcDb2dVertex
 10
258.423187
 20
103.848701
 30
0.0
  0
VERTEX
  5
248
330
239
100
AcDbEntity
  8
0
370
     0
100
AcDbVertex
100
AcDb2dVertex
 10
258.029816
 20
103.944527
 30
0.0
  0
VERTEX
  5
249
330
239
100
AcDbEntity
  8
0
370
     0
100
AcDbVertex
100
AcDb2dVertex
 10
257.772614
 20
104.055473
 30
0.0
  0
VERTEX
  5
24A
330
239
100
AcDbEntity
  8
0
370
     0
100
AcDbVertex
100
AcDb2dVertex
 10
257.626373
 20
104.216858
 30
0.0
  0
VERTEX
  5
24B
330
239
100
AcDbEntity
  8
0
370
     0
100
AcDbVertex
100
AcDb2dVertex
 10
257.580963
 20
104.469025
 30
0.0
  0
VERTEX
  5
24C
330
239
100
AcDbEntity
  8
0
370
     0
100
AcDbVertex
100
AcDb2dVertex
 10
257.626373
 20
104.695969
 30
0.0
  0
VERTEX
  5
24D
330
239
100
AcDbEntity
  8
0
370
     0
100
AcDbVertex
100
AcDb2dVertex
 10
257.757477
 20
104.867439
 30
0.0
  0
VERTEX
  5
24E
330
239
100
AcDbEntity
  8
0
370
     0
100
AcDbVertex
100
AcDb2dVertex
 10
257.959198
 20
104.983429
 30
0.0
  0
VERTEX
  5
24F
330
239
100
AcDbEntity
  8
0
370
     0
100
AcDbVertex
100
AcDb2dVertex
 10
258.236603
 20
105.023773
 30
0.0
  0
VERTEX
  5
250
330
239
100
AcDbEntity
  8
0
370
     0
100
AcDbVertex
100
AcDb2dVertex
 10
258.519012
 20
104.973343
 30
0.0
  0
VERTEX
  5
251
330
239
100
AcDbEntity
  8
0
370
     0
100
AcDbVertex
100
AcDb2dVertex
 10
258.740906
 20
104.837173
 30
0.0
  0
VERTEX
  5
252
330
239
100
AcDbEntity
  8
0
370
     0
100
AcDbVertex
100
AcDb2dVertex
 10
258.887177
 20
104.610229
 30
0.0
  0
VERTEX
  5
253
330
239
100
AcDbEntity
  8
0
370
     0
100
AcDbVertex
100
AcDb2dVertex
 10
258.957764
 20
104.302597
 30
0.0
  0
VERTEX
  5
254
330
239
100
AcDbEntity
  8
0
370
     0
100
AcDbVertex
100
AcDb2dVertex
 10
259.416718
 20
104.302597
 30
0.0
  0
VERTEX
  5
255
330
239
100
AcDbEntity
  8
0
370
     0
100
AcDbVertex
100
AcDb2dVertex
 10
259.416718
 20
104.312683
 30
0.0
  0
VERTEX
  5
256
330
239
100
AcDbEntity
  8
0
370
     0
100
AcDbVertex
100
AcDb2dVertex
 10
259.335999
 20
104.786743
 30
0.0
  0
VERTEX
  5
257
330
239
100
AcDbEntity
  8
0
370
     0
100
AcDbVertex
100
AcDb2dVertex
 10
259.098969
 20
105.139771
 30
0.0
  0
VERTEX
  5
258
330
239
100
AcDbEntity
  8
0
370
     0
100
AcDbVertex
100
AcDb2dVertex
 10
258.725769
 20
105.361671
 30
0.0
  0
VERTEX
  5
259
330
239
100
AcDbEntity
  8
0
370
     0
100
AcDbVertex
100
AcDb2dVertex
 10
258.221466
 20
105.437317
 30
0.0
  0
VERTEX
  5
25A
330
239
100
AcDbEntity
  8
0
370
     0
100
AcDbVertex
100
AcDb2dVertex
 10
257.767578
 20
105.361671
 30
0.0
  0
VERTEX
  5
25B
330
239
100
AcDbEntity
  8
0
370
     0
100
AcDbVertex
100
AcDb2dVertex
 10
257.414551
 20
105.149857
 30
0.0
  0
VERTEX
  5
25C
330
239
100
AcDbEntity
  8
0
370
     0
100
AcDbVertex
100
AcDb2dVertex
 10
257.187592
 20
104.822044
 30
0.0
  0
VERTEX
  5
25D
330
239
100
AcDbEntity
  8
0
370
     0
100
AcDbVertex
100
AcDb2dVertex
 10
257.106903
 20
104.398415
 30
0.0
  0
VERTEX
  5
25E
330
239
100
AcDbEntity
  8
0
370
     0
100
AcDbVertex
100
AcDb2dVertex
 10
257.172455
 20
104.020172
 30
0.0
  0
VERTEX
  5
25F
330
239
100
AcDbEntity
  8
0
370
     0
100
AcDbVertex
100
AcDb2dVertex
 10
257.364105
 20
103.76297
 30
0.0
  0
VERTEX
  5
260
330
239
100
AcDbEntity
  8
0
370
     0
100
AcDbVertex
100
AcDb2dVertex
 10
257.666718
 20
103.591499
 30
0.0
  0
VERTEX
  5
261
330
239
100
AcDbEntity
  8
0
370
     0
100
AcDbVertex
100
AcDb2dVertex
 10
258.080261
 20
103.460373
 30
0.0
  0
VERTEX
  5
262
330
239
100
AcDbEntity
  8
0
370
     0
100
AcDbVertex
100
AcDb2dVertex
 10
258.488739
 20
103.344383
 30
0.0
  0
VERTEX
  5
263
330
239
100
AcDbEntity
  8
0
370
     0
100
AcDbVertex
100
AcDb2dVertex
 10
258.796387
 20
103.233429
 30
0.0
  0
VERTEX
  5
264
330
239
100
AcDbEntity
  8
0
370
     0
100
AcDbVertex
100
AcDb2dVertex
 10
258.983002
 20
103.072044
 30
0.0
  0
VERTEX
  5
265
330
239
100
AcDbEntity
  8
0
370
     0
100
AcDbVertex
100
AcDb2dVertex
 10
259.048553
 20
102.809799
 30
0.0
  0
VERTEX
  5
266
330
239
100
AcDbEntity
  8
0
370
     0
100
AcDbVertex
100
AcDb2dVertex
 10
258.988037
 20
102.542511
 30
0.0
  0
VERTEX
  5
267
330
239
100
AcDbEntity
  8
0
370
     0
100
AcDbVertex
100
AcDb2dVertex
 10
258.831696
 20
102.340782
 30
0.0
  0
VERTEX
  5
268
330
239
100
AcDbEntity
  8
0
370
     0
100
AcDbVertex
100
AcDb2dVertex
 10
258.594666
 20
102.214699
 30
0.0
  0
VERTEX
  5
269
330
239
100
AcDbEntity
  8
0
370
     0
100
AcDbVertex
100
AcDb2dVertex
 10
258.287018
 20
102.174355
 30
0.0
  0
VERTEX
  5
26A
330
239
100
AcDbEntity
  8
0
370
     0
100
AcDbVertex
100
AcDb2dVertex
 10
257.944092
 20
102.229828
 30
0.0
  0
VERTEX
  5
26B
330
239
100
AcDbEntity
  8
0
370
     0
100
AcDbVertex
100
AcDb2dVertex
 10
257.681824
 20
102.391212
 30
0.0
  0
VERTEX
  5
26C
330
239
100
AcDbEntity
  8
0
370
     0
100
AcDbVertex
100
AcDb2dVertex
 10
257.515411
 20
102.653458
 30
0.0
  0
SEQEND
  5
26D
330
239
100
AcDbEntity
  8
0
 62
     7
370
    13
  0
POLYLINE
  5
26E
330
1F
100
AcDbEntity
  8
0
 62
     7
370
    13
100
AcDb2dPolyline
 66
     1
 10
0.0
 20
0.0
 30
0.0
 70
     1
  0
VERTEX
  5
26F
330
26E
100
AcDbEntity
  8
0
370
     0
100
AcDbVertex
100
AcDb2dVertex
 10
260.228668
 20
101.846542
 30
0.0
  0
VERTEX
  5
270
330
26E
100
AcDbEntity
  8
0
370
     0
100
AcDbVertex
100
AcDb2dVertex
 10
260.692627
 20
101.846542
 30
0.0
  0
VERTEX
  5
271
330
26E
100
AcDbEntity
  8
0
370
     0
100
AcDbVertex
100
AcDb2dVertex
 10
260.692627
 20
103.324211
 30
0.0
  0
VERTEX
  5
272
330
26E
100
AcDbEntity
  8
0
370
     0
100
AcDbVertex
100
AcDb2dVertex
 10
261.207062
 20
103.324211
 30
0.0
  0
VERTEX
  5
273
330
26E
100
AcDbEntity
  8
0
370
     0
100
AcDbVertex
100
AcDb2dVertex
 10
261.726501
 20
103.349426
 30
0.0
  0
VERTEX
  5
274
330
26E
100
AcDbEntity
  8
0
370
     0
100
AcDbVertex
100
AcDb2dVertex
 10
262.140045
 20
103.52594
 30
0.0
  0
VERTEX
  5
275
330
26E
100
AcDbEntity
  8
0
370
     0
100
AcDbVertex
100
AcDb2dVertex
 10
262.407349
 20
103.868874
 30
0.0
  0
VERTEX
  5
276
330
26E
100
AcDbEntity
  8
0
370
     0
100
AcDbVertex
100
AcDb2dVertex
 10
262.498108
 20
104.337898
 30
0.0
  0
VERTEX
  5
277
330
26E
100
AcDbEntity
  8
0
370
     0
100
AcDbVertex
100
AcDb2dVertex
 10
262.427521
 20
104.771614
 30
0.0
  0
VERTEX
  5
278
330
26E
100
AcDbEntity
  8
0
370
     0
100
AcDbVertex
100
AcDb2dVertex
 10
262.225769
 20
105.08934
 30
0.0
  0
VERTEX
  5
279
330
26E
100
AcDbEntity
  8
0
370
     0
100
AcDbVertex
100
AcDb2dVertex
 10
261.892944
 20
105.280983
 30
0.0
  0
VERTEX
  5
27A
330
26E
100
AcDbEntity
  8
0
370
     0
100
AcDbVertex
100
AcDb2dVertex
 10
261.439026
 20
105.346542
 30
0.0
  0
VERTEX
  5
27B
330
26E
100
AcDbEntity
  8
0
370
     0
100
AcDbVertex
100
AcDb2dVertex
 10
260.228668
 20
105.346542
 30
0.0
  0
SEQEND
  5
27C
330
26E
100
AcDbEntity
  8
0
 62
     7
370
    13
  0
POLYLINE
  5
27D
330
1F
100
AcDbEntity
  8
0
 62
     7
370
    13
100
AcDb2dPolyline
 66
     1
 10
0.0
 20
0.0
 30
0.0
 70
     1
  0
VERTEX
  5
27E
330
27D
100
AcDbEntity
  8
0
370
     0
100
AcDbVertex
100
AcDb2dVertex
 10
261.312958
 20
104.91787
 30
0.0
  0
VERTEX
  5
27F
330
27D
100
AcDbEntity
  8
0
370
     0
100
AcDbVertex
100
AcDb2dVertex
 10
261.61554
 20
104.887611
 30
0.0
  0
VERTEX
  5
280
330
27D
100
AcDbEntity
  8
0
370
     0
100
AcDbVertex
100
AcDb2dVertex
 10
261.837463
 20
104.791786
 30
0.0
  0
VERTEX
  5
281
330
27D
100
AcDbEntity
  8
0
370
     0
100
AcDbVertex
100
AcDb2dVertex
 10
261.968567
 20
104.615273
 30
0.0
  0
VERTEX
  5
282
330
27D
100
AcDbEntity
  8
0
370
     0
100
AcDbVertex
100
AcDb2dVertex
 10
262.013977
 20
104.337898
 30
0.0
  0
VERTEX
  5
283
330
27D
100
AcDbEntity
  8
0
370
     0
100
AcDbVertex
100
AcDb2dVertex
 10
261.963531
 20
104.045387
 30
0.0
  0
VERTEX
  5
284
330
27D
100
AcDbEntity
  8
0
370
     0
100
AcDbVertex
100
AcDb2dVertex
 10
261.827362
 20
103.868874
 30
0.0
  0
VERTEX
  5
285
330
27D
100
AcDbEntity
  8
0
370
     0
100
AcDbVertex
100
AcDb2dVertex
 10
261.595367
 20
103.778099
 30
0.0
  0
VERTEX
  5
286
330
27D
100
AcDbEntity
  8
0
370
     0
100
AcDbVertex
100
AcDb2dVertex
 10
261.277649
 20
103.752884
 30
0.0
  0
VERTEX
  5
287
330
27D
100
AcDbEntity
  8
0
370
     0
100
AcDbVertex
100
AcDb2dVertex
 10
260.692627
 20
103.752884
 30
0.0
  0
VERTEX
  5
288
330
27D
100
AcDbEntity
  8
0
370
     0
100
AcDbVertex
100
AcDb2dVertex
 10
260.692627
 20
104.91787
 30
0.0
  0
SEQEND
  5
289
330
27D
100
AcDbEntity
  8
0
 62
     7
370
    13
  0
POLYLINE
  5
28A
330
1F
100
AcDbEntity
  8
0
 62
     7
370
    13
100
AcDb2dPolyline
 66
     1
 10
0.0
 20
0.0
 30
0.0
 70
     1
  0
VERTEX
  5
28B
330
28A
100
AcDbEntity
  8
0
370
     0
100
AcDbVertex
100
AcDb2dVertex
 10
263.269745
 20
101.846542
 30
0.0
  0
VERTEX
  5
28C
330
28A
100
AcDbEntity
  8
0
370
     0
100
AcDbVertex
100
AcDb2dVertex
 10
265.488739
 20
101.846542
 30
0.0
  0
VERTEX
  5
28D
330
28A
100
AcDbEntity
  8
0
370
     0
100
AcDbVertex
100
AcDb2dVertex
 10
265.488739
 20
102.270172
 30
0.0
  0
VERTEX
  5
28E
330
28A
100
AcDbEntity
  8
0
370
     0
100
AcDbVertex
100
AcDb2dVertex
 10
263.733704
 20
102.270172
 30
0.0
  0
VERTEX
  5
28F
330
28A
100
AcDbEntity
  8
0
370
     0
100
AcDbVertex
100
AcDb2dVertex
 10
263.733704
 20
103.45533
 30
0.0
  0
VERTEX
  5
290
330
28A
100
AcDbEntity
  8
0
370
     0
100
AcDbVertex
100
AcDb2dVertex
 10
265.297119
 20
103.45533
 30
0.0
  0
VERTEX
  5
291
330
28A
100
AcDbEntity
  8
0
370
     0
100
AcDbVertex
100
AcDb2dVertex
 10
265.297119
 20
103.873917
 30
0.0
  0
VERTEX
  5
292
330
28A
100
AcDbEntity
  8
0
370
     0
100
AcDbVertex
100
AcDb2dVertex
 10
263.733704
 20
103.873917
 30
0.0
  0
VERTEX
  5
293
330
28A
100
AcDbEntity
  8
0
370
     0
100
AcDbVertex
100
AcDb2dVertex
 10
263.733704
 20
104.922913
 30
0.0
  0
VERTEX
  5
294
330
28A
100
AcDbEntity
  8
0
370
     0
100
AcDbVertex
100
AcDb2dVertex
 10
265.448395
 20
104.922913
 30
0.0
  0
VERTEX
  5
295
330
28A
100
AcDbEntity
  8
0
370
     0
100
AcDbVertex
100
AcDb2dVertex
 10
265.448395
 20
105.346542
 30
0.0
  0
VERTEX
  5
296
330
28A
100
AcDbEntity
  8
0
370
     0
100
AcDbVertex
100
AcDb2dVertex
 10
263.269745
 20
105.346542
 30
0.0
  0
SEQEND
  5
297
330
28A
100
AcDbEntity
  8
0
 62
     7
370
    13
  0
POLYLINE
  5
298
330
1F
100
AcDbEntity
  8
0
 62
     7
370
    13
100
AcDb2dPolyline
 66
     1
 10
0.0
 20
0.0
 30
0.0
 70
     1
  0
VERTEX
  5
299
330
298
100
AcDbEntity
  8
0
370
     0
100
AcDbVertex
100
AcDb2dVertex
 10
266.567993
 20
103.001442
 30
0.0
  0
VERTEX
  5
29A
330
298
100
AcDbEntity
  8
0
370
     0
100
AcDbVertex
100
AcDb2dVertex
 10
266.10907
 20
103.001442
 30
0.0
  0
VERTEX
  5
29B
330
298
100
AcDbEntity
  8
0
370
     0
100
AcDbVertex
100
AcDb2dVertex
 10
266.20993
 20
102.466858
 30
0.0
  0
VERTEX
  5
29C
330
298
100
AcDbEntity
  8
0
370
     0
100
AcDbVertex
100
AcDb2dVertex
 10
266.462097
 20
102.073486
 30
0.0
  0
VERTEX
  5
29D
330
298
100
AcDbEntity
  8
0
370
     0
100
AcDbVertex
100
AcDb2dVertex
 10
266.850433
 20
101.836456
 30
0.0
  0
VERTEX
  5
29E
330
298
100
AcDbEntity
  8
0
370
     0
100
AcDbVertex
100
AcDb2dVertex
 10
267.374908
 20
101.750725
 30
0.0
  0
VERTEX
  5
29F
330
298
100
AcDbEntity
  8
0
370
     0
100
AcDbVertex
100
AcDb2dVertex
 10
267.894379
 20
101.831413
 30
0.0
  0
VERTEX
  5
2A0
330
298
100
AcDbEntity
  8
0
370
     0
100
AcDbVertex
100
AcDb2dVertex
 10
268.282715
 20
102.053314
 30
0.0
  0
VERTEX
  5
2A1
330
298
100
AcDbEntity
  8
0
370
     0
100
AcDbVertex
100
AcDb2dVertex
 10
268.529816
 20
102.401299
 30
0.0
  0
VERTEX
  5
2A2
330
298
100
AcDbEntity
  8
0
370
     0
100
AcDbVertex
100
AcDb2dVertex
 10
268.620605
 20
102.860229
 30
0.0
  0
VERTEX
  5
2A3
330
298
100
AcDbEntity
  8
0
370
     0
100
AcDbVertex
100
AcDb2dVertex
 10
268.544952
 20
103.273773
 30
0.0
  0
VERTEX
  5
2A4
330
298
100
AcDbEntity
  8
0
370
     0
100
AcDbVertex
100
AcDb2dVertex
 10
268.33313
 20
103.541069
 30
0.0
  0
VERTEX
  5
2A5
330
298
100
AcDbEntity
  8
0
370
     0
100
AcDbVertex
100
AcDb2dVertex
 10
267.990204
 20
103.717583
 30
0.0
  0
VERTEX
  5
2A6
330
298
100
AcDbEntity
  8
0
370
     0
100
AcDbVertex
100
AcDb2dVertex
 10
267.53125
 20
103.848701
 30
0.0
  0
VERTEX
  5
2A7
330
298
100
AcDbEntity
  8
0
370
     0
100
AcDbVertex
100
AcDb2dVertex
 10
267.137878
 20
103.944527
 30
0.0
  0
VERTEX
  5
2A8
330
298
100
AcDbEntity
  8
0
370
     0
100
AcDbVertex
100
AcDb2dVertex
 10
266.880676
 20
104.055473
 30
0.0
  0
VERTEX
  5
2A9
330
298
100
AcDbEntity
  8
0
370
     0
100
AcDbVertex
100
AcDb2dVertex
 10
266.734436
 20
104.216858
 30
0.0
  0
VERTEX
  5
2AA
330
298
100
AcDbEntity
  8
0
370
     0
100
AcDbVertex
100
AcDb2dVertex
 10
266.689026
 20
104.469025
 30
0.0
  0
VERTEX
  5
2AB
330
298
100
AcDbEntity
  8
0
370
     0
100
AcDbVertex
100
AcDb2dVertex
 10
266.734436
 20
104.695969
 30
0.0
  0
VERTEX
  5
2AC
330
298
100
AcDbEntity
  8
0
370
     0
100
AcDbVertex
100
AcDb2dVertex
 10
266.86554
 20
104.867439
 30
0.0
  0
VERTEX
  5
2AD
330
298
100
AcDbEntity
  8
0
370
     0
100
AcDbVertex
100
AcDb2dVertex
 10
267.067291
 20
104.983429
 30
0.0
  0
VERTEX
  5
2AE
330
298
100
AcDbEntity
  8
0
370
     0
100
AcDbVertex
100
AcDb2dVertex
 10
267.344666
 20
105.023773
 30
0.0
  0
VERTEX
  5
2AF
330
298
100
AcDbEntity
  8
0
370
     0
100
AcDbVertex
100
AcDb2dVertex
 10
267.627075
 20
104.973343
 30
0.0
  0
VERTEX
  5
2B0
330
298
100
AcDbEntity
  8
0
370
     0
100
AcDbVertex
100
AcDb2dVertex
 10
267.848969
 20
104.837173
 30
0.0
  0
VERTEX
  5
2B1
330
298
100
AcDbEntity
  8
0
370
     0
100
AcDbVertex
100
AcDb2dVertex
 10
267.995239
 20
104.610229
 30
0.0
  0
VERTEX
  5
2B2
330
298
100
AcDbEntity
  8
0
370
     0
100
AcDbVertex
100
AcDb2dVertex
 10
268.065826
 20
104.302597
 30
0.0
  0
VERTEX
  5
2B3
330
298
100
AcDbEntity
  8
0
370
     0
100
AcDbVertex
100
AcDb2dVertex
 10
268.52478
 20
104.302597
 30
0.0
  0
VERTEX
  5
2B4
330
298
100
AcDbEntity
  8
0
370
     0
100
AcDbVertex
100
AcDb2dVertex
 10
268.52478
 20
104.312683
 30
0.0
  0
VERTEX
  5
2B5
330
298
100
AcDbEntity
  8
0
370
     0
100
AcDbVertex
100
AcDb2dVertex
 10
268.444092
 20
104.786743
 30
0.0
  0
VERTEX
  5
2B6
330
298
100
AcDbEntity
  8
0
370
     0
100
AcDbVertex
100
AcDb2dVertex
 10
268.207062
 20
105.139771
 30
0.0
  0
VERTEX
  5
2B7
330
298
100
AcDbEntity
  8
0
370
     0
100
AcDbVertex
100
AcDb2dVertex
 10
267.833862
 20
105.361671
 30
0.0
  0
VERTEX
  5
2B8
330
298
100
AcDbEntity
  8
0
370
     0
100
AcDbVertex
100
AcDb2dVertex
 10
267.329529
 20
105.437317
 30
0.0
  0
VERTEX
  5
2B9
330
298
100
AcDbEntity
  8
0
370
     0
100
AcDbVertex
100
AcDb2dVertex
 10
266.875641
 20
105.361671
 30
0.0
  0
VERTEX
  5
2BA
330
298
100
AcDbEntity
  8
0
370
     0
100
AcDbVertex
100
AcDb2dVertex
 10
266.522614
 20
105.149857
 30
0.0
  0
VERTEX
  5
2BB
330
298
100
AcDbEntity
  8
0
370
     0
100
AcDbVertex
100
AcDb2dVertex
 10
266.295654
 20
104.822044
 30
0.0
  0
VERTEX
  5
2BC
330
298
100
AcDbEntity
  8
0
370
     0
100
AcDbVertex
100
AcDb2dVertex
 10
266.214966
 20
104.398415
 30
0.0
  0
VERTEX
  5
2BD
330
298
100
AcDbEntity
  8
0
370
     0
100
AcDbVertex
100
AcDb2dVertex
 10
266.280548
 20
104.020172
 30
0.0
  0
VERTEX
  5
2BE
330
298
100
AcDbEntity
  8
0
370
     0
100
AcDbVertex
100
AcDb2dVertex
 10
266.472168
 20
103.76297
 30
0.0
  0
VERTEX
  5
2BF
330
298
100
AcDbEntity
  8
0
370
     0
100
AcDbVertex
100
AcDb2dVertex
 10
266.77478
 20
103.591499
 30
0.0
  0
VERTEX
  5
2C0
330
298
100
AcDbEntity
  8
0
370
     0
100
AcDbVertex
100
AcDb2dVertex
 10
267.188324
 20
103.460373
 30
0.0
  0
VERTEX
  5
2C1
330
298
100
AcDbEntity
  8
0
370
     0
100
AcDbVertex
100
AcDb2dVertex
 10
267.596832
 20
103.344383
 30
0.0
  0
VERTEX
  5
2C2
330
298
100
AcDbEntity
  8
0
370
     0
100
AcDbVertex
100
AcDb2dVertex
 10
267.904449
 20
103.233429
 30
0.0
  0
VERTEX
  5
2C3
330
298
100
AcDbEntity
  8
0
370
     0
100
AcDbVertex
100
AcDb2dVertex
 10
268.091064
 20
103.072044
 30
0.0
  0
VERTEX
  5
2C4
330
298
100
AcDbEntity
  8
0
370
     0
100
AcDbVertex
100
AcDb2dVertex
 10
268.156616
 20
102.809799
 30
0.0
  0
VERTEX
  5
2C5
330
298
100
AcDbEntity
  8
0
370
     0
100
AcDbVertex
100
AcDb2dVertex
 10
268.0961
 20
102.542511
 30
0.0
  0
VERTEX
  5
2C6
330
298
100
AcDbEntity
  8
0
370
     0
100
AcDbVertex
100
AcDb2dVertex
 10
267.939758
 20
102.340782
 30
0.0
  0
VERTEX
  5
2C7
330
298
100
AcDbEntity
  8
0
370
     0
100
AcDbVertex
100
AcDb2dVertex
 10
267.702728
 20
102.214699
 30
0.0
  0
VERTEX
  5
2C8
330
298
100
AcDbEntity
  8
0
370
     0
100
AcDbVertex
100
AcDb2dVertex
 10
267.395081
 20
102.174355
 30
0.0
  0
VERTEX
  5
2C9
330
298
100
AcDbEntity
  8
0
370
     0
100
AcDbVertex
100
AcDb2dVertex
 10
267.052155
 20
102.229828
 30
0.0
  0
VERTEX
  5
2CA
330
298
100
AcDbEntity
  8
0
370
     0
100
AcDbVertex
100
AcDb2dVertex
 10
266.789917
 20
102.391212
 30
0.0
  0
VERTEX
  5
2CB
330
298
100
AcDbEntity
  8
0
370
     0
100
AcDbVertex
100
AcDb2dVertex
 10
266.623474
 20
102.653458
 30
0.0
  0
SEQEND
  5
2CC
330
298
100
AcDbEntity
  8
0
 62
     7
370
    13
  0
POLYLINE
  5
2CD
330
1F
100
AcDbEntity
  8
0
 62
     7
370
    13
100
AcDb2dPolyline
 66
     1
 10
0.0
 20
0.0
 30
0.0
 70
     1
  0
VERTEX
  5
2CE
330
2CD
100
AcDbEntity
  8
0
370
     0
100
AcDbVertex
100
AcDb2dVertex
 10
269.104736
 20
103.596542
 30
0.0
  0
VERTEX
  5
2CF
330
2CD
100
AcDbEntity
  8
0
370
     0
100
AcDbVertex
100
AcDb2dVertex
 10
269.195526
 20
102.809799
 30
0.0
  0
VERTEX
  5
2D0
330
2CD
100
AcDbEntity
  8
0
370
     0
100
AcDbVertex
100
AcDb2dVertex
 10
269.457764
 20
102.229828
 30
0.0
  0
VERTEX
  5
2D1
330
2CD
100
AcDbEntity
  8
0
370
     0
100
AcDbVertex
100
AcDb2dVertex
 10
269.866272
 20
101.871758
 30
0.0
  0
VERTEX
  5
2D2
330
2CD
100
AcDbEntity
  8
0
370
     0
100
AcDbVertex
100
AcDb2dVertex
 10
270.400848
 20
101.750725
 30
0.0
  0
VERTEX
  5
2D3
330
2CD
100
AcDbEntity
  8
0
370
     0
100
AcDbVertex
100
AcDb2dVertex
 10
270.930389
 20
101.871758
 30
0.0
  0
VERTEX
  5
2D4
330
2CD
100
AcDbEntity
  8
0
370
     0
100
AcDbVertex
100
AcDb2dVertex
 10
271.343933
 20
102.229828
 30
0.0
  0
VERTEX
  5
2D5
330
2CD
100
AcDbEntity
  8
0
370
     0
100
AcDbVertex
100
AcDb2dVertex
 10
271.601135
 20
102.809799
 30
0.0
  0
VERTEX
  5
2D6
330
2CD
100
AcDbEntity
  8
0
370
     0
100
AcDbVertex
100
AcDb2dVertex
 10
271.69696
 20
103.596542
 30
0.0
  0
VERTEX
  5
2D7
330
2CD
100
AcDbEntity
  8
0
370
     0
100
AcDbVertex
100
AcDb2dVertex
 10
271.601135
 20
104.378242
 30
0.0
  0
VERTEX
  5
2D8
330
2CD
100
AcDbEntity
  8
0
370
     0
100
AcDbVertex
100
AcDb2dVertex
 10
271.490204
 20
104.695969
 30
0.0
  0
VERTEX
  5
2D9
330
2CD
100
AcDbEntity
  8
0
370
     0
100
AcDbVertex
100
AcDb2dVertex
 10
271.343933
 20
104.958214
 30
0.0
  0
VERTEX
  5
2DA
330
2CD
100
AcDbEntity
  8
0
370
     0
100
AcDbVertex
100
AcDb2dVertex
 10
270.930389
 20
105.316284
 30
0.0
  0
VERTEX
  5
2DB
330
2CD
100
AcDbEntity
  8
0
370
     0
100
AcDbVertex
100
AcDb2dVertex
 10
270.678223
 20
105.407059
 30
0.0
  0
VERTEX
  5
2DC
330
2CD
100
AcDbEntity
  8
0
370
     0
100
AcDbVertex
100
AcDb2dVertex
 10
270.400848
 20
105.442368
 30
0.0
  0
VERTEX
  5
2DD
330
2CD
100
AcDbEntity
  8
0
370
     0
100
AcDbVertex
100
AcDb2dVertex
 10
269.861237
 20
105.316284
 30
0.0
  0
VERTEX
  5
2DE
330
2CD
100
AcDbEntity
  8
0
370
     0
100
AcDbVertex
100
AcDb2dVertex
 10
269.452728
 20
104.963257
 30
0.0
  0
VERTEX
  5
2DF
330
2CD
100
AcDbEntity
  8
0
370
     0
100
AcDbVertex
100
AcDb2dVertex
 10
269.195526
 20
104.383286
 30
0.0
  0
SEQEND
  5
2E0
330
2CD
100
AcDbEntity
  8
0
 62
     7
370
    13
  0
POLYLINE
  5
2E1
330
1F
100
AcDbEntity
  8
0
 62
     7
370
    13
100
AcDb2dPolyline
 66
     1
 10
0.0
 20
0.0
 30
0.0
 70
     1
  0
VERTEX
  5
2E2
330
2E1
100
AcDbEntity
  8
0
370
     0
100
AcDbVertex
100
AcDb2dVertex
 10
269.588898
 20
103.596542
 30
0.0
  0
VERTEX
  5
2E3
330
2E1
100
AcDbEntity
  8
0
370
     0
100
AcDbVertex
100
AcDb2dVertex
 10
269.644379
 20
104.206772
 30
0.0
  0
VERTEX
  5
2E4
330
2E1
100
AcDbEntity
  8
0
370
     0
100
AcDbVertex
100
AcDb2dVertex
 10
269.810791
 20
104.655617
 30
0.0
  0
VERTEX
  5
2E5
330
2E1
100
AcDbEntity
  8
0
370
     0
100
AcDbVertex
100
AcDb2dVertex
 10
270.067993
 20
104.927956
 30
0.0
  0
VERTEX
  5
2E6
330
2E1
100
AcDbEntity
  8
0
370
     0
100
AcDbVertex
100
AcDb2dVertex
 10
270.400848
 20
105.023773
 30
0.0
  0
VERTEX
  5
2E7
330
2E1
100
AcDbEntity
  8
0
370
     0
100
AcDbVertex
100
AcDb2dVertex
 10
270.728668
 20
104.927956
 30
0.0
  0
VERTEX
  5
2E8
330
2E1
100
AcDbEntity
  8
0
370
     0
100
AcDbVertex
100
AcDb2dVertex
 10
270.98587
 20
104.650574
 30
0.0
  0
VERTEX
  5
2E9
330
2E1
100
AcDbEntity
  8
0
370
     0
100
AcDbVertex
100
AcDb2dVertex
 10
271.152283
 20
104.201729
 30
0.0
  0
VERTEX
  5
2EA
330
2E1
100
AcDbEntity
  8
0
370
     0
100
AcDbVertex
100
AcDb2dVertex
 10
271.21283
 20
103.596542
 30
0.0
  0
VERTEX
  5
2EB
330
2E1
100
AcDbEntity
  8
0
370
     0
100
AcDbVertex
100
AcDb2dVertex
 10
271.152283
 20
102.986313
 30
0.0
  0
VERTEX
  5
2EC
330
2E1
100
AcDbEntity
  8
0
370
     0
100
AcDbVertex
100
AcDb2dVertex
 10
270.98587
 20
102.537468
 30
0.0
  0
VERTEX
  5
2ED
330
2E1
100
AcDbEntity
  8
0
370
     0
100
AcDbVertex
100
AcDb2dVertex
 10
270.728668
 20
102.265129
 30
0.0
  0
VERTEX
  5
2EE
330
2E1
100
AcDbEntity
  8
0
370
     0
100
AcDbVertex
100
AcDb2dVertex
 10
270.400848
 20
102.174355
 30
0.0
  0
VERTEX
  5
2EF
330
2E1
100
AcDbEntity
  8
0
370
     0
100
AcDbVertex
100
AcDb2dVertex
 10
270.067993
 20
102.265129
 30
0.0
  0
VERTEX
  5
2F0
330
2E1
100
AcDbEntity
  8
0
370
     0
100
AcDbVertex
100
AcDb2dVertex
 10
269.810791
 20
102.537468
 30
0.0
  0
VERTEX
  5
2F1
330
2E1
100
AcDbEntity
  8
0
370
     0
100
AcDbVertex
100
AcDb2dVertex
 10
269.644379
 20
102.98127
 30
0.0
  0
SEQEND
  5
2F2
330
2E1
100
AcDbEntity
  8
0
 62
     7
370
    13
  0
POLYLINE
  5
2F3
330
1F
100
AcDbEntity
  8
0
 62
     7
370
    13
100
AcDb2dPolyline
 66
     1
 10
0.0
 20
0.0
 30
0.0
 70
     1
  0
VERTEX
  5
2F4
330
2F3
100
AcDbEntity
  8
0
370
     0
100
AcDbVertex
100
AcDb2dVertex
 10
272.312225
 20
101.846542
 30
0.0
  0
VERTEX
  5
2F5
330
2F3
100
AcDbEntity
  8
0
370
     0
100
AcDbVertex
100
AcDb2dVertex
 10
272.78125
 20
101.846542
 30
0.0
  0
VERTEX
  5
2F6
330
2F3
100
AcDbEntity
  8
0
370
     0
100
AcDbVertex
100
AcDb2dVertex
 10
272.78125
 20
103.324211
 30
0.0
  0
VERTEX
  5
2F7
330
2F3
100
AcDbEntity
  8
0
370
     0
100
AcDbVertex
100
AcDb2dVertex
 10
273.260376
 20
103.324211
 30
0.0
  0
VERTEX
  5
2F8
330
2F3
100
AcDbEntity
  8
0
370
     0
100
AcDbVertex
100
AcDb2dVertex
 10
273.613403
 20
103.309082
 30
0.0
  0
VERTEX
  5
2F9
330
2F3
100
AcDbEntity
  8
0
370
     0
100
AcDbVertex
100
AcDb2dVertex
 10
273.835297
 20
103.238472
 30
0.0
  0
VERTEX
  5
2FA
330
2F3
100
AcDbEntity
  8
0
370
     0
100
AcDbVertex
100
AcDb2dVertex
 10
273.956329
 20
103.072044
 30
0.0
  0
VERTEX
  5
2FB
330
2F3
100
AcDbEntity
  8
0
370
     0
100
AcDbVertex
100
AcDb2dVertex
 10
274.006775
 20
102.774498
 30
0.0
  0
VERTEX
  5
2FC
330
2F3
100
AcDbEntity
  8
0
370
     0
100
AcDbVertex
100
AcDb2dVertex
 10
274.031982
 20
102.320602
 30
0.0
  0
VERTEX
  5
2FD
330
2F3
100
AcDbEntity
  8
0
370
     0
100
AcDbVertex
100
AcDb2dVertex
 10
274.062225
 20
102.023056
 30
0.0
  0
VERTEX
  5
2FE
330
2F3
100
AcDbEntity
  8
0
370
     0
100
AcDbVertex
100
AcDb2dVertex
 10
274.122742
 20
101.846542
 30
0.0
  0
VERTEX
  5
2FF
330
2F3
100
AcDbEntity
  8
0
370
     0
100
AcDbVertex
100
AcDb2dVertex
 10
274.652283
 20
101.846542
 30
0.0
  0
VERTEX
  5
300
330
2F3
100
AcDbEntity
  8
0
370
     0
100
AcDbVertex
100
AcDb2dVertex
 10
274.652283
 20
101.94236
 30
0.0
  0
VERTEX
  5
301
330
2F3
100
AcDbEntity
  8
0
370
     0
100
AcDbVertex
100
AcDb2dVertex
 10
274.536316
 20
102.083572
 30
0.0
  0
VERTEX
  5
302
330
2F3
100
AcDbEntity
  8
0
370
     0
100
AcDbVertex
100
AcDb2dVertex
 10
274.495972
 20
102.345825
 30
0.0
  0
VERTEX
  5
303
330
2F3
100
AcDbEntity
  8
0
370
     0
100
AcDbVertex
100
AcDb2dVertex
 10
274.460663
 20
102.91066
 30
0.0
  0
VERTEX
  5
304
330
2F3
100
AcDbEntity
  8
0
370
     0
100
AcDbVertex
100
AcDb2dVertex
 10
274.374908
 20
103.329254
 30
0.0
  0
VERTEX
  5
305
330
2F3
100
AcDbEntity
  8
0
370
     0
100
AcDbVertex
100
AcDb2dVertex
 10
274.258911
 20
103.460373
 30
0.0
  0
VERTEX
  5
306
330
2F3
100
AcDbEntity
  8
0
370
     0
100
AcDbVertex
100
AcDb2dVertex
 10
274.077362
 20
103.556198
 30
0.0
  0
VERTEX
  5
307
330
2F3
100
AcDbEntity
  8
0
370
     0
100
AcDbVertex
100
AcDb2dVertex
 10
274.279114
 20
103.682274
 30
0.0
  0
VERTEX
  5
308
330
2F3
100
AcDbEntity
  8
0
370
     0
100
AcDbVertex
100
AcDb2dVertex
 10
274.420319
 20
103.858788
 30
0.0
  0
VERTEX
  5
309
330
2F3
100
AcDbEntity
  8
0
370
     0
100
AcDbVertex
100
AcDb2dVertex
 10
274.511078
 20
104.080688
 30
0.0
  0
VERTEX
  5
30A
330
2F3
100
AcDbEntity
  8
0
370
     0
100
AcDbVertex
100
AcDb2dVertex
 10
274.541351
 20
104.347984
 30
0.0
  0
VERTEX
  5
30B
330
2F3
100
AcDbEntity
  8
0
370
     0
100
AcDbVertex
100
AcDb2dVertex
 10
274.470734
 20
104.771614
 30
0.0
  0
VERTEX
  5
30C
330
2F3
100
AcDbEntity
  8
0
370
     0
100
AcDbVertex
100
AcDb2dVertex
 10
274.269012
 20
105.08934
 30
0.0
  0
VERTEX
  5
30D
330
2F3
100
AcDbEntity
  8
0
370
     0
100
AcDbVertex
100
AcDb2dVertex
 10
273.936157
 20
105.280983
 30
0.0
  0
VERTEX
  5
30E
330
2F3
100
AcDbEntity
  8
0
370
     0
100
AcDbVertex
100
AcDb2dVertex
 10
273.482269
 20
105.346542
 30
0.0
  0
VERTEX
  5
30F
330
2F3
100
AcDbEntity
  8
0
370
     0
100
AcDbVertex
100
AcDb2dVertex
 10
272.312225
 20
105.346542
 30
0.0
  0
SEQEND
  5
310
330
2F3
100
AcDbEntity
  8
0
 62
     7
370
    13
  0
POLYLINE
  5
311
330
1F
100
AcDbEntity
  8
0
 62
     7
370
    13
100
AcDb2dPolyline
 66
     1
 10
0.0
 20
0.0
 30
0.0
 70
     1
  0
VERTEX
  5
312
330
311
100
AcDbEntity
  8
0
370
     0
100
AcDbVertex
100
AcDb2dVertex
 10
273.351135
 20
104.91787
 30
0.0
  0
VERTEX
  5
313
330
311
100
AcDbEntity
  8
0
370
     0
100
AcDbVertex
100
AcDb2dVertex
 10
273.658783
 20
104.887611
 30
0.0
  0
VERTEX
  5
314
330
311
100
AcDbEntity
  8
0
370
     0
100
AcDbVertex
100
AcDb2dVertex
 10
273.875641
 20
104.791786
 30
0.0
  0
VERTEX
  5
315
330
311
100
AcDbEntity
  8
0
370
     0
100
AcDbVertex
100
AcDb2dVertex
 10
274.01181
 20
104.615273
 30
0.0
  0
VERTEX
  5
316
330
311
100
AcDbEntity
  8
0
370
     0
100
AcDbVertex
100
AcDb2dVertex
 10
274.05719
 20
104.337898
 30
0.0
  0
VERTEX
  5
317
330
311
100
AcDbEntity
  8
0
370
     0
100
AcDbVertex
100
AcDb2dVertex
 10
274.006775
 20
104.045387
 30
0.0
  0
VERTEX
  5
318
330
311
100
AcDbEntity
  8
0
370
     0
100
AcDbVertex
100
AcDb2dVertex
 10
273.870605
 20
103.868874
 30
0.0
  0
VERTEX
  5
319
330
311
100
AcDbEntity
  8
0
370
     0
100
AcDbVertex
100
AcDb2dVertex
 10
273.638611
 20
103.778099
 30
0.0
  0
VERTEX
  5
31A
330
311
100
AcDbEntity
  8
0
370
     0
100
AcDbVertex
100
AcDb2dVertex
 10
273.320892
 20
103.752884
 30
0.0
  0
VERTEX
  5
31B
330
311
100
AcDbEntity
  8
0
370
     0
100
AcDbVertex
100
AcDb2dVertex
 10
272.78125
 20
103.752884
 30
0.0
  0
VERTEX
  5
31C
330
311
100
AcDbEntity
  8
0
370
     0
100
AcDbVertex
100
AcDb2dVertex
 10
272.78125
 20
104.91787
 30
0.0
  0
SEQEND
  5
31D
330
311
100
AcDbEntity
  8
0
 62
     7
370
    13
  0
POLYLINE
  5
31E
330
1F
100
AcDbEntity
  8
0
 62
     7
370
    13
100
AcDb2dPolyline
 66
     1
 10
0.0
 20
0.0
 30
0.0
 70
     1
  0
VERTEX
  5
31F
330
31E
100
AcDbEntity
  8
0
370
     0
100
AcDbVertex
100
AcDb2dVertex
 10
278.238037
 20
102.945969
 30
0.0
  0
VERTEX
  5
320
330
31E
100
AcDbEntity
  8
0
370
     0
100
AcDbVertex
100
AcDb2dVertex
 10
278.238037
 20
102.91066
 30
0.0
  0
VERTEX
  5
321
330
31E
100
AcDbEntity
  8
0
370
     0
100
AcDbVertex
100
AcDb2dVertex
 10
278.318726
 20
102.426514
 30
0.0
  0
VERTEX
  5
322
330
31E
100
AcDbEntity
  8
0
370
     0
100
AcDbVertex
100
AcDb2dVertex
 10
278.555756
 20
102.0634
 30
0.0
  0
VERTEX
  5
323
330
31E
100
AcDbEntity
  8
0
370
     0
100
AcDbVertex
100
AcDb2dVertex
 10
278.928955
 20
101.831413
 30
0.0
  0
VERTEX
  5
324
330
31E
100
AcDbEntity
  8
0
370
     0
100
AcDbVertex
100
AcDb2dVertex
 10
279.423187
 20
101.745674
 30
0.0
  0
VERTEX
  5
325
330
31E
100
AcDbEntity
  8
0
370
     0
100
AcDbVertex
100
AcDb2dVertex
 10
279.947693
 20
101.831413
 30
0.0
  0
VERTEX
  5
326
330
31E
100
AcDbEntity
  8
0
370
     0
100
AcDbVertex
100
AcDb2dVertex
 10
280.341064
 20
102.053314
 30
0.0
  0
VERTEX
  5
327
330
31E
100
AcDbEntity
  8
0
370
     0
100
AcDbVertex
100
AcDb2dVertex
 10
280.593231
 20
102.406342
 30
0.0
  0
VERTEX
  5
328
330
31E
100
AcDbEntity
  8
0
370
     0
100
AcDbVertex
100
AcDb2dVertex
 10
280.68399
 20
102.860229
 30
0.0
  0
VERTEX
  5
329
330
31E
100
AcDbEntity
  8
0
370
     0
100
AcDbVertex
100
AcDb2dVertex
 10
280.643646
 20
103.157784
 30
0.0
  0
VERTEX
  5
32A
330
31E
100
AcDbEntity
  8
0
370
     0
100
AcDbVertex
100
AcDb2dVertex
 10
280.532715
 20
103.399857
 30
0.0
  0
VERTEX
  5
32B
330
31E
100
AcDbEntity
  8
0
370
     0
100
AcDbVertex
100
AcDb2dVertex
 10
280.351135
 20
103.586456
 30
0.0
  0
VERTEX
  5
32C
330
31E
100
AcDbEntity
  8
0
370
     0
100
AcDbVertex
100
AcDb2dVertex
 10
280.10907
 20
103.722626
 30
0.0
  0
VERTEX
  5
32D
330
31E
100
AcDbEntity
  8
0
370
     0
100
AcDbVertex
100
AcDb2dVertex
 10
280.43689
 20
103.994957
 30
0.0
  0
VERTEX
  5
32E
330
31E
100
AcDbEntity
  8
0
370
     0
100
AcDbVertex
100
AcDb2dVertex
 10
280.552887
 20
104.428673
 30
0.0
  0
VERTEX
  5
32F
330
31E
100
AcDbEntity
  8
0
370
     0
100
AcDbVertex
100
AcDb2dVertex
 10
280.477234
 20
104.822044
 30
0.0
  0
VERTEX
  5
330
330
31E
100
AcDbEntity
  8
0
370
     0
100
AcDbVertex
100
AcDb2dVertex
 10
280.260376
 20
105.119598
 30
0.0
  0
VERTEX
  5
331
330
31E
100
AcDbEntity
  8
0
370
     0
100
AcDbVertex
100
AcDb2dVertex
 10
279.907349
 20
105.306198
 30
0.0
  0
VERTEX
  5
332
330
31E
100
AcDbEntity
  8
0
370
     0
100
AcDbVertex
100
AcDb2dVertex
 10
279.423187
 20
105.371758
 30
0.0
  0
VERTEX
  5
333
330
31E
100
AcDbEntity
  8
0
370
     0
100
AcDbVertex
100
AcDb2dVertex
 10
278.969299
 20
105.291069
 30
0.0
  0
VERTEX
  5
334
330
31E
100
AcDbEntity
  8
0
370
     0
100
AcDbVertex
100
AcDb2dVertex
 10
278.621307
 20
105.069168
 30
0.0
  0
VERTEX
  5
335
330
31E
100
AcDbEntity
  8
0
370
     0
100
AcDbVertex
100
AcDb2dVertex
 10
278.394379
 20
104.716141
 30
0.0
  0
VERTEX
  5
336
330
31E
100
AcDbEntity
  8
0
370
     0
100
AcDbVertex
100
AcDb2dVertex
 10
278.318726
 20
104.247116
 30
0.0
  0
VERTEX
  5
337
330
31E
100
AcDbEntity
  8
0
370
     0
100
AcDbVertex
100
AcDb2dVertex
 10
278.318726
 20
104.211815
 30
0.0
  0
VERTEX
  5
338
330
31E
100
AcDbEntity
  8
0
370
     0
100
AcDbVertex
100
AcDb2dVertex
 10
278.767578
 20
104.211815
 30
0.0
  0
VERTEX
  5
339
330
31E
100
AcDbEntity
  8
0
370
     0
100
AcDbVertex
100
AcDb2dVertex
 10
278.807922
 20
104.534584
 30
0.0
  0
VERTEX
  5
33A
330
31E
100
AcDbEntity
  8
0
370
     0
100
AcDbVertex
100
AcDb2dVertex
 10
278.939026
 20
104.766571
 30
0.0
  0
VERTEX
  5
33B
330
31E
100
AcDbEntity
  8
0
370
     0
100
AcDbVertex
100
AcDb2dVertex
 10
279.150848
 20
104.907784
 30
0.0
  0
VERTEX
  5
33C
330
31E
100
AcDbEntity
  8
0
370
     0
100
AcDbVertex
100
AcDb2dVertex
 10
279.448395
 20
104.958214
 30
0.0
  0
VERTEX
  5
33D
330
31E
100
AcDbEntity
  8
0
370
     0
100
AcDbVertex
100
AcDb2dVertex
 10
279.710663
 20
104.91787
 30
0.0
  0
VERTEX
  5
33E
330
31E
100
AcDbEntity
  8
0
370
     0
100
AcDbVertex
100
AcDb2dVertex
 10
279.902283
 20
104.811958
 30
0.0
  0
VERTEX
  5
33F
330
31E
100
AcDbEntity
  8
0
370
     0
100
AcDbVertex
100
AcDb2dVertex
 10
280.01828
 20
104.640488
 30
0.0
  0
VERTEX
  5
340
330
31E
100
AcDbEntity
  8
0
370
     0
100
AcDbVertex
100
AcDb2dVertex
 10
280.06369
 20
104.408501
 30
0.0
  0
VERTEX
  5
341
330
31E
100
AcDbEntity
  8
0
370
     0
100
AcDbVertex
100
AcDb2dVertex
 10
280.01828
 20
104.161385
 30
0.0
  0
VERTEX
  5
342
330
31E
100
AcDbEntity
  8
0
370
     0
100
AcDbVertex
100
AcDb2dVertex
 10
279.897247
 20
103.994957
 30
0.0
  0
VERTEX
  5
343
330
31E
100
AcDbEntity
  8
0
370
     0
100
AcDbVertex
100
AcDb2dVertex
 10
279.685425
 20
103.894096
 30
0.0
  0
VERTEX
  5
344
330
31E
100
AcDbEntity
  8
0
370
     0
100
AcDbVertex
100
AcDb2dVertex
 10
279.39798
 20
103.863831
 30
0.0
  0
VERTEX
  5
345
330
31E
100
AcDbEntity
  8
0
370
     0
100
AcDbVertex
100
AcDb2dVertex
 10
279.201294
 20
103.868874
 30
0.0
  0
VERTEX
  5
346
330
31E
100
AcDbEntity
  8
0
370
     0
100
AcDbVertex
100
AcDb2dVertex
 10
279.201294
 20
103.470459
 30
0.0
  0
VERTEX
  5
347
330
31E
100
AcDbEntity
  8
0
370
     0
100
AcDbVertex
100
AcDb2dVertex
 10
279.448395
 20
103.480545
 30
0.0
  0
VERTEX
  5
348
330
31E
100
AcDbEntity
  8
0
370
     0
100
AcDbVertex
100
AcDb2dVertex
 10
279.766113
 20
103.435158
 30
0.0
  0
VERTEX
  5
349
330
31E
100
AcDbEntity
  8
0
370
     0
100
AcDbVertex
100
AcDb2dVertex
 10
280.003174
 20
103.314125
 30
0.0
  0
VERTEX
  5
34A
330
31E
100
AcDbEntity
  8
0
370
     0
100
AcDbVertex
100
AcDb2dVertex
 10
280.144379
 20
103.117439
 30
0.0
  0
VERTEX
  5
34B
330
31E
100
AcDbEntity
  8
0
370
     0
100
AcDbVertex
100
AcDb2dVertex
 10
280.194794
 20
102.860229
 30
0.0
  0
VERTEX
  5
34C
330
31E
100
AcDbEntity
  8
0
370
     0
100
AcDbVertex
100
AcDb2dVertex
 10
280.139343
 20
102.567726
 30
0.0
  0
VERTEX
  5
34D
330
31E
100
AcDbEntity
  8
0
370
     0
100
AcDbVertex
100
AcDb2dVertex
 10
279.993073
 20
102.350868
 30
0.0
  0
VERTEX
  5
34E
330
31E
100
AcDbEntity
  8
0
370
     0
100
AcDbVertex
100
AcDb2dVertex
 10
279.761078
 20
102.214699
 30
0.0
  0
VERTEX
  5
34F
330
31E
100
AcDbEntity
  8
0
370
     0
100
AcDbVertex
100
AcDb2dVertex
 10
279.453461
 20
102.169312
 30
0.0
  0
VERTEX
  5
350
330
31E
100
AcDbEntity
  8
0
370
     0
100
AcDbVertex
100
AcDb2dVertex
 10
279.135742
 20
102.219742
 30
0.0
  0
VERTEX
  5
351
330
31E
100
AcDbEntity
  8
0
370
     0
100
AcDbVertex
100
AcDb2dVertex
 10
278.903748
 20
102.37104
 30
0.0
  0
VERTEX
  5
352
330
31E
100
AcDbEntity
  8
0
370
     0
100
AcDbVertex
100
AcDb2dVertex
 10
278.757477
 20
102.613113
 30
0.0
  0
VERTEX
  5
353
330
31E
100
AcDbEntity
  8
0
370
     0
100
AcDbVertex
100
AcDb2dVertex
 10
278.701996
 20
102.945969
 30
0.0
  0
SEQEND
  5
354
330
31E
100
AcDbEntity
  8
0
 62
     7
370
    13
  0
POLYLINE
  5
355
330
1F
100
AcDbEntity
  8
0
 62
     7
370
    13
100
AcDb2dPolyline
 66
     1
 10
0.0
 20
0.0
 30
0.0
 70
     1
  0
VERTEX
  5
356
330
355
100
AcDbEntity
  8
0
370
     0
100
AcDbVertex
100
AcDb2dVertex
 10
282.19696
 20
101.846542
 30
0.0
  0
VERTEX
  5
357
330
355
100
AcDbEntity
  8
0
370
     0
100
AcDbVertex
100
AcDb2dVertex
 10
282.892944
 20
101.846542
 30
0.0
  0
VERTEX
  5
358
330
355
100
AcDbEntity
  8
0
370
     0
100
AcDbVertex
100
AcDb2dVertex
 10
282.892944
 20
102.597984
 30
0.0
  0
VERTEX
  5
359
330
355
100
AcDbEntity
  8
0
370
     0
100
AcDbVertex
100
AcDb2dVertex
 10
282.19696
 20
102.597984
 30
0.0
  0
SEQEND
  5
35A
330
355
100
AcDbEntity
  8
0
 62
     7
370
    13
  0
POLYLINE
  5
35B
330
1F
100
AcDbEntity
  8
0
 62
     7
370
    13
100
AcDb2dPolyline
 66
     1
 10
0.0
 20
0.0
 30
0.0
 70
     1
  0
VERTEX
  5
35C
330
35B
100
AcDbEntity
  8
0
370
     0
100
AcDbVertex
100
AcDb2dVertex
 10
284.350433
 20
101.846542
 30
0.0
  0
VERTEX
  5
35D
330
35B
100
AcDbEntity
  8
0
370
     0
100
AcDbVertex
100
AcDb2dVertex
 10
286.756042
 20
101.846542
 30
0.0
  0
VERTEX
  5
35E
330
35B
100
AcDbEntity
  8
0
370
     0
100
AcDbVertex
100
AcDb2dVertex
 10
286.756042
 20
102.280258
 30
0.0
  0
VERTEX
  5
35F
330
35B
100
AcDbEntity
  8
0
370
     0
100
AcDbVertex
100
AcDb2dVertex
 10
284.854736
 20
102.280258
 30
0.0
  0
VERTEX
  5
360
330
35B
100
AcDbEntity
  8
0
370
     0
100
AcDbVertex
100
AcDb2dVertex
 10
284.960663
 20
102.517288
 30
0.0
  0
VERTEX
  5
361
330
35B
100
AcDbEntity
  8
0
370
     0
100
AcDbVertex
100
AcDb2dVertex
 10
285.142212
 20
102.713974
 30
0.0
  0
VERTEX
  5
362
330
35B
100
AcDbEntity
  8
0
370
     0
100
AcDbVertex
100
AcDb2dVertex
 10
285.701996
 20
103.072044
 30
0.0
  0
VERTEX
  5
363
330
35B
100
AcDbEntity
  8
0
370
     0
100
AcDbVertex
100
AcDb2dVertex
 10
285.999573
 20
103.223343
 30
0.0
  0
VERTEX
  5
364
330
35B
100
AcDbEntity
  8
0
370
     0
100
AcDbVertex
100
AcDb2dVertex
 10
286.332397
 20
103.440201
 30
0.0
  0
VERTEX
  5
365
330
35B
100
AcDbEntity
  8
0
370
     0
100
AcDbVertex
100
AcDb2dVertex
 10
286.569458
 20
103.692368
 30
0.0
  0
VERTEX
  5
366
330
35B
100
AcDbEntity
  8
0
370
     0
100
AcDbVertex
100
AcDb2dVertex
 10
286.705597
 20
103.989914
 30
0.0
  0
VERTEX
  5
367
330
35B
100
AcDbEntity
  8
0
370
     0
100
AcDbVertex
100
AcDb2dVertex
 10
286.756042
 20
104.327812
 30
0.0
  0
VERTEX
  5
368
330
35B
100
AcDbEntity
  8
0
370
     0
100
AcDbVertex
100
AcDb2dVertex
 10
286.670319
 20
104.751442
 30
0.0
  0
VERTEX
  5
369
330
35B
100
AcDbEntity
  8
0
370
     0
100
AcDbVertex
100
AcDb2dVertex
 10
286.433289
 20
105.084297
 30
0.0
  0
VERTEX
  5
36A
330
35B
100
AcDbEntity
  8
0
370
     0
100
AcDbVertex
100
AcDb2dVertex
 10
286.07016
 20
105.296112
 30
0.0
  0
VERTEX
  5
36B
330
35B
100
AcDbEntity
  8
0
370
     0
100
AcDbVertex
100
AcDb2dVertex
 10
285.601135
 20
105.371758
 30
0.0
  0
VERTEX
  5
36C
330
35B
100
AcDbEntity
  8
0
370
     0
100
AcDbVertex
100
AcDb2dVertex
 10
285.117004
 20
105.286026
 30
0.0
  0
VERTEX
  5
36D
330
35B
100
AcDbEntity
  8
0
370
     0
100
AcDbVertex
100
AcDb2dVertex
 10
284.74884
 20
105.048988
 30
0.0
  0
VERTEX
  5
36E
330
35B
100
AcDbEntity
  8
0
370
     0
100
AcDbVertex
100
AcDb2dVertex
 10
284.51181
 20
104.670753
 30
0.0
  0
VERTEX
  5
36F
330
35B
100
AcDbEntity
  8
0
370
     0
100
AcDbVertex
100
AcDb2dVertex
 10
284.431122
 20
104.171471
 30
0.0
  0
VERTEX
  5
370
330
35B
100
AcDbEntity
  8
0
370
     0
100
AcDbVertex
100
AcDb2dVertex
 10
284.431122
 20
104.100868
 30
0.0
  0
VERTEX
  5
371
330
35B
100
AcDbEntity
  8
0
370
     0
100
AcDbVertex
100
AcDb2dVertex
 10
284.890045
 20
104.100868
 30
0.0
  0
VERTEX
  5
372
330
35B
100
AcDbEntity
  8
0
370
     0
100
AcDbVertex
100
AcDb2dVertex
 10
284.890045
 20
104.141212
 30
0.0
  0
VERTEX
  5
373
330
35B
100
AcDbEntity
  8
0
370
     0
100
AcDbVertex
100
AcDb2dVertex
 10
284.935425
 20
104.484154
 30
0.0
  0
VERTEX
  5
374
330
35B
100
AcDbEntity
  8
0
370
     0
100
AcDbVertex
100
AcDb2dVertex
 10
285.071594
 20
104.736313
 30
0.0
  0
VERTEX
  5
375
330
35B
100
AcDbEntity
  8
0
370
     0
100
AcDbVertex
100
AcDb2dVertex
 10
285.288452
 20
104.897697
 30
0.0
  0
VERTEX
  5
376
330
35B
100
AcDbEntity
  8
0
370
     0
100
AcDbVertex
100
AcDb2dVertex
 10
285.575928
 20
104.953171
 30
0.0
  0
VERTEX
  5
377
330
35B
100
AcDbEntity
  8
0
370
     0
100
AcDbVertex
100
AcDb2dVertex
 10
285.868439
 20
104.90274
 30
0.0
  0
VERTEX
  5
378
330
35B
100
AcDbEntity
  8
0
370
     0
100
AcDbVertex
100
AcDb2dVertex
 10
286.085297
 20
104.776657
 30
0.0
  0
VERTEX
  5
379
330
35B
100
AcDbEntity
  8
0
370
     0
100
AcDbVertex
100
AcDb2dVertex
 10
286.226501
 20
104.579971
 30
0.0
  0
VERTEX
  5
37A
330
35B
100
AcDbEntity
  8
0
370
     0
100
AcDbVertex
100
AcDb2dVertex
 10
286.276947
 20
104.332855
 30
0.0
  0
VERTEX
  5
37B
330
35B
100
AcDbEntity
  8
0
370
     0
100
AcDbVertex
100
AcDb2dVertex
 10
286.241638
 20
104.100868
 30
0.0
  0
VERTEX
  5
37C
330
35B
100
AcDbEntity
  8
0
370
     0
100
AcDbVertex
100
AcDb2dVertex
 10
286.145813
 20
103.904182
 30
0.0
  0
VERTEX
  5
37D
330
35B
100
AcDbEntity
  8
0
370
     0
100
AcDbVertex
100
AcDb2dVertex
 10
285.984436
 20
103.732712
 30
0.0
  0
VERTEX
  5
37E
330
35B
100
AcDbEntity
  8
0
370
     0
100
AcDbVertex
100
AcDb2dVertex
 10
285.762512
 20
103.581413
 30
0.0
  0
VERTEX
  5
37F
330
35B
100
AcDbEntity
  8
0
370
     0
100
AcDbVertex
100
AcDb2dVertex
 10
285.464966
 20
103.420029
 30
0.0
  0
VERTEX
  5
380
330
35B
100
AcDbEntity
  8
0
370
     0
100
AcDbVertex
100
AcDb2dVertex
 10
284.970734
 20
103.107346
 30
0.0
  0
VERTEX
  5
381
330
35B
100
AcDbEntity
  8
0
370
     0
100
AcDbVertex
100
AcDb2dVertex
 10
284.622742
 20
102.774498
 30
0.0
  0
VERTEX
  5
382
330
35B
100
AcDbEntity
  8
0
370
     0
100
AcDbVertex
100
AcDb2dVertex
 10
284.415985
 20
102.37104
 30
0.0
  0
VERTEX
  5
383
330
35B
100
AcDbEntity
  8
0
370
     0
100
AcDbVertex
100
AcDb2dVertex
 10
284.350433
 20
101.861671
 30
0.0
  0
SEQEND
  5
384
330
35B
100
AcDbEntity
  8
0
 62
     7
370
    13
  0
POLYLINE
  5
385
330
1F
100
AcDbEntity
  8
0
 62
     7
370
    13
100
AcDb2dPolyline
 66
     1
 10
0.0
 20
0.0
 30
0.0
 70
     1
  0
VERTEX
  5
386
330
385
100
AcDbEntity
  8
0
370
     0
100
AcDbVertex
100
AcDb2dVertex
 10
287.396545
 20
101.846542
 30
0.0
  0
VERTEX
  5
387
330
385
100
AcDbEntity
  8
0
370
     0
100
AcDbVertex
100
AcDb2dVertex
 10
287.805023
 20
101.846542
 30
0.0
  0
VERTEX
  5
388
330
385
100
AcDbEntity
  8
0
370
     0
100
AcDbVertex
100
AcDb2dVertex
 10
287.805023
 20
103.657059
 30
0.0
  0
VERTEX
  5
389
330
385
100
AcDbEntity
  8
0
370
     0
100
AcDbVertex
100
AcDb2dVertex
 10
287.830261
 20
103.929398
 30
0.0
  0
VERTEX
  5
38A
330
385
100
AcDbEntity
  8
0
370
     0
100
AcDbVertex
100
AcDb2dVertex
 10
287.905884
 20
104.126083
 30
0.0
  0
VERTEX
  5
38B
330
385
100
AcDbEntity
  8
0
370
     0
100
AcDbVertex
100
AcDb2dVertex
 10
288.021881
 20
104.242073
 30
0.0
  0
VERTEX
  5
38C
330
385
100
AcDbEntity
  8
0
370
     0
100
AcDbVertex
100
AcDb2dVertex
 10
288.173187
 20
104.287468
 30
0.0
  0
VERTEX
  5
38D
330
385
100
AcDbEntity
  8
0
370
     0
100
AcDbVertex
100
AcDb2dVertex
 10
288.29422
 20
104.247116
 30
0.0
  0
VERTEX
  5
38E
330
385
100
AcDbEntity
  8
0
370
     0
100
AcDbVertex
100
AcDb2dVertex
 10
288.374908
 20
104.146255
 30
0.0
  0
VERTEX
  5
38F
330
385
100
AcDbEntity
  8
0
370
     0
100
AcDbVertex
100
AcDb2dVertex
 10
288.415253
 20
103.974785
 30
0.0
  0
VERTEX
  5
390
330
385
100
AcDbEntity
  8
0
370
     0
100
AcDbVertex
100
AcDb2dVertex
 10
288.430389
 20
103.747841
 30
0.0
  0
VERTEX
  5
391
330
385
100
AcDbEntity
  8
0
370
     0
100
AcDbVertex
100
AcDb2dVertex
 10
288.430389
 20
101.846542
 30
0.0
  0
VERTEX
  5
392
330
385
100
AcDbEntity
  8
0
370
     0
100
AcDbVertex
100
AcDb2dVertex
 10
288.81369
 20
101.846542
 30
0.0
  0
VERTEX
  5
393
330
385
100
AcDbEntity
  8
0
370
     0
100
AcDbVertex
100
AcDb2dVertex
 10
288.81369
 20
103.657059
 30
0.0
  0
VERTEX
  5
394
330
385
100
AcDbEntity
  8
0
370
     0
100
AcDbVertex
100
AcDb2dVertex
 10
288.838898
 20
103.924355
 30
0.0
  0
VERTEX
  5
395
330
385
100
AcDbEntity
  8
0
370
     0
100
AcDbVertex
100
AcDb2dVertex
 10
288.914551
 20
104.12104
 30
0.0
  0
VERTEX
  5
396
330
385
100
AcDbEntity
  8
0
370
     0
100
AcDbVertex
100
AcDb2dVertex
 10
289.035583
 20
104.242073
 30
0.0
  0
VERTEX
  5
397
330
385
100
AcDbEntity
  8
0
370
     0
100
AcDbVertex
100
AcDb2dVertex
 10
289.18689
 20
104.287468
 30
0.0
  0
VERTEX
  5
398
330
385
100
AcDbEntity
  8
0
370
     0
100
AcDbVertex
100
AcDb2dVertex
 10
289.307922
 20
104.247116
 30
0.0
  0
VERTEX
  5
399
330
385
100
AcDbEntity
  8
0
370
     0
100
AcDbVertex
100
AcDb2dVertex
 10
289.388611
 20
104.146255
 30
0.0
  0
VERTEX
  5
39A
330
385
100
AcDbEntity
  8
0
370
     0
100
AcDbVertex
100
AcDb2dVertex
 10
289.439026
 20
103.747841
 30
0.0
  0
VERTEX
  5
39B
330
385
100
AcDbEntity
  8
0
370
     0
100
AcDbVertex
100
AcDb2dVertex
 10
289.439026
 20
101.846542
 30
0.0
  0
VERTEX
  5
39C
330
385
100
AcDbEntity
  8
0
370
     0
100
AcDbVertex
100
AcDb2dVertex
 10
289.847534
 20
101.846542
 30
0.0
  0
VERTEX
  5
39D
330
385
100
AcDbEntity
  8
0
370
     0
100
AcDbVertex
100
AcDb2dVertex
 10
289.847534
 20
103.717583
 30
0.0
  0
VERTEX
  5
39E
330
385
100
AcDbEntity
  8
0
370
     0
100
AcDbVertex
100
AcDb2dVertex
 10
289.822327
 20
104.105911
 30
0.0
  0
VERTEX
  5
39F
330
385
100
AcDbEntity
  8
0
370
     0
100
AcDbVertex
100
AcDb2dVertex
 10
289.741638
 20
104.403458
 30
0.0
  0
VERTEX
  5
3A0
330
385
100
AcDbEntity
  8
0
370
     0
100
AcDbVertex
100
AcDb2dVertex
 10
289.580261
 20
104.585014
 30
0.0
  0
VERTEX
  5
3A1
330
385
100
AcDbEntity
  8
0
370
     0
100
AcDbVertex
100
AcDb2dVertex
 10
289.317993
 20
104.650574
 30
0.0
  0
VERTEX
  5
3A2
330
385
100
AcDbEntity
  8
0
370
     0
100
AcDbVertex
100
AcDb2dVertex
 10
289.010376
 20
104.549713
 30
0.0
  0
VERTEX
  5
3A3
330
385
100
AcDbEntity
  8
0
370
     0
100
AcDbVertex
100
AcDb2dVertex
 10
288.773315
 20
104.257202
 30
0.0
  0
VERTEX
  5
3A4
330
385
100
AcDbEntity
  8
0
370
     0
100
AcDbVertex
100
AcDb2dVertex
 10
288.586731
 20
104.54467
 30
0.0
  0
VERTEX
  5
3A5
330
385
100
AcDbEntity
  8
0
370
     0
100
AcDbVertex
100
AcDb2dVertex
 10
288.274048
 20
104.650574
 30
0.0
  0
VERTEX
  5
3A6
330
385
100
AcDbEntity
  8
0
370
     0
100
AcDbVertex
100
AcDb2dVertex
 10
287.986572
 20
104.549713
 30
0.0
  0
VERTEX
  5
3A7
330
385
100
AcDbEntity
  8
0
370
     0
100
AcDbVertex
100
AcDb2dVertex
 10
287.789917
 20
104.267288
 30
0.0
  0
VERTEX
  5
3A8
330
385
100
AcDbEntity
  8
0
370
     0
100
AcDbVertex
100
AcDb2dVertex
 10
287.789917
 20
104.554756
 30
0.0
  0
VERTEX
  5
3A9
330
385
100
AcDbEntity
  8
0
370
     0
100
AcDbVertex
100
AcDb2dVertex
 10
287.396545
 20
104.554756
 30
0.0
  0
SEQEND
  5
3AA
330
385
100
AcDbEntity
  8
0
 62
     7
370
    13
  0
POLYLINE
  5
3AB
330
1F
100
AcDbEntity
  8
0
 62
     7
370
    13
100
AcDb2dPolyline
 66
     1
 10
0.0
 20
0.0
 30
0.0
 70
     1
  0
VERTEX
  5
3AC
330
3AB
100
AcDbEntity
  8
0
370
     0
100
AcDbVertex
100
AcDb2dVertex
 10
290.432556
 20
101.846542
 30
0.0
  0
VERTEX
  5
3AD
330
3AB
100
AcDbEntity
  8
0
370
     0
100
AcDbVertex
100
AcDb2dVertex
 10
290.841064
 20
101.846542
 30
0.0
  0
VERTEX
  5
3AE
330
3AB
100
AcDbEntity
  8
0
370
     0
100
AcDbVertex
100
AcDb2dVertex
 10
290.841064
 20
103.657059
 30
0.0
  0
VERTEX
  5
3AF
330
3AB
100
AcDbEntity
  8
0
370
     0
100
AcDbVertex
100
AcDb2dVertex
 10
290.866272
 20
103.929398
 30
0.0
  0
VERTEX
  5
3B0
330
3AB
100
AcDbEntity
  8
0
370
     0
100
AcDbVertex
100
AcDb2dVertex
 10
290.941925
 20
104.126083
 30
0.0
  0
VERTEX
  5
3B1
330
3AB
100
AcDbEntity
  8
0
370
     0
100
AcDbVertex
100
AcDb2dVertex
 10
291.057922
 20
104.242073
 30
0.0
  0
VERTEX
  5
3B2
330
3AB
100
AcDbEntity
  8
0
370
     0
100
AcDbVertex
100
AcDb2dVertex
 10
291.209198
 20
104.287468
 30
0.0
  0
VERTEX
  5
3B3
330
3AB
100
AcDbEntity
  8
0
370
     0
100
AcDbVertex
100
AcDb2dVertex
 10
291.330261
 20
104.247116
 30
0.0
  0
VERTEX
  5
3B4
330
3AB
100
AcDbEntity
  8
0
370
     0
100
AcDbVertex
100
AcDb2dVertex
 10
291.41095
 20
104.146255
 30
0.0
  0
VERTEX
  5
3B5
330
3AB
100
AcDbEntity
  8
0
370
     0
100
AcDbVertex
100
AcDb2dVertex
 10
291.451294
 20
103.974785
 30
0.0
  0
VERTEX
  5
3B6
330
3AB
100
AcDbEntity
  8
0
370
     0
100
AcDbVertex
100
AcDb2dVertex
 10
291.466431
 20
103.747841
 30
0.0
  0
VERTEX
  5
3B7
330
3AB
100
AcDbEntity
  8
0
370
     0
100
AcDbVertex
100
AcDb2dVertex
 10
291.466431
 20
101.846542
 30
0.0
  0
VERTEX
  5
3B8
330
3AB
100
AcDbEntity
  8
0
370
     0
100
AcDbVertex
100
AcDb2dVertex
 10
291.849701
 20
101.846542
 30
0.0
  0
VERTEX
  5
3B9
330
3AB
100
AcDbEntity
  8
0
370
     0
100
AcDbVertex
100
AcDb2dVertex
 10
291.849701
 20
103.657059
 30
0.0
  0
VERTEX
  5
3BA
330
3AB
100
AcDbEntity
  8
0
370
     0
100
AcDbVertex
100
AcDb2dVertex
 10
291.874908
 20
103.924355
 30
0.0
  0
VERTEX
  5
3BB
330
3AB
100
AcDbEntity
  8
0
370
     0
100
AcDbVertex
100
AcDb2dVertex
 10
291.950562
 20
104.12104
 30
0.0
  0
VERTEX
  5
3BC
330
3AB
100
AcDbEntity
  8
0
370
     0
100
AcDbVertex
100
AcDb2dVertex
 10
292.071594
 20
104.242073
 30
0.0
  0
VERTEX
  5
3BD
330
3AB
100
AcDbEntity
  8
0
370
     0
100
AcDbVertex
100
AcDb2dVertex
 10
292.2229
 20
104.287468
 30
0.0
  0
VERTEX
  5
3BE
330
3AB
100
AcDbEntity
  8
0
370
     0
100
AcDbVertex
100
AcDb2dVertex
 10
292.343933
 20
104.247116
 30
0.0
  0
VERTEX
  5
3BF
330
3AB
100
AcDbEntity
  8
0
370
     0
100
AcDbVertex
100
AcDb2dVertex
 10
292.424622
 20
104.146255
 30
0.0
  0
VERTEX
  5
3C0
330
3AB
100
AcDbEntity
  8
0
370
     0
100
AcDbVertex
100
AcDb2dVertex
 10
292.475067
 20
103.747841
 30
0.0
  0
VERTEX
  5
3C1
330
3AB
100
AcDbEntity
  8
0
370
     0
100
AcDbVertex
100
AcDb2dVertex
 10
292.475067
 20
101.846542
 30
0.0
  0
VERTEX
  5
3C2
330
3AB
100
AcDbEntity
  8
0
370
     0
100
AcDbVertex
100
AcDb2dVertex
 10
292.883545
 20
101.846542
 30
0.0
  0
VERTEX
  5
3C3
330
3AB
100
AcDbEntity
  8
0
370
     0
100
AcDbVertex
100
AcDb2dVertex
 10
292.883545
 20
103.717583
 30
0.0
  0
VERTEX
  5
3C4
330
3AB
100
AcDbEntity
  8
0
370
     0
100
AcDbVertex
100
AcDb2dVertex
 10
292.858337
 20
104.105911
 30
0.0
  0
VERTEX
  5
3C5
330
3AB
100
AcDbEntity
  8
0
370
     0
100
AcDbVertex
100
AcDb2dVertex
 10
292.777649
 20
104.403458
 30
0.0
  0
VERTEX
  5
3C6
330
3AB
100
AcDbEntity
  8
0
370
     0
100
AcDbVertex
100
AcDb2dVertex
 10
292.616272
 20
104.585014
 30
0.0
  0
VERTEX
  5
3C7
330
3AB
100
AcDbEntity
  8
0
370
     0
100
AcDbVertex
100
AcDb2dVertex
 10
292.354034
 20
104.650574
 30
0.0
  0
VERTEX
  5
3C8
330
3AB
100
AcDbEntity
  8
0
370
     0
100
AcDbVertex
100
AcDb2dVertex
 10
292.046387
 20
104.549713
 30
0.0
  0
VERTEX
  5
3C9
330
3AB
100
AcDbEntity
  8
0
370
     0
100
AcDbVertex
100
AcDb2dVertex
 10
291.809357
 20
104.257202
 30
0.0
  0
VERTEX
  5
3CA
330
3AB
100
AcDbEntity
  8
0
370
     0
100
AcDbVertex
100
AcDb2dVertex
 10
291.622742
 20
104.54467
 30
0.0
  0
VERTEX
  5
3CB
330
3AB
100
AcDbEntity
  8
0
370
     0
100
AcDbVertex
100
AcDb2dVertex
 10
291.310059
 20
104.650574
 30
0.0
  0
VERTEX
  5
3CC
330
3AB
100
AcDbEntity
  8
0
370
     0
100
AcDbVertex
100
AcDb2dVertex
 10
291.022614
 20
104.549713
 30
0.0
  0
VERTEX
  5
3CD
330
3AB
100
AcDbEntity
  8
0
370
     0
100
AcDbVertex
100
AcDb2dVertex
 10
290.825928
 20
104.267288
 30
0.0
  0
VERTEX
  5
3CE
330
3AB
100
AcDbEntity
  8
0
370
     0
100
AcDbVertex
100
AcDb2dVertex
 10
290.825928
 20
104.554756
 30
0.0
  0
VERTEX
  5
3CF
330
3AB
100
AcDbEntity
  8
0
370
     0
100
AcDbVertex
100
AcDb2dVertex
 10
290.432556
 20
104.554756
 30
0.0
  0
SEQEND
  5
3D0
330
3AB
100
AcDbEntity
  8
0
 62
     7
370
    13
  0
POLYLINE
  5
3D1
330
1F
100
AcDbEntity
  8
0
 62
     7
370
    13
100
AcDb2dPolyline
 66
     1
 10
0.0
 20
0.0
 30
0.0
 70
     1
  0
VERTEX
  5
3D2
330
3D1
100
AcDbEntity
  8
0
370
     0
100
AcDbVertex
100
AcDb2dVertex
 10
253.95993
 20
95.799713
 30
0.0
  0
VERTEX
  5
3D3
330
3D1
100
AcDbEntity
  8
0
370
     0
100
AcDbVertex
100
AcDb2dVertex
 10
254.348267
 20
95.799713
 30
0.0
  0
VERTEX
  5
3D4
330
3D1
100
AcDbEntity
  8
0
370
     0
100
AcDbVertex
100
AcDb2dVertex
 10
254.348267
 20
98.976944
 30
0.0
  0
VERTEX
  5
3D5
330
3D1
100
AcDbEntity
  8
0
370
     0
100
AcDbVertex
100
AcDb2dVertex
 10
255.003876
 20
95.799713
 30
0.0
  0
VERTEX
  5
3D6
330
3D1
100
AcDbEntity
  8
0
370
     0
100
AcDbVertex
100
AcDb2dVertex
 10
255.437592
 20
95.799713
 30
0.0
  0
VERTEX
  5
3D7
330
3D1
100
AcDbEntity
  8
0
370
     0
100
AcDbVertex
100
AcDb2dVertex
 10
256.088165
 20
98.976944
 30
0.0
  0
VERTEX
  5
3D8
330
3D1
100
AcDbEntity
  8
0
370
     0
100
AcDbVertex
100
AcDb2dVertex
 10
256.088165
 20
95.799713
 30
0.0
  0
VERTEX
  5
3D9
330
3D1
100
AcDbEntity
  8
0
370
     0
100
AcDbVertex
100
AcDb2dVertex
 10
256.481537
 20
95.799713
 30
0.0
  0
VERTEX
  5
3DA
330
3D1
100
AcDbEntity
  8
0
370
     0
100
AcDbVertex
100
AcDb2dVertex
 10
256.481537
 20
99.299713
 30
0.0
  0
VERTEX
  5
3DB
330
3D1
100
AcDbEntity
  8
0
370
     0
100
AcDbVertex
100
AcDb2dVertex
 10
255.866272
 20
99.299713
 30
0.0
  0
VERTEX
  5
3DC
330
3D1
100
AcDbEntity
  8
0
370
     0
100
AcDbVertex
100
AcDb2dVertex
 10
255.220734
 20
96.213257
 30
0.0
  0
VERTEX
  5
3DD
330
3D1
100
AcDbEntity
  8
0
370
     0
100
AcDbVertex
100
AcDb2dVertex
 10
254.580246
 20
99.299713
 30
0.0
  0
VERTEX
  5
3DE
330
3D1
100
AcDbEntity
  8
0
370
     0
100
AcDbVertex
100
AcDb2dVertex
 10
253.95993
 20
99.299713
 30
0.0
  0
SEQEND
  5
3DF
330
3D1
100
AcDbEntity
  8
0
 62
     7
370
    13
  0
POLYLINE
  5
3E0
330
1F
100
AcDbEntity
  8
0
 62
     7
370
    13
100
AcDb2dPolyline
 66
     1
 10
0.0
 20
0.0
 30
0.0
 70
     1
  0
VERTEX
  5
3E1
330
3E0
100
AcDbEntity
  8
0
370
     0
100
AcDbVertex
100
AcDb2dVertex
 10
256.723633
 20
95.799713
 30
0.0
  0
VERTEX
  5
3E2
330
3E0
100
AcDbEntity
  8
0
370
     0
100
AcDbVertex
100
AcDb2dVertex
 10
257.187592
 20
95.799713
 30
0.0
  0
VERTEX
  5
3E3
330
3E0
100
AcDbEntity
  8
0
370
     0
100
AcDbVertex
100
AcDb2dVertex
 10
257.555756
 20
96.828529
 30
0.0
  0
VERTEX
  5
3E4
330
3E0
100
AcDbEntity
  8
0
370
     0
100
AcDbVertex
100
AcDb2dVertex
 10
258.952728
 20
96.828529
 30
0.0
  0
VERTEX
  5
3E5
330
3E0
100
AcDbEntity
  8
0
370
     0
100
AcDbVertex
100
AcDb2dVertex
 10
259.320892
 20
95.799713
 30
0.0
  0
VERTEX
  5
3E6
330
3E0
100
AcDbEntity
  8
0
370
     0
100
AcDbVertex
100
AcDb2dVertex
 10
259.794952
 20
95.799713
 30
0.0
  0
VERTEX
  5
3E7
330
3E0
100
AcDbEntity
  8
0
370
     0
100
AcDbVertex
100
AcDb2dVertex
 10
258.513977
 20
99.304756
 30
0.0
  0
VERTEX
  5
3E8
330
3E0
100
AcDbEntity
  8
0
370
     0
100
AcDbVertex
100
AcDb2dVertex
 10
257.999573
 20
99.304756
 30
0.0
  0
SEQEND
  5
3E9
330
3E0
100
AcDbEntity
  8
0
 62
     7
370
    13
  0
POLYLINE
  5
3EA
330
1F
100
AcDbEntity
  8
0
 62
     7
370
    13
100
AcDb2dPolyline
 66
     1
 10
0.0
 20
0.0
 30
0.0
 70
     1
  0
VERTEX
  5
3EB
330
3EA
100
AcDbEntity
  8
0
370
     0
100
AcDbVertex
100
AcDb2dVertex
 10
257.717133
 20
97.257202
 30
0.0
  0
VERTEX
  5
3EC
330
3EA
100
AcDbEntity
  8
0
370
     0
100
AcDbVertex
100
AcDb2dVertex
 10
258.256775
 20
98.80043
 30
0.0
  0
VERTEX
  5
3ED
330
3EA
100
AcDbEntity
  8
0
370
     0
100
AcDbVertex
100
AcDb2dVertex
 10
258.796387
 20
97.257202
 30
0.0
  0
SEQEND
  5
3EE
330
3EA
100
AcDbEntity
  8
0
 62
     7
370
    13
  0
POLYLINE
  5
3EF
330
1F
100
AcDbEntity
  8
0
 62
     7
370
    13
100
AcDb2dPolyline
 66
     1
 10
0.0
 20
0.0
 30
0.0
 70
     1
  0
VERTEX
  5
3F0
330
3EF
100
AcDbEntity
  8
0
370
     0
100
AcDbVertex
100
AcDb2dVertex
 10
261.060791
 20
95.799713
 30
0.0
  0
VERTEX
  5
3F1
330
3EF
100
AcDbEntity
  8
0
370
     0
100
AcDbVertex
100
AcDb2dVertex
 10
261.52478
 20
95.799713
 30
0.0
  0
VERTEX
  5
3F2
330
3EF
100
AcDbEntity
  8
0
370
     0
100
AcDbVertex
100
AcDb2dVertex
 10
261.52478
 20
98.876083
 30
0.0
  0
VERTEX
  5
3F3
330
3EF
100
AcDbEntity
  8
0
370
     0
100
AcDbVertex
100
AcDb2dVertex
 10
262.583862
 20
98.876083
 30
0.0
  0
VERTEX
  5
3F4
330
3EF
100
AcDbEntity
  8
0
370
     0
100
AcDbVertex
100
AcDb2dVertex
 10
262.583862
 20
99.299713
 30
0.0
  0
VERTEX
  5
3F5
330
3EF
100
AcDbEntity
  8
0
370
     0
100
AcDbVertex
100
AcDb2dVertex
 10
259.996674
 20
99.299713
 30
0.0
  0
VERTEX
  5
3F6
330
3EF
100
AcDbEntity
  8
0
370
     0
100
AcDbVertex
100
AcDb2dVertex
 10
259.996674
 20
98.876083
 30
0.0
  0
VERTEX
  5
3F7
330
3EF
100
AcDbEntity
  8
0
370
     0
100
AcDbVertex
100
AcDb2dVertex
 10
261.060791
 20
98.876083
 30
0.0
  0
SEQEND
  5
3F8
330
3EF
100
AcDbEntity
  8
0
 62
     7
370
    13
  0
POLYLINE
  5
3F9
330
1F
100
AcDbEntity
  8
0
 62
     7
370
    13
100
AcDb2dPolyline
 66
     1
 10
0.0
 20
0.0
 30
0.0
 70
     1
  0
VERTEX
  5
3FA
330
3F9
100
AcDbEntity
  8
0
370
     0
100
AcDbVertex
100
AcDb2dVertex
 10
263.269745
 20
95.799713
 30
0.0
  0
VERTEX
  5
3FB
330
3F9
100
AcDbEntity
  8
0
370
     0
100
AcDbVertex
100
AcDb2dVertex
 10
265.488739
 20
95.799713
 30
0.0
  0
VERTEX
  5
3FC
330
3F9
100
AcDbEntity
  8
0
370
     0
100
AcDbVertex
100
AcDb2dVertex
 10
265.488739
 20
96.223343
 30
0.0
  0
VERTEX
  5
3FD
330
3F9
100
AcDbEntity
  8
0
370
     0
100
AcDbVertex
100
AcDb2dVertex
 10
263.733704
 20
96.223343
 30
0.0
  0
VERTEX
  5
3FE
330
3F9
100
AcDbEntity
  8
0
370
     0
100
AcDbVertex
100
AcDb2dVertex
 10
263.733704
 20
97.408501
 30
0.0
  0
VERTEX
  5
3FF
330
3F9
100
AcDbEntity
  8
0
370
     0
100
AcDbVertex
100
AcDb2dVertex
 10
265.297119
 20
97.408501
 30
0.0
  0
VERTEX
  5
400
330
3F9
100
AcDbEntity
  8
0
370
     0
100
AcDbVertex
100
AcDb2dVertex
 10
265.297119
 20
97.827087
 30
0.0
  0
VERTEX
  5
401
330
3F9
100
AcDbEntity
  8
0
370
     0
100
AcDbVertex
100
AcDb2dVertex
 10
263.733704
 20
97.827087
 30
0.0
  0
VERTEX
  5
402
330
3F9
100
AcDbEntity
  8
0
370
     0
100
AcDbVertex
100
AcDb2dVertex
 10
263.733704
 20
98.876083
 30
0.0
  0
VERTEX
  5
403
330
3F9
100
AcDbEntity
  8
0
370
     0
100
AcDbVertex
100
AcDb2dVertex
 10
265.448395
 20
98.876083
 30
0.0
  0
VERTEX
  5
404
330
3F9
100
AcDbEntity
  8
0
370
     0
100
AcDbVertex
100
AcDb2dVertex
 10
265.448395
 20
99.299713
 30
0.0
  0
VERTEX
  5
405
330
3F9
100
AcDbEntity
  8
0
370
     0
100
AcDbVertex
100
AcDb2dVertex
 10
263.269745
 20
99.299713
 30
0.0
  0
SEQEND
  5
406
330
3F9
100
AcDbEntity
  8
0
 62
     7
370
    13
  0
POLYLINE
  5
407
330
1F
100
AcDbEntity
  8
0
 62
     7
370
    13
100
AcDb2dPolyline
 66
     1
 10
0.0
 20
0.0
 30
0.0
 70
     1
  0
VERTEX
  5
408
330
407
100
AcDbEntity
  8
0
370
     0
100
AcDbVertex
100
AcDb2dVertex
 10
266.240204
 20
95.799713
 30
0.0
  0
VERTEX
  5
409
330
407
100
AcDbEntity
  8
0
370
     0
100
AcDbVertex
100
AcDb2dVertex
 10
266.709229
 20
95.799713
 30
0.0
  0
VERTEX
  5
40A
330
407
100
AcDbEntity
  8
0
370
     0
100
AcDbVertex
100
AcDb2dVertex
 10
266.709229
 20
97.277382
 30
0.0
  0
VERTEX
  5
40B
330
407
100
AcDbEntity
  8
0
370
     0
100
AcDbVertex
100
AcDb2dVertex
 10
267.188324
 20
97.277382
 30
0.0
  0
VERTEX
  5
40C
330
407
100
AcDbEntity
  8
0
370
     0
100
AcDbVertex
100
AcDb2dVertex
 10
267.541351
 20
97.262253
 30
0.0
  0
VERTEX
  5
40D
330
407
100
AcDbEntity
  8
0
370
     0
100
AcDbVertex
100
AcDb2dVertex
 10
267.763245
 20
97.191643
 30
0.0
  0
VERTEX
  5
40E
330
407
100
AcDbEntity
  8
0
370
     0
100
AcDbVertex
100
AcDb2dVertex
 10
267.884277
 20
97.025215
 30
0.0
  0
VERTEX
  5
40F
330
407
100
AcDbEntity
  8
0
370
     0
100
AcDbVertex
100
AcDb2dVertex
 10
267.934723
 20
96.727669
 30
0.0
  0
VERTEX
  5
410
330
407
100
AcDbEntity
  8
0
370
     0
100
AcDbVertex
100
AcDb2dVertex
 10
267.95993
 20
96.273773
 30
0.0
  0
VERTEX
  5
411
330
407
100
AcDbEntity
  8
0
370
     0
100
AcDbVertex
100
AcDb2dVertex
 10
267.990204
 20
95.976227
 30
0.0
  0
VERTEX
  5
412
330
407
100
AcDbEntity
  8
0
370
     0
100
AcDbVertex
100
AcDb2dVertex
 10
268.05072
 20
95.799713
 30
0.0
  0
VERTEX
  5
413
330
407
100
AcDbEntity
  8
0
370
     0
100
AcDbVertex
100
AcDb2dVertex
 10
268.580261
 20
95.799713
 30
0.0
  0
VERTEX
  5
414
330
407
100
AcDbEntity
  8
0
370
     0
100
AcDbVertex
100
AcDb2dVertex
 10
268.580261
 20
95.895531
 30
0.0
  0
VERTEX
  5
415
330
407
100
AcDbEntity
  8
0
370
     0
100
AcDbVertex
100
AcDb2dVertex
 10
268.464264
 20
96.036743
 30
0.0
  0
VERTEX
  5
416
330
407
100
AcDbEntity
  8
0
370
     0
100
AcDbVertex
100
AcDb2dVertex
 10
268.42392
 20
96.298996
 30
0.0
  0
VERTEX
  5
417
330
407
100
AcDbEntity
  8
0
370
     0
100
AcDbVertex
100
AcDb2dVertex
 10
268.388611
 20
96.863831
 30
0.0
  0
VERTEX
  5
418
330
407
100
AcDbEntity
  8
0
370
     0
100
AcDbVertex
100
AcDb2dVertex
 10
268.302887
 20
97.282425
 30
0.0
  0
VERTEX
  5
419
330
407
100
AcDbEntity
  8
0
370
     0
100
AcDbVertex
100
AcDb2dVertex
 10
268.18689
 20
97.413544
 30
0.0
  0
VERTEX
  5
41A
330
407
100
AcDbEntity
  8
0
370
     0
100
AcDbVertex
100
AcDb2dVertex
 10
268.00531
 20
97.509369
 30
0.0
  0
VERTEX
  5
41B
330
407
100
AcDbEntity
  8
0
370
     0
100
AcDbVertex
100
AcDb2dVertex
 10
268.207062
 20
97.635445
 30
0.0
  0
VERTEX
  5
41C
330
407
100
AcDbEntity
  8
0
370
     0
100
AcDbVertex
100
AcDb2dVertex
 10
268.348267
 20
97.811958
 30
0.0
  0
VERTEX
  5
41D
330
407
100
AcDbEntity
  8
0
370
     0
100
AcDbVertex
100
AcDb2dVertex
 10
268.439026
 20
98.033859
 30
0.0
  0
VERTEX
  5
41E
330
407
100
AcDbEntity
  8
0
370
     0
100
AcDbVertex
100
AcDb2dVertex
 10
268.469299
 20
98.301155
 30
0.0
  0
VERTEX
  5
41F
330
407
100
AcDbEntity
  8
0
370
     0
100
AcDbVertex
100
AcDb2dVertex
 10
268.398682
 20
98.724785
 30
0.0
  0
VERTEX
  5
420
330
407
100
AcDbEntity
  8
0
370
     0
100
AcDbVertex
100
AcDb2dVertex
 10
268.19696
 20
99.042511
 30
0.0
  0
VERTEX
  5
421
330
407
100
AcDbEntity
  8
0
370
     0
100
AcDbVertex
100
AcDb2dVertex
 10
267.864105
 20
99.234154
 30
0.0
  0
VERTEX
  5
422
330
407
100
AcDbEntity
  8
0
370
     0
100
AcDbVertex
100
AcDb2dVertex
 10
267.410217
 20
99.299713
 30
0.0
  0
VERTEX
  5
423
330
407
100
AcDbEntity
  8
0
370
     0
100
AcDbVertex
100
AcDb2dVertex
 10
266.240204
 20
99.299713
 30
0.0
  0
SEQEND
  5
424
330
407
100
AcDbEntity
  8
0
 62
     7
370
    13
  0
POLYLINE
  5
425
330
1F
100
AcDbEntity
  8
0
 62
     7
370
    13
100
AcDb2dPolyline
 66
     1
 10
0.0
 20
0.0
 30
0.0
 70
     1
  0
VERTEX
  5
426
330
425
100
AcDbEntity
  8
0
370
     0
100
AcDbVertex
100
AcDb2dVertex
 10
267.279083
 20
98.87104
 30
0.0
  0
VERTEX
  5
427
330
425
100
AcDbEntity
  8
0
370
     0
100
AcDbVertex
100
AcDb2dVertex
 10
267.586731
 20
98.840782
 30
0.0
  0
VERTEX
  5
428
330
425
100
AcDbEntity
  8
0
370
     0
100
AcDbVertex
100
AcDb2dVertex
 10
267.803589
 20
98.744957
 30
0.0
  0
VERTEX
  5
429
330
425
100
AcDbEntity
  8
0
370
     0
100
AcDbVertex
100
AcDb2dVertex
 10
267.939758
 20
98.568443
 30
0.0
  0
VERTEX
  5
42A
330
425
100
AcDbEntity
  8
0
370
     0
100
AcDbVertex
100
AcDb2dVertex
 10
267.985138
 20
98.291069
 30
0.0
  0
VERTEX
  5
42B
330
425
100
AcDbEntity
  8
0
370
     0
100
AcDbVertex
100
AcDb2dVertex
 10
267.934723
 20
97.998558
 30
0.0
  0
VERTEX
  5
42C
330
425
100
AcDbEntity
  8
0
370
     0
100
AcDbVertex
100
AcDb2dVertex
 10
267.798553
 20
97.822044
 30
0.0
  0
VERTEX
  5
42D
330
425
100
AcDbEntity
  8
0
370
     0
100
AcDbVertex
100
AcDb2dVertex
 10
267.566559
 20
97.73127
 30
0.0
  0
VERTEX
  5
42E
330
425
100
AcDbEntity
  8
0
370
     0
100
AcDbVertex
100
AcDb2dVertex
 10
267.24884
 20
97.706055
 30
0.0
  0
VERTEX
  5
42F
330
425
100
AcDbEntity
  8
0
370
     0
100
AcDbVertex
100
AcDb2dVertex
 10
266.709229
 20
97.706055
 30
0.0
  0
VERTEX
  5
430
330
425
100
AcDbEntity
  8
0
370
     0
100
AcDbVertex
100
AcDb2dVertex
 10
266.709229
 20
98.87104
 30
0.0
  0
SEQEND
  5
431
330
425
100
AcDbEntity
  8
0
 62
     7
370
    13
  0
POLYLINE
  5
432
330
1F
100
AcDbEntity
  8
0
 62
     7
370
    13
100
AcDb2dPolyline
 66
     1
 10
0.0
 20
0.0
 30
0.0
 70
     1
  0
VERTEX
  5
433
330
432
100
AcDbEntity
  8
0
370
     0
100
AcDbVertex
100
AcDb2dVertex
 10
270.168854
 20
96.223343
 30
0.0
  0
VERTEX
  5
434
330
432
100
AcDbEntity
  8
0
370
     0
100
AcDbVertex
100
AcDb2dVertex
 10
269.523346
 20
96.223343
 30
0.0
  0
VERTEX
  5
435
330
432
100
AcDbEntity
  8
0
370
     0
100
AcDbVertex
100
AcDb2dVertex
 10
269.523346
 20
95.799713
 30
0.0
  0
VERTEX
  5
436
330
432
100
AcDbEntity
  8
0
370
     0
100
AcDbVertex
100
AcDb2dVertex
 10
271.278381
 20
95.799713
 30
0.0
  0
VERTEX
  5
437
330
432
100
AcDbEntity
  8
0
370
     0
100
AcDbVertex
100
AcDb2dVertex
 10
271.278381
 20
96.223343
 30
0.0
  0
VERTEX
  5
438
330
432
100
AcDbEntity
  8
0
370
     0
100
AcDbVertex
100
AcDb2dVertex
 10
270.632843
 20
96.223343
 30
0.0
  0
VERTEX
  5
439
330
432
100
AcDbEntity
  8
0
370
     0
100
AcDbVertex
100
AcDb2dVertex
 10
270.632843
 20
98.876083
 30
0.0
  0
VERTEX
  5
43A
330
432
100
AcDbEntity
  8
0
370
     0
100
AcDbVertex
100
AcDb2dVertex
 10
271.278381
 20
98.876083
 30
0.0
  0
VERTEX
  5
43B
330
432
100
AcDbEntity
  8
0
370
     0
100
AcDbVertex
100
AcDb2dVertex
 10
271.278381
 20
99.299713
 30
0.0
  0
VERTEX
  5
43C
330
432
100
AcDbEntity
  8
0
370
     0
100
AcDbVertex
100
AcDb2dVertex
 10
269.523346
 20
99.299713
 30
0.0
  0
VERTEX
  5
43D
330
432
100
AcDbEntity
  8
0
370
     0
100
AcDbVertex
100
AcDb2dVertex
 10
269.523346
 20
98.876083
 30
0.0
  0
VERTEX
  5
43E
330
432
100
AcDbEntity
  8
0
370
     0
100
AcDbVertex
100
AcDb2dVertex
 10
270.168854
 20
98.876083
 30
0.0
  0
SEQEND
  5
43F
330
432
100
AcDbEntity
  8
0
 62
     7
370
    13
  0
POLYLINE
  5
440
330
1F
100
AcDbEntity
  8
0
 62
     7
370
    13
100
AcDb2dPolyline
 66
     1
 10
0.0
 20
0.0
 30
0.0
 70
     1
  0
VERTEX
  5
441
330
440
100
AcDbEntity
  8
0
370
     0
100
AcDbVertex
100
AcDb2dVertex
 10
271.903748
 20
95.799713
 30
0.0
  0
VERTEX
  5
442
330
440
100
AcDbEntity
  8
0
370
     0
100
AcDbVertex
100
AcDb2dVertex
 10
272.367706
 20
95.799713
 30
0.0
  0
VERTEX
  5
443
330
440
100
AcDbEntity
  8
0
370
     0
100
AcDbVertex
100
AcDb2dVertex
 10
272.73587
 20
96.828529
 30
0.0
  0
VERTEX
  5
444
330
440
100
AcDbEntity
  8
0
370
     0
100
AcDbVertex
100
AcDb2dVertex
 10
274.132843
 20
96.828529
 30
0.0
  0
VERTEX
  5
445
330
440
100
AcDbEntity
  8
0
370
     0
100
AcDbVertex
100
AcDb2dVertex
 10
274.501007
 20
95.799713
 30
0.0
  0
VERTEX
  5
446
330
440
100
AcDbEntity
  8
0
370
     0
100
AcDbVertex
100
AcDb2dVertex
 10
274.975067
 20
95.799713
 30
0.0
  0
VERTEX
  5
447
330
440
100
AcDbEntity
  8
0
370
     0
100
AcDbVertex
100
AcDb2dVertex
 10
273.694092
 20
99.304756
 30
0.0
  0
VERTEX
  5
448
330
440
100
AcDbEntity
  8
0
370
     0
100
AcDbVertex
100
AcDb2dVertex
 10
273.179688
 20
99.304756
 30
0.0
  0
SEQEND
  5
449
330
440
100
AcDbEntity
  8
0
 62
     7
370
    13
  0
POLYLINE
  5
44A
330
1F
100
AcDbEntity
  8
0
 62
     7
370
    13
100
AcDb2dPolyline
 66
     1
 10
0.0
 20
0.0
 30
0.0
 70
     1
  0
VERTEX
  5
44B
330
44A
100
AcDbEntity
  8
0
370
     0
100
AcDbVertex
100
AcDb2dVertex
 10
272.897247
 20
97.257202
 30
0.0
  0
VERTEX
  5
44C
330
44A
100
AcDbEntity
  8
0
370
     0
100
AcDbVertex
100
AcDb2dVertex
 10
273.43689
 20
98.80043
 30
0.0
  0
VERTEX
  5
44D
330
44A
100
AcDbEntity
  8
0
370
     0
100
AcDbVertex
100
AcDb2dVertex
 10
273.976501
 20
97.257202
 30
0.0
  0
SEQEND
  5
44E
330
44A
100
AcDbEntity
  8
0
 62
     7
370
    13
  0
POLYLINE
  5
44F
330
1F
100
AcDbEntity
  8
0
 62
     7
370
    13
100
AcDb2dPolyline
 66
     1
 10
0.0
 20
0.0
 30
0.0
 70
     1
  0
VERTEX
  5
450
330
44F
100
AcDbEntity
  8
0
370
     0
100
AcDbVertex
100
AcDb2dVertex
 10
275.449127
 20
95.799713
 30
0.0
  0
VERTEX
  5
451
330
44F
100
AcDbEntity
  8
0
370
     0
100
AcDbVertex
100
AcDb2dVertex
 10
277.698395
 20
95.799713
 30
0.0
  0
VERTEX
  5
452
330
44F
100
AcDbEntity
  8
0
370
     0
100
AcDbVertex
100
AcDb2dVertex
 10
277.698395
 20
96.223343
 30
0.0
  0
VERTEX
  5
453
330
44F
100
AcDbEntity
  8
0
370
     0
100
AcDbVertex
100
AcDb2dVertex
 10
275.913116
 20
96.223343
 30
0.0
  0
VERTEX
  5
454
330
44F
100
AcDbEntity
  8
0
370
     0
100
AcDbVertex
100
AcDb2dVertex
 10
275.913116
 20
99.299713
 30
0.0
  0
VERTEX
  5
455
330
44F
100
AcDbEntity
  8
0
370
     0
100
AcDbVertex
100
AcDb2dVertex
 10
275.449127
 20
99.299713
 30
0.0
  0
SEQEND
  5
456
330
44F
100
AcDbEntity
  8
0
 62
     7
370
    13
  0
POLYLINE
  5
457
330
1F
100
AcDbEntity
  8
0
 62
     7
370
    13
100
AcDb2dPolyline
 66
     1
 10
0.0
 20
0.0
 30
0.0
 70
     1
  0
VERTEX
  5
458
330
457
100
AcDbEntity
  8
0
370
     0
100
AcDbVertex
100
AcDb2dVertex
 10
279.16095
 20
95.799713
 30
0.0
  0
VERTEX
  5
459
330
457
100
AcDbEntity
  8
0
370
     0
100
AcDbVertex
100
AcDb2dVertex
 10
279.856903
 20
95.799713
 30
0.0
  0
VERTEX
  5
45A
330
457
100
AcDbEntity
  8
0
370
     0
100
AcDbVertex
100
AcDb2dVertex
 10
279.856903
 20
96.551155
 30
0.0
  0
VERTEX
  5
45B
330
457
100
AcDbEntity
  8
0
370
     0
100
AcDbVertex
100
AcDb2dVertex
 10
279.16095
 20
96.551155
 30
0.0
  0
SEQEND
  5
45C
330
457
100
AcDbEntity
  8
0
 62
     7
370
    13
  0
POLYLINE
  5
45D
330
1F
100
AcDbEntity
  8
0
 62
     7
370
    13
100
AcDb2dPolyline
 66
     1
 10
0.0
 20
0.0
 30
0.0
 70
     1
  0
VERTEX
  5
45E
330
45D
100
AcDbEntity
  8
0
370
     0
100
AcDbVertex
100
AcDb2dVertex
 10
279.16095
 20
97.756485
 30
0.0
  0
VERTEX
  5
45F
330
45D
100
AcDbEntity
  8
0
370
     0
100
AcDbVertex
100
AcDb2dVertex
 10
279.856903
 20
97.756485
 30
0.0
  0
VERTEX
  5
460
330
45D
100
AcDbEntity
  8
0
370
     0
100
AcDbVertex
100
AcDb2dVertex
 10
279.856903
 20
98.507927
 30
0.0
  0
VERTEX
  5
461
330
45D
100
AcDbEntity
  8
0
370
     0
100
AcDbVertex
100
AcDb2dVertex
 10
279.16095
 20
98.507927
 30
0.0
  0
SEQEND
  5
462
330
45D
100
AcDbEntity
  8
0
 62
     7
370
    13
  0
POLYLINE
  5
463
330
1F
100
AcDbEntity
  8
0
 62
     7
370
    13
100
AcDb2dPolyline
 66
     1
 10
0.0
 20
0.0
 30
0.0
 70
     1
  0
VERTEX
  5
464
330
463
100
AcDbEntity
  8
0
370
     0
100
AcDbVertex
100
AcDb2dVertex
 10
284.047821
 20
95.799713
 30
0.0
  0
VERTEX
  5
465
330
463
100
AcDbEntity
  8
0
370
     0
100
AcDbVertex
100
AcDb2dVertex
 10
284.51181
 20
95.799713
 30
0.0
  0
VERTEX
  5
466
330
463
100
AcDbEntity
  8
0
370
     0
100
AcDbVertex
100
AcDb2dVertex
 10
284.879974
 20
96.828529
 30
0.0
  0
VERTEX
  5
467
330
463
100
AcDbEntity
  8
0
370
     0
100
AcDbVertex
100
AcDb2dVertex
 10
286.276947
 20
96.828529
 30
0.0
  0
VERTEX
  5
468
330
463
100
AcDbEntity
  8
0
370
     0
100
AcDbVertex
100
AcDb2dVertex
 10
286.645081
 20
95.799713
 30
0.0
  0
VERTEX
  5
469
330
463
100
AcDbEntity
  8
0
370
     0
100
AcDbVertex
100
AcDb2dVertex
 10
287.119141
 20
95.799713
 30
0.0
  0
VERTEX
  5
46A
330
463
100
AcDbEntity
  8
0
370
     0
100
AcDbVertex
100
AcDb2dVertex
 10
285.838165
 20
99.304756
 30
0.0
  0
VERTEX
  5
46B
330
463
100
AcDbEntity
  8
0
370
     0
100
AcDbVertex
100
AcDb2dVertex
 10
285.323761
 20
99.304756
 30
0.0
  0
SEQEND
  5
46C
330
463
100
AcDbEntity
  8
0
 62
     7
370
    13
  0
POLYLINE
  5
46D
330
1F
100
AcDbEntity
  8
0
 62
     7
370
    13
100
AcDb2dPolyline
 66
     1
 10
0.0
 20
0.0
 30
0.0
 70
     1
  0
VERTEX
  5
46E
330
46D
100
AcDbEntity
  8
0
370
     0
100
AcDbVertex
100
AcDb2dVertex
 10
285.041351
 20
97.257202
 30
0.0
  0
VERTEX
  5
46F
330
46D
100
AcDbEntity
  8
0
370
     0
100
AcDbVertex
100
AcDb2dVertex
 10
285.580963
 20
98.80043
 30
0.0
  0
VERTEX
  5
470
330
46D
100
AcDbEntity
  8
0
370
     0
100
AcDbVertex
100
AcDb2dVertex
 10
286.120605
 20
97.257202
 30
0.0
  0
SEQEND
  5
471
330
46D
100
AcDbEntity
  8
0
 62
     7
370
    13
  0
POLYLINE
  5
472
330
1F
100
AcDbEntity
  8
0
 62
     7
370
    13
100
AcDb2dPolyline
 66
     1
 10
0.0
 20
0.0
 30
0.0
 70
     1
  0
VERTEX
  5
473
330
472
100
AcDbEntity
  8
0
370
     0
100
AcDbVertex
100
AcDb2dVertex
 10
287.593201
 20
95.799713
 30
0.0
  0
VERTEX
  5
474
330
472
100
AcDbEntity
  8
0
370
     0
100
AcDbVertex
100
AcDb2dVertex
 10
289.842499
 20
95.799713
 30
0.0
  0
VERTEX
  5
475
330
472
100
AcDbEntity
  8
0
370
     0
100
AcDbVertex
100
AcDb2dVertex
 10
289.842499
 20
96.223343
 30
0.0
  0
VERTEX
  5
476
330
472
100
AcDbEntity
  8
0
370
     0
100
AcDbVertex
100
AcDb2dVertex
 10
288.05719
 20
96.223343
 30
0.0
  0
VERTEX
  5
477
330
472
100
AcDbEntity
  8
0
370
     0
100
AcDbVertex
100
AcDb2dVertex
 10
288.05719
 20
99.299713
 30
0.0
  0
VERTEX
  5
478
330
472
100
AcDbEntity
  8
0
370
     0
100
AcDbVertex
100
AcDb2dVertex
 10
287.593201
 20
99.299713
 30
0.0
  0
SEQEND
  5
479
330
472
100
AcDbEntity
  8
0
 62
     7
370
    13
  0
POLYLINE
  5
47A
330
1F
100
AcDbEntity
  8
0
 62
     7
370
    13
100
AcDb2dPolyline
 66
     1
 10
0.0
 20
0.0
 30
0.0
 70
     1
  0
VERTEX
  5
47B
330
47A
100
AcDbEntity
  8
0
370
     0
100
AcDbVertex
100
AcDb2dVertex
 10
290.447693
 20
97.131126
 30
0.0
  0
VERTEX
  5
47C
330
47A
100
AcDbEntity
  8
0
370
     0
100
AcDbVertex
100
AcDb2dVertex
 10
290.51828
 20
96.500725
 30
0.0
  0
VERTEX
  5
47D
330
47A
100
AcDbEntity
  8
0
370
     0
100
AcDbVertex
100
AcDb2dVertex
 10
290.740173
 20
96.051872
 30
0.0
  0
VERTEX
  5
47E
330
47A
100
AcDbEntity
  8
0
370
     0
100
AcDbVertex
100
AcDb2dVertex
 10
291.113403
 20
95.79467
 30
0.0
  0
VERTEX
  5
47F
330
47A
100
AcDbEntity
  8
0
370
     0
100
AcDbVertex
100
AcDb2dVertex
 10
291.653015
 20
95.703896
 30
0.0
  0
VERTEX
  5
480
330
47A
100
AcDbEntity
  8
0
370
     0
100
AcDbVertex
100
AcDb2dVertex
 10
292.187592
 20
95.79467
 30
0.0
  0
VERTEX
  5
481
330
47A
100
AcDbEntity
  8
0
370
     0
100
AcDbVertex
100
AcDb2dVertex
 10
292.560791
 20
96.051872
 30
0.0
  0
VERTEX
  5
482
330
47A
100
AcDbEntity
  8
0
370
     0
100
AcDbVertex
100
AcDb2dVertex
 10
292.782684
 20
96.495682
 30
0.0
  0
VERTEX
  5
483
330
47A
100
AcDbEntity
  8
0
370
     0
100
AcDbVertex
100
AcDb2dVertex
 10
292.858337
 20
97.131126
 30
0.0
  0
VERTEX
  5
484
330
47A
100
AcDbEntity
  8
0
370
     0
100
AcDbVertex
100
AcDb2dVertex
 10
292.858337
 20
99.299713
 30
0.0
  0
VERTEX
  5
485
330
47A
100
AcDbEntity
  8
0
370
     0
100
AcDbVertex
100
AcDb2dVertex
 10
292.389313
 20
99.299713
 30
0.0
  0
VERTEX
  5
486
330
47A
100
AcDbEntity
  8
0
370
     0
100
AcDbVertex
100
AcDb2dVertex
 10
292.389313
 20
97.105911
 30
0.0
  0
VERTEX
  5
487
330
47A
100
AcDbEntity
  8
0
370
     0
100
AcDbVertex
100
AcDb2dVertex
 10
292.343933
 20
96.677238
 30
0.0
  0
VERTEX
  5
488
330
47A
100
AcDbEntity
  8
0
370
     0
100
AcDbVertex
100
AcDb2dVertex
 10
292.207764
 20
96.369598
 30
0.0
  0
VERTEX
  5
489
330
47A
100
AcDbEntity
  8
0
370
     0
100
AcDbVertex
100
AcDb2dVertex
 10
291.975769
 20
96.188042
 30
0.0
  0
VERTEX
  5
48A
330
47A
100
AcDbEntity
  8
0
370
     0
100
AcDbVertex
100
AcDb2dVertex
 10
291.653015
 20
96.127525
 30
0.0
  0
VERTEX
  5
48B
330
47A
100
AcDbEntity
  8
0
370
     0
100
AcDbVertex
100
AcDb2dVertex
 10
291.32016
 20
96.188042
 30
0.0
  0
VERTEX
  5
48C
330
47A
100
AcDbEntity
  8
0
370
     0
100
AcDbVertex
100
AcDb2dVertex
 10
291.088165
 20
96.369598
 30
0.0
  0
VERTEX
  5
48D
330
47A
100
AcDbEntity
  8
0
370
     0
100
AcDbVertex
100
AcDb2dVertex
 10
290.951996
 20
96.672188
 30
0.0
  0
VERTEX
  5
48E
330
47A
100
AcDbEntity
  8
0
370
     0
100
AcDbVertex
100
AcDb2dVertex
 10
290.911652
 20
97.105911
 30
0.0
  0
VERTEX
  5
48F
330
47A
100
AcDbEntity
  8
0
370
     0
100
AcDbVertex
100
AcDb2dVertex
 10
290.911652
 20
99.299713
 30
0.0
  0
VERTEX
  5
490
330
47A
100
AcDbEntity
  8
0
370
     0
100
AcDbVertex
100
AcDb2dVertex
 10
290.447693
 20
99.299713
 30
0.0
  0
SEQEND
  5
491
330
47A
100
AcDbEntity
  8
0
 62
     7
370
    13
  0
POLYLINE
  5
492
330
1F
100
AcDbEntity
  8
0
 62
     7
370
    13
100
AcDb2dPolyline
 66
     1
 10
0.0
 20
0.0
 30
0.0
 70
     1
  0
VERTEX
  5
493
330
492
100
AcDbEntity
  8
0
370
     0
100
AcDbVertex
100
AcDb2dVertex
 10
293.428223
 20
95.799713
 30
0.0
  0
VERTEX
  5
494
330
492
100
AcDbEntity
  8
0
370
     0
100
AcDbVertex
100
AcDb2dVertex
 10
293.816559
 20
95.799713
 30
0.0
  0
VERTEX
  5
495
330
492
100
AcDbEntity
  8
0
370
     0
100
AcDbVertex
100
AcDb2dVertex
 10
293.816559
 20
98.976944
 30
0.0
  0
VERTEX
  5
496
330
492
100
AcDbEntity
  8
0
370
     0
100
AcDbVertex
100
AcDb2dVertex
 10
294.472168
 20
95.799713
 30
0.0
  0
VERTEX
  5
497
330
492
100
AcDbEntity
  8
0
370
     0
100
AcDbVertex
100
AcDb2dVertex
 10
294.905884
 20
95.799713
 30
0.0
  0
VERTEX
  5
498
330
492
100
AcDbEntity
  8
0
370
     0
100
AcDbVertex
100
AcDb2dVertex
 10
295.556458
 20
98.976944
 30
0.0
  0
VERTEX
  5
499
330
492
100
AcDbEntity
  8
0
370
     0
100
AcDbVertex
100
AcDb2dVertex
 10
295.556458
 20
95.799713
 30
0.0
  0
VERTEX
  5
49A
330
492
100
AcDbEntity
  8
0
370
     0
100
AcDbVertex
100
AcDb2dVertex
 10
295.949829
 20
95.799713
 30
0.0
  0
VERTEX
  5
49B
330
492
100
AcDbEntity
  8
0
370
     0
100
AcDbVertex
100
AcDb2dVertex
 10
295.949829
 20
99.299713
 30
0.0
  0
VERTEX
  5
49C
330
492
100
AcDbEntity
  8
0
370
     0
100
AcDbVertex
100
AcDb2dVertex
 10
295.334564
 20
99.299713
 30
0.0
  0
VERTEX
  5
49D
330
492
100
AcDbEntity
  8
0
370
     0
100
AcDbVertex
100
AcDb2dVertex
 10
294.689026
 20
96.213257
 30
0.0
  0
VERTEX
  5
49E
330
492
100
AcDbEntity
  8
0
370
     0
100
AcDbVertex
100
AcDb2dVertex
 10
294.048553
 20
99.299713
 30
0.0
  0
VERTEX
  5
49F
330
492
100
AcDbEntity
  8
0
370
     0
100
AcDbVertex
100
AcDb2dVertex
 10
293.428223
 20
99.299713
 30
0.0
  0
SEQEND
  5
4A0
330
492
100
AcDbEntity
  8
0
 62
     7
370
    13
  0
POLYLINE
  5
4A1
330
1F
100
AcDbEntity
  8
0
 62
     7
370
    13
100
AcDb2dPolyline
 66
     1
 10
0.0
 20
0.0
 30
0.0
 70
     1
  0
VERTEX
  5
4A2
330
4A1
100
AcDbEntity
  8
0
370
     0
100
AcDbVertex
100
AcDb2dVertex
 10
297.493073
 20
96.223343
 30
0.0
  0
VERTEX
  5
4A3
330
4A1
100
AcDbEntity
  8
0
370
     0
100
AcDbVertex
100
AcDb2dVertex
 10
296.847534
 20
96.223343
 30
0.0
  0
VERTEX
  5
4A4
330
4A1
100
AcDbEntity
  8
0
370
     0
100
AcDbVertex
100
AcDb2dVertex
 10
296.847534
 20
95.799713
 30
0.0
  0
VERTEX
  5
4A5
330
4A1
100
AcDbEntity
  8
0
370
     0
100
AcDbVertex
100
AcDb2dVertex
 10
298.60257
 20
95.799713
 30
0.0
  0
VERTEX
  5
4A6
330
4A1
100
AcDbEntity
  8
0
370
     0
100
AcDbVertex
100
AcDb2dVertex
 10
298.60257
 20
96.223343
 30
0.0
  0
VERTEX
  5
4A7
330
4A1
100
AcDbEntity
  8
0
370
     0
100
AcDbVertex
100
AcDb2dVertex
 10
297.957031
 20
96.223343
 30
0.0
  0
VERTEX
  5
4A8
330
4A1
100
AcDbEntity
  8
0
370
     0
100
AcDbVertex
100
AcDb2dVertex
 10
297.957031
 20
98.876083
 30
0.0
  0
VERTEX
  5
4A9
330
4A1
100
AcDbEntity
  8
0
370
     0
100
AcDbVertex
100
AcDb2dVertex
 10
298.60257
 20
98.876083
 30
0.0
  0
VERTEX
  5
4AA
330
4A1
100
AcDbEntity
  8
0
370
     0
100
AcDbVertex
100
AcDb2dVertex
 10
298.60257
 20
99.299713
 30
0.0
  0
VERTEX
  5
4AB
330
4A1
100
AcDbEntity
  8
0
370
     0
100
AcDbVertex
100
AcDb2dVertex
 10
296.847534
 20
99.299713
 30
0.0
  0
VERTEX
  5
4AC
330
4A1
100
AcDbEntity
  8
0
370
     0
100
AcDbVertex
100
AcDb2dVertex
 10
296.847534
 20
98.876083
 30
0.0
  0
VERTEX
  5
4AD
330
4A1
100
AcDbEntity
  8
0
370
     0
100
AcDbVertex
100
AcDb2dVertex
 10
297.493073
 20
98.876083
 30
0.0
  0
SEQEND
  5
4AE
330
4A1
100
AcDbEntity
  8
0
 62
     7
370
    13
  0
POLYLINE
  5
4AF
330
1F
100
AcDbEntity
  8
0
 62
     7
370
    13
100
AcDb2dPolyline
 66
     1
 10
0.0
 20
0.0
 30
0.0
 70
     1
  0
VERTEX
  5
4B0
330
4AF
100
AcDbEntity
  8
0
370
     0
100
AcDbVertex
100
AcDb2dVertex
 10
299.611237
 20
95.799713
 30
0.0
  0
VERTEX
  5
4B1
330
4AF
100
AcDbEntity
  8
0
370
     0
100
AcDbVertex
100
AcDb2dVertex
 10
300.029816
 20
95.799713
 30
0.0
  0
VERTEX
  5
4B2
330
4AF
100
AcDbEntity
  8
0
370
     0
100
AcDbVertex
100
AcDb2dVertex
 10
300.029816
 20
98.669312
 30
0.0
  0
VERTEX
  5
4B3
330
4AF
100
AcDbEntity
  8
0
370
     0
100
AcDbVertex
100
AcDb2dVertex
 10
301.371307
 20
95.799713
 30
0.0
  0
VERTEX
  5
4B4
330
4AF
100
AcDbEntity
  8
0
370
     0
100
AcDbVertex
100
AcDb2dVertex
 10
301.91095
 20
95.799713
 30
0.0
  0
VERTEX
  5
4B5
330
4AF
100
AcDbEntity
  8
0
370
     0
100
AcDbVertex
100
AcDb2dVertex
 10
301.91095
 20
99.299713
 30
0.0
  0
VERTEX
  5
4B6
330
4AF
100
AcDbEntity
  8
0
370
     0
100
AcDbVertex
100
AcDb2dVertex
 10
301.487305
 20
99.299713
 30
0.0
  0
VERTEX
  5
4B7
330
4AF
100
AcDbEntity
  8
0
370
     0
100
AcDbVertex
100
AcDb2dVertex
 10
301.487305
 20
96.430115
 30
0.0
  0
VERTEX
  5
4B8
330
4AF
100
AcDbEntity
  8
0
370
     0
100
AcDbVertex
100
AcDb2dVertex
 10
300.16095
 20
99.299713
 30
0.0
  0
VERTEX
  5
4B9
330
4AF
100
AcDbEntity
  8
0
370
     0
100
AcDbVertex
100
AcDb2dVertex
 10
299.611237
 20
99.299713
 30
0.0
  0
SEQEND
  5
4BA
330
4AF
100
AcDbEntity
  8
0
 62
     7
370
    13
  0
POLYLINE
  5
4BB
330
1F
100
AcDbEntity
  8
0
 62
     7
370
    13
100
AcDb2dPolyline
 66
     1
 10
0.0
 20
0.0
 30
0.0
 70
     1
  0
VERTEX
  5
4BC
330
4BB
100
AcDbEntity
  8
0
370
     0
100
AcDbVertex
100
AcDb2dVertex
 10
303.565125
 20
96.223343
 30
0.0
  0
VERTEX
  5
4BD
330
4BB
100
AcDbEntity
  8
0
370
     0
100
AcDbVertex
100
AcDb2dVertex
 10
302.919586
 20
96.223343
 30
0.0
  0
VERTEX
  5
4BE
330
4BB
100
AcDbEntity
  8
0
370
     0
100
AcDbVertex
100
AcDb2dVertex
 10
302.919586
 20
95.799713
 30
0.0
  0
VERTEX
  5
4BF
330
4BB
100
AcDbEntity
  8
0
370
     0
100
AcDbVertex
100
AcDb2dVertex
 10
304.674622
 20
95.799713
 30
0.0
  0
VERTEX
  5
4C0
330
4BB
100
AcDbEntity
  8
0
370
     0
100
AcDbVertex
100
AcDb2dVertex
 10
304.674622
 20
96.223343
 30
0.0
  0
VERTEX
  5
4C1
330
4BB
100
AcDbEntity
  8
0
370
     0
100
AcDbVertex
100
AcDb2dVertex
 10
304.029083
 20
96.223343
 30
0.0
  0
VERTEX
  5
4C2
330
4BB
100
AcDbEntity
  8
0
370
     0
100
AcDbVertex
100
AcDb2dVertex
 10
304.029083
 20
98.876083
 30
0.0
  0
VERTEX
  5
4C3
330
4BB
100
AcDbEntity
  8
0
370
     0
100
AcDbVertex
100
AcDb2dVertex
 10
304.674622
 20
98.876083
 30
0.0
  0
VERTEX
  5
4C4
330
4BB
100
AcDbEntity
  8
0
370
     0
100
AcDbVertex
100
AcDb2dVertex
 10
304.674622
 20
99.299713
 30
0.0
  0
VERTEX
  5
4C5
330
4BB
100
AcDbEntity
  8
0
370
     0
100
AcDbVertex
100
AcDb2dVertex
 10
302.919586
 20
99.299713
 30
0.0
  0
VERTEX
  5
4C6
330
4BB
100
AcDbEntity
  8
0
370
     0
100
AcDbVertex
100
AcDb2dVertex
 10
302.919586
 20
98.876083
 30
0.0
  0
VERTEX
  5
4C7
330
4BB
100
AcDbEntity
  8
0
370
     0
100
AcDbVertex
100
AcDb2dVertex
 10
303.565125
 20
98.876083
 30
0.0
  0
SEQEND
  5
4C8
330
4BB
100
AcDbEntity
  8
0
 62
     7
370
    13
  0
POLYLINE
  5
4C9
330
1F
100
AcDbEntity
  8
0
 62
     7
370
    13
100
AcDb2dPolyline
 66
     1
 10
0.0
 20
0.0
 30
0.0
 70
     1
  0
VERTEX
  5
4CA
330
4C9
100
AcDbEntity
  8
0
370
     0
100
AcDbVertex
100
AcDb2dVertex
 10
305.537018
 20
97.549713
 30
0.0
  0
VERTEX
  5
4CB
330
4C9
100
AcDbEntity
  8
0
370
     0
100
AcDbVertex
100
AcDb2dVertex
 10
305.627808
 20
96.76297
 30
0.0
  0
VERTEX
  5
4CC
330
4C9
100
AcDbEntity
  8
0
370
     0
100
AcDbVertex
100
AcDb2dVertex
 10
305.890045
 20
96.182999
 30
0.0
  0
VERTEX
  5
4CD
330
4C9
100
AcDbEntity
  8
0
370
     0
100
AcDbVertex
100
AcDb2dVertex
 10
306.298553
 20
95.824928
 30
0.0
  0
VERTEX
  5
4CE
330
4C9
100
AcDbEntity
  8
0
370
     0
100
AcDbVertex
100
AcDb2dVertex
 10
306.83313
 20
95.703896
 30
0.0
  0
VERTEX
  5
4CF
330
4C9
100
AcDbEntity
  8
0
370
     0
100
AcDbVertex
100
AcDb2dVertex
 10
307.362671
 20
95.824928
 30
0.0
  0
VERTEX
  5
4D0
330
4C9
100
AcDbEntity
  8
0
370
     0
100
AcDbVertex
100
AcDb2dVertex
 10
307.776215
 20
96.182999
 30
0.0
  0
VERTEX
  5
4D1
330
4C9
100
AcDbEntity
  8
0
370
     0
100
AcDbVertex
100
AcDb2dVertex
 10
308.033417
 20
96.76297
 30
0.0
  0
VERTEX
  5
4D2
330
4C9
100
AcDbEntity
  8
0
370
     0
100
AcDbVertex
100
AcDb2dVertex
 10
308.129242
 20
97.549713
 30
0.0
  0
VERTEX
  5
4D3
330
4C9
100
AcDbEntity
  8
0
370
     0
100
AcDbVertex
100
AcDb2dVertex
 10
308.033417
 20
98.331413
 30
0.0
  0
VERTEX
  5
4D4
330
4C9
100
AcDbEntity
  8
0
370
     0
100
AcDbVertex
100
AcDb2dVertex
 10
307.922455
 20
98.649139
 30
0.0
  0
VERTEX
  5
4D5
330
4C9
100
AcDbEntity
  8
0
370
     0
100
AcDbVertex
100
AcDb2dVertex
 10
307.776215
 20
98.911385
 30
0.0
  0
VERTEX
  5
4D6
330
4C9
100
AcDbEntity
  8
0
370
     0
100
AcDbVertex
100
AcDb2dVertex
 10
307.362671
 20
99.269455
 30
0.0
  0
VERTEX
  5
4D7
330
4C9
100
AcDbEntity
  8
0
370
     0
100
AcDbVertex
100
AcDb2dVertex
 10
307.110504
 20
99.360229
 30
0.0
  0
VERTEX
  5
4D8
330
4C9
100
AcDbEntity
  8
0
370
     0
100
AcDbVertex
100
AcDb2dVertex
 10
306.83313
 20
99.395538
 30
0.0
  0
VERTEX
  5
4D9
330
4C9
100
AcDbEntity
  8
0
370
     0
100
AcDbVertex
100
AcDb2dVertex
 10
306.293488
 20
99.269455
 30
0.0
  0
VERTEX
  5
4DA
330
4C9
100
AcDbEntity
  8
0
370
     0
100
AcDbVertex
100
AcDb2dVertex
 10
305.88501
 20
98.916428
 30
0.0
  0
VERTEX
  5
4DB
330
4C9
100
AcDbEntity
  8
0
370
     0
100
AcDbVertex
100
AcDb2dVertex
 10
305.627808
 20
98.336456
 30
0.0
  0
SEQEND
  5
4DC
330
4C9
100
AcDbEntity
  8
0
 62
     7
370
    13
  0
POLYLINE
  5
4DD
330
1F
100
AcDbEntity
  8
0
 62
     7
370
    13
100
AcDb2dPolyline
 66
     1
 10
0.0
 20
0.0
 30
0.0
 70
     1
  0
VERTEX
  5
4DE
330
4DD
100
AcDbEntity
  8
0
370
     0
100
AcDbVertex
100
AcDb2dVertex
 10
306.021179
 20
97.549713
 30
0.0
  0
VERTEX
  5
4DF
330
4DD
100
AcDbEntity
  8
0
370
     0
100
AcDbVertex
100
AcDb2dVertex
 10
306.07663
 20
98.159943
 30
0.0
  0
VERTEX
  5
4E0
330
4DD
100
AcDbEntity
  8
0
370
     0
100
AcDbVertex
100
AcDb2dVertex
 10
306.243073
 20
98.608788
 30
0.0
  0
VERTEX
  5
4E1
330
4DD
100
AcDbEntity
  8
0
370
     0
100
AcDbVertex
100
AcDb2dVertex
 10
306.500275
 20
98.881126
 30
0.0
  0
VERTEX
  5
4E2
330
4DD
100
AcDbEntity
  8
0
370
     0
100
AcDbVertex
100
AcDb2dVertex
 10
306.83313
 20
98.976944
 30
0.0
  0
VERTEX
  5
4E3
330
4DD
100
AcDbEntity
  8
0
370
     0
100
AcDbVertex
100
AcDb2dVertex
 10
307.16095
 20
98.881126
 30
0.0
  0
VERTEX
  5
4E4
330
4DD
100
AcDbEntity
  8
0
370
     0
100
AcDbVertex
100
AcDb2dVertex
 10
307.418152
 20
98.603745
 30
0.0
  0
VERTEX
  5
4E5
330
4DD
100
AcDbEntity
  8
0
370
     0
100
AcDbVertex
100
AcDb2dVertex
 10
307.584564
 20
98.1549
 30
0.0
  0
VERTEX
  5
4E6
330
4DD
100
AcDbEntity
  8
0
370
     0
100
AcDbVertex
100
AcDb2dVertex
 10
307.645081
 20
97.549713
 30
0.0
  0
VERTEX
  5
4E7
330
4DD
100
AcDbEntity
  8
0
370
     0
100
AcDbVertex
100
AcDb2dVertex
 10
307.584564
 20
96.939484
 30
0.0
  0
VERTEX
  5
4E8
330
4DD
100
AcDbEntity
  8
0
370
     0
100
AcDbVertex
100
AcDb2dVertex
 10
307.418152
 20
96.490639
 30
0.0
  0
VERTEX
  5
4E9
330
4DD
100
AcDbEntity
  8
0
370
     0
100
AcDbVertex
100
AcDb2dVertex
 10
307.16095
 20
96.2183
 30
0.0
  0
VERTEX
  5
4EA
330
4DD
100
AcDbEntity
  8
0
370
     0
100
AcDbVertex
100
AcDb2dVertex
 10
306.83313
 20
96.127525
 30
0.0
  0
VERTEX
  5
4EB
330
4DD
100
AcDbEntity
  8
0
370
     0
100
AcDbVertex
100
AcDb2dVertex
 10
306.500275
 20
96.2183
 30
0.0
  0
VERTEX
  5
4EC
330
4DD
100
AcDbEntity
  8
0
370
     0
100
AcDbVertex
100
AcDb2dVertex
 10
306.243073
 20
96.490639
 30
0.0
  0
VERTEX
  5
4ED
330
4DD
100
AcDbEntity
  8
0
370
     0
100
AcDbVertex
100
AcDb2dVertex
 10
306.07663
 20
96.934441
 30
0.0
  0
SEQEND
  5
4EE
330
4DD
100
AcDbEntity
  8
0
 62
     7
370
    13
  0
ARC
  5
4EF
330
1F
100
AcDbEntity
  8
0
 62
     7
370
    35
100
AcDbCircle
 10
62.297276
 20
150.452255
 30
0.0
 40
25.0
100
AcDbArc
 50
120.000003
 51
210.000003
  0
LINE
  5
4F0
330
1F
100
AcDbEntity
  8
0
 62
     7
370
    35
100
AcDbLine
 10
40.646641
 20
137.952255
 30
0.0
 11
51.877403
 21
118.5
 31
0.0
  0
ARC
  5
4F1
330
1F
100
AcDbEntity
  8
0
 62
     7
370
    35
100
AcDbCircle
 10
62.702721
 20
124.75
 30
0.0
 40
12.5
100
AcDbArc
 50
210.000003
 51
329.999999
  0
LINE
  5
4F2
330
1F
100
AcDbEntity
  8
0
 62
     7
370
    35
100
AcDbLine
 10
79.876114
 20
129.495193
 30
0.0
 11
73.528038
 21
118.5
 31
0.0
  0
ARC
  5
4F3
330
1F
100
AcDbEntity
  8
0
 62
     7
370
    35
100
AcDbCircle
 10
97.196625
 20
119.495193
 30
0.0
 40
20.0
100
AcDbArc
 50
60.000002
 51
149.999997
  0
LINE
  5
4F4
330
1F
100
AcDbEntity
  8
0
 62
     7
370
    35
100
AcDbLine
 10
107.196625
 20
136.815704
 30
0.0
 11
136.452728
 21
119.924683
 31
0.0
  0
ARC
  5
4F5
330
1F
100
AcDbEntity
  8
0
 62
     7
370
    35
100
AcDbCircle
 10
142.702728
 20
130.75
 30
0.0
 40
12.5
100
AcDbArc
 50
239.999997
 51
20.000001
  0
LINE
  5
4F6
330
1F
100
AcDbEntity
  8
0
 62
     7
370
    35
100
AcDbLine
 10
152.987671
 20
139.039902
 30
0.0
 11
154.448883
 21
135.025253
 31
0.0
  0
ARC
  5
4F7
330
1F
100
AcDbEntity
  8
0
 62
     7
370
    35
100
AcDbCircle
 10
157.686127
 20
140.75
 30
0.0
 40
4.999999999999996
100
AcDbArc
 50
90.000003
 51
200.000005
  0
LINE
  5
4F8
330
1F
100
AcDbEntity
  8
0
 62
     7
370
    35
100
AcDbLine
 10
367.702728
 20
145.75
 30
0.0
 11
157.686127
 21
145.75
 31
0.0
  0
ARC
  5
4F9
330
1F
100
AcDbEntity
  8
0
 62
     7
370
    35
100
AcDbCircle
 10
367.702728
 20
160.75
 30
0.0
 40
15.0
100
AcDbArc
 50
269.999997
 51
90.000003
  0
LINE
  5
4FA
330
1F
100
AcDbEntity
  8
0
 62
     7
370
    35
100
AcDbLine
 10
367.702728
 20
175.75
 30
0.0
 11
307.702728
 21
175.75
 31
0.0
  0
LINE
  5
4FB
330
1F
100
AcDbEntity
  8
0
 62
     7
370
    35
100
AcDbLine
 10
307.702728
 20
175.75
 30
0.0
 11
304.702728
 21
172.75
 31
0.0
  0
LINE
  5
4FC
330
1F
100
AcDbEntity
  8
0
 62
     7
370
    35
100
AcDbLine
 10
203.487335
 20
172.75
 30
0.0
 11
304.702728
 21
172.75
 31
0.0
  0
LINE
  5
4FD
330
1F
100
AcDbEntity
  8
0
 62
     7
370
    35
100
AcDbLine
 10
182.702728
 20
184.75
 30
0.0
 11
203.487335
 21
172.75
 31
0.0
  0
LINE
  5
4FE
330
1F
100
AcDbEntity
  8
0
 62
     7
370
    35
100
AcDbLine
 10
71.702721
 20
184.75
 30
0.0
 11
182.702728
 21
184.75
 31
0.0
  0
LINE
  5
4FF
330
1F
100
AcDbEntity
  8
0
 62
     7
370
    35
100
AcDbLine
 10
49.797276
 20
172.10289
 30
0.0
 11
71.702721
 21
184.75
 31
0.0
  0
CIRCLE
  5
500
330
1F
100
AcDbEntity
  8
0
 62
     7
370
    35
100
AcDbCircle
 10
62.702721
 20
124.75
 30
0.0
 40
4.0
  0
CIRCLE
  5
501
330
1F
100
AcDbEntity
  8
0
 62
     7
370
    35
100
AcDbCircle
 10
367.702728
 20
160.75
 30
0.0
 40
3.25
  0
CIRCLE
  5
502
330
1F
100
AcDbEntity
  8
0
 62
     7
370
    35
100
AcDbCircle
 10
142.702728
 20
130.75
 30
0.0
 40
5.5
  0
CIRCLE
  5
503
330
1F
100
AcDbEntity
  8
0
 62
     7
370
    35
100
AcDbCircle
 10
357.702728
 20
160.75
 30
0.0
 40
3.25
  0
CIRCLE
  5
504
330
1F
100
AcDbEntity
  8
0
 62
     7
370
    35
100
AcDbCircle
 10
347.702728
 20
160.75
 30
0.0
 40
3.25
  0
LINE
  5
505
330
1F
100
AcDbEntity
  8
0
 62
     7
370
    35
100
AcDbLine
 10
242.702728
 20
165.5
 30
0.0
 11
332.702728
 21
165.5
 31
0.0
  0
ARC
  5
506
330
1F
100
AcDbEntity
  8
0
 62
     7
370
    35
100
AcDbCircle
 10
332.702728
 20
160.75
 30
0.0
 40
4.749999999999999
100
AcDbArc
 50
269.999997
 51
90.000003
  0
LINE
  5
507
330
1F
100
AcDbEntity
  8
0
 62
     7
370
    35
100
AcDbLine
 10
332.702728
 20
156.0
 30
0.0
 11
242.702728
 21
156.0
 31
0.0
  0
ARC
  5
508
330
1F
100
AcDbEntity
  8
0
 62
     7
370
    35
100
AcDbCircle
 10
242.702728
 20
160.75
 30
0.0
 40
4.749999999999999
100
AcDbArc
 50
90.000003
 51
269.999997
  0
ARC
  5
509
330
1F
100
AcDbEntity
  8
0
 62
     7
370
    35
100
AcDbCircle
 10
157.702728
 20
177.25
 30
0.0
 40
2.0
100
AcDbArc
 50
269.999997
 51
90.000003
  0
LINE
  5
50A
330
1F
100
AcDbEntity
  8
0
 62
     7
370
    35
100
AcDbLine
 10
157.702728
 20
175.25
 30
0.0
 11
77.702721
 21
175.25
 31
0.0
  0
ARC
  5
50B
330
1F
100
AcDbEntity
  8
0
 62
     7
370
    35
100
AcDbCircle
 10
77.702721
 20
177.25
 30
0.0
 40
2.0
100
AcDbArc
 50
90.000003
 51
269.999997
  0
LINE
  5
50C
330
1F
100
AcDbEntity
  8
0
 62
     7
370
    35
100
AcDbLine
 10
77.702721
 20
179.25
 30
0.0
 11
157.702728
 21
179.25
 31
0.0
  0
ARC
  5
50D
330
1F
100
AcDbEntity
  8
0
 62
     7
370
    35
100
AcDbCircle
 10
179.732651
 20
156.548798
 30
0.0
 40
1.701759450624923
100
AcDbArc
 50
213.476268
 51
33.47627
  0
LINE
  5
50E
330
1F
100
AcDbEntity
  8
0
 62
     7
370
    35
100
AcDbLine
 10
178.313187
 20
155.610123
 30
0.0
 11
172.961945
 21
163.70224
 31
0.0
  0
ARC
  5
50F
330
1F
100
AcDbEntity
  8
0
 62
     7
370
    35
100
AcDbCircle
 10
174.381409
 20
164.640915
 30
0.0
 40
1.701759450624923
100
AcDbArc
 50
33.47627
 51
213.476268
  0
LINE
  5
510
330
1F
100
AcDbEntity
  8
0
 62
     7
370
    35
100
AcDbLine
 10
175.800873
 20
165.57959
 30
0.0
 11
181.1521
 21
157.487473
 31
0.0
  0
ARC
  5
511
330
1F
100
AcDbEntity
  8
0
 62
     7
370
    35
100
AcDbCircle
 10
189.391006
 20
156.548798
 30
0.0
 40
1.701759450624923
100
AcDbArc
 50
213.476268
 51
33.47627
  0
LINE
  5
512
330
1F
100
AcDbEntity
  8
0
 62
     7
370
    35
100
AcDbLine
 10
187.971542
 20
155.610123
 30
0.0
 11
182.6203
 21
163.70224
 31
0.0
  0
ARC
  5
513
330
1F
100
AcDbEntity
  8
0
 62
     7
370
    35
100
AcDbCircle
 10
184.039764
 20
164.640915
 30
0.0
 40
1.701759450624923
100
AcDbArc
 50
33.47627
 51
213.476268
  0
LINE
  5
514
330
1F
100
AcDbEntity
  8
0
 62
     7
370
    35
100
AcDbLine
 10
185.459229
 20
165.57959
 30
0.0
 11
190.810455
 21
157.487473
 31
0.0
  0
ARC
  5
515
330
1F
100
AcDbEntity
  8
0
 62
     7
370
    35
100
AcDbCircle
 10
199.049347
 20
156.548798
 30
0.0
 40
1.701759450624923
100
AcDbArc
 50
213.476268
 51
33.47627
  0
LINE
  5
516
330
1F
100
AcDbEntity
  8
0
 62
     7
370
    35
100
AcDbLine
 10
197.629883
 20
155.610123
 30
0.0
 11
192.278656
 21
163.70224
 31
0.0
  0
ARC
  5
517
330
1F
100
AcDbEntity
  8
0
 62
     7
370
    35
100
AcDbCircle
 10
193.69812
 20
164.640915
 30
0.0
 40
1.701759450624923
100
AcDbArc
 50
33.47627
 51
213.476268
  0
LINE
  5
518
330
1F
100
AcDbEntity
  8
0
 62
     7
370
    35
100
AcDbLine
 10
195.117584
 20
165.57959
 30
0.0
 11
200.468811
 21
157.487473
 31
0.0
  0
ARC
  5
519
330
1F
100
AcDbEntity
  8
0
 62
     7
370
    35
100
AcDbCircle
 10
208.707703
 20
156.548798
 30
0.0
 40
1.701759450624923
100
AcDbArc
 50
213.476268
 51
33.47627
  0
LINE
  5
51A
330
1F
100
AcDbEntity
  8
0
 62
     7
370
    35
100
AcDbLine
 10
207.288239
 20
155.610123
 30
0.0
 11
201.937012
 21
163.70224
 31
0.0
  0
ARC
  5
51B
330
1F
100
AcDbEntity
  8
0
 62
     7
370
    35
100
AcDbCircle
 10
203.356476
 20
164.640915
 30
0.0
 40
1.701759450624923
100
AcDbArc
 50
33.47627
 51
213.476268
  0
LINE
  5
51C
330
1F
100
AcDbEntity
  8
0
 62
     7
370
    35
100
AcDbLine
 10
204.77594
 20
165.57959
 30
0.0
 11
210.127167
 21
157.487473
 31
0.0
  0
ARC
  5
51D
330
1F
100
AcDbEntity
  8
0
 62
     7
370
    35
100
AcDbCircle
 10
218.366058
 20
156.548798
 30
0.0
 40
1.701759450624923
100
AcDbArc
 50
213.476268
 51
33.47627
  0
LINE
  5
51E
330
1F
100
AcDbEntity
  8
0
 62
     7
370
    35
100
AcDbLine
 10
216.946594
 20
155.610123
 30
0.0
 11
211.595367
 21
163.70224
 31
0.0
  0
ARC
  5
51F
330
1F
100
AcDbEntity
  8
0
 62
     7
370
    35
100
AcDbCircle
 10
213.014832
 20
164.640915
 30
0.0
 40
1.701759450624923
100
AcDbArc
 50
33.47627
 51
213.476268
  0
LINE
  5
520
330
1F
100
AcDbEntity
  8
0
 62
     7
370
    35
100
AcDbLine
 10
214.434296
 20
165.57959
 30
0.0
 11
219.785522
 21
157.487473
 31
0.0
  0
ARC
  5
521
330
1F
100
AcDbEntity
  8
0
 62
     7
370
    35
100
AcDbCircle
 10
228.024414
 20
156.548798
 30
0.0
 40
1.701759450624923
100
AcDbArc
 50
213.476268
 51
33.47627
  0
LINE
  5
522
330
1F
100
AcDbEntity
  8
0
 62
     7
370
    35
100
AcDbLine
 10
226.60495
 20
155.610123
 30
0.0
 11
221.253723
 21
163.70224
 31
0.0
  0
ARC
  5
523
330
1F
100
AcDbEntity
  8
0
 62
     7
370
    35
100
AcDbCircle
 10
222.673187
 20
164.640915
 30
0.0
 40
1.701759450624923
100
AcDbArc
 50
33.47627
 51
213.476268
  0
LINE
  5
524
330
1F
100
AcDbEntity
  8
0
 62
     7
370
    35
100
AcDbLine
 10
224.092651
 20
165.57959
 30
0.0
 11
229.443878
 21
157.487473
 31
0.0
  0
ENDSEC
  0
SECTION
  2
OBJECTS
  0
DICTIONARY
  5
C
330
0
100
AcDbDictionary
281
     1
  3
ACAD_GROUP
350
D
  3
ACAD_LAYOUT
350
1A
  3
ACAD_MLINESTYLE
350
17
  3
ACAD_PLOTSETTINGS
350
19
  3
ACAD_PLOTSTYLENAME
350
E
  3
ACAD_SCALELIST
350
47
  0
DICTIONARY
  5
D
102
{ACAD_REACTORS
330
C
102
}
330
C
100
AcDbDictionary
281
     1
  0
DICTIONARY
  5
1A
102
{ACAD_REACTORS
330
C
102
}
330
C
100
AcDbDictionary
281
     1
  3
Layout1
350
1E
  3
Layout2
350
26
  3
Model
350
22
  0
DICTIONARY
  5
17
102
{ACAD_REACTORS
330
C
102
}
330
C
100
AcDbDictionary
281
     1
  3
Standard
350
18
  0
DICTIONARY
  5
19
102
{ACAD_REACTORS
330
C
102
}
330
C
100
AcDbDictionary
281
     1
  0
ACDBDICTIONARYWDFLT
  5
E
102
{ACAD_REACTORS
330
C
102
}
330
C
100
AcDbDictionary
281
     1
  3
Normal
350
F
100
AcDbDictionaryWithDefault
340
F
  0
DICTIONARY
  5
47
102
{ACAD_REACTORS
330
C
102
}
330
C
100
AcDbDictionary
281
     1
  3
A0
350
48
  3
A1
350
49
  3
A2
350
4A
  3
A3
350
4B
  3
A4
350
4C
  3
A5
350
4D
  3
A6
350
4E
  3
A7
350
4F
  3
A8
350
50
  3
A9
350
51
  3
B0
350
52
  3
B1
350
53
  3
B2
350
54
  3
B3
350
55
  3
B4
350
56
  3
B5
350
57
  3
B6
350
58
  3
B7
350
59
  3
B8
350
5A
  3
B9
350
5B
  3
C0
350
5C
  3
C1
350
5D
  3
C2
350
5E
  3
C3
350
5F
  3
C4
350
60
  3
C5
350
61
  3
C6
350
62
  3
C7
350
63
  3
C8
350
64
  3
C9
350
65
  3
D0
350
66
  3
D1
350
67
  3
D2
350
68
  0
LAYOUT
  5
1E
102
{ACAD_REACTORS
330
1A
102
}
330
1A
100
AcDbPlotSettings
  1

  2
none_device
  4

  6

 40
0.0
 41
0.0
 42
0.0
 43
0.0
 44
0.0
 45
0.0
 46
0.0
 47
0.0
 48
0.0
 49
0.0
140
0.0
141
0.0
142
1.0
143
1.0
 70
  4784
 72
     0
 73
     0
 74
     5
  7

 75
    16
147
1.0
148
0.0
149
0.0
100
AcDbLayout
  1
Layout1
 70
     1
 71
     1
 10
0.0
 20
0.0
 11
420.0
 21
297.0
 12
0.0
 22
0.0
 32
0.0
 14
0.0
 24
0.0
 34
0.0
 15
387.202728
 25
184.75
 35
2.0
146
0.0
 13
0.0
 23
0.0
 33
0.0
 16
1.0
 26
0.0
 36
0.0
 17
0.0
 27
1.0
 37
0.0
 76
     0
330
1B
  0
LAYOUT
  5
26
102
{ACAD_REACTORS
330
1A
102
}
330
1A
100
AcDbPlotSettings
  1

  2
none_device
  4

  6

 40
0.0
 41
0.0
 42
0.0
 43
0.0
 44
0.0
 45
0.0
 46
0.0
 47
0.0
 48
0.0
 49
0.0
140
0.0
141
0.0
142
1.0
143
1.0
 70
  4784
 72
     0
 73
     0
 74
     5
  7

 75
    16
147
1.0
148
0.0
149
0.0
100
AcDbLayout
  1
Layout2
 70
     1
 71
     2
 10
0.0
 20
0.0
 11
0.0
 21
0.0
 12
0.0
 22
0.0
 32
0.0
 14
0.0
 24
0.0
 34
0.0
 15
0.0
 25
0.0
 35
0.0
146
0.0
 13
0.0
 23
0.0
 33
0.0
 16
1.0
 26
0.0
 36
0.0
 17
0.0
 27
1.0
 37
0.0
 76
     0
330
23
  0
LAYOUT
  5
22
102
{ACAD_REACTORS
330
1A
102
}
330
1A
100
AcDbPlotSettings
  1

  2
none_device
  4
Letter_(8.50_x_11.00_Inches)
  6

 40
6.35
 41
6.35
 42
6.350005
 43
6.350005
 44
215.9
 45
279.4
 46
0.0
 47
0.0
 48
0.0
 49
0.0
140
0.0
141
0.0
142
1.0
143
1.0
 70
  5808
 72
     0
 73
     0
 74
     0
  7

 75
     0
147
1.0
148
0.0
149
0.0
100
AcDbLayout
  1
Model
 70
     1
 71
     0
 10
0.0
 20
0.0
 11
420.0
 21
297.0
 12
0.0
 22
0.0
 32
0.0
 14
0.0
 24
0.0
 34
0.0
 15
387.202728
 25
184.75
 35
2.0
146
0.0
 13
0.0
 23
0.0
 33
0.0
 16
1.0
 26
0.0
 36
0.0
 17
0.0
 27
1.0
 37
0.0
 76
     0
330
1F
331
29
  0
MLINESTYLE
  5
18
102
{ACAD_REACTORS
330
17
102
}
330
17
100
AcDbMlineStyle
  2
Standard
 70
     0
  3

 62
   256
 51
90.0
 52
90.0
 71
     2
 49
0.5
 62
   256
  6
BYLAYER
 49
-0.5
 62
   256
  6
BYLAYER
  0
ACDBPLACEHOLDER
  5
F
102
{ACAD_REACTORS
330
E
102
}
330
E
  0
SCALE
  5
48
102
{ACAD_REACTORS
330
47
102
}
330
47
100
AcDbScale
 70
     0
300
1:1
140
1.0
141
1.0
290
     1
  0
SCALE
  5
49
102
{ACAD_REACTORS
330
47
102
}
330
47
100
AcDbScale
 70
     0
300
1:2
140
1.0
141
2.0
290
     0
  0
SCALE
  5
4A
102
{ACAD_REACTORS
330
47
102
}
330
47
100
AcDbScale
 70
     0
300
1:4
140
1.0
141
4.0
290
     0
  0
SCALE
  5
4B
102
{ACAD_REACTORS
330
47
102
}
330
47
100
AcDbScale
 70
     0
300
1:5
140
1.0
141
5.0
290
     0
  0
SCALE
  5
4C
102
{ACAD_REACTORS
330
47
102
}
330
47
100
AcDbScale
 70
     0
300
1:8
140
1.0
141
8.0
290
     0
  0
SCALE
  5
4D
102
{ACAD_REACTORS
330
47
102
}
330
47
100
AcDbScale
 70
     0
300
1:10
140
1.0
141
10.0
290
     0
  0
SCALE
  5
4E
102
{ACAD_REACTORS
330
47
102
}
330
47
100
AcDbScale
 70
     0
300
1:16
140
1.0
141
16.0
290
     0
  0
SCALE
  5
4F
102
{ACAD_REACTORS
330
47
102
}
330
47
100
AcDbScale
 70
     0
300
1:20
140
1.0
141
20.0
290
     0
  0
SCALE
  5
50
102
{ACAD_REACTORS
330
47
102
}
330
47
100
AcDbScale
 70
     0
300
1:30
140
1.0
141
30.0
290
     0
  0
SCALE
  5
51
102
{ACAD_REACTORS
330
47
102
}
330
47
100
AcDbScale
 70
     0
300
1:40
140
1.0
141
40.0
290
     0
  0
SCALE
  5
52
102
{ACAD_REACTORS
330
47
102
}
330
47
100
AcDbScale
 70
     0
300
1:50
140
1.0
141
50.0
290
     0
  0
SCALE
  5
53
102
{ACAD_REACTORS
330
47
102
}
330
47
100
AcDbScale
 70
     0
300
1:100
140
1.0
141
100.0
290
     0
  0
SCALE
  5
54
102
{ACAD_REACTORS
330
47
102
}
330
47
100
AcDbScale
 70
     0
300
2:1
140
2.0
141
1.0
290
     0
  0
SCALE
  5
55
102
{ACAD_REACTORS
330
47
102
}
330
47
100
AcDbScale
 70
     0
300
4:1
140
4.0
141
1.0
290
     0
  0
SCALE
  5
56
102
{ACAD_REACTORS
330
47
102
}
330
47
100
AcDbScale
 70
     0
300
8:1
140
8.0
141
1.0
290
     0
  0
SCALE
  5
57
102
{ACAD_REACTORS
330
47
102
}
330
47
100
AcDbScale
 70
     0
300
10:1
140
10.0
141
1.0
290
     0
  0
SCALE
  5
58
102
{ACAD_REACTORS
330
47
102
}
330
47
100
AcDbScale
 70
     0
300
100:1
140
100.0
141
1.0
290
     0
  0
SCALE
  5
59
102
{ACAD_REACTORS
330
47
102
}
330
47
100
AcDbScale
 70
     0
300
1/128" = 1'-0"
140
0.007812
141
12.0
290
     0
  0
SCALE
  5
5A
102
{ACAD_REACTORS
330
47
102
}
330
47
100
AcDbScale
 70
     0
300
1/64" = 1'-0"
140
0.015625
141
12.0
290
     0
  0
SCALE
  5
5B
102
{ACAD_REACTORS
330
47
102
}
330
47
100
AcDbScale
 70
     0
300
1/32" = 1'-0"
140
0.03125
141
12.0
290
     0
  0
SCALE
  5
5C
102
{ACAD_REACTORS
330
47
102
}
330
47
100
AcDbScale
 70
     0
300
1/16" = 1'-0"
140
0.0625
141
12.0
290
     0
  0
SCALE
  5
5D
102
{ACAD_REACTORS
330
47
102
}
330
47
100
AcDbScale
 70
     0
300
3/32" = 1'-0"
140
0.09375
141
12.0
290
     0
  0
SCALE
  5
5E
102
{ACAD_REACTORS
330
47
102
}
330
47
100
AcDbScale
 70
     0
300
1/8" = 1'-0"
140
0.125
141
12.0
290
     0
  0
SCALE
  5
5F
102
{ACAD_REACTORS
330
47
102
}
330
47
100
AcDbScale
 70
     0
300
3/16" = 1'-0"
140
0.1875
141
12.0
290
     0
  0
SCALE
  5
60
102
{ACAD_REACTORS
330
47
102
}
330
47
100
AcDbScale
 70
     0
300
1/4" = 1'-0"
140
0.25
141
12.0
290
     0
  0
SCALE
  5
61
102
{ACAD_REACTORS
330
47
102
}
330
47
100
AcDbScale
 70
     0
300
3/8" = 1'-0"
140
0.375
141
12.0
290
     0
  0
SCALE
  5
62
102
{ACAD_REACTORS
330
47
102
}
330
47
100
AcDbScale
 70
     0
300
1/2" = 1'-0"
140
0.5
141
12.0
290
     0
  0
SCALE
  5
63
102
{ACAD_REACTORS
330
47
102
}
330
47
100
AcDbScale
 70
     0
300
3/4" = 1'-0"
140
0.75
141
12.0
290
     0
  0
SCALE
  5
64
102
{ACAD_REACTORS
330
47
102
}
330
47
100
AcDbScale
 70
     0
300
1" = 1'-0"
140
1.0
141
12.0
290
     0
  0
SCALE
  5
65
102
{ACAD_REACTORS
330
47
102
}
330
47
100
AcDbScale
 70
     0
300
1-1/2" = 1'-0"
140
1.5
141
12.0
290
     0
  0
SCALE
  5
66
102
{ACAD_REACTORS
330
47
102
}
330
47
100
AcDbScale
 70
     0
300
3" = 1'-0"
140
3.0
141
12.0
290
     0
  0
SCALE
  5
67
102
{ACAD_REACTORS
330
47
102
}
330
47
100
AcDbScale
 70
     0
300
6" = 1'-0"
140
6.0
141
12.0
290
     0
  0
SCALE
  5
68
102
{ACAD_REACTORS
330
47
102
}
330
47
100
AcDbScale
 70
     0
300
1'-0" = 1'-0"
140
12.0
141
12.0
290
     0
  0
ENDSEC
  0
EOF
