START RECORD GO HERE.                                                   S      1
1H,,1H;,45H1360.000.015.002.00.CILINDRO_PLACA_ELIPSOIDAL,49H1360.000.015G      1
.002.00.CILINDRO_PLACA_ELIPSOIDAL.igs,62HDASSAULT SYSTEMES CATIA VersionG      2
 5-6 Release 2018 - www.3ds.com,35HV5-6R2018_5.28.0.0.11-29-2017.20.00, G      3
32,75,6,75,15,45H1360.000.015.002.00.CILINDRO_PLACA_ELIPSOIDAL,1.0,2,2HMG      4
M,1000,1.0,15H20250313.142539,0.001,10000.0,7HPCKT-13,7HPCKT-13,11,0,15HG      5
20250313.142539,;                                                       G      6
     110       1       0       0       0       0       0       001010001D      1
     110       0       0       1       0                               0D      2
     110       2       0       0       0       0       0       001010001D      3
     110       0       0       1       0                               0D      4
     120       3       0       0       0       0       0       001010001D      5
     120       0       0       1       0                               0D      6
     124       4       0       0       0       0       0       001020001D      7
     124       0       0       1       0                               0D      8
     100       5       0       0       0       0       7       001010001D      9
     100       0       0       1       0                               0D     10
     110       6       0       0       0       0       0       001010001D     11
     110       0       0       1       0                               0D     12
     124       7       0       0       0       0       0       001020001D     13
     124       0       0       1       0                               0D     14
     100       8       0       0       0       0      13       001010001D     15
     100       0       0       1       0                               0D     16
     110       9       0       0       0       0       0       001010001D     17
     110       0       0       1       0                               0D     18
     102      10       0       0       0       0       0       001010001D     19
     102       0       0       1       0                               0D     20
     142      11       0       0       0       0       0       001010001D     21
     142       0       0       1       0                               0D     22
     144      12       0       0   10000       0       0       000000000D     23
     144       0       0       1       0                PartBody       0D     24
     110      13       0       0       0       0       0       001010001D     25
     110       0       0       1       0                               0D     26
     110      14       0       0       0       0       0       001010001D     27
     110       0       0       1       0                               0D     28
     120      15       0       0       0       0       0       001010001D     29
     120       0       0       1       0                               0D     30
     124      16       0       0       0       0       0       001020001D     31
     124       0       0       1       0                               0D     32
     100      17       0       0       0       0      31       001010001D     33
     100       0       0       1       0                               0D     34
     110      18       0       0       0       0       0       001010001D     35
     110       0       0       1       0                               0D     36
     124      19       0       0       0       0       0       001020001D     37
     124       0       0       1       0                               0D     38
     100      20       0       0       0       0      37       001010001D     39
     100       0       0       1       0                               0D     40
     110      21       0       0       0       0       0       001010001D     41
     110       0       0       1       0                               0D     42
     102      22       0       0       0       0       0       001010001D     43
     102       0       0       1       0                               0D     44
     142      23       0       0       0       0       0       001010001D     45
     142       0       0       1       0                               0D     46
     144      24       0       0   10000       0       0       000000000D     47
     144       0       0       1       0                PartBody       0D     48
     108      25       0       0       0       0       0       001010001D     49
     108       0       0       1       0                               0D     50
     124      26       0       0       0       0       0       001020001D     51
     124       0       0       1       0                               0D     52
     100      27       0       0       0       0      51       001010001D     53
     100       0       0       1       0                               0D     54
     124      28       0       0       0       0       0       001020001D     55
     124       0       0       1       0                               0D     56
     100      29       0       0       0       0      55       001010001D     57
     100       0       0       1       0                               0D     58
     102      30       0       0       0       0       0       001010001D     59
     102       0       0       1       0                               0D     60
     142      31       0       0       0       0       0       001010001D     61
     142       0       0       1       0                               0D     62
     124      32       0       0       0       0       0       001020001D     63
     124       0       0       1       0                               0D     64
     100      33       0       0       0       0      63       001010001D     65
     100       0       0       1       0                               0D     66
     124      34       0       0       0       0       0       001020001D     67
     124       0       0       1       0                               0D     68
     100      35       0       0       0       0      67       001010001D     69
     100       0       0       1       0                               0D     70
     102      36       0       0       0       0       0       001010001D     71
     102       0       0       1       0                               0D     72
     142      37       0       0       0       0       0       001010001D     73
     142       0       0       1       0                               0D     74
     144      38       0       0   10000       0       0       000000000D     75
     144       0       0       1       0                PartBody       0D     76
     110      39       0       0       0       0       0       001010001D     77
     110       0       0       1       0                               0D     78
     110      40       0       0       0       0       0       001010001D     79
     110       0       0       1       0                               0D     80
     120      41       0       0       0       0       0       001010001D     81
     120       0       0       1       0                               0D     82
     124      42       0       0       0       0       0       001020001D     83
     124       0       0       1       0                               0D     84
     100      43       0       0       0       0      83       001010001D     85
     100       0       0       1       0                               0D     86
     110      44       0       0       0       0       0       001010001D     87
     110       0       0       1       0                               0D     88
     124      45       0       0       0       0       0       001020001D     89
     124       0       0       1       0                               0D     90
     100      46       0       0       0       0      89       001010001D     91
     100       0       0       1       0                               0D     92
     110      47       0       0       0       0       0       001010001D     93
     110       0       0       1       0                               0D     94
     102      48       0       0       0       0       0       001010001D     95
     102       0       0       1       0                               0D     96
     142      49       0       0       0       0       0       001010001D     97
     142       0       0       1       0                               0D     98
     144      50       0       0   10000       0       0       000000000D     99
     144       0       0       1       0                PartBody       0D    100
     110      51       0       0       0       0       0       001010001D    101
     110       0       0       1       0                               0D    102
     110      52       0       0       0       0       0       001010001D    103
     110       0       0       1       0                               0D    104
     120      53       0       0       0       0       0       001010001D    105
     120       0       0       1       0                               0D    106
     124      54       0       0       0       0       0       001020001D    107
     124       0       0       1       0                               0D    108
     100      55       0       0       0       0     107       001010001D    109
     100       0       0       1       0                               0D    110
     110      56       0       0       0       0       0       001010001D    111
     110       0       0       1       0                               0D    112
     124      57       0       0       0       0       0       001020001D    113
     124       0       0       1       0                               0D    114
     100      58       0       0       0       0     113       001010001D    115
     100       0       0       1       0                               0D    116
     110      59       0       0       0       0       0       001010001D    117
     110       0       0       1       0                               0D    118
     102      60       0       0       0       0       0       001010001D    119
     102       0       0       1       0                               0D    120
     142      61       0       0       0       0       0       001010001D    121
     142       0       0       1       0                               0D    122
     144      62       0       0   10000       0       0       000000000D    123
     144       0       0       1       0                PartBody       0D    124
     108      63       0       0       0       0       0       001010001D    125
     108       0       0       1       0                               0D    126
     124      64       0       0       0       0       0       001020001D    127
     124       0       0       1       0                               0D    128
     100      65       0       0       0       0     127       001010001D    129
     100       0       0       1       0                               0D    130
     124      66       0       0       0       0       0       001020001D    131
     124       0       0       1       0                               0D    132
     100      67       0       0       0       0     131       001010001D    133
     100       0       0       1       0                               0D    134
     102      68       0       0       0       0       0       001010001D    135
     102       0       0       1       0                               0D    136
     142      69       0       0       0       0       0       001010001D    137
     142       0       0       1       0                               0D    138
     124      70       0       0       0       0       0       001020001D    139
     124       0       0       1       0                               0D    140
     100      71       0       0       0       0     139       001010001D    141
     100       0       0       1       0                               0D    142
     124      72       0       0       0       0       0       001020001D    143
     124       0       0       1       0                               0D    144
     100      73       0       0       0       0     143       001010001D    145
     100       0       0       1       0                               0D    146
     102      74       0       0       0       0       0       001010001D    147
     102       0       0       1       0                               0D    148
     142      75       0       0       0       0       0       001010001D    149
     142       0       0       1       0                               0D    150
     144      76       0       0   10000       0       0       000000000D    151
     144       0       0       1       0                PartBody       0D    152
     124      77       0       0       0       0       0       001020001D    153
     124       0       0       1       0                               0D    154
     100      78       0       0       0       0     153       001010001D    155
     100       0       0       1       0                               0D    156
     124      79       0       0       0       0       0       001020001D    157
     124       0       0       1       0                               0D    158
     100      80       0       0       0       0     157       001010001D    159
     100       0       0       1       0                               0D    160
     102      81       0       0       0       0       0       001010001D    161
     102       0       0       1       0                               0D    162
     142      82       0       0       0       0       0       001010001D    163
     142       0       0       1       0                               0D    164
     124      83       0       0       0       0       0       001020001D    165
     124       0       0       1       0                               0D    166
     100      84       0       0       0       0     165       001010001D    167
     100       0       0       1       0                               0D    168
     124      85       0       0       0       0       0       001020001D    169
     124       0       0       1       0                               0D    170
     100      86       0       0       0       0     169       001010001D    171
     100       0       0       1       0                               0D    172
     102      87       0       0       0       0       0       001010001D    173
     102       0       0       1       0                               0D    174
     142      88       0       0       0       0       0       001010001D    175
     142       0       0       1       0                               0D    176
     144      89       0       0   10000       0       0       000000000D    177
     144       0       0       1       0                PartBody       0D    178
     110      90       0       0       0       0       0       001010001D    179
     110       0       0       1       0                               0D    180
     110      91       0       0       0       0       0       001010001D    181
     110       0       0       1       0                               0D    182
     120      92       0       0       0       0       0       001010001D    183
     120       0       0       1       0                               0D    184
     110      93       0       0       0       0       0       001010001D    185
     110       0       0       1       0                               0D    186
     124      94       0       0       0       0       0       001020001D    187
     124       0       0       1       0                               0D    188
     100      95       0       0       0       0     187       001010001D    189
     100       0       0       1       0                               0D    190
     110      96       0       0       0       0       0       001010001D    191
     110       0       0       1       0                               0D    192
     124      97       0       0       0       0       0       001020001D    193
     124       0       0       1       0                               0D    194
     100      98       0       0       0       0     193       001010001D    195
     100       0       0       1       0                               0D    196
     102      99       0       0       0       0       0       001010001D    197
     102       0       0       1       0                               0D    198
     142     100       0       0       0       0       0       001010001D    199
     142       0       0       1       0                               0D    200
     144     101       0       0   10000       0       0       000000000D    201
     144       0       0       1       0                PartBody       0D    202
     110     102       0       0       0       0       0       001010001D    203
     110       0       0       1       0                               0D    204
     110     103       0       0       0       0       0       001010001D    205
     110       0       0       1       0                               0D    206
     120     104       0       0       0       0       0       001010001D    207
     120       0       0       1       0                               0D    208
     110     105       0       0       0       0       0       001010001D    209
     110       0       0       1       0                               0D    210
     124     106       0       0       0       0       0       001020001D    211
     124       0       0       1       0                               0D    212
     100     107       0       0       0       0     211       001010001D    213
     100       0       0       1       0                               0D    214
     110     108       0       0       0       0       0       001010001D    215
     110       0       0       1       0                               0D    216
     124     109       0       0       0       0       0       001020001D    217
     124       0       0       1       0                               0D    218
     100     110       0       0       0       0     217       001010001D    219
     100       0       0       1       0                               0D    220
     102     111       0       0       0       0       0       001010001D    221
     102       0       0       1       0                               0D    222
     142     112       0       0       0       0       0       001010001D    223
     142       0       0       1       0                               0D    224
     144     113       0       0   10000       0       0       000000000D    225
     144       0       0       1       0                PartBody       0D    226
     108     114       0       0       0       0       0       001010001D    227
     108       0       0       1       0                               0D    228
     124     115       0       0       0       0       0       001020001D    229
     124       0       0       1       0                               0D    230
     100     116       0       0       0       0     229       001010001D    231
     100       0       0       1       0                               0D    232
     124     117       0       0       0       0       0       001020001D    233
     124       0       0       1       0                               0D    234
     100     118       0       0       0       0     233       001010001D    235
     100       0       0       1       0                               0D    236
     102     119       0       0       0       0       0       001010001D    237
     102       0       0       1       0                               0D    238
     142     120       0       0       0       0       0       001010001D    239
     142       0       0       1       0                               0D    240
     124     121       0       0       0       0       0       001020001D    241
     124       0       0       1       0                               0D    242
     100     122       0       0       0       0     241       001010001D    243
     100       0       0       1       0                               0D    244
     124     123       0       0       0       0       0       001020001D    245
     124       0       0       1       0                               0D    246
     100     124       0       0       0       0     245       001010001D    247
     100       0       0       1       0                               0D    248
     102     125       0       0       0       0       0       001010001D    249
     102       0       0       1       0                               0D    250
     142     126       0       0       0       0       0       001010001D    251
     142       0       0       1       0                               0D    252
     144     127       0       0   10000       0       0       000000000D    253
     144       0       0       1       0                PartBody       0D    254
     110     128       0       0       0       0       0       001010001D    255
     110       0       0       1       0                               0D    256
     110     129       0       0       0       0       0       001010001D    257
     110       0       0       1       0                               0D    258
     120     130       0       0       0       0       0       001010001D    259
     120       0       0       1       0                               0D    260
     110     131       0       0       0       0       0       001010001D    261
     110       0       0       1       0                               0D    262
     124     132       0       0       0       0       0       001020001D    263
     124       0       0       1       0                               0D    264
     100     133       0       0       0       0     263       001010001D    265
     100       0       0       1       0                               0D    266
     110     134       0       0       0       0       0       001010001D    267
     110       0       0       1       0                               0D    268
     124     135       0       0       0       0       0       001020001D    269
     124       0       0       1       0                               0D    270
     100     136       0       0       0       0     269       001010001D    271
     100       0       0       1       0                               0D    272
     102     137       0       0       0       0       0       001010001D    273
     102       0       0       1       0                               0D    274
     142     138       0       0       0       0       0       001010001D    275
     142       0       0       1       0                               0D    276
     144     139       0       0   10000       0       0       000000000D    277
     144       0       0       1       0                PartBody       0D    278
     110     140       0       0       0       0       0       001010001D    279
     110       0       0       1       0                               0D    280
     110     141       0       0       0       0       0       001010001D    281
     110       0       0       1       0                               0D    282
     120     142       0       0       0       0       0       001010001D    283
     120       0       0       1       0                               0D    284
     110     143       0       0       0       0       0       001010001D    285
     110       0       0       1       0                               0D    286
     124     144       0       0       0       0       0       001020001D    287
     124       0       0       1       0                               0D    288
     100     145       0       0       0       0     287       001010001D    289
     100       0       0       1       0                               0D    290
     110     146       0       0       0       0       0       001010001D    291
     110       0       0       1       0                               0D    292
     124     147       0       0       0       0       0       001020001D    293
     124       0       0       1       0                               0D    294
     100     148       0       0       0       0     293       001010001D    295
     100       0       0       1       0                               0D    296
     102     149       0       0       0       0       0       001010001D    297
     102       0       0       1       0                               0D    298
     142     150       0       0       0       0       0       001010001D    299
     142       0       0       1       0                               0D    300
     144     151       0       0   10000       0       0       000000000D    301
     144       0       0       1       0                PartBody       0D    302
     110     152       0       0       0       0       0       001010001D    303
     110       0       0       1       0                               0D    304
     110     153       0       0       0       0       0       001010001D    305
     110       0       0       1       0                               0D    306
     120     154       0       0       0       0       0       001010001D    307
     120       0       0       1       0                               0D    308
     124     155       0       0       0       0       0       001020001D    309
     124       0       0       1       0                               0D    310
     100     156       0       0       0       0     309       001010001D    311
     100       0       0       1       0                               0D    312
     110     157       0       0       0       0       0       001010001D    313
     110       0       0       1       0                               0D    314
     124     158       0       0       0       0       0       001020001D    315
     124       0       0       1       0                               0D    316
     100     159       0       0       0       0     315       001010001D    317
     100       0       0       1       0                               0D    318
     110     160       0       0       0       0       0       001010001D    319
     110       0       0       1       0                               0D    320
     102     161       0       0       0       0       0       001010001D    321
     102       0       0       1       0                               0D    322
     142     162       0       0       0       0       0       001010001D    323
     142       0       0       1       0                               0D    324
     144     163       0       0   10000       0       0       000000000D    325
     144       0       0       1       0                PartBody       0D    326
     110     164       0       0       0       0       0       001010001D    327
     110       0       0       1       0                               0D    328
     110     165       0       0       0       0       0       001010001D    329
     110       0       0       1       0                               0D    330
     120     166       0       0       0       0       0       001010001D    331
     120       0       0       1       0                               0D    332
     124     167       0       0       0       0       0       001020001D    333
     124       0       0       1       0                               0D    334
     100     168       0       0       0       0     333       001010001D    335
     100       0       0       1       0                               0D    336
     110     169       0       0       0       0       0       001010001D    337
     110       0       0       1       0                               0D    338
     124     170       0       0       0       0       0       001020001D    339
     124       0       0       1       0                               0D    340
     100     171       0       0       0       0     339       001010001D    341
     100       0       0       1       0                               0D    342
     110     172       0       0       0       0       0       001010001D    343
     110       0       0       1       0                               0D    344
     102     173       0       0       0       0       0       001010001D    345
     102       0       0       1       0                               0D    346
     142     174       0       0       0       0       0       001010001D    347
     142       0       0       1       0                               0D    348
     144     175       0       0   10000       0       0       000000000D    349
     144       0       0       1       0                PartBody       0D    350
110,7.0,0.0,0.0,8.0,0.0,0.0,0,0;                                       1P      1
110,5.0,7.5,0.0,9.0,7.5,0.0,0,0;                                       3P      2
120,1,3,0.0,6.283185307,0,0;                                           5P      3
124,0.0,0.0,1.0,9.0,1.0,0.0,0.0,0.0,0.0,1.0,0.0,0.0,0,0;               7P      4
100,0.0,0.0,0.0,7.5,0.0,-7.5,0.0,0,0;                                  9P      5
110,9.0,-7.5,0.0,5.0,-7.5,0.0,0,0;                                    11P      6
124,0.0,0.0,-1.0,5.0,-1.0,0.0,0.0,0.0,0.0,1.0,0.0,0.0,0,0;            13P      7
100,0.0,0.0,0.0,7.5,0.0,-7.5,0.0,0,0;                                 15P      8
110,5.0,7.5,0.0,9.0,7.5,0.0,0,0;                                      17P      9
102,4,9,11,15,17,0,0;                                                 19P     10
142,0,5,0,19,2,0,0;                                                   21P     11
144,5,1,0,21,0,0;                                                     23P     12
110,7.0,0.0,0.0,8.0,0.0,0.0,0,0;                                      25P     13
110,5.0,-7.5,0.0,9.0,-7.5,0.0,0,0;                                    27P     14
120,25,27,0.0,6.283185307,0,0;                                        29P     15
124,0.0,0.0,1.0,9.0,-1.0,0.0,0.0,0.0,0.0,-1.0,0.0,0.0,0,0;            31P     16
100,0.0,0.0,0.0,7.5,0.0,-7.5,0.0,0,0;                                 33P     17
110,9.0,7.5,0.0,5.0,7.5,0.0,0,0;                                      35P     18
124,0.0,0.0,-1.0,5.0,1.0,0.0,0.0,0.0,0.0,-1.0,0.0,0.0,0,0;            37P     19
100,0.0,0.0,0.0,7.5,0.0,-7.5,0.0,0,0;                                 39P     20
110,5.0,-7.5,0.0,9.0,-7.5,0.0,0,0;                                    41P     21
102,4,33,35,39,41,0,0;                                                43P     22
142,0,29,0,43,2,0,0;                                                  45P     23
144,29,1,0,45,0,0;                                                    47P     24
108,1.0,0.0,0.0,5.0,0,5.0,0.0,0.0,1.0,0,0;                            49P     25
124,0.0,0.0,1.0,5.0,1.0,0.0,0.0,0.0,0.0,1.0,0.0,0.0,0,0;              51P     26
100,0.0,0.0,0.0,5.0,0.0,-5.0,0.0,0,0;                                 53P     27
124,0.0,0.0,1.0,5.0,-1.0,0.0,0.0,0.0,0.0,-1.0,0.0,0.0,0,0;            55P     28
100,0.0,0.0,0.0,5.0,0.0,-5.0,0.0,0,0;                                 57P     29
102,2,53,57,0,0;                                                      59P     30
142,0,49,0,59,2,0,0;                                                  61P     31
124,0.0,0.0,-1.0,5.0,1.0,0.0,0.0,0.0,0.0,-1.0,0.0,0.0,0,0;            63P     32
100,0.0,0.0,0.0,3.0,0.0,-3.0,0.0,0,0;                                 65P     33
124,0.0,0.0,-1.0,5.0,-1.0,0.0,0.0,0.0,0.0,1.0,0.0,0.0,0,0;            67P     34
100,0.0,0.0,0.0,3.0,0.0,-3.0,0.0,0,0;                                 69P     35
102,2,65,69,0,0;                                                      71P     36
142,0,49,0,71,2,0,0;                                                  73P     37
144,49,1,1,61,73,0,0;                                                 75P     38
110,2.5,0.0,0.0,3.5,0.0,0.0,0,0;                                      77P     39
110,0.0,15.0,0.0,5.0,15.0,0.0,0,0;                                    79P     40
120,77,79,0.0,6.283185307,0,0;                                        81P     41
124,0.0,0.0,1.0,5.0,1.0,0.0,0.0,0.0,0.0,1.0,0.0,0.0,0,0;              83P     42
100,0.0,0.0,0.0,15.0,0.0,-15.0,0.0,0,0;                               85P     43
110,5.0,-15.0,0.0,0.0,-15.0,0.0,0,0;                                  87P     44
124,0.0,0.0,-1.0,0.0,-1.0,0.0,0.0,0.0,0.0,1.0,0.0,0.0,0,0;            89P     45
100,0.0,0.0,0.0,15.0,0.0,-15.0,0.0,0,0;                               91P     46
110,0.0,15.0,0.0,5.0,15.0,0.0,0,0;                                    93P     47
102,4,85,87,91,93,0,0;                                                95P     48
142,0,81,0,95,2,0,0;                                                  97P     49
144,81,1,0,97,0,0;                                                    99P     50
110,2.5,0.0,0.0,3.5,0.0,0.0,0,0;                                     101P     51
110,0.0,-15.0,0.0,5.0,-15.0,0.0,0,0;                                 103P     52
120,101,103,0.0,6.283185307,0,0;                                     105P     53
124,0.0,0.0,1.0,5.0,-1.0,0.0,0.0,0.0,0.0,-1.0,0.0,0.0,0,0;           107P     54
100,0.0,0.0,0.0,15.0,0.0,-15.0,0.0,0,0;                              109P     55
110,5.0,15.0,0.0,0.0,15.0,0.0,0,0;                                   111P     56
124,0.0,0.0,-1.0,0.0,1.0,0.0,0.0,0.0,0.0,-1.0,0.0,0.0,0,0;           113P     57
100,0.0,0.0,0.0,15.0,0.0,-15.0,0.0,0,0;                              115P     58
110,0.0,-15.0,0.0,5.0,-15.0,0.0,0,0;                                 117P     59
102,4,109,111,115,117,0,0;                                           119P     60
142,0,105,0,119,2,0,0;                                               121P     61
144,105,1,0,121,0,0;                                                 123P     62
108,1.0,0.0,0.0,0.0,0,0.0,0.0,0.0,1.0,0,0;                           125P     63
124,0.0,0.0,1.0,0.0,1.0,0.0,0.0,0.0,0.0,1.0,0.0,0.0,0,0;             127P     64
100,0.0,0.0,0.0,15.0,0.0,-15.0,0.0,0,0;                              129P     65
124,0.0,0.0,1.0,0.0,-1.0,0.0,0.0,0.0,0.0,-1.0,0.0,0.0,0,0;           131P     66
100,0.0,0.0,0.0,15.0,0.0,-15.0,0.0,0,0;                              133P     67
102,2,129,133,0,0;                                                   135P     68
142,0,125,0,135,2,0,0;                                               137P     69
124,0.0,0.0,-1.0,0.0,1.0,0.0,0.0,0.0,0.0,-1.0,0.0,0.0,0,0;           139P     70
100,0.0,0.0,0.0,5.0,0.0,-5.0,0.0,0,0;                                141P     71
124,0.0,0.0,-1.0,0.0,-1.0,0.0,0.0,0.0,0.0,1.0,0.0,0.0,0,0;           143P     72
100,0.0,0.0,0.0,5.0,0.0,-5.0,0.0,0,0;                                145P     73
102,2,141,145,0,0;                                                   147P     74
142,0,125,0,147,2,0,0;                                               149P     75
144,125,1,1,137,149,0,0;                                             151P     76
124,0.0,0.0,-1.0,5.0,1.0,0.0,0.0,0.0,0.0,-1.0,0.0,0.0,0,0;           153P     77
100,0.0,0.0,0.0,15.0,0.0,-15.0,0.0,0,0;                              155P     78
124,0.0,0.0,-1.0,5.0,-1.0,0.0,0.0,0.0,0.0,1.0,0.0,0.0,0,0;           157P     79
100,0.0,0.0,0.0,15.0,0.0,-15.0,0.0,0,0;                              159P     80
102,2,155,159,0,0;                                                   161P     81
142,0,49,0,161,2,0,0;                                                163P     82
124,0.0,0.0,1.0,5.0,-1.0,0.0,0.0,0.0,0.0,-1.0,0.0,0.0,0,0;           165P     83
100,0.0,0.0,0.0,7.5,0.0,-7.5,0.0,0,0;                                167P     84
124,0.0,0.0,1.0,5.0,1.0,0.0,0.0,0.0,0.0,1.0,0.0,0.0,0,0;             169P     85
100,0.0,0.0,0.0,7.5,0.0,-7.5,0.0,0,0;                                171P     86
102,2,167,171,0,0;                                                   173P     87
142,0,49,0,173,2,0,0;                                                175P     88
144,49,1,1,163,175,0,0;                                              177P     89
110,2.5,0.0,0.0,3.5,0.0,0.0,0,0;                                     179P     90
110,0.0,-5.0,0.0,5.0,-5.0,0.0,0,0;                                   181P     91
120,179,181,0.0,6.283185307,0,0;                                     183P     92
110,5.0,-5.0,0.0,0.0,-5.0,0.0,0,0;                                   185P     93
124,0.0,0.0,1.0,0.0,-1.0,0.0,0.0,0.0,0.0,-1.0,0.0,0.0,0,0;           187P     94
100,0.0,0.0,0.0,5.0,0.0,-5.0,0.0,0,0;                                189P     95
110,0.0,5.0,0.0,5.0,5.0,0.0,0,0;                                     191P     96
124,0.0,0.0,-1.0,5.0,1.0,0.0,0.0,0.0,0.0,-1.0,0.0,0.0,0,0;           193P     97
100,0.0,0.0,0.0,5.0,0.0,-5.0,0.0,0,0;                                195P     98
102,4,185,189,191,195,0,0;                                           197P     99
142,0,183,0,197,2,0,0;                                               199P    100
144,183,1,0,199,0,0;                                                 201P    101
110,2.5,0.0,0.0,3.5,0.0,0.0,0,0;                                     203P    102
110,0.0,5.0,0.0,5.0,5.0,0.0,0,0;                                     205P    103
120,203,205,0.0,6.283185307,0,0;                                     207P    104
110,5.0,5.0,0.0,0.0,5.0,0.0,0,0;                                     209P    105
124,0.0,0.0,1.0,0.0,1.0,0.0,0.0,0.0,0.0,1.0,0.0,0.0,0,0;             211P    106
100,0.0,0.0,0.0,5.0,0.0,-5.0,0.0,0,0;                                213P    107
110,0.0,-5.0,0.0,5.0,-5.0,0.0,0,0;                                   215P    108
124,0.0,0.0,-1.0,5.0,-1.0,0.0,0.0,0.0,0.0,1.0,0.0,0.0,0,0;           217P    109
100,0.0,0.0,0.0,5.0,0.0,-5.0,0.0,0,0;                                219P    110
102,4,209,213,215,219,0,0;                                           221P    111
142,0,207,0,221,2,0,0;                                               223P    112
144,207,1,0,223,0,0;                                                 225P    113
108,1.0,0.0,0.0,9.0,0,9.0,0.0,0.0,1.0,0,0;                           227P    114
124,0.0,0.0,-1.0,9.0,1.0,0.0,0.0,0.0,0.0,-1.0,0.0,0.0,0,0;           229P    115
100,0.0,0.0,0.0,7.5,0.0,-7.5,0.0,0,0;                                231P    116
124,0.0,0.0,-1.0,9.0,-1.0,0.0,0.0,0.0,0.0,1.0,0.0,0.0,0,0;           233P    117
100,0.0,0.0,0.0,7.5,0.0,-7.5,0.0,0,0;                                235P    118
102,2,231,235,0,0;                                                   237P    119
142,0,227,0,237,2,0,0;                                               239P    120
124,0.0,0.0,1.0,9.0,1.0,0.0,0.0,0.0,0.0,1.0,0.0,0.0,0,0;             241P    121
100,0.0,0.0,0.0,6.1,0.0,-6.1,0.0,0,0;                                243P    122
124,0.0,0.0,1.0,9.0,-1.0,0.0,0.0,0.0,0.0,-1.0,0.0,0.0,0,0;           245P    123
100,0.0,0.0,0.0,6.1,0.0,-6.1,0.0,0,0;                                247P    124
102,2,243,247,0,0;                                                   249P    125
142,0,227,0,249,2,0,0;                                               251P    126
144,227,1,1,239,251,0,0;                                             253P    127
110,7.0,0.0,0.0,8.0,0.0,0.0,0,0;                                     255P    128
110,5.0,-3.0,0.0,5.9,-3.0,0.0,0,0;                                   257P    129
120,255,257,0.0,6.283185307,0,0;                                     259P    130
110,5.9,-3.0,0.0,5.0,-3.0,0.0,0,0;                                   261P    131
124,0.0,0.0,1.0,5.0,-1.0,0.0,0.0,0.0,0.0,-1.0,0.0,0.0,0,0;           263P    132
100,0.0,0.0,0.0,3.0,0.0,-3.0,0.0,0,0;                                265P    133
110,5.0,3.0,0.0,5.9,3.0,0.0,0,0;                                     267P    134
124,0.0,0.0,-1.0,5.9,1.0,0.0,0.0,0.0,0.0,-1.0,0.0,0.0,0,0;           269P    135
100,0.0,0.0,0.0,3.0,0.0,-3.0,0.0,0,0;                                271P    136
102,4,261,265,267,271,0,0;                                           273P    137
142,0,259,0,273,2,0,0;                                               275P    138
144,259,1,0,275,0,0;                                                 277P    139
110,7.0,0.0,0.0,8.0,0.0,0.0,0,0;                                     279P    140
110,5.0,3.0,0.0,5.9,3.0,0.0,0,0;                                     281P    141
120,279,281,0.0,6.283185307,0,0;                                     283P    142
110,5.9,3.0,0.0,5.0,3.0,0.0,0,0;                                     285P    143
124,0.0,0.0,1.0,5.0,1.0,0.0,0.0,0.0,0.0,1.0,0.0,0.0,0,0;             287P    144
100,0.0,0.0,0.0,3.0,0.0,-3.0,0.0,0,0;                                289P    145
110,5.0,-3.0,0.0,5.9,-3.0,0.0,0,0;                                   291P    146
124,0.0,0.0,-1.0,5.9,-1.0,0.0,0.0,0.0,0.0,1.0,0.0,0.0,0,0;           293P    147
100,0.0,0.0,0.0,3.0,0.0,-3.0,0.0,0,0;                                295P    148
102,4,285,289,291,295,0,0;                                           297P    149
142,0,283,0,297,2,0,0;                                               299P    150
144,283,1,0,299,0,0;                                                 301P    151
110,2.9,0.0,0.0,3.9,0.0,0.0,0,0;                                     303P    152
110,5.9,3.0,0.0,9.0,6.1,0.0,0,0;                                     305P    153
120,303,305,0.0,3.141592654,0,0;                                     307P    154
124,0.0,0.0,1.0,5.9,1.0,0.0,0.0,0.0,0.0,1.0,0.0,0.0,0,0;             309P    155
100,0.0,0.0,0.0,3.0,0.0,-3.0,0.0,0,0;                                311P    156
110,5.9,-3.0,0.0,9.0,-6.1,0.0,0,0;                                   313P    157
124,0.0,0.0,-1.0,9.0,-1.0,0.0,0.0,0.0,0.0,1.0,0.0,0.0,0,0;           315P    158
100,0.0,0.0,0.0,6.1,0.0,-6.1,0.0,0,0;                                317P    159
110,9.0,6.1,0.0,5.9,3.0,0.0,0,0;                                     319P    160
102,4,311,313,317,319,0,0;                                           321P    161
142,0,307,0,321,2,0,0;                                               323P    162
144,307,1,0,323,0,0;                                                 325P    163
110,2.9,0.0,0.0,3.9,0.0,0.0,0,0;                                     327P    164
110,5.9,-3.0,0.0,9.0,-6.1,0.0,0,0;                                   329P    165
120,327,329,0.0,3.141592654,0,0;                                     331P    166
124,0.0,0.0,1.0,5.9,-1.0,0.0,0.0,0.0,0.0,-1.0,0.0,0.0,0,0;           333P    167
100,0.0,0.0,0.0,3.0,0.0,-3.0,0.0,0,0;                                335P    168
110,5.9,3.0,0.0,9.0,6.1,0.0,0,0;                                     337P    169
124,0.0,0.0,-1.0,9.0,1.0,0.0,0.0,0.0,0.0,-1.0,0.0,0.0,0,0;           339P    170
100,0.0,0.0,0.0,6.1,0.0,-6.1,0.0,0,0;                                341P    171
110,9.0,-6.1,0.0,5.9,-3.0,0.0,0,0;                                   343P    172
102,4,335,337,341,343,0,0;                                           345P    173
142,0,331,0,345,2,0,0;                                               347P    174
144,331,1,0,347,0,0;                                                 349P    175
S      1G      6D    350P    175                                        T      1
