START RECORD GO HERE.                                                   S      1
1H,,1H;,24H1360.000.014.000.PERILLA,28H1360.000.014.000.PERILLA.igs,62HDG      1
ASSAULT SYSTEMES CATIA Version 5-6 Release 2018 - www.3ds.com,35HV5-6R20G      2
18_5.28.6.0.03-10-2020.20.00,32,75,6,75,15,24H1360.000.014.000.PERILLA, G      3
1.0,2,2HMM,1000,1.0,15H20241108.095431,0.001,10000.0,2HPc,15HDESKTOP-CAEG      4
SKE4,11,0,15H20241108.095431,;                                          G      5
     110       1       0       0       0       0       0       001010001D      1
     110       0       0       1       0                               0D      2
     110       2       0       0       0       0       0       001010001D      3
     110       0       0       2       0                               0D      4
     120       4       0       0       0       0       0       001010001D      5
     120       0       4       1       0                               0D      6
     110       5       0       0       0       0       0       001010001D      7
     110       0       0       1       0                               0D      8
     126       6       0       0       0       0       0       001010001D      9
     126       0       0      15       0                               0D     10
     110      21       0       0       0       0       0       001010001D     11
     110       0       0       1       0                               0D     12
     126      22       0       0       0       0       0       001010001D     13
     126       0       0      11       0                               0D     14
     102      33       0       0       0       0       0       001010001D     15
     102       0       0       1       0                               0D     16
     142      34       0       0       0       0       0       001010001D     17
     142       0       0       1       0                               0D     18
     144      35       0       0   10000       0       0       000000000D     19
     144       0       4       1       0                PartBody       0D     20
     110      36       0       0       0       0       0       001010001D     21
     110       0       0       1       0                               0D     22
     110      37       0       0       0       0       0       001010001D     23
     110       0       0       1       0                               0D     24
     120      38       0       0       0       0       0       001010001D     25
     120       0       4       1       0                               0D     26
     110      39       0       0       0       0       0       001010001D     27
     110       0       0       1       0                               0D     28
     126      40       0       0       0       0       0       001010001D     29
     126       0       0      15       0                               0D     30
     110      55       0       0       0       0       0       001010001D     31
     110       0       0       1       0                               0D     32
     126      56       0       0       0       0       0       001010001D     33
     126       0       0      12       0                               0D     34
     102      68       0       0       0       0       0       001010001D     35
     102       0       0       1       0                               0D     36
     142      69       0       0       0       0       0       001010001D     37
     142       0       0       1       0                               0D     38
     144      70       0       0   10000       0       0       000000000D     39
     144       0       4       1       0                PartBody       0D     40
     314      71       0       0       0       0       0       000000201D     41
     314       0       0       1       0                               0D     42
     110      72       0       0       0       0       0       001010001D     43
     110       0       0       1       0                               0D     44
     110      73       0       0       0       0       0       001010001D     45
     110       0       0       2       0                               0D     46
     120      75       0       0       0       0       0       001010001D     47
     120       0     -41       1       0                               0D     48
     110      76       0       0       0       0       0       001010001D     49
     110       0       0       2       0                               0D     50
     124      78       0       0       0       0       0       001020001D     51
     124       0       0       2       0                               0D     52
     100      80       0       0       0       0      51       001010001D     53
     100       0       0       1       0                               0D     54
     110      81       0       0       0       0       0       001010001D     55
     110       0       0       2       0                               0D     56
     124      83       0       0       0       0       0       001020001D     57
     124       0       0       2       0                               0D     58
     100      85       0       0       0       0      57       001010001D     59
     100       0       0       1       0                               0D     60
     102      86       0       0       0       0       0       001010001D     61
     102       0       0       1       0                               0D     62
     142      87       0       0       0       0       0       001010001D     63
     142       0       0       1       0                               0D     64
     126      88       0       0       0       0       0       001010001D     65
     126       0       0      16       0                               0D     66
     126     104       0       0       0       0       0       001010001D     67
     126       0       0      14       0                               0D     68
     102     118       0       0       0       0       0       001010001D     69
     102       0       0       1       0                               0D     70
     142     119       0       0       0       0       0       001010001D     71
     142       0       0       1       0                               0D     72
     144     120       0       0   10000       0       0       000000000D     73
     144       0     -41       1       0                PartBody       0D     74
     110     121       0       0       0       0       0       001010001D     75
     110       0       0       1       0                               0D     76
     110     122       0       0       0       0       0       001010001D     77
     110       0       0       1       0                               0D     78
     120     123       0       0       0       0       0       001010001D     79
     120       0     -41       1       0                               0D     80
     110     124       0       0       0       0       0       001010001D     81
     110       0       0       2       0                               0D     82
     124     126       0       0       0       0       0       001020001D     83
     124       0       0       2       0                               0D     84
     100     128       0       0       0       0      83       001010001D     85
     100       0       0       1       0                               0D     86
     110     129       0       0       0       0       0       001010001D     87
     110       0       0       1       0                               0D     88
     124     130       0       0       0       0       0       001020001D     89
     124       0       0       2       0                               0D     90
     100     132       0       0       0       0      89       001010001D     91
     100       0       0       1       0                               0D     92
     102     133       0       0       0       0       0       001010001D     93
     102       0       0       1       0                               0D     94
     142     134       0       0       0       0       0       001010001D     95
     142       0       0       1       0                               0D     96
     126     135       0       0       0       0       0       001010001D     97
     126       0       0       9       0                               0D     98
     126     144       0       0       0       0       0       001010001D     99
     126       0       0       8       0                               0D    100
     102     152       0       0       0       0       0       001010001D    101
     102       0       0       1       0                               0D    102
     142     153       0       0       0       0       0       001010001D    103
     142       0       0       1       0                               0D    104
     144     154       0       0   10000       0       0       000000000D    105
     144       0     -41       1       0                PartBody       0D    106
     110     155       0       0       0       0       0       001010001D    107
     110       0       0       1       0                               0D    108
     110     156       0       0       0       0       0       001010001D    109
     110       0       0       2       0                               0D    110
     120     158       0       0       0       0       0       001010001D    111
     120       0     -41       1       0                               0D    112
     110     159       0       0       0       0       0       001010001D    113
     110       0       0       2       0                               0D    114
     124     161       0       0       0       0       0       001020001D    115
     124       0       0       2       0                               0D    116
     100     163       0       0       0       0     115       001010001D    117
     100       0       0       1       0                               0D    118
     110     164       0       0       0       0       0       001010001D    119
     110       0       0       2       0                               0D    120
     124     166       0       0       0       0       0       001020001D    121
     124       0       0       2       0                               0D    122
     100     168       0       0       0       0     121       001010001D    123
     100       0       0       1       0                               0D    124
     102     169       0       0       0       0       0       001010001D    125
     102       0       0       1       0                               0D    126
     142     170       0       0       0       0       0       001010001D    127
     142       0       0       1       0                               0D    128
     126     171       0       0       0       0       0       001010001D    129
     126       0       0      14       0                               0D    130
     126     185       0       0       0       0       0       001010001D    131
     126       0       0      15       0                               0D    132
     102     200       0       0       0       0       0       001010001D    133
     102       0       0       1       0                               0D    134
     142     201       0       0       0       0       0       001010001D    135
     142       0       0       1       0                               0D    136
     144     202       0       0   10000       0       0       000000000D    137
     144       0     -41       1       0                PartBody       0D    138
     108     203       0       0       0       0       0       001010001D    139
     108       0     -41       1       0                               0D    140
     124     204       0       0       0       0       0       001020001D    141
     124       0       0       2       0                               0D    142
     100     206       0       0       0       0     141       001010001D    143
     100       0       0       1       0                               0D    144
     124     207       0       0       0       0       0       001020001D    145
     124       0       0       2       0                               0D    146
     100     209       0       0       0       0     145       001010001D    147
     100       0       0       1       0                               0D    148
     102     210       0       0       0       0       0       001010001D    149
     102       0       0       1       0                               0D    150
     142     211       0       0       0       0       0       001010001D    151
     142       0       0       1       0                               0D    152
     124     212       0       0       0       0       0       001020001D    153
     124       0       0       2       0                               0D    154
     100     214       0       0       0       0     153       001010001D    155
     100       0       0       1       0                               0D    156
     124     215       0       0       0       0       0       001020001D    157
     124       0       0       2       0                               0D    158
     100     217       0       0       0       0     157       001010001D    159
     100       0       0       1       0                               0D    160
     102     218       0       0       0       0       0       001010001D    161
     102       0       0       1       0                               0D    162
     142     219       0       0       0       0       0       001010001D    163
     142       0       0       1       0                               0D    164
     144     220       0       0   10000       0       0       000000000D    165
     144       0     -41       1       0                PartBody       0D    166
     108     221       0       0       0       0       0       001010001D    167
     108       0     -41       1       0                               0D    168
     124     222       0       0       0       0       0       001020001D    169
     124       0       0       2       0                               0D    170
     100     224       0       0       0       0     169       001010001D    171
     100       0       0       1       0                               0D    172
     124     225       0       0       0       0       0       001020001D    173
     124       0       0       2       0                               0D    174
     100     227       0       0       0       0     173       001010001D    175
     100       0       0       1       0                               0D    176
     102     228       0       0       0       0       0       001010001D    177
     102       0       0       1       0                               0D    178
     142     229       0       0       0       0       0       001010001D    179
     142       0       0       1       0                               0D    180
     124     230       0       0       0       0       0       001020001D    181
     124       0       0       2       0                               0D    182
     100     232       0       0       0       0     181       001010001D    183
     100       0       0       1       0                               0D    184
     124     233       0       0       0       0       0       001020001D    185
     124       0       0       2       0                               0D    186
     100     235       0       0       0       0     185       001010001D    187
     100       0       0       1       0                               0D    188
     102     236       0       0       0       0       0       001010001D    189
     102       0       0       1       0                               0D    190
     142     237       0       0       0       0       0       001010001D    191
     142       0       0       1       0                               0D    192
     144     238       0       0   10000       0       0       000000000D    193
     144       0     -41       1       0                PartBody       0D    194
     110     239       0       0       0       0       0       001010001D    195
     110       0       0       1       0                               0D    196
     110     240       0       0       0       0       0       001010001D    197
     110       0       0       1       0                               0D    198
     120     241       0       0       0       0       0       001010001D    199
     120       0       4       1       0                               0D    200
     110     242       0       0       0       0       0       001010001D    201
     110       0       0       1       0                               0D    202
     126     243       0       0       0       0       0       001010001D    203
     126       0       0      14       0                               0D    204
     110     257       0       0       0       0       0       001010001D    205
     110       0       0       2       0                               0D    206
     126     259       0       0       0       0       0       001010001D    207
     126       0       0      11       0                               0D    208
     102     270       0       0       0       0       0       001010001D    209
     102       0       0       1       0                               0D    210
     142     271       0       0       0       0       0       001010001D    211
     142       0       0       1       0                               0D    212
     144     272       0       0   10000       0       0       000000000D    213
     144       0       4       1       0                PartBody       0D    214
     110     273       0       0       0       0       0       001010001D    215
     110       0       0       1       0                               0D    216
     110     274       0       0       0       0       0       001010001D    217
     110       0       0       1       0                               0D    218
     120     275       0       0       0       0       0       001010001D    219
     120       0       4       1       0                               0D    220
     110     276       0       0       0       0       0       001010001D    221
     110       0       0       2       0                               0D    222
     126     278       0       0       0       0       0       001010001D    223
     126       0       0      14       0                               0D    224
     110     292       0       0       0       0       0       001010001D    225
     110       0       0       1       0                               0D    226
     126     293       0       0       0       0       0       001010001D    227
     126       0       0      11       0                               0D    228
     102     304       0       0       0       0       0       001010001D    229
     102       0       0       1       0                               0D    230
     142     305       0       0       0       0       0       001010001D    231
     142       0       0       1       0                               0D    232
     144     306       0       0   10000       0       0       000000000D    233
     144       0       4       1       0                PartBody       0D    234
     110     307       0       0       0       0       0       001010001D    235
     110       0       0       1       0                               0D    236
     110     308       0       0       0       0       0       001010001D    237
     110       0       0       2       0                               0D    238
     120     310       0       0       0       0       0       001010001D    239
     120       0     -41       1       0                               0D    240
     124     311       0       0       0       0       0       001020001D    241
     124       0       0       2       0                               0D    242
     100     313       0       0       0       0     241       001010001D    243
     100       0       0       1       0                               0D    244
     124     314       0       0       0       0       0       001020001D    245
     124       0       0       2       0                               0D    246
     100     316       0       0       0       0     245       001010001D    247
     100       0       0       1       0                               0D    248
     110     317       0       0       0       0       0       001010001D    249
     110       0       0       2       0                               0D    250
     124     319       0       0       0       0       0       001020001D    251
     124       0       0       2       0                               0D    252
     100     321       0       0       0       0     251       001010001D    253
     100       0       0       1       0                               0D    254
     110     322       0       0       0       0       0       001010001D    255
     110       0       0       2       0                               0D    256
     102     324       0       0       0       0       0       001010001D    257
     102       0       0       1       0                               0D    258
     142     325       0       0       0       0       0       001010001D    259
     142       0       0       1       0                               0D    260
     144     326       0       0   10000       0       0       000000000D    261
     144       0     -41       1       0                PartBody       0D    262
     110     327       0       0       0       0       0       001010001D    263
     110       0       0       1       0                               0D    264
     110     328       0       0       0       0       0       001010001D    265
     110       0       0       2       0                               0D    266
     120     330       0       0       0       0       0       001010001D    267
     120       0     -41       1       0                               0D    268
     124     331       0       0       0       0       0       001020001D    269
     124       0       0       2       0                               0D    270
     100     333       0       0       0       0     269       001010001D    271
     100       0       0       1       0                               0D    272
     110     334       0       0       0       0       0       001010001D    273
     110       0       0       2       0                               0D    274
     124     336       0       0       0       0       0       001020001D    275
     124       0       0       2       0                               0D    276
     100     338       0       0       0       0     275       001010001D    277
     100       0       0       1       0                               0D    278
     110     339       0       0       0       0       0       001010001D    279
     110       0       0       2       0                               0D    280
     102     341       0       0       0       0       0       001010001D    281
     102       0       0       1       0                               0D    282
     142     342       0       0       0       0       0       001010001D    283
     142       0       0       1       0                               0D    284
     144     343       0       0   10000       0       0       000000000D    285
     144       0     -41       1       0                PartBody       0D    286
     110     344       0       0       0       0       0       001010001D    287
     110       0       0       1       0                               0D    288
     110     345       0       0       0       0       0       001010001D    289
     110       0       0       2       0                               0D    290
     120     347       0       0       0       0       0       001010001D    291
     120       0     -41       1       0                               0D    292
     124     348       0       0       0       0       0       001020001D    293
     124       0       0       2       0                               0D    294
     100     350       0       0       0       0     293       001010001D    295
     100       0       0       1       0                               0D    296
     110     351       0       0       0       0       0       001010001D    297
     110       0       0       2       0                               0D    298
     124     353       0       0       0       0       0       001020001D    299
     124       0       0       2       0                               0D    300
     100     355       0       0       0       0     299       001010001D    301
     100       0       0       1       0                               0D    302
     124     356       0       0       0       0       0       001020001D    303
     124       0       0       2       0                               0D    304
     100     358       0       0       0       0     303       001010001D    305
     100       0       0       1       0                               0D    306
     110     359       0       0       0       0       0       001010001D    307
     110       0       0       2       0                               0D    308
     124     361       0       0       0       0       0       001020001D    309
     124       0       0       2       0                               0D    310
     100     363       0       0       0       0     309       001010001D    311
     100       0       0       1       0                               0D    312
     102     364       0       0       0       0       0       001010001D    313
     102       0       0       1       0                               0D    314
     142     365       0       0       0       0       0       001010001D    315
     142       0       0       1       0                               0D    316
     144     366       0       0   10000       0       0       000000000D    317
     144       0     -41       1       0                PartBody       0D    318
     110     367       0       0       0       0       0       001010001D    319
     110       0       0       1       0                               0D    320
     110     368       0       0       0       0       0       001010001D    321
     110       0       0       2       0                               0D    322
     120     370       0       0       0       0       0       001010001D    323
     120       0     -41       1       0                               0D    324
     124     371       0       0       0       0       0       001020001D    325
     124       0       0       2       0                               0D    326
     100     373       0       0       0       0     325       001010001D    327
     100       0       0       1       0                               0D    328
     110     374       0       0       0       0       0       001010001D    329
     110       0       0       2       0                               0D    330
     124     376       0       0       0       0       0       001020001D    331
     124       0       0       2       0                               0D    332
     100     378       0       0       0       0     331       001010001D    333
     100       0       0       1       0                               0D    334
     110     379       0       0       0       0       0       001010001D    335
     110       0       0       2       0                               0D    336
     102     381       0       0       0       0       0       001010001D    337
     102       0       0       1       0                               0D    338
     142     382       0       0       0       0       0       001010001D    339
     142       0       0       1       0                               0D    340
     144     383       0       0   10000       0       0       000000000D    341
     144       0     -41       1       0                PartBody       0D    342
     108     384       0       0       0       0       0       001010001D    343
     108       0     -41       1       0                               0D    344
     124     385       0       0       0       0       0       001020001D    345
     124       0       0       2       0                               0D    346
     100     387       0       0       0       0     345       001010001D    347
     100       0       0       1       0                               0D    348
     124     388       0       0       0       0       0       001020001D    349
     124       0       0       2       0                               0D    350
     100     390       0       0       0       0     349       001010001D    351
     100       0       0       1       0                               0D    352
     124     391       0       0       0       0       0       001020001D    353
     124       0       0       2       0                               0D    354
     100     393       0       0       0       0     353       001010001D    355
     100       0       0       1       0                               0D    356
     102     394       0       0       0       0       0       001010001D    357
     102       0       0       1       0                               0D    358
     142     395       0       0       0       0       0       001010001D    359
     142       0       0       1       0                               0D    360
     144     396       0       0   10000       0       0       000000000D    361
     144       0     -41       1       0                PartBody       0D    362
     110     397       0       0       0       0       0       001010001D    363
     110       0       0       1       0                               0D    364
     110     398       0       0       0       0       0       001010001D    365
     110       0       0       2       0                               0D    366
     120     400       0       0       0       0       0       001010001D    367
     120       0     -41       1       0                               0D    368
     110     401       0       0       0       0       0       001010001D    369
     110       0       0       1       0                               0D    370
     124     402       0       0       0       0       0       001020001D    371
     124       0       0       2       0                               0D    372
     100     404       0       0       0       0     371       001010001D    373
     100       0       0       1       0                               0D    374
     110     405       0       0       0       0       0       001010001D    375
     110       0       0       2       0                               0D    376
     124     407       0       0       0       0       0       001020001D    377
     124       0       0       2       0                               0D    378
     100     409       0       0       0       0     377       001010001D    379
     100       0       0       1       0                               0D    380
     102     410       0       0       0       0       0       001010001D    381
     102       0       0       1       0                               0D    382
     142     411       0       0       0       0       0       001010001D    383
     142       0       0       1       0                               0D    384
     126     412       0       0       0       0       0       001010001D    385
     126       0       0       9       0                               0D    386
     126     421       0       0       0       0       0       001010001D    387
     126       0       0       9       0                               0D    388
     102     430       0       0       0       0       0       001010001D    389
     102       0       0       1       0                               0D    390
     142     431       0       0       0       0       0       001010001D    391
     142       0       0       1       0                               0D    392
     144     432       0       0   10000       0       0       000000000D    393
     144       0     -41       1       0                PartBody       0D    394
     124     433       0       0       0       0       0       001020001D    395
     124       0       0       2       0                               0D    396
     100     435       0       0       0       0     395       001010001D    397
     100       0       0       1       0                               0D    398
     124     436       0       0       0       0       0       001020001D    399
     124       0       0       2       0                               0D    400
     100     438       0       0       0       0     399       001010001D    401
     100       0       0       1       0                               0D    402
     102     439       0       0       0       0       0       001010001D    403
     102       0       0       1       0                               0D    404
     142     440       0       0       0       0       0       001010001D    405
     142       0       0       1       0                               0D    406
     144     441       0       0   10000       0       0       000000000D    407
     144       0     -41       1       0                PartBody       0D    408
110,-3.5,0.0,7.5,-3.5,0.0,6.5,0,0;                                     1P      1
110,-4.5,-3.142275669E-012,-2.270842135,-4.5,-3.142275669E-012,        3P      2
-7.511795822,0,0;                                                      3P      3
120,1,3,0.0,6.283185307,0,0;                                           5P      4
110,-4.5,0.0,-7.5,-4.5,0.0,-2.499997936,0,0;                           7P      5
126,14,5,0,0,1,0,0.0,0.0,0.0,0.0,0.0,0.0,1.024446671,                  9P      6
1.024446671,1.024446671,2.059598723,2.059598723,2.059598723,           9P      7
3.073748654,3.073748654,3.073748654,4.523782517,4.523782517,           9P      8
4.523782517,4.523782517,4.523782517,4.523782517,1.0,1.0,1.0,1.0,       9P      9
1.0,1.0,1.0,1.0,1.0,1.0,1.0,1.0,1.0,1.0,1.0,-4.5,0.0,                  9P     10
-2.499997936,-4.5,0.14370278,-2.500002806,-4.474186889,                9P     11
0.2874615734,-2.489677653,-4.422242587,0.4243366939,                   9P     12
-2.468866759,-4.274265347,0.6717382593,-2.414512996,                   9P     13
-4.051605796,0.8523466514,-2.35274276,-3.923921511,0.9230985646,       9P     14
-2.324196178,-3.64848511,1.014937399,-2.285145701,-3.355881254,        9P     15
1.005231385,-2.288791348,-3.21437484,0.9740073596,-2.303196028,        9P     16
-2.894421939,0.8414390874,-2.358949865,-2.655050542,                   9P     17
0.5893276245,-2.437767188,-2.55173605,0.4068844292,-2.479305589,       9P     18
-2.5,0.2034424732,-2.5,-2.5,0.0,-2.5,0.0,4.523782517,0.0,0.0,          9P     19
0.0,0,0;                                                               9P     20
110,-2.5,0.0,-2.5,-2.5,0.0,-7.5,0,0;                                  11P     21
126,11,5,0,0,1,0,0.0,0.0,0.0,0.0,0.0,0.0,1.779144431,                 13P     22
1.779144431,1.779144431,3.569749923,3.569749923,3.569749923,          13P     23
4.589201812,4.589201812,4.589201812,4.589201812,4.589201812,          13P     24
4.589201812,1.0,1.0,1.0,1.0,1.0,1.0,1.0,1.0,1.0,1.0,1.0,1.0,          13P     25
-2.5,0.0,-7.5,-2.5,0.2444481307,-7.5,-2.574693611,0.4888961615,       13P     26
-7.49004084,-2.724756748,0.7027061914,-7.469920006,-3.133627649,      13P     27
1.010646945,-7.433552192,-3.645826527,1.036921493,-7.427282864,       13P     28
-3.891209861,0.9710677417,-7.438201264,-4.229724898,                  13P     29
0.7525495311,-7.466250853,-4.42640048,0.4143697695,-7.490102802,      13P     30
-4.475475819,0.2801381286,-7.496730097,-4.5,0.1400690716,-7.5,        13P     31
-4.5,0.0,-7.5,0.0,4.589201812,0.0,0.0,0.0,0,0;                        13P     32
102,4,7,9,11,13,0,0;                                                  15P     33
142,0,5,0,15,2,0,0;                                                   17P     34
144,5,1,0,17,0,0;                                                     19P     35
110,-3.5,0.0,7.5,-3.5,0.0,6.5,0,0;                                    21P     36
110,-2.5,0.0,-2.269347151,-2.5,0.0,-7.510842776,0,0;                  23P     37
120,21,23,0.0,6.283185307,0,0;                                        25P     38
110,-2.5,0.0,-7.5,-2.5,0.0,-2.5,0,0;                                  27P     39
126,14,5,0,0,1,0,0.0,0.0,0.0,0.0,0.0,0.0,1.379021371,                 29P     40
1.379021371,1.379021371,2.394231019,2.394231019,2.394231019,          29P     41
3.772271337,3.772271337,3.772271337,4.520573384,4.520573384,          29P     42
4.520573384,4.520573384,4.520573384,4.520573384,1.0,1.0,1.0,1.0,      29P     43
1.0,1.0,1.0,1.0,1.0,1.0,1.0,1.0,1.0,1.0,1.0,-2.5,0.0,-2.5,-2.5,       29P     44
-0.1934680138,-2.5,-2.54678734,-0.3869348459,-2.481285074,            29P     45
-2.64021419,-0.5621380622,-2.443783781,-2.862844412,                  29P     46
-0.8148426717,-2.368697153,-3.166253477,-0.9585356948,                29P     47
-2.309946707,-3.307001479,-0.9970083581,-2.29246195,                  29P     48
-3.647634806,-1.025065648,-2.280588129,-3.972683005,                  29P     49
-0.9132815444,-2.328698627,-4.138520428,-0.8046392497,                29P     50
-2.373008334,-4.34431577,-0.5870889818,-2.439625935,                  29P     51
-4.458586908,-0.3122927225,-2.483426161,-4.48622942,                  29P     52
-0.2098875622,-2.494491773,-4.5,-0.1049593443,-2.5,-4.5,0.0,          29P     53
-2.5,0.0,4.520573384,0.0,0.0,0.0,0,0;                                 29P     54
110,-4.5,0.0,-2.499997936,-4.5,0.0,-7.5,0,0;                          31P     55
126,11,5,0,0,1,0,0.0,0.0,0.0,0.0,0.0,0.0,1.05483533,1.05483533,       33P     56
1.05483533,2.10967066,2.10967066,2.10967066,4.551223409,              33P     57
4.551223409,4.551223409,4.551223409,4.551223409,4.551223409,1.0,      33P     58
1.0,1.0,1.0,1.0,1.0,1.0,1.0,1.0,1.0,1.0,1.0,-4.5,0.0,-7.5,-4.5,       33P     59
-0.1449306815,-7.5,-4.473743872,-0.2898608485,-7.49649917,            33P     60
-4.420955034,-0.4305762216,-7.489240094,-4.263802104,                 33P     61
-0.6870401226,-7.470451804,-4.025376152,-0.8703590972,                33P     62
-7.450135054,-3.891047538,-0.9376886369,-7.441347518,                 33P     63
-3.422665676,-1.074931795,-7.423004471,-2.923761862,                  33P     64
-0.9254609279,-7.443282785,-2.640667436,-0.6709188333,                33P     65
-7.48124432,-2.5,-0.3354608003,-7.5,-2.5,0.0,-7.5,0.0,                33P     66
4.551223409,0.0,0.0,0.0,0,0;                                          33P     67
102,4,27,29,31,33,0,0;                                                35P     68
142,0,25,0,35,2,0,0;                                                  37P     69
144,25,1,0,37,0,0;                                                    39P     70
314,20.0,20.0,20.0,5HColor,0,0;                                       41P     71
110,-12.5,0.0,0.0,-13.5,0.0,0.0,0,0;                                  43P     72
110,0.0,1.198563847,2.193956405,-7.0,1.198563847,2.193956405,0,       45P     73
0;                                                                    45P     74
120,43,45,0.0,6.283185307,0,0;                                        47P     75
110,0.0,-1.198563847,-2.193956405,-7.0,-1.198563847,                  49P     76
-2.193956405,0,0;                                                     49P     77
124,0.0,0.0,1.0,-7.0,-0.4794255386,0.8775825619,0.0,0.0,              51P     78
-0.8775825619,-0.4794255386,0.0,0.0,0,0;                              51P     79
100,0.0,0.0,0.0,2.5,0.0,-2.5,0.0,0,0;                                 53P     80
110,-7.0,1.198563847,2.193956405,0.0,1.198563847,2.193956405,0,       55P     81
0;                                                                    55P     82
124,0.0,0.0,-1.0,0.0,0.4794255386,0.8775825619,0.0,0.0,               57P     83
0.8775825619,-0.4794255386,0.0,0.0,0,0;                               57P     84
100,0.0,0.0,0.0,2.5,0.0,-2.5,-2.396277621E-012,0,0;                   59P     85
102,4,49,53,55,59,0,0;                                                61P     86
142,0,47,0,61,2,0,0;                                                  63P     87
126,14,5,0,0,1,0,0.0,0.0,0.0,0.0,0.0,0.0,1.098728924,                 65P     88
1.098728924,1.098728924,2.465293929,2.465293929,2.465293929,          65P     89
3.146427781,3.146427781,3.146427781,4.526500347,4.526500347,          65P     90
4.526500347,4.526500347,4.526500347,4.526500347,1.0,1.0,1.0,1.0,      65P     91
1.0,1.0,1.0,1.0,1.0,1.0,1.0,1.0,1.0,1.0,1.0,-4.499999491,             65P     92
1.695778101E-006,-2.5,-4.499998297,-0.1541096534,-2.500000105,        65P     93
-4.470306826,-0.3081526583,-2.488125055,-4.410778791,                 65P     94
-0.4533085067,-2.46429531,-4.22259246,-0.7425498636,                  65P     95
-2.396119883,-3.931332625,-0.932299312,-2.322786014,                  65P     96
-3.745155547,-0.998922107,-2.291306304,-3.449940051,                  65P     97
-1.026021559,-2.280328058,-3.171784777,-0.9517826532,                 65P     98
-2.311989506,-3.083153442,-0.9163141478,-2.326659633,                 65P     99
-2.831654421,-0.7795100251,-2.379202054,-2.640012824,                 65P    100
-0.5619209593,-2.443847575,-2.546858631,-0.3872284158,                65P    101
-2.481256521,-2.5,-0.1936154899,-2.5,-2.5,0.0,-2.5,0.0,               65P    102
4.526500347,0.0,0.0,0.0,0,0;                                          65P    103
126,14,5,0,0,1,0,0.0,0.0,0.0,0.0,0.0,0.0,1.097549918,                 67P    104
1.097549918,1.097549918,2.464352877,2.464352877,2.464352877,          67P    105
3.145339375,3.145339375,3.145339375,4.525356238,4.525356238,          67P    106
4.525356238,4.525356238,4.525356238,4.525356238,1.0,1.0,1.0,1.0,      67P    107
1.0,1.0,1.0,1.0,1.0,1.0,1.0,1.0,1.0,1.0,1.0,-2.5,0.0,-2.5,-2.5,       67P    108
0.153988314,-2.5,-2.529640451,0.3079754584,-2.4881438,                67P    109
-2.588883818,0.453063776,-2.464338898,-2.777288573,0.7424423369,      67P    110
-2.396153613,-3.06845764,0.9318352431,-2.322954096,-3.254672556,      67P    111
0.9989043257,-2.291314183,-3.550004966,1.026031608,-2.280323304,      67P    112
-3.82820706,0.9518168089,-2.311975144,-3.916744459,0.9163886528,      67P    113
-2.326630494,-4.168290124,0.7795624503,-2.379185307,                  67P    114
-4.359894643,0.5620031156,-2.443827402,-4.453158562,                  67P    115
0.3872592216,-2.4812634,-4.5,0.1935799574,-2.5,-4.5,0.0,-2.5,         67P    116
0.0,4.525356238,0.0,0.0,0.0,0,0;                                      67P    117
102,2,65,67,0,0;                                                      69P    118
142,0,47,0,69,2,0,0;                                                  71P    119
144,47,1,1,63,71,0,0;                                                 73P    120
110,-12.5,0.0,0.0,-13.5,0.0,0.0,0,0;                                  75P    121
110,0.0,3.59569154,6.581869214,-7.0,3.59569154,6.581869214,0,0;       77P    122
120,75,77,0.0,6.283185307,0,0;                                        79P    123
110,-7.0,-3.595691539,-6.581869215,0.0,-3.59569154,-6.581869214,      81P    124
0,0;                                                                  81P    125
124,0.0,0.0,1.0,0.0,-0.4794255386,0.8775825619,0.0,0.0,               83P    126
-0.8775825619,-0.4794255386,0.0,0.0,0,0;                              83P    127
100,0.0,0.0,0.0,7.5,0.0,-7.5,-2.396000065E-012,0,0;                   85P    128
110,0.0,3.59569154,6.581869214,-7.0,3.595691539,6.581869215,0,0;      87P    129
124,0.0,0.0,-1.0,-7.0,0.4794255386,0.8775825619,0.0,0.0,              89P    130
0.8775825619,-0.4794255386,0.0,0.0,0,0;                               89P    131
100,0.0,0.0,0.0,7.5,0.0,-7.5,0.0,0,0;                                 91P    132
102,4,81,85,87,91,0,0;                                                93P    133
142,0,79,0,93,2,0,0;                                                  95P    134
126,8,5,0,0,1,0,0.0,0.0,0.0,0.0,0.0,0.0,2.442624992,2.442624992,      97P    135
2.442624992,4.577526418,4.577526418,4.577526418,4.577526418,          97P    136
4.577526418,4.577526418,1.0,1.0,1.0,1.0,1.0,1.0,1.0,1.0,1.0,          97P    137
-2.5,0.0,-7.5,-2.5,-0.3356081228,-7.5,-2.640791082,                   97P    138
-0.6712087256,-7.481227865,-2.923454648,-0.9250678281,                97P    139
-7.442845347,-3.576636797,-1.12135983,-7.416990149,-4.177516499,      97P    140
-0.8254260907,-7.45622484,-4.392448375,-0.5866502277,                 97P    141
-7.485659783,-4.5,-0.2933279819,-7.5,-4.5,0.0,-7.5,0.0,               97P    142
4.577526418,0.0,0.0,0.0,0,0;                                          97P    143
126,8,5,0,0,1,0,0.0,0.0,0.0,0.0,0.0,0.0,2.442362532,2.442362532,      99P    144
2.442362532,4.577584286,4.577584286,4.577584286,4.577584286,          99P    145
4.577584286,4.577584286,1.0,1.0,1.0,1.0,1.0,1.0,1.0,1.0,1.0,          99P    146
-4.5,0.0,-7.5,-4.5,0.3355719442,-7.5,-4.359239346,0.671139055,        99P    147
-7.481231912,-4.077017177,0.9252759657,-7.442816522,                  99P    148
-3.423369371,1.121276603,-7.4170024,-2.823258027,0.825301797,         99P    149
-7.456240264,-2.607583884,0.5867400087,-7.485655489,-2.5,             99P    150
0.2933718912,-7.5,-2.5,0.0,-7.5,0.0,4.577584286,0.0,0.0,0.0,0,0;      99P    151
102,2,97,99,0,0;                                                     101P    152
142,0,79,0,101,2,0,0;                                                103P    153
144,79,1,1,95,103,0,0;                                               105P    154
110,-12.5,0.0,0.0,-13.5,0.0,0.0,0,0;                                 107P    155
110,0.0,-1.198563847,-2.193956405,-7.0,-1.198563847,                 109P    156
-2.193956405,0,0;                                                    109P    157
120,107,109,0.0,6.283185307,0,0;                                     111P    158
110,0.0,1.198563847,2.193956405,-7.0,1.198563847,2.193956405,0,      113P    159
0;                                                                   113P    160
124,0.0,0.0,1.0,-7.0,0.4794255386,-0.8775825619,0.0,0.0,             115P    161
0.8775825619,0.4794255386,0.0,0.0,0,0;                               115P    162
100,0.0,0.0,0.0,2.5,0.0,-2.5,0.0,0,0;                                117P    163
110,-7.0,-1.198563847,-2.193956405,0.0,-1.198563847,                 119P    164
-2.193956405,0,0;                                                    119P    165
124,0.0,0.0,-1.0,0.0,-0.4794255386,-0.8775825619,0.0,0.0,            121P    166
-0.8775825619,0.4794255386,0.0,0.0,0,0;                              121P    167
100,0.0,0.0,0.0,2.5,0.0,-2.5,2.396277621E-012,0,0;                   123P    168
102,4,113,117,119,123,0,0;                                           125P    169
142,0,111,0,125,2,0,0;                                               127P    170
126,14,5,0,0,1,0,0.0,0.0,0.0,0.0,0.0,0.0,1.380026611,                129P    171
1.380026611,1.380026611,2.061011923,2.061011923,2.061011923,         129P    172
3.427814618,3.427814618,3.427814618,4.525352762,4.525352762,         129P    173
4.525352762,4.525352762,4.525352762,4.525352762,1.0,1.0,1.0,1.0,     129P    174
1.0,1.0,1.0,1.0,1.0,1.0,1.0,1.0,1.0,1.0,1.0,-4.499999491,            129P    175
1.695778046E-006,2.5,-4.500000991,0.1935801396,2.499999869,          129P    176
-4.453157919,0.3872630582,2.48126343,-4.359891809,0.5620078685,      129P    177
2.443826345,-4.168285426,0.7795668339,2.379183818,-3.916737733,      129P    178
0.91639175,2.326629253,-3.828200145,0.9518192211,2.311974136,        129P    179
-3.549996942,1.026032038,2.280323075,-3.254665623,0.9989024407,      129P    180
2.291315039,-3.068450168,0.9318319995,2.322955477,-2.777284664,      129P    181
0.7424378603,2.39615507,-2.588882641,0.4530590167,2.464339706,       129P    182
-2.529639836,0.3079718154,2.488144046,-2.5,0.153986716,2.5,-2.5,     129P    183
0.0,2.5,0.0,4.525352762,0.0,0.0,0.0,0,0;                             129P    184
126,14,5,0,0,1,0,0.0,0.0,0.0,0.0,0.0,0.0,1.380072566,                131P    185
1.380072566,1.380072566,2.061206418,2.061206418,2.061206418,         131P    186
3.427771423,3.427771423,3.427771423,4.526500347,4.526500347,         131P    187
4.526500347,4.526500347,4.526500347,4.526500347,1.0,1.0,1.0,1.0,     131P    188
1.0,1.0,1.0,1.0,1.0,1.0,1.0,1.0,1.0,1.0,1.0,-2.5,0.0,2.5,-2.5,       131P    189
-0.1936154898,2.5,-2.546858631,-0.3872284157,2.481256521,            131P    190
-2.640012824,-0.5619209594,2.443847575,-2.831654421,                 131P    191
-0.7795100251,2.379202054,-3.083153442,-0.9163141478,                131P    192
2.326659633,-3.171784778,-0.9517826532,2.311989506,-3.449940051,     131P    193
-1.026021559,2.280328058,-3.745155547,-0.998922107,2.291306304,      131P    194
-3.931332625,-0.932299312,2.322786014,-4.22259246,-0.7425498636,     131P    195
2.396119883,-4.410778791,-0.4533085066,2.46429531,-4.470306826,      131P    196
-0.3081526584,2.488125055,-4.499998297,-0.1541096534,                131P    197
2.500000105,-4.499999491,1.69577805E-006,2.5,0.0,4.526500347,        131P    198
0.0,0.0,0.0,0,0;                                                     131P    199
102,2,129,131,0,0;                                                   133P    200
142,0,111,0,133,2,0,0;                                               135P    201
144,111,1,1,127,135,0,0;                                             137P    202
108,-1.0,0.0,0.0,0.0,0,0.0,0.0,7.5,1.0,0,0;                          139P    203
124,0.0,0.0,-1.0,0.0,-0.4794255386,-0.8775825619,0.0,0.0,            141P    204
-0.8775825619,0.4794255386,0.0,0.0,0,0;                              141P    205
100,0.0,0.0,0.0,7.5,0.0,-7.5,2.397249066E-012,0,0;                   143P    206
124,0.0,0.0,-1.0,0.0,0.4794255386,0.8775825619,0.0,0.0,              145P    207
0.8775825619,-0.4794255386,0.0,0.0,0,0;                              145P    208
100,0.0,0.0,0.0,7.5,0.0,-7.5,-2.394334731E-012,0,0;                  147P    209
102,2,143,147,0,0;                                                   149P    210
142,0,139,0,149,2,0,0;                                               151P    211
124,0.0,0.0,1.0,0.0,-0.4794255386,0.8775825619,0.0,0.0,              153P    212
-0.8775825619,-0.4794255386,0.0,0.0,0,0;                             153P    213
100,0.0,0.0,0.0,2.5,0.0,-2.5,-2.39697151E-012,0,0;                   155P    214
124,0.0,0.0,1.0,0.0,0.4794255386,-0.8775825619,0.0,0.0,              157P    215
0.8775825619,0.4794255386,0.0,0.0,0,0;                               157P    216
100,0.0,0.0,0.0,2.5,0.0,-2.5,2.395583731E-012,0,0;                   159P    217
102,2,155,159,0,0;                                                   161P    218
142,0,139,0,161,2,0,0;                                               163P    219
144,139,1,1,151,163,0,0;                                             165P    220
108,-1.0,0.0,0.0,7.0,0,-7.0,0.0,2.5,1.0,0,0;                         167P    221
124,0.0,0.0,-1.0,-7.0,-0.4794255386,-0.8775825619,0.0,0.0,           169P    222
-0.8775825619,0.4794255386,0.0,0.0,0,0;                              169P    223
100,0.0,0.0,0.0,9.525,0.0,-9.525,0.0,0,0;                            171P    224
124,0.0,0.0,-1.0,-7.0,0.4794255386,0.8775825619,0.0,0.0,             173P    225
0.8775825619,-0.4794255386,0.0,0.0,0,0;                              173P    226
100,0.0,0.0,0.0,9.525,0.0,-9.525,0.0,0,0;                            175P    227
102,2,171,175,0,0;                                                   177P    228
142,0,167,0,177,2,0,0;                                               179P    229
124,0.0,0.0,1.0,-7.0,-0.4794255386,0.8775825619,0.0,0.0,             181P    230
-0.8775825619,-0.4794255386,0.0,0.0,0,0;                             181P    231
100,0.0,0.0,0.0,7.5,0.0,-7.5,0.0,0,0;                                183P    232
124,0.0,0.0,1.0,-7.0,0.4794255386,-0.8775825619,0.0,0.0,             185P    233
0.8775825619,0.4794255386,0.0,0.0,0,0;                               185P    234
100,0.0,0.0,0.0,7.5,0.0,-7.5,0.0,0,0;                                187P    235
102,2,183,187,0,0;                                                   189P    236
142,0,167,0,189,2,0,0;                                               191P    237
144,167,1,1,179,191,0,0;                                             193P    238
110,-3.5,0.0,7.5,-3.5,0.0,6.5,0,0;                                   195P    239
110,-4.5,0.0,7.510980603,-4.5,0.0,2.270841812,0,0;                   197P    240
120,195,197,0.0,6.283185307,0,0;                                     199P    241
110,-2.5,0.0,7.5,-2.5,0.0,2.5,0,0;                                   201P    242
126,14,5,0,0,1,0,0.0,0.0,0.0,0.0,0.0,0.0,1.450019854,                203P    243
1.450019854,1.450019854,2.464165502,2.464165502,2.464165502,         203P    244
3.499316448,3.499316448,3.499316448,4.523772877,4.523772877,         203P    245
4.523772877,4.523772877,4.523772877,4.523772877,1.0,1.0,1.0,1.0,     203P    246
1.0,1.0,1.0,1.0,1.0,1.0,1.0,1.0,1.0,1.0,1.0,-2.5,0.0,2.5,-2.5,       203P    247
0.2034405789,2.5,-2.551735086,0.4068798606,2.479305974,              203P    248
-2.655049202,0.5893242376,2.437768786,-2.894416381,0.8414343616,     203P    249
2.358951233,-3.214366019,0.9740046927,2.303197313,-3.355875235,      203P    250
1.005230313,2.288791722,-3.648477764,1.014938388,2.285145383,        203P    251
-3.923915146,0.9231016068,2.324194724,-4.051599465,0.8523506381,     203P    252
2.352740991,-4.274261176,0.6717434977,2.414512136,-4.422241213,      203P    253
0.424340734,2.468865019,-4.474186643,0.2874638776,2.489674659,       203P    254
-4.499999756,0.1437038035,2.499999903,-4.5,1.695778909E-006,2.5,     203P    255
0.0,4.523772877,0.0,0.0,0.0,0,0;                                     203P    256
110,-4.499999491,1.695778046E-006,2.5,-4.49999819,                   205P    257
2.06102051E-007,7.5,0,0;                                             205P    258
126,11,5,0,0,1,0,0.0,0.0,0.0,0.0,0.0,0.0,2.130813144,                207P    259
2.130813144,2.130813144,3.368739923,3.368739923,3.368739923,         207P    260
4.606666702,4.606666702,4.606666702,4.606666702,4.606666702,         207P    261
4.606666702,1.0,1.0,1.0,1.0,1.0,1.0,1.0,1.0,1.0,1.0,1.0,1.0,         207P    262
-4.5,2.061024247E-007,7.5,-4.49999994,0.2933262229,7.499999992,      207P    263
-4.392449689,0.586669006,7.485659959,-4.177269204,0.8256121607,      207P    264
7.45623587,-3.734462744,1.043558497,7.427290946,-3.262715978,        207P    265
0.9942940254,7.433749691,-3.099679603,0.939076536,7.441395105,       207P    266
-2.808354828,0.7687878962,7.462589549,-2.608362534,0.4970737912,     207P    267
7.485649099,-2.536302742,0.340834696,7.495159618,-2.5,               207P    268
0.1704177027,7.5,-2.5,0.0,7.5,0.0,4.606666702,0.0,0.0,0.0,0,0;       207P    269
102,4,201,203,205,207,0,0;                                           209P    270
142,0,199,0,209,2,0,0;                                               211P    271
144,199,1,0,211,0,0;                                                 213P    272
110,-3.5,0.0,7.5,-3.5,0.0,6.5,0,0;                                   215P    273
110,-2.5,0.0,7.510842896,-2.5,0.0,2.269347151,0,0;                   217P    274
120,215,217,0.0,6.283185307,0,0;                                     219P    275
110,-4.49999819,2.06102051E-007,7.5,-4.499999491,                    221P    276
1.695778046E-006,2.5,0,0;                                            221P    277
126,14,5,0,0,1,0,0.0,0.0,0.0,0.0,0.0,0.0,0.748302047,                223P    278
0.748302047,0.748302047,2.126342364,2.126342364,2.126342364,         223P    279
3.141552012,3.141552012,3.141552012,4.520573383,4.520573383,         223P    280
4.520573383,4.520573383,4.520573383,4.520573383,1.0,1.0,1.0,1.0,     223P    281
1.0,1.0,1.0,1.0,1.0,1.0,1.0,1.0,1.0,1.0,1.0,-4.5,0.0,2.5,-4.5,       223P    282
-0.1049593443,2.5,-4.48622942,-0.2098875622,2.494491773,             223P    283
-4.458586908,-0.3122927225,2.483426161,-4.34431577,                  223P    284
-0.5870889817,2.439625935,-4.138520428,-0.8046392496,                223P    285
2.373008334,-3.972683005,-0.9132815444,2.328698627,-3.647634805,     223P    286
-1.025065648,2.280588129,-3.307001479,-0.9970083581,2.29246195,      223P    287
-3.166253477,-0.9585356948,2.309946707,-2.862844412,                 223P    288
-0.8148426718,2.368697153,-2.64021419,-0.5621380622,2.443783781,     223P    289
-2.54678734,-0.3869348459,2.481285074,-2.5,-0.1934680138,2.5,        223P    290
-2.5,0.0,2.5,0.0,4.520573383,0.0,0.0,0.0,0,0;                        223P    291
110,-2.5,0.0,2.5,-2.5,0.0,7.5,0,0;                                   225P    292
126,11,5,0,0,1,0,0.0,0.0,0.0,0.0,0.0,0.0,1.054817547,                227P    293
1.054817547,1.054817547,2.109635093,2.109635093,2.109635093,         227P    294
4.551148774,4.551148774,4.551148774,4.551148774,4.551148774,         227P    295
4.551148774,1.0,1.0,1.0,1.0,1.0,1.0,1.0,1.0,1.0,1.0,1.0,1.0,         227P    296
-2.5,0.0,7.5,-2.5,-0.1449293799,7.5,-2.526255656,-0.2898582453,      227P    297
7.496499233,-2.579043616,-0.4305730742,7.489240246,-2.736195055,     227P    298
-0.6870366976,7.470452122,-2.9746193,-0.8703562229,7.450135427,      227P    299
-3.108946882,-0.9376859936,7.44134787,-3.577323655,-1.074931243,     227P    300
7.423004535,-4.07622394,-0.9254677107,7.443281927,-4.359344295,      227P    301
-0.6708713188,7.481245951,-4.5,-0.3354468122,7.5,-4.5,0.0,7.5,       227P    302
0.0,4.551148774,0.0,0.0,0.0,0,0;                                     227P    303
102,4,221,223,225,227,0,0;                                           229P    304
142,0,219,0,229,2,0,0;                                               231P    305
144,219,1,0,231,0,0;                                                 233P    306
110,-12.5,0.0,0.0,-13.5,0.0,0.0,0,0;                                 235P    307
110,-7.0,-4.566528255,-8.358973902,-24.0,-4.566528255,               237P    308
-8.358973902,0,0;                                                    237P    309
120,235,237,0.0,6.283185307,0,0;                                     239P    310
124,0.0,0.0,-1.0,-24.0,-0.4794255386,-0.8775825619,0.0,0.0,          241P    311
-0.8775825619,0.4794255386,0.0,0.0,0,0;                              241P    312
100,0.0,0.0,0.0,9.525,0.0,-4.7625,8.248891971,0,0;                   243P    313
124,0.0,0.0,-1.0,-24.0,-0.5202960232,0.8539859766,0.0,0.0,           245P    314
0.8539859766,0.5202960232,0.0,0.0,0,0;                               245P    315
100,0.0,0.0,0.0,9.525,0.0,4.7625,8.248891971,0,0;                    247P    316
110,-24.0,4.566528255,8.358973902,-7.0,4.566528255,8.358973902,      249P    317
0,0;                                                                 249P    318
124,0.0,0.0,1.0,-7.0,0.4794255386,-0.8775825619,0.0,0.0,             251P    319
0.8775825619,0.4794255386,0.0,0.0,0,0;                               251P    320
100,0.0,0.0,0.0,9.525,0.0,-9.525,0.0,0,0;                            253P    321
110,-7.0,-4.566528255,-8.358973902,-24.0,-4.566528255,               255P    322
-8.358973902,0,0;                                                    255P    323
102,5,243,247,249,253,255,0,0;                                       257P    324
142,0,239,0,257,2,0,0;                                               259P    325
144,239,1,0,259,0,0;                                                 261P    326
110,-12.5,0.0,0.0,-13.5,0.0,0.0,0,0;                                 263P    327
110,-7.0,4.566528255,8.358973902,-24.0,4.566528255,8.358973902,      265P    328
0,0;                                                                 265P    329
120,263,265,0.0,6.283185307,0,0;                                     267P    330
124,0.0,0.0,-1.0,-24.0,0.4794255386,0.8775825619,0.0,0.0,            269P    331
0.8775825619,-0.4794255386,0.0,0.0,0,0;                              269P    332
100,0.0,0.0,0.0,9.525,0.0,-9.525,0.0,0,0;                            271P    333
110,-24.0,-4.566528255,-8.358973902,-7.0,-4.566528255,               273P    334
-8.358973902,0,0;                                                    273P    335
124,0.0,0.0,1.0,-7.0,-0.4794255386,0.8775825619,0.0,0.0,             275P    336
-0.8775825619,-0.4794255386,0.0,0.0,0,0;                             275P    337
100,0.0,0.0,0.0,9.525,0.0,-9.525,0.0,0,0;                            277P    338
110,-7.0,4.566528255,8.358973902,-24.0,4.566528255,8.358973902,      279P    339
0,0;                                                                 279P    340
102,4,271,273,277,279,0,0;                                           281P    341
142,0,267,0,281,2,0,0;                                               283P    342
144,267,1,0,283,0,0;                                                 285P    343
110,-33.525,0.0,0.0,-32.525,0.0,0.0,0,0;                             287P    344
110,-25.0,4.087102717,7.48139134,-24.0,4.566528255,8.358973902,      289P    345
0,0;                                                                 289P    346
120,287,289,0.0,3.141592654,0,0;                                     291P    347
124,0.0,0.0,-1.0,-25.0,-0.5202960232,0.8539859766,0.0,0.0,           293P    348
0.8539859766,0.5202960232,0.0,0.0,0,0;                               293P    349
100,0.0,0.0,0.0,8.525,0.0,4.2625,7.382866567,0,0;                    295P    350
110,-25.0,4.087102717,7.48139134,-24.0,4.566528255,8.358973902,      297P    351
0,0;                                                                 297P    352
124,0.0,0.0,1.0,-24.0,0.4794255386,-0.8775825619,0.0,0.0,            299P    353
0.8775825619,0.4794255386,0.0,0.0,0,0;                               299P    354
100,0.0,0.0,0.0,9.525,0.0,4.7625,8.248891971,0,0;                    301P    355
124,0.0,0.0,1.0,-24.0,-0.5202960232,-0.8539859766,0.0,0.0,           303P    356
0.8539859766,-0.5202960232,0.0,0.0,0,0;                              303P    357
100,0.0,0.0,0.0,9.525,0.0,-4.7625,8.248891971,0,0;                   305P    358
110,-24.0,-4.566528255,-8.358973902,-25.0,-4.087102717,              307P    359
-7.48139134,0,0;                                                     307P    360
124,0.0,0.0,-1.0,-25.0,-0.4794255386,-0.8775825619,0.0,0.0,          309P    361
-0.8775825619,0.4794255386,0.0,0.0,0,0;                              309P    362
100,0.0,0.0,0.0,8.525,0.0,-4.2625,7.382866567,0,0;                   311P    363
102,6,295,297,301,305,307,311,0,0;                                   313P    364
142,0,291,0,313,2,0,0;                                               315P    365
144,291,1,0,315,0,0;                                                 317P    366
110,-33.525,0.0,0.0,-32.525,0.0,0.0,0,0;                             319P    367
110,-25.0,-4.087102716,-7.481391339,-24.0,-4.566528255,              321P    368
-8.358973902,0,0;                                                    321P    369
120,319,321,0.0,3.141592654,0,0;                                     323P    370
124,0.0,0.0,-1.0,-25.0,0.4794255386,0.8775825619,0.0,0.0,            325P    371
0.8775825619,-0.4794255386,0.0,0.0,0,0;                              325P    372
100,0.0,0.0,0.0,8.525,0.0,-8.525,0.0,0,0;                            327P    373
110,-25.0,-4.087102717,-7.48139134,-24.0,-4.566528255,               329P    374
-8.358973902,0,0;                                                    329P    375
124,0.0,0.0,1.0,-24.0,-0.4794255386,0.8775825619,0.0,0.0,            331P    376
-0.8775825619,-0.4794255386,0.0,0.0,0,0;                             331P    377
100,0.0,0.0,0.0,9.525,0.0,-9.525,0.0,0,0;                            333P    378
110,-24.0,4.566528255,8.358973902,-25.0,4.087102717,7.48139134,      335P    379
0,0;                                                                 335P    380
102,4,327,329,333,335,0,0;                                           337P    381
142,0,323,0,337,2,0,0;                                               339P    382
144,323,1,0,339,0,0;                                                 341P    383
108,-1.0,0.0,0.0,25.0,0,-25.0,0.0,0.0,1.0,0,0;                       343P    384
124,0.0,0.0,1.0,-25.0,0.4794255386,-0.8775825619,0.0,0.0,            345P    385
0.8775825619,0.4794255386,0.0,0.0,0,0;                               345P    386
100,0.0,0.0,0.0,8.525,0.0,4.2625,7.382866568,0,0;                    347P    387
124,0.0,0.0,1.0,-25.0,-0.5202960232,-0.8539859766,0.0,0.0,           349P    388
0.8539859766,-0.5202960232,0.0,0.0,0,0;                              349P    389
100,0.0,0.0,0.0,8.525,0.0,-4.2625,7.382866568,0,0;                   351P    390
124,0.0,0.0,1.0,-25.0,-0.4794255386,0.8775825619,0.0,0.0,            353P    391
-0.8775825619,-0.4794255386,0.0,0.0,0,0;                             353P    392
100,0.0,0.0,0.0,8.525,0.0,-8.525,0.0,0,0;                            355P    393
102,3,347,351,355,0,0;                                               357P    394
142,0,343,0,357,2,0,0;                                               359P    395
144,343,1,0,359,0,0;                                                 361P    396
110,-12.5,0.0,0.0,-13.5,0.0,0.0,0,0;                                 363P    397
110,0.0,-3.59569154,-6.581869214,-7.0,-3.59569154,-6.581869214,      365P    398
0,0;                                                                 365P    399
120,363,365,0.0,6.283185307,0,0;                                     367P    400
110,-7.0,3.595691539,6.581869215,0.0,3.59569154,6.581869214,0,0;     369P    401
124,0.0,0.0,1.0,0.0,0.4794255386,-0.8775825619,0.0,0.0,              371P    402
0.8775825619,0.4794255386,0.0,0.0,0,0;                               371P    403
100,0.0,0.0,0.0,7.5,0.0,-7.5,2.396000065E-012,0,0;                   373P    404
110,0.0,-3.59569154,-6.581869214,-7.0,-3.595691539,-6.581869215,     375P    405
0,0;                                                                 375P    406
124,0.0,0.0,-1.0,-7.0,-0.4794255386,-0.8775825619,0.0,0.0,           377P    407
-0.8775825619,0.4794255386,0.0,0.0,0,0;                              377P    408
100,0.0,0.0,0.0,7.5,0.0,-7.5,0.0,0,0;                                379P    409
102,4,369,373,375,379,0,0;                                           381P    410
142,0,367,0,381,2,0,0;                                               383P    411
126,8,5,0,0,1,0,0.0,0.0,0.0,0.0,0.0,0.0,2.442623045,2.442623045,     385P    412
2.442623045,4.577494656,4.577494656,4.577494656,4.577494656,         385P    413
4.577494656,4.577494656,1.0,1.0,1.0,1.0,1.0,1.0,1.0,1.0,1.0,         385P    414
-4.49999819,2.061020575E-007,7.5,-4.499992995,-0.3355987039,         385P    415
7.500000009,-4.359207543,-0.6711671946,7.481228914,-4.076542042,     385P    416
-0.9250574695,7.442846705,-3.423357773,-1.12136819,7.416989063,      385P    417
-2.822479516,-0.8254168702,7.456226038,-2.607550315,                 385P    418
-0.5866466563,7.485659957,-2.5,-0.2933261962,7.5,-2.5,0.0,7.5,       385P    419
0.0,4.577494656,0.0,0.0,0.0,0,0;                                     385P    420
126,8,5,0,0,1,0,0.0,0.0,0.0,0.0,0.0,0.0,2.437866093,2.437866093,     387P    421
2.437866093,4.568811339,4.568811339,4.568811339,4.568811339,         387P    422
4.568811339,4.568811339,1.0,1.0,1.0,1.0,1.0,1.0,1.0,1.0,1.0,         387P    423
-2.5,0.0,7.5,-2.5,0.3356059067,7.5,-2.640789168,0.6712043028,        387P    424
7.481228113,-2.922975565,0.9252758666,7.442817737,-3.576753143,      387P    425
1.121216797,7.417008934,-4.177305019,0.8255734154,7.456205573,       387P    426
-4.392446311,0.586703758,7.485658208,-4.50000273,0.2933441284,       387P    427
7.499999992,-4.49999819,2.061020509E-007,7.5,0.0,4.568811339,        387P    428
0.0,0.0,0.0,0,0;                                                     387P    429
102,2,385,387,0,0;                                                   389P    430
142,0,367,0,389,2,0,0;                                               391P    431
144,367,1,1,383,391,0,0;                                             393P    432
124,0.0,0.0,-1.0,-7.0,-0.4794255386,-0.8775825619,0.0,0.0,           395P    433
-0.8775825619,0.4794255386,0.0,0.0,0,0;                              395P    434
100,0.0,0.0,0.0,2.5,0.0,-2.5,0.0,0,0;                                397P    435
124,0.0,0.0,-1.0,-7.0,0.4794255386,0.8775825619,0.0,0.0,             399P    436
0.8775825619,-0.4794255386,0.0,0.0,0,0;                              399P    437
100,0.0,0.0,0.0,2.5,0.0,-2.5,0.0,0,0;                                401P    438
102,2,397,401,0,0;                                                   403P    439
142,0,167,0,403,2,0,0;                                               405P    440
144,167,1,0,405,0,0;                                                 407P    441
S      1G      5D    408P    441                                        T      1
