START RECORD GO HERE.                                                   S      1
1H,,1H;,28H1360.000.011.000.BUJE_AJUSTE,32H1360.000.011.000.BUJE_AJUSTE.G      1
igs,62HDASSAULT SYSTEMES CATIA Version 5-6 Release 2018 - www.3ds.com,  G      2
35HV5-6R2018_5.28.6.0.03-10-2020.20.00,32,75,6,75,15,28H1360.000.011.000G      3
.BUJE_AJUSTE,1.0,2,2HMM,1000,1.0,15H20241108.095457,0.001,10000.0,2HPc, G      4
15HDESKTOP-CAESKE4,11,0,15H20241108.095457,;                            G      5
     314       1       0       0       0       0       0       000000201D      1
     314       0       0       1       0                               0D      2
     110       2       0       0       0       0       0       001010001D      3
     110       0       0       1       0                               0D      4
     110       3       0       0       0       0       0       001010001D      5
     110       0       0       1       0                               0D      6
     120       4       0       0       0       0       0       001010001D      7
     120       0      -1       1       0                               0D      8
     126       5       0       0       0       0       0       001010001D      9
     126       0       0       6       0                               0D     10
     126      11       0       0       0       0       0       001010001D     11
     126       0       0       7       0                               0D     12
     110      18       0       0       0       0       0       001010001D     13
     110       0       0       1       0                               0D     14
     126      19       0       0       0       0       0       001010001D     15
     126       0       0       6       0                               0D     16
     126      25       0       0       0       0       0       001010001D     17
     126       0       0       7       0                               0D     18
     110      32       0       0       0       0       0       001010001D     19
     110       0       0       1       0                               0D     20
     102      33       0       0       0       0       0       001010001D     21
     102       0       0       1       0                               0D     22
     142      34       0       0       0       0       0       001010001D     23
     142       0       0       1       0                               0D     24
     144      35       0       0   10000       0       0       000000000D     25
     144       0      -1       1       0                PartBody       0D     26
     314      36       0       0       0       0       0       000000201D     27
     314       0       0       1       0                               0D     28
     110      37       0       0       0       0       0       001010001D     29
     110       0       0       1       0                               0D     30
     110      38       0       0       0       0       0       001010001D     31
     110       0       0       1       0                               0D     32
     120      39       0       0       0       0       0       001010001D     33
     120       0     -27       1       0                               0D     34
     126      40       0       0       0       0       0       001010001D     35
     126       0       0       6       0                               0D     36
     126      46       0       0       0       0       0       001010001D     37
     126       0       0       6       0                               0D     38
     110      52       0       0       0       0       0       001010001D     39
     110       0       0       1       0                               0D     40
     124      53       0       0       0       0       0       001020001D     41
     124       0       0       1       0                               0D     42
     100      54       0       0       0       0      41       001010001D     43
     100       0       0       1       0                               0D     44
     124      55       0       0       0       0       0       001020001D     45
     124       0       0       2       0                               0D     46
     100      57       0       0       0       0      45       001010001D     47
     100       0       0       1       0                               0D     48
     110      58       0       0       0       0       0       001010001D     49
     110       0       0       1       0                               0D     50
     124      59       0       0       0       0       0       001020001D     51
     124       0       0       2       0                               0D     52
     100      61       0       0       0       0      51       001010001D     53
     100       0       0       1       0                               0D     54
     124      62       0       0       0       0       0       001020001D     55
     124       0       0       2       0                               0D     56
     100      64       0       0       0       0      55       001010001D     57
     100       0       0       1       0                               0D     58
     110      65       0       0       0       0       0       001010001D     59
     110       0       0       1       0                               0D     60
     102      66       0       0       0       0       0       001010001D     61
     102       0       0       1       0                               0D     62
     142      67       0       0       0       0       0       001010001D     63
     142       0       0       1       0                               0D     64
     144      68       0       0   10000       0       0       000000000D     65
     144       0     -27       1       0                PartBody       0D     66
     110      69       0       0       0       0       0       001010001D     67
     110       0       0       1       0                               0D     68
     110      70       0       0       0       0       0       001010001D     69
     110       0       0       1       0                               0D     70
     120      71       0       0       0       0       0       001010001D     71
     120       0     -27       1       0                               0D     72
     126      72       0       0       0       0       0       001010001D     73
     126       0       0       6       0                               0D     74
     126      78       0       0       0       0       0       001010001D     75
     126       0       0       6       0                               0D     76
     110      84       0       0       0       0       0       001010001D     77
     110       0       0       1       0                               0D     78
     124      85       0       0       0       0       0       001020001D     79
     124       0       0       1       0                               0D     80
     100      86       0       0       0       0      79       001010001D     81
     100       0       0       1       0                               0D     82
     110      87       0       0       0       0       0       001010001D     83
     110       0       0       1       0                               0D     84
     124      88       0       0       0       0       0       001020001D     85
     124       0       0       1       0                               0D     86
     100      89       0       0       0       0      85       001010001D     87
     100       0       0       1       0                               0D     88
     110      90       0       0       0       0       0       001010001D     89
     110       0       0       1       0                               0D     90
     102      91       0       0       0       0       0       001010001D     91
     102       0       0       1       0                               0D     92
     142      92       0       0       0       0       0       001010001D     93
     142       0       0       1       0                               0D     94
     144      93       0       0   10000       0       0       000000000D     95
     144       0     -27       1       0                PartBody       0D     96
     110      94       0       0       0       0       0       001010001D     97
     110       0       0       1       0                               0D     98
     110      95       0       0       0       0       0       001010001D     99
     110       0       0       1       0                               0D    100
     120      96       0       0       0       0       0       001010001D    101
     120       0     -27       1       0                               0D    102
     124      97       0       0       0       0       0       001020001D    103
     124       0       0       2       0                               0D    104
     100      99       0       0       0       0     103       001010001D    105
     100       0       0       1       0                               0D    106
     110     100       0       0       0       0       0       001010001D    107
     110       0       0       1       0                               0D    108
     124     101       0       0       0       0       0       001020001D    109
     124       0       0       1       0                               0D    110
     100     102       0       0       0       0     109       001010001D    111
     100       0       0       1       0                               0D    112
     124     103       0       0       0       0       0       001020001D    113
     124       0       0       2       0                               0D    114
     100     105       0       0       0       0     113       001010001D    115
     100       0       0       1       0                               0D    116
     110     106       0       0       0       0       0       001010001D    117
     110       0       0       1       0                               0D    118
     124     107       0       0       0       0       0       001020001D    119
     124       0       0       1       0                               0D    120
     100     108       0       0       0       0     119       001010001D    121
     100       0       0       1       0                               0D    122
     102     109       0       0       0       0       0       001010001D    123
     102       0       0       1       0                               0D    124
     142     110       0       0       0       0       0       001010001D    125
     142       0       0       1       0                               0D    126
     144     111       0       0   10000       0       0       000000000D    127
     144       0     -27       1       0                PartBody       0D    128
     110     112       0       0       0       0       0       001010001D    129
     110       0       0       1       0                               0D    130
     110     113       0       0       0       0       0       001010001D    131
     110       0       0       1       0                               0D    132
     120     114       0       0       0       0       0       001010001D    133
     120       0     -27       1       0                               0D    134
     124     115       0       0       0       0       0       001020001D    135
     124       0       0       1       0                               0D    136
     100     116       0       0       0       0     135       001010001D    137
     100       0       0       1       0                               0D    138
     110     117       0       0       0       0       0       001010001D    139
     110       0       0       1       0                               0D    140
     124     118       0       0       0       0       0       001020001D    141
     124       0       0       1       0                               0D    142
     100     119       0       0       0       0     141       001010001D    143
     100       0       0       1       0                               0D    144
     110     120       0       0       0       0       0       001010001D    145
     110       0       0       1       0                               0D    146
     102     121       0       0       0       0       0       001010001D    147
     102       0       0       1       0                               0D    148
     142     122       0       0       0       0       0       001010001D    149
     142       0       0       1       0                               0D    150
     144     123       0       0   10000       0       0       000000000D    151
     144       0     -27       1       0                PartBody       0D    152
     108     124       0       0       0       0       0       001010001D    153
     108       0     -27       1       0                               0D    154
     124     125       0       0       0       0       0       001020001D    155
     124       0       0       1       0                               0D    156
     100     126       0       0       0       0     155       001010001D    157
     100       0       0       1       0                               0D    158
     124     127       0       0       0       0       0       001020001D    159
     124       0       0       1       0                               0D    160
     100     128       0       0       0       0     159       001010001D    161
     100       0       0       1       0                               0D    162
     124     129       0       0       0       0       0       001020001D    163
     124       0       0       2       0                               0D    164
     100     131       0       0       0       0     163       001010001D    165
     100       0       0       1       0                               0D    166
     102     132       0       0       0       0       0       001010001D    167
     102       0       0       1       0                               0D    168
     142     133       0       0       0       0       0       001010001D    169
     142       0       0       1       0                               0D    170
     124     134       0       0       0       0       0       001020001D    171
     124       0       0       1       0                               0D    172
     100     135       0       0       0       0     171       001010001D    173
     100       0       0       1       0                               0D    174
     124     136       0       0       0       0       0       001020001D    175
     124       0       0       1       0                               0D    176
     100     137       0       0       0       0     175       001010001D    177
     100       0       0       1       0                               0D    178
     102     138       0       0       0       0       0       001010001D    179
     102       0       0       1       0                               0D    180
     142     139       0       0       0       0       0       001010001D    181
     142       0       0       1       0                               0D    182
     144     140       0       0   10000       0       0       000000000D    183
     144       0     -27       1       0                PartBody       0D    184
     108     141       0       0       0       0       0       001010001D    185
     108       0     -27       1       0                               0D    186
     124     142       0       0       0       0       0       001020001D    187
     124       0       0       1       0                               0D    188
     100     143       0       0       0       0     187       001010001D    189
     100       0       0       1       0                               0D    190
     124     144       0       0       0       0       0       001020001D    191
     124       0       0       2       0                               0D    192
     100     146       0       0       0       0     191       001010001D    193
     100       0       0       1       0                               0D    194
     124     147       0       0       0       0       0       001020001D    195
     124       0       0       2       0                               0D    196
     100     149       0       0       0       0     195       001010001D    197
     100       0       0       1       0                               0D    198
     102     150       0       0       0       0       0       001010001D    199
     102       0       0       1       0                               0D    200
     142     151       0       0       0       0       0       001010001D    201
     142       0       0       1       0                               0D    202
     124     152       0       0       0       0       0       001020001D    203
     124       0       0       1       0                               0D    204
     100     153       0       0       0       0     203       001010001D    205
     100       0       0       1       0                               0D    206
     124     154       0       0       0       0       0       001020001D    207
     124       0       0       1       0                               0D    208
     100     155       0       0       0       0     207       001010001D    209
     100       0       0       1       0                               0D    210
     102     156       0       0       0       0       0       001010001D    211
     102       0       0       1       0                               0D    212
     142     157       0       0       0       0       0       001010001D    213
     142       0       0       1       0                               0D    214
     144     158       0       0   10000       0       0       000000000D    215
     144       0     -27       1       0                PartBody       0D    216
     110     159       0       0       0       0       0       001010001D    217
     110       0       0       1       0                               0D    218
     110     160       0       0       0       0       0       001010001D    219
     110       0       0       1       0                               0D    220
     120     161       0       0       0       0       0       001010001D    221
     120       0     -27       1       0                               0D    222
     124     162       0       0       0       0       0       001020001D    223
     124       0       0       2       0                               0D    224
     100     164       0       0       0       0     223       001010001D    225
     100       0       0       1       0                               0D    226
     110     165       0       0       0       0       0       001010001D    227
     110       0       0       1       0                               0D    228
     124     166       0       0       0       0       0       001020001D    229
     124       0       0       2       0                               0D    230
     100     168       0       0       0       0     229       001010001D    231
     100       0       0       1       0                               0D    232
     110     169       0       0       0       0       0       001010001D    233
     110       0       0       1       0                               0D    234
     102     170       0       0       0       0       0       001010001D    235
     102       0       0       1       0                               0D    236
     142     171       0       0       0       0       0       001010001D    237
     142       0       0       1       0                               0D    238
     144     172       0       0   10000       0       0       000000000D    239
     144       0     -27       1       0                PartBody       0D    240
     110     173       0       0       0       0       0       001010001D    241
     110       0       0       1       0                               0D    242
     110     174       0       0       0       0       0       001010001D    243
     110       0       0       1       0                               0D    244
     120     175       0       0       0       0       0       001010001D    245
     120       0     -27       1       0                               0D    246
     124     176       0       0       0       0       0       001020001D    247
     124       0       0       2       0                               0D    248
     100     178       0       0       0       0     247       001010001D    249
     100       0       0       1       0                               0D    250
     110     179       0       0       0       0       0       001010001D    251
     110       0       0       1       0                               0D    252
     124     180       0       0       0       0       0       001020001D    253
     124       0       0       1       0                               0D    254
     100     181       0       0       0       0     253       001010001D    255
     100       0       0       1       0                               0D    256
     124     182       0       0       0       0       0       001020001D    257
     124       0       0       2       0                               0D    258
     100     184       0       0       0       0     257       001010001D    259
     100       0       0       1       0                               0D    260
     110     185       0       0       0       0       0       001010001D    261
     110       0       0       1       0                               0D    262
     124     186       0       0       0       0       0       001020001D    263
     124       0       0       2       0                               0D    264
     100     188       0       0       0       0     263       001010001D    265
     100       0       0       1       0                               0D    266
     102     189       0       0       0       0       0       001010001D    267
     102       0       0       1       0                               0D    268
     142     190       0       0       0       0       0       001010001D    269
     142       0       0       1       0                               0D    270
     144     191       0       0   10000       0       0       000000000D    271
     144       0     -27       1       0                PartBody       0D    272
     314     192       0       0       0       0       0       000000201D    273
     314       0       0       1       0                               0D    274
     110     193       0       0       0       0       0       001010001D    275
     110       0       0       1       0                               0D    276
     110     194       0       0       0       0       0       001010001D    277
     110       0       0       2       0                               0D    278
     120     196       0       0       0       0       0       001010001D    279
     120       0    -273       1       0                               0D    280
     110     197       0       0       0       0       0       001010001D    281
     110       0       0       1       0                               0D    282
     124     198       0       0       0       0       0       001020001D    283
     124       0       0       1       0                               0D    284
     100     199       0       0       0       0     283       001010001D    285
     100       0       0       1       0                               0D    286
     110     200       0       0       0       0       0       001010001D    287
     110       0       0       1       0                               0D    288
     124     201       0       0       0       0       0       001020001D    289
     124       0       0       1       0                               0D    290
     100     202       0       0       0       0     289       001010001D    291
     100       0       0       1       0                               0D    292
     110     203       0       0       0       0       0       001010001D    293
     110       0       0       1       0                               0D    294
     126     204       0       0       0       0       0       001010001D    295
     126       0       0       7       0                               0D    296
     126     211       0       0       0       0       0       001010001D    297
     126       0       0       6       0                               0D    298
     102     217       0       0       0       0       0       001010001D    299
     102       0       0       1       0                               0D    300
     142     218       0       0       0       0       0       001010001D    301
     142       0       0       1       0                               0D    302
     144     219       0       0   10000       0       0       000000000D    303
     144       0    -273       1       0                PartBody       0D    304
     110     220       0       0       0       0       0       001010001D    305
     110       0       0       1       0                               0D    306
     110     221       0       0       0       0       0       001010001D    307
     110       0       0       1       0                               0D    308
     120     222       0       0       0       0       0       001010001D    309
     120       0    -273       1       0                               0D    310
     110     223       0       0       0       0       0       001010001D    311
     110       0       0       1       0                               0D    312
     124     224       0       0       0       0       0       001020001D    313
     124       0       0       1       0                               0D    314
     100     225       0       0       0       0     313       001010001D    315
     100       0       0       1       0                               0D    316
     110     226       0       0       0       0       0       001010001D    317
     110       0       0       1       0                               0D    318
     124     227       0       0       0       0       0       001020001D    319
     124       0       0       1       0                               0D    320
     100     228       0       0       0       0     319       001010001D    321
     100       0       0       1       0                               0D    322
     110     229       0       0       0       0       0       001010001D    323
     110       0       0       1       0                               0D    324
     126     230       0       0       0       0       0       001010001D    325
     126       0       0       7       0                               0D    326
     126     237       0       0       0       0       0       001010001D    327
     126       0       0       6       0                               0D    328
     102     243       0       0       0       0       0       001010001D    329
     102       0       0       1       0                               0D    330
     142     244       0       0       0       0       0       001010001D    331
     142       0       0       1       0                               0D    332
     144     245       0       0   10000       0       0       000000000D    333
     144       0    -273       1       0                PartBody       0D    334
     110     246       0       0       0       0       0       001010001D    335
     110       0       0       1       0                               0D    336
     110     247       0       0       0       0       0       001010001D    337
     110       0       0       1       0                               0D    338
     120     248       0       0       0       0       0       001010001D    339
     120       0      -1       1       0                               0D    340
     126     249       0       0       0       0       0       001010001D    341
     126       0       0       6       0                               0D    342
     126     255       0       0       0       0       0       001010001D    343
     126       0       0       7       0                               0D    344
     110     262       0       0       0       0       0       001010001D    345
     110       0       0       1       0                               0D    346
     126     263       0       0       0       0       0       001010001D    347
     126       0       0       6       0                               0D    348
     126     269       0       0       0       0       0       001010001D    349
     126       0       0       7       0                               0D    350
     110     276       0       0       0       0       0       001010001D    351
     110       0       0       1       0                               0D    352
     102     277       0       0       0       0       0       001010001D    353
     102       0       0       1       0                               0D    354
     142     278       0       0       0       0       0       001010001D    355
     142       0       0       1       0                               0D    356
     144     279       0       0   10000       0       0       000000000D    357
     144       0      -1       1       0                PartBody       0D    358
314,100.0,88.23529412,0.0,5HColor,0,0;                                 1P      1
110,-9.0,0.0,5.0,-8.0,0.0,5.0,0,0;                                     3P      2
110,-9.03822317,-2.067,5.0,-4.248389628,-2.067,5.0,0,0;                5P      3
120,3,5,0.0,6.283185307,0,0;                                           7P      4
126,5,5,0,0,1,0,0.0,0.0,0.0,0.0,0.0,0.0,4.734527216,4.734527216,       9P      5
4.734527216,4.734527216,4.734527216,4.734527216,1.0,1.0,1.0,1.0,       9P      6
1.0,1.0,-8.759425681,-2.067,5.0,-8.759422015,-2.067,4.348431181,       9P      7
-8.820232082,-1.808381784,3.697663894,-8.941560231,-1.303925092,       9P      8
3.191837574,-8.999997173,-0.6515958234,2.93300001,-8.999999719,        9P      9
-3.076354327E-008,2.933,0.0,4.734527216,0.0,0.0,0.0,0,0;               9P     10
126,5,5,0,0,1,0,0.0,0.0,0.0,0.0,0.0,0.0,4.734664503,4.734664503,      11P     11
4.734664503,4.734664503,4.734664503,4.734664503,1.0,1.0,1.0,1.0,      11P     12
1.0,1.0,-8.999999719,-3.076354127E-008,2.933,-9.000002265,            11P     13
0.6516100694,2.93299999,-8.941678778,1.302400448,3.191684535,         11P     14
-8.820379083,1.808118457,3.696052228,-8.759424126,2.067,              11P     15
4.348379668,-8.759424126,2.067,5.0,0.0,4.734664503,0.0,0.0,0.0,       11P     16
0,0;                                                                  11P     17
110,-8.759424126,2.067,5.0,-4.290561413,2.067,5.0,0,0;                13P     18
126,5,5,0,0,1,0,0.0,0.0,0.0,0.0,0.0,0.0,4.784164639,4.784164639,      15P     19
4.784164639,4.784164639,4.784164639,4.784164639,1.0,1.0,1.0,1.0,      15P     20
1.0,1.0,-4.290561413,2.067,5.0,-4.290561413,2.067,4.342334918,        15P     21
-4.42183544,1.797252939,3.688480364,-4.649900761,1.313057547,         15P     22
3.203045152,-4.762498702,0.6576580612,2.933000025,-4.762499955,       15P     23
7.71979114E-008,2.933,0.0,4.784164639,0.0,0.0,0.0,0,0;                15P     24
126,5,5,0,0,1,0,0.0,0.0,0.0,0.0,0.0,0.0,4.783570792,4.783570792,      17P     25
4.783570792,4.783570792,4.783570792,4.783570792,1.0,1.0,1.0,1.0,      17P     26
1.0,1.0,-4.762499955,7.719791073E-008,2.933,-4.762501207,             17P     27
-0.6575588715,2.932999975,-4.649686072,-1.31429623,3.203385069,       17P     28
-4.421716601,-1.797156336,3.689089302,-4.290561471,-2.067,            17P     29
4.342434566,-4.290561415,-2.067,5.0,0.0,4.783570792,0.0,0.0,0.0,      17P     30
0,0;                                                                  17P     31
110,-4.290561415,-2.067,5.0,-8.759425681,-2.067,5.0,0,0;              19P     32
102,6,9,11,13,15,17,19,0,0;                                           21P     33
142,0,7,0,21,2,0,0;                                                   23P     34
144,7,1,0,23,0,0;                                                     25P     35
314,20.0,20.0,20.0,5HColor,0,0;                                       27P     36
110,0.0,0.0,5.0,0.0,0.0,6.0,0,0;                                      29P     37
110,-9.0,0.0,1.0,-9.0,0.0,9.0,0,0;                                    31P     38
120,29,31,0.0,6.283185307,0,0;                                        33P     39
126,5,5,0,0,1,0,0.0,0.0,0.0,0.0,0.0,0.0,4.734005261,4.734005261,      35P     40
4.734005261,4.734005261,4.734005261,4.734005261,1.0,1.0,1.0,1.0,      35P     41
1.0,1.0,-9.0,-3.07635426E-008,2.933,-8.999999998,-0.6515239994,       35P     42
2.93300001,-8.941620181,-1.303287702,3.191813042,-8.82029075,         35P     43
-1.808258118,3.696826139,-8.759424014,-2.067000471,4.348503012,       35P     44
-8.759424207,-2.066999652,5.0,0.0,4.734005261,0.0,0.0,0.0,0,0;        35P     45
126,5,5,0,0,1,0,0.0,0.0,0.0,0.0,0.0,0.0,4.734006652,4.734006652,      37P     46
4.734006652,4.734006652,4.734006652,4.734006652,1.0,1.0,1.0,1.0,      37P     47
1.0,1.0,-8.759424207,-2.066999652,5.0,-8.7594244,-2.066998833,        37P     48
5.65150317,-8.820286941,-1.808280661,6.30313298,-8.941620913,         37P     49
-1.303278703,6.808202878,-8.999999985,-0.6515288977,7.066999936,      37P     50
-9.0,-2.028290127E-007,7.067,0.0,4.734006652,0.0,0.0,0.0,0,0;         37P     51
110,-8.999999663,-2.028290087E-007,7.067,-9.0,0.0,9.0,0,0;            39P     52
124,-1.0,0.0,0.0,0.0,0.0,-1.0,0.0,0.0,0.0,0.0,1.0,9.0,0,0;            41P     53
100,0.0,0.0,0.0,9.0,0.0,-4.5,7.794228634,0,0;                         43P     54
124,0.5,0.8660254038,0.0,0.0,-0.8660254038,0.5,0.0,0.0,0.0,0.0,       45P     55
1.0,9.0,0,0;                                                          45P     56
100,0.0,0.0,0.0,9.0,0.0,4.5,7.794228634,0,0;                          47P     57
110,9.0,0.0,9.0,9.0,0.0,0.9999999997,0,0;                             49P     58
124,1.0,0.0,0.0,0.0,0.0,-1.0,0.0,0.0,-2.825177129E-011,0.0,-1.0,      51P     59
1.0,0,0;                                                              51P     60
100,0.0,0.0,0.0,9.0,0.0,4.5,7.794228634,0,0;                          53P     61
124,0.5,-0.8660254038,0.0,0.0,-0.8660254038,-0.5,0.0,0.0,0.0,         55P     62
0.0,-1.0,1.0,0,0;                                                     55P     63
100,0.0,0.0,0.0,9.0,0.0,-4.5,7.794228634,0,0;                         57P     64
110,-9.0,0.0,1.0,-8.999999719,-3.076354337E-008,2.933,0,0;            59P     65
102,9,35,37,39,43,47,49,53,57,59,0,0;                                 61P     66
142,0,33,0,61,2,0,0;                                                  63P     67
144,33,1,0,63,0,0;                                                    65P     68
110,0.0,0.0,5.0,0.0,0.0,6.0,0,0;                                      67P     69
110,9.0,0.0,1.0,9.0,0.0,9.0,0,0;                                      69P     70
120,67,69,0.0,6.283185307,0,0;                                        71P     71
126,5,5,0,0,1,0,0.0,0.0,0.0,0.0,0.0,0.0,4.734004603,4.734004603,      73P     72
4.734004603,4.734004603,4.734004603,4.734004603,1.0,1.0,1.0,1.0,      73P     73
1.0,1.0,-9.0,0.0,7.067,-9.0,0.6515296717,7.067,-8.94161571,           73P     74
1.303339244,6.808229351,-8.820285843,1.808265183,6.30303428,          73P     75
-8.759424125,2.067,5.651541348,-8.759424125,2.067,5.0,0.0,            73P     76
4.734004603,0.0,0.0,0.0,0,0;                                          73P     77
126,5,5,0,0,1,0,0.0,0.0,0.0,0.0,0.0,0.0,4.733991045,4.733991045,      75P     78
4.733991045,4.733991045,4.733991045,4.733991045,1.0,1.0,1.0,1.0,      75P     79
1.0,1.0,-8.759424125,2.067,5.0,-8.759424125,2.067,4.348472354,        75P     80
-8.820300024,1.808215288,3.696745708,-8.941615896,1.303307205,        75P     81
3.191867738,-9.0,0.6515174259,2.93299999,-9.0,0.0,2.933,0.0,          75P     82
4.733991045,0.0,0.0,0.0,0,0;                                          75P     83
110,-8.999999719,-3.076354337E-008,2.933,-9.0,0.0,1.0,0,0;            77P     84
124,-1.0,0.0,0.0,0.0,0.0,1.0,0.0,0.0,0.0,0.0,-1.0,1.0,0,0;            79P     85
100,0.0,0.0,0.0,9.0,0.0,-9.0,0.0,0,0;                                 81P     86
110,9.0,0.0,0.9999999997,9.0,0.0,9.0,0,0;                             83P     87
124,1.0,0.0,0.0,0.0,0.0,1.0,0.0,0.0,0.0,0.0,1.0,9.0,0,0;              85P     88
100,0.0,0.0,0.0,9.0,0.0,-9.0,0.0,0,0;                                 87P     89
110,-9.0,0.0,9.0,-8.999999663,-2.028290087E-007,7.067,0,0;            89P     90
102,7,73,75,77,81,83,87,89,0,0;                                       91P     91
142,0,71,0,91,2,0,0;                                                  93P     92
144,71,1,0,93,0,0;                                                    95P     93
110,0.0,0.0,18.0,0.0,0.0,17.0,0,0;                                    97P     94
110,8.0,0.0,10.0,9.0,0.0,9.0,0,0;                                     99P     95
120,97,99,0.0,3.141592654,0,0;                                       101P     96
124,0.5,0.8660254038,0.0,0.0,-0.8660254038,0.5,0.0,0.0,0.0,0.0,      103P     97
1.0,10.0,0,0;                                                        103P     98
100,0.0,0.0,0.0,8.0,0.0,4.0,6.92820323,0,0;                          105P     99
110,8.0,0.0,10.0,9.0,0.0,9.0,0,0;                                    107P    100
124,1.0,0.0,0.0,0.0,0.0,-1.0,0.0,0.0,0.0,0.0,-1.0,9.0,0,0;           109P    101
100,0.0,0.0,0.0,9.0,0.0,4.5,7.794228634,0,0;                         111P    102
124,0.5,-0.8660254038,0.0,0.0,-0.8660254038,-0.5,0.0,0.0,0.0,        113P    103
0.0,-1.0,9.0,0,0;                                                    113P    104
100,0.0,0.0,0.0,9.0,0.0,-4.5,7.794228634,0,0;                        115P    105
110,-9.0,0.0,9.0,-8.0,0.0,10.0,0,0;                                  117P    106
124,-1.0,0.0,0.0,0.0,0.0,-1.0,0.0,0.0,0.0,0.0,1.0,10.0,0,0;          119P    107
100,0.0,0.0,0.0,8.0,0.0,-4.0,6.92820323,0,0;                         121P    108
102,6,105,107,111,115,117,121,0,0;                                   123P    109
142,0,101,0,123,2,0,0;                                               125P    110
144,101,1,0,125,0,0;                                                 127P    111
110,0.0,0.0,18.0,0.0,0.0,17.0,0,0;                                   129P    112
110,-7.999999999,0.0,10.0,-9.0,0.0,9.0,0,0;                          131P    113
120,129,131,0.0,3.141592654,0,0;                                     133P    114
124,1.0,0.0,0.0,0.0,0.0,1.0,0.0,0.0,0.0,0.0,1.0,10.0,0,0;            135P    115
100,0.0,0.0,0.0,8.0,0.0,-8.0,0.0,0,0;                                137P    116
110,-8.0,0.0,10.0,-9.0,0.0,9.0,0,0;                                  139P    117
124,-1.0,0.0,0.0,0.0,0.0,1.0,0.0,0.0,0.0,0.0,-1.0,9.0,0,0;           141P    118
100,0.0,0.0,0.0,9.0,0.0,-9.0,0.0,0,0;                                143P    119
110,9.0,0.0,9.0,8.0,0.0,10.0,0,0;                                    145P    120
102,4,137,139,143,145,0,0;                                           147P    121
142,0,133,0,147,2,0,0;                                               149P    122
144,133,1,0,149,0,0;                                                 151P    123
108,0.0,0.0,1.0,10.0,0,0.0,0.0,10.0,1.0,0,0;                         153P    124
124,-1.0,0.0,0.0,0.0,0.0,1.0,0.0,0.0,0.0,0.0,-1.0,10.0,0,0;          155P    125
100,0.0,0.0,0.0,8.0,0.0,-8.0,0.0,0,0;                                157P    126
124,1.0,0.0,0.0,0.0,0.0,-1.0,0.0,0.0,0.0,0.0,-1.0,10.0,0,0;          159P    127
100,0.0,0.0,0.0,8.0,0.0,4.0,6.92820323,0,0;                          161P    128
124,0.5,-0.8660254038,0.0,0.0,-0.8660254038,-0.5,0.0,0.0,0.0,        163P    129
0.0,-1.0,10.0,0,0;                                                   163P    130
100,0.0,0.0,0.0,8.0,0.0,-4.0,6.92820323,0,0;                         165P    131
102,3,157,161,165,0,0;                                               167P    132
142,0,153,0,167,2,0,0;                                               169P    133
124,1.0,0.0,0.0,0.0,0.0,1.0,0.0,0.0,0.0,0.0,1.0,10.0,0,0;            171P    134
100,0.0,0.0,0.0,4.762499999,0.0,-4.762499999,0.0,0,0;                173P    135
124,-1.0,0.0,0.0,0.0,0.0,-1.0,0.0,0.0,0.0,0.0,1.0,10.0,0,0;          175P    136
100,0.0,0.0,0.0,4.762499999,0.0,-4.762499999,0.0,0,0;                177P    137
102,2,173,177,0,0;                                                   179P    138
142,0,153,0,179,2,0,0;                                               181P    139
144,153,1,1,169,181,0,0;                                             183P    140
108,0.0,0.0,1.0,0.0,0,0.0,0.0,0.0,1.0,0,0;                           185P    141
124,-1.0,0.0,0.0,0.0,0.0,-1.0,0.0,0.0,0.0,0.0,1.0,0.0,0,0;           187P    142
100,0.0,0.0,0.0,8.0,0.0,-4.0,6.92820323,0,0;                         189P    143
124,0.5,0.8660254038,0.0,0.0,-0.8660254038,0.5,0.0,0.0,0.0,0.0,      191P    144
1.0,0.0,0,0;                                                         191P    145
100,0.0,0.0,0.0,8.0,0.0,4.0,6.92820323,0,0;                          193P    146
124,1.0,0.0,0.0,0.0,0.0,1.0,0.0,0.0,-3.282496497E-011,0.0,1.0,       195P    147
0.0,0,0;                                                             195P    148
100,0.0,0.0,0.0,8.0,0.0,-8.0,0.0,0,0;                                197P    149
102,3,189,193,197,0,0;                                               199P    150
142,0,185,0,199,2,0,0;                                               201P    151
124,1.0,0.0,0.0,0.0,0.0,-1.0,0.0,0.0,0.0,0.0,-1.0,0.0,0,0;           203P    152
100,0.0,0.0,0.0,4.762499999,0.0,-4.762499999,0.0,0,0;                205P    153
124,-1.0,0.0,0.0,0.0,0.0,1.0,0.0,0.0,0.0,0.0,-1.0,0.0,0,0;           207P    154
100,0.0,0.0,0.0,4.762499999,0.0,-4.762499999,0.0,0,0;                209P    155
102,2,205,209,0,0;                                                   211P    156
142,0,185,0,211,2,0,0;                                               213P    157
144,185,1,1,201,213,0,0;                                             215P    158
110,0.0,0.0,-8.0,0.0,0.0,-7.0,0,0;                                   217P    159
110,8.0,0.0,-2.625997197E-010,9.0,0.0,1.0,0,0;                       219P    160
120,217,219,0.0,3.141592654,0,0;                                     221P    161
124,1.0,0.0,0.0,0.0,0.0,1.0,0.0,0.0,-2.870040008E-011,0.0,1.0,       223P    162
1.0,0,0;                                                             223P    163
100,0.0,0.0,0.0,9.0,0.0,-9.0,0.0,0,0;                                225P    164
110,-9.0,0.0,1.0,-8.0,0.0,3.593569886E-012,0,0;                      227P    165
124,-1.0,0.0,0.0,0.0,0.0,1.0,0.0,0.0,0.0,0.0,-1.0,                   229P    166
3.590017172E-012,0,0;                                                229P    167
100,0.0,0.0,0.0,8.0,0.0,-8.0,0.0,0,0;                                231P    168
110,8.0,0.0,-2.625997197E-010,9.0,0.0,0.9999999997,0,0;              233P    169
102,4,225,227,231,233,0,0;                                           235P    170
142,0,221,0,235,2,0,0;                                               237P    171
144,221,1,0,237,0,0;                                                 239P    172
110,0.0,0.0,-8.0,0.0,0.0,-7.0,0,0;                                   241P    173
110,-8.0,0.0,3.582911745E-012,-9.0,0.0,1.0,0,0;                      243P    174
120,241,243,0.0,3.141592654,0,0;                                     245P    175
124,0.5,-0.8660254038,0.0,0.0,-0.8660254038,-0.5,0.0,0.0,0.0,        247P    176
0.0,-1.0,3.586464459E-012,0,0;                                       247P    177
100,0.0,0.0,0.0,8.0,0.0,-4.0,6.92820323,0,0;                         249P    178
110,-8.0,0.0,3.593569886E-012,-9.0,0.0,1.0,0,0;                      251P    179
124,-1.0,0.0,0.0,0.0,0.0,-1.0,0.0,0.0,0.0,0.0,1.0,1.0,0,0;           253P    180
100,0.0,0.0,0.0,9.0,0.0,-4.5,7.794228634,0,0;                        255P    181
124,0.5,0.8660254038,0.0,0.0,-0.8660254038,0.5,0.0,0.0,0.0,0.0,      257P    182
1.0,1.0,0,0;                                                         257P    183
100,0.0,0.0,0.0,9.0,0.0,4.5,7.794228634,0,0;                         259P    184
110,9.0,0.0,0.9999999997,8.0,0.0,-2.625997197E-010,0,0;              261P    185
124,1.0,0.0,0.0,0.0,0.0,-1.0,0.0,0.0,-3.327238485E-011,0.0,-1.0,     263P    186
3.579359031E-012,0,0;                                                263P    187
100,0.0,0.0,0.0,8.0,0.0,4.0,6.92820323,0,0;                          265P    188
102,6,249,251,255,259,261,265,0,0;                                   267P    189
142,0,245,0,267,2,0,0;                                               269P    190
144,245,1,0,269,0,0;                                                 271P    191
314,0.0,68.62745098,68.62745098,5HColor,0,0;                         273P    192
110,0.0,0.0,5.0,0.0,0.0,6.0,0,0;                                     275P    193
110,-4.7625,1.496191541E-011,0.0,-4.7625,1.496191541E-011,10.0,      277P    194
0,0;                                                                 277P    195
120,275,277,0.0,6.283185307,0,0;                                     279P    196
110,-4.762499955,7.719791102E-008,2.933,-4.7625,0.0,0.0,0,0;         281P    197
124,-1.0,0.0,0.0,0.0,0.0,-1.0,0.0,0.0,0.0,0.0,1.0,0.0,0,0;           283P    198
100,0.0,0.0,0.0,4.7625,0.0,-4.7625,0.0,0,0;                          285P    199
110,4.7625,0.0,0.0,4.7625,0.0,10.0,0,0;                              287P    200
124,1.0,0.0,0.0,0.0,0.0,-1.0,0.0,0.0,0.0,0.0,-1.0,10.0,0,0;          289P    201
100,0.0,0.0,0.0,4.7625,0.0,-4.7625,0.0,0,0;                          291P    202
110,-4.7625,0.0,10.0,-4.762499986,-2.816381248E-008,7.067,0,0;       293P    203
126,5,5,0,0,1,0,0.0,0.0,0.0,0.0,0.0,0.0,4.784074084,4.784074084,     295P    204
4.784074084,4.784074084,4.784074084,4.784074084,1.0,1.0,1.0,1.0,     295P    205
1.0,1.0,-4.7625,-2.816381062E-008,7.067,-4.762499996,                295P    206
-0.6576431598,7.066999991,-4.649478209,-1.314790339,6.795606224,     295P    207
-4.422055567,-1.796364775,6.312418541,-4.290561404,-2.067000021,     295P    208
5.657645724,-4.290561414,-2.067,5.0,0.0,4.784074084,0.0,0.0,0.0,     295P    209
0,0;                                                                 295P    210
126,5,5,0,0,1,0,0.0,0.0,0.0,0.0,0.0,0.0,4.784056807,4.784056807,     297P    211
4.784056807,4.784056807,4.784056807,4.784056807,1.0,1.0,1.0,1.0,     297P    212
1.0,1.0,-4.290561414,-2.067,5.0,-4.290561425,-2.066999978,           297P    213
4.342367757,-4.422075242,-1.796234199,3.687494212,-4.649426781,      297P    214
-1.315062919,3.204557417,-4.7625,-0.6576257605,2.933000001,          297P    215
-4.7625,0.0,2.933,0.0,4.784056807,0.0,0.0,0.0,0,0;                   297P    216
102,7,281,285,287,291,293,295,297,0,0;                               299P    217
142,0,279,0,299,2,0,0;                                               301P    218
144,279,1,0,301,0,0;                                                 303P    219
110,0.0,0.0,5.0,0.0,0.0,6.0,0,0;                                     305P    220
110,4.7625,0.0,0.0,4.7625,0.0,10.0,0,0;                              307P    221
120,305,307,0.0,6.283185307,0,0;                                     309P    222
110,-4.762499986,-2.816381248E-008,7.067,-4.7625,0.0,10.0,0,0;       311P    223
124,-1.0,0.0,0.0,0.0,0.0,1.0,0.0,0.0,0.0,0.0,-1.0,10.0,0,0;          313P    224
100,0.0,0.0,0.0,4.7625,0.0,-4.7625,0.0,0,0;                          315P    225
110,4.7625,0.0,10.0,4.7625,0.0,0.0,0,0;                              317P    226
124,1.0,0.0,0.0,0.0,0.0,1.0,0.0,0.0,0.0,0.0,1.0,0.0,0,0;             319P    227
100,0.0,0.0,0.0,4.7625,0.0,-4.7625,0.0,0,0;                          321P    228
110,-4.7625,0.0,0.0,-4.762499955,7.719791102E-008,2.933,0,0;         323P    229
126,5,5,0,0,1,0,0.0,0.0,0.0,0.0,0.0,0.0,4.784076435,4.784076435,     325P    230
4.784076435,4.784076435,4.784076435,4.784076435,1.0,1.0,1.0,1.0,     325P    231
1.0,1.0,-4.7625,7.719791562E-008,2.933,-4.762499989,                 325P    232
0.6576459394,2.933000025,-4.649483969,1.314774951,3.20437511,        325P    233
-4.422043744,1.796394417,3.687629226,-4.290561414,2.067,             325P    234
4.342347043,-4.290561414,2.067,5.0,0.0,4.784076435,0.0,0.0,0.0,      325P    235
0,0;                                                                 325P    236
126,5,5,0,0,1,0,0.0,0.0,0.0,0.0,0.0,0.0,4.78405674,4.78405674,       327P    237
4.78405674,4.78405674,4.78405674,4.78405674,1.0,1.0,1.0,1.0,1.0,     327P    238
1.0,-4.290561414,2.067,5.0,-4.290561414,2.067,5.657633553,           327P    239
-4.422071191,1.796247519,6.312504807,-4.649429598,1.315048826,       327P    240
6.795438581,-4.7625,0.6576303479,7.067,-4.7625,0.0,7.067,0.0,        327P    241
4.78405674,0.0,0.0,0.0,0,0;                                          327P    242
102,7,311,315,317,321,323,325,327,0,0;                               329P    243
142,0,309,0,329,2,0,0;                                               331P    244
144,309,1,0,331,0,0;                                                 333P    245
110,-9.0,0.0,5.0,-8.0,0.0,5.0,0,0;                                   335P    246
110,-9.033807679,2.067,5.0,-4.248389427,2.067,5.0,0,0;               337P    247
120,335,337,0.0,6.283185307,0,0;                                     339P    248
126,5,5,0,0,1,0,0.0,0.0,0.0,0.0,0.0,0.0,4.734349172,4.734349172,     341P    249
4.734349172,4.734349172,4.734349172,4.734349172,1.0,1.0,1.0,1.0,     341P    250
1.0,1.0,-8.759424126,2.067,5.0,-8.759424126,2.067,5.651588771,       341P    251
-8.820234291,1.80839699,6.30228216,-8.941559034,1.303889233,         341P    252
6.808223938,-9.000002342,0.6515768782,7.067000064,-8.999999663,      341P    253
-2.028290087E-007,7.067,0.0,4.734349172,0.0,0.0,0.0,0,0;             341P    254
126,5,5,0,0,1,0,0.0,0.0,0.0,0.0,0.0,0.0,4.732722902,4.732722902,     343P    255
4.732722902,4.732722902,4.732722902,4.732722902,1.0,1.0,1.0,1.0,     343P    256
1.0,1.0,-8.999999663,-2.028290087E-007,7.067,-8.999996985,           343P    257
-0.6513522057,7.066999936,-8.941704881,-1.302308169,6.80913279,      343P    258
-8.820204721,-1.809158272,6.302228698,-8.759429346,-2.067,           343P    259
5.651326498,-8.759425681,-2.067,5.0,0.0,4.732722902,0.0,0.0,0.0,     343P    260
0,0;                                                                 343P    261
110,-8.759425681,-2.067,5.0,-4.290561415,-2.067,5.0,0,0;             345P    262
126,5,5,0,0,1,0,0.0,0.0,0.0,0.0,0.0,0.0,4.784165316,4.784165316,     347P    263
4.784165316,4.784165316,4.784165316,4.784165316,1.0,1.0,1.0,1.0,     347P    264
1.0,1.0,-4.290561415,-2.067,5.0,-4.29056136,-2.067,5.657658265,      347P    265
-4.421842622,-1.797233448,6.311566,-4.649899298,-1.313059809,        347P    266
6.79693739,-4.76249939,-0.6576557,7.066999991,-4.762499986,          347P    267
-2.816381306E-008,7.067,0.0,4.784165316,0.0,0.0,0.0,0,0;             347P    268
126,5,5,0,0,1,0,0.0,0.0,0.0,0.0,0.0,0.0,4.783571069,4.783571069,     349P    269
4.783571069,4.783571069,4.783571069,4.783571069,1.0,1.0,1.0,1.0,     349P    270
1.0,1.0,-4.762499986,-2.816381189E-008,7.067,-4.762500583,           349P    271
0.657563557,7.067000009,-4.649686686,1.314288724,6.796617559,        349P    272
-4.421715764,1.797161775,6.310905062,-4.290561413,2.067,             349P    273
5.65756679,-4.290561413,2.067,5.0,0.0,4.783571069,0.0,0.0,0.0,0,     349P    274
0;                                                                   349P    275
110,-4.290561413,2.067,5.0,-8.759424126,2.067,5.0,0,0;               351P    276
102,6,341,343,345,347,349,351,0,0;                                   353P    277
142,0,339,0,353,2,0,0;                                               355P    278
144,339,1,0,355,0,0;                                                 357P    279
S      1G      5D    358P    279                                        T      1
