START RECORD GO HERE.                                                   S      1
1H,,1H;,25H1360.000.012.000.ARANDELA,29H1360.000.012.000.ARANDELA.igs,  G      1
62HDASSAULT SYSTEMES CATIA Version 5-6 Release 2018 - www.3ds.com,35HV5-G      2
6R2018_5.28.6.0.03-10-2020.20.00,32,75,6,75,15,25H1360.000.012.000.ARANDG      3
ELA,1.0,2,2HMM,1000,1.0,15H20241108.095448,0.001,10000.0,2HPc,15HDESKTOPG      4
-CAESKE4,11,0,15H20241108.095448,;                                      G      5
     314       1       0       0       0       0       0       000000201D      1
     314       0       0       1       0                               0D      2
     110       2       0       0       0       0       0       001010001D      3
     110       0       0       1       0                               0D      4
     110       3       0       0       0       0       0       001010001D      5
     110       0       0       1       0                               0D      6
     120       4       0       0       0       0       0       001010001D      7
     120       0      -1       1       0                               0D      8
     124       5       0       0       0       0       0       001020001D      9
     124       0       0       1       0                               0D     10
     100       6       0       0       0       0       9       001010001D     11
     100       0       0       1       0                               0D     12
     110       7       0       0       0       0       0       001010001D     13
     110       0       0       1       0                               0D     14
     124       8       0       0       0       0       0       001020001D     15
     124       0       0       1       0                               0D     16
     100       9       0       0       0       0      15       001010001D     17
     100       0       0       1       0                               0D     18
     110      10       0       0       0       0       0       001010001D     19
     110       0       0       1       0                               0D     20
     102      11       0       0       0       0       0       001010001D     21
     102       0       0       1       0                               0D     22
     142      12       0       0       0       0       0       001010001D     23
     142       0       0       1       0                               0D     24
     144      13       0       0   10000       0       0       000000000D     25
     144       0      -1       1       0                PartBody       0D     26
     110      14       0       0       0       0       0       001010001D     27
     110       0       0       1       0                               0D     28
     110      15       0       0       0       0       0       001010001D     29
     110       0       0       1       0                               0D     30
     120      16       0       0       0       0       0       001010001D     31
     120       0      -1       1       0                               0D     32
     124      17       0       0       0       0       0       001020001D     33
     124       0       0       1       0                               0D     34
     100      18       0       0       0       0      33       001010001D     35
     100       0       0       1       0                               0D     36
     110      19       0       0       0       0       0       001010001D     37
     110       0       0       1       0                               0D     38
     124      20       0       0       0       0       0       001020001D     39
     124       0       0       1       0                               0D     40
     100      21       0       0       0       0      39       001010001D     41
     100       0       0       1       0                               0D     42
     110      22       0       0       0       0       0       001010001D     43
     110       0       0       1       0                               0D     44
     102      23       0       0       0       0       0       001010001D     45
     102       0       0       1       0                               0D     46
     142      24       0       0       0       0       0       001010001D     47
     142       0       0       1       0                               0D     48
     144      25       0       0   10000       0       0       000000000D     49
     144       0      -1       1       0                PartBody       0D     50
     314      26       0       0       0       0       0       000000201D     51
     314       0       0       1       0                               0D     52
     108      27       0       0       0       0       0       001010001D     53
     108       0     -51       1       0                               0D     54
     124      28       0       0       0       0       0       001020001D     55
     124       0       0       1       0                               0D     56
     100      29       0       0       0       0      55       001010001D     57
     100       0       0       1       0                               0D     58
     124      30       0       0       0       0       0       001020001D     59
     124       0       0       1       0                               0D     60
     100      31       0       0       0       0      59       001010001D     61
     100       0       0       1       0                               0D     62
     102      32       0       0       0       0       0       001010001D     63
     102       0       0       1       0                               0D     64
     142      33       0       0       0       0       0       001010001D     65
     142       0       0       1       0                               0D     66
     124      34       0       0       0       0       0       001020001D     67
     124       0       0       1       0                               0D     68
     100      35       0       0       0       0      67       001010001D     69
     100       0       0       1       0                               0D     70
     124      36       0       0       0       0       0       001020001D     71
     124       0       0       1       0                               0D     72
     100      37       0       0       0       0      71       001010001D     73
     100       0       0       1       0                               0D     74
     102      38       0       0       0       0       0       001010001D     75
     102       0       0       1       0                               0D     76
     142      39       0       0       0       0       0       001010001D     77
     142       0       0       1       0                               0D     78
     124      40       0       0       0       0       0       001020001D     79
     124       0       0       1       0                               0D     80
     100      41       0       0       0       0      79       001010001D     81
     100       0       0       1       0                               0D     82
     124      42       0       0       0       0       0       001020001D     83
     124       0       0       1       0                               0D     84
     100      43       0       0       0       0      83       001010001D     85
     100       0       0       1       0                               0D     86
     102      44       0       0       0       0       0       001010001D     87
     102       0       0       1       0                               0D     88
     142      45       0       0       0       0       0       001010001D     89
     142       0       0       1       0                               0D     90
     124      46       0       0       0       0       0       001020001D     91
     124       0       0       1       0                               0D     92
     100      47       0       0       0       0      91       001010001D     93
     100       0       0       1       0                               0D     94
     124      48       0       0       0       0       0       001020001D     95
     124       0       0       1       0                               0D     96
     100      49       0       0       0       0      95       001010001D     97
     100       0       0       1       0                               0D     98
     102      50       0       0       0       0       0       001010001D     99
     102       0       0       1       0                               0D    100
     142      51       0       0       0       0       0       001010001D    101
     142       0       0       1       0                               0D    102
     124      52       0       0       0       0       0       001020001D    103
     124       0       0       1       0                               0D    104
     100      53       0       0       0       0     103       001010001D    105
     100       0       0       1       0                               0D    106
     124      54       0       0       0       0       0       001020001D    107
     124       0       0       1       0                               0D    108
     100      55       0       0       0       0     107       001010001D    109
     100       0       0       1       0                               0D    110
     102      56       0       0       0       0       0       001010001D    111
     102       0       0       1       0                               0D    112
     142      57       0       0       0       0       0       001010001D    113
     142       0       0       1       0                               0D    114
     124      58       0       0       0       0       0       001020001D    115
     124       0       0       1       0                               0D    116
     100      59       0       0       0       0     115       001010001D    117
     100       0       0       1       0                               0D    118
     124      60       0       0       0       0       0       001020001D    119
     124       0       0       1       0                               0D    120
     100      61       0       0       0       0     119       001010001D    121
     100       0       0       1       0                               0D    122
     102      62       0       0       0       0       0       001010001D    123
     102       0       0       1       0                               0D    124
     142      63       0       0       0       0       0       001010001D    125
     142       0       0       1       0                               0D    126
     144      64       0       0   10000       0       0       000000000D    127
     144       0     -51       1       0                PartBody       0D    128
     108      65       0       0       0       0       0       001010001D    129
     108       0     -51       1       0                               0D    130
     124      66       0       0       0       0       0       001020001D    131
     124       0       0       1       0                               0D    132
     100      67       0       0       0       0     131       001010001D    133
     100       0       0       1       0                               0D    134
     124      68       0       0       0       0       0       001020001D    135
     124       0       0       1       0                               0D    136
     100      69       0       0       0       0     135       001010001D    137
     100       0       0       1       0                               0D    138
     102      70       0       0       0       0       0       001010001D    139
     102       0       0       1       0                               0D    140
     142      71       0       0       0       0       0       001010001D    141
     142       0       0       1       0                               0D    142
     126      72       0       0       0       0       0       001010001D    143
     126       0       0      17       0                               0D    144
     124      89       0       0       0       0       0       001020001D    145
     124       0       0       1       0                               0D    146
     100      90       0       0       0       0     145       001010001D    147
     100       0       0       1       0                               0D    148
     102      91       0       0       0       0       0       001010001D    149
     102       0       0       1       0                               0D    150
     142      92       0       0       0       0       0       001010001D    151
     142       0       0       1       0                               0D    152
     124      93       0       0       0       0       0       001020001D    153
     124       0       0       1       0                               0D    154
     100      94       0       0       0       0     153       001010001D    155
     100       0       0       1       0                               0D    156
     124      95       0       0       0       0       0       001020001D    157
     124       0       0       1       0                               0D    158
     100      96       0       0       0       0     157       001010001D    159
     100       0       0       1       0                               0D    160
     102      97       0       0       0       0       0       001010001D    161
     102       0       0       1       0                               0D    162
     142      98       0       0       0       0       0       001010001D    163
     142       0       0       1       0                               0D    164
     124      99       0       0       0       0       0       001020001D    165
     124       0       0       1       0                               0D    166
     100     100       0       0       0       0     165       001010001D    167
     100       0       0       1       0                               0D    168
     124     101       0       0       0       0       0       001020001D    169
     124       0       0       1       0                               0D    170
     100     102       0       0       0       0     169       001010001D    171
     100       0       0       1       0                               0D    172
     102     103       0       0       0       0       0       001010001D    173
     102       0       0       1       0                               0D    174
     142     104       0       0       0       0       0       001010001D    175
     142       0       0       1       0                               0D    176
     124     105       0       0       0       0       0       001020001D    177
     124       0       0       1       0                               0D    178
     100     106       0       0       0       0     177       001010001D    179
     100       0       0       1       0                               0D    180
     124     107       0       0       0       0       0       001020001D    181
     124       0       0       1       0                               0D    182
     100     108       0       0       0       0     181       001010001D    183
     100       0       0       1       0                               0D    184
     102     109       0       0       0       0       0       001010001D    185
     102       0       0       1       0                               0D    186
     142     110       0       0       0       0       0       001010001D    187
     142       0       0       1       0                               0D    188
     124     111       0       0       0       0       0       001020001D    189
     124       0       0       1       0                               0D    190
     100     112       0       0       0       0     189       001010001D    191
     100       0       0       1       0                               0D    192
     124     113       0       0       0       0       0       001020001D    193
     124       0       0       1       0                               0D    194
     100     114       0       0       0       0     193       001010001D    195
     100       0       0       1       0                               0D    196
     102     115       0       0       0       0       0       001010001D    197
     102       0       0       1       0                               0D    198
     142     116       0       0       0       0       0       001010001D    199
     142       0       0       1       0                               0D    200
     144     117       0       0   10000       0       0       000000000D    201
     144       0     -51       1       0                PartBody       0D    202
     110     118       0       0       0       0       0       001010001D    203
     110       0       0       1       0                               0D    204
     110     119       0       0       0       0       0       001010001D    205
     110       0       0       1       0                               0D    206
     120     120       0       0       0       0       0       001010001D    207
     120       0       0       1       0                               0D    208
     124     121       0       0       0       0       0       001020001D    209
     124       0       0       1       0                               0D    210
     100     122       0       0       0       0     209       001010001D    211
     100       0       0       1       0                               0D    212
     110     123       0       0       0       0       0       001010001D    213
     110       0       0       1       0                               0D    214
     124     124       0       0       0       0       0       001020001D    215
     124       0       0       1       0                               0D    216
     100     125       0       0       0       0     215       001010001D    217
     100       0       0       1       0                               0D    218
     110     126       0       0       0       0       0       001010001D    219
     110       0       0       1       0                               0D    220
     102     127       0       0       0       0       0       001010001D    221
     102       0       0       1       0                               0D    222
     142     128       0       0       0       0       0       001010001D    223
     142       0       0       1       0                               0D    224
     144     129       0       0   10000       0       0       000000000D    225
     144       0       0       1       0                PartBody       0D    226
     110     130       0       0       0       0       0       001010001D    227
     110       0       0       1       0                               0D    228
     110     131       0       0       0       0       0       001010001D    229
     110       0       0       1       0                               0D    230
     120     132       0       0       0       0       0       001010001D    231
     120       0       0       1       0                               0D    232
     124     133       0       0       0       0       0       001020001D    233
     124       0       0       1       0                               0D    234
     100     134       0       0       0       0     233       001010001D    235
     100       0       0       1       0                               0D    236
     110     135       0       0       0       0       0       001010001D    237
     110       0       0       1       0                               0D    238
     124     136       0       0       0       0       0       001020001D    239
     124       0       0       1       0                               0D    240
     100     137       0       0       0       0     239       001010001D    241
     100       0       0       1       0                               0D    242
     110     138       0       0       0       0       0       001010001D    243
     110       0       0       1       0                               0D    244
     102     139       0       0       0       0       0       001010001D    245
     102       0       0       1       0                               0D    246
     142     140       0       0       0       0       0       001010001D    247
     142       0       0       1       0                               0D    248
     144     141       0       0   10000       0       0       000000000D    249
     144       0       0       1       0                PartBody       0D    250
     110     142       0       0       0       0       0       001010001D    251
     110       0       0       1       0                               0D    252
     110     143       0       0       0       0       0       001010001D    253
     110       0       0       1       0                               0D    254
     120     144       0       0       0       0       0       001010001D    255
     120       0      -1       1       0                               0D    256
     110     145       0       0       0       0       0       001010001D    257
     110       0       0       1       0                               0D    258
     124     146       0       0       0       0       0       001020001D    259
     124       0       0       1       0                               0D    260
     100     147       0       0       0       0     259       001010001D    261
     100       0       0       1       0                               0D    262
     110     148       0       0       0       0       0       001010001D    263
     110       0       0       1       0                               0D    264
     124     149       0       0       0       0       0       001020001D    265
     124       0       0       1       0                               0D    266
     100     150       0       0       0       0     265       001010001D    267
     100       0       0       1       0                               0D    268
     102     151       0       0       0       0       0       001010001D    269
     102       0       0       1       0                               0D    270
     142     152       0       0       0       0       0       001010001D    271
     142       0       0       1       0                               0D    272
     144     153       0       0   10000       0       0       000000000D    273
     144       0      -1       1       0                PartBody       0D    274
     110     154       0       0       0       0       0       001010001D    275
     110       0       0       1       0                               0D    276
     110     155       0       0       0       0       0       001010001D    277
     110       0       0       1       0                               0D    278
     120     156       0       0       0       0       0       001010001D    279
     120       0      -1       1       0                               0D    280
     110     157       0       0       0       0       0       001010001D    281
     110       0       0       1       0                               0D    282
     124     158       0       0       0       0       0       001020001D    283
     124       0       0       1       0                               0D    284
     100     159       0       0       0       0     283       001010001D    285
     100       0       0       1       0                               0D    286
     110     160       0       0       0       0       0       001010001D    287
     110       0       0       1       0                               0D    288
     124     161       0       0       0       0       0       001020001D    289
     124       0       0       1       0                               0D    290
     100     162       0       0       0       0     289       001010001D    291
     100       0       0       1       0                               0D    292
     102     163       0       0       0       0       0       001010001D    293
     102       0       0       1       0                               0D    294
     142     164       0       0       0       0       0       001010001D    295
     142       0       0       1       0                               0D    296
     144     165       0       0   10000       0       0       000000000D    297
     144       0      -1       1       0                PartBody       0D    298
     110     166       0       0       0       0       0       001010001D    299
     110       0       0       1       0                               0D    300
     110     167       0       0       0       0       0       001010001D    301
     110       0       0       1       0                               0D    302
     120     168       0       0       0       0       0       001010001D    303
     120       0      -1       1       0                               0D    304
     124     169       0       0       0       0       0       001020001D    305
     124       0       0       1       0                               0D    306
     100     170       0       0       0       0     305       001010001D    307
     100       0       0       1       0                               0D    308
     110     171       0       0       0       0       0       001010001D    309
     110       0       0       1       0                               0D    310
     124     172       0       0       0       0       0       001020001D    311
     124       0       0       1       0                               0D    312
     100     173       0       0       0       0     311       001010001D    313
     100       0       0       1       0                               0D    314
     110     174       0       0       0       0       0       001010001D    315
     110       0       0       1       0                               0D    316
     102     175       0       0       0       0       0       001010001D    317
     102       0       0       1       0                               0D    318
     142     176       0       0       0       0       0       001010001D    319
     142       0       0       1       0                               0D    320
     144     177       0       0   10000       0       0       000000000D    321
     144       0      -1       1       0                PartBody       0D    322
     110     178       0       0       0       0       0       001010001D    323
     110       0       0       1       0                               0D    324
     110     179       0       0       0       0       0       001010001D    325
     110       0       0       1       0                               0D    326
     120     180       0       0       0       0       0       001010001D    327
     120       0      -1       1       0                               0D    328
     124     181       0       0       0       0       0       001020001D    329
     124       0       0       1       0                               0D    330
     100     182       0       0       0       0     329       001010001D    331
     100       0       0       1       0                               0D    332
     110     183       0       0       0       0       0       001010001D    333
     110       0       0       1       0                               0D    334
     124     184       0       0       0       0       0       001020001D    335
     124       0       0       1       0                               0D    336
     100     185       0       0       0       0     335       001010001D    337
     100       0       0       1       0                               0D    338
     110     186       0       0       0       0       0       001010001D    339
     110       0       0       1       0                               0D    340
     102     187       0       0       0       0       0       001010001D    341
     102       0       0       1       0                               0D    342
     142     188       0       0       0       0       0       001010001D    343
     142       0       0       1       0                               0D    344
     144     189       0       0   10000       0       0       000000000D    345
     144       0      -1       1       0                PartBody       0D    346
     110     190       0       0       0       0       0       001010001D    347
     110       0       0       1       0                               0D    348
     110     191       0       0       0       0       0       001010001D    349
     110       0       0       1       0                               0D    350
     120     192       0       0       0       0       0       001010001D    351
     120       0      -1       1       0                               0D    352
     124     193       0       0       0       0       0       001020001D    353
     124       0       0       1       0                               0D    354
     100     194       0       0       0       0     353       001010001D    355
     100       0       0       1       0                               0D    356
     110     195       0       0       0       0       0       001010001D    357
     110       0       0       1       0                               0D    358
     124     196       0       0       0       0       0       001020001D    359
     124       0       0       1       0                               0D    360
     100     197       0       0       0       0     359       001010001D    361
     100       0       0       1       0                               0D    362
     110     198       0       0       0       0       0       001010001D    363
     110       0       0       1       0                               0D    364
     102     199       0       0       0       0       0       001010001D    365
     102       0       0       1       0                               0D    366
     142     200       0       0       0       0       0       001010001D    367
     142       0       0       1       0                               0D    368
     144     201       0       0   10000       0       0       000000000D    369
     144       0      -1       1       0                PartBody       0D    370
     110     202       0       0       0       0       0       001010001D    371
     110       0       0       1       0                               0D    372
     110     203       0       0       0       0       0       001010001D    373
     110       0       0       1       0                               0D    374
     120     204       0       0       0       0       0       001010001D    375
     120       0      -1       1       0                               0D    376
     124     205       0       0       0       0       0       001020001D    377
     124       0       0       1       0                               0D    378
     100     206       0       0       0       0     377       001010001D    379
     100       0       0       1       0                               0D    380
     110     207       0       0       0       0       0       001010001D    381
     110       0       0       1       0                               0D    382
     124     208       0       0       0       0       0       001020001D    383
     124       0       0       1       0                               0D    384
     100     209       0       0       0       0     383       001010001D    385
     100       0       0       1       0                               0D    386
     110     210       0       0       0       0       0       001010001D    387
     110       0       0       1       0                               0D    388
     102     211       0       0       0       0       0       001010001D    389
     102       0       0       1       0                               0D    390
     142     212       0       0       0       0       0       001010001D    391
     142       0       0       1       0                               0D    392
     144     213       0       0   10000       0       0       000000000D    393
     144       0      -1       1       0                PartBody       0D    394
     110     214       0       0       0       0       0       001010001D    395
     110       0       0       1       0                               0D    396
     110     215       0       0       0       0       0       001010001D    397
     110       0       0       1       0                               0D    398
     120     216       0       0       0       0       0       001010001D    399
     120       0      -1       1       0                               0D    400
     124     217       0       0       0       0       0       001020001D    401
     124       0       0       1       0                               0D    402
     100     218       0       0       0       0     401       001010001D    403
     100       0       0       1       0                               0D    404
     110     219       0       0       0       0       0       001010001D    405
     110       0       0       1       0                               0D    406
     124     220       0       0       0       0       0       001020001D    407
     124       0       0       1       0                               0D    408
     100     221       0       0       0       0     407       001010001D    409
     100       0       0       1       0                               0D    410
     110     222       0       0       0       0       0       001010001D    411
     110       0       0       1       0                               0D    412
     102     223       0       0       0       0       0       001010001D    413
     102       0       0       1       0                               0D    414
     142     224       0       0       0       0       0       001010001D    415
     142       0       0       1       0                               0D    416
     144     225       0       0   10000       0       0       000000000D    417
     144       0      -1       1       0                PartBody       0D    418
     110     226       0       0       0       0       0       001010001D    419
     110       0       0       1       0                               0D    420
     110     227       0       0       0       0       0       001010001D    421
     110       0       0       1       0                               0D    422
     120     228       0       0       0       0       0       001010001D    423
     120       0      -1       1       0                               0D    424
     124     229       0       0       0       0       0       001020001D    425
     124       0       0       1       0                               0D    426
     100     230       0       0       0       0     425       001010001D    427
     100       0       0       1       0                               0D    428
     110     231       0       0       0       0       0       001010001D    429
     110       0       0       1       0                               0D    430
     124     232       0       0       0       0       0       001020001D    431
     124       0       0       1       0                               0D    432
     100     233       0       0       0       0     431       001010001D    433
     100       0       0       1       0                               0D    434
     110     234       0       0       0       0       0       001010001D    435
     110       0       0       1       0                               0D    436
     102     235       0       0       0       0       0       001010001D    437
     102       0       0       1       0                               0D    438
     142     236       0       0       0       0       0       001010001D    439
     142       0       0       1       0                               0D    440
     144     237       0       0   10000       0       0       000000000D    441
     144       0      -1       1       0                PartBody       0D    442
     110     238       0       0       0       0       0       001010001D    443
     110       0       0       1       0                               0D    444
     124     239       0       0       0       0       0       001020001D    445
     124       0       0       1       0                               0D    446
     100     240       0       0       0       0     445       001010001D    447
     100       0       0       1       0                               0D    448
     120     241       0       0       0       0       0       001010001D    449
     120       0     -51       1       0                               0D    450
     124     242       0       0       0       0       0       001020001D    451
     124       0       0       1       0                               0D    452
     100     243       0       0       0       0     451       001010001D    453
     100       0       0       1       0                               0D    454
     124     244       0       0       0       0       0       001020001D    455
     124       0       0       1       0                               0D    456
     100     245       0       0       0       0     455       001010001D    457
     100       0       0       1       0                               0D    458
     124     246       0       0       0       0       0       001020001D    459
     124       0       0       1       0                               0D    460
     100     247       0       0       0       0     459       001010001D    461
     100       0       0       1       0                               0D    462
     124     248       0       0       0       0       0       001020001D    463
     124       0       0       1       0                               0D    464
     100     249       0       0       0       0     463       001010001D    465
     100       0       0       1       0                               0D    466
     102     250       0       0       0       0       0       001010001D    467
     102       0       0       1       0                               0D    468
     142     251       0       0       0       0       0       001010001D    469
     142       0       0       1       0                               0D    470
     144     252       0       0   10000       0       0       000000000D    471
     144       0     -51       1       0                PartBody       0D    472
     110     253       0       0       0       0       0       001010001D    473
     110       0       0       1       0                               0D    474
     124     254       0       0       0       0       0       001020001D    475
     124       0       0       1       0                               0D    476
     100     255       0       0       0       0     475       001010001D    477
     100       0       0       1       0                               0D    478
     120     256       0       0       0       0       0       001010001D    479
     120       0     -51       1       0                               0D    480
     124     257       0       0       0       0       0       001020001D    481
     124       0       0       1       0                               0D    482
     100     258       0       0       0       0     481       001010001D    483
     100       0       0       1       0                               0D    484
     124     259       0       0       0       0       0       001020001D    485
     124       0       0       1       0                               0D    486
     100     260       0       0       0       0     485       001010001D    487
     100       0       0       1       0                               0D    488
     124     261       0       0       0       0       0       001020001D    489
     124       0       0       1       0                               0D    490
     100     262       0       0       0       0     489       001010001D    491
     100       0       0       1       0                               0D    492
     124     263       0       0       0       0       0       001020001D    493
     124       0       0       1       0                               0D    494
     100     264       0       0       0       0     493       001010001D    495
     100       0       0       1       0                               0D    496
     102     265       0       0       0       0       0       001010001D    497
     102       0       0       1       0                               0D    498
     142     266       0       0       0       0       0       001010001D    499
     142       0       0       1       0                               0D    500
     144     267       0       0   10000       0       0       000000000D    501
     144       0     -51       1       0                PartBody       0D    502
     108     268       0       0       0       0       0       001010001D    503
     108       0     -51       1       0                               0D    504
     124     269       0       0       0       0       0       001020001D    505
     124       0       0       1       0                               0D    506
     100     270       0       0       0       0     505       001010001D    507
     100       0       0       1       0                               0D    508
     124     271       0       0       0       0       0       001020001D    509
     124       0       0       1       0                               0D    510
     100     272       0       0       0       0     509       001010001D    511
     100       0       0       1       0                               0D    512
     102     273       0       0       0       0       0       001010001D    513
     102       0       0       1       0                               0D    514
     142     274       0       0       0       0       0       001010001D    515
     142       0       0       1       0                               0D    516
     124     275       0       0       0       0       0       001020001D    517
     124       0       0       1       0                               0D    518
     100     276       0       0       0       0     517       001010001D    519
     100       0       0       1       0                               0D    520
     124     277       0       0       0       0       0       001020001D    521
     124       0       0       1       0                               0D    522
     100     278       0       0       0       0     521       001010001D    523
     100       0       0       1       0                               0D    524
     102     279       0       0       0       0       0       001010001D    525
     102       0       0       1       0                               0D    526
     142     280       0       0       0       0       0       001010001D    527
     142       0       0       1       0                               0D    528
     144     281       0       0   10000       0       0       000000000D    529
     144       0     -51       1       0                PartBody       0D    530
314,0.0,68.62745098,68.62745098,5HColor,0,0;                           1P      1
110,8.0,0.0,-1.75,8.0,0.0,-0.75,0,0;                                   3P      2
110,6.25,0.0,-1.75,6.25,0.0,0.75,0,0;                                  5P      3
120,3,5,0.0,6.283185307,0,0;                                           7P      4
124,-1.0,0.0,0.0,8.0,0.0,-1.0,0.0,0.0,0.0,0.0,1.0,-1.75,0,0;           9P      5
100,0.0,0.0,0.0,1.75,0.0,-1.75,0.0,0,0;                               11P      6
110,9.75,0.0,-1.75,9.75,0.0,0.75,0,0;                                 13P      7
124,1.0,0.0,0.0,8.0,0.0,-1.0,0.0,0.0,0.0,0.0,-1.0,0.75,0,0;           15P      8
100,0.0,0.0,0.0,1.75,0.0,-1.75,0.0,0,0;                               17P      9
110,6.25,0.0,0.75,6.25,0.0,-1.75,0,0;                                 19P     10
102,4,11,13,17,19,0,0;                                                21P     11
142,0,7,0,21,2,0,0;                                                   23P     12
144,7,1,0,23,0,0;                                                     25P     13
110,8.0,0.0,-1.75,8.0,0.0,-0.75,0,0;                                  27P     14
110,9.75,0.0,-1.75,9.75,0.0,0.75,0,0;                                 29P     15
120,27,29,0.0,6.283185307,0,0;                                        31P     16
124,1.0,0.0,0.0,8.0,0.0,1.0,0.0,0.0,0.0,0.0,1.0,-1.75,0,0;            33P     17
100,0.0,0.0,0.0,1.75,0.0,-1.75,0.0,0,0;                               35P     18
110,6.25,0.0,-1.75,6.25,0.0,0.75,0,0;                                 37P     19
124,-1.0,0.0,0.0,8.0,0.0,1.0,0.0,0.0,0.0,0.0,-1.0,0.75,0,0;           39P     20
100,0.0,0.0,0.0,1.75,0.0,-1.75,0.0,0,0;                               41P     21
110,9.75,0.0,0.75,9.75,0.0,-1.75,0,0;                                 43P     22
102,4,35,37,41,43,0,0;                                                45P     23
142,0,31,0,45,2,0,0;                                                  47P     24
144,31,1,0,47,0,0;                                                    49P     25
314,37.25490196,0.0,0.0,5HColor,0,0;                                  51P     26
108,0.0,0.0,1.0,0.75,0,0.0,0.0,0.75,1.0,0,0;                          53P     27
124,1.0,0.0,0.0,0.0,0.0,-1.0,0.0,0.0,0.0,0.0,-1.0,0.75,0,0;           55P     28
100,0.0,0.0,0.0,37.5,0.0,-37.5,0.0,0,0;                               57P     29
124,-1.0,0.0,0.0,0.0,0.0,1.0,0.0,0.0,0.0,0.0,-1.0,0.75,0,0;           59P     30
100,0.0,0.0,0.0,37.5,0.0,-37.5,0.0,0,0;                               61P     31
102,2,57,61,0,0;                                                      63P     32
142,0,53,0,63,2,0,0;                                                  65P     33
124,-1.0,0.0,0.0,8.0,0.0,-1.0,0.0,0.0,0.0,0.0,1.0,0.75,0,0;           67P     34
100,0.0,0.0,0.0,1.75,0.0,-1.75,0.0,0,0;                               69P     35
124,1.0,0.0,0.0,8.0,0.0,1.0,0.0,0.0,0.0,0.0,1.0,0.75,0,0;             71P     36
100,0.0,0.0,0.0,1.75,0.0,-1.75,0.0,0,0;                               73P     37
102,2,69,73,0,0;                                                      75P     38
142,0,53,0,75,2,0,0;                                                  77P     39
124,1.0,0.0,0.0,0.0,0.0,1.0,0.0,0.0,0.0,0.0,1.0,0.75,0,0;             79P     40
100,0.0,0.0,0.0,5.5,0.0,-5.5,0.0,0,0;                                 81P     41
124,-1.0,0.0,0.0,0.0,0.0,-1.0,0.0,0.0,0.0,0.0,1.0,0.75,0,0;           83P     42
100,0.0,0.0,0.0,5.5,0.0,-5.5,0.0,0,0;                                 85P     43
102,2,81,85,0,0;                                                      87P     44
142,0,53,0,87,2,0,0;                                                  89P     45
124,0.0,1.0,0.0,0.0,-1.0,0.0,0.0,-8.0,0.0,0.0,1.0,0.75,0,0;           91P     46
100,0.0,0.0,0.0,1.75,0.0,-1.75,0.0,0,0;                               93P     47
124,0.0,-1.0,0.0,0.0,1.0,0.0,0.0,-8.0,0.0,0.0,1.0,0.75,0,0;           95P     48
100,0.0,0.0,0.0,1.75,0.0,-1.75,0.0,0,0;                               97P     49
102,2,93,97,0,0;                                                      99P     50
142,0,53,0,99,2,0,0;                                                 101P     51
124,-1.0,0.0,0.0,-8.0,0.0,-1.0,0.0,0.0,0.0,0.0,1.0,0.75,0,0;         103P     52
100,0.0,0.0,0.0,1.75,0.0,-1.75,0.0,0,0;                              105P     53
124,1.0,0.0,0.0,-8.0,0.0,1.0,0.0,0.0,0.0,0.0,1.0,0.75,0,0;           107P     54
100,0.0,0.0,0.0,1.75,0.0,-1.75,0.0,0,0;                              109P     55
102,2,105,109,0,0;                                                   111P     56
142,0,53,0,111,2,0,0;                                                113P     57
124,0.0,-1.0,0.0,0.0,1.0,0.0,0.0,8.0,0.0,0.0,1.0,0.75,0,0;           115P     58
100,0.0,0.0,0.0,1.75,0.0,-1.75,0.0,0,0;                              117P     59
124,0.0,1.0,0.0,0.0,-1.0,0.0,0.0,8.0,0.0,0.0,1.0,0.75,0,0;           119P     60
100,0.0,0.0,0.0,1.75,0.0,-1.75,0.0,0,0;                              121P     61
102,2,117,121,0,0;                                                   123P     62
142,0,53,0,123,2,0,0;                                                125P     63
144,53,1,5,65,77,89,101,113,125,0,0;                                 127P     64
108,0.0,0.0,-1.0,1.75,0,0.0,0.0,-1.75,1.0,0,0;                       129P     65
124,1.0,0.0,0.0,0.0,0.0,1.0,0.0,0.0,0.0,0.0,1.0,-1.75,0,0;           131P     66
100,0.0,0.0,0.0,14.0,0.0,-14.0,0.0,0,0;                              133P     67
124,-1.0,0.0,0.0,0.0,0.0,-1.0,0.0,0.0,0.0,0.0,1.0,-1.75,0,0;         135P     68
100,0.0,0.0,0.0,14.0,0.0,-14.0,0.0,0,0;                              137P     69
102,2,133,137,0,0;                                                   139P     70
142,0,129,0,139,2,0,0;                                               141P     71
126,20,5,0,0,1,0,0.0,0.0,0.0,0.0,0.0,0.0,0.90117859,0.90117859,      143P     72
0.90117859,2.275927896,2.275927896,2.275927896,3.650677213,          143P     73
3.650677213,3.650677213,5.025426528,5.025426528,5.025426528,         143P     74
6.400175831,6.400175831,6.400175831,7.774925141,7.774925141,         143P     75
7.774925141,7.774925141,7.774925141,7.774925141,1.0,1.0,1.0,1.0,     143P     76
1.0,1.0,1.0,1.0,1.0,1.0,1.0,1.0,1.0,1.0,1.0,1.0,1.0,1.0,1.0,1.0,     143P     77
1.0,9.75,0.0,-1.75,9.75,-0.1274458984,-1.75,9.738398245,             143P     78
-0.2548920312,-1.75,9.71519363,-0.380931726,-1.75,9.627944459,       143P     79
-0.6921272617,-1.75,9.471548737,-0.9769707072,-1.75,9.353614545,     143P     80
-1.134748544,-1.75,9.077073215,-1.413378584,-1.75,8.735071533,       143P     81
-1.606112476,-1.75,8.551663862,-1.677973057,-1.75,8.169764256,       143P     82
-1.768871344,-1.75,7.777545164,-1.752267471,-1.75,7.583817977,       143P     83
-1.716601037,-1.75,7.211404145,-1.592432828,-1.75,6.886914948,       143P     84
-1.371484273,-1.75,6.741125476,-1.239016355,-1.75,6.490188923,       143P     85
-0.9371212544,-1.75,6.331009329,-0.5782712034,-1.75,6.276999081,     143P     86
-0.3888372783,-1.75,6.25,-0.1944189119,-1.75,6.25,0.0,-1.75,0.0,     143P     87
7.774925141,0.0,0.0,0.0,0,0;                                         143P     88
124,-1.0,0.0,0.0,8.0,0.0,1.0,0.0,0.0,0.0,0.0,-1.0,-1.75,0,0;         145P     89
100,0.0,0.0,0.0,1.75,0.0,-1.75,0.0,0,0;                              147P     90
102,2,143,147,0,0;                                                   149P     91
142,0,129,0,149,2,0,0;                                               151P     92
124,1.0,0.0,0.0,0.0,0.0,-1.0,0.0,0.0,0.0,0.0,-1.0,-1.75,0,0;         153P     93
100,0.0,0.0,0.0,5.5,0.0,-5.5,0.0,0,0;                                155P     94
124,-1.0,0.0,0.0,0.0,0.0,1.0,0.0,0.0,0.0,0.0,-1.0,-1.75,0,0;         157P     95
100,0.0,0.0,0.0,5.5,0.0,-5.5,0.0,0,0;                                159P     96
102,2,155,159,0,0;                                                   161P     97
142,0,129,0,161,2,0,0;                                               163P     98
124,0.0,1.0,0.0,0.0,1.0,0.0,0.0,-8.0,0.0,0.0,-1.0,-1.75,0,0;         165P     99
100,0.0,0.0,0.0,1.75,0.0,-1.75,0.0,0,0;                              167P    100
124,0.0,-1.0,0.0,0.0,-1.0,0.0,0.0,-8.0,0.0,0.0,-1.0,-1.75,0,0;       169P    101
100,0.0,0.0,0.0,1.75,0.0,-1.75,0.0,0,0;                              171P    102
102,2,167,171,0,0;                                                   173P    103
142,0,129,0,173,2,0,0;                                               175P    104
124,1.0,0.0,0.0,-8.0,0.0,-1.0,0.0,0.0,0.0,0.0,-1.0,-1.75,0,0;        177P    105
100,0.0,0.0,0.0,1.75,0.0,-1.75,0.0,0,0;                              179P    106
124,-1.0,0.0,0.0,-8.0,0.0,1.0,0.0,0.0,0.0,0.0,-1.0,-1.75,0,0;        181P    107
100,0.0,0.0,0.0,1.75,0.0,-1.75,0.0,0,0;                              183P    108
102,2,179,183,0,0;                                                   185P    109
142,0,129,0,185,2,0,0;                                               187P    110
124,0.0,-1.0,0.0,0.0,-1.0,0.0,0.0,8.0,0.0,0.0,-1.0,-1.75,0,0;        189P    111
100,0.0,0.0,0.0,1.75,0.0,-1.75,0.0,0,0;                              191P    112
124,0.0,1.0,0.0,0.0,1.0,0.0,0.0,8.0,0.0,0.0,-1.0,-1.75,0,0;          193P    113
100,0.0,0.0,0.0,1.75,0.0,-1.75,0.0,0,0;                              195P    114
102,2,191,195,0,0;                                                   197P    115
142,0,129,0,197,2,0,0;                                               199P    116
144,129,1,5,141,151,163,175,187,199,0,0;                             201P    117
110,0.0,0.0,0.0,0.0,0.0,1.0,0,0;                                     203P    118
110,37.5,0.0,-0.75,37.5,0.0,0.75,0,0;                                205P    119
120,203,205,0.0,6.283185307,0,0;                                     207P    120
124,1.0,0.0,0.0,0.0,0.0,1.0,0.0,0.0,0.0,0.0,1.0,0.75,0,0;            209P    121
100,0.0,0.0,0.0,37.5,0.0,-37.5,0.0,0,0;                              211P    122
110,-37.5,0.0,0.75,-37.5,0.0,-0.75,0,0;                              213P    123
124,-1.0,0.0,0.0,0.0,0.0,1.0,0.0,0.0,0.0,0.0,-1.0,-0.75,0,0;         215P    124
100,0.0,0.0,0.0,37.5,0.0,-37.5,0.0,0,0;                              217P    125
110,37.5,0.0,-0.75,37.5,0.0,0.75,0,0;                                219P    126
102,4,211,213,217,219,0,0;                                           221P    127
142,0,207,0,221,2,0,0;                                               223P    128
144,207,1,0,223,0,0;                                                 225P    129
110,0.0,0.0,0.0,0.0,0.0,1.0,0,0;                                     227P    130
110,-37.5,0.0,-0.75,-37.5,0.0,0.75,0,0;                              229P    131
120,227,229,0.0,6.283185307,0,0;                                     231P    132
124,-1.0,0.0,0.0,0.0,0.0,-1.0,0.0,0.0,0.0,0.0,1.0,0.75,0,0;          233P    133
100,0.0,0.0,0.0,37.5,0.0,-37.5,0.0,0,0;                              235P    134
110,37.5,0.0,0.75,37.5,0.0,-0.75,0,0;                                237P    135
124,1.0,0.0,0.0,0.0,0.0,-1.0,0.0,0.0,0.0,0.0,-1.0,-0.75,0,0;         239P    136
100,0.0,0.0,0.0,37.5,0.0,-37.5,0.0,0,0;                              241P    137
110,-37.5,0.0,-0.75,-37.5,0.0,0.75,0,0;                              243P    138
102,4,235,237,241,243,0,0;                                           245P    139
142,0,231,0,245,2,0,0;                                               247P    140
144,231,1,0,247,0,0;                                                 249P    141
110,0.0,0.0,-1.25,0.0,0.0,-2.25,0,0;                                 251P    142
110,5.5,0.0,0.75,5.5,0.0,-1.75,0,0;                                  253P    143
120,251,253,0.0,6.283185307,0,0;                                     255P    144
110,5.5,0.0,-1.75,5.5,0.0,0.75,0,0;                                  257P    145
124,1.0,0.0,0.0,0.0,0.0,-1.0,0.0,0.0,0.0,0.0,-1.0,0.75,0,0;          259P    146
100,0.0,0.0,0.0,5.5,0.0,-5.5,0.0,0,0;                                261P    147
110,-5.5,0.0,0.75,-5.5,0.0,-1.75,0,0;                                263P    148
124,-1.0,0.0,0.0,0.0,0.0,-1.0,0.0,0.0,0.0,0.0,1.0,-1.75,0,0;         265P    149
100,0.0,0.0,0.0,5.5,0.0,-5.5,0.0,0,0;                                267P    150
102,4,257,261,263,267,0,0;                                           269P    151
142,0,255,0,269,2,0,0;                                               271P    152
144,255,1,0,271,0,0;                                                 273P    153
110,0.0,0.0,-1.25,0.0,0.0,-2.25,0,0;                                 275P    154
110,-5.5,0.0,0.75,-5.5,0.0,-1.75,0,0;                                277P    155
120,275,277,0.0,6.283185307,0,0;                                     279P    156
110,-5.5,0.0,-1.75,-5.5,0.0,0.75,0,0;                                281P    157
124,-1.0,0.0,0.0,0.0,0.0,1.0,0.0,0.0,0.0,0.0,-1.0,0.75,0,0;          283P    158
100,0.0,0.0,0.0,5.5,0.0,-5.5,0.0,0,0;                                285P    159
110,5.5,0.0,0.75,5.5,0.0,-1.75,0,0;                                  287P    160
124,1.0,0.0,0.0,0.0,0.0,1.0,0.0,0.0,0.0,0.0,1.0,-1.75,0,0;           289P    161
100,0.0,0.0,0.0,5.5,0.0,-5.5,0.0,0,0;                                291P    162
102,4,281,285,287,291,0,0;                                           293P    163
142,0,279,0,293,2,0,0;                                               295P    164
144,279,1,0,295,0,0;                                                 297P    165
110,0.0,-8.0,-1.75,0.0,-8.0,-0.75,0,0;                               299P    166
110,0.0,-6.25,-1.75,0.0,-6.25,0.75,0,0;                              301P    167
120,299,301,0.0,6.283185307,0,0;                                     303P    168
124,0.0,-1.0,0.0,0.0,1.0,0.0,0.0,-8.0,0.0,0.0,1.0,-1.75,0,0;         305P    169
100,0.0,0.0,0.0,1.75,0.0,-1.75,0.0,0,0;                              307P    170
110,0.0,-9.75,-1.75,0.0,-9.75,0.75,0,0;                              309P    171
124,0.0,-1.0,0.0,0.0,-1.0,0.0,0.0,-8.0,0.0,0.0,-1.0,0.75,0,0;        311P    172
100,0.0,0.0,0.0,1.75,0.0,-1.75,0.0,0,0;                              313P    173
110,0.0,-6.25,0.75,0.0,-6.25,-1.75,0,0;                              315P    174
102,4,307,309,313,315,0,0;                                           317P    175
142,0,303,0,317,2,0,0;                                               319P    176
144,303,1,0,319,0,0;                                                 321P    177
110,0.0,-8.0,-1.75,0.0,-8.0,-0.75,0,0;                               323P    178
110,0.0,-9.75,-1.75,0.0,-9.75,0.75,0,0;                              325P    179
120,323,325,0.0,6.283185307,0,0;                                     327P    180
124,0.0,1.0,0.0,0.0,-1.0,0.0,0.0,-8.0,0.0,0.0,1.0,-1.75,0,0;         329P    181
100,0.0,0.0,0.0,1.75,0.0,-1.75,0.0,0,0;                              331P    182
110,0.0,-6.25,-1.75,0.0,-6.25,0.75,0,0;                              333P    183
124,0.0,1.0,0.0,0.0,1.0,0.0,0.0,-8.0,0.0,0.0,-1.0,0.75,0,0;          335P    184
100,0.0,0.0,0.0,1.75,0.0,-1.75,0.0,0,0;                              337P    185
110,0.0,-9.75,0.75,0.0,-9.75,-1.75,0,0;                              339P    186
102,4,331,333,337,339,0,0;                                           341P    187
142,0,327,0,341,2,0,0;                                               343P    188
144,327,1,0,343,0,0;                                                 345P    189
110,-8.0,0.0,-1.75,-8.0,0.0,-0.75,0,0;                               347P    190
110,-6.25,0.0,-1.75,-6.25,0.0,0.75,0,0;                              349P    191
120,347,349,0.0,6.283185307,0,0;                                     351P    192
124,1.0,0.0,0.0,-8.0,0.0,1.0,0.0,0.0,0.0,0.0,1.0,-1.75,0,0;          353P    193
100,0.0,0.0,0.0,1.75,0.0,-1.75,0.0,0,0;                              355P    194
110,-9.75,0.0,-1.75,-9.75,0.0,0.75,0,0;                              357P    195
124,-1.0,0.0,0.0,-8.0,0.0,1.0,0.0,0.0,0.0,0.0,-1.0,0.75,0,0;         359P    196
100,0.0,0.0,0.0,1.75,0.0,-1.75,0.0,0,0;                              361P    197
110,-6.25,0.0,0.75,-6.25,0.0,-1.75,0,0;                              363P    198
102,4,355,357,361,363,0,0;                                           365P    199
142,0,351,0,365,2,0,0;                                               367P    200
144,351,1,0,367,0,0;                                                 369P    201
110,-8.0,0.0,-1.75,-8.0,0.0,-0.75,0,0;                               371P    202
110,-9.75,0.0,-1.75,-9.75,0.0,0.75,0,0;                              373P    203
120,371,373,0.0,6.283185307,0,0;                                     375P    204
124,-1.0,0.0,0.0,-8.0,0.0,-1.0,0.0,0.0,0.0,0.0,1.0,-1.75,0,0;        377P    205
100,0.0,0.0,0.0,1.75,0.0,-1.75,0.0,0,0;                              379P    206
110,-6.25,0.0,-1.75,-6.25,0.0,0.75,0,0;                              381P    207
124,1.0,0.0,0.0,-8.0,0.0,-1.0,0.0,0.0,0.0,0.0,-1.0,0.75,0,0;         383P    208
100,0.0,0.0,0.0,1.75,0.0,-1.75,0.0,0,0;                              385P    209
110,-9.75,0.0,0.75,-9.75,0.0,-1.75,0,0;                              387P    210
102,4,379,381,385,387,0,0;                                           389P    211
142,0,375,0,389,2,0,0;                                               391P    212
144,375,1,0,391,0,0;                                                 393P    213
110,0.0,8.0,-1.75,0.0,8.0,-0.75,0,0;                                 395P    214
110,0.0,6.25,-1.75,0.0,6.25,0.75,0,0;                                397P    215
120,395,397,0.0,6.283185307,0,0;                                     399P    216
124,0.0,1.0,0.0,0.0,-1.0,0.0,0.0,8.0,0.0,0.0,1.0,-1.75,0,0;          401P    217
100,0.0,0.0,0.0,1.75,0.0,-1.75,0.0,0,0;                              403P    218
110,0.0,9.75,-1.75,0.0,9.75,0.75,0,0;                                405P    219
124,0.0,1.0,0.0,0.0,1.0,0.0,0.0,8.0,0.0,0.0,-1.0,0.75,0,0;           407P    220
100,0.0,0.0,0.0,1.75,0.0,-1.75,0.0,0,0;                              409P    221
110,0.0,6.25,0.75,0.0,6.25,-1.75,0,0;                                411P    222
102,4,403,405,409,411,0,0;                                           413P    223
142,0,399,0,413,2,0,0;                                               415P    224
144,399,1,0,415,0,0;                                                 417P    225
110,0.0,8.0,-1.75,0.0,8.0,-0.75,0,0;                                 419P    226
110,0.0,9.75,-1.75,0.0,9.75,0.75,0,0;                                421P    227
120,419,421,0.0,6.283185307,0,0;                                     423P    228
124,0.0,-1.0,0.0,0.0,1.0,0.0,0.0,8.0,0.0,0.0,1.0,-1.75,0,0;          425P    229
100,0.0,0.0,0.0,1.75,0.0,-1.75,0.0,0,0;                              427P    230
110,0.0,6.25,-1.75,0.0,6.25,0.75,0,0;                                429P    231
124,0.0,-1.0,0.0,0.0,-1.0,0.0,0.0,8.0,0.0,0.0,-1.0,0.75,0,0;         431P    232
100,0.0,0.0,0.0,1.75,0.0,-1.75,0.0,0,0;                              433P    233
110,0.0,9.75,0.75,0.0,9.75,-1.75,0,0;                                435P    234
102,4,427,429,433,435,0,0;                                           437P    235
142,0,423,0,437,2,0,0;                                               439P    236
144,423,1,0,439,0,0;                                                 441P    237
110,0.0,0.0,-1.75,0.0,0.0,-0.75,0,0;                                 443P    238
124,0.0,1.0,0.0,-15.0,0.0,0.0,1.0,0.0,1.0,0.0,0.0,-1.75,0,0;         445P    239
100,0.0,0.0,0.0,1.0,0.0,0.0,1.0,0,0;                                 447P    240
120,443,447,0.0,3.141592654,0,0;                                     449P    241
124,1.0,0.0,0.0,-15.0,0.0,0.0,-1.0,0.0,0.0,1.0,0.0,-1.75,0,0;        451P    242
100,0.0,0.0,0.0,1.0,0.0,0.0,1.0,0,0;                                 453P    243
124,-1.0,0.0,0.0,0.0,0.0,-1.0,0.0,0.0,0.0,0.0,1.0,-0.75,0,0;         455P    244
100,0.0,0.0,0.0,15.0,0.0,-15.0,0.0,0,0;                              457P    245
124,0.0,-1.0,0.0,15.0,0.0,0.0,-1.0,0.0,1.0,0.0,0.0,-1.75,0,0;        459P    246
100,0.0,0.0,0.0,1.0,0.0,0.0,1.0,0,0;                                 461P    247
124,1.0,0.0,0.0,0.0,0.0,-1.0,0.0,0.0,0.0,0.0,-1.0,-1.75,0,0;         463P    248
100,0.0,0.0,0.0,14.0,0.0,-14.0,0.0,0,0;                              465P    249
102,4,453,457,461,465,0,0;                                           467P    250
142,0,449,0,467,2,0,0;                                               469P    251
144,449,1,0,469,0,0;                                                 471P    252
110,0.0,0.0,-1.75,0.0,0.0,-0.75,0,0;                                 473P    253
124,0.0,-1.0,0.0,15.0,0.0,0.0,-1.0,0.0,1.0,0.0,0.0,-1.75,0,0;        475P    254
100,0.0,0.0,0.0,1.0,0.0,0.0,-1.0,0,0;                                477P    255
120,473,477,0.0,3.141592654,0,0;                                     479P    256
124,-1.0,0.0,0.0,15.0,0.0,0.0,1.0,0.0,0.0,1.0,0.0,-1.75,0,0;         481P    257
100,0.0,0.0,0.0,1.0,0.0,0.0,1.0,0,0;                                 483P    258
124,1.0,0.0,0.0,0.0,0.0,1.0,0.0,0.0,0.0,0.0,1.0,-0.75,0,0;           485P    259
100,0.0,0.0,0.0,15.0,0.0,-15.0,0.0,0,0;                              487P    260
124,0.0,1.0,0.0,-15.0,0.0,0.0,1.0,0.0,1.0,0.0,0.0,-1.75,0,0;         489P    261
100,0.0,0.0,0.0,1.0,0.0,0.0,1.0,0,0;                                 491P    262
124,-1.0,0.0,0.0,0.0,0.0,1.0,0.0,0.0,0.0,0.0,-1.0,-1.75,0,0;         493P    263
100,0.0,0.0,0.0,14.0,0.0,-14.0,0.0,0,0;                              495P    264
102,4,483,487,491,495,0,0;                                           497P    265
142,0,479,0,497,2,0,0;                                               499P    266
144,479,1,0,499,0,0;                                                 501P    267
108,0.0,0.0,1.0,-0.75,0,0.0,0.0,-0.75,1.0,0,0;                       503P    268
124,1.0,0.0,0.0,0.0,0.0,1.0,0.0,0.0,0.0,0.0,1.0,-0.75,0,0;           505P    269
100,0.0,0.0,0.0,37.5,0.0,-37.5,0.0,0,0;                              507P    270
124,-1.0,0.0,0.0,0.0,0.0,-1.0,0.0,0.0,0.0,0.0,1.0,-0.75,0,0;         509P    271
100,0.0,0.0,0.0,37.5,0.0,-37.5,0.0,0,0;                              511P    272
102,2,507,511,0,0;                                                   513P    273
142,0,503,0,513,2,0,0;                                               515P    274
124,1.0,0.0,0.0,0.0,0.0,-1.0,0.0,0.0,0.0,0.0,-1.0,-0.75,0,0;         517P    275
100,0.0,0.0,0.0,15.0,0.0,-15.0,0.0,0,0;                              519P    276
124,-1.0,0.0,0.0,0.0,0.0,1.0,0.0,0.0,0.0,0.0,-1.0,-0.75,0,0;         521P    277
100,0.0,0.0,0.0,15.0,0.0,-15.0,0.0,0,0;                              523P    278
102,2,519,523,0,0;                                                   525P    279
142,0,503,0,525,2,0,0;                                               527P    280
144,503,1,1,515,527,0,0;                                             529P    281
S      1G      5D    530P    281                                        T      1
