START RECORD GO HERE.                                                   S      1
1H,,1H;,27H1360.000.008.003.BUJE_TALLA,31H1360.000.008.002.BUJE_TALLA.igG      1
s,62HDASSAULT SYSTEMES CATIA Version 5-6 Release 2018 - www.3ds.com,35HVG      2
5-6R2018_5.28.6.0.03-10-2020.20.00,32,75,6,75,15,27H1360.000.008.003.BUJG      3
E_TALLA,1.0,2,2HMM,1000,1.0,15H20241108.095716,0.001,10000.0,2HPc,15HDESG      4
KTOP-CAESKE4,11,0,15H20241108.095716,;                                  G      5
     314       1       0       0       0       0       0       000000201D      1
     314       0       0       1       0                               0D      2
     110       2       0       0       0       0       0       001010001D      3
     110       0       0       1       0                               0D      4
     110       3       0       0       0       0       0       001010001D      5
     110       0       0       2       0                               0D      6
     120       5       0       0       0       0       0       001010001D      7
     120       0      -1       1       0                               0D      8
     126       6       0       0       0       0       0       001010001D      9
     126       0       0      12       0                               0D     10
     110      18       0       0       0       0       0       001010001D     11
     110       0       0       1       0                               0D     12
     126      19       0       0       0       0       0       001010001D     13
     126       0       0      12       0                               0D     14
     110      31       0       0       0       0       0       001010001D     15
     110       0       0       1       0                               0D     16
     102      32       0       0       0       0       0       001010001D     17
     102       0       0       1       0                               0D     18
     142      33       0       0       0       0       0       001010001D     19
     142       0       0       1       0                               0D     20
     144      34       0       0   10000       0       0       000000000D     21
     144       0      -1       1       0                PartBody       0D     22
     110      35       0       0       0       0       0       001010001D     23
     110       0       0       1       0                               0D     24
     110      36       0       0       0       0       0       001010001D     25
     110       0       0       1       0                               0D     26
     120      37       0       0       0       0       0       001010001D     27
     120       0      -1       1       0                               0D     28
     126      38       0       0       0       0       0       001010001D     29
     126       0       0      12       0                               0D     30
     110      50       0       0       0       0       0       001010001D     31
     110       0       0       1       0                               0D     32
     126      51       0       0       0       0       0       001010001D     33
     126       0       0      12       0                               0D     34
     110      63       0       0       0       0       0       001010001D     35
     110       0       0       1       0                               0D     36
     102      64       0       0       0       0       0       001010001D     37
     102       0       0       1       0                               0D     38
     142      65       0       0       0       0       0       001010001D     39
     142       0       0       1       0                               0D     40
     144      66       0       0   10000       0       0       000000000D     41
     144       0      -1       1       0                PartBody       0D     42
     110      67       0       0       0       0       0       001010001D     43
     110       0       0       1       0                               0D     44
     110      68       0       0       0       0       0       001010001D     45
     110       0       0       1       0                               0D     46
     120      69       0       0       0       0       0       001010001D     47
     120       0       4       1       0                               0D     48
     110      70       0       0       0       0       0       001010001D     49
     110       0       0       1       0                               0D     50
     124      71       0       0       0       0       0       001020001D     51
     124       0       0       1       0                               0D     52
     100      72       0       0       0       0      51       001010001D     53
     100       0       0       1       0                               0D     54
     110      73       0       0       0       0       0       001010001D     55
     110       0       0       1       0                               0D     56
     124      74       0       0       0       0       0       001020001D     57
     124       0       0       1       0                               0D     58
     100      75       0       0       0       0      57       001010001D     59
     100       0       0       1       0                               0D     60
     110      76       0       0       0       0       0       001010001D     61
     110       0       0       1       0                               0D     62
     126      77       0       0       0       0       0       001010001D     63
     126       0       0      19       0                               0D     64
     110      96       0       0       0       0       0       001010001D     65
     110       0       0       1       0                               0D     66
     126      97       0       0       0       0       0       001010001D     67
     126       0       0      19       0                               0D     68
     102     116       0       0       0       0       0       001010001D     69
     102       0       0       1       0                               0D     70
     142     117       0       0       0       0       0       001010001D     71
     142       0       0       1       0                               0D     72
     126     118       0       0       0       0       0       001010001D     73
     126       0       0       9       0                               0D     74
     126     127       0       0       0       0       0       001010001D     75
     126       0       0      11       0                               0D     76
     102     138       0       0       0       0       0       001010001D     77
     102       0       0       1       0                               0D     78
     142     139       0       0       0       0       0       001010001D     79
     142       0       0       1       0                               0D     80
     126     140       0       0       0       0       0       001010001D     81
     126       0       0       9       0                               0D     82
     126     149       0       0       0       0       0       001010001D     83
     126       0       0      12       0                               0D     84
     102     161       0       0       0       0       0       001010001D     85
     102       0       0       1       0                               0D     86
     142     162       0       0       0       0       0       001010001D     87
     142       0       0       1       0                               0D     88
     144     163       0       0   10000       0       0       000000000D     89
     144       0       4       1       0                PartBody       0D     90
     314     164       0       0       0       0       0       000000201D     91
     314       0       0       1       0                               0D     92
     110     165       0       0       0       0       0       001010001D     93
     110       0       0       1       0                               0D     94
     110     166       0       0       0       0       0       001010001D     95
     110       0       0       1       0                               0D     96
     120     167       0       0       0       0       0       001010001D     97
     120       0     -91       1       0                               0D     98
     126     168       0       0       0       0       0       001010001D     99
     126       0       0      19       0                               0D    100
     110     187       0       0       0       0       0       001010001D    101
     110       0       0       1       0                               0D    102
     126     188       0       0       0       0       0       001010001D    103
     126       0       0      17       0                               0D    104
     110     205       0       0       0       0       0       001010001D    105
     110       0       0       1       0                               0D    106
     124     206       0       0       0       0       0       001020001D    107
     124       0       0       1       0                               0D    108
     100     207       0       0       0       0     107       001010001D    109
     100       0       0       1       0                               0D    110
     110     208       0       0       0       0       0       001010001D    111
     110       0       0       1       0                               0D    112
     124     209       0       0       0       0       0       001020001D    113
     124       0       0       1       0                               0D    114
     100     210       0       0       0       0     113       001010001D    115
     100       0       0       1       0                               0D    116
     110     211       0       0       0       0       0       001010001D    117
     110       0       0       1       0                               0D    118
     102     212       0       0       0       0       0       001010001D    119
     102       0       0       1       0                               0D    120
     142     213       0       0       0       0       0       001010001D    121
     142       0       0       1       0                               0D    122
     126     214       0       0       0       0       0       001010001D    123
     126       0       0       9       0                               0D    124
     126     223       0       0       0       0       0       001010001D    125
     126       0       0       9       0                               0D    126
     102     232       0       0       0       0       0       001010001D    127
     102       0       0       1       0                               0D    128
     142     233       0       0       0       0       0       001010001D    129
     142       0       0       1       0                               0D    130
     126     234       0       0       0       0       0       001010001D    131
     126       0       0       9       0                               0D    132
     126     243       0       0       0       0       0       001010001D    133
     126       0       0       9       0                               0D    134
     102     252       0       0       0       0       0       001010001D    135
     102       0       0       1       0                               0D    136
     142     253       0       0       0       0       0       001010001D    137
     142       0       0       1       0                               0D    138
     144     254       0       0   10000       0       0       000000000D    139
     144       0     -91       1       0                PartBody       0D    140
     110     255       0       0       0       0       0       001010001D    141
     110       0       0       1       0                               0D    142
     110     256       0       0       0       0       0       001010001D    143
     110       0       0       1       0                               0D    144
     120     257       0       0       0       0       0       001010001D    145
     120       0      -1       1       0                               0D    146
     126     258       0       0       0       0       0       001010001D    147
     126       0       0      14       0                               0D    148
     110     272       0       0       0       0       0       001010001D    149
     110       0       0       1       0                               0D    150
     126     273       0       0       0       0       0       001010001D    151
     126       0       0      19       0                               0D    152
     110     292       0       0       0       0       0       001010001D    153
     110       0       0       1       0                               0D    154
     102     293       0       0       0       0       0       001010001D    155
     102       0       0       1       0                               0D    156
     142     294       0       0       0       0       0       001010001D    157
     142       0       0       1       0                               0D    158
     144     295       0       0   10000       0       0       000000000D    159
     144       0      -1       1       0                PartBody       0D    160
     110     296       0       0       0       0       0       001010001D    161
     110       0       0       1       0                               0D    162
     110     297       0       0       0       0       0       001010001D    163
     110       0       0       1       0                               0D    164
     120     298       0       0       0       0       0       001010001D    165
     120       0       4       1       0                               0D    166
     110     299       0       0       0       0       0       001010001D    167
     110       0       0       1       0                               0D    168
     124     300       0       0       0       0       0       001020001D    169
     124       0       0       2       0                               0D    170
     100     302       0       0       0       0     169       001010001D    171
     100       0       0       1       0                               0D    172
     126     303       0       0       0       0       0       001010001D    173
     126       0       0      20       0                               0D    174
     124     323       0       0       0       0       0       001020001D    175
     124       0       0       2       0                               0D    176
     100     325       0       0       0       0     175       001010001D    177
     100       0       0       1       0                               0D    178
     110     326       0       0       0       0       0       001010001D    179
     110       0       0       1       0                               0D    180
     124     327       0       0       0       0       0       001020001D    181
     124       0       0       1       0                               0D    182
     100     328       0       0       0       0     181       001010001D    183
     100       0       0       1       0                               0D    184
     110     329       0       0       0       0       0       001010001D    185
     110       0       0       1       0                               0D    186
     124     330       0       0       0       0       0       001020001D    187
     124       0       0       1       0                               0D    188
     100     331       0       0       0       0     187       001010001D    189
     100       0       0       1       0                               0D    190
     110     332       0       0       0       0       0       001010001D    191
     110       0       0       1       0                               0D    192
     126     333       0       0       0       0       0       001010001D    193
     126       0       0      19       0                               0D    194
     102     352       0       0       0       0       0       001010001D    195
     102       0       0       1       0                               0D    196
     142     353       0       0       0       0       0       001010001D    197
     142       0       0       1       0                               0D    198
     144     354       0       0   10000       0       0       000000000D    199
     144       0       4       1       0                PartBody       0D    200
     110     355       0       0       0       0       0       001010001D    201
     110       0       0       1       0                               0D    202
     110     356       0       0       0       0       0       001010001D    203
     110       0       0       2       0                               0D    204
     120     358       0       0       0       0       0       001010001D    205
     120       0      -1       1       0                               0D    206
     124     359       0       0       0       0       0       001020001D    207
     124       0       0       2       0                               0D    208
     100     361       0       0       0       0     207       001010001D    209
     100       0       0       1       0                               0D    210
     126     362       0       0       0       0       0       001010001D    211
     126       0       0      14       0                               0D    212
     124     376       0       0       0       0       0       001020001D    213
     124       0       0       3       0                               0D    214
     100     379       0       0       0       0     213       001010001D    215
     100       0       0       1       0                               0D    216
     110     380       0       0       0       0       0       001010001D    217
     110       0       0       2       0                               0D    218
     124     382       0       0       0       0       0       001020001D    219
     124       0       0       2       0                               0D    220
     100     384       0       0       0       0     219       001010001D    221
     100       0       0       1       0                               0D    222
     126     385       0       0       0       0       0       001010001D    223
     126       0       0      20       0                               0D    224
     124     405       0       0       0       0       0       001020001D    225
     124       0       0       3       0                               0D    226
     100     408       0       0       0       0     225       001010001D    227
     100       0       0       1       0                               0D    228
     110     409       0       0       0       0       0       001010001D    229
     110       0       0       2       0                               0D    230
     102     411       0       0       0       0       0       001010001D    231
     102       0       0       1       0                               0D    232
     142     412       0       0       0       0       0       001010001D    233
     142       0       0       1       0                               0D    234
     144     413       0       0   10000       0       0       000000000D    235
     144       0      -1       1       0                PartBody       0D    236
     108     414       0       0       0       0       0       001010001D    237
     108       0     -91       1       0                               0D    238
     124     415       0       0       0       0       0       001020001D    239
     124       0       0       1       0                               0D    240
     100     416       0       0       0       0     239       001010001D    241
     100       0       0       1       0                               0D    242
     124     417       0       0       0       0       0       001020001D    243
     124       0       0       1       0                               0D    244
     100     418       0       0       0       0     243       001010001D    245
     100       0       0       1       0                               0D    246
     102     419       0       0       0       0       0       001010001D    247
     102       0       0       1       0                               0D    248
     142     420       0       0       0       0       0       001010001D    249
     142       0       0       1       0                               0D    250
     124     421       0       0       0       0       0       001020001D    251
     124       0       0       1       0                               0D    252
     100     422       0       0       0       0     251       001010001D    253
     100       0       0       1       0                               0D    254
     124     423       0       0       0       0       0       001020001D    255
     124       0       0       1       0                               0D    256
     100     424       0       0       0       0     255       001010001D    257
     100       0       0       1       0                               0D    258
     102     425       0       0       0       0       0       001010001D    259
     102       0       0       1       0                               0D    260
     142     426       0       0       0       0       0       001010001D    261
     142       0       0       1       0                               0D    262
     144     427       0       0   10000       0       0       000000000D    263
     144       0     -91       1       0                PartBody       0D    264
     108     428       0       0       0       0       0       001010001D    265
     108       0     -91       1       0                               0D    266
     124     429       0       0       0       0       0       001020001D    267
     124       0       0       1       0                               0D    268
     100     430       0       0       0       0     267       001010001D    269
     100       0       0       1       0                               0D    270
     124     431       0       0       0       0       0       001020001D    271
     124       0       0       1       0                               0D    272
     100     432       0       0       0       0     271       001010001D    273
     100       0       0       1       0                               0D    274
     102     433       0       0       0       0       0       001010001D    275
     102       0       0       1       0                               0D    276
     142     434       0       0       0       0       0       001010001D    277
     142       0       0       1       0                               0D    278
     124     435       0       0       0       0       0       001020001D    279
     124       0       0       1       0                               0D    280
     100     436       0       0       0       0     279       001010001D    281
     100       0       0       1       0                               0D    282
     124     437       0       0       0       0       0       001020001D    283
     124       0       0       1       0                               0D    284
     100     438       0       0       0       0     283       001010001D    285
     100       0       0       1       0                               0D    286
     102     439       0       0       0       0       0       001010001D    287
     102       0       0       1       0                               0D    288
     142     440       0       0       0       0       0       001010001D    289
     142       0       0       1       0                               0D    290
     144     441       0       0   10000       0       0       000000000D    291
     144       0     -91       1       0                PartBody       0D    292
     110     442       0       0       0       0       0       001010001D    293
     110       0       0       1       0                               0D    294
     110     443       0       0       0       0       0       001010001D    295
     110       0       0       1       0                               0D    296
     120     444       0       0       0       0       0       001010001D    297
     120       0      -1       1       0                               0D    298
     110     445       0       0       0       0       0       001010001D    299
     110       0       0       1       0                               0D    300
     126     446       0       0       0       0       0       001010001D    301
     126       0       0      12       0                               0D    302
     110     458       0       0       0       0       0       001010001D    303
     110       0       0       2       0                               0D    304
     126     460       0       0       0       0       0       001010001D    305
     126       0       0      12       0                               0D    306
     102     472       0       0       0       0       0       001010001D    307
     102       0       0       1       0                               0D    308
     142     473       0       0       0       0       0       001010001D    309
     142       0       0       1       0                               0D    310
     144     474       0       0   10000       0       0       000000000D    311
     144       0      -1       1       0                PartBody       0D    312
     110     475       0       0       0       0       0       001010001D    313
     110       0       0       1       0                               0D    314
     110     476       0       0       0       0       0       001010001D    315
     110       0       0       2       0                               0D    316
     120     478       0       0       0       0       0       001010001D    317
     120       0      -1       1       0                               0D    318
     110     479       0       0       0       0       0       001010001D    319
     110       0       0       2       0                               0D    320
     126     481       0       0       0       0       0       001010001D    321
     126       0       0      12       0                               0D    322
     110     493       0       0       0       0       0       001010001D    323
     110       0       0       1       0                               0D    324
     126     494       0       0       0       0       0       001010001D    325
     126       0       0      11       0                               0D    326
     102     505       0       0       0       0       0       001010001D    327
     102       0       0       1       0                               0D    328
     142     506       0       0       0       0       0       001010001D    329
     142       0       0       1       0                               0D    330
     144     507       0       0   10000       0       0       000000000D    331
     144       0      -1       1       0                PartBody       0D    332
     110     508       0       0       0       0       0       001010001D    333
     110       0       0       1       0                               0D    334
     110     509       0       0       0       0       0       001010001D    335
     110       0       0       1       0                               0D    336
     120     510       0       0       0       0       0       001010001D    337
     120       0     -91       1       0                               0D    338
     126     511       0       0       0       0       0       001010001D    339
     126       0       0      20       0                               0D    340
     110     531       0       0       0       0       0       001010001D    341
     110       0       0       1       0                               0D    342
     124     532       0       0       0       0       0       001020001D    343
     124       0       0       1       0                               0D    344
     100     533       0       0       0       0     343       001010001D    345
     100       0       0       1       0                               0D    346
     110     534       0       0       0       0       0       001010001D    347
     110       0       0       1       0                               0D    348
     124     535       0       0       0       0       0       001020001D    349
     124       0       0       1       0                               0D    350
     100     536       0       0       0       0     349       001010001D    351
     100       0       0       1       0                               0D    352
     110     537       0       0       0       0       0       001010001D    353
     110       0       0       1       0                               0D    354
     124     538       0       0       0       0       0       001020001D    355
     124       0       0       2       0                               0D    356
     100     540       0       0       0       0     355       001010001D    357
     100       0       0       1       0                               0D    358
     126     541       0       0       0       0       0       001010001D    359
     126       0       0      20       0                               0D    360
     124     561       0       0       0       0       0       001020001D    361
     124       0       0       2       0                               0D    362
     100     563       0       0       0       0     361       001010001D    363
     100       0       0       1       0                               0D    364
     110     564       0       0       0       0       0       001010001D    365
     110       0       0       1       0                               0D    366
     102     565       0       0       0       0       0       001010001D    367
     102       0       0       1       0                               0D    368
     142     566       0       0       0       0       0       001010001D    369
     142       0       0       1       0                               0D    370
     144     567       0       0   10000       0       0       000000000D    371
     144       0     -91       1       0                PartBody       0D    372
     110     568       0       0       0       0       0       001010001D    373
     110       0       0       1       0                               0D    374
     110     569       0       0       0       0       0       001010001D    375
     110       0       0       2       0                               0D    376
     120     571       0       0       0       0       0       001010001D    377
     120       0      -1       1       0                               0D    378
     126     572       0       0       0       0       0       001010001D    379
     126       0       0      14       0                               0D    380
     110     586       0       0       0       0       0       001010001D    381
     110       0       0       1       0                               0D    382
     126     587       0       0       0       0       0       001010001D    383
     126       0       0      19       0                               0D    384
     110     606       0       0       0       0       0       001010001D    385
     110       0       0       1       0                               0D    386
     102     607       0       0       0       0       0       001010001D    387
     102       0       0       1       0                               0D    388
     142     608       0       0       0       0       0       001010001D    389
     142       0       0       1       0                               0D    390
     144     609       0       0   10000       0       0       000000000D    391
     144       0      -1       1       0                PartBody       0D    392
     110     610       0       0       0       0       0       001010001D    393
     110       0       0       1       0                               0D    394
     110     611       0       0       0       0       0       001010001D    395
     110       0       0       2       0                               0D    396
     120     613       0       0       0       0       0       001010001D    397
     120       0      -1       1       0                               0D    398
     126     614       0       0       0       0       0       001010001D    399
     126       0       0      15       0                               0D    400
     110     629       0       0       0       0       0       001010001D    401
     110       0       0       2       0                               0D    402
     126     631       0       0       0       0       0       001010001D    403
     126       0       0      20       0                               0D    404
     110     651       0       0       0       0       0       001010001D    405
     110       0       0       2       0                               0D    406
     102     653       0       0       0       0       0       001010001D    407
     102       0       0       1       0                               0D    408
     142     654       0       0       0       0       0       001010001D    409
     142       0       0       1       0                               0D    410
     144     655       0       0   10000       0       0       000000000D    411
     144       0      -1       1       0                PartBody       0D    412
314,100.0,88.23529412,0.0,5HColor,0,0;                                 1P      1
110,53.0,0.0,7.9375,53.0,0.0,6.9375,0,0;                               3P      2
110,51.7705,-3.863154931E-012,7.95149118,51.7705,                      5P      3
-3.863154931E-012,4.59097628,0,0;                                      5P      4
120,3,5,0.0,6.283185307,0,0;                                           7P      5
126,11,5,0,0,1,0,0.0,0.0,0.0,0.0,0.0,0.0,2.755478231,                  9P      6
2.755478231,2.755478231,4.207740988,4.207740988,4.207740988,           9P      7
5.660003745,5.660003745,5.660003745,5.660003745,5.660003745,           9P      8
5.660003745,1.0,1.0,1.0,1.0,1.0,1.0,1.0,1.0,1.0,1.0,1.0,1.0,           9P      9
51.7705,0.0,7.937498862,51.7705,0.3792005099,7.937493971,              9P     10
51.91669055,0.7583688344,7.914839438,52.20884479,1.05943549,           9P     11
7.868521313,52.78033607,1.300385477,7.8305483,53.36290875,             9P     12
1.200657051,7.846224282,53.54971637,1.125763723,7.857949177,           9P     13
53.88173547,0.911002582,7.887955213,54.1076867,0.5855503785,           9P     14
7.918686211,54.18888963,0.3997216251,7.931209532,54.2295,              9P     15
0.1998608393,7.9375,54.2295,0.0,7.9375,0.0,5.660003745,0.0,0.0,        9P     16
0.0,0,0;                                                               9P     17
110,54.2295,0.0,7.9375,54.2295,0.0,4.762499999,0,0;                   11P     18
126,11,5,0,0,1,0,0.0,0.0,0.0,0.0,0.0,0.0,1.722092613,                 13P     19
1.722092613,1.722092613,3.692826908,3.692826908,3.692826908,          13P     20
5.657745735,5.657745735,5.657745735,5.657745735,5.657745735,          13P     21
5.657745735,1.0,1.0,1.0,1.0,1.0,1.0,1.0,1.0,1.0,1.0,1.0,1.0,          13P     22
54.2295,0.0,4.762499999,54.2295,0.2368859505,4.762499999,             13P     23
54.17244942,0.473771717,4.747771626,54.05885731,0.6899558313,         13P     24
4.717890477,53.71661625,1.077762213,4.645142748,53.22354206,          13P     25
1.255615743,4.594477759,52.94887691,1.274615008,4.588345241,          13P     26
52.40111025,1.157362786,4.624422724,51.9924946,0.7804821636,          13P     27
4.704272549,51.84475804,0.5404619212,4.743317118,51.7705,             13P     28
0.2702595238,4.762492384,51.7705,0.0,4.762497761,0.0,                 13P     29
5.657745735,0.0,0.0,0.0,0,0;                                          13P     30
110,51.7705,0.0,4.762497761,51.7705,0.0,7.937498862,0,0;              15P     31
102,4,9,11,13,15,0,0;                                                 17P     32
142,0,7,0,17,2,0,0;                                                   19P     33
144,7,1,0,19,0,0;                                                     21P     34
110,53.0,0.0,7.9375,53.0,0.0,6.9375,0,0;                              23P     35
110,54.2295,0.0,7.954337602,54.2295,0.0,4.583096568,0,0;              25P     36
120,23,25,0.0,6.283185307,0,0;                                        27P     37
126,11,5,0,0,1,0,0.0,0.0,0.0,0.0,0.0,0.0,2.364876415,                 29P     38
2.364876415,2.364876415,3.943498711,3.943498711,3.943498711,          29P     39
5.632484898,5.632484898,5.632484898,5.632484898,5.632484898,          29P     40
5.632484898,1.0,1.0,1.0,1.0,1.0,1.0,1.0,1.0,1.0,1.0,1.0,1.0,          29P     41
54.2295,0.0,7.9375,54.2295,-0.324935777,7.9375,54.1221563,            29P     42
-0.6498714143,7.920872695,53.90630398,-0.926924817,7.887167093,       29P     43
53.4268441,-1.23372948,7.84225171,52.87248234,-1.252304659,           29P     44
7.837781591,52.65517079,-1.210522837,7.845087872,52.23477874,         29P     45
-1.026705245,7.873644882,51.93479008,-0.678358423,7.91176499,         29P     46
51.82525082,-0.4641365617,7.929022172,51.7705,-0.2320622887,          29P     47
7.937501855,51.7705,0.0,7.937498862,0.0,5.632484898,0.0,0.0,0.0,      29P     48
0,0;                                                                  29P     49
110,51.7705,0.0,7.937498862,51.7705,0.0,4.762497761,0,0;              31P     50
126,11,5,0,0,1,0,0.0,0.0,0.0,0.0,0.0,0.0,1.70195245,1.70195245,       33P     51
1.70195245,3.248646221,3.248646221,3.248646221,5.582139766,           33P     52
5.582139766,5.582139766,5.582139766,5.582139766,5.582139766,1.0,      33P     53
1.0,1.0,1.0,1.0,1.0,1.0,1.0,1.0,1.0,1.0,1.0,51.7705,0.0,              33P     54
4.762497761,51.7705,-0.2370203803,4.762502477,51.82761535,            33P     55
-0.4740834625,4.747762741,51.9417491,-0.6910006135,4.717817087,       33P     56
52.2470501,-1.036183602,4.653056207,52.67181902,-1.214559581,         33P     57
4.605751314,52.88710241,-1.253391969,4.594241882,53.44008702,         33P     58
-1.228588027,4.602798733,53.91327006,-0.9191417608,4.67923429,        33P     59
54.12211047,-0.6500099003,4.734775982,54.2295,-0.3250051402,          33P     60
4.762499999,54.2295,0.0,4.762499999,0.0,5.582139766,0.0,0.0,0.0,      33P     61
0,0;                                                                  33P     62
110,54.2295,0.0,4.762499999,54.2295,0.0,7.9375,0,0;                   35P     63
102,4,29,31,33,35,0,0;                                                37P     64
142,0,27,0,37,2,0,0;                                                  39P     65
144,27,1,0,39,0,0;                                                    41P     66
110,-2.0,0.0,0.0,-1.0,0.0,0.0,0,0;                                    43P     67
110,-63.0,4.7625,0.0,63.0,4.7625,0.0,0,0;                             45P     68
120,43,45,0.0,6.283185307,0,0;                                        47P     69
110,-56.3235,4.7625,0.0,-63.0,4.7625,0.0,0,0;                         49P     70
124,0.0,0.0,1.0,-63.0,1.0,0.0,0.0,0.0,0.0,1.0,0.0,0.0,0,0;            51P     71
100,0.0,0.0,0.0,4.7625,0.0,-4.7625,0.0,0,0;                           53P     72
110,-63.0,-4.7625,0.0,63.0,-4.7625,0.0,0,0;                           55P     73
124,0.0,0.0,-1.0,63.0,-1.0,0.0,0.0,0.0,0.0,1.0,0.0,0.0,0,0;           57P     74
100,0.0,0.0,0.0,4.7625,0.0,-4.7625,0.0,0,0;                           59P     75
110,63.0,4.7625,0.0,56.32335429,4.7625,0.0,0,0;                       61P     76
126,20,5,0,0,1,0,0.0,0.0,0.0,0.0,0.0,0.0,2.495496806,                 63P     77
2.495496806,2.495496806,5.134354776,5.134354776,5.134354776,          63P     78
6.904734796,6.904734796,6.904734796,10.31765834,10.31765834,          63P     79
10.31765834,12.94936097,12.94936097,12.94936097,15.30278994,          63P     80
15.30278994,15.30278994,15.30278994,15.30278994,15.30278994,1.0,      63P     81
1.0,1.0,1.0,1.0,1.0,1.0,1.0,1.0,1.0,1.0,1.0,1.0,1.0,1.0,1.0,1.0,      63P     82
1.0,1.0,1.0,1.0,56.32335429,4.7625,0.0,56.32006223,4.7625,            63P     83
0.351548677,56.27028609,4.730062606,0.7026612959,56.17396316,         63P     84
4.665277419,1.040685183,55.89563382,4.481106369,1.689513707,          63P     85
55.47453097,4.224980937,2.228117824,55.22637033,4.083300045,          63P     86
2.472243092,54.76511296,3.845758907,2.823452445,54.22949505,          63P     87
3.643774904,3.070227246,54.00212877,3.571993406,3.151765523,          63P     88
53.30745101,3.408531334,3.329881722,52.55759919,3.413918821,          63P     89
3.318036169,52.08008753,3.524623071,3.212320339,51.32071575,          63P     90
3.79605627,2.906274128,50.702813,4.122495431,2.407240125,             63P     91
50.46165589,4.262588988,2.156302868,50.06662177,4.505961572,          63P     92
1.619858664,49.80989567,4.676108075,0.9824559668,49.72419708,         63P     93
4.733650777,0.6626824143,49.67975036,4.7625,0.3315351233,             63P     94
49.67664571,4.7625,0.0,0.0,15.30278994,0.0,0.0,0.0,0,0;               63P     95
110,49.67664571,4.7625,0.0,-49.6765,4.7625,0.0,0,0;                   65P     96
126,20,5,0,0,1,0,0.0,0.0,0.0,0.0,0.0,0.0,2.352024012,                 67P     97
2.352024012,2.352024012,4.986592968,4.986592968,4.986592968,          67P     98
8.398708865,8.398708865,8.398708865,10.15569439,10.15569439,          67P     99
10.15569439,12.8027947,12.8027947,12.8027947,15.41453136,             67P    100
15.41453136,15.41453136,15.41453136,15.41453136,15.41453136,1.0,      67P    101
1.0,1.0,1.0,1.0,1.0,1.0,1.0,1.0,1.0,1.0,1.0,1.0,1.0,1.0,1.0,1.0,      67P    102
1.0,1.0,1.0,1.0,-49.6765,4.7625,0.0,-49.6765,4.7625,                  67P    103
0.3313235806,-49.71778754,4.733687581,0.6626464753,-49.8003856,       67P    104
4.676077353,0.9829974939,-50.05097891,4.505176597,1.622812422,        67P    105
-50.44047207,4.259670832,2.162579808,-50.67899203,4.117907881,        67P    106
2.415585365,-51.29044032,3.786608377,2.919489179,-52.04388371,        67P    107
3.506714858,3.232541222,-52.51832213,3.388813787,3.343763026,         67P    108
-53.26635393,3.374149443,3.364392263,-53.96212282,3.533208676,        67P    109
3.195030471,-54.18895798,3.603749221,3.116921486,-54.72725947,        67P    110
3.805101177,2.87755845,-55.19177976,4.045271633,2.533749773,          67P    111
-55.44317767,4.189951504,2.293040905,-55.88035101,4.458972786,        67P    112
1.749551446,-56.1705581,4.655836388,1.089163232,-56.27259103,         67P    113
4.72697329,0.7358164343,-56.3235,4.7625,0.367908635,-56.3235,         67P    114
4.7625,0.0,0.0,15.41453136,0.0,0.0,0.0,0,0;                           67P    115
102,8,49,53,55,59,61,63,65,67,0,0;                                    69P    116
142,0,47,0,69,2,0,0;                                                  71P    117
126,8,5,0,0,1,0,0.0,0.0,0.0,0.0,0.0,0.0,2.356544951,2.356544951,      73P    118
2.356544951,5.641851948,5.641851948,5.641851948,5.641851948,          73P    119
5.641851948,5.641851948,1.0,1.0,1.0,1.0,1.0,1.0,1.0,1.0,1.0,          73P    120
51.7705,0.0,4.7625,51.7705,0.3241247758,4.7625,51.87730825,           73P    121
0.6481654339,4.734926018,52.08783953,0.9215968821,4.678642758,        73P    122
52.76832787,1.363399517,4.569483377,53.6121466,1.220350241,           73P    123
4.599786205,54.02186612,0.9038280764,4.708896575,54.2295,             73P    124
0.4519170832,4.7625,54.2295,0.0,4.7625,0.0,5.641851948,0.0,0.0,       73P    125
0.0,0,0;                                                              73P    126
126,11,5,0,0,1,0,0.0,0.0,0.0,0.0,0.0,0.0,2.326346856,                 75P    127
2.326346856,2.326346856,3.478646773,3.478646773,3.478646773,          75P    128
5.570375827,5.570375827,5.570375827,5.570375827,5.570375827,          75P    129
5.570375827,1.0,1.0,1.0,1.0,1.0,1.0,1.0,1.0,1.0,1.0,1.0,1.0,          75P    130
54.2295,0.0,4.7625,54.2295,-0.3240097611,4.7625,54.12276737,          75P    131
-0.6480163231,4.734945584,53.91152983,-0.9202788984,4.67894855,       75P    132
53.48717771,-1.197237601,4.610551205,52.99869265,-1.245404707,        75P    133
4.596668344,52.83583447,-1.234477503,4.599771076,52.39111298,         75P    134
-1.129619189,4.628534837,52.02763949,-0.8364140335,4.695115202,       75P    135
51.85677163,-0.5826659993,4.740227825,51.7705,-0.2913022252,          75P    136
4.7625,51.7705,0.0,4.7625,0.0,5.570375827,0.0,0.0,0.0,0,0;            75P    137
102,2,73,75,0,0;                                                      77P    138
142,0,47,0,77,2,0,0;                                                  79P    139
126,8,5,0,0,1,0,0.0,0.0,0.0,0.0,0.0,0.0,3.285302413,3.285302413,      81P    140
3.285302413,5.641847461,5.641847461,5.641847461,5.641847461,          81P    141
5.641847461,5.641847461,1.0,1.0,1.0,1.0,1.0,1.0,1.0,1.0,1.0,          81P    142
-54.2295,0.0,4.7625,-54.2295,0.4519165084,4.7625,-54.02186665,        81P    143
0.9038239908,4.708896711,-53.61214841,1.220349119,4.599786462,        81P    144
-52.76832723,1.363401239,4.569482961,-52.08784037,0.9215945553,       81P    145
4.678643334,-51.87731265,0.6481614708,4.734926396,-51.77050269,       81P    146
0.324122355,4.762500068,-51.77050073,-1.006254439E-006,4.7625,        81P    147
0.0,5.641847461,0.0,0.0,0.0,0,0;                                      81P    148
126,11,5,0,0,1,0,0.0,0.0,0.0,0.0,0.0,0.0,2.091726942,                 83P    149
2.091726942,2.091726942,3.244026193,3.244026193,3.244026193,          83P    150
5.570374258,5.570374258,5.570374258,5.570374258,5.570374258,          83P    151
5.570374258,1.0,1.0,1.0,1.0,1.0,1.0,1.0,1.0,1.0,1.0,1.0,1.0,          83P    152
-51.77050073,-1.006254439E-006,4.7625,-51.77049896,                   83P    153
-0.2913017341,4.762499938,-51.85676849,-0.5826641238,                 83P    154
4.740227931,-52.02764014,-0.8364133422,4.695115353,-52.39111314,      83P    155
-1.129619184,4.628534842,-52.8358338,-1.234477408,4.5997711,          83P    156
-52.99869209,-1.245404674,4.596668354,-53.48717698,-1.197237853,      83P    157
4.610551133,-53.9115292,-0.920279569,4.678948402,-54.12276719,        83P    158
-0.6480153766,4.734945539,-54.2295,-0.3240100254,4.7625,              83P    159
-54.2295,0.0,4.7625,0.0,5.570374258,0.0,0.0,0.0,0,0;                  83P    160
102,2,81,83,0,0;                                                      85P    161
142,0,47,0,85,2,0,0;                                                  87P    162
144,47,1,2,71,79,87,0,0;                                              89P    163
314,20.0,20.0,20.0,5HColor,0,0;                                       91P    164
110,0.0,0.0,0.0,1.0,0.0,0.0,0,0;                                      93P    165
110,-63.0,7.9375,0.0,63.0,7.9375,0.0,0,0;                             95P    166
120,93,95,0.0,6.283185307,0,0;                                        97P    167
126,20,5,0,0,1,0,0.0,0.0,0.0,0.0,0.0,0.0,2.505962611,                 99P    168
2.505962611,2.505962611,5.084528123,5.084528123,5.084528123,          99P    169
7.551269678,7.551269678,7.551269678,10.0183109,10.0183109,            99P    170
10.0183109,12.59647001,12.59647001,12.59647001,15.0730679,            99P    171
15.0730679,15.0730679,15.0730679,15.0730679,15.0730679,1.0,1.0,       99P    172
1.0,1.0,1.0,1.0,1.0,1.0,1.0,1.0,1.0,1.0,1.0,1.0,1.0,1.0,1.0,1.0,      99P    173
1.0,1.0,1.0,-56.3235,7.9375,0.0,-56.3235,7.9375,0.3512230582,         99P    174
-56.27710405,7.918073601,0.7024455593,-56.18473698,7.879226017,       99P    175
1.043418188,-55.91083527,7.769189243,1.6986069,-55.48004051,          99P    176
7.618340952,2.255117349,-55.22580094,7.537184662,2.505967306,         99P    177
-54.66973019,7.384271173,2.925965366,-54.01821797,7.269148195,        99P    178
3.191545985,-53.68170629,7.228079523,3.280398971,-52.99014488,        99P    179
7.187493745,3.368426251,-52.29897701,7.229852229,3.276554152,         99P    180
-51.9620529,7.27195682,3.185241049,-51.31200121,7.388135783,          99P    181
2.916463538,-50.75820928,7.541583056,2.492955261,-50.50635477,        99P    182
7.622792545,2.240285018,-50.08222826,7.772230532,1.684283935,         99P    183
-49.81247853,7.880512313,1.031904206,-49.72181502,7.918526208,        99P    184
0.6942143637,-49.6765,7.9375,0.3471074467,-49.6765,7.9375,0.0,        99P    185
0.0,15.0730679,0.0,0.0,0.0,0,0;                                       99P    186
110,-49.6765,7.9375,0.0,49.67664571,7.9375,0.0,0,0;                  101P    187
126,17,5,0,0,1,0,0.0,0.0,0.0,0.0,0.0,0.0,2.476894885,                103P    188
2.476894885,2.476894885,5.053306429,5.053306429,5.053306429,         103P    189
7.51973198,7.51973198,7.51973198,9.989978153,9.989978153,            103P    190
9.989978153,14.97586583,14.97586583,14.97586583,14.97586583,         103P    191
14.97586583,14.97586583,1.0,1.0,1.0,1.0,1.0,1.0,1.0,1.0,1.0,1.0,     103P    192
1.0,1.0,1.0,1.0,1.0,1.0,1.0,1.0,49.67664571,7.9375,0.0,              103P    193
49.67989699,7.9375,0.3471933421,49.7284877,7.918516816,              103P    194
0.6939615757,49.82236331,7.880579115,1.030884017,50.09826597,        103P    195
7.772843702,1.680678693,50.52780229,7.624857712,2.23279155,          103P    196
50.78210023,7.544693265,2.483102533,51.340211,7.393825671,           103P    197
2.901514186,51.99315773,7.281073252,3.164125178,52.33106455,         103P    198
7.240813731,3.252145349,53.02380141,7.201998407,3.337303166,         103P    199
53.71480728,7.245298167,3.242307458,54.05080138,7.287378083,         103P    200
3.149917489,55.00949278,7.458860941,2.747569118,55.7569159,          103P    201
7.708221246,2.009597596,56.12654947,7.86058007,1.396049282,          103P    202
56.31680961,7.9375,0.6988859382,56.32335429,7.9375,0.0,0.0,          103P    203
14.97586583,0.0,0.0,0.0,0,0;                                         103P    204
110,56.32335429,7.937438989,0.0,63.0,7.9375,0.0,0,0;                 105P    205
124,0.0,0.0,1.0,63.0,1.0,0.0,0.0,0.0,0.0,1.0,0.0,0.0,0,0;            107P    206
100,0.0,0.0,0.0,7.9375,0.0,-7.9375,0.0,0,0;                          109P    207
110,63.0,-7.9375,0.0,-63.0,-7.9375,0.0,0,0;                          111P    208
124,0.0,0.0,-1.0,-63.0,-1.0,0.0,0.0,0.0,0.0,1.0,0.0,0.0,0,0;         113P    209
100,0.0,0.0,0.0,7.9375,0.0,-7.9375,0.0,0,0;                          115P    210
110,-63.0,7.9375,0.0,-56.3235,7.9375,0.0,0,0;                        117P    211
102,8,99,101,103,105,109,111,115,117,0,0;                            119P    212
142,0,97,0,119,2,0,0;                                                121P    213
126,8,5,0,0,1,0,0.0,0.0,0.0,0.0,0.0,0.0,3.263510088,3.263510088,     123P    214
3.263510088,5.630693742,5.630693742,5.630693742,5.630693742,         123P    215
5.630693742,5.630693742,1.0,1.0,1.0,1.0,1.0,1.0,1.0,1.0,1.0,         123P    216
51.7705,0.0,7.9375,51.7705,-0.4483977924,7.9375,51.97491285,         123P    217
-0.8968341306,7.905836917,52.38505426,-1.215756481,7.841871538,      123P    218
53.22242335,-1.364855086,7.822707147,53.90670404,-0.9261727605,      123P    219
7.886777538,54.12194673,-0.6505025137,7.920840255,54.2295,           123P    220
-0.3252527933,7.9375,54.2295,0.0,7.9375,0.0,5.630693742,0.0,0.0,     123P    221
0.0,0,0;                                                             123P    222
126,8,5,0,0,1,0,0.0,0.0,0.0,0.0,0.0,0.0,3.258463243,3.258463243,     125P    223
3.258463243,5.621798516,5.621798516,5.621798516,5.621798516,         125P    224
5.621798516,5.621798516,1.0,1.0,1.0,1.0,1.0,1.0,1.0,1.0,1.0,         125P    225
54.2295,0.0,7.9375,54.2295,0.4484306957,7.9375,54.0250571,           125P    226
0.8968555383,7.905832269,53.6151199,1.215665714,7.84188661,          125P    227
52.77727859,1.364917687,7.822695579,52.092911,0.9262723562,          125P    228
7.886764737,51.87804146,0.6504437478,7.920842076,51.7705,            125P    229
0.3252350166,7.9375,51.7705,0.0,7.9375,0.0,5.621798516,0.0,0.0,      125P    230
0.0,0,0;                                                             125P    231
102,2,123,125,0,0;                                                   127P    232
142,0,97,0,127,2,0,0;                                                129P    233
126,8,5,0,0,1,0,0.0,0.0,0.0,0.0,0.0,0.0,2.363336222,2.363336222,     131P    234
2.363336222,5.621789438,5.621789438,5.621789438,5.621789438,         131P    235
5.621789438,5.621789438,1.0,1.0,1.0,1.0,1.0,1.0,1.0,1.0,1.0,         131P    236
-51.77050073,-5.232360174E-007,7.9375,-51.77050337,0.3252339273,     131P    237
7.937500021,-51.87805024,0.6504409662,7.920842177,-52.09291469,      131P    238
0.926271206,7.886764932,-52.77727908,1.364919759,7.822695246,        131P    239
-53.61512313,1.215663503,7.841886959,-54.02505807,0.8968503815,      131P    240
7.90583242,-54.2295,0.4484296276,7.9375,-54.2295,0.0,7.9375,0.0,     131P    241
5.621789438,0.0,0.0,0.0,0,0;                                         131P    242
126,8,5,0,0,1,0,0.0,0.0,0.0,0.0,0.0,0.0,2.367183528,2.367183528,     133P    243
2.367183528,5.630692661,5.630692661,5.630692661,5.630692661,         133P    244
5.630692661,5.630692661,1.0,1.0,1.0,1.0,1.0,1.0,1.0,1.0,1.0,         133P    245
-54.2295,0.0,7.9375,-54.2295,-0.3252527886,7.9375,-54.12194673,      133P    246
-0.6505009108,7.920840256,-53.90670524,-0.9261718754,                133P    247
7.886777667,-53.22242482,-1.364855718,7.822707059,-52.38505321,      133P    248
-1.215756269,7.841871561,-51.97491103,-0.8968340159,7.905837054,     133P    249
-51.7704971,-0.4483969256,7.93749997,-51.77050073,                   133P    250
-5.232360192E-007,7.9375,0.0,5.630692661,0.0,0.0,0.0,0,0;            133P    251
102,2,131,133,0,0;                                                   135P    252
142,0,97,0,135,2,0,0;                                                137P    253
144,97,1,2,121,129,137,0,0;                                          139P    254
110,-53.0,7.9375,0.0,-53.0,6.9375,0.0,0,0;                           141P    255
110,-49.6765,7.999859928,0.0,-49.6765,3.335681014,0.0,0,0;           143P    256
120,141,143,0.0,6.283185307,0,0;                                     145P    257
126,14,5,0,0,1,0,0.0,0.0,0.0,0.0,0.0,0.0,3.115764439,                147P    258
3.115764439,3.115764439,6.912774379,6.912774379,6.912774379,         147P    259
9.986823814,9.986823814,9.986823814,15.06614898,15.06614898,         147P    260
15.06614898,15.06614898,15.06614898,15.06614898,1.0,1.0,1.0,1.0,     147P    261
1.0,1.0,1.0,1.0,1.0,1.0,1.0,1.0,1.0,1.0,1.0,-49.6765,7.9375,0.0,     147P    262
-49.6765,7.9375,0.4366898014,-49.74822333,7.90746882,                147P    263
0.873379388,-49.89219256,7.847222067,1.291961647,-50.34842666,       147P    264
7.66866422,2.141976318,-51.06868935,7.446161239,2.779945512,         147P    265
-51.52948582,7.331427088,3.051563053,-52.45262897,7.189270186,       147P    266
3.366789623,-53.42995165,7.200792667,3.338585417,-53.85999528,       147P    267
7.241984937,3.253256454,-54.9314085,7.420665472,2.854077524,         147P    268
-55.7536141,7.698066004,2.051707057,-56.13289108,7.857690413,        147P    269
1.423784472,-56.3235,7.9375,0.7118925519,-56.3235,7.9375,0.0,        147P    270
0.0,15.06614898,0.0,0.0,0.0,0,0;                                     147P    271
110,-56.3235,7.9375,0.0,-56.3235,4.7625,0.0,0,0;                     149P    272
126,20,5,0,0,1,0,0.0,0.0,0.0,0.0,0.0,0.0,2.611725862,                151P    273
2.611725862,2.611725862,5.256438451,5.256438451,5.256438451,         151P    274
7.548850203,7.548850203,7.548850203,9.785819172,9.785819172,         151P    275
9.785819172,11.7710212,11.7710212,11.7710212,15.40579936,            151P    276
15.40579936,15.40579936,15.40579936,15.40579936,15.40579936,1.0,     151P    277
1.0,1.0,1.0,1.0,1.0,1.0,1.0,1.0,1.0,1.0,1.0,1.0,1.0,1.0,1.0,1.0,     151P    278
1.0,1.0,1.0,1.0,-56.3235,4.7625,0.0,-56.3235,4.7625,0.367907113,     151P    279
-56.27259145,4.726973582,0.7358136671,-56.1706208,4.655816016,       151P    280
1.089193349,-55.88044892,4.459071941,1.749240065,-55.44358852,       151P    281
4.190191201,2.292551076,-55.19127995,4.045001858,2.534121231,        151P    282
-54.67048656,3.775800784,2.919480602,-54.05698078,3.555361931,       151P    283
3.173578333,-53.75063928,3.471226927,3.261667768,-53.11808824,       151P    284
3.375992978,3.359671558,-52.47598264,3.429108586,3.304944829,        151P    285
-52.16926548,3.493595697,3.239734942,-51.62335335,3.659521368,       151P    286
3.057672782,-51.14333776,3.876410233,2.774886435,-50.93296304,       151P    287
3.983246379,2.621744587,-50.38267358,4.285797591,2.13368985,         151P    288
-49.9735932,4.55563021,1.497967461,-49.77510327,4.693689933,         151P    289
1.024042622,-49.6765,4.762499999,0.512021862,-49.6765,               151P    290
4.762499999,0.0,0.0,15.40579936,0.0,0.0,0.0,0,0;                     151P    291
110,-49.6765,4.7625,0.0,-49.6765,7.9375,0.0,0,0;                     153P    292
102,4,147,149,151,153,0,0;                                           155P    293
142,0,145,0,155,2,0,0;                                               157P    294
144,145,1,0,157,0,0;                                                 159P    295
110,-2.0,0.0,0.0,-1.0,0.0,0.0,0,0;                                   161P    296
110,-63.0,-4.7625,0.0,63.0,-4.7625,0.0,0,0;                          163P    297
120,161,163,0.0,6.283185307,0,0;                                     165P    298
110,-49.6765,4.7625,0.0,49.67664571,4.7625,0.0,0,0;                  167P    299
124,3.059626876E-005,0.0,-1.0,49.6765,0.9999999995,0.0,0.0,0.0,      169P    300
0.0,-1.0,0.0,0.0,0,0;                                                169P    301
100,0.0,0.0,0.0,4.7625,0.0,4.762398313,0.03112137318,0,0;            171P    302
126,20,5,0,0,1,0,0.0,0.0,0.0,0.0,0.0,0.0,2.636607389,                173P    303
2.636607389,2.636607389,5.289346285,5.289346285,5.289346285,         173P    304
7.040291126,7.040291126,7.040291126,10.44367317,10.44367317,         173P    305
10.44367317,13.08394251,13.08394251,13.08394251,15.4378519,          173P    306
15.4378519,15.4378519,15.4378519,15.4378519,15.4378519,1.0,1.0,      173P    307
1.0,1.0,1.0,1.0,1.0,1.0,1.0,1.0,1.0,1.0,1.0,1.0,1.0,1.0,1.0,1.0,     173P    308
1.0,1.0,1.0,49.6765,4.762398315,-0.03112137318,49.6765,              173P    309
4.759971293,-0.4025203405,49.72837949,4.721339573,-0.7736730785,     173P    310
49.83221204,4.646525594,-1.129617627,50.12581544,4.442598123,        173P    311
-1.791331619,50.56661338,4.167024663,-2.334484044,50.81882771,       173P    312
4.019835364,-2.573974335,51.28359524,3.776410928,-2.915068131,       173P    313
51.82205891,3.572991205,-3.152102251,52.04821763,3.502034988,        173P    314
-3.229146327,52.74232703,3.342391722,-3.395891943,53.48839222,       173P    315
3.35904942,-3.373678697,53.9608543,3.479659101,-3.261811407,         173P    316
54.71198087,3.763973908,-2.948780552,55.32141102,4.099876461,        173P    317
-2.446279595,55.55977872,4.244003943,-2.19337695,55.94893873,        173P    318
4.493928704,-1.654019817,56.19952946,4.669415983,-1.01429533,        173P    319
56.2821491,4.72920747,-0.6940876688,56.3235,4.760231517,             173P    320
-0.3626990958,56.3235,4.762398315,-0.03112137318,0.0,15.4378519,     173P    321
0.0,0.0,0.0,0,0;                                                     173P    322
124,1.251599582E-011,0.0,1.0,56.3235,0.9999786488,                   175P    323
0.006534671532,0.0,0.0,-0.006534671532,0.9999786488,0.0,0.0,0,0;     175P    324
100,0.0,0.0,0.0,4.7625,0.0,4.762398313,0.03112137316,0,0;            177P    325
110,56.32335429,4.7625,0.0,63.0,4.7625,0.0,0,0;                      179P    326
124,0.0,0.0,-1.0,63.0,1.0,0.0,0.0,0.0,0.0,-1.0,0.0,0.0,0,0;          181P    327
100,0.0,0.0,0.0,4.7625,0.0,-4.7625,0.0,0,0;                          183P    328
110,63.0,-4.7625,0.0,-63.0,-4.7625,0.0,0,0;                          185P    329
124,0.0,0.0,1.0,-63.0,-1.0,0.0,0.0,0.0,0.0,-1.0,0.0,0.0,0,0;         187P    330
100,0.0,0.0,0.0,4.7625,0.0,-4.7625,0.0,0,0;                          189P    331
110,-63.0,4.7625,0.0,-56.3235,4.7625,0.0,0,0;                        191P    332
126,20,5,0,0,1,0,0.0,0.0,0.0,0.0,0.0,0.0,2.6117366,2.6117366,        193P    333
2.6117366,5.258839137,5.258839137,5.258839137,7.015824459,           193P    334
7.015824459,7.015824459,10.42794077,10.42794077,10.42794077,         193P    335
13.06251023,13.06251023,13.06251023,15.41453406,15.41453406,         193P    336
15.41453406,15.41453406,15.41453406,15.41453406,1.0,1.0,1.0,1.0,     193P    337
1.0,1.0,1.0,1.0,1.0,1.0,1.0,1.0,1.0,1.0,1.0,1.0,1.0,1.0,1.0,1.0,     193P    338
1.0,-56.3235,4.7625,0.0,-56.3235,4.7625,-0.367908625,                193P    339
-56.27259103,4.726973292,-0.7358165544,-56.17055843,4.655836423,     193P    340
-1.089163067,-55.88035095,4.458972778,-1.749551534,-55.44317738,     193P    341
4.189951357,-2.293041225,-55.19178051,4.045271949,-2.533749318,      193P    342
-54.7272598,3.805101322,-2.877558274,-54.18895809,3.603749258,       193P    343
-3.116921444,-53.96212294,3.533208688,-3.195030459,-53.26635395,     193P    344
3.374149435,-3.364392272,-52.51832186,3.388813774,-3.343763037,      193P    345
-52.04388372,3.506714854,-3.232541218,-51.29044033,3.786608343,      193P    346
-2.919489229,-50.67899215,4.117907915,-2.415585319,-50.44047195,     193P    347
4.259670861,-2.162579761,-50.05097903,4.505176613,-1.622812369,      193P    348
-49.80038572,4.676077342,-0.9829975072,-49.71778753,4.733687586,     193P    349
-0.6626465353,-49.6765,4.7625,-0.3313235538,-49.6765,4.7625,0.0,     193P    350
0.0,15.41453406,0.0,0.0,0.0,0,0;                                     193P    351
102,10,167,171,173,177,179,183,185,189,191,193,0,0;                  195P    352
142,0,165,0,195,2,0,0;                                               197P    353
144,165,1,0,197,0,0;                                                 199P    354
110,53.0,7.9375,-0.03112137318,53.0,6.9375,-0.03112137318,0,0;       201P    355
110,56.3235,7.99937931,-0.03112137318,56.3235,3.366983038,           203P    356
-0.03112137318,0,0;                                                  203P    357
120,201,203,0.0,6.283185307,0,0;                                     205P    358
124,1.0,0.0,0.0,53.0,0.0,0.0,-1.0,7.937438989,0.0,1.0,0.0,           207P    359
-0.03112137318,0,0;                                                  207P    360
100,0.0,0.0,0.0,3.3235,0.0,3.323354286,0.03112137318,0,0;            209P    361
126,14,5,0,0,1,0,0.0,0.0,0.0,0.0,0.0,0.0,4.9814382,4.9814382,        211P    362
4.9814382,8.05949256,8.05949256,8.05949256,11.85337505,              211P    363
11.85337505,11.85337505,14.96934718,14.96934718,14.96934718,         211P    364
14.96934718,14.96934718,14.96934718,1.0,1.0,1.0,1.0,1.0,1.0,1.0,     211P    365
1.0,1.0,1.0,1.0,1.0,1.0,1.0,1.0,56.32335429,7.9375,0.0,              211P    366
56.31681545,7.9375,0.6982622427,56.12688879,7.860717354,             211P    367
1.394806558,55.75603787,7.707931766,2.010502333,54.94797317,         211P    368
7.438429948,2.807935523,53.8931021,7.259940994,3.213294032,          211P    369
53.46350408,7.217180357,3.303083477,52.48624979,7.20117188,          211P    370
3.341047221,51.55912414,7.338203067,3.034578678,51.09548632,         211P    371
7.450565959,2.767276976,50.3688266,7.66998898,2.135905425,           211P    372
49.90455718,7.847369237,1.290273193,49.75658035,7.90745717,          211P    373
0.8728770496,49.68073587,7.9375,0.4367746018,49.67664571,7.9375,     211P    374
0.0,0.0,14.96934718,0.0,0.0,0.0,0,0;                                 211P    375
124,-0.9999561563,-0.009364035859,0.0,53.0,1.835743699E-005,0.0,     213P    376
-1.0,7.937438989,0.009364035857,-0.9999561565,0.0,                   213P    377
-0.03112137318,0,0;                                                  213P    378
100,0.0,0.0,0.0,3.3235,0.0,3.323354285,0.03112137318,0,0;            215P    379
110,49.6765,7.937438989,-0.03112137318,49.6765,4.762398314,          217P    380
-0.03112137318,0,0;                                                  217P    381
124,-1.0,0.0,0.0,53.0,0.0,0.0,1.0,4.762398314,0.0,1.0,0.0,           219P    382
-0.03112137318,0,0;                                                  219P    383
100,0.0,0.0,0.0,3.3235,0.0,3.323354284,0.03112137317,0,0;            221P    384
126,20,5,0,0,1,0,0.0,0.0,0.0,0.0,0.0,0.0,3.636905251,                223P    385
3.636905251,3.636905251,5.614700285,5.614700285,5.614700285,         223P    386
7.852815389,7.852815389,7.852815389,10.16136553,10.16136553,         223P    387
10.16136553,12.7977934,12.7977934,12.7977934,15.29326194,            223P    388
15.29326194,15.29326194,15.29326194,15.29326194,15.29326194,1.0,     223P    389
1.0,1.0,1.0,1.0,1.0,1.0,1.0,1.0,1.0,1.0,1.0,1.0,1.0,1.0,1.0,1.0,     223P    390
1.0,1.0,1.0,1.0,49.67664571,4.762499999,0.0,49.68144352,             223P    391
4.762499999,0.5123425629,49.78497247,4.693603731,1.023759461,        223P    392
49.9881873,4.555892196,1.49626272,50.40342946,4.288083759,           223P    393
2.128008765,50.95940255,3.989941367,2.611210658,51.1711328,          223P    394
3.885281983,2.76214976,51.6548525,3.673295315,3.040660769,           223P    395
52.2036379,3.513965352,3.217400167,52.51204574,3.453424294,          223P    396
3.279415506,53.15767812,3.408049617,3.327200289,53.79059475,         223P    397
3.508870705,3.221348481,54.09763875,3.594996467,3.128911776,         223P    398
54.70851142,3.816660741,2.86644789,55.22586644,4.083030605,          223P    399
2.472631245,55.47494326,4.225218142,2.227611513,55.89573318,         223P    400
4.481203068,1.689198739,56.17401493,4.665255869,1.04071433,          223P    401
56.27028721,4.730063346,0.7026535971,56.32006226,4.762499999,        223P    402
0.3515446963,56.32335429,4.762499999,0.0,0.0,15.29326194,0.0,        223P    403
0.0,0.0,0,0;                                                         223P    404
124,0.999956156,0.009364035861,0.0,53.0,3.059557887E-005,0.0,        225P    405
1.0,4.762398316,0.009364035857,-0.9999561565,0.0,-0.03112137318,     225P    406
0,0;                                                                 225P    407
100,0.0,0.0,0.0,3.3235,0.0,3.323354284,0.03112137318,0,0;            227P    408
110,56.3235,4.762398316,-0.03112137318,56.3235,7.937438989,          229P    409
-0.03112137318,0,0;                                                  229P    410
102,8,209,211,215,217,221,223,227,229,0,0;                           231P    411
142,0,205,0,231,2,0,0;                                               233P    412
144,205,1,0,233,0,0;                                                 235P    413
108,1.0,0.0,0.0,63.0,0,63.0,0.0,0.0,1.0,0,0;                         237P    414
124,0.0,0.0,-1.0,63.0,1.0,0.0,0.0,0.0,0.0,-1.0,0.0,0.0,0,0;          239P    415
100,0.0,0.0,0.0,7.9375,0.0,-7.9375,0.0,0,0;                          241P    416
124,0.0,0.0,-1.0,63.0,-1.0,0.0,0.0,0.0,0.0,1.0,0.0,0.0,0,0;          243P    417
100,0.0,0.0,0.0,7.9375,0.0,-7.9375,0.0,0,0;                          245P    418
102,2,241,245,0,0;                                                   247P    419
142,0,237,0,247,2,0,0;                                               249P    420
124,0.0,0.0,1.0,63.0,-1.0,0.0,0.0,0.0,0.0,-1.0,0.0,0.0,0,0;          251P    421
100,0.0,0.0,0.0,4.762499999,0.0,-4.762499999,0.0,0,0;                253P    422
124,0.0,0.0,1.0,63.0,1.0,0.0,0.0,0.0,0.0,1.0,0.0,0.0,0,0;            255P    423
100,0.0,0.0,0.0,4.762499999,0.0,-4.762499999,0.0,0,0;                257P    424
102,2,253,257,0,0;                                                   259P    425
142,0,237,0,259,2,0,0;                                               261P    426
144,237,1,1,249,261,0,0;                                             263P    427
108,1.0,0.0,0.0,-63.0,0,-63.0,0.0,0.0,1.0,0,0;                       265P    428
124,0.0,0.0,1.0,-63.0,1.0,0.0,0.0,0.0,0.0,1.0,0.0,0.0,0,0;           267P    429
100,0.0,0.0,0.0,7.9375,0.0,-7.9375,0.0,0,0;                          269P    430
124,0.0,0.0,1.0,-63.0,-1.0,0.0,0.0,0.0,0.0,-1.0,0.0,0.0,0,0;         271P    431
100,0.0,0.0,0.0,7.9375,0.0,-7.9375,0.0,0,0;                          273P    432
102,2,269,273,0,0;                                                   275P    433
142,0,265,0,275,2,0,0;                                               277P    434
124,0.0,0.0,-1.0,-63.0,-1.0,0.0,0.0,0.0,0.0,1.0,0.0,0.0,0,0;         279P    435
100,0.0,0.0,0.0,4.762499999,0.0,-4.762499999,0.0,0,0;                281P    436
124,0.0,0.0,-1.0,-63.0,1.0,0.0,0.0,0.0,0.0,-1.0,0.0,0.0,0,0;         283P    437
100,0.0,0.0,0.0,4.762499999,0.0,-4.762499999,0.0,0,0;                285P    438
102,2,281,285,0,0;                                                   287P    439
142,0,265,0,287,2,0,0;                                               289P    440
144,265,1,1,277,289,0,0;                                             291P    441
110,-53.0,0.0,7.9375,-53.0,0.0,8.9375,0,0;                           293P    442
110,-54.2295,0.0,4.58309696,-54.2295,0.0,7.954337568,0,0;            295P    443
120,293,295,0.0,6.283185307,0,0;                                     297P    444
110,-54.2295,0.0,7.9375,-54.2295,0.0,4.7625,0,0;                     299P    445
126,11,5,0,0,1,0,0.0,0.0,0.0,0.0,0.0,0.0,2.333439956,                301P    446
2.333439956,2.333439956,3.880147887,3.880147887,3.880147887,         301P    447
5.582099233,5.582099233,5.582099233,5.582099233,5.582099233,         301P    448
5.582099233,1.0,1.0,1.0,1.0,1.0,1.0,1.0,1.0,1.0,1.0,1.0,1.0,         301P    449
-54.2295,0.0,4.762499999,-54.2295,-0.3249977725,4.762499999,         301P    450
-54.12211534,-0.6499936807,4.734777238,-53.91325604,                 301P    451
-0.9191511633,4.679232328,-53.44007668,-1.228589768,4.602798091,     301P    452
-52.88709768,-1.253392057,4.594241831,-52.67182316,-1.214561194,     301P    453
4.60575176,-52.24705183,-1.03618566,4.653055188,-51.94174787,        301P    454
-0.6909994447,4.717811031,-51.82761526,-0.4740814971,                301P    455
4.747754954,-51.77050019,-0.2370203832,4.762499949,-51.7705,         301P    456
-1.006255031E-006,4.762499999,0.0,5.582099233,0.0,0.0,0.0,0,0;       301P    457
110,-51.77050073,-1.006254439E-006,4.7625,-51.77050073,              303P    458
-5.232360173E-007,7.9375,0,0;                                        303P    459
126,11,5,0,0,1,0,0.0,0.0,0.0,0.0,0.0,0.0,1.688987557,                305P    460
1.688987557,1.688987557,3.267620067,3.267620067,3.267620067,         305P    461
5.632499815,5.632499815,5.632499815,5.632499815,5.632499815,         305P    462
5.632499815,1.0,1.0,1.0,1.0,1.0,1.0,1.0,1.0,1.0,1.0,1.0,1.0,         305P    463
-51.7705,-5.232363306E-007,7.9375,-51.7705001,-0.232062439,          305P    464
7.937499985,-51.82525084,-0.4641360322,7.92901921,-51.93478997,      305P    465
-0.6783587859,7.911762892,-52.23478099,-1.02670746,7.873644571,      305P    466
-52.6551748,-1.210524278,7.8450879,-52.87247953,-1.252304899,        305P    467
7.837781596,-53.42684457,-1.233730073,7.842251735,-53.90630587,      305P    468
-0.9269232685,7.887167205,-54.12215599,-0.6498707646,                305P    469
7.920872647,-54.2295,-0.3249362475,7.9375,-54.2295,0.0,7.9375,       305P    470
0.0,5.632499815,0.0,0.0,0.0,0,0;                                     305P    471
102,4,299,301,303,305,0,0;                                           307P    472
142,0,297,0,307,2,0,0;                                               309P    473
144,297,1,0,309,0,0;                                                 311P    474
110,-53.0,0.0,7.9375,-53.0,0.0,8.9375,0,0;                           313P    475
110,-51.7705,-3.863154931E-012,4.59097706,-51.7705,                  315P    476
-3.863154931E-012,7.951501513,0,0;                                   315P    477
120,313,315,0.0,6.283185307,0,0;                                     317P    478
110,-51.77050073,-5.232360173E-007,7.9375,-51.77050073,              319P    479
-1.006254439E-006,4.7625,0,0;                                        319P    480
126,11,5,0,0,1,0,0.0,0.0,0.0,0.0,0.0,0.0,1.964923025,                321P    481
1.964923025,1.964923025,3.935634404,3.935634404,3.935634404,         321P    482
5.657725633,5.657725633,5.657725633,5.657725633,5.657725633,         321P    483
5.657725633,1.0,1.0,1.0,1.0,1.0,1.0,1.0,1.0,1.0,1.0,1.0,1.0,         321P    484
-51.7705,0.0,4.7625,-51.7705,0.2702590615,4.7625,-51.84475779,       321P    485
0.540462205,4.743329371,-51.99249566,0.7804836738,4.704282142,       321P    486
-52.40110959,1.157361665,4.624424889,-52.94887358,1.274613879,       321P    487
4.588344104,-53.22354591,1.255613813,4.594478302,-53.71661603,       321P    488
1.077761491,4.645143111,-54.05885656,0.6899572925,4.717890185,       321P    489
-54.17244949,0.4737705881,4.747771646,-54.2295,0.2368857894,         321P    490
4.762499999,-54.2295,0.0,4.762499999,0.0,5.657725633,0.0,0.0,        321P    491
0.0,0,0;                                                             321P    492
110,-54.2295,0.0,4.7625,-54.2295,0.0,7.9375,0,0;                     323P    493
126,11,5,0,0,1,0,0.0,0.0,0.0,0.0,0.0,0.0,1.452356995,                325P    494
1.452356995,1.452356995,2.90471399,2.90471399,2.90471399,            325P    495
5.660194045,5.660194045,5.660194045,5.660194045,5.660194045,         325P    496
5.660194045,1.0,1.0,1.0,1.0,1.0,1.0,1.0,1.0,1.0,1.0,1.0,1.0,         325P    497
-54.2295,0.0,7.9375,-54.2295,0.1998739473,7.9375,-54.18888431,       325P    498
0.3997472409,7.931208706,-54.10767123,0.5855735193,7.918684986,      325P    499
-53.88172941,0.9110014136,7.887955222,-53.54973656,1.125750076,      325P    500
7.857950367,-53.3629381,1.200651662,7.846225414,-52.78035134,        325P    501
1.30039165,7.830546301,-52.20884522,1.059436527,7.868524504,         325P    502
-51.91669023,0.7583687609,7.914855448,-51.7705,0.3792000958,         325P    503
7.9375,-51.7705,0.0,7.9375,0.0,5.660194045,0.0,0.0,0.0,0,0;          325P    504
102,4,319,321,323,325,0,0;                                           327P    505
142,0,317,0,327,2,0,0;                                               329P    506
144,317,1,0,329,0,0;                                                 331P    507
110,0.0,0.0,0.0,1.0,0.0,0.0,0,0;                                     333P    508
110,-63.0,-7.9375,0.0,63.0,-7.9375,0.0,0,0;                          335P    509
120,333,335,0.0,6.283185307,0,0;                                     337P    510
126,20,5,0,0,1,0,0.0,0.0,0.0,0.0,0.0,0.0,2.476598963,                339P    511
2.476598963,2.476598963,5.054757865,5.054757865,5.054757865,         339P    512
7.521799347,7.521799347,7.521799347,9.988540945,9.988540945,         339P    513
9.988540945,12.56710678,12.56710678,12.56710678,15.07306866,         339P    514
15.07306866,15.07306866,15.07306866,15.07306866,15.07306866,1.0,     339P    515
1.0,1.0,1.0,1.0,1.0,1.0,1.0,1.0,1.0,1.0,1.0,1.0,1.0,1.0,1.0,1.0,     339P    516
1.0,1.0,1.0,1.0,-49.6765,7.9375,0.0,-49.6765,7.9375,                 339P    517
-0.3471076019,-49.72181506,7.918526191,-0.6942144718,                339P    518
-49.81247842,7.880512366,-1.031903879,-50.08222817,7.772230577,      339P    519
-1.684283727,-50.50635436,7.622792633,-2.240284688,-50.75820867,     339P    520
7.541583166,-2.492954934,-51.31200053,7.388135871,-2.916463327,      339P    521
-51.96205257,7.271956853,-3.18524098,-52.29897698,7.229852232,       339P    522
-3.276554144,-52.99014465,7.187493759,-3.368426221,-53.68170593,     339P    523
7.228079512,-3.280398995,-54.0182178,7.269148158,-3.191546081,       339P    524
-54.66973047,7.38427123,-2.925965226,-55.22580087,7.537184656,       339P    525
-2.50596731,-55.48004024,7.618341018,-2.255117169,-55.9108348,       339P    526
7.769189349,-1.698606453,-56.18473677,7.879226078,-1.043417693,      339P    527
-56.27710407,7.918073611,-0.7024451553,-56.3235,7.9375,              339P    528
-0.3512229598,-56.3235,7.9375,0.0,0.0,15.07306866,0.0,0.0,0.0,0,     339P    529
0;                                                                   339P    530
110,-56.3235,7.9375,0.0,-63.0,7.9375,0.0,0,0;                        341P    531
124,0.0,0.0,-1.0,-63.0,1.0,0.0,0.0,0.0,0.0,-1.0,0.0,0.0,0,0;         343P    532
100,0.0,0.0,0.0,7.9375,0.0,-7.9375,0.0,0,0;                          345P    533
110,-63.0,-7.9375,0.0,63.0,-7.9375,0.0,0,0;                          347P    534
124,0.0,0.0,1.0,63.0,-1.0,0.0,0.0,0.0,0.0,-1.0,0.0,0.0,0,0;          349P    535
100,0.0,0.0,0.0,7.9375,0.0,-7.9375,0.0,0,0;                          351P    536
110,63.0,7.9375,0.0,56.32335429,7.937438989,0.0,0,0;                 353P    537
124,-1.835780559E-005,0.0,-1.0,56.3235,0.9999999998,0.0,0.0,0.0,     355P    538
0.0,-1.0,0.0,0.0,0,0;                                                355P    539
100,0.0,0.0,0.0,7.9375,0.0,7.937438988,0.03112137318,0,0;            357P    540
126,20,5,0,0,1,0,0.0,0.0,0.0,0.0,0.0,0.0,2.47752245,2.47752245,      359P    541
2.47752245,5.05705801,5.05705801,5.05705801,7.522400727,             359P    542
7.522400727,7.522400727,9.98722416,9.98722416,9.98722416,            359P    543
12.56715842,12.56715842,12.56715842,15.07912169,15.07912169,         359P    544
15.07912169,15.07912169,15.07912169,15.07912169,1.0,1.0,1.0,1.0,     359P    545
1.0,1.0,1.0,1.0,1.0,1.0,1.0,1.0,1.0,1.0,1.0,1.0,1.0,1.0,1.0,1.0,     359P    546
1.0,56.3235,7.937438989,-0.03112137318,56.3235,7.93607755,           359P    547
-0.3783536456,56.27815238,7.915728526,-0.7255107384,56.18746275,     359P    548
7.87636255,-1.063173776,55.91772407,7.765432522,-1.715445838,        359P    549
55.49372826,7.613623424,-2.271304775,55.24194234,7.531283231,        359P    550
-2.523952932,54.68855629,7.375930403,-2.947227272,54.03882171,       359P    551
7.258401509,-3.216024761,53.70218966,7.21580272,-3.30738621,         359P    552
53.01158999,7.172860759,-3.399475543,52.32048878,7.213683688,        359P    553
-3.311930431,51.98420994,7.255082098,-3.223385697,51.332735,         359P    554
7.371313878,-2.958439045,50.77664802,7.52603963,-2.539254212,        359P    555
50.52220711,7.608322546,-2.288699449,50.09053863,7.761790349,        359P    556
-1.732247559,49.81587067,7.874788536,-1.076737806,49.72311736,       359P    557
7.915159163,-0.7351545904,49.67650001,7.936058625,-0.3831803413,     359P    558
49.6765,7.937438989,-0.03112137065,0.0,15.07912169,0.0,0.0,0.0,      359P    559
0,0;                                                                 359P    560
124,-7.509597494E-012,0.0,1.0,49.6765,0.9999923136,                  361P    561
0.00392080292,0.0,0.0,-0.00392080292,0.9999923136,0.0,0.0,0,0;       361P    562
100,0.0,0.0,0.0,7.9375,0.0,7.937438988,0.03112137317,0,0;            363P    563
110,49.67664571,7.9375,0.0,-49.6765,7.9375,0.0,0,0;                  365P    564
102,10,339,341,345,347,351,353,357,359,363,365,0,0;                  367P    565
142,0,337,0,367,2,0,0;                                               369P    566
144,337,1,0,369,0,0;                                                 371P    567
110,-53.0,7.9375,0.0,-53.0,6.9375,0.0,0,0;                           373P    568
110,-56.3235,7.999860018,1.044261522E-011,-56.3235,3.335681033,      375P    569
1.044261522E-011,0,0;                                                375P    570
120,373,375,0.0,6.283185307,0,0;                                     377P    571
126,14,5,0,0,1,0,0.0,0.0,0.0,0.0,0.0,0.0,5.079333309,                379P    572
5.079333309,5.079333309,8.153383059,8.153383059,8.153383059,         379P    573
11.95039272,11.95039272,11.95039272,15.06615259,15.06615259,         379P    574
15.06615259,15.06615259,15.06615259,15.06615259,1.0,1.0,1.0,1.0,     379P    575
1.0,1.0,1.0,1.0,1.0,1.0,1.0,1.0,1.0,1.0,1.0,-56.3235,7.9375,0.0,     379P    576
-56.3235,7.9375,-0.711893702,-56.13289046,7.857690156,               379P    577
-1.423785921,-55.75361489,7.698067362,-2.051705897,-54.93141016,     379P    578
7.420665153,-2.854076811,-53.85999487,7.241985248,-3.253256677,      379P    579
-53.42995115,7.200792565,-3.338585405,-52.45262921,7.189270277,      379P    580
-3.366789635,-51.52948534,7.331427049,-3.051562957,-51.06868866,     379P    581
7.446160753,-2.779944949,-50.34842695,7.668663828,-2.141976367,      379P    582
-49.89219326,7.847221985,-1.291962879,-49.74822312,7.907468907,      379P    583
-0.8733777971,-49.6765,7.9375,-0.4366891661,-49.6765,7.9375,0.0,     379P    584
0.0,15.06615259,0.0,0.0,0.0,0,0;                                     379P    585
110,-49.6765,7.9375,0.0,-49.6765,4.7625,0.0,0,0;                     381P    586
126,20,5,0,0,1,0,0.0,0.0,0.0,0.0,0.0,0.0,3.634789716,                383P    587
3.634789716,3.634789716,5.619991609,5.619991609,5.619991609,         383P    588
7.856960668,7.856960668,7.856960668,10.14937689,10.14937689,         383P    589
10.14937689,12.79405422,12.79405422,12.79405422,15.40578038,         383P    590
15.40578038,15.40578038,15.40578038,15.40578038,15.40578038,1.0,     383P    591
1.0,1.0,1.0,1.0,1.0,1.0,1.0,1.0,1.0,1.0,1.0,1.0,1.0,1.0,1.0,1.0,     383P    592
1.0,1.0,1.0,1.0,-49.6765,4.762499999,0.0,-49.6765,4.762499999,       383P    593
-0.5120234892,-49.7751039,4.693689495,-1.024046148,-49.97359142,     383P    594
4.555631059,-1.497964697,-50.38267241,4.285798195,-2.133688849,      383P    595
-50.93296323,3.983246653,-2.621744745,-51.14333777,3.876410273,      383P    596
-2.774886425,-51.6233532,3.659521279,-3.057672726,-52.16926567,      383P    597
3.493595942,-3.239735026,-52.47598285,3.429108557,-3.304944827,      383P    598
-53.1180887,3.375992952,-3.359671617,-53.75064074,3.471227098,       383P    599
-3.261667565,-54.05697974,3.555361563,-3.173578757,-54.67048168,     383P    600
3.775799119,-2.9194828,-55.1912729,4.044997647,-2.534126468,         383P    601
-55.44359446,4.190194994,-2.292543711,-55.88045103,4.45907337,       383P    602
-1.749235424,-56.17062098,4.655815788,-1.089192897,-56.27259144,     383P    603
4.726973573,-0.7358138899,-56.3235,4.762499999,-0.3679071544,        383P    604
-56.3235,4.762499999,0.0,0.0,15.40578038,0.0,0.0,0.0,0,0;            383P    605
110,-56.3235,4.7625,0.0,-56.3235,7.9375,0.0,0,0;                     385P    606
102,4,379,381,383,385,0,0;                                           387P    607
142,0,377,0,387,2,0,0;                                               389P    608
144,377,1,0,389,0,0;                                                 391P    609
110,53.0,7.9375,-0.03112137318,53.0,6.9375,-0.03112137318,0,0;       393P    610
110,49.6765,7.999664352,-0.03112137317,49.6765,3.304281643,          395P    611
-0.03112137317,0,0;                                                  395P    612
120,393,395,0.0,6.283185307,0,0;                                     397P    613
126,14,5,0,0,1,0,0.0,0.0,0.0,0.0,0.0,0.0,5.086491587,                399P    614
5.086491587,5.086491587,8.158020925,8.158020925,8.158020925,         399P    615
11.95476272,11.95476272,11.95476272,15.07184754,15.07184754,         399P    616
15.07184754,15.07184754,15.07184754,15.07184754,1.0,1.0,1.0,1.0,     399P    617
1.0,1.0,1.0,1.0,1.0,1.0,1.0,1.0,1.0,1.0,1.0,49.6765,7.937438989,     399P    618
-0.03112137318,49.6765,7.93464388,-0.744007987,49.86764161,          399P    619
7.851815661,-1.456548892,50.24758186,7.68930909,-2.084650536,        399P    620
51.07022823,7.408150128,-2.886408226,52.1422823,7.227685966,         399P    621
-3.284893458,52.57201656,7.186191397,-3.369895031,53.54897873,       399P    622
7.174779985,-3.397573065,54.47145433,7.318628165,-3.082188438,       399P    623
54.93188355,7.434667972,-2.810550423,55.65164357,7.659992658,        399P    624
-2.172858808,56.10767778,7.842010664,-1.323335758,56.25171784,       399P    625
7.903957168,-0.9047407414,56.3235,7.935726099,-0.4679902473,         399P    626
56.3235,7.937438989,-0.03112137318,0.0,15.07184754,0.0,0.0,0.0,      399P    627
0,0;                                                                 399P    628
110,56.3235,7.937438989,-0.03112137318,56.3235,4.762398316,          401P    629
-0.03112137318,0,0;                                                  401P    630
126,20,5,0,0,1,0,0.0,0.0,0.0,0.0,0.0,0.0,3.639122159,                403P    631
3.639122159,3.639122159,5.627807822,5.627807822,5.627807822,         403P    632
7.85811063,7.85811063,7.85811063,10.14196901,10.14196901,            403P    633
10.14196901,12.79202275,12.79202275,12.79202275,15.4286007,          403P    634
15.4286007,15.4286007,15.4286007,15.4286007,15.4286007,1.0,1.0,      403P    635
1.0,1.0,1.0,1.0,1.0,1.0,1.0,1.0,1.0,1.0,1.0,1.0,1.0,1.0,1.0,1.0,     403P    636
1.0,1.0,1.0,56.3235,4.762398316,-0.03112137318,56.3235,              403P    637
4.759048466,-0.5437374673,56.22466772,4.686727289,-1.055902015,      403P    638
56.02606483,4.545241953,-1.529527305,55.61731902,4.270434413,        403P    639
-2.164633735,55.06776872,3.963062303,-2.652257851,54.85760423,       403P    640
3.854490948,-2.805350535,54.37918984,3.634495405,-3.087469329,       403P    641
53.83474067,3.465674578,-3.269634387,53.52932715,3.399833777,        403P    642
-3.335074752,52.88958006,3.34472212,-3.390799165,52.25881284,        403P    643
3.439779096,-3.294781514,51.95346182,3.524340914,-3.207947325,       403P    644
51.34017514,3.746836668,-2.956483574,50.81939075,4.019528937,        403P    645
-2.574388478,50.5661528,4.167300672,-2.333936081,50.12570106,        403P    646
4.442709161,-1.790986009,49.83215142,4.646505531,-1.129653133,       403P    647
49.72837833,4.721340097,-0.773665067,49.6765,4.759971307,            403P    648
-0.4025161929,49.6765,4.762398314,-0.03112137318,0.0,15.4286007,     403P    649
0.0,0.0,0.0,0,0;                                                     403P    650
110,49.6765,4.762398314,-0.03112137318,49.6765,7.937438989,          405P    651
-0.03112137318,0,0;                                                  405P    652
102,4,399,401,403,405,0,0;                                           407P    653
142,0,397,0,407,2,0,0;                                               409P    654
144,397,1,0,409,0,0;                                                 411P    655
S      1G      5D    412P    655                                        T      1
