START RECORD GO HERE.                                                   S      1
1H,,1H;,29H1360.000.002.000.BASE_SIN_FIN,33H1360.000.002.000.BASE_SIN_FIG      1
N.igs,62HDASSAULT SYSTEMES CATIA Version 5-6 Release 2018 - www.3ds.com,G      2
35HV5-6R2018_5.28.6.0.03-10-2020.20.00,32,75,6,75,15,29H1360.000.002.000G      3
.BASE_SIN_FIN,1.0,2,2HMM,1000,1.0,15H20241108.095751,0.001,10000.0,2HPc,G      4
15HDESKTOP-CAESKE4,11,0,15H20241108.095751,;                            G      5
     110       1       0       0       0       0       0       001010001D      1
     110       0       0       1       0                               0D      2
     110       2       0       0       0       0       0       001010001D      3
     110       0       0       2       0                               0D      4
     120       4       0       0       0       0       0       001010001D      5
     120       0       5       1       0                               0D      6
     124       5       0       0       0       0       0       001020001D      7
     124       0       0       1       0                               0D      8
     100       6       0       0       0       0       7       001010001D      9
     100       0       0       1       0                               0D     10
     110       7       0       0       0       0       0       001010001D     11
     110       0       0       1       0                               0D     12
     126       8       0       0       0       0       0       001010001D     13
     126       0       0      14       0                               0D     14
     110      22       0       0       0       0       0       001010001D     15
     110       0       0       1       0                               0D     16
     102      23       0       0       0       0       0       001010001D     17
     102       0       0       1       0                               0D     18
     142      24       0       0       0       0       0       001010001D     19
     142       0       0       1       0                               0D     20
     144      25       0       0   10000       0       0       000000000D     21
     144       0       5       1       0                PartBody       0D     22
     110      26       0       0       0       0       0       001010001D     23
     110       0       0       1       0                               0D     24
     110      27       0       0       0       0       0       001010001D     25
     110       0       0       1       0                               0D     26
     120      28       0       0       0       0       0       001010001D     27
     120       0       5       1       0                               0D     28
     124      29       0       0       0       0       0       001020001D     29
     124       0       0       1       0                               0D     30
     100      30       0       0       0       0      29       001010001D     31
     100       0       0       1       0                               0D     32
     110      31       0       0       0       0       0       001010001D     33
     110       0       0       1       0                               0D     34
     126      32       0       0       0       0       0       001010001D     35
     126       0       0      15       0                               0D     36
     110      47       0       0       0       0       0       001010001D     37
     110       0       0       1       0                               0D     38
     102      48       0       0       0       0       0       001010001D     39
     102       0       0       1       0                               0D     40
     142      49       0       0       0       0       0       001010001D     41
     142       0       0       1       0                               0D     42
     144      50       0       0   10000       0       0       000000000D     43
     144       0       5       1       0                PartBody       0D     44
     110      51       0       0       0       0       0       001010001D     45
     110       0       0       1       0                               0D     46
     110      52       0       0       0       0       0       001010001D     47
     110       0       0       1       0                               0D     48
     120      53       0       0       0       0       0       001010001D     49
     120       0       4       1       0                               0D     50
     110      54       0       0       0       0       0       001010001D     51
     110       0       0       1       0                               0D     52
     126      55       0       0       0       0       0       001010001D     53
     126       0       0      15       0                               0D     54
     110      70       0       0       0       0       0       001010001D     55
     110       0       0       1       0                               0D     56
     124      71       0       0       0       0       0       001020001D     57
     124       0       0       2       0                               0D     58
     100      73       0       0       0       0      57       001010001D     59
     100       0       0       1       0                               0D     60
     110      74       0       0       0       0       0       001010001D     61
     110       0       0       1       0                               0D     62
     124      75       0       0       0       0       0       001020001D     63
     124       0       0       2       0                               0D     64
     100      77       0       0       0       0      63       001010001D     65
     100       0       0       1       0                               0D     66
     110      78       0       0       0       0       0       001010001D     67
     110       0       0       1       0                               0D     68
     126      79       0       0       0       0       0       001010001D     69
     126       0       0      15       0                               0D     70
     110      94       0       0       0       0       0       001010001D     71
     110       0       0       1       0                               0D     72
     126      95       0       0       0       0       0       001010001D     73
     126       0       0      15       0                               0D     74
     102     110       0       0       0       0       0       001010001D     75
     102       0       0       1       0                               0D     76
     142     111       0       0       0       0       0       001010001D     77
     142       0       0       1       0                               0D     78
     144     112       0       0   10000       0       0       000000000D     79
     144       0       4       1       0                PartBody       0D     80
     314     113       0       0       0       0       0       000000201D     81
     314       0       0       1       0                               0D     82
     108     114       0       0       0       0       0       001010001D     83
     108       0     -81       1       0                               0D     84
     110     115       0       0       0       0       0       001010001D     85
     110       0       0       1       0                               0D     86
     110     116       0       0       0       0       0       001010001D     87
     110       0       0       1       0                               0D     88
     110     117       0       0       0       0       0       001010001D     89
     110       0       0       1       0                               0D     90
     110     118       0       0       0       0       0       001010001D     91
     110       0       0       1       0                               0D     92
     110     119       0       0       0       0       0       001010001D     93
     110       0       0       1       0                               0D     94
     102     120       0       0       0       0       0       001010001D     95
     102       0       0       1       0                               0D     96
     142     121       0       0       0       0       0       001010001D     97
     142       0       0       1       0                               0D     98
     126     122       0       0       0       0       0       001010001D     99
     126       0       0      18       0                               0D    100
     126     140       0       0       0       0       0       001010001D    101
     126       0       0      18       0                               0D    102
     102     158       0       0       0       0       0       001010001D    103
     102       0       0       1       0                               0D    104
     142     159       0       0       0       0       0       001010001D    105
     142       0       0       1       0                               0D    106
     126     160       0       0       0       0       0       001010001D    107
     126       0       0      17       0                               0D    108
     126     177       0       0       0       0       0       001010001D    109
     126       0       0      17       0                               0D    110
     102     194       0       0       0       0       0       001010001D    111
     102       0       0       1       0                               0D    112
     142     195       0       0       0       0       0       001010001D    113
     142       0       0       1       0                               0D    114
     126     196       0       0       0       0       0       001010001D    115
     126       0       0      17       0                               0D    116
     126     213       0       0       0       0       0       001010001D    117
     126       0       0      17       0                               0D    118
     102     230       0       0       0       0       0       001010001D    119
     102       0       0       1       0                               0D    120
     142     231       0       0       0       0       0       001010001D    121
     142       0       0       1       0                               0D    122
     144     232       0       0   10000       0       0       000000000D    123
     144       0     -81       1       0                PartBody       0D    124
     110     233       0       0       0       0       0       001010001D    125
     110       0       0       1       0                               0D    126
     110     234       0       0       0       0       0       001010001D    127
     110       0       0       2       0                               0D    128
     120     236       0       0       0       0       0       001010001D    129
     120       0       4       1       0                               0D    130
     124     237       0       0       0       0       0       001020001D    131
     124       0       0       2       0                               0D    132
     100     239       0       0       0       0     131       001010001D    133
     100       0       0       1       0                               0D    134
     110     240       0       0       0       0       0       001010001D    135
     110       0       0       1       0                               0D    136
     124     241       0       0       0       0       0       001020001D    137
     124       0       0       2       0                               0D    138
     100     243       0       0       0       0     137       001010001D    139
     100       0       0       1       0                               0D    140
     110     244       0       0       0       0       0       001010001D    141
     110       0       0       1       0                               0D    142
     126     245       0       0       0       0       0       001010001D    143
     126       0       0      15       0                               0D    144
     110     260       0       0       0       0       0       001010001D    145
     110       0       0       1       0                               0D    146
     126     261       0       0       0       0       0       001010001D    147
     126       0       0      15       0                               0D    148
     110     276       0       0       0       0       0       001010001D    149
     110       0       0       1       0                               0D    150
     126     277       0       0       0       0       0       001010001D    151
     126       0       0      15       0                               0D    152
     110     292       0       0       0       0       0       001010001D    153
     110       0       0       1       0                               0D    154
     124     293       0       0       0       0       0       001020001D    155
     124       0       0       2       0                               0D    156
     100     295       0       0       0       0     155       001010001D    157
     100       0       0       1       0                               0D    158
     126     296       0       0       0       0       0       001010001D    159
     126       0       0      12       0                               0D    160
     102     308       0       0       0       0       0       001010001D    161
     102       0       0       1       0                               0D    162
     142     309       0       0       0       0       0       001010001D    163
     142       0       0       1       0                               0D    164
     144     310       0       0   10000       0       0       000000000D    165
     144       0       4       1       0                PartBody       0D    166
     110     311       0       0       0       0       0       001010001D    167
     110       0       0       1       0                               0D    168
     110     312       0       0       0       0       0       001010001D    169
     110       0       0       2       0                               0D    170
     120     314       0       0       0       0       0       001010001D    171
     120       0       5       1       0                               0D    172
     124     315       0       0       0       0       0       001020001D    173
     124       0       0       1       0                               0D    174
     100     316       0       0       0       0     173       001010001D    175
     100       0       0       1       0                               0D    176
     110     317       0       0       0       0       0       001010001D    177
     110       0       0       1       0                               0D    178
     126     318       0       0       0       0       0       001010001D    179
     126       0       0      14       0                               0D    180
     110     332       0       0       0       0       0       001010001D    181
     110       0       0       1       0                               0D    182
     102     333       0       0       0       0       0       001010001D    183
     102       0       0       1       0                               0D    184
     142     334       0       0       0       0       0       001010001D    185
     142       0       0       1       0                               0D    186
     144     335       0       0   10000       0       0       000000000D    187
     144       0       5       1       0                PartBody       0D    188
     108     336       0       0       0       0       0       001010001D    189
     108       0     -81       1       0                               0D    190
     110     337       0       0       0       0       0       001010001D    191
     110       0       0       1       0                               0D    192
     110     338       0       0       0       0       0       001010001D    193
     110       0       0       1       0                               0D    194
     110     339       0       0       0       0       0       001010001D    195
     110       0       0       1       0                               0D    196
     110     340       0       0       0       0       0       001010001D    197
     110       0       0       1       0                               0D    198
     124     341       0       0       0       0       0       001020001D    199
     124       0       0       3       0                               0D    200
     100     344       0       0       0       0     199       001010001D    201
     100       0       0       1       0                               0D    202
     124     345       0       0       0       0       0       001020001D    203
     124       0       0       2       0                               0D    204
     100     347       0       0       0       0     203       001010001D    205
     100       0       0       1       0                               0D    206
     124     348       0       0       0       0       0       001020001D    207
     124       0       0       2       0                               0D    208
     100     350       0       0       0       0     207       001010001D    209
     100       0       0       1       0                               0D    210
     110     351       0       0       0       0       0       001010001D    211
     110       0       0       1       0                               0D    212
     102     352       0       0       0       0       0       001010001D    213
     102       0       0       1       0                               0D    214
     142     353       0       0       0       0       0       001010001D    215
     142       0       0       1       0                               0D    216
     144     354       0       0   10000       0       0       000000000D    217
     144       0     -81       1       0                PartBody       0D    218
     108     355       0       0       0       0       0       001010001D    219
     108       0     -81       1       0                               0D    220
     110     356       0       0       0       0       0       001010001D    221
     110       0       0       1       0                               0D    222
     110     357       0       0       0       0       0       001010001D    223
     110       0       0       1       0                               0D    224
     110     358       0       0       0       0       0       001010001D    225
     110       0       0       1       0                               0D    226
     110     359       0       0       0       0       0       001010001D    227
     110       0       0       1       0                               0D    228
     102     360       0       0       0       0       0       001010001D    229
     102       0       0       1       0                               0D    230
     142     361       0       0       0       0       0       001010001D    231
     142       0       0       1       0                               0D    232
     126     362       0       0       0       0       0       001010001D    233
     126       0       0      20       0                               0D    234
     124     382       0       0       0       0       0       001020001D    235
     124       0       0       2       0                               0D    236
     100     384       0       0       0       0     235       001010001D    237
     100       0       0       1       0                               0D    238
     102     385       0       0       0       0       0       001010001D    239
     102       0       0       1       0                               0D    240
     142     386       0       0       0       0       0       001010001D    241
     142       0       0       1       0                               0D    242
     144     387       0       0   10000       0       0       000000000D    243
     144       0     -81       1       0                PartBody       0D    244
     110     388       0       0       0       0       0       001010001D    245
     110       0       0       1       0                               0D    246
     110     389       0       0       0       0       0       001010001D    247
     110       0       0       2       0                               0D    248
     120     391       0       0       0       0       0       001010001D    249
     120       0       5       1       0                               0D    250
     124     392       0       0       0       0       0       001020001D    251
     124       0       0       1       0                               0D    252
     100     393       0       0       0       0     251       001010001D    253
     100       0       0       1       0                               0D    254
     110     394       0       0       0       0       0       001010001D    255
     110       0       0       1       0                               0D    256
     126     395       0       0       0       0       0       001010001D    257
     126       0       0      14       0                               0D    258
     110     409       0       0       0       0       0       001010001D    259
     110       0       0       1       0                               0D    260
     102     410       0       0       0       0       0       001010001D    261
     102       0       0       1       0                               0D    262
     142     411       0       0       0       0       0       001010001D    263
     142       0       0       1       0                               0D    264
     144     412       0       0   10000       0       0       000000000D    265
     144       0       5       1       0                PartBody       0D    266
     108     413       0       0       0       0       0       001010001D    267
     108       0     -81       1       0                               0D    268
     110     414       0       0       0       0       0       001010001D    269
     110       0       0       1       0                               0D    270
     110     415       0       0       0       0       0       001010001D    271
     110       0       0       1       0                               0D    272
     110     416       0       0       0       0       0       001010001D    273
     110       0       0       1       0                               0D    274
     110     417       0       0       0       0       0       001010001D    275
     110       0       0       1       0                               0D    276
     102     418       0       0       0       0       0       001010001D    277
     102       0       0       1       0                               0D    278
     142     419       0       0       0       0       0       001010001D    279
     142       0       0       1       0                               0D    280
     144     420       0       0   10000       0       0       000000000D    281
     144       0     -81       1       0                PartBody       0D    282
     108     421       0       0       0       0       0       001010001D    283
     108       0     -81       1       0                               0D    284
     110     422       0       0       0       0       0       001010001D    285
     110       0       0       1       0                               0D    286
     110     423       0       0       0       0       0       001010001D    287
     110       0       0       1       0                               0D    288
     110     424       0       0       0       0       0       001010001D    289
     110       0       0       1       0                               0D    290
     110     425       0       0       0       0       0       001010001D    291
     110       0       0       1       0                               0D    292
     102     426       0       0       0       0       0       001010001D    293
     102       0       0       1       0                               0D    294
     142     427       0       0       0       0       0       001010001D    295
     142       0       0       1       0                               0D    296
     144     428       0       0   10000       0       0       000000000D    297
     144       0     -81       1       0                PartBody       0D    298
     108     429       0       0       0       0       0       001010001D    299
     108       0     -81       1       0                               0D    300
     126     430       0       0       0       0       0       001010001D    301
     126       0       0      15       0                               0D    302
     110     445       0       0       0       0       0       001010001D    303
     110       0       0       1       0                               0D    304
     110     446       0       0       0       0       0       001010001D    305
     110       0       0       1       0                               0D    306
     110     447       0       0       0       0       0       001010001D    307
     110       0       0       1       0                               0D    308
     110     448       0       0       0       0       0       001010001D    309
     110       0       0       1       0                               0D    310
     110     449       0       0       0       0       0       001010001D    311
     110       0       0       1       0                               0D    312
     102     450       0       0       0       0       0       001010001D    313
     102       0       0       1       0                               0D    314
     142     451       0       0       0       0       0       001010001D    315
     142       0       0       1       0                               0D    316
     144     452       0       0   10000       0       0       000000000D    317
     144       0     -81       1       0                PartBody       0D    318
     110     453       0       0       0       0       0       001010001D    319
     110       0       0       1       0                               0D    320
     110     454       0       0       0       0       0       001010001D    321
     110       0       0       1       0                               0D    322
     120     455       0       0       0       0       0       001010001D    323
     120       0       5       1       0                               0D    324
     124     456       0       0       0       0       0       001020001D    325
     124       0       0       1       0                               0D    326
     100     457       0       0       0       0     325       001010001D    327
     100       0       0       1       0                               0D    328
     110     458       0       0       0       0       0       001010001D    329
     110       0       0       1       0                               0D    330
     126     459       0       0       0       0       0       001010001D    331
     126       0       0      15       0                               0D    332
     110     474       0       0       0       0       0       001010001D    333
     110       0       0       1       0                               0D    334
     102     475       0       0       0       0       0       001010001D    335
     102       0       0       1       0                               0D    336
     142     476       0       0       0       0       0       001010001D    337
     142       0       0       1       0                               0D    338
     144     477       0       0   10000       0       0       000000000D    339
     144       0       5       1       0                PartBody       0D    340
     110     478       0       0       0       0       0       001010001D    341
     110       0       0       1       0                               0D    342
     110     479       0       0       0       0       0       001010001D    343
     110       0       0       1       0                               0D    344
     120     480       0       0       0       0       0       001010001D    345
     120       0       5       1       0                               0D    346
     124     481       0       0       0       0       0       001020001D    347
     124       0       0       1       0                               0D    348
     100     482       0       0       0       0     347       001010001D    349
     100       0       0       1       0                               0D    350
     110     483       0       0       0       0       0       001010001D    351
     110       0       0       1       0                               0D    352
     126     484       0       0       0       0       0       001010001D    353
     126       0       0      15       0                               0D    354
     110     499       0       0       0       0       0       001010001D    355
     110       0       0       1       0                               0D    356
     102     500       0       0       0       0       0       001010001D    357
     102       0       0       1       0                               0D    358
     142     501       0       0       0       0       0       001010001D    359
     142       0       0       1       0                               0D    360
     144     502       0       0   10000       0       0       000000000D    361
     144       0       5       1       0                PartBody       0D    362
     108     503       0       0       0       0       0       001010001D    363
     108       0     -81       1       0                               0D    364
     110     504       0       0       0       0       0       001010001D    365
     110       0       0       1       0                               0D    366
     110     505       0       0       0       0       0       001010001D    367
     110       0       0       1       0                               0D    368
     110     506       0       0       0       0       0       001010001D    369
     110       0       0       1       0                               0D    370
     110     507       0       0       0       0       0       001010001D    371
     110       0       0       1       0                               0D    372
     110     508       0       0       0       0       0       001010001D    373
     110       0       0       1       0                               0D    374
     102     509       0       0       0       0       0       001010001D    375
     102       0       0       1       0                               0D    376
     142     510       0       0       0       0       0       001010001D    377
     142       0       0       1       0                               0D    378
     144     511       0       0   10000       0       0       000000000D    379
     144       0     -81       1       0                PartBody       0D    380
110,5.0,-8.0,0.0,5.0,-7.0,0.0,0,0;                                     1P      1
110,3.379,-8.0,-5.092604568E-012,3.379,-3.601406329,                   3P      2
-5.092604568E-012,0,0;                                                 3P      3
120,1,3,0.0,6.283185307,0,0;                                           5P      4
124,-1.0,0.0,0.0,5.0,0.0,0.0,1.0,-8.0,0.0,1.0,0.0,0.0,0,0;             7P      5
100,0.0,0.0,0.0,1.621,0.0,-1.621,0.0,0,0;                              9P      6
110,6.621,-8.0,0.0,6.621,-3.967975616,0.0,0,0;                        11P      7
126,14,5,0,0,1,0,0.0,0.0,0.0,0.0,0.0,0.0,2.554441112,                 13P      8
2.554441112,2.554441112,4.273031874,4.273031874,4.273031874,          13P      9
5.600276118,5.600276118,5.600276118,7.347175163,7.347175163,          13P     10
7.347175163,7.347175163,7.347175163,7.347175163,1.0,1.0,1.0,1.0,      13P     11
1.0,1.0,1.0,1.0,1.0,1.0,1.0,1.0,1.0,1.0,1.0,6.621,-3.967975616,       13P     12
0.0,6.621,-3.967975616,0.3581018531,6.522112788,-3.92790159,          13P     13
0.7162030749,6.326612891,-3.848066836,1.02853195,5.883483557,         13P     14
-3.706549425,1.440225282,5.306710763,-3.626197123,1.61911396,         13P     15
5.063683632,-3.612603779,1.647209278,4.630165703,-3.629309848,        13P     16
1.614198074,4.237372735,-3.697975545,1.448202506,4.078077552,         13P     17
-3.735220721,1.351996327,3.748157223,-3.826722738,1.083569638,        13P     18
3.51768369,-3.911700277,0.7204942481,3.425245617,-3.949230915,        13P     19
0.4898117241,3.379,-3.967976223,0.2448904169,3.379,-3.967975549,      13P     20
0.0,0.0,7.347175163,0.0,0.0,0.0,0,0;                                  13P     21
110,3.379,-3.967975549,0.0,3.379,-8.0,0.0,0,0;                        15P     22
102,4,9,11,13,15,0,0;                                                 17P     23
142,0,5,0,17,2,0,0;                                                   19P     24
144,5,1,0,19,0,0;                                                     21P     25
110,5.0,-8.0,0.0,5.0,-7.0,0.0,0,0;                                    23P     26
110,6.621,-8.0,0.0,6.621,-3.586102779,0.0,0,0;                        25P     27
120,23,25,0.0,6.283185307,0,0;                                        27P     28
124,1.0,0.0,0.0,5.0,0.0,0.0,1.0,-8.0,0.0,-1.0,0.0,0.0,0,0;            29P     29
100,0.0,0.0,0.0,1.621,0.0,-1.621,0.0,0,0;                             31P     30
110,3.379,-8.0,0.0,3.379,-3.967975549,0.0,0,0;                        33P     31
126,14,5,0,0,1,0,0.0,0.0,0.0,0.0,0.0,0.0,1.654044161,                 35P     32
1.654044161,1.654044161,3.412608461,3.412608461,3.412608461,          35P     33
5.140032328,5.140032328,5.140032328,7.335689579,7.335689579,          35P     34
7.335689579,7.335689579,7.335689579,7.335689579,1.0,1.0,1.0,1.0,      35P     35
1.0,1.0,1.0,1.0,1.0,1.0,1.0,1.0,1.0,1.0,1.0,3.379,-3.967975549,       35P     36
-5.383871504E-008,3.379000008,-3.967974907,-0.2320069844,             35P     37
3.420507739,-3.951148819,-0.4639858742,3.503847608,-3.917400836,      35P     38
-0.684654528,3.747702505,-3.826433021,-1.094847743,4.118600256,       35P     39
-3.721884963,-1.392748842,4.337533899,-3.673168824,-1.510313469,      35P     40
4.810751106,-3.609661949,-1.656212303,5.308147672,-3.625044919,       35P     41
-1.61972656,5.546821341,-3.655530327,-1.55436315,6.042242524,         35P     42
-3.755052149,-1.314473907,6.401067642,-3.878725275,                   35P     43
-0.8967514699,6.547856259,-3.938334111,-0.6159632065,6.621,           35P     44
-3.967975616,-0.307981824,6.621,-3.967975616,0.0,0.0,                 35P     45
7.335689579,0.0,0.0,0.0,0,0;                                          35P     46
110,6.621,-3.967975616,0.0,6.621,-8.0,0.0,0,0;                        37P     47
102,4,31,33,35,37,0,0;                                                39P     48
142,0,27,0,39,2,0,0;                                                  41P     49
144,27,1,0,41,0,0;                                                    43P     50
110,0.0,0.03202438354,0.0,1.0,0.03202438354,0.0,0,0;                  45P     51
110,0.0,4.032024384,0.0,30.0,4.032024384,0.0,0,0;                     47P     52
120,45,47,0.0,6.283185307,0,0;                                        49P     53
110,16.621,-3.967975616,0.0,23.379,-3.967975616,0.0,0,0;              51P     54
126,14,5,0,0,1,0,0.0,0.0,0.0,0.0,0.0,0.0,1.298940531,                 53P     55
1.298940531,1.298940531,3.927754047,3.927754047,3.927754047,          53P     56
5.236300887,5.236300887,5.236300887,7.345013975,7.345013975,          53P     57
7.345013975,7.345013975,7.345013975,7.345013975,1.0,1.0,1.0,1.0,      53P     58
1.0,1.0,1.0,1.0,1.0,1.0,1.0,1.0,1.0,1.0,1.0,23.37900002,              53P     59
-3.967975616,0.0,23.37899988,-3.967975616,0.182092762,                53P     60
23.40456946,-3.957613812,0.3642035716,23.45563529,-3.936882711,       53P     61
0.54042231,23.68027431,-3.850207333,1.041639254,24.09271678,          53P     62
-3.720461058,1.41660204,24.43328843,-3.638336851,1.588747536,         53P     63
25.00162255,-3.597858354,1.683017645,25.53938479,-3.658065753,        53P     64
1.545061372,25.70874121,-3.687876488,1.474640334,26.11761615,         53P     65
-3.780471486,1.233841411,26.41972464,-3.886097621,0.8613772776,       53P     66
26.55361197,-3.940666584,0.5912300141,26.621,-3.967975616,            53P     67
0.2956161433,26.621,-3.967975616,0.0,0.0,7.345013975,0.0,0.0,         53P     68
0.0,0,0;                                                              53P     69
110,26.621,-3.967975616,0.0,30.0,-3.967975616,0.0,0,0;                55P     70
124,0.0,0.0,-1.0,30.0,-1.0,0.0,0.0,0.03202438354,0.0,1.0,0.0,         57P     71
0.0,0,0;                                                              57P     72
100,0.0,0.0,0.0,4.0,0.0,-4.0,0.0,0,0;                                 59P     73
110,30.0,4.032024384,0.0,0.0,4.032024384,0.0,0,0;                     61P     74
124,0.0,0.0,1.0,0.0,1.0,0.0,0.0,0.03202438354,0.0,1.0,0.0,0.0,0,      63P     75
0;                                                                    63P     76
100,0.0,0.0,0.0,4.0,0.0,-4.0,0.0,0,0;                                 65P     77
110,0.0,-3.967975616,0.0,3.379,-3.967975549,0.0,0,0;                  67P     78
126,14,5,0,0,1,0,0.0,0.0,0.0,0.0,0.0,0.0,1.298939024,                 69P     79
1.298939024,1.298939024,3.927754663,3.927754663,3.927754663,          69P     80
5.236301361,5.236301361,5.236301361,7.345013297,7.345013297,          69P     81
7.345013297,7.345013297,7.345013297,7.345013297,1.0,1.0,1.0,1.0,      69P     82
1.0,1.0,1.0,1.0,1.0,1.0,1.0,1.0,1.0,1.0,1.0,3.379000001,              69P     83
-3.967975616,0.0,3.378999995,-3.967975616,0.1820927905,               69P     84
3.404568905,-3.957613809,0.3642021559,3.455635369,-3.936882856,       69P     85
0.540421272,3.680274936,-3.850207461,1.041639135,4.092716817,         69P     86
-3.720460715,1.41660327,4.433288228,-3.638336731,1.588747786,         69P     87
5.001623612,-3.597858307,1.683017768,5.539385905,-3.658065919,        69P     88
1.545060983,5.708741997,-3.68787666,1.47463992,6.117616971,           69P     89
-3.780471736,1.233840655,6.419725758,-3.88609767,0.8613769035,        69P     90
6.55361204,-3.940666611,0.5912303427,6.620999999,-3.967975616,        69P     91
0.2956159953,6.620999999,-3.967975616,0.0,0.0,7.345013297,0.0,        69P     92
0.0,0.0,0,0;                                                          69P     93
110,6.621,-3.967975616,0.0,13.379,-3.967975616,0.0,0,0;               71P     94
126,14,5,0,0,1,0,0.0,0.0,0.0,0.0,0.0,0.0,1.298940531,                 73P     95
1.298940531,1.298940531,3.927754047,3.927754047,3.927754047,          73P     96
5.236300887,5.236300887,5.236300887,7.345013975,7.345013975,          73P     97
7.345013975,7.345013975,7.345013975,7.345013975,1.0,1.0,1.0,1.0,      73P     98
1.0,1.0,1.0,1.0,1.0,1.0,1.0,1.0,1.0,1.0,1.0,13.37900002,              73P     99
-3.967975616,0.0,13.37899988,-3.967975616,0.182092762,                73P    100
13.40456946,-3.957613812,0.3642035715,13.45563529,-3.936882711,       73P    101
0.5404223101,13.68027431,-3.850207333,1.041639254,14.09271678,        73P    102
-3.720461058,1.41660204,14.43328843,-3.638336851,1.588747536,         73P    103
15.00162255,-3.597858354,1.683017645,15.53938479,-3.658065753,        73P    104
1.545061372,15.70874121,-3.687876488,1.474640334,16.11761615,         73P    105
-3.780471486,1.233841411,16.41972464,-3.886097621,0.8613772776,       73P    106
16.55361197,-3.940666584,0.5912300141,16.621,-3.967975616,            73P    107
0.2956161433,16.621,-3.967975616,0.0,0.0,7.345013975,0.0,0.0,         73P    108
0.0,0,0;                                                              73P    109
102,10,51,53,55,59,61,65,67,69,71,73,0,0;                             75P    110
142,0,49,0,75,2,0,0;                                                  77P    111
144,49,1,0,77,0,0;                                                    79P    112
314,20.0,20.0,20.0,5HColor,0,0;                                       81P    113
108,0.0,-1.0,0.0,8.0,0,30.0,-8.0,0.0,1.0,0,0;                         83P    114
110,6.928203231,-8.0,-7.5,0.0,-8.0,-3.5,0,0;                          85P    115
110,0.0,-8.0,-3.5,0.0,-8.0,7.5,0,0;                                   87P    116
110,0.0,-8.0,7.5,30.0,-8.0,7.5,0,0;                                   89P    117
110,30.0,-8.0,7.5,30.0,-8.0,-7.5,0,0;                                 91P    118
110,30.0,-8.0,-7.5,6.928203231,-8.0,-7.5,0,0;                         93P    119
102,5,85,87,89,91,93,0,0;                                             95P    120
142,0,83,0,95,2,0,0;                                                  97P    121
126,20,5,0,0,1,0,0.0,0.0,0.0,0.0,0.0,0.0,0.5854524562,                99P    122
0.5854524562,0.5854524562,1.908559114,1.908559114,1.908559114,        99P    123
3.231665762,3.231665762,3.231665762,4.554772397,4.554772397,          99P    124
4.554772397,5.877879041,5.877879041,5.877879041,7.200985699,          99P    125
7.200985699,7.200985699,7.200985699,7.200985699,7.200985699,1.0,      99P    126
1.0,1.0,1.0,1.0,1.0,1.0,1.0,1.0,1.0,1.0,1.0,1.0,1.0,1.0,1.0,1.0,      99P    127
1.0,1.0,1.0,1.0,6.620999999,-8.0,0.0,6.620999999,-8.0,                99P    128
0.08279548037,6.61571384,-8.0,0.165591076,6.605055076,-8.0,           99P    129
0.2484949693,6.553452523,-8.0,0.5139867747,6.447498413,-8.0,          99P    130
0.7652692775,6.349220936,-8.0,0.9276263812,6.108658673,-8.0,          99P    131
1.219334428,5.795442689,-8.0,1.431139283,5.624494087,-8.0,            99P    132
1.513570275,5.26372839,-8.0,1.626759921,4.885677903,-8.0,             99P    133
1.633346007,4.697442427,-8.0,1.609144728,4.333354865,-8.0,            99P    134
1.507144575,4.012951405,-8.0,1.30637812,3.868413963,-8.0,             99P    135
1.183385347,3.618962329,-8.0,0.8992416002,3.460010829,-8.0,           99P    136
0.5561673083,3.40599894,-8.0,0.3742304873,3.379000001,-8.0,           99P    137
0.1871155381,3.379000001,-8.0,0.0,0.0,7.200985699,0.0,0.0,0.0,0,      99P    138
0;                                                                    99P    139
126,20,5,0,0,1,0,0.0,0.0,0.0,0.0,0.0,0.0,0.5854524562,               101P    140
0.5854524562,0.5854524562,1.908559114,1.908559114,1.908559114,       101P    141
3.231665762,3.231665762,3.231665762,4.554772397,4.554772397,         101P    142
4.554772397,5.877879041,5.877879041,5.877879041,7.200985699,         101P    143
7.200985699,7.200985699,7.200985699,7.200985699,7.200985699,1.0,     101P    144
1.0,1.0,1.0,1.0,1.0,1.0,1.0,1.0,1.0,1.0,1.0,1.0,1.0,1.0,1.0,1.0,     101P    145
1.0,1.0,1.0,1.0,3.379000001,-8.0,0.0,3.379000001,-8.0,               101P    146
-0.08279548037,3.38428616,-8.0,-0.165591076,3.394944924,-8.0,        101P    147
-0.2484949693,3.446547477,-8.0,-0.5139867747,3.552501587,-8.0,       101P    148
-0.7652692775,3.650779064,-8.0,-0.9276263812,3.891341327,-8.0,       101P    149
-1.219334428,4.204557311,-8.0,-1.431139283,4.375505913,-8.0,         101P    150
-1.513570275,4.73627161,-8.0,-1.626759921,5.114322097,-8.0,          101P    151
-1.633346007,5.302557573,-8.0,-1.609144728,5.666645135,-8.0,         101P    152
-1.507144575,5.987048595,-8.0,-1.30637812,6.131586037,-8.0,          101P    153
-1.183385347,6.381037671,-8.0,-0.8992416002,6.539989171,-8.0,        101P    154
-0.5561673082,6.59400106,-8.0,-0.3742304873,6.620999999,-8.0,        101P    155
-0.1871155381,6.620999999,-8.0,0.0,0.0,7.200985699,0.0,0.0,0.0,      101P    156
0,0;                                                                 101P    157
102,2,99,101,0,0;                                                    103P    158
142,0,83,0,103,2,0,0;                                                105P    159
126,20,5,0,0,1,0,0.0,0.0,0.0,0.0,0.0,0.0,0.5854524562,               107P    160
0.5854524562,0.5854524562,1.908559114,1.908559114,1.908559114,       107P    161
3.231665762,3.231665762,3.231665762,4.554772397,4.554772397,         107P    162
4.554772397,5.877879041,5.877879041,5.877879041,7.200985699,         107P    163
7.200985699,7.200985699,7.200985699,7.200985699,7.200985699,1.0,     107P    164
1.0,1.0,1.0,1.0,1.0,1.0,1.0,1.0,1.0,1.0,1.0,1.0,1.0,1.0,1.0,1.0,     107P    165
1.0,1.0,1.0,1.0,16.621,-8.0,0.0,16.621,-8.0,0.08279548037,           107P    166
16.61571384,-8.0,0.165591076,16.60505508,-8.0,0.2484949693,          107P    167
16.55345252,-8.0,0.5139867747,16.44749841,-8.0,0.7652692775,         107P    168
16.34922094,-8.0,0.9276263812,16.10865867,-8.0,1.219334428,          107P    169
15.79544269,-8.0,1.431139283,15.62449409,-8.0,1.513570275,           107P    170
15.26372839,-8.0,1.626759921,14.8856779,-8.0,1.633346007,            107P    171
14.69744243,-8.0,1.609144728,14.33335487,-8.0,1.507144575,           107P    172
14.01295141,-8.0,1.30637812,13.86841396,-8.0,1.183385347,            107P    173
13.61896233,-8.0,0.8992416002,13.46001083,-8.0,0.5561673082,         107P    174
13.40599894,-8.0,0.3742304873,13.379,-8.0,0.1871155381,13.379,       107P    175
-8.0,0.0,0.0,7.200985699,0.0,0.0,0.0,0,0;                            107P    176
126,20,5,0,0,1,0,0.0,0.0,0.0,0.0,0.0,0.0,0.5854524562,               109P    177
0.5854524562,0.5854524562,1.908559114,1.908559114,1.908559114,       109P    178
3.231665762,3.231665762,3.231665762,4.554772397,4.554772397,         109P    179
4.554772397,5.877879041,5.877879041,5.877879041,7.200985699,         109P    180
7.200985699,7.200985699,7.200985699,7.200985699,7.200985699,1.0,     109P    181
1.0,1.0,1.0,1.0,1.0,1.0,1.0,1.0,1.0,1.0,1.0,1.0,1.0,1.0,1.0,1.0,     109P    182
1.0,1.0,1.0,1.0,13.379,-8.0,0.0,13.379,-8.0,-0.08279548037,          109P    183
13.38428616,-8.0,-0.165591076,13.39494492,-8.0,-0.2484949693,        109P    184
13.44654748,-8.0,-0.5139867747,13.55250159,-8.0,-0.7652692775,       109P    185
13.65077906,-8.0,-0.9276263812,13.89134133,-8.0,-1.219334428,        109P    186
14.20455731,-8.0,-1.431139283,14.37550591,-8.0,-1.513570275,         109P    187
14.73627161,-8.0,-1.626759921,15.1143221,-8.0,-1.633346007,          109P    188
15.30255757,-8.0,-1.609144728,15.66664513,-8.0,-1.507144575,         109P    189
15.98704859,-8.0,-1.30637812,16.13158604,-8.0,-1.183385347,          109P    190
16.38103767,-8.0,-0.8992416002,16.53998917,-8.0,-0.5561673082,       109P    191
16.59400106,-8.0,-0.3742304873,16.621,-8.0,-0.1871155381,16.621,     109P    192
-8.0,0.0,0.0,7.200985699,0.0,0.0,0.0,0,0;                            109P    193
102,2,107,109,0,0;                                                   111P    194
142,0,83,0,111,2,0,0;                                                113P    195
126,20,5,0,0,1,0,0.0,0.0,0.0,0.0,0.0,0.0,0.5854524562,               115P    196
0.5854524562,0.5854524562,1.908559114,1.908559114,1.908559114,       115P    197
3.231665762,3.231665762,3.231665762,4.554772397,4.554772397,         115P    198
4.554772397,5.877879041,5.877879041,5.877879041,7.200985699,         115P    199
7.200985699,7.200985699,7.200985699,7.200985699,7.200985699,1.0,     115P    200
1.0,1.0,1.0,1.0,1.0,1.0,1.0,1.0,1.0,1.0,1.0,1.0,1.0,1.0,1.0,1.0,     115P    201
1.0,1.0,1.0,1.0,26.621,-8.0,0.0,26.621,-8.0,0.08279548037,           115P    202
26.61571384,-8.0,0.165591076,26.60505508,-8.0,0.2484949693,          115P    203
26.55345252,-8.0,0.5139867747,26.44749841,-8.0,0.7652692775,         115P    204
26.34922094,-8.0,0.9276263812,26.10865867,-8.0,1.219334428,          115P    205
25.79544269,-8.0,1.431139283,25.62449409,-8.0,1.513570275,           115P    206
25.26372839,-8.0,1.626759921,24.8856779,-8.0,1.633346007,            115P    207
24.69744243,-8.0,1.609144728,24.33335487,-8.0,1.507144575,           115P    208
24.01295141,-8.0,1.30637812,23.86841396,-8.0,1.183385347,            115P    209
23.61896233,-8.0,0.8992416002,23.46001083,-8.0,0.5561673082,         115P    210
23.40599894,-8.0,0.3742304873,23.379,-8.0,0.1871155381,23.379,       115P    211
-8.0,0.0,0.0,7.200985699,0.0,0.0,0.0,0,0;                            115P    212
126,20,5,0,0,1,0,0.0,0.0,0.0,0.0,0.0,0.0,0.5854524562,               117P    213
0.5854524562,0.5854524562,1.908559114,1.908559114,1.908559114,       117P    214
3.231665762,3.231665762,3.231665762,4.554772397,4.554772397,         117P    215
4.554772397,5.877879041,5.877879041,5.877879041,7.200985699,         117P    216
7.200985699,7.200985699,7.200985699,7.200985699,7.200985699,1.0,     117P    217
1.0,1.0,1.0,1.0,1.0,1.0,1.0,1.0,1.0,1.0,1.0,1.0,1.0,1.0,1.0,1.0,     117P    218
1.0,1.0,1.0,1.0,23.379,-8.0,0.0,23.379,-8.0,-0.08279548037,          117P    219
23.38428616,-8.0,-0.165591076,23.39494492,-8.0,-0.2484949693,        117P    220
23.44654748,-8.0,-0.5139867747,23.55250159,-8.0,-0.7652692775,       117P    221
23.65077906,-8.0,-0.9276263812,23.89134133,-8.0,-1.219334428,        117P    222
24.20455731,-8.0,-1.431139283,24.37550591,-8.0,-1.513570275,         117P    223
24.73627161,-8.0,-1.626759921,25.1143221,-8.0,-1.633346007,          117P    224
25.30255757,-8.0,-1.609144728,25.66664513,-8.0,-1.507144575,         117P    225
25.98704859,-8.0,-1.30637812,26.13158604,-8.0,-1.183385347,          117P    226
26.38103767,-8.0,-0.8992416002,26.53998917,-8.0,-0.5561673082,       117P    227
26.59400106,-8.0,-0.3742304873,26.621,-8.0,-0.1871155381,26.621,     117P    228
-8.0,0.0,0.0,7.200985699,0.0,0.0,0.0,0,0;                            117P    229
102,2,115,117,0,0;                                                   119P    230
142,0,83,0,119,2,0,0;                                                121P    231
144,83,1,3,97,105,113,121,0,0;                                       123P    232
110,0.0,0.03202438354,0.0,1.0,0.03202438354,0.0,0,0;                 125P    233
110,0.0,-3.967975616,1.256843654E-011,30.0,-3.967975616,             127P    234
1.256843654E-011,0,0;                                                127P    235
120,125,127,0.0,6.283185307,0,0;                                     129P    236
124,0.0,0.0,1.0,0.0,0.4841229184,0.8749999999,0.0,0.03202438354,     131P    237
-0.8749999999,0.4841229184,0.0,0.0,0,0;                              131P    238
100,0.0,0.0,0.0,4.0,0.0,1.936491674,3.5,0,0;                         133P    239
110,0.0,4.032024384,0.0,30.0,4.032024384,0.0,0,0;                    135P    240
124,0.0,0.0,-1.0,30.0,1.0,0.0,0.0,0.03202438354,0.0,-1.0,0.0,        137P    241
0.0,0,0;                                                             137P    242
100,0.0,0.0,0.0,4.0,0.0,-4.0,0.0,0,0;                                139P    243
110,30.0,-3.967975616,0.0,26.621,-3.967975616,0.0,0,0;               141P    244
126,14,5,0,0,1,0,0.0,0.0,0.0,0.0,0.0,0.0,1.298187005,                143P    245
1.298187005,1.298187005,3.925247892,3.925247892,3.925247892,         143P    246
5.232627258,5.232627258,5.232627258,7.338955333,7.338955333,         143P    247
7.338955333,7.338955333,7.338955333,7.338955333,1.0,1.0,1.0,1.0,     143P    248
1.0,1.0,1.0,1.0,1.0,1.0,1.0,1.0,1.0,1.0,1.0,26.621,-3.967975616,     143P    249
0.0,26.621,-3.967975616,-0.1820949064,26.59543048,-3.957613568,      143P    250
-0.3641891961,26.54431287,-3.936881101,-0.5404394426,                143P    251
26.31966005,-3.850201735,-1.041652457,25.90740687,-3.720476532,      143P    252
-1.416541148,25.5664698,-3.63826573,-1.588906964,24.99806952,        143P    253
-3.597883682,-1.682961344,24.46042892,-3.65805953,-1.545074805,      143P    254
24.29091291,-3.687769244,-1.474911805,23.8820091,-3.780407039,       143P    255
-1.234065735,23.58087585,-3.886141327,-0.8612697277,23.44631113,     143P    256
-3.940697781,-0.5908478774,23.37900001,-3.967975612,                 143P    257
-0.2954472535,23.379,-3.967975616,-5.383871593E-008,0.0,             143P    258
7.338955333,0.0,0.0,0.0,0,0;                                         143P    259
110,23.379,-3.967975616,0.0,16.621,-3.967975616,0.0,0,0;             145P    260
126,14,5,0,0,1,0,0.0,0.0,0.0,0.0,0.0,0.0,1.298187005,                147P    261
1.298187005,1.298187005,3.925247892,3.925247892,3.925247892,         147P    262
5.232627258,5.232627258,5.232627258,7.338955333,7.338955333,         147P    263
7.338955333,7.338955333,7.338955333,7.338955333,1.0,1.0,1.0,1.0,     147P    264
1.0,1.0,1.0,1.0,1.0,1.0,1.0,1.0,1.0,1.0,1.0,16.621,-3.967975616,     147P    265
0.0,16.621,-3.967975616,-0.1820949064,16.59543048,-3.957613568,      147P    266
-0.3641891961,16.54431287,-3.936881101,-0.5404394426,                147P    267
16.31966005,-3.850201735,-1.041652457,15.90740687,-3.720476532,      147P    268
-1.416541148,15.5664698,-3.63826573,-1.588906964,14.99806952,        147P    269
-3.597883682,-1.682961344,14.46042892,-3.65805953,-1.545074805,      147P    270
14.29091291,-3.687769244,-1.474911805,13.8820091,-3.780407039,       147P    271
-1.234065735,13.58087585,-3.886141327,-0.8612697277,13.44631113,     147P    272
-3.940697781,-0.5908478774,13.37900001,-3.967975612,                 147P    273
-0.2954472535,13.379,-3.967975616,-5.383871404E-008,0.0,             147P    274
7.338955333,0.0,0.0,0.0,0,0;                                         147P    275
110,13.379,-3.967975616,0.0,6.621,-3.967975616,0.0,0,0;              149P    276
126,14,5,0,0,1,0,0.0,0.0,0.0,0.0,0.0,0.0,1.298187005,                151P    277
1.298187005,1.298187005,3.925247892,3.925247892,3.925247892,         151P    278
5.232627258,5.232627258,5.232627258,7.338955332,7.338955332,         151P    279
7.338955332,7.338955332,7.338955332,7.338955332,1.0,1.0,1.0,1.0,     151P    280
1.0,1.0,1.0,1.0,1.0,1.0,1.0,1.0,1.0,1.0,1.0,6.621,-3.967975616,      151P    281
0.0,6.621,-3.967975616,-0.1820949064,6.595430483,-3.957613568,       151P    282
-0.3641891961,6.544312871,-3.936881101,-0.5404394427,                151P    283
6.319660052,-3.850201735,-1.041652457,5.907406873,-3.720476532,      151P    284
-1.416541148,5.566469805,-3.63826573,-1.588906964,4.998069518,       151P    285
-3.597883682,-1.682961344,4.460428923,-3.65805953,-1.545074805,      151P    286
4.290912909,-3.687769244,-1.474911805,3.882009099,-3.780407039,      151P    287
-1.234065735,3.580875855,-3.886141327,-0.8612697278,3.446311125,     151P    288
-3.940697781,-0.5908478772,3.37900001,-3.967975612,                  151P    289
-0.2954472534,3.379000001,-3.967975616,-5.383871582E-008,0.0,        151P    290
7.338955332,0.0,0.0,0.0,0,0;                                         151P    291
110,3.379,-3.967975549,0.0,0.0,-3.967975616,0.0,0,0;                 153P    292
124,0.0,0.0,1.0,0.0,-1.0,0.0,0.0,0.03202438354,0.0,-1.0,0.0,0.0,     155P    293
0,0;                                                                 155P    294
100,0.0,0.0,0.0,4.0,0.0,1.936491674,3.5,0,0;                         157P    295
126,11,5,0,0,1,0,0.0,0.0,0.0,0.0,0.0,0.0,2.581421595,                159P    296
2.581421595,2.581421595,4.066953667,4.066953667,4.066953667,         159P    297
6.374875907,6.374875907,6.374875907,6.374875907,6.374875907,         159P    298
6.374875907,1.0,1.0,1.0,1.0,1.0,1.0,1.0,1.0,1.0,1.0,1.0,1.0,0.0,     159P    299
-1.90446729,-3.5,0.2335007092,-1.660809676,-3.634811697,             159P    300
0.4454372641,-1.389599031,-3.757174018,0.6303751346,                 159P    301
-1.084216507,-3.863941566,0.83799476,-0.5498814926,-3.983822241,     159P    302
0.8804898959,0.02473735033,-4.008350823,0.8712446762,                159P    303
0.2347857401,-4.003089185,0.7876479561,0.7635076294,                 159P    304
-3.954557047,0.5709559092,1.244947782,-3.82905027,0.4002862765,      159P    305
1.510807605,-3.73110589,0.2087615137,1.750673753,-3.620528516,       159P    306
0.0,1.968516057,-3.5,0.0,6.374875907,0.0,0.0,0.0,0,0;                159P    307
102,12,133,135,139,141,143,145,147,149,151,153,157,159,0,0;          161P    308
142,0,129,0,161,2,0,0;                                               163P    309
144,129,1,0,163,0,0;                                                 165P    310
110,15.0,-8.0,0.0,15.0,-7.0,0.0,0,0;                                 167P    311
110,13.379,-8.0,-5.091884699E-012,13.379,-3.601406448,               169P    312
-5.091884699E-012,0,0;                                               169P    313
120,167,169,0.0,6.283185307,0,0;                                     171P    314
124,-1.0,0.0,0.0,15.0,0.0,0.0,1.0,-8.0,0.0,1.0,0.0,0.0,0,0;          173P    315
100,0.0,0.0,0.0,1.621,0.0,-1.621,0.0,0,0;                            175P    316
110,16.621,-8.0,0.0,16.621,-3.967975616,0.0,0,0;                     177P    317
126,14,5,0,0,1,0,0.0,0.0,0.0,0.0,0.0,0.0,2.554442497,                179P    318
2.554442497,2.554442497,4.273039316,4.273039316,4.273039316,         179P    319
5.600270657,5.600270657,5.600270657,7.347174299,7.347174299,         179P    320
7.347174299,7.347174299,7.347174299,7.347174299,1.0,1.0,1.0,1.0,     179P    321
1.0,1.0,1.0,1.0,1.0,1.0,1.0,1.0,1.0,1.0,1.0,16.621,-3.967975616,     179P    322
0.0,16.621,-3.967975616,0.3581020308,16.52211269,-3.92790155,        179P    323
0.7162025136,16.3266118,-3.848067341,1.028532797,15.88348296,        179P    324
-3.70654857,1.440225978,15.30670779,-3.626197191,1.619114862,        179P    325
15.06368432,-3.612603779,1.6472095,14.63016695,-3.629309766,         179P    326
1.61419826,14.23737477,-3.697975017,1.448203236,14.07807393,         179P    327
-3.735221624,1.351993552,13.74815485,-3.826723081,1.08356659,        179P    328
13.51768318,-3.911702821,0.7204930313,13.42524574,-3.949234531,      179P    329
0.4898149104,13.379,-3.967975616,0.2448907423,13.379,                179P    330
-3.967975616,0.0,0.0,7.347174299,0.0,0.0,0.0,0,0;                    179P    331
110,13.379,-3.967975616,0.0,13.379,-8.0,0.0,0,0;                     181P    332
102,4,175,177,179,181,0,0;                                           183P    333
142,0,171,0,183,2,0,0;                                               185P    334
144,171,1,0,185,0,0;                                                 187P    335
108,1.0,0.0,0.0,0.0,0,0.0,6.0,0.0,1.0,0,0;                           189P    336
110,0.0,6.0,-3.5,0.0,6.0,7.5,0,0;                                    191P    337
110,0.0,6.0,7.5,0.0,-8.0,7.5,0,0;                                    193P    338
110,0.0,-8.0,7.5,0.0,-8.0,-3.5,0,0;                                  195P    339
110,0.0,-8.0,-3.5,0.0,-1.90446729,-3.5,0,0;                          197P    340
124,0.0,0.0,-1.0,0.0,-0.4841229193,-0.8749999994,0.0,                199P    341
0.03202439038,-0.8749999994,0.4841229193,0.0,3.638324975E-009,0,     199P    342
0;                                                                   199P    343
100,0.0,0.0,0.0,4.000000007,0.0,1.936491684,3.500000002,0,0;         201P    344
124,0.0,0.0,-1.0,0.0,-1.0,0.0,0.0,0.03202438354,0.0,1.0,0.0,0.0,     203P    345
0,0;                                                                 203P    346
100,0.0,0.0,0.0,4.0,0.0,-4.0,0.0,0,0;                                205P    347
124,0.0,0.0,-1.0,0.0,1.0,-9.095813531E-010,0.0,0.03202437671,        207P    348
-9.095813531E-010,-1.0,0.0,3.638325641E-009,0,0;                     207P    349
100,0.0,0.0,0.0,4.000000007,0.0,1.936491684,3.500000002,0,0;         209P    350
110,0.0,1.968516057,-3.5,0.0,6.0,-3.5,0,0;                           211P    351
102,8,191,193,195,197,201,205,209,211,0,0;                           213P    352
142,0,189,0,213,2,0,0;                                               215P    353
144,189,1,0,215,0,0;                                                 217P    354
108,-1.0,0.0,0.0,-30.0,0,30.0,-8.0,0.0,1.0,0,0;                      219P    355
110,30.0,-8.0,-7.5,30.0,-8.0,7.5,0,0;                                221P    356
110,30.0,-8.0,7.5,30.0,6.0,7.5,0,0;                                  223P    357
110,30.0,6.0,7.5,30.0,6.0,-7.5,0,0;                                  225P    358
110,30.0,6.0,-7.5,30.0,-8.0,-7.5,0,0;                                227P    359
102,4,221,223,225,227,0,0;                                           229P    360
142,0,219,0,229,2,0,0;                                               231P    361
126,23,5,0,0,1,0,0.0,0.0,0.0,0.0,0.0,0.0,2.77125194,2.77125194,      233P    362
2.77125194,5.542503899,5.542503899,5.542503899,8.313755878,          233P    363
8.313755878,8.313755878,11.08500785,11.08500785,11.08500785,         233P    364
13.85625982,13.85625982,13.85625982,16.62751178,16.62751178,         233P    365
16.62751178,17.77038235,17.77038235,17.77038235,17.77038235,         233P    366
17.77038235,17.77038235,1.0,1.0,1.0,1.0,1.0,1.0,1.0,1.0,1.0,1.0,     233P    367
1.0,1.0,1.0,1.0,1.0,1.0,1.0,1.0,1.0,1.0,1.0,1.0,1.0,1.0,30.0,        233P    368
4.032024384,0.0,30.0,4.032024384,0.3919142078,30.0,3.9840254,        233P    369
0.7838279914,30.0,3.888014091,1.167922544,30.0,3.603901097,          233P    370
1.904728988,30.0,3.15037536,2.551192966,30.0,2.884926568,            233P    371
2.844933885,30.0,2.287536849,3.361392463,30.0,1.583169931,           233P    372
3.718419805,30.0,1.210727372,3.852708002,30.0,0.4405898312,          233P    373
4.027327904,30.0,-0.3489242346,4.010932124,30.0,-0.7407478408,       233P    374
3.954177889,30.0,-1.502467404,3.745881835,30.0,-2.191404718,         233P    375
3.359919848,30.0,-2.510437479,3.125473943,30.0,-3.084553498,         233P    376
2.583261133,30.0,-3.510849663,1.918525957,30.0,-3.682042873,         233P    377
1.561539019,30.0,-3.859623106,1.032890707,30.0,-3.943401791,         233P    378
0.4850133197,30.0,-3.959812159,0.323252686,30.0,-3.967975616,        233P    379
0.1616263069,30.0,-3.967975616,0.0,0.0,17.77038235,0.0,0.0,0.0,      233P    380
0,0;                                                                 233P    381
124,0.0,0.0,1.0,30.0,-1.0,0.0,0.0,0.03202438354,0.0,-1.0,0.0,        235P    382
0.0,0,0;                                                             235P    383
100,0.0,0.0,0.0,4.0,0.0,-4.0,0.0,0,0;                                237P    384
102,2,233,237,0,0;                                                   239P    385
142,0,219,0,239,2,0,0;                                               241P    386
144,219,1,1,231,241,0,0;                                             243P    387
110,25.0,-8.0,0.0,25.0,-7.0,0.0,0,0;                                 245P    388
110,23.379,-8.0,-5.092604568E-012,23.379,-3.601406448,               247P    389
-5.092604568E-012,0,0;                                               247P    390
120,245,247,0.0,6.283185307,0,0;                                     249P    391
124,-1.0,0.0,0.0,25.0,0.0,0.0,1.0,-8.0,0.0,1.0,0.0,0.0,0,0;          251P    392
100,0.0,0.0,0.0,1.621,0.0,-1.621,0.0,0,0;                            253P    393
110,26.621,-8.0,0.0,26.621,-3.967975616,0.0,0,0;                     255P    394
126,14,5,0,0,1,0,0.0,0.0,0.0,0.0,0.0,0.0,2.554442497,                257P    395
2.554442497,2.554442497,4.273039316,4.273039316,4.273039316,         257P    396
5.600270657,5.600270657,5.600270657,7.347174299,7.347174299,         257P    397
7.347174299,7.347174299,7.347174299,7.347174299,1.0,1.0,1.0,1.0,     257P    398
1.0,1.0,1.0,1.0,1.0,1.0,1.0,1.0,1.0,1.0,1.0,26.621,-3.967975616,     257P    399
0.0,26.621,-3.967975616,0.3581020308,26.52211269,-3.92790155,        257P    400
0.7162025136,26.3266118,-3.848067341,1.028532797,25.88348296,        257P    401
-3.70654857,1.440225978,25.30670779,-3.626197191,1.619114862,        257P    402
25.06368432,-3.612603779,1.6472095,24.63016695,-3.629309766,         257P    403
1.61419826,24.23737477,-3.697975017,1.448203236,24.07807393,         257P    404
-3.735221624,1.351993552,23.74815485,-3.826723081,1.08356659,        257P    405
23.51768318,-3.911702821,0.7204930313,23.42524574,-3.949234531,      257P    406
0.4898149104,23.379,-3.967975616,0.2448907423,23.379,                257P    407
-3.967975616,0.0,0.0,7.347174299,0.0,0.0,0.0,0,0;                    257P    408
110,23.379,-3.967975616,0.0,23.379,-8.0,0.0,0,0;                     259P    409
102,4,253,255,257,259,0,0;                                           261P    410
142,0,249,0,261,2,0,0;                                               263P    411
144,249,1,0,263,0,0;                                                 265P    412
108,0.0,0.0,1.0,-7.5,0,0.0,0.0,-7.5,1.0,0,0;                         267P    413
110,6.928203231,-8.0,-7.5,30.0,-8.0,-7.5,0,0;                        269P    414
110,30.0,-8.0,-7.5,30.0,6.0,-7.5,0,0;                                271P    415
110,30.0,6.0,-7.5,6.928203231,6.0,-7.5,0,0;                          273P    416
110,6.928203231,6.0,-7.5,6.928203231,-8.0,-7.5,0,0;                  275P    417
102,4,269,271,273,275,0,0;                                           277P    418
142,0,267,0,277,2,0,0;                                               279P    419
144,267,1,0,279,0,0;                                                 281P    420
108,0.0,0.0,1.0,7.5,0,0.0,0.0,7.5,1.0,0,0;                           283P    421
110,0.0,6.0,7.5,30.0,6.0,7.5,0,0;                                    285P    422
110,30.0,6.0,7.5,30.0,-8.0,7.5,0,0;                                  287P    423
110,30.0,-8.0,7.5,0.0,-8.0,7.5,0,0;                                  289P    424
110,0.0,-8.0,7.5,0.0,6.0,7.5,0,0;                                    291P    425
102,4,285,287,289,291,0,0;                                           293P    426
142,0,283,0,293,2,0,0;                                               295P    427
144,283,1,0,295,0,0;                                                 297P    428
108,0.5,0.0,0.8660254038,-3.031088913,0,0.0,-1.0,-3.5,1.0,0,0;       299P    429
126,14,5,0,0,1,0,0.0,0.0,0.0,0.0,0.0,0.0,2.308846518,                301P    430
2.308846518,2.308846518,3.794367407,3.794367407,3.794367407,         301P    431
6.028455961,6.028455961,6.028455961,6.376226847,6.376226847,         301P    432
6.376226847,6.376226847,6.376226847,6.376226847,1.0,1.0,1.0,1.0,     301P    433
1.0,1.0,1.0,1.0,1.0,1.0,1.0,1.0,1.0,1.0,1.0,0.0,1.968516057,         301P    434
-3.5,0.2088451187,1.750586512,-3.620576785,0.4004397794,             301P    435
1.51061548,-3.731194014,0.5708574342,1.245318498,-3.829584693,       301P    436
0.7876249089,0.763649684,-3.954735453,0.8712439217,0.2347814514,     301P    437
-4.003012913,0.8804896835,0.02473416654,-4.008350956,                301P    438
0.8416234424,-0.500807946,-3.985911521,0.6646336806,                 301P    439
-0.9926542859,-3.883726434,0.516572714,-1.265037044,                 301P    440
-3.798243395,0.3175543951,-1.549378766,-3.683340115,                 301P    441
0.09318930516,-1.80446637,-3.55380287,0.06252337112,-1.83831577,     301P    442
-3.536097885,0.03145737547,-1.87164157,-3.518161924,0.0,             301P    443
-1.90446729,-3.5,0.0,6.376226847,0.0,0.0,0.0,0,0;                    301P    444
110,0.0,-1.90446729,-3.5,0.0,-8.0,-3.5,0,0;                          303P    445
110,0.0,-8.0,-3.5,6.928203231,-8.0,-7.5,0,0;                         305P    446
110,6.928203231,-8.0,-7.5,6.928203231,6.0,-7.5,0,0;                  307P    447
110,6.928203231,6.0,-7.5,0.0,6.0,-3.5,0,0;                           309P    448
110,0.0,6.0,-3.5,0.0,1.968516057,-3.5,0,0;                           311P    449
102,6,301,303,305,307,309,311,0,0;                                   313P    450
142,0,299,0,313,2,0,0;                                               315P    451
144,299,1,0,315,0,0;                                                 317P    452
110,15.0,-8.0,0.0,15.0,-7.0,0.0,0,0;                                 319P    453
110,16.621,-8.0,0.0,16.621,-3.586102779,0.0,0,0;                     321P    454
120,319,321,0.0,6.283185307,0,0;                                     323P    455
124,1.0,0.0,0.0,15.0,0.0,0.0,1.0,-8.0,0.0,-1.0,0.0,0.0,0,0;          325P    456
100,0.0,0.0,0.0,1.621,0.0,-1.621,0.0,0,0;                            327P    457
110,13.379,-8.0,0.0,13.379,-3.967975616,0.0,0,0;                     329P    458
126,14,5,0,0,1,0,0.0,0.0,0.0,0.0,0.0,0.0,1.654044161,                331P    459
1.654044161,1.654044161,3.412608461,3.412608461,3.412608461,         331P    460
5.140032328,5.140032328,5.140032328,7.335689579,7.335689579,         331P    461
7.335689579,7.335689579,7.335689579,7.335689579,1.0,1.0,1.0,1.0,     331P    462
1.0,1.0,1.0,1.0,1.0,1.0,1.0,1.0,1.0,1.0,1.0,13.379,-3.967975549,     331P    463
-5.383871515E-008,13.37900001,-3.967974907,-0.2320069844,            331P    464
13.42050774,-3.951148819,-0.4639858742,13.50384761,-3.917400836,     331P    465
-0.684654528,13.74770251,-3.826433021,-1.094847743,14.11860026,      331P    466
-3.721884963,-1.392748842,14.3375339,-3.673168824,-1.510313469,      331P    467
14.81075111,-3.609661949,-1.656212303,15.30814767,-3.625044919,      331P    468
-1.61972656,15.54682134,-3.655530327,-1.55436315,16.04224252,        331P    469
-3.755052149,-1.314473907,16.40106764,-3.878725275,-0.89675147,      331P    470
16.54785626,-3.938334111,-0.6159632065,16.621,-3.967975616,          331P    471
-0.307981824,16.621,-3.967975616,0.0,0.0,7.335689579,0.0,0.0,        331P    472
0.0,0,0;                                                             331P    473
110,16.621,-3.967975616,0.0,16.621,-8.0,0.0,0,0;                     333P    474
102,4,327,329,331,333,0,0;                                           335P    475
142,0,323,0,335,2,0,0;                                               337P    476
144,323,1,0,337,0,0;                                                 339P    477
110,25.0,-8.0,0.0,25.0,-7.0,0.0,0,0;                                 341P    478
110,26.621,-8.0,0.0,26.621,-3.586102779,0.0,0,0;                     343P    479
120,341,343,0.0,6.283185307,0,0;                                     345P    480
124,1.0,0.0,0.0,25.0,0.0,0.0,1.0,-8.0,0.0,-1.0,0.0,0.0,0,0;          347P    481
100,0.0,0.0,0.0,1.621,0.0,-1.621,0.0,0,0;                            349P    482
110,23.379,-8.0,0.0,23.379,-3.967975616,0.0,0,0;                     351P    483
126,14,5,0,0,1,0,0.0,0.0,0.0,0.0,0.0,0.0,1.654044161,                353P    484
1.654044161,1.654044161,3.412608461,3.412608461,3.412608461,         353P    485
5.140032328,5.140032328,5.140032328,7.335689579,7.335689579,         353P    486
7.335689579,7.335689579,7.335689579,7.335689579,1.0,1.0,1.0,1.0,     353P    487
1.0,1.0,1.0,1.0,1.0,1.0,1.0,1.0,1.0,1.0,1.0,23.379,-3.967975549,     353P    488
-5.383871434E-008,23.37900001,-3.967974907,-0.2320069844,            353P    489
23.42050774,-3.951148819,-0.4639858742,23.50384761,-3.917400836,     353P    490
-0.684654528,23.74770251,-3.826433021,-1.094847743,24.11860026,      353P    491
-3.721884963,-1.392748842,24.3375339,-3.673168824,-1.510313469,      353P    492
24.81075111,-3.609661949,-1.656212303,25.30814767,-3.625044919,      353P    493
-1.61972656,25.54682134,-3.655530327,-1.55436315,26.04224252,        353P    494
-3.755052149,-1.314473907,26.40106764,-3.878725275,-0.89675147,      353P    495
26.54785626,-3.938334111,-0.6159632065,26.621,-3.967975616,          353P    496
-0.307981824,26.621,-3.967975616,0.0,0.0,7.335689579,0.0,0.0,        353P    497
0.0,0,0;                                                             353P    498
110,26.621,-3.967975616,0.0,26.621,-8.0,0.0,0,0;                     355P    499
102,4,349,351,353,355,0,0;                                           357P    500
142,0,345,0,357,2,0,0;                                               359P    501
144,345,1,0,359,0,0;                                                 361P    502
108,0.0,1.0,0.0,6.0,0,0.0,6.0,0.0,1.0,0,0;                           363P    503
110,0.0,6.0,-3.5,6.928203231,6.0,-7.5,0,0;                           365P    504
110,6.928203231,6.0,-7.5,30.0,6.0,-7.5,0,0;                          367P    505
110,30.0,6.0,-7.5,30.0,6.0,7.5,0,0;                                  369P    506
110,30.0,6.0,7.5,0.0,6.0,7.5,0,0;                                    371P    507
110,0.0,6.0,7.5,0.0,6.0,-3.5,0,0;                                    373P    508
102,5,365,367,369,371,373,0,0;                                       375P    509
142,0,363,0,375,2,0,0;                                               377P    510
144,363,1,0,377,0,0;                                                 379P    511
S      1G      5D    380P    511                                        T      1
