START RECORD GO HERE.                                                   S      1
1H,,1H;,21H1360.000.001.002.TUBO,25H1360.000.001.002.TUBO.igs,62HDASSAULG      1
T SYSTEMES CATIA Version 5-6 Release 2018 - www.3ds.com,35HV5-6R2018_5.2G      2
8.6.0.03-10-2020.20.00,32,75,6,75,15,21H1360.000.001.002.TUBO,1.0,2,2HMMG      3
,1000,1.0,15H20241108.095759,0.001,10000.0,2HPc,15HDESKTOP-CAESKE4,11,0,G      4
15H20241108.095759,;                                                    G      5
     314       1       0       0       0       0       0       000000201D      1
     314       0       0       1       0                               0D      2
     110       2       0       0       0       0       0       001010001D      3
     110       0       0       1       0                               0D      4
     110       3       0       0       0       0       0       001010001D      5
     110       0       0       2       0                               0D      6
     120       5       0       0       0       0       0       001010001D      7
     120       0      -1       1       0                               0D      8
     126       6       0       0       0       0       0       001010001D      9
     126       0       0       7       0                               0D     10
     126      13       0       0       0       0       0       001010001D     11
     126       0       0       7       0                               0D     12
     110      20       0       0       0       0       0       001010001D     13
     110       0       0       1       0                               0D     14
     126      21       0       0       0       0       0       001010001D     15
     126       0       0       7       0                               0D     16
     126      28       0       0       0       0       0       001010001D     17
     126       0       0       7       0                               0D     18
     110      35       0       0       0       0       0       001010001D     19
     110       0       0       1       0                               0D     20
     102      36       0       0       0       0       0       001010001D     21
     102       0       0       1       0                               0D     22
     142      37       0       0       0       0       0       001010001D     23
     142       0       0       1       0                               0D     24
     144      38       0       0   10000       0       0       000000000D     25
     144       0      -1       1       0                PartBody       0D     26
     110      39       0       0       0       0       0       001010001D     27
     110       0       0       1       0                               0D     28
     110      40       0       0       0       0       0       001010001D     29
     110       0       0       1       0                               0D     30
     120      41       0       0       0       0       0       001010001D     31
     120       0      -1       1       0                               0D     32
     126      42       0       0       0       0       0       001010001D     33
     126       0       0       6       0                               0D     34
     126      48       0       0       0       0       0       001010001D     35
     126       0       0       7       0                               0D     36
     110      55       0       0       0       0       0       001010001D     37
     110       0       0       1       0                               0D     38
     126      56       0       0       0       0       0       001010001D     39
     126       0       0       7       0                               0D     40
     126      63       0       0       0       0       0       001010001D     41
     126       0       0       7       0                               0D     42
     110      70       0       0       0       0       0       001010001D     43
     110       0       0       1       0                               0D     44
     102      71       0       0       0       0       0       001010001D     45
     102       0       0       1       0                               0D     46
     142      72       0       0       0       0       0       001010001D     47
     142       0       0       1       0                               0D     48
     144      73       0       0   10000       0       0       000000000D     49
     144       0      -1       1       0                PartBody       0D     50
     110      74       0       0       0       0       0       001010001D     51
     110       0       0       1       0                               0D     52
     110      75       0       0       0       0       0       001010001D     53
     110       0       0       1       0                               0D     54
     120      76       0       0       0       0       0       001010001D     55
     120       0       4       1       0                               0D     56
     110      77       0       0       0       0       0       001010001D     57
     110       0       0       1       0                               0D     58
     124      78       0       0       0       0       0       001020001D     59
     124       0       0       1       0                               0D     60
     100      79       0       0       0       0      59       001010001D     61
     100       0       0       1       0                               0D     62
     110      80       0       0       0       0       0       001010001D     63
     110       0       0       1       0                               0D     64
     124      81       0       0       0       0       0       001020001D     65
     124       0       0       1       0                               0D     66
     100      82       0       0       0       0      65       001010001D     67
     100       0       0       1       0                               0D     68
     110      83       0       0       0       0       0       001010001D     69
     110       0       0       1       0                               0D     70
     126      84       0       0       0       0       0       001010001D     71
     126       0       0       6       0                               0D     72
     126      90       0       0       0       0       0       001010001D     73
     126       0       0       7       0                               0D     74
     102      97       0       0       0       0       0       001010001D     75
     102       0       0       1       0                               0D     76
     142      98       0       0       0       0       0       001010001D     77
     142       0       0       1       0                               0D     78
     144      99       0       0   10000       0       0       000000000D     79
     144       0       4       1       0                PartBody       0D     80
     110     100       0       0       0       0       0       001010001D     81
     110       0       0       1       0                               0D     82
     110     101       0       0       0       0       0       001010001D     83
     110       0       0       1       0                               0D     84
     120     102       0       0       0       0       0       001010001D     85
     120       0       4       1       0                               0D     86
     110     103       0       0       0       0       0       001010001D     87
     110       0       0       1       0                               0D     88
     124     104       0       0       0       0       0       001020001D     89
     124       0       0       1       0                               0D     90
     100     105       0       0       0       0      89       001010001D     91
     100       0       0       1       0                               0D     92
     110     106       0       0       0       0       0       001010001D     93
     110       0       0       1       0                               0D     94
     124     107       0       0       0       0       0       001020001D     95
     124       0       0       1       0                               0D     96
     100     108       0       0       0       0      95       001010001D     97
     100       0       0       1       0                               0D     98
     110     109       0       0       0       0       0       001010001D     99
     110       0       0       1       0                               0D    100
     126     110       0       0       0       0       0       001010001D    101
     126       0       0       6       0                               0D    102
     126     116       0       0       0       0       0       001010001D    103
     126       0       0       7       0                               0D    104
     102     123       0       0       0       0       0       001010001D    105
     102       0       0       1       0                               0D    106
     142     124       0       0       0       0       0       001010001D    107
     142       0       0       1       0                               0D    108
     126     125       0       0       0       0       0       001010001D    109
     126       0       0      23       0                               0D    110
     126     148       0       0       0       0       0       001010001D    111
     126       0       0      20       0                               0D    112
     102     168       0       0       0       0       0       001010001D    113
     102       0       0       1       0                               0D    114
     142     169       0       0       0       0       0       001010001D    115
     142       0       0       1       0                               0D    116
     144     170       0       0   10000       0       0       000000000D    117
     144       0       4       1       0                PartBody       0D    118
     314     171       0       0       0       0       0       000000201D    119
     314       0       0       1       0                               0D    120
     110     172       0       0       0       0       0       001010001D    121
     110       0       0       1       0                               0D    122
     110     173       0       0       0       0       0       001010001D    123
     110       0       0       1       0                               0D    124
     120     174       0       0       0       0       0       001010001D    125
     120       0    -119       1       0                               0D    126
     126     175       0       0       0       0       0       001010001D    127
     126       0       0       7       0                               0D    128
     126     182       0       0       0       0       0       001010001D    129
     126       0       0       6       0                               0D    130
     110     188       0       0       0       0       0       001010001D    131
     110       0       0       2       0                               0D    132
     124     190       0       0       0       0       0       001020001D    133
     124       0       0       1       0                               0D    134
     100     191       0       0       0       0     133       001010001D    135
     100       0       0       1       0                               0D    136
     110     192       0       0       0       0       0       001010001D    137
     110       0       0       1       0                               0D    138
     124     193       0       0       0       0       0       001020001D    139
     124       0       0       1       0                               0D    140
     100     194       0       0       0       0     139       001010001D    141
     100       0       0       1       0                               0D    142
     110     195       0       0       0       0       0       001010001D    143
     110       0       0       1       0                               0D    144
     102     196       0       0       0       0       0       001010001D    145
     102       0       0       1       0                               0D    146
     142     197       0       0       0       0       0       001010001D    147
     142       0       0       1       0                               0D    148
     126     198       0       0       0       0       0       001010001D    149
     126       0       0      17       0                               0D    150
     126     215       0       0       0       0       0       001010001D    151
     126       0       0      17       0                               0D    152
     102     232       0       0       0       0       0       001010001D    153
     102       0       0       1       0                               0D    154
     142     233       0       0       0       0       0       001010001D    155
     142       0       0       1       0                               0D    156
     144     234       0       0   10000       0       0       000000000D    157
     144       0    -119       1       0                PartBody       0D    158
     110     235       0       0       0       0       0       001010001D    159
     110       0       0       1       0                               0D    160
     110     236       0       0       0       0       0       001010001D    161
     110       0       0       2       0                               0D    162
     120     238       0       0       0       0       0       001010001D    163
     120       0    -119       1       0                               0D    164
     126     239       0       0       0       0       0       001010001D    165
     126       0       0       7       0                               0D    166
     126     246       0       0       0       0       0       001010001D    167
     126       0       0       6       0                               0D    168
     110     252       0       0       0       0       0       001010001D    169
     110       0       0       1       0                               0D    170
     124     253       0       0       0       0       0       001020001D    171
     124       0       0       1       0                               0D    172
     100     254       0       0       0       0     171       001010001D    173
     100       0       0       1       0                               0D    174
     110     255       0       0       0       0       0       001010001D    175
     110       0       0       1       0                               0D    176
     124     256       0       0       0       0       0       001020001D    177
     124       0       0       1       0                               0D    178
     100     257       0       0       0       0     177       001010001D    179
     100       0       0       1       0                               0D    180
     110     258       0       0       0       0       0       001010001D    181
     110       0       0       2       0                               0D    182
     102     260       0       0       0       0       0       001010001D    183
     102       0       0       1       0                               0D    184
     142     261       0       0       0       0       0       001010001D    185
     142       0       0       1       0                               0D    186
     144     262       0       0   10000       0       0       000000000D    187
     144       0    -119       1       0                PartBody       0D    188
     108     263       0       0       0       0       0       001010001D    189
     108       0    -119       1       0                               0D    190
     124     264       0       0       0       0       0       001020001D    191
     124       0       0       1       0                               0D    192
     100     265       0       0       0       0     191       001010001D    193
     100       0       0       1       0                               0D    194
     124     266       0       0       0       0       0       001020001D    195
     124       0       0       1       0                               0D    196
     100     267       0       0       0       0     195       001010001D    197
     100       0       0       1       0                               0D    198
     102     268       0       0       0       0       0       001010001D    199
     102       0       0       1       0                               0D    200
     142     269       0       0       0       0       0       001010001D    201
     142       0       0       1       0                               0D    202
     124     270       0       0       0       0       0       001020001D    203
     124       0       0       1       0                               0D    204
     100     271       0       0       0       0     203       001010001D    205
     100       0       0       1       0                               0D    206
     124     272       0       0       0       0       0       001020001D    207
     124       0       0       1       0                               0D    208
     100     273       0       0       0       0     207       001010001D    209
     100       0       0       1       0                               0D    210
     102     274       0       0       0       0       0       001010001D    211
     102       0       0       1       0                               0D    212
     142     275       0       0       0       0       0       001010001D    213
     142       0       0       1       0                               0D    214
     144     276       0       0   10000       0       0       000000000D    215
     144       0    -119       1       0                PartBody       0D    216
     108     277       0       0       0       0       0       001010001D    217
     108       0    -119       1       0                               0D    218
     124     278       0       0       0       0       0       001020001D    219
     124       0       0       1       0                               0D    220
     100     279       0       0       0       0     219       001010001D    221
     100       0       0       1       0                               0D    222
     124     280       0       0       0       0       0       001020001D    223
     124       0       0       1       0                               0D    224
     100     281       0       0       0       0     223       001010001D    225
     100       0       0       1       0                               0D    226
     102     282       0       0       0       0       0       001010001D    227
     102       0       0       1       0                               0D    228
     142     283       0       0       0       0       0       001010001D    229
     142       0       0       1       0                               0D    230
     124     284       0       0       0       0       0       001020001D    231
     124       0       0       1       0                               0D    232
     100     285       0       0       0       0     231       001010001D    233
     100       0       0       1       0                               0D    234
     124     286       0       0       0       0       0       001020001D    235
     124       0       0       1       0                               0D    236
     100     287       0       0       0       0     235       001010001D    237
     100       0       0       1       0                               0D    238
     102     288       0       0       0       0       0       001010001D    239
     102       0       0       1       0                               0D    240
     142     289       0       0       0       0       0       001010001D    241
     142       0       0       1       0                               0D    242
     144     290       0       0   10000       0       0       000000000D    243
     144       0    -119       1       0                PartBody       0D    244
     110     291       0       0       0       0       0       001010001D    245
     110       0       0       1       0                               0D    246
     110     292       0       0       0       0       0       001010001D    247
     110       0       0       1       0                               0D    248
     120     293       0       0       0       0       0       001010001D    249
     120       0      -1       1       0                               0D    250
     126     294       0       0       0       0       0       001010001D    251
     126       0       0      19       0                               0D    252
     110     313       0       0       0       0       0       001010001D    253
     110       0       0       2       0                               0D    254
     126     315       0       0       0       0       0       001010001D    255
     126       0       0      20       0                               0D    256
     110     335       0       0       0       0       0       001010001D    257
     110       0       0       1       0                               0D    258
     102     336       0       0       0       0       0       001010001D    259
     102       0       0       1       0                               0D    260
     142     337       0       0       0       0       0       001010001D    261
     142       0       0       1       0                               0D    262
     144     338       0       0   10000       0       0       000000000D    263
     144       0      -1       1       0                PartBody       0D    264
     110     339       0       0       0       0       0       001010001D    265
     110       0       0       1       0                               0D    266
     110     340       0       0       0       0       0       001010001D    267
     110       0       0       2       0                               0D    268
     120     342       0       0       0       0       0       001010001D    269
     120       0      -1       1       0                               0D    270
     126     343       0       0       0       0       0       001010001D    271
     126       0       0      20       0                               0D    272
     110     363       0       0       0       0       0       001010001D    273
     110       0       0       1       0                               0D    274
     126     364       0       0       0       0       0       001010001D    275
     126       0       0      20       0                               0D    276
     110     384       0       0       0       0       0       001010001D    277
     110       0       0       2       0                               0D    278
     102     386       0       0       0       0       0       001010001D    279
     102       0       0       1       0                               0D    280
     142     387       0       0       0       0       0       001010001D    281
     142       0       0       1       0                               0D    282
     144     388       0       0   10000       0       0       000000000D    283
     144       0      -1       1       0                PartBody       0D    284
314,100.0,88.23529412,0.0,5HColor,0,0;                                 1P      1
110,-7.9375,0.0,0.0,-6.9375,0.0,0.0,0,0;                               3P      2
110,-7.950834499,-1.2295,3.862608923E-012,-4.617745225,-1.2295,        5P      3
3.862608923E-012,0,0;                                                  5P      4
120,3,5,0.0,6.283185307,0,0;                                           7P      5
126,5,5,0,0,1,0,0.0,0.0,0.0,0.0,0.0,0.0,2.809737543,2.809737543,       9P      6
2.809737543,2.809737543,2.809737543,2.809737543,1.0,1.0,1.0,1.0,       9P      7
1.0,1.0,-7.841699813,-1.2295,0.0,-7.841705392,-1.2295,                 9P      8
-0.3867781602,-7.865437811,-1.077266541,-0.7736921047,                 9P      9
-7.914202058,-0.7737098402,-1.077259158,-7.937496795,                  9P     10
-0.3867866385,-1.22949999,-7.937499695,-3.315141262E-008,              9P     11
-1.2295,0.0,2.809737543,0.0,0.0,0.0,0,0;                               9P     12
126,5,5,0,0,1,0,0.0,0.0,0.0,0.0,0.0,0.0,2.809728419,2.809728419,      11P     13
2.809728419,2.809728419,2.809728419,2.809728419,1.0,1.0,1.0,1.0,      11P     14
1.0,1.0,-7.937499695,-3.315141239E-008,-1.2295,-7.937502594,          11P     15
0.3867809052,-1.22950001,-7.91418213,0.7737381211,-1.077235467,       11P     16
-7.865460902,1.077234675,-0.7737282704,-7.84169854,1.2295,            11P     17
-0.3867840546,-7.84169854,1.2295,0.0,0.0,2.809728419,0.0,0.0,         11P     18
0.0,0,0;                                                              11P     19
110,-7.84169854,1.2295,0.0,-4.639863117,1.2295,0.0,0,0;               13P     20
126,5,5,0,0,1,0,0.0,0.0,0.0,0.0,0.0,0.0,2.817605253,2.817605253,      15P     21
2.817605253,2.817605253,2.817605253,2.817605253,1.0,1.0,1.0,1.0,      15P     22
1.0,1.0,-4.639863117,1.2295,0.0,-4.639863117,1.2295,                  15P     23
-0.3877299932,-4.680673464,1.075637928,-0.7749676298,                 15P     24
-4.761266163,0.7750321479,-1.075632764,-4.80000179,0.387725938,       15P     25
-1.229500013,-4.799999889,-4.089451455E-008,-1.2295,0.0,              15P     26
2.817605253,0.0,0.0,0.0,0,0;                                          15P     27
126,5,5,0,0,1,0,0.0,0.0,0.0,0.0,0.0,0.0,2.817623863,2.817623863,      17P     28
2.817623863,2.817623863,2.817623863,2.817623863,1.0,1.0,1.0,1.0,      17P     29
1.0,1.0,-4.799999889,-4.089451244E-008,-1.2295,-4.799997988,          17P     30
-0.3877441158,-1.229499987,-4.761297567,-0.774992484,                 17P     31
-1.075672166,-4.680622429,-1.075715074,-0.7748814403,                 17P     32
-4.639876555,-1.2295,-0.3876965926,-4.639866131,-1.2295,0.0,0.0,      17P     33
2.817623863,0.0,0.0,0.0,0,0;                                          17P     34
110,-4.639866131,-1.2295,0.0,-7.841699813,-1.2295,0.0,0,0;            19P     35
102,6,9,11,13,15,17,19,0,0;                                           21P     36
142,0,7,0,21,2,0,0;                                                   23P     37
144,7,1,0,23,0,0;                                                     25P     38
110,-7.9375,0.0,0.0,-6.9375,0.0,0.0,0,0;                              27P     39
110,-7.95083446,1.2295,0.0,-4.617740397,1.2295,0.0,0,0;               29P     40
120,27,29,0.0,6.283185307,0,0;                                        31P     41
126,5,5,0,0,1,0,0.0,0.0,0.0,0.0,0.0,0.0,2.809735025,2.809735025,      33P     42
2.809735025,2.809735025,2.809735025,2.809735025,1.0,1.0,1.0,1.0,      33P     43
1.0,1.0,-7.84169854,1.2295,0.0,-7.84169854,1.2295,0.3867882944,       33P     44
-7.865446906,1.077249576,0.7736981947,-7.914200707,0.7737297209,      33P     45
1.077257451,-7.937493166,0.3867696709,1.229499992,-7.937497474,       33P     46
2.616427108E-008,1.2295,0.0,2.809735025,0.0,0.0,0.0,0,0;              33P     47
126,5,5,0,0,1,0,0.0,0.0,0.0,0.0,0.0,0.0,2.809728643,2.809728643,      35P     48
2.809728643,2.809728643,2.809728643,2.809728643,1.0,1.0,1.0,1.0,      35P     49
1.0,1.0,-7.937497474,2.616427042E-008,1.2295,-7.937501783,            35P     50
-0.3867666377,1.229500008,-7.914179913,-0.7737558958,                 35P     51
1.077231763,-7.865465502,-1.077229693,0.7737359658,-7.841694234,      35P     52
-1.2295,0.3867737522,-7.841699813,-1.2295,0.0,0.0,2.809728643,        35P     53
0.0,0.0,0.0,0,0;                                                      35P     54
110,-7.841699813,-1.2295,0.0,-4.639866131,-1.2295,0.0,0,0;            37P     55
126,5,5,0,0,1,0,0.0,0.0,0.0,0.0,0.0,0.0,2.817605047,2.817605047,      39P     56
2.817605047,2.817605047,2.817605047,2.817605047,1.0,1.0,1.0,1.0,      39P     57
1.0,1.0,-4.639866131,-1.2295,0.0,-4.639855708,-1.2295,                39P     58
0.3876817527,-4.680693408,-1.075610686,0.7750149624,                  39P     59
-4.761242116,-0.77511279,1.075603686,-4.800003893,-0.3876742008,      39P     60
1.229500169,-4.79999646,5.371636742E-007,1.2295,0.0,2.817605047,      39P     61
0.0,0.0,0.0,0,0;                                                      39P     62
126,5,5,0,0,1,0,0.0,0.0,0.0,0.0,0.0,0.0,2.817618831,2.817618831,      41P     63
2.817618831,2.817618831,2.817618831,2.817618831,1.0,1.0,1.0,1.0,      41P     64
1.0,1.0,-4.79999646,5.371636738E-007,1.2295,-4.799989026,             41P     65
0.3876859031,1.229499831,-4.76129227,0.7750365275,1.075685263,        41P     66
-4.680641248,1.075667096,0.774884801,-4.639863117,1.2295,             41P     67
0.3877438773,-4.639863117,1.2295,0.0,0.0,2.817618831,0.0,0.0,         41P     68
0.0,0,0;                                                              41P     69
110,-4.639863117,1.2295,0.0,-7.84169854,1.2295,0.0,0,0;               43P     70
102,6,33,35,37,39,41,43,0,0;                                          45P     71
142,0,31,0,45,2,0,0;                                                  47P     72
144,31,1,0,47,0,0;                                                    49P     73
110,0.0,0.0,0.0,0.0,0.0,1.0,0,0;                                      51P     74
110,-4.8,1.507972577E-011,-20.0,-4.8,1.507972577E-011,20.0,0,0;       53P     75
120,51,53,0.0,6.283185307,0,0;                                        55P     76
110,-4.799999889,-4.08945146E-008,-1.2295,-4.8,0.0,-20.0,0,0;         57P     77
124,-1.0,0.0,0.0,0.0,0.0,-1.0,0.0,0.0,0.0,0.0,1.0,-20.0,0,0;          59P     78
100,0.0,0.0,0.0,4.8,0.0,-4.8,0.0,0,0;                                 61P     79
110,4.8,0.0,-20.0,4.8,0.0,20.0,0,0;                                   63P     80
124,1.0,0.0,0.0,0.0,0.0,-1.0,0.0,0.0,0.0,0.0,-1.0,20.0,0,0;           65P     81
100,0.0,0.0,0.0,4.8,0.0,-4.8,0.0,0,0;                                 67P     82
110,-4.8,0.0,20.0,-4.79999646,5.371636736E-007,1.2295,0,0;            69P     83
126,5,5,0,0,1,0,0.0,0.0,0.0,0.0,0.0,0.0,2.817802353,2.817802353,      71P     84
2.817802353,2.817802353,2.817802353,2.817802353,1.0,1.0,1.0,1.0,      71P     85
1.0,1.0,-4.8,0.0,1.2295,-4.8,-0.3877020362,1.229499998,               71P     86
-4.76118462,-0.7758395968,1.074341329,-4.680851862,-1.074472038,      71P     87
0.7770323169,-4.639862631,-1.229501835,0.3877089006,                  71P     88
-4.639863315,-1.229499254,0.0,0.0,2.817802353,0.0,0.0,0.0,0,0;        71P     89
126,5,5,0,0,1,0,0.0,0.0,0.0,0.0,0.0,0.0,2.817865343,2.817865343,      73P     90
2.817865343,2.817865343,2.817865343,2.817865343,1.0,1.0,1.0,1.0,      73P     91
1.0,1.0,-4.639863315,-1.229499254,0.0,-4.639863999,-1.229496673,      73P     92
-0.3877298196,-4.680715795,-1.074593523,-0.7754221642,                73P     93
-4.761110239,-0.7769289675,-1.074620837,-4.799999997,                 73P     94
-0.3877773515,-1.229499987,-4.8,-4.089451067E-008,-1.229499999,       73P     95
0.0,2.817865343,0.0,0.0,0.0,0,0;                                      73P     96
102,7,57,61,63,67,69,71,73,0,0;                                       75P     97
142,0,55,0,75,2,0,0;                                                  77P     98
144,55,1,0,77,0,0;                                                    79P     99
110,0.0,0.0,0.0,0.0,0.0,1.0,0,0;                                      81P    100
110,4.8,0.0,-20.0,4.8,0.0,20.0,0,0;                                   83P    101
120,81,83,0.0,6.283185307,0,0;                                        85P    102
110,-4.79999646,5.371636736E-007,1.2295,-4.8,0.0,20.0,0,0;            87P    103
124,-1.0,0.0,0.0,0.0,0.0,1.0,0.0,0.0,0.0,0.0,-1.0,20.0,0,0;           89P    104
100,0.0,0.0,0.0,4.8,0.0,-4.8,0.0,0,0;                                 91P    105
110,4.8,0.0,20.0,4.8,0.0,-20.0,0,0;                                   93P    106
124,1.0,0.0,0.0,0.0,0.0,1.0,0.0,0.0,0.0,0.0,1.0,-20.0,0,0;            95P    107
100,0.0,0.0,0.0,4.8,0.0,-4.8,0.0,0,0;                                 97P    108
110,-4.8,0.0,-20.0,-4.799999889,-4.08945146E-008,-1.2295,0,0;         99P    109
126,5,5,0,0,1,0,0.0,0.0,0.0,0.0,0.0,0.0,2.817800552,2.817800552,     101P    110
2.817800552,2.817800552,2.817800552,2.817800552,1.0,1.0,1.0,1.0,     101P    111
1.0,1.0,-4.8,0.0,-1.229499999,-4.8,0.3877528584,-1.229500012,        101P    112
-4.761192602,0.7757154112,-1.074442989,-4.680851008,1.074515175,     101P    113
-0.7769287555,-4.639863118,1.2295,-0.3877568683,-4.639863118,        101P    114
1.2295,0.0,0.0,2.817800552,0.0,0.0,0.0,0,0;                          101P    115
126,5,5,0,0,1,0,0.0,0.0,0.0,0.0,0.0,0.0,2.817861718,2.817861718,     103P    116
2.817861718,2.817861718,2.817861718,2.817861718,1.0,1.0,1.0,1.0,     103P    117
1.0,1.0,-4.639863118,1.2295,0.0,-4.639863118,1.2295,                 103P    118
0.3877773019,-4.680717855,1.074566312,0.7754727871,-4.76111429,      103P    119
0.7769603263,1.074579568,-4.799999957,0.3877194733,1.22949983,       103P    120
-4.8,5.371640695E-007,1.229499999,0.0,2.817861718,0.0,0.0,0.0,0,     103P    121
0;                                                                   103P    122
102,7,87,91,93,97,99,101,103,0,0;                                    105P    123
142,0,85,0,105,2,0,0;                                                107P    124
126,23,5,0,0,1,0,0.0,0.0,0.0,0.0,0.0,0.0,2.272725657,                109P    125
2.272725657,2.272725657,4.917280241,4.917280241,4.917280241,         109P    126
7.307037222,7.307037222,7.307037222,9.039190293,9.039190293,         109P    127
9.039190293,11.55403409,11.55403409,11.55403409,14.09869305,         109P    128
14.09869305,14.09869305,15.4013914,15.4013914,15.4013914,            109P    129
15.4013914,15.4013914,15.4013914,1.0,1.0,1.0,1.0,1.0,1.0,1.0,        109P    130
1.0,1.0,1.0,1.0,1.0,1.0,1.0,1.0,1.0,1.0,1.0,1.0,1.0,1.0,1.0,1.0,     109P    131
1.0,-3.323499662,3.463286011,7.525086404E-007,-3.323498163,          109P    132
3.463287449,-0.3200579281,-3.284964887,3.500265433,                  109P    133
-0.6399508976,-3.208208001,3.573896914,-0.9469421621,                109P    134
-2.974282498,3.779077854,-1.571041846,-2.607238794,4.042038756,      109P    135
-2.103963636,-2.375275564,4.186150827,-2.363028172,-1.870929195,     109P    136
4.446630195,-2.798162488,-1.256782656,4.648278107,-3.102407983,      109P    137
-0.9425088213,4.724020767,-3.213169917,-0.3742635321,                109P    138
4.807606423,-3.334573029,0.209659545,4.804862169,-3.330494095,       109P    139
0.4538372468,4.787716831,-3.30586105,1.038990954,4.708920002,        109P    140
-3.191905701,1.574015568,4.552071629,-2.957157531,1.864932012,       109P    141
4.437909441,-2.781031773,2.392090925,4.183110491,-2.366316641,       109P    142
2.797441102,3.911211602,-1.840094215,2.970397729,3.777563746,        109P    143
-1.547891937,3.176087114,3.601946499,-1.070335613,3.285615312,       109P    144
3.499657986,-0.5479336195,3.31083866,3.475435988,-0.3669546228,      109P    145
3.3235,3.463285687,-0.1834775139,3.3235,3.463285687,0.0,0.0,         109P    146
15.4013914,0.0,0.0,0.0,0,0;                                          109P    147
126,20,5,0,0,1,0,0.0,0.0,0.0,0.0,0.0,0.0,2.271608958,                111P    148
2.271608958,2.271608958,4.915840616,4.915840616,4.915840616,         111P    149
7.305478835,7.305478835,7.305478835,9.038153579,9.038153579,         111P    150
9.038153579,12.23113805,12.23113805,12.23113805,15.40016248,         111P    151
15.40016248,15.40016248,15.40016248,15.40016248,15.40016248,1.0,     111P    152
1.0,1.0,1.0,1.0,1.0,1.0,1.0,1.0,1.0,1.0,1.0,1.0,1.0,1.0,1.0,1.0,     111P    153
1.0,1.0,1.0,1.0,3.3235,3.463285687,0.0,3.3235,3.463285687,           111P    154
0.3199413044,3.285000512,3.500231253,0.6398813978,3.2079058,         111P    155
3.574157686,0.9475714813,2.974180201,3.779149034,1.571227991,        111P    156
2.607111189,4.04212814,2.104196605,2.375171035,4.186208215,          111P    157
2.363175837,1.870822226,4.446677882,2.798214344,1.256609697,         111P    158
4.648329539,3.102452857,0.9425322363,4.724010144,3.213250957,        111P    159
0.3742793152,4.807610803,3.334630665,-0.2097699886,4.804865772,      111P    160
3.330483037,-0.4539571132,4.787710588,3.30585273,-1.132600282,       111P    161
4.696300021,3.173639799,-1.743838596,4.499900397,2.878975435,        111P    162
-2.095132197,4.341105982,2.630328549,-2.699137347,3.99796843,        111P    163
2.048758829,-3.100156238,3.675965967,1.303767444,-3.248588372,       111P    164
3.535173706,0.8928766499,-3.323501752,3.463284005,0.4462792231,      111P    165
-3.323499662,3.463286011,7.525086403E-007,0.0,15.40016248,0.0,       111P    166
0.0,0.0,0,0;                                                         111P    167
102,2,109,111,0,0;                                                   113P    168
142,0,85,0,113,2,0,0;                                                115P    169
144,85,1,1,107,115,0,0;                                              117P    170
314,20.0,20.0,20.0,5HColor,0,0;                                      119P    171
110,0.0,0.0,0.0,0.0,0.0,1.0,0,0;                                     121P    172
110,7.9375,0.0,-20.0,7.9375,0.0,20.0,0,0;                            123P    173
120,121,123,0.0,6.283185307,0,0;                                     125P    174
126,5,5,0,0,1,0,0.0,0.0,0.0,0.0,0.0,0.0,2.809431797,2.809431797,     127P    175
2.809431797,2.809431797,2.809431797,2.809431797,1.0,1.0,1.0,1.0,     127P    176
1.0,1.0,-7.9375,2.61642845E-008,1.229499999,-7.937499999,            127P    177
0.3867279953,1.229499991,-7.914130271,0.7749710251,1.076743194,      127P    178
-7.865459433,1.076683753,0.7737542717,-7.84169854,1.2295,            127P    179
0.386746552,-7.84169854,1.2295,0.0,0.0,2.809431797,0.0,0.0,0.0,      127P    180
0,0;                                                                 127P    181
126,5,5,0,0,1,0,0.0,0.0,0.0,0.0,0.0,0.0,2.809406123,2.809406123,     129P    182
2.809406123,2.809406123,2.809406123,2.809406123,1.0,1.0,1.0,1.0,     129P    183
1.0,1.0,-7.84169854,1.2295,0.0,-7.84169854,1.2295,-0.3867396876,     129P    184
-7.865521522,1.076701374,-0.774996431,-7.914178265,0.7738273823,     129P    185
-1.076639886,-7.9375,0.3867365796,-1.22950001,-7.9375,0.0,           129P    186
-1.229499999,0.0,2.809406123,0.0,0.0,0.0,0,0;                        129P    187
110,-7.937499695,-3.315141147E-008,-1.2295,-7.9375,0.0,-20.0,0,      131P    188
0;                                                                   131P    189
124,-1.0,0.0,0.0,0.0,0.0,1.0,0.0,0.0,0.0,0.0,-1.0,-20.0,0,0;         133P    190
100,0.0,0.0,0.0,7.9375,0.0,-7.9375,0.0,0,0;                          135P    191
110,7.9375,0.0,-20.0,7.9375,0.0,20.0,0,0;                            137P    192
124,1.0,0.0,0.0,0.0,0.0,1.0,0.0,0.0,0.0,0.0,1.0,20.0,0,0;            139P    193
100,0.0,0.0,0.0,7.9375,0.0,-7.9375,0.0,0,0;                          141P    194
110,-7.9375,0.0,20.0,-7.937497474,2.616427112E-008,1.2295,0,0;       143P    195
102,7,127,129,131,135,137,141,143,0,0;                               145P    196
142,0,125,0,145,2,0,0;                                               147P    197
126,17,5,0,0,1,0,0.0,0.0,0.0,0.0,0.0,0.0,2.488061457,                149P    198
2.488061457,2.488061457,7.528389833,7.528389833,7.528389833,         149P    199
9.998393349,9.998393349,9.998393349,12.56980864,12.56980864,         149P    200
12.56980864,15.029439,15.029439,15.029439,15.029439,15.029439,       149P    201
15.029439,1.0,1.0,1.0,1.0,1.0,1.0,1.0,1.0,1.0,1.0,1.0,1.0,1.0,       149P    202
1.0,1.0,1.0,1.0,1.0,-3.323498204,7.208208234,0.0,-3.323499833,       149P    203
7.208207483,0.3497243451,-3.277503103,7.229415256,0.6995008008,      149P    204
-3.185374977,7.271956434,1.039333414,-2.780723594,7.446818898,       149P    205
2.01121233,-2.032024057,7.703365376,2.766932117,-1.408361616,        149P    206
7.860202806,3.1389359,-0.3508619221,7.976678398,3.417016205,         149P    207
0.7039299942,7.917650571,3.276145038,1.040984292,7.87931262,         149P    208
3.184564216,1.692979342,7.770309901,2.912909649,2.247806442,         149P    209
7.620543475,2.486386618,2.499369493,7.539417063,2.233249145,         149P    210
2.921091416,7.386258476,1.678259491,3.188632488,7.270455083,         149P    211
1.027386898,3.278526681,7.228943328,0.6915919175,3.3235,             149P    212
7.208207405,0.3457962815,3.3235,7.208207405,0.0,0.0,15.029439,       149P    213
0.0,0.0,0.0,0,0;                                                     149P    214
126,17,5,0,0,1,0,0.0,0.0,0.0,0.0,0.0,0.0,2.488036546,                151P    215
2.488036546,2.488036546,7.523620339,7.523620339,7.523620339,         151P    216
9.992264833,9.992264833,9.992264833,12.56247286,12.56247286,         151P    217
12.56247286,15.02082009,15.02082009,15.02082009,15.02082009,         151P    218
15.02082009,15.02082009,1.0,1.0,1.0,1.0,1.0,1.0,1.0,1.0,1.0,1.0,     151P    219
1.0,1.0,1.0,1.0,1.0,1.0,1.0,1.0,3.3235,7.208207405,0.0,3.3235,       151P    220
7.208207405,-0.3499570487,3.27743792,7.229445324,-0.6999134288,      151P    221
3.185810127,7.271762866,-1.039325351,2.781333019,7.446605437,        151P    222
-2.01125125,2.031332225,7.70363697,-2.767117376,1.407775559,         151P    223
7.860214352,-3.138913823,0.3510217591,7.97664724,-3.417000464,       151P    224
-0.7036745677,7.917678672,-3.276155881,-1.040869931,7.879324251,     151P    225
-3.184556241,-1.69277963,7.77034848,-2.913082861,-2.247497217,       151P    226
7.620631705,-2.486674797,-2.499272386,7.539449407,-2.233344791,      151P    227
-2.920990402,7.386298065,-1.678431291,-3.188523948,7.270502471,      151P    228
-1.027655328,-3.278545805,7.228934496,-0.6913737691,                 151P    229
-3.323496593,7.208208976,-0.3457128985,-3.323498204,7.208208234,     151P    230
0.0,0.0,15.02082009,0.0,0.0,0.0,0,0;                                 151P    231
102,2,149,151,0,0;                                                   153P    232
142,0,125,0,153,2,0,0;                                               155P    233
144,125,1,1,147,155,0,0;                                             157P    234
110,0.0,0.0,0.0,0.0,0.0,1.0,0,0;                                     159P    235
110,-7.9375,2.493652569E-011,-20.0,-7.9375,2.493652569E-011,         161P    236
20.0,0,0;                                                            161P    237
120,159,161,0.0,6.283185307,0,0;                                     163P    238
126,5,5,0,0,1,0,0.0,0.0,0.0,0.0,0.0,0.0,2.809433718,2.809433718,     165P    239
2.809433718,2.809433718,2.809433718,2.809433718,1.0,1.0,1.0,1.0,     165P    240
1.0,1.0,-7.9375,-3.315141583E-008,-1.229499999,-7.937499998,         165P    241
-0.386744822,-1.229499989,-7.914130405,-0.7749512597,                165P    242
-1.076766122,-7.86545875,-1.076696449,-0.7737297556,                 165P    243
-7.841698705,-1.229498952,-0.3867363368,-7.841698571,                165P    244
-1.229499805,0.0,0.0,2.809433718,0.0,0.0,0.0,0,0;                    165P    245
126,5,5,0,0,1,0,0.0,0.0,0.0,0.0,0.0,0.0,2.80940675,2.80940675,       167P    246
2.80940675,2.80940675,2.80940675,2.80940675,1.0,1.0,1.0,1.0,1.0,     167P    247
1.0,-7.841698571,-1.229499805,0.0,-7.841698437,-1.229500659,         167P    248
0.386729442,-7.865520375,-1.076700226,0.7750184532,-7.914177979,     167P    249
-0.7738519313,1.076613455,-7.9375,-0.3867224193,1.2295,-7.9375,      167P    250
0.0,1.2295,0.0,2.80940675,0.0,0.0,0.0,0,0;                           167P    251
110,-7.937497474,2.616427112E-008,1.2295,-7.9375,0.0,20.0,0,0;       169P    252
124,-1.0,0.0,0.0,0.0,0.0,-1.0,0.0,0.0,0.0,0.0,1.0,20.0,0,0;          171P    253
100,0.0,0.0,0.0,7.9375,0.0,-7.9375,0.0,0,0;                          173P    254
110,7.9375,0.0,20.0,7.9375,0.0,-20.0,0,0;                            175P    255
124,1.0,0.0,0.0,0.0,0.0,-1.0,0.0,0.0,0.0,0.0,-1.0,-20.0,0,0;         177P    256
100,0.0,0.0,0.0,7.9375,0.0,-7.9375,0.0,0,0;                          179P    257
110,-7.9375,0.0,-20.0,-7.937499695,-3.315141147E-008,-1.2295,0,      181P    258
0;                                                                   181P    259
102,7,165,167,169,173,175,179,181,0,0;                               183P    260
142,0,163,0,183,2,0,0;                                               185P    261
144,163,1,0,185,0,0;                                                 187P    262
108,0.0,0.0,1.0,20.0,0,0.0,0.0,20.0,1.0,0,0;                         189P    263
124,1.0,0.0,0.0,0.0,0.0,-1.0,0.0,0.0,0.0,0.0,-1.0,20.0,0,0;          191P    264
100,0.0,0.0,0.0,7.9375,0.0,-7.9375,0.0,0,0;                          193P    265
124,-1.0,0.0,0.0,0.0,0.0,1.0,0.0,0.0,0.0,0.0,-1.0,20.0,0,0;          195P    266
100,0.0,0.0,0.0,7.9375,0.0,-7.9375,0.0,0,0;                          197P    267
102,2,193,197,0,0;                                                   199P    268
142,0,189,0,199,2,0,0;                                               201P    269
124,1.0,0.0,0.0,0.0,0.0,1.0,0.0,0.0,0.0,0.0,1.0,20.0,0,0;            203P    270
100,0.0,0.0,0.0,4.800000001,0.0,-4.800000001,0.0,0,0;                205P    271
124,-1.0,0.0,0.0,0.0,0.0,-1.0,0.0,0.0,0.0,0.0,1.0,20.0,0,0;          207P    272
100,0.0,0.0,0.0,4.800000001,0.0,-4.800000001,0.0,0,0;                209P    273
102,2,205,209,0,0;                                                   211P    274
142,0,189,0,211,2,0,0;                                               213P    275
144,189,1,1,201,213,0,0;                                             215P    276
108,0.0,0.0,1.0,-20.0,0,0.0,0.0,-20.0,1.0,0,0;                       217P    277
124,1.0,0.0,0.0,0.0,0.0,1.0,0.0,0.0,0.0,0.0,1.0,-20.0,0,0;           219P    278
100,0.0,0.0,0.0,7.9375,0.0,-7.9375,0.0,0,0;                          221P    279
124,-1.0,0.0,0.0,0.0,0.0,-1.0,0.0,0.0,0.0,0.0,1.0,-20.0,0,0;         223P    280
100,0.0,0.0,0.0,7.9375,0.0,-7.9375,0.0,0,0;                          225P    281
102,2,221,225,0,0;                                                   227P    282
142,0,217,0,227,2,0,0;                                               229P    283
124,1.0,0.0,0.0,0.0,0.0,-1.0,0.0,0.0,0.0,0.0,-1.0,-20.0,0,0;         231P    284
100,0.0,0.0,0.0,4.800000001,0.0,-4.800000001,0.0,0,0;                233P    285
124,-1.0,0.0,0.0,0.0,0.0,1.0,0.0,0.0,0.0,0.0,-1.0,-20.0,0,0;         235P    286
100,0.0,0.0,0.0,4.800000001,0.0,-4.800000001,0.0,0,0;                237P    287
102,2,233,237,0,0;                                                   239P    288
142,0,217,0,239,2,0,0;                                               241P    289
144,217,1,1,229,241,0,0;                                             243P    290
110,0.0,7.9375,0.0,0.0,6.9375,0.0,0,0;                               245P    291
110,3.3235,7.970644174,0.0,3.3235,3.376496556,0.0,0,0;               247P    292
120,245,247,0.0,6.283185307,0,0;                                     249P    293
126,20,5,0,0,1,0,0.0,0.0,0.0,0.0,0.0,0.0,3.743491252,                251P    294
3.743491252,3.743491252,6.885835082,6.885835082,6.885835082,         251P    295
9.338330993,9.338330993,9.338330993,11.26910221,11.26910221,         251P    296
11.26910221,13.19987344,13.19987344,13.19987344,15.05825497,         251P    297
15.05825497,15.05825497,15.05825497,15.05825497,15.05825497,1.0,     251P    298
1.0,1.0,1.0,1.0,1.0,1.0,1.0,1.0,1.0,1.0,1.0,1.0,1.0,1.0,1.0,1.0,     251P    299
1.0,1.0,1.0,1.0,3.3235,7.208207406,0.0,3.3235,7.208207406,           251P    300
0.5262926406,3.219323701,7.256240147,1.052584888,3.01027318,         251P    301
7.352631681,1.545637611,2.473668079,7.563211891,2.344218287,         251P    302
1.696929876,7.767820825,2.907108077,1.299899164,7.847573559,         251P    303
3.106406475,0.5419301119,7.943249877,3.338281461,-0.2519969517,      251P    304
7.945065202,3.341137473,-0.5974518989,7.926004771,3.296640473,       251P    305
-1.195116599,7.860056232,3.13888242,-1.734463092,7.751198959,        251P    306
2.853925293,-1.954841806,7.697690436,2.706871847,-2.361226953,       251P    307
7.584365961,2.375106682,-2.695060411,7.468719535,1.971031074,        251P    308
-2.843144657,7.412889061,1.751932793,-3.091862373,7.312612976,       251P    309
1.28830562,-3.246316556,7.243826949,0.7802668116,-3.297836634,       251P    310
7.220034713,0.5224611864,-3.3235,7.20820893,0.2612159216,            251P    311
-3.3235,7.20821213,0.0,0.0,15.05825497,0.0,0.0,0.0,0,0;              251P    312
110,-3.3235,7.20821213,0.0,-3.323499662,3.463286011,                 253P    313
7.525086404E-007,0,0;                                                253P    314
126,20,5,0,0,1,0,0.0,0.0,0.0,0.0,0.0,0.0,2.509639979,                255P    315
2.509639979,2.509639979,4.515450501,4.515450501,4.515450501,         255P    316
7.523127561,7.523127561,7.523127561,9.864628783,9.864628783,         255P    317
9.864628783,13.1211847,13.1211847,13.1211847,15.39192454,            255P    318
15.39192454,15.39192454,15.39192454,15.39192454,15.39192454,1.0,     255P    319
1.0,1.0,1.0,1.0,1.0,1.0,1.0,1.0,1.0,1.0,1.0,1.0,1.0,1.0,1.0,1.0,     255P    320
1.0,1.0,1.0,1.0,-3.3235,3.463286011,7.516184478E-007,                255P    321
-3.32349992,3.463284422,0.3534212996,-3.276521473,3.508369725,       255P    322
0.7070420318,-3.182945577,3.597586508,1.042449608,-2.948979427,      255P    323
3.799135054,1.604202952,-2.605973864,4.037755481,2.087436349,        255P    324
-2.433758155,4.145494594,2.286014222,-1.955029657,4.407739297,       255P    325
2.739502535,-1.363008215,4.626756,3.07200517,-0.9686803278,          255P    326
4.729519286,3.221635797,-0.2226402343,4.832157255,3.369984898,       255P    327
0.5350300441,4.787410688,3.305295641,0.8583913232,4.738725674,       255P    328
3.2353806,1.591253181,4.565040809,2.980514859,2.203600758,           255P    329
4.289517108,2.54361399,2.513516555,4.10853972,2.235521163,           255P    330
2.94503213,3.804731451,1.649022207,3.207811125,3.574230128,          255P    331
0.9477847399,3.285029967,3.500202988,0.6396369855,3.3235,            255P    332
3.463285686,0.319818894,3.3235,3.463285686,0.0,0.0,15.39192454,      255P    333
0.0,0.0,0.0,0,0;                                                     255P    334
110,3.3235,3.463285687,0.0,3.3235,7.208207406,0.0,0,0;               257P    335
102,4,251,253,255,257,0,0;                                           259P    336
142,0,249,0,259,2,0,0;                                               261P    337
144,249,1,0,261,0,0;                                                 263P    338
110,0.0,7.9375,0.0,0.0,6.9375,0.0,0,0;                               265P    339
110,-3.3235,7.972051186,1.044272624E-011,-3.3235,3.376492967,        267P    340
1.044272624E-011,0,0;                                                267P    341
120,265,267,0.0,6.283185307,0,0;                                     269P    342
126,20,5,0,0,1,0,0.0,0.0,0.0,0.0,0.0,0.0,2.456651535,                271P    343
2.456651535,2.456651535,5.652798433,5.652798433,5.652798433,         271P    344
9.977896052,9.977896052,9.977896052,11.289854,11.289854,             271P    345
11.289854,12.60181195,12.60181195,12.60181195,15.08989498,           271P    346
15.08989498,15.08989498,15.08989498,15.08989498,15.08989498,1.0,     271P    347
1.0,1.0,1.0,1.0,1.0,1.0,1.0,1.0,1.0,1.0,1.0,1.0,1.0,1.0,1.0,1.0,     271P    348
1.0,1.0,1.0,1.0,-3.3235,7.20821213,0.0,-3.3235,7.208216361,          271P    349
-0.3454744355,-3.278610356,7.228911518,-0.6908973897,                271P    350
-3.188346582,7.270580428,-1.028096497,-2.887536091,7.400765336,      271P    351
-1.759618058,-2.391899991,7.578155588,-2.37001093,-2.056687013,      271P    352
7.680482466,-2.666802766,-1.163154143,7.889952379,-3.224112602,      271P    353
-0.09574500764,7.974259759,-3.40774796,0.5273437257,7.955585625,     271P    354
-3.366944746,1.298698305,7.852100438,-3.131225993,1.948852247,       271P    355
7.696831935,-2.701262897,2.088804765,7.659711784,-2.593795244,       271P    356
2.350702902,7.584157668,-2.365395451,2.580624664,7.507468008,        271P    357
-2.10504179,2.688867943,7.469212314,-1.965889342,2.981110902,        271P    358
7.359879852,-1.530022577,3.185452186,7.271666122,-1.039179737,       271P    359
3.27743617,7.229446116,-0.6999269936,3.3235,7.208207406,             271P    360
-0.3499635874,3.3235,7.208207406,0.0,0.0,15.08989498,0.0,0.0,        271P    361
0.0,0,0;                                                             271P    362
110,3.3235,7.208207406,0.0,3.3235,3.463285687,0.0,0,0;               273P    363
126,20,5,0,0,1,0,0.0,0.0,0.0,0.0,0.0,0.0,2.510289691,                275P    364
2.510289691,2.510289691,4.515579307,4.515579307,4.515579307,         275P    365
6.948623753,6.948623753,6.948623753,10.49202711,10.49202711,         275P    366
10.49202711,13.13731218,13.13731218,13.13731218,15.40973966,         275P    367
15.40973966,15.40973966,15.40973966,15.40973966,15.40973966,1.0,     275P    368
1.0,1.0,1.0,1.0,1.0,1.0,1.0,1.0,1.0,1.0,1.0,1.0,1.0,1.0,1.0,1.0,     275P    369
1.0,1.0,1.0,1.0,3.3235,3.463285686,0.0,3.3235,3.463285686,           275P    370
-0.353559757,3.276484616,3.508403381,-0.7071185082,3.182775961,      275P    371
3.598000634,-1.04297425,2.94875852,3.799234294,-1.604606971,         275P    372
2.605660387,4.037960077,-2.087818205,2.43342029,4.145685823,         275P    373
-2.286359723,2.009583383,4.377821235,-2.687749596,1.496960829,       275P    374
4.576073824,-2.994328891,1.190207858,4.667648128,-3.130607081,       275P    375
0.3887964782,4.829947561,-3.368051425,-0.4733576123,4.817991382,     275P    376
-3.348545937,-0.9696235755,4.737499562,-3.235173017,                 275P    377
-1.755407707,4.506349979,-2.89773229,-2.375441204,4.186046374,       275P    378
-2.36295497,-2.607089224,4.042082635,-2.104117395,-2.974286407,      275P    379
3.779178932,-1.571173836,-3.208094717,3.573843065,-0.9470081452,     275P    380
-3.284982364,3.50025586,-0.6398684188,-3.3235,3.463287519,           275P    381
-0.3200167055,-3.3235,3.463286011,0.0,0.0,15.40973966,0.0,0.0,       275P    382
0.0,0,0;                                                             275P    383
110,-3.323499662,3.463286011,7.525086404E-007,-3.3235,               277P    384
7.20821213,0.0,0,0;                                                  277P    385
102,4,271,273,275,277,0,0;                                           279P    386
142,0,269,0,279,2,0,0;                                               281P    387
144,269,1,0,281,0,0;                                                 283P    388
S      1G      5D    284P    388                                        T      1
