ISO-10303-21;
HEADER;
FILE_DESCRIPTION(('CATIA V5 STEP Exchange','CAx-IF Rec.Pracs.--- Model Styling and Organization---1.4--- 2014-01-23','CAx-IF Rec.Pracs.---3D Tessellated Data Validation Properties---0.5---2014-09-14'),'2;1');

FILE_NAME('D:\\GrabCAD\\I+D\\SERIE_LEXA\\EKOT-1360-170921A-LEXA_WAIST_SUPPORT\\V.06\\3D\\1360.000.004.001.SIMETRIA_BISAGRA.stp','2025-11-25T16:07:17+00:00',('none'),('none'),'CATIA Version 5-6 Release 2018 SP6','CATIA V5 STEP AP242','none');

FILE_SCHEMA(('AP242_MANAGED_MODEL_BASED_3D_ENGINEERING_MIM_LF  {1 0 10303 442 1 1 4}'));

ENDSEC;
DATA;
#5=PRODUCT('Symmetry of 1360.000.004.001.BISAGRA','','',(#2)) ;
#2=PRODUCT_CONTEXT(' ',#1,'mechanical') ;
#1=APPLICATION_CONTEXT('managed model based 3d engineering') ;
#10=PRODUCT_DEFINITION('',' ',#6,#3) ;
#3=PRODUCT_DEFINITION_CONTEXT('part definition',#1,' ') ;
#11=PRODUCT_DEFINITION_SHAPE(' ',' ',#10) ;
#1003=MECHANICAL_DESIGN_GEOMETRIC_PRESENTATION_REPRESENTATION(' ',(#29),#16) ;
#19=SHAPE_REPRESENTATION(' ',(#18),#16) ;
#7=PRODUCT_CATEGORY('part','specification') ;
#17=CARTESIAN_POINT(' ',(0.,0.,0.)) ;
#31=CARTESIAN_POINT('Axis2P3D Location',(10.5,-18.1865334795,3.175)) ;
#36=CARTESIAN_POINT('Axis2P3D Location',(10.5,-18.1865334795,3.175)) ;
#40=CARTESIAN_POINT('Vertex',(11.7,-18.1865334795,3.175)) ;
#42=CARTESIAN_POINT('Vertex',(9.3,-18.1865334795,3.175)) ;
#45=CARTESIAN_POINT('Line Origine',(11.7,-18.1865334795,-1.66999999998)) ;
#49=CARTESIAN_POINT('Vertex',(11.7,-18.1865334795,0.)) ;
#52=CARTESIAN_POINT('Axis2P3D Location',(10.5,-18.1865334795,0.)) ;
#56=CARTESIAN_POINT('Vertex',(9.3,-18.1865334795,8.881784197E-016)) ;
#59=CARTESIAN_POINT('Line Origine',(9.3,-18.1865334795,-1.66999999998)) ;
#71=CARTESIAN_POINT('Axis2P3D Location',(10.5,-18.1865334795,3.175)) ;
#76=CARTESIAN_POINT('Axis2P3D Location',(10.5,-18.1865334795,0.)) ;
#88=CARTESIAN_POINT('Axis2P3D Location',(0.,0.,1.5875)) ;
#93=CARTESIAN_POINT('Axis2P3D Location',(0.,0.,3.175)) ;
#97=CARTESIAN_POINT('Vertex',(20.8928571429,15.4754166473,3.175)) ;
#99=CARTESIAN_POINT('Vertex',(-25.3336216844,5.84872741294,3.175)) ;
#102=CARTESIAN_POINT('Line Origine',(-25.3336216844,5.84872741294,1.5875)) ;
#106=CARTESIAN_POINT('Vertex',(-25.3336216844,5.84872741294,0.)) ;
#109=CARTESIAN_POINT('Axis2P3D Location',(0.,0.,0.)) ;
#113=CARTESIAN_POINT('Vertex',(20.8928571429,15.4754166473,0.)) ;
#116=CARTESIAN_POINT('Line Origine',(20.8928571429,15.4754166473,1.5875)) ;
#128=CARTESIAN_POINT('Axis2P3D Location',(45.,33.331666625,1.5875)) ;
#133=CARTESIAN_POINT('Axis2P3D Location',(45.,33.331666625,3.175)) ;
#137=CARTESIAN_POINT('Vertex',(15.,33.331666625,3.175)) ;
#140=CARTESIAN_POINT('Axis2P3D Location',(45.,33.331666625,0.)) ;
#144=CARTESIAN_POINT('Vertex',(15.,33.331666625,0.)) ;
#147=CARTESIAN_POINT('Line Origine',(15.,33.331666625,1.5875)) ;
#159=CARTESIAN_POINT('Axis2P3D Location',(-5.5,40.1,0.)) ;
#164=CARTESIAN_POINT('Line Origine',(-5.5,40.1,1.5875)) ;
#168=CARTESIAN_POINT('Vertex',(-5.5,40.1,0.)) ;
#170=CARTESIAN_POINT('Vertex',(-5.5,40.1,3.175)) ;
#173=CARTESIAN_POINT('Line Origine',(-5.5,41.85,0.)) ;
#177=CARTESIAN_POINT('Vertex',(-5.5,43.6,0.)) ;
#180=CARTESIAN_POINT('Line Origine',(-5.5,43.6,1.5875)) ;
#184=CARTESIAN_POINT('Vertex',(-5.5,43.6,3.175)) ;
#187=CARTESIAN_POINT('Line Origine',(-5.5,41.85,3.175)) ;
#199=CARTESIAN_POINT('Axis2P3D Location',(8.5,43.6,0.)) ;
#204=CARTESIAN_POINT('Line Origine',(1.5,43.6,0.)) ;
#208=CARTESIAN_POINT('Vertex',(8.5,43.6,0.)) ;
#211=CARTESIAN_POINT('Line Origine',(8.5,43.6,1.5875)) ;
#215=CARTESIAN_POINT('Vertex',(8.5,43.6,3.175)) ;
#218=CARTESIAN_POINT('Line Origine',(1.5,43.6,3.175)) ;
#230=CARTESIAN_POINT('Axis2P3D Location',(8.5,43.6,0.)) ;
#235=CARTESIAN_POINT('Line Origine',(8.5,41.85,0.)) ;
#239=CARTESIAN_POINT('Vertex',(8.5,40.1,0.)) ;
#242=CARTESIAN_POINT('Line Origine',(8.5,40.1,1.5875)) ;
#246=CARTESIAN_POINT('Vertex',(8.5,40.1,3.175)) ;
#249=CARTESIAN_POINT('Line Origine',(8.5,41.85,3.175)) ;
#261=CARTESIAN_POINT('Axis2P3D Location',(-5.5,40.1,0.)) ;
#266=CARTESIAN_POINT('Line Origine',(1.5,40.1,0.)) ;
#271=CARTESIAN_POINT('Line Origine',(1.5,40.1,3.175)) ;
#283=CARTESIAN_POINT('Axis2P3D Location',(0.,0.,1.5875)) ;
#288=CARTESIAN_POINT('Line Origine',(15.,0.,1.5875)) ;
#292=CARTESIAN_POINT('Vertex',(15.,0.,0.)) ;
#294=CARTESIAN_POINT('Vertex',(15.,0.,3.175)) ;
#297=CARTESIAN_POINT('Axis2P3D Location',(0.,0.,0.)) ;
#301=CARTESIAN_POINT('Vertex',(-15.,-8.49830834647E-015,0.)) ;
#304=CARTESIAN_POINT('Line Origine',(-15.,-8.49830834647E-015,1.5875)) ;
#308=CARTESIAN_POINT('Vertex',(-15.,-8.49830834647E-015,3.175)) ;
#311=CARTESIAN_POINT('Axis2P3D Location',(0.,0.,3.175)) ;
#323=CARTESIAN_POINT('Axis2P3D Location',(0.,0.,0.)) ;
#328=CARTESIAN_POINT('Axis2P3D Location',(0.,0.,3.175)) ;
#340=CARTESIAN_POINT('Axis2P3D Location',(-10.5,-18.1865334795,3.175)) ;
#345=CARTESIAN_POINT('Axis2P3D Location',(-10.5,-18.1865334795,3.175)) ;
#349=CARTESIAN_POINT('Vertex',(-9.9,-19.225763964,3.175)) ;
#351=CARTESIAN_POINT('Vertex',(-11.1,-17.1473029949,3.175)) ;
#354=CARTESIAN_POINT('Line Origine',(-9.9,-19.225763964,-1.66999999998)) ;
#358=CARTESIAN_POINT('Vertex',(-9.9,-19.225763964,0.)) ;
#361=CARTESIAN_POINT('Axis2P3D Location',(-10.5,-18.1865334795,0.)) ;
#365=CARTESIAN_POINT('Vertex',(-11.1,-17.1473029949,0.)) ;
#368=CARTESIAN_POINT('Line Origine',(-11.1,-17.1473029949,-1.66999999998)) ;
#380=CARTESIAN_POINT('Axis2P3D Location',(-10.5,-18.1865334795,3.175)) ;
#385=CARTESIAN_POINT('Axis2P3D Location',(-10.5,-18.1865334795,0.)) ;
#397=CARTESIAN_POINT('Axis2P3D Location',(-21.,-4.12205039113E-016,3.175)) ;
#402=CARTESIAN_POINT('Axis2P3D Location',(-21.,-4.12205039113E-016,3.175)) ;
#406=CARTESIAN_POINT('Vertex',(-21.6,-1.03923048454,3.175)) ;
#408=CARTESIAN_POINT('Vertex',(-20.4,1.03923048454,3.175)) ;
#411=CARTESIAN_POINT('Line Origine',(-21.6,-1.03923048454,-1.66999999998)) ;
#415=CARTESIAN_POINT('Vertex',(-21.6,-1.03923048454,0.)) ;
#418=CARTESIAN_POINT('Axis2P3D Location',(-21.,-4.12205039113E-016,0.)) ;
#422=CARTESIAN_POINT('Vertex',(-20.4,1.03923048454,0.)) ;
#425=CARTESIAN_POINT('Line Origine',(-20.4,1.03923048454,-1.66999999998)) ;
#437=CARTESIAN_POINT('Axis2P3D Location',(-21.,-4.12205039113E-016,3.175)) ;
#442=CARTESIAN_POINT('Axis2P3D Location',(-21.,-4.12205039113E-016,0.)) ;
#454=CARTESIAN_POINT('Axis2P3D Location',(-10.5,18.1865334795,3.175)) ;
#459=CARTESIAN_POINT('Axis2P3D Location',(-10.5,18.1865334795,3.175)) ;
#463=CARTESIAN_POINT('Vertex',(-11.7,18.1865334795,3.175)) ;
#465=CARTESIAN_POINT('Vertex',(-9.3,18.1865334795,3.175)) ;
#468=CARTESIAN_POINT('Line Origine',(-11.7,18.1865334795,-1.66999999998)) ;
#472=CARTESIAN_POINT('Vertex',(-11.7,18.1865334795,0.)) ;
#475=CARTESIAN_POINT('Axis2P3D Location',(-10.5,18.1865334795,0.)) ;
#479=CARTESIAN_POINT('Vertex',(-9.3,18.1865334795,0.)) ;
#482=CARTESIAN_POINT('Line Origine',(-9.3,18.1865334795,-1.66999999998)) ;
#494=CARTESIAN_POINT('Axis2P3D Location',(-10.5,18.1865334795,3.175)) ;
#499=CARTESIAN_POINT('Axis2P3D Location',(-10.5,18.1865334795,0.)) ;
#511=CARTESIAN_POINT('Axis2P3D Location',(10.5,18.1865334795,3.175)) ;
#516=CARTESIAN_POINT('Axis2P3D Location',(10.5,18.1865334795,3.175)) ;
#520=CARTESIAN_POINT('Vertex',(9.9,19.225763964,3.175)) ;
#522=CARTESIAN_POINT('Vertex',(11.1,17.1473029949,3.175)) ;
#525=CARTESIAN_POINT('Line Origine',(9.9,19.225763964,-1.66999999998)) ;
#529=CARTESIAN_POINT('Vertex',(9.9,19.225763964,0.)) ;
#532=CARTESIAN_POINT('Axis2P3D Location',(10.5,18.1865334795,0.)) ;
#536=CARTESIAN_POINT('Vertex',(11.1,17.1473029949,0.)) ;
#539=CARTESIAN_POINT('Line Origine',(11.1,17.1473029949,-1.66999999998)) ;
#551=CARTESIAN_POINT('Axis2P3D Location',(10.5,18.1865334795,3.175)) ;
#556=CARTESIAN_POINT('Axis2P3D Location',(10.5,18.1865334795,0.)) ;
#568=CARTESIAN_POINT('Axis2P3D Location',(21.,1.46230597543E-014,3.175)) ;
#573=CARTESIAN_POINT('Axis2P3D Location',(21.,1.46230597543E-014,3.175)) ;
#577=CARTESIAN_POINT('Vertex',(21.6,1.03923048454,3.175)) ;
#579=CARTESIAN_POINT('Vertex',(20.4,-1.03923048454,3.175)) ;
#582=CARTESIAN_POINT('Line Origine',(21.6,1.03923048454,-1.66999999998)) ;
#586=CARTESIAN_POINT('Vertex',(21.6,1.03923048454,0.)) ;
#589=CARTESIAN_POINT('Axis2P3D Location',(21.,1.46230597543E-014,-8.881784197E-016)) ;
#593=CARTESIAN_POINT('Vertex',(20.4,-1.03923048454,0.)) ;
#596=CARTESIAN_POINT('Line Origine',(20.4,-1.03923048454,-1.66999999998)) ;
#608=CARTESIAN_POINT('Axis2P3D Location',(21.,1.46230597543E-014,3.175)) ;
#613=CARTESIAN_POINT('Axis2P3D Location',(21.,1.46230597543E-014,-8.881784197E-016)) ;
#625=CARTESIAN_POINT('Axis2P3D Location',(0.,0.,0.)) ;
#630=CARTESIAN_POINT('Line Origine',(15.,37.9337825049,0.)) ;
#634=CARTESIAN_POINT('Vertex',(15.,42.5358983849,0.)) ;
#637=CARTESIAN_POINT('Line Origine',(-21.1033501142,24.172046661,0.)) ;
#641=CARTESIAN_POINT('Vertex',(-16.873078544,42.4953659091,0.)) ;
#644=CARTESIAN_POINT('Axis2P3D Location',(-14.9243384144,42.0454638004,0.)) ;
#648=CARTESIAN_POINT('Vertex',(-15.2250224038,44.0227319002,0.)) ;
#651=CARTESIAN_POINT('Axis2P3D Location',(-15.5257063931,46.,0.)) ;
#655=CARTESIAN_POINT('Vertex',(-13.5257063931,46.,0.)) ;
#658=CARTESIAN_POINT('Line Origine',(-13.5257063931,48.5,0.)) ;
#662=CARTESIAN_POINT('Vertex',(-13.5257063931,51.,2.22044604925E-016)) ;
#665=CARTESIAN_POINT('Line Origine',(-0.262853196552,51.,0.)) ;
#669=CARTESIAN_POINT('Vertex',(13.,51.,4.4408920985E-016)) ;
#672=CARTESIAN_POINT('Line Origine',(13.,48.5,0.)) ;
#676=CARTESIAN_POINT('Vertex',(13.,46.,0.)) ;
#679=CARTESIAN_POINT('Axis2P3D Location',(15.,46.,0.)) ;
#683=CARTESIAN_POINT('Vertex',(14.,44.2679491924,0.)) ;
#686=CARTESIAN_POINT('Axis2P3D Location',(13.,42.5358983849,0.)) ;
#739=CARTESIAN_POINT('Axis2P3D Location',(15.,33.331666625,0.)) ;
#744=CARTESIAN_POINT('Line Origine',(15.,37.9337825049,3.175)) ;
#748=CARTESIAN_POINT('Vertex',(15.,42.5358983849,3.175)) ;
#751=CARTESIAN_POINT('Line Origine',(15.,42.5358983849,1.5875)) ;
#763=CARTESIAN_POINT('Axis2P3D Location',(13.,42.5358983849,1.5875)) ;
#768=CARTESIAN_POINT('Line Origine',(14.,44.2679491924,1.5875)) ;
#772=CARTESIAN_POINT('Vertex',(14.,44.2679491924,3.175)) ;
#775=CARTESIAN_POINT('Axis2P3D Location',(13.,42.5358983849,3.175)) ;
#787=CARTESIAN_POINT('Axis2P3D Location',(-14.9096290552,51.,0.)) ;
#792=CARTESIAN_POINT('Line Origine',(-13.5257063931,51.,1.5875)) ;
#796=CARTESIAN_POINT('Vertex',(-13.5257063931,51.,3.175)) ;
#799=CARTESIAN_POINT('Line Origine',(-0.262853196552,51.,3.175)) ;
#803=CARTESIAN_POINT('Vertex',(13.,51.,3.175)) ;
#806=CARTESIAN_POINT('Line Origine',(13.,51.,1.5875)) ;
#818=CARTESIAN_POINT('Axis2P3D Location',(-25.3336216844,5.84872741294,0.)) ;
#823=CARTESIAN_POINT('Line Origine',(-16.873078544,42.4953659091,1.5875)) ;
#827=CARTESIAN_POINT('Vertex',(-16.873078544,42.4953659091,3.175)) ;
#830=CARTESIAN_POINT('Line Origine',(-21.1033501142,24.172046661,3.175)) ;
#842=CARTESIAN_POINT('Axis2P3D Location',(-14.9243384144,42.0454638004,1.5875)) ;
#847=CARTESIAN_POINT('Axis2P3D Location',(-14.9243384144,42.0454638004,3.175)) ;
#851=CARTESIAN_POINT('Vertex',(-15.2250224038,44.0227319002,3.175)) ;
#854=CARTESIAN_POINT('Line Origine',(-15.2250224038,44.0227319002,1.5875)) ;
#866=CARTESIAN_POINT('Axis2P3D Location',(0.,0.,3.175)) ;
#871=CARTESIAN_POINT('Axis2P3D Location',(15.,46.,3.175)) ;
#875=CARTESIAN_POINT('Vertex',(13.,46.,3.175)) ;
#878=CARTESIAN_POINT('Line Origine',(13.,48.5,3.175)) ;
#883=CARTESIAN_POINT('Line Origine',(-13.5257063931,48.5,3.175)) ;
#887=CARTESIAN_POINT('Vertex',(-13.5257063931,46.,3.175)) ;
#890=CARTESIAN_POINT('Axis2P3D Location',(-15.5257063931,46.,3.175)) ;
#943=CARTESIAN_POINT('Axis2P3D Location',(15.,46.,1.5875)) ;
#948=CARTESIAN_POINT('Line Origine',(13.,46.,1.5875)) ;
#960=CARTESIAN_POINT('Axis2P3D Location',(13.,51.,3.175)) ;
#972=CARTESIAN_POINT('Axis2P3D Location',(-13.5257063931,51.,3.175)) ;
#977=CARTESIAN_POINT('Line Origine',(-13.5257063931,46.,1.5875)) ;
#989=CARTESIAN_POINT('Axis2P3D Location',(-15.5257063931,46.,1.5875)) ;
#8=PRODUCT_RELATED_PRODUCT_CATEGORY('part',$,(#5)) ;
#29=STYLED_ITEM(' ',(#28),#21) ;
#28=PRESENTATION_STYLE_ASSIGNMENT((#27)) ;
#27=SURFACE_STYLE_USAGE(.BOTH.,#26) ;
#26=SURFACE_SIDE_STYLE(' ',(#25)) ;
#25=SURFACE_STYLE_FILL_AREA(#24) ;
#24=FILL_AREA_STYLE(' ',(#23)) ;
#23=FILL_AREA_STYLE_COLOUR(' ',#22) ;
#47=VECTOR('Line Direction',#46,1.) ;
#61=VECTOR('Line Direction',#60,1.) ;
#104=VECTOR('Line Direction',#103,1.) ;
#118=VECTOR('Line Direction',#117,1.) ;
#149=VECTOR('Line Direction',#148,1.) ;
#166=VECTOR('Line Direction',#165,1.) ;
#175=VECTOR('Line Direction',#174,1.) ;
#182=VECTOR('Line Direction',#181,1.) ;
#189=VECTOR('Line Direction',#188,1.) ;
#206=VECTOR('Line Direction',#205,1.) ;
#213=VECTOR('Line Direction',#212,1.) ;
#220=VECTOR('Line Direction',#219,1.) ;
#237=VECTOR('Line Direction',#236,1.) ;
#244=VECTOR('Line Direction',#243,1.) ;
#251=VECTOR('Line Direction',#250,1.) ;
#268=VECTOR('Line Direction',#267,1.) ;
#273=VECTOR('Line Direction',#272,1.) ;
#290=VECTOR('Line Direction',#289,1.) ;
#306=VECTOR('Line Direction',#305,1.) ;
#356=VECTOR('Line Direction',#355,1.) ;
#370=VECTOR('Line Direction',#369,1.) ;
#413=VECTOR('Line Direction',#412,1.) ;
#427=VECTOR('Line Direction',#426,1.) ;
#470=VECTOR('Line Direction',#469,1.) ;
#484=VECTOR('Line Direction',#483,1.) ;
#527=VECTOR('Line Direction',#526,1.) ;
#541=VECTOR('Line Direction',#540,1.) ;
#584=VECTOR('Line Direction',#583,1.) ;
#598=VECTOR('Line Direction',#597,1.) ;
#632=VECTOR('Line Direction',#631,1.) ;
#639=VECTOR('Line Direction',#638,1.) ;
#660=VECTOR('Line Direction',#659,1.) ;
#667=VECTOR('Line Direction',#666,1.) ;
#674=VECTOR('Line Direction',#673,1.) ;
#746=VECTOR('Line Direction',#745,1.) ;
#753=VECTOR('Line Direction',#752,1.) ;
#770=VECTOR('Line Direction',#769,1.) ;
#794=VECTOR('Line Direction',#793,1.) ;
#801=VECTOR('Line Direction',#800,1.) ;
#808=VECTOR('Line Direction',#807,1.) ;
#825=VECTOR('Line Direction',#824,1.) ;
#832=VECTOR('Line Direction',#831,1.) ;
#856=VECTOR('Line Direction',#855,1.) ;
#880=VECTOR('Line Direction',#879,1.) ;
#885=VECTOR('Line Direction',#884,1.) ;
#950=VECTOR('Line Direction',#949,1.) ;
#979=VECTOR('Line Direction',#978,1.) ;
#32=DIRECTION('Axis2P3D Direction',(0.,0.,1.)) ;
#33=DIRECTION('Axis2P3D XDirection',(1.,0.,0.)) ;
#37=DIRECTION('Axis2P3D Direction',(0.,0.,1.)) ;
#46=DIRECTION('Vector Direction',(0.,0.,1.)) ;
#53=DIRECTION('Axis2P3D Direction',(0.,0.,1.)) ;
#60=DIRECTION('Vector Direction',(0.,0.,1.)) ;
#72=DIRECTION('Axis2P3D Direction',(0.,0.,1.)) ;
#77=DIRECTION('Axis2P3D Direction',(0.,0.,1.)) ;
#89=DIRECTION('Axis2P3D Direction',(0.,0.,-1.)) ;
#90=DIRECTION('Axis2P3D XDirection',(0.803571428571,0.595208332589,0.)) ;
#94=DIRECTION('Axis2P3D Direction',(0.,0.,-1.)) ;
#103=DIRECTION('Vector Direction',(0.,0.,-1.)) ;
#110=DIRECTION('Axis2P3D Direction',(0.,0.,-1.)) ;
#117=DIRECTION('Vector Direction',(0.,0.,-1.)) ;
#129=DIRECTION('Axis2P3D Direction',(0.,0.,-1.)) ;
#130=DIRECTION('Axis2P3D XDirection',(-0.803571428571,-0.595208332589,0.)) ;
#134=DIRECTION('Axis2P3D Direction',(0.,0.,-1.)) ;
#141=DIRECTION('Axis2P3D Direction',(0.,0.,-1.)) ;
#148=DIRECTION('Vector Direction',(0.,0.,-1.)) ;
#160=DIRECTION('Axis2P3D Direction',(1.,0.,0.)) ;
#161=DIRECTION('Axis2P3D XDirection',(0.,1.,0.)) ;
#165=DIRECTION('Vector Direction',(0.,0.,1.)) ;
#174=DIRECTION('Vector Direction',(0.,1.,0.)) ;
#181=DIRECTION('Vector Direction',(0.,0.,1.)) ;
#188=DIRECTION('Vector Direction',(0.,1.,0.)) ;
#200=DIRECTION('Axis2P3D Direction',(0.,1.,-0.)) ;
#201=DIRECTION('Axis2P3D XDirection',(-1.,0.,0.)) ;
#205=DIRECTION('Vector Direction',(-1.,0.,0.)) ;
#212=DIRECTION('Vector Direction',(0.,0.,1.)) ;
#219=DIRECTION('Vector Direction',(-1.,0.,0.)) ;
#231=DIRECTION('Axis2P3D Direction',(-1.,0.,0.)) ;
#232=DIRECTION('Axis2P3D XDirection',(0.,-1.,0.)) ;
#236=DIRECTION('Vector Direction',(0.,-1.,0.)) ;
#243=DIRECTION('Vector Direction',(0.,0.,1.)) ;
#250=DIRECTION('Vector Direction',(0.,-1.,0.)) ;
#262=DIRECTION('Axis2P3D Direction',(0.,-1.,0.)) ;
#263=DIRECTION('Axis2P3D XDirection',(1.,0.,0.)) ;
#267=DIRECTION('Vector Direction',(1.,0.,0.)) ;
#272=DIRECTION('Vector Direction',(1.,0.,0.)) ;
#284=DIRECTION('Axis2P3D Direction',(0.,0.,-1.)) ;
#285=DIRECTION('Axis2P3D XDirection',(1.,0.,0.)) ;
#289=DIRECTION('Vector Direction',(0.,0.,-1.)) ;
#298=DIRECTION('Axis2P3D Direction',(0.,0.,-1.)) ;
#305=DIRECTION('Vector Direction',(0.,0.,-1.)) ;
#312=DIRECTION('Axis2P3D Direction',(0.,0.,-1.)) ;
#324=DIRECTION('Axis2P3D Direction',(0.,0.,-1.)) ;
#329=DIRECTION('Axis2P3D Direction',(0.,0.,-1.)) ;
#341=DIRECTION('Axis2P3D Direction',(-0.,0.,1.)) ;
#342=DIRECTION('Axis2P3D XDirection',(0.5,-0.866025403784,0.)) ;
#346=DIRECTION('Axis2P3D Direction',(-0.,0.,1.)) ;
#355=DIRECTION('Vector Direction',(0.,0.,1.)) ;
#362=DIRECTION('Axis2P3D Direction',(-0.,0.,1.)) ;
#369=DIRECTION('Vector Direction',(0.,0.,1.)) ;
#381=DIRECTION('Axis2P3D Direction',(-0.,0.,1.)) ;
#386=DIRECTION('Axis2P3D Direction',(-0.,0.,1.)) ;
#398=DIRECTION('Axis2P3D Direction',(0.,0.,1.)) ;
#399=DIRECTION('Axis2P3D XDirection',(-0.5,-0.866025403784,0.)) ;
#403=DIRECTION('Axis2P3D Direction',(0.,0.,1.)) ;
#412=DIRECTION('Vector Direction',(0.,0.,1.)) ;
#419=DIRECTION('Axis2P3D Direction',(0.,0.,1.)) ;
#426=DIRECTION('Vector Direction',(0.,0.,1.)) ;
#438=DIRECTION('Axis2P3D Direction',(0.,0.,1.)) ;
#443=DIRECTION('Axis2P3D Direction',(0.,0.,1.)) ;
#455=DIRECTION('Axis2P3D Direction',(0.,0.,1.)) ;
#456=DIRECTION('Axis2P3D XDirection',(-1.,-6.10622663544E-016,0.)) ;
#460=DIRECTION('Axis2P3D Direction',(0.,0.,1.)) ;
#469=DIRECTION('Vector Direction',(0.,0.,1.)) ;
#476=DIRECTION('Axis2P3D Direction',(0.,0.,1.)) ;
#483=DIRECTION('Vector Direction',(0.,0.,1.)) ;
#495=DIRECTION('Axis2P3D Direction',(0.,0.,1.)) ;
#500=DIRECTION('Axis2P3D Direction',(0.,0.,1.)) ;
#512=DIRECTION('Axis2P3D Direction',(0.,0.,1.)) ;
#513=DIRECTION('Axis2P3D XDirection',(-0.5,0.866025403784,0.)) ;
#517=DIRECTION('Axis2P3D Direction',(0.,0.,1.)) ;
#526=DIRECTION('Vector Direction',(0.,0.,1.)) ;
#533=DIRECTION('Axis2P3D Direction',(0.,0.,1.)) ;
#540=DIRECTION('Vector Direction',(0.,0.,1.)) ;
#552=DIRECTION('Axis2P3D Direction',(0.,0.,1.)) ;
#557=DIRECTION('Axis2P3D Direction',(0.,0.,1.)) ;
#569=DIRECTION('Axis2P3D Direction',(0.,-0.,1.)) ;
#570=DIRECTION('Axis2P3D XDirection',(0.5,0.866025403784,0.)) ;
#574=DIRECTION('Axis2P3D Direction',(0.,-0.,1.)) ;
#583=DIRECTION('Vector Direction',(0.,0.,1.)) ;
#590=DIRECTION('Axis2P3D Direction',(0.,-0.,1.)) ;
#597=DIRECTION('Vector Direction',(0.,0.,1.)) ;
#609=DIRECTION('Axis2P3D Direction',(0.,-0.,1.)) ;
#614=DIRECTION('Axis2P3D Direction',(0.,-0.,1.)) ;
#626=DIRECTION('Axis2P3D Direction',(0.,0.,-1.)) ;
#627=DIRECTION('Axis2P3D XDirection',(1.,0.,0.)) ;
#631=DIRECTION('Vector Direction',(0.,1.,0.)) ;
#638=DIRECTION('Vector Direction',(0.224951054344,0.974370064785,0.)) ;
#645=DIRECTION('Axis2P3D Direction',(0.,0.,-1.)) ;
#652=DIRECTION('Axis2P3D Direction',(0.,0.,-1.)) ;
#659=DIRECTION('Vector Direction',(0.,-1.,0.)) ;
#666=DIRECTION('Vector Direction',(1.,0.,0.)) ;
#673=DIRECTION('Vector Direction',(0.,-1.,0.)) ;
#680=DIRECTION('Axis2P3D Direction',(0.,0.,-1.)) ;
#687=DIRECTION('Axis2P3D Direction',(0.,0.,-1.)) ;
#740=DIRECTION('Axis2P3D Direction',(1.,0.,0.)) ;
#741=DIRECTION('Axis2P3D XDirection',(0.,1.,0.)) ;
#745=DIRECTION('Vector Direction',(0.,1.,0.)) ;
#752=DIRECTION('Vector Direction',(0.,0.,-1.)) ;
#764=DIRECTION('Axis2P3D Direction',(0.,0.,1.)) ;
#765=DIRECTION('Axis2P3D XDirection',(1.,0.,0.)) ;
#769=DIRECTION('Vector Direction',(0.,0.,1.)) ;
#776=DIRECTION('Axis2P3D Direction',(0.,0.,1.)) ;
#788=DIRECTION('Axis2P3D Direction',(0.,-1.,0.)) ;
#789=DIRECTION('Axis2P3D XDirection',(1.,0.,0.)) ;
#793=DIRECTION('Vector Direction',(0.,0.,-1.)) ;
#800=DIRECTION('Vector Direction',(1.,0.,0.)) ;
#807=DIRECTION('Vector Direction',(0.,0.,-1.)) ;
#819=DIRECTION('Axis2P3D Direction',(0.974370064785,-0.224951054344,0.)) ;
#820=DIRECTION('Axis2P3D XDirection',(0.224951054344,0.974370064785,0.)) ;
#824=DIRECTION('Vector Direction',(0.,0.,-1.)) ;
#831=DIRECTION('Vector Direction',(0.224951054344,0.974370064785,0.)) ;
#843=DIRECTION('Axis2P3D Direction',(0.,0.,1.)) ;
#844=DIRECTION('Axis2P3D XDirection',(-0.150341994672,0.988634049908,0.)) ;
#848=DIRECTION('Axis2P3D Direction',(0.,0.,1.)) ;
#855=DIRECTION('Vector Direction',(0.,0.,1.)) ;
#867=DIRECTION('Axis2P3D Direction',(0.,0.,-1.)) ;
#868=DIRECTION('Axis2P3D XDirection',(1.,0.,0.)) ;
#872=DIRECTION('Axis2P3D Direction',(0.,0.,-1.)) ;
#879=DIRECTION('Vector Direction',(0.,-1.,0.)) ;
#884=DIRECTION('Vector Direction',(0.,-1.,0.)) ;
#891=DIRECTION('Axis2P3D Direction',(0.,0.,-1.)) ;
#944=DIRECTION('Axis2P3D Direction',(0.,0.,1.)) ;
#945=DIRECTION('Axis2P3D XDirection',(-1.,0.,0.)) ;
#949=DIRECTION('Vector Direction',(0.,0.,1.)) ;
#961=DIRECTION('Axis2P3D Direction',(1.,0.,0.)) ;
#962=DIRECTION('Axis2P3D XDirection',(0.,-1.,0.)) ;
#973=DIRECTION('Axis2P3D Direction',(1.,0.,0.)) ;
#974=DIRECTION('Axis2P3D XDirection',(0.,-1.,0.)) ;
#978=DIRECTION('Vector Direction',(0.,0.,-1.)) ;
#990=DIRECTION('Axis2P3D Direction',(-0.,0.,1.)) ;
#991=DIRECTION('Axis2P3D XDirection',(0.,-1.,0.)) ;
#15=UNCERTAINTY_MEASURE_WITH_UNIT(LENGTH_MEASURE(0.005),#12,'distance_accuracy_value','CONFUSED CURVE UNCERTAINTY') ;
#18=AXIS2_PLACEMENT_3D(' ',#17,$,$) ;
#34=AXIS2_PLACEMENT_3D('Cylinder Axis2P3D',#31,#32,#33) ;
#38=AXIS2_PLACEMENT_3D('Circle Axis2P3D',#36,#37,$) ;
#54=AXIS2_PLACEMENT_3D('Circle Axis2P3D',#52,#53,$) ;
#73=AXIS2_PLACEMENT_3D('Circle Axis2P3D',#71,#72,$) ;
#78=AXIS2_PLACEMENT_3D('Circle Axis2P3D',#76,#77,$) ;
#91=AXIS2_PLACEMENT_3D('Cylinder Axis2P3D',#88,#89,#90) ;
#95=AXIS2_PLACEMENT_3D('Circle Axis2P3D',#93,#94,$) ;
#111=AXIS2_PLACEMENT_3D('Circle Axis2P3D',#109,#110,$) ;
#131=AXIS2_PLACEMENT_3D('Cylinder Axis2P3D',#128,#129,#130) ;
#135=AXIS2_PLACEMENT_3D('Circle Axis2P3D',#133,#134,$) ;
#142=AXIS2_PLACEMENT_3D('Circle Axis2P3D',#140,#141,$) ;
#162=AXIS2_PLACEMENT_3D('Plane Axis2P3D',#159,#160,#161) ;
#202=AXIS2_PLACEMENT_3D('Plane Axis2P3D',#199,#200,#201) ;
#233=AXIS2_PLACEMENT_3D('Plane Axis2P3D',#230,#231,#232) ;
#264=AXIS2_PLACEMENT_3D('Plane Axis2P3D',#261,#262,#263) ;
#286=AXIS2_PLACEMENT_3D('Cylinder Axis2P3D',#283,#284,#285) ;
#299=AXIS2_PLACEMENT_3D('Circle Axis2P3D',#297,#298,$) ;
#313=AXIS2_PLACEMENT_3D('Circle Axis2P3D',#311,#312,$) ;
#325=AXIS2_PLACEMENT_3D('Circle Axis2P3D',#323,#324,$) ;
#330=AXIS2_PLACEMENT_3D('Circle Axis2P3D',#328,#329,$) ;
#343=AXIS2_PLACEMENT_3D('Cylinder Axis2P3D',#340,#341,#342) ;
#347=AXIS2_PLACEMENT_3D('Circle Axis2P3D',#345,#346,$) ;
#363=AXIS2_PLACEMENT_3D('Circle Axis2P3D',#361,#362,$) ;
#382=AXIS2_PLACEMENT_3D('Circle Axis2P3D',#380,#381,$) ;
#387=AXIS2_PLACEMENT_3D('Circle Axis2P3D',#385,#386,$) ;
#400=AXIS2_PLACEMENT_3D('Cylinder Axis2P3D',#397,#398,#399) ;
#404=AXIS2_PLACEMENT_3D('Circle Axis2P3D',#402,#403,$) ;
#420=AXIS2_PLACEMENT_3D('Circle Axis2P3D',#418,#419,$) ;
#439=AXIS2_PLACEMENT_3D('Circle Axis2P3D',#437,#438,$) ;
#444=AXIS2_PLACEMENT_3D('Circle Axis2P3D',#442,#443,$) ;
#457=AXIS2_PLACEMENT_3D('Cylinder Axis2P3D',#454,#455,#456) ;
#461=AXIS2_PLACEMENT_3D('Circle Axis2P3D',#459,#460,$) ;
#477=AXIS2_PLACEMENT_3D('Circle Axis2P3D',#475,#476,$) ;
#496=AXIS2_PLACEMENT_3D('Circle Axis2P3D',#494,#495,$) ;
#501=AXIS2_PLACEMENT_3D('Circle Axis2P3D',#499,#500,$) ;
#514=AXIS2_PLACEMENT_3D('Cylinder Axis2P3D',#511,#512,#513) ;
#518=AXIS2_PLACEMENT_3D('Circle Axis2P3D',#516,#517,$) ;
#534=AXIS2_PLACEMENT_3D('Circle Axis2P3D',#532,#533,$) ;
#553=AXIS2_PLACEMENT_3D('Circle Axis2P3D',#551,#552,$) ;
#558=AXIS2_PLACEMENT_3D('Circle Axis2P3D',#556,#557,$) ;
#571=AXIS2_PLACEMENT_3D('Cylinder Axis2P3D',#568,#569,#570) ;
#575=AXIS2_PLACEMENT_3D('Circle Axis2P3D',#573,#574,$) ;
#591=AXIS2_PLACEMENT_3D('Circle Axis2P3D',#589,#590,$) ;
#610=AXIS2_PLACEMENT_3D('Circle Axis2P3D',#608,#609,$) ;
#615=AXIS2_PLACEMENT_3D('Circle Axis2P3D',#613,#614,$) ;
#628=AXIS2_PLACEMENT_3D('Plane Axis2P3D',#625,#626,#627) ;
#646=AXIS2_PLACEMENT_3D('Circle Axis2P3D',#644,#645,$) ;
#653=AXIS2_PLACEMENT_3D('Circle Axis2P3D',#651,#652,$) ;
#681=AXIS2_PLACEMENT_3D('Circle Axis2P3D',#679,#680,$) ;
#688=AXIS2_PLACEMENT_3D('Circle Axis2P3D',#686,#687,$) ;
#742=AXIS2_PLACEMENT_3D('Plane Axis2P3D',#739,#740,#741) ;
#766=AXIS2_PLACEMENT_3D('Cylinder Axis2P3D',#763,#764,#765) ;
#777=AXIS2_PLACEMENT_3D('Circle Axis2P3D',#775,#776,$) ;
#790=AXIS2_PLACEMENT_3D('Plane Axis2P3D',#787,#788,#789) ;
#821=AXIS2_PLACEMENT_3D('Plane Axis2P3D',#818,#819,#820) ;
#845=AXIS2_PLACEMENT_3D('Cylinder Axis2P3D',#842,#843,#844) ;
#849=AXIS2_PLACEMENT_3D('Circle Axis2P3D',#847,#848,$) ;
#869=AXIS2_PLACEMENT_3D('Plane Axis2P3D',#866,#867,#868) ;
#873=AXIS2_PLACEMENT_3D('Circle Axis2P3D',#871,#872,$) ;
#892=AXIS2_PLACEMENT_3D('Circle Axis2P3D',#890,#891,$) ;
#946=AXIS2_PLACEMENT_3D('Cylinder Axis2P3D',#943,#944,#945) ;
#963=AXIS2_PLACEMENT_3D('Plane Axis2P3D',#960,#961,#962) ;
#975=AXIS2_PLACEMENT_3D('Plane Axis2P3D',#972,#973,#974) ;
#992=AXIS2_PLACEMENT_3D('Cylinder Axis2P3D',#989,#990,#991) ;
#48=LINE('Line',#45,#47) ;
#62=LINE('Line',#59,#61) ;
#105=LINE('Line',#102,#104) ;
#119=LINE('Line',#116,#118) ;
#150=LINE('Line',#147,#149) ;
#167=LINE('Line',#164,#166) ;
#176=LINE('Line',#173,#175) ;
#183=LINE('Line',#180,#182) ;
#190=LINE('Line',#187,#189) ;
#207=LINE('Line',#204,#206) ;
#214=LINE('Line',#211,#213) ;
#221=LINE('Line',#218,#220) ;
#238=LINE('Line',#235,#237) ;
#245=LINE('Line',#242,#244) ;
#252=LINE('Line',#249,#251) ;
#269=LINE('Line',#266,#268) ;
#274=LINE('Line',#271,#273) ;
#291=LINE('Line',#288,#290) ;
#307=LINE('Line',#304,#306) ;
#357=LINE('Line',#354,#356) ;
#371=LINE('Line',#368,#370) ;
#414=LINE('Line',#411,#413) ;
#428=LINE('Line',#425,#427) ;
#471=LINE('Line',#468,#470) ;
#485=LINE('Line',#482,#484) ;
#528=LINE('Line',#525,#527) ;
#542=LINE('Line',#539,#541) ;
#585=LINE('Line',#582,#584) ;
#599=LINE('Line',#596,#598) ;
#633=LINE('Line',#630,#632) ;
#640=LINE('Line',#637,#639) ;
#661=LINE('Line',#658,#660) ;
#668=LINE('Line',#665,#667) ;
#675=LINE('Line',#672,#674) ;
#747=LINE('Line',#744,#746) ;
#754=LINE('Line',#751,#753) ;
#771=LINE('Line',#768,#770) ;
#795=LINE('Line',#792,#794) ;
#802=LINE('Line',#799,#801) ;
#809=LINE('Line',#806,#808) ;
#826=LINE('Line',#823,#825) ;
#833=LINE('Line',#830,#832) ;
#857=LINE('Line',#854,#856) ;
#881=LINE('Line',#878,#880) ;
#886=LINE('Line',#883,#885) ;
#951=LINE('Line',#948,#950) ;
#980=LINE('Line',#977,#979) ;
#39=CIRCLE('generated circle',#38,1.2) ;
#55=CIRCLE('generated circle',#54,1.2) ;
#74=CIRCLE('generated circle',#73,1.2) ;
#79=CIRCLE('generated circle',#78,1.2) ;
#96=CIRCLE('generated circle',#95,26.) ;
#112=CIRCLE('generated circle',#111,26.) ;
#136=CIRCLE('generated circle',#135,30.) ;
#143=CIRCLE('generated circle',#142,30.) ;
#300=CIRCLE('generated circle',#299,15.) ;
#314=CIRCLE('generated circle',#313,15.) ;
#326=CIRCLE('generated circle',#325,15.) ;
#331=CIRCLE('generated circle',#330,15.) ;
#348=CIRCLE('generated circle',#347,1.2) ;
#364=CIRCLE('generated circle',#363,1.2) ;
#383=CIRCLE('generated circle',#382,1.2) ;
#388=CIRCLE('generated circle',#387,1.2) ;
#405=CIRCLE('generated circle',#404,1.2) ;
#421=CIRCLE('generated circle',#420,1.2) ;
#440=CIRCLE('generated circle',#439,1.2) ;
#445=CIRCLE('generated circle',#444,1.2) ;
#462=CIRCLE('generated circle',#461,1.2) ;
#478=CIRCLE('generated circle',#477,1.2) ;
#497=CIRCLE('generated circle',#496,1.2) ;
#502=CIRCLE('generated circle',#501,1.2) ;
#519=CIRCLE('generated circle',#518,1.2) ;
#535=CIRCLE('generated circle',#534,1.2) ;
#554=CIRCLE('generated circle',#553,1.2) ;
#559=CIRCLE('generated circle',#558,1.2) ;
#576=CIRCLE('generated circle',#575,1.2) ;
#592=CIRCLE('generated circle',#591,1.2) ;
#611=CIRCLE('generated circle',#610,1.2) ;
#616=CIRCLE('generated circle',#615,1.2) ;
#647=CIRCLE('generated circle',#646,2.) ;
#654=CIRCLE('generated circle',#653,2.) ;
#682=CIRCLE('generated circle',#681,2.) ;
#689=CIRCLE('generated circle',#688,2.) ;
#778=CIRCLE('generated circle',#777,2.) ;
#850=CIRCLE('generated circle',#849,2.) ;
#874=CIRCLE('generated circle',#873,2.) ;
#893=CIRCLE('generated circle',#892,2.) ;
#163=PLANE('',#162) ;
#203=PLANE('',#202) ;
#234=PLANE('',#233) ;
#265=PLANE('',#264) ;
#629=PLANE('',#628) ;
#743=PLANE('',#742) ;
#791=PLANE('',#790) ;
#822=PLANE('',#821) ;
#870=PLANE('',#869) ;
#964=PLANE('',#963) ;
#976=PLANE('',#975) ;
#35=CYLINDRICAL_SURFACE('generated cylinder',#34,1.2) ;
#92=CYLINDRICAL_SURFACE('generated cylinder',#91,26.) ;
#132=CYLINDRICAL_SURFACE('generated cylinder',#131,30.) ;
#287=CYLINDRICAL_SURFACE('generated cylinder',#286,15.) ;
#344=CYLINDRICAL_SURFACE('generated cylinder',#343,1.2) ;
#401=CYLINDRICAL_SURFACE('generated cylinder',#400,1.2) ;
#458=CYLINDRICAL_SURFACE('generated cylinder',#457,1.2) ;
#515=CYLINDRICAL_SURFACE('generated cylinder',#514,1.2) ;
#572=CYLINDRICAL_SURFACE('generated cylinder',#571,1.2) ;
#767=CYLINDRICAL_SURFACE('generated cylinder',#766,2.) ;
#846=CYLINDRICAL_SURFACE('generated cylinder',#845,2.) ;
#947=CYLINDRICAL_SURFACE('generated cylinder',#946,2.) ;
#993=CYLINDRICAL_SURFACE('generated cylinder',#992,2.) ;
#707=FACE_BOUND('',#704,.T.) ;
#711=FACE_BOUND('',#708,.T.) ;
#715=FACE_BOUND('',#712,.T.) ;
#721=FACE_BOUND('',#716,.T.) ;
#725=FACE_BOUND('',#722,.T.) ;
#729=FACE_BOUND('',#726,.T.) ;
#733=FACE_BOUND('',#730,.T.) ;
#737=FACE_BOUND('',#734,.T.) ;
#911=FACE_BOUND('',#908,.T.) ;
#915=FACE_BOUND('',#912,.T.) ;
#919=FACE_BOUND('',#916,.T.) ;
#925=FACE_BOUND('',#920,.T.) ;
#929=FACE_BOUND('',#926,.T.) ;
#933=FACE_BOUND('',#930,.T.) ;
#937=FACE_BOUND('',#934,.T.) ;
#941=FACE_BOUND('',#938,.T.) ;
#44=EDGE_CURVE('',#41,#43,#39,.F.) ;
#51=EDGE_CURVE('',#50,#41,#48,.T.) ;
#58=EDGE_CURVE('',#50,#57,#55,.F.) ;
#63=EDGE_CURVE('',#57,#43,#62,.T.) ;
#75=EDGE_CURVE('',#43,#41,#74,.F.) ;
#80=EDGE_CURVE('',#57,#50,#79,.F.) ;
#101=EDGE_CURVE('',#98,#100,#96,.T.) ;
#108=EDGE_CURVE('',#107,#100,#105,.F.) ;
#115=EDGE_CURVE('',#114,#107,#112,.T.) ;
#120=EDGE_CURVE('',#114,#98,#119,.F.) ;
#139=EDGE_CURVE('',#138,#98,#136,.F.) ;
#146=EDGE_CURVE('',#145,#114,#143,.F.) ;
#151=EDGE_CURVE('',#145,#138,#150,.F.) ;
#172=EDGE_CURVE('',#169,#171,#167,.T.) ;
#179=EDGE_CURVE('',#169,#178,#176,.T.) ;
#186=EDGE_CURVE('',#178,#185,#183,.T.) ;
#191=EDGE_CURVE('',#171,#185,#190,.T.) ;
#210=EDGE_CURVE('',#178,#209,#207,.F.) ;
#217=EDGE_CURVE('',#209,#216,#214,.T.) ;
#222=EDGE_CURVE('',#185,#216,#221,.F.) ;
#241=EDGE_CURVE('',#209,#240,#238,.T.) ;
#248=EDGE_CURVE('',#240,#247,#245,.T.) ;
#253=EDGE_CURVE('',#216,#247,#252,.T.) ;
#270=EDGE_CURVE('',#240,#169,#269,.F.) ;
#275=EDGE_CURVE('',#247,#171,#274,.F.) ;
#296=EDGE_CURVE('',#293,#295,#291,.F.) ;
#303=EDGE_CURVE('',#293,#302,#300,.T.) ;
#310=EDGE_CURVE('',#302,#309,#307,.F.) ;
#315=EDGE_CURVE('',#295,#309,#314,.T.) ;
#327=EDGE_CURVE('',#302,#293,#326,.T.) ;
#332=EDGE_CURVE('',#309,#295,#331,.T.) ;
#353=EDGE_CURVE('',#350,#352,#348,.F.) ;
#360=EDGE_CURVE('',#359,#350,#357,.T.) ;
#367=EDGE_CURVE('',#359,#366,#364,.F.) ;
#372=EDGE_CURVE('',#366,#352,#371,.T.) ;
#384=EDGE_CURVE('',#352,#350,#383,.F.) ;
#389=EDGE_CURVE('',#366,#359,#388,.F.) ;
#410=EDGE_CURVE('',#407,#409,#405,.F.) ;
#417=EDGE_CURVE('',#416,#407,#414,.T.) ;
#424=EDGE_CURVE('',#416,#423,#421,.F.) ;
#429=EDGE_CURVE('',#423,#409,#428,.T.) ;
#441=EDGE_CURVE('',#409,#407,#440,.F.) ;
#446=EDGE_CURVE('',#423,#416,#445,.F.) ;
#467=EDGE_CURVE('',#464,#466,#462,.F.) ;
#474=EDGE_CURVE('',#473,#464,#471,.T.) ;
#481=EDGE_CURVE('',#473,#480,#478,.F.) ;
#486=EDGE_CURVE('',#480,#466,#485,.T.) ;
#498=EDGE_CURVE('',#466,#464,#497,.F.) ;
#503=EDGE_CURVE('',#480,#473,#502,.F.) ;
#524=EDGE_CURVE('',#521,#523,#519,.F.) ;
#531=EDGE_CURVE('',#530,#521,#528,.T.) ;
#538=EDGE_CURVE('',#530,#537,#535,.F.) ;
#543=EDGE_CURVE('',#537,#523,#542,.T.) ;
#555=EDGE_CURVE('',#523,#521,#554,.F.) ;
#560=EDGE_CURVE('',#537,#530,#559,.F.) ;
#581=EDGE_CURVE('',#578,#580,#576,.F.) ;
#588=EDGE_CURVE('',#587,#578,#585,.T.) ;
#595=EDGE_CURVE('',#587,#594,#592,.F.) ;
#600=EDGE_CURVE('',#594,#580,#599,.T.) ;
#612=EDGE_CURVE('',#580,#578,#611,.F.) ;
#617=EDGE_CURVE('',#594,#587,#616,.F.) ;
#636=EDGE_CURVE('',#635,#145,#633,.F.) ;
#643=EDGE_CURVE('',#107,#642,#640,.T.) ;
#650=EDGE_CURVE('',#642,#649,#647,.T.) ;
#657=EDGE_CURVE('',#656,#649,#654,.T.) ;
#664=EDGE_CURVE('',#663,#656,#661,.T.) ;
#671=EDGE_CURVE('',#663,#670,#668,.T.) ;
#678=EDGE_CURVE('',#677,#670,#675,.F.) ;
#685=EDGE_CURVE('',#684,#677,#682,.T.) ;
#690=EDGE_CURVE('',#684,#635,#689,.T.) ;
#750=EDGE_CURVE('',#749,#138,#747,.F.) ;
#755=EDGE_CURVE('',#635,#749,#754,.F.) ;
#774=EDGE_CURVE('',#684,#773,#771,.T.) ;
#779=EDGE_CURVE('',#749,#773,#778,.T.) ;
#798=EDGE_CURVE('',#797,#663,#795,.T.) ;
#805=EDGE_CURVE('',#797,#804,#802,.T.) ;
#810=EDGE_CURVE('',#804,#670,#809,.T.) ;
#829=EDGE_CURVE('',#828,#642,#826,.T.) ;
#834=EDGE_CURVE('',#100,#828,#833,.T.) ;
#853=EDGE_CURVE('',#852,#828,#850,.T.) ;
#858=EDGE_CURVE('',#852,#649,#857,.F.) ;
#877=EDGE_CURVE('',#876,#773,#874,.F.) ;
#882=EDGE_CURVE('',#876,#804,#881,.F.) ;
#889=EDGE_CURVE('',#797,#888,#886,.T.) ;
#894=EDGE_CURVE('',#852,#888,#893,.F.) ;
#952=EDGE_CURVE('',#677,#876,#951,.T.) ;
#981=EDGE_CURVE('',#656,#888,#980,.F.) ;
#30=CLOSED_SHELL('Closed Shell',(#70,#87,#127,#158,#198,#229,#260,#282,#322,#339,#379,#396,#436,#453,#493,#510,#550,#567,#607,#624,#738,#762,#786,#817,#841,#865,#942,#959,#971,#988,#1000)) ;
#1002=SHAPE_REPRESENTATION_RELATIONSHIP(' ',' ',#19,#1001) ;
#64=EDGE_LOOP('',(#65,#66,#67,#68)) ;
#81=EDGE_LOOP('',(#82,#83,#84,#85)) ;
#121=EDGE_LOOP('',(#122,#123,#124,#125)) ;
#152=EDGE_LOOP('',(#153,#154,#155,#156)) ;
#192=EDGE_LOOP('',(#193,#194,#195,#196)) ;
#223=EDGE_LOOP('',(#224,#225,#226,#227)) ;
#254=EDGE_LOOP('',(#255,#256,#257,#258)) ;
#276=EDGE_LOOP('',(#277,#278,#279,#280)) ;
#316=EDGE_LOOP('',(#317,#318,#319,#320)) ;
#333=EDGE_LOOP('',(#334,#335,#336,#337)) ;
#373=EDGE_LOOP('',(#374,#375,#376,#377)) ;
#390=EDGE_LOOP('',(#391,#392,#393,#394)) ;
#430=EDGE_LOOP('',(#431,#432,#433,#434)) ;
#447=EDGE_LOOP('',(#448,#449,#450,#451)) ;
#487=EDGE_LOOP('',(#488,#489,#490,#491)) ;
#504=EDGE_LOOP('',(#505,#506,#507,#508)) ;
#544=EDGE_LOOP('',(#545,#546,#547,#548)) ;
#561=EDGE_LOOP('',(#562,#563,#564,#565)) ;
#601=EDGE_LOOP('',(#602,#603,#604,#605)) ;
#618=EDGE_LOOP('',(#619,#620,#621,#622)) ;
#691=EDGE_LOOP('',(#692,#693,#694,#695,#696,#697,#698,#699,#700,#701,#702)) ;
#704=EDGE_LOOP('',(#705,#706)) ;
#708=EDGE_LOOP('',(#709,#710)) ;
#712=EDGE_LOOP('',(#713,#714)) ;
#716=EDGE_LOOP('',(#717,#718,#719,#720)) ;
#722=EDGE_LOOP('',(#723,#724)) ;
#726=EDGE_LOOP('',(#727,#728)) ;
#730=EDGE_LOOP('',(#731,#732)) ;
#734=EDGE_LOOP('',(#735,#736)) ;
#756=EDGE_LOOP('',(#757,#758,#759,#760)) ;
#780=EDGE_LOOP('',(#781,#782,#783,#784)) ;
#811=EDGE_LOOP('',(#812,#813,#814,#815)) ;
#835=EDGE_LOOP('',(#836,#837,#838,#839)) ;
#859=EDGE_LOOP('',(#860,#861,#862,#863)) ;
#895=EDGE_LOOP('',(#896,#897,#898,#899,#900,#901,#902,#903,#904,#905,#906)) ;
#908=EDGE_LOOP('',(#909,#910)) ;
#912=EDGE_LOOP('',(#913,#914)) ;
#916=EDGE_LOOP('',(#917,#918)) ;
#920=EDGE_LOOP('',(#921,#922,#923,#924)) ;
#926=EDGE_LOOP('',(#927,#928)) ;
#930=EDGE_LOOP('',(#931,#932)) ;
#934=EDGE_LOOP('',(#935,#936)) ;
#938=EDGE_LOOP('',(#939,#940)) ;
#953=EDGE_LOOP('',(#954,#955,#956,#957)) ;
#965=EDGE_LOOP('',(#966,#967,#968,#969)) ;
#982=EDGE_LOOP('',(#983,#984,#985,#986)) ;
#994=EDGE_LOOP('',(#995,#996,#997,#998)) ;
#65=ORIENTED_EDGE('',*,*,#44,.F.) ;
#66=ORIENTED_EDGE('',*,*,#51,.F.) ;
#67=ORIENTED_EDGE('',*,*,#58,.T.) ;
#68=ORIENTED_EDGE('',*,*,#63,.T.) ;
#82=ORIENTED_EDGE('',*,*,#75,.F.) ;
#83=ORIENTED_EDGE('',*,*,#63,.F.) ;
#84=ORIENTED_EDGE('',*,*,#80,.T.) ;
#85=ORIENTED_EDGE('',*,*,#51,.T.) ;
#122=ORIENTED_EDGE('',*,*,#101,.T.) ;
#123=ORIENTED_EDGE('',*,*,#108,.F.) ;
#124=ORIENTED_EDGE('',*,*,#115,.F.) ;
#125=ORIENTED_EDGE('',*,*,#120,.T.) ;
#153=ORIENTED_EDGE('',*,*,#139,.T.) ;
#154=ORIENTED_EDGE('',*,*,#120,.F.) ;
#155=ORIENTED_EDGE('',*,*,#146,.F.) ;
#156=ORIENTED_EDGE('',*,*,#151,.T.) ;
#193=ORIENTED_EDGE('',*,*,#172,.F.) ;
#194=ORIENTED_EDGE('',*,*,#179,.T.) ;
#195=ORIENTED_EDGE('',*,*,#186,.T.) ;
#196=ORIENTED_EDGE('',*,*,#191,.F.) ;
#224=ORIENTED_EDGE('',*,*,#186,.F.) ;
#225=ORIENTED_EDGE('',*,*,#210,.T.) ;
#226=ORIENTED_EDGE('',*,*,#217,.T.) ;
#227=ORIENTED_EDGE('',*,*,#222,.F.) ;
#255=ORIENTED_EDGE('',*,*,#217,.F.) ;
#256=ORIENTED_EDGE('',*,*,#241,.T.) ;
#257=ORIENTED_EDGE('',*,*,#248,.T.) ;
#258=ORIENTED_EDGE('',*,*,#253,.F.) ;
#277=ORIENTED_EDGE('',*,*,#248,.F.) ;
#278=ORIENTED_EDGE('',*,*,#270,.T.) ;
#279=ORIENTED_EDGE('',*,*,#172,.T.) ;
#280=ORIENTED_EDGE('',*,*,#275,.F.) ;
#317=ORIENTED_EDGE('',*,*,#296,.F.) ;
#318=ORIENTED_EDGE('',*,*,#303,.T.) ;
#319=ORIENTED_EDGE('',*,*,#310,.T.) ;
#320=ORIENTED_EDGE('',*,*,#315,.F.) ;
#334=ORIENTED_EDGE('',*,*,#310,.F.) ;
#335=ORIENTED_EDGE('',*,*,#327,.T.) ;
#336=ORIENTED_EDGE('',*,*,#296,.T.) ;
#337=ORIENTED_EDGE('',*,*,#332,.F.) ;
#374=ORIENTED_EDGE('',*,*,#353,.F.) ;
#375=ORIENTED_EDGE('',*,*,#360,.F.) ;
#376=ORIENTED_EDGE('',*,*,#367,.T.) ;
#377=ORIENTED_EDGE('',*,*,#372,.T.) ;
#391=ORIENTED_EDGE('',*,*,#384,.F.) ;
#392=ORIENTED_EDGE('',*,*,#372,.F.) ;
#393=ORIENTED_EDGE('',*,*,#389,.T.) ;
#394=ORIENTED_EDGE('',*,*,#360,.T.) ;
#431=ORIENTED_EDGE('',*,*,#410,.F.) ;
#432=ORIENTED_EDGE('',*,*,#417,.F.) ;
#433=ORIENTED_EDGE('',*,*,#424,.T.) ;
#434=ORIENTED_EDGE('',*,*,#429,.T.) ;
#448=ORIENTED_EDGE('',*,*,#441,.F.) ;
#449=ORIENTED_EDGE('',*,*,#429,.F.) ;
#450=ORIENTED_EDGE('',*,*,#446,.T.) ;
#451=ORIENTED_EDGE('',*,*,#417,.T.) ;
#488=ORIENTED_EDGE('',*,*,#467,.F.) ;
#489=ORIENTED_EDGE('',*,*,#474,.F.) ;
#490=ORIENTED_EDGE('',*,*,#481,.T.) ;
#491=ORIENTED_EDGE('',*,*,#486,.T.) ;
#505=ORIENTED_EDGE('',*,*,#498,.F.) ;
#506=ORIENTED_EDGE('',*,*,#486,.F.) ;
#507=ORIENTED_EDGE('',*,*,#503,.T.) ;
#508=ORIENTED_EDGE('',*,*,#474,.T.) ;
#545=ORIENTED_EDGE('',*,*,#524,.F.) ;
#546=ORIENTED_EDGE('',*,*,#531,.F.) ;
#547=ORIENTED_EDGE('',*,*,#538,.T.) ;
#548=ORIENTED_EDGE('',*,*,#543,.T.) ;
#562=ORIENTED_EDGE('',*,*,#555,.F.) ;
#563=ORIENTED_EDGE('',*,*,#543,.F.) ;
#564=ORIENTED_EDGE('',*,*,#560,.T.) ;
#565=ORIENTED_EDGE('',*,*,#531,.T.) ;
#602=ORIENTED_EDGE('',*,*,#581,.F.) ;
#603=ORIENTED_EDGE('',*,*,#588,.F.) ;
#604=ORIENTED_EDGE('',*,*,#595,.T.) ;
#605=ORIENTED_EDGE('',*,*,#600,.T.) ;
#619=ORIENTED_EDGE('',*,*,#612,.F.) ;
#620=ORIENTED_EDGE('',*,*,#600,.F.) ;
#621=ORIENTED_EDGE('',*,*,#617,.T.) ;
#622=ORIENTED_EDGE('',*,*,#588,.T.) ;
#692=ORIENTED_EDGE('',*,*,#636,.T.) ;
#693=ORIENTED_EDGE('',*,*,#146,.T.) ;
#694=ORIENTED_EDGE('',*,*,#115,.T.) ;
#695=ORIENTED_EDGE('',*,*,#643,.T.) ;
#696=ORIENTED_EDGE('',*,*,#650,.T.) ;
#697=ORIENTED_EDGE('',*,*,#657,.F.) ;
#698=ORIENTED_EDGE('',*,*,#664,.F.) ;
#699=ORIENTED_EDGE('',*,*,#671,.T.) ;
#700=ORIENTED_EDGE('',*,*,#678,.F.) ;
#701=ORIENTED_EDGE('',*,*,#685,.F.) ;
#702=ORIENTED_EDGE('',*,*,#690,.T.) ;
#705=ORIENTED_EDGE('',*,*,#367,.F.) ;
#706=ORIENTED_EDGE('',*,*,#389,.F.) ;
#709=ORIENTED_EDGE('',*,*,#80,.F.) ;
#710=ORIENTED_EDGE('',*,*,#58,.F.) ;
#713=ORIENTED_EDGE('',*,*,#327,.F.) ;
#714=ORIENTED_EDGE('',*,*,#303,.F.) ;
#717=ORIENTED_EDGE('',*,*,#270,.F.) ;
#718=ORIENTED_EDGE('',*,*,#241,.F.) ;
#719=ORIENTED_EDGE('',*,*,#210,.F.) ;
#720=ORIENTED_EDGE('',*,*,#179,.F.) ;
#723=ORIENTED_EDGE('',*,*,#424,.F.) ;
#724=ORIENTED_EDGE('',*,*,#446,.F.) ;
#727=ORIENTED_EDGE('',*,*,#481,.F.) ;
#728=ORIENTED_EDGE('',*,*,#503,.F.) ;
#731=ORIENTED_EDGE('',*,*,#538,.F.) ;
#732=ORIENTED_EDGE('',*,*,#560,.F.) ;
#735=ORIENTED_EDGE('',*,*,#595,.F.) ;
#736=ORIENTED_EDGE('',*,*,#617,.F.) ;
#757=ORIENTED_EDGE('',*,*,#750,.T.) ;
#758=ORIENTED_EDGE('',*,*,#151,.F.) ;
#759=ORIENTED_EDGE('',*,*,#636,.F.) ;
#760=ORIENTED_EDGE('',*,*,#755,.T.) ;
#781=ORIENTED_EDGE('',*,*,#755,.F.) ;
#782=ORIENTED_EDGE('',*,*,#690,.F.) ;
#783=ORIENTED_EDGE('',*,*,#774,.T.) ;
#784=ORIENTED_EDGE('',*,*,#779,.F.) ;
#812=ORIENTED_EDGE('',*,*,#671,.F.) ;
#813=ORIENTED_EDGE('',*,*,#798,.F.) ;
#814=ORIENTED_EDGE('',*,*,#805,.T.) ;
#815=ORIENTED_EDGE('',*,*,#810,.T.) ;
#836=ORIENTED_EDGE('',*,*,#829,.T.) ;
#837=ORIENTED_EDGE('',*,*,#643,.F.) ;
#838=ORIENTED_EDGE('',*,*,#108,.T.) ;
#839=ORIENTED_EDGE('',*,*,#834,.T.) ;
#860=ORIENTED_EDGE('',*,*,#829,.F.) ;
#861=ORIENTED_EDGE('',*,*,#853,.F.) ;
#862=ORIENTED_EDGE('',*,*,#858,.T.) ;
#863=ORIENTED_EDGE('',*,*,#650,.F.) ;
#896=ORIENTED_EDGE('',*,*,#779,.T.) ;
#897=ORIENTED_EDGE('',*,*,#877,.F.) ;
#898=ORIENTED_EDGE('',*,*,#882,.T.) ;
#899=ORIENTED_EDGE('',*,*,#805,.F.) ;
#900=ORIENTED_EDGE('',*,*,#889,.T.) ;
#901=ORIENTED_EDGE('',*,*,#894,.F.) ;
#902=ORIENTED_EDGE('',*,*,#853,.T.) ;
#903=ORIENTED_EDGE('',*,*,#834,.F.) ;
#904=ORIENTED_EDGE('',*,*,#101,.F.) ;
#905=ORIENTED_EDGE('',*,*,#139,.F.) ;
#906=ORIENTED_EDGE('',*,*,#750,.F.) ;
#909=ORIENTED_EDGE('',*,*,#384,.T.) ;
#910=ORIENTED_EDGE('',*,*,#353,.T.) ;
#913=ORIENTED_EDGE('',*,*,#44,.T.) ;
#914=ORIENTED_EDGE('',*,*,#75,.T.) ;
#917=ORIENTED_EDGE('',*,*,#315,.T.) ;
#918=ORIENTED_EDGE('',*,*,#332,.T.) ;
#921=ORIENTED_EDGE('',*,*,#191,.T.) ;
#922=ORIENTED_EDGE('',*,*,#222,.T.) ;
#923=ORIENTED_EDGE('',*,*,#253,.T.) ;
#924=ORIENTED_EDGE('',*,*,#275,.T.) ;
#927=ORIENTED_EDGE('',*,*,#441,.T.) ;
#928=ORIENTED_EDGE('',*,*,#410,.T.) ;
#931=ORIENTED_EDGE('',*,*,#498,.T.) ;
#932=ORIENTED_EDGE('',*,*,#467,.T.) ;
#935=ORIENTED_EDGE('',*,*,#555,.T.) ;
#936=ORIENTED_EDGE('',*,*,#524,.T.) ;
#939=ORIENTED_EDGE('',*,*,#612,.T.) ;
#940=ORIENTED_EDGE('',*,*,#581,.T.) ;
#954=ORIENTED_EDGE('',*,*,#685,.T.) ;
#955=ORIENTED_EDGE('',*,*,#952,.T.) ;
#956=ORIENTED_EDGE('',*,*,#877,.T.) ;
#957=ORIENTED_EDGE('',*,*,#774,.F.) ;
#966=ORIENTED_EDGE('',*,*,#678,.T.) ;
#967=ORIENTED_EDGE('',*,*,#810,.F.) ;
#968=ORIENTED_EDGE('',*,*,#882,.F.) ;
#969=ORIENTED_EDGE('',*,*,#952,.F.) ;
#983=ORIENTED_EDGE('',*,*,#981,.T.) ;
#984=ORIENTED_EDGE('',*,*,#889,.F.) ;
#985=ORIENTED_EDGE('',*,*,#798,.T.) ;
#986=ORIENTED_EDGE('',*,*,#664,.T.) ;
#995=ORIENTED_EDGE('',*,*,#894,.T.) ;
#996=ORIENTED_EDGE('',*,*,#981,.F.) ;
#997=ORIENTED_EDGE('',*,*,#657,.T.) ;
#998=ORIENTED_EDGE('',*,*,#858,.F.) ;
#21=MANIFOLD_SOLID_BREP('PartBody',#30) ;
#41=VERTEX_POINT('',#40) ;
#43=VERTEX_POINT('',#42) ;
#50=VERTEX_POINT('',#49) ;
#57=VERTEX_POINT('',#56) ;
#98=VERTEX_POINT('',#97) ;
#100=VERTEX_POINT('',#99) ;
#107=VERTEX_POINT('',#106) ;
#114=VERTEX_POINT('',#113) ;
#138=VERTEX_POINT('',#137) ;
#145=VERTEX_POINT('',#144) ;
#169=VERTEX_POINT('',#168) ;
#171=VERTEX_POINT('',#170) ;
#178=VERTEX_POINT('',#177) ;
#185=VERTEX_POINT('',#184) ;
#209=VERTEX_POINT('',#208) ;
#216=VERTEX_POINT('',#215) ;
#240=VERTEX_POINT('',#239) ;
#247=VERTEX_POINT('',#246) ;
#293=VERTEX_POINT('',#292) ;
#295=VERTEX_POINT('',#294) ;
#302=VERTEX_POINT('',#301) ;
#309=VERTEX_POINT('',#308) ;
#350=VERTEX_POINT('',#349) ;
#352=VERTEX_POINT('',#351) ;
#359=VERTEX_POINT('',#358) ;
#366=VERTEX_POINT('',#365) ;
#407=VERTEX_POINT('',#406) ;
#409=VERTEX_POINT('',#408) ;
#416=VERTEX_POINT('',#415) ;
#423=VERTEX_POINT('',#422) ;
#464=VERTEX_POINT('',#463) ;
#466=VERTEX_POINT('',#465) ;
#473=VERTEX_POINT('',#472) ;
#480=VERTEX_POINT('',#479) ;
#521=VERTEX_POINT('',#520) ;
#523=VERTEX_POINT('',#522) ;
#530=VERTEX_POINT('',#529) ;
#537=VERTEX_POINT('',#536) ;
#578=VERTEX_POINT('',#577) ;
#580=VERTEX_POINT('',#579) ;
#587=VERTEX_POINT('',#586) ;
#594=VERTEX_POINT('',#593) ;
#635=VERTEX_POINT('',#634) ;
#642=VERTEX_POINT('',#641) ;
#649=VERTEX_POINT('',#648) ;
#656=VERTEX_POINT('',#655) ;
#663=VERTEX_POINT('',#662) ;
#670=VERTEX_POINT('',#669) ;
#677=VERTEX_POINT('',#676) ;
#684=VERTEX_POINT('',#683) ;
#749=VERTEX_POINT('',#748) ;
#773=VERTEX_POINT('',#772) ;
#797=VERTEX_POINT('',#796) ;
#804=VERTEX_POINT('',#803) ;
#828=VERTEX_POINT('',#827) ;
#852=VERTEX_POINT('',#851) ;
#876=VERTEX_POINT('',#875) ;
#888=VERTEX_POINT('',#887) ;
#1001=ADVANCED_BREP_SHAPE_REPRESENTATION('NONE',(#21),#16) ;
#70=ADVANCED_FACE('PartBody',(#69),#35,.F.) ;
#87=ADVANCED_FACE('PartBody',(#86),#35,.F.) ;
#127=ADVANCED_FACE('PartBody',(#126),#92,.T.) ;
#158=ADVANCED_FACE('PartBody',(#157),#132,.F.) ;
#198=ADVANCED_FACE('PartBody',(#197),#163,.T.) ;
#229=ADVANCED_FACE('PartBody',(#228),#203,.F.) ;
#260=ADVANCED_FACE('PartBody',(#259),#234,.T.) ;
#282=ADVANCED_FACE('PartBody',(#281),#265,.F.) ;
#322=ADVANCED_FACE('PartBody',(#321),#287,.F.) ;
#339=ADVANCED_FACE('PartBody',(#338),#287,.F.) ;
#379=ADVANCED_FACE('PartBody',(#378),#344,.F.) ;
#396=ADVANCED_FACE('PartBody',(#395),#344,.F.) ;
#436=ADVANCED_FACE('PartBody',(#435),#401,.F.) ;
#453=ADVANCED_FACE('PartBody',(#452),#401,.F.) ;
#493=ADVANCED_FACE('PartBody',(#492),#458,.F.) ;
#510=ADVANCED_FACE('PartBody',(#509),#458,.F.) ;
#550=ADVANCED_FACE('PartBody',(#549),#515,.F.) ;
#567=ADVANCED_FACE('PartBody',(#566),#515,.F.) ;
#607=ADVANCED_FACE('PartBody',(#606),#572,.F.) ;
#624=ADVANCED_FACE('PartBody',(#623),#572,.F.) ;
#738=ADVANCED_FACE('PartBody',(#703,#707,#711,#715,#721,#725,#729,#733,#737),#629,.T.) ;
#762=ADVANCED_FACE('PartBody',(#761),#743,.T.) ;
#786=ADVANCED_FACE('PartBody',(#785),#767,.T.) ;
#817=ADVANCED_FACE('PartBody',(#816),#791,.F.) ;
#841=ADVANCED_FACE('PartBody',(#840),#822,.F.) ;
#865=ADVANCED_FACE('PartBody',(#864),#846,.T.) ;
#942=ADVANCED_FACE('PartBody',(#907,#911,#915,#919,#925,#929,#933,#937,#941),#870,.F.) ;
#959=ADVANCED_FACE('PartBody',(#958),#947,.F.) ;
#971=ADVANCED_FACE('PartBody',(#970),#964,.T.) ;
#988=ADVANCED_FACE('PartBody',(#987),#976,.F.) ;
#1000=ADVANCED_FACE('PartBody',(#999),#993,.F.) ;
#4=APPLICATION_PROTOCOL_DEFINITION('international standard','ap242_managed_model_based_3d_engineering',2014,#1) ;
#22=COLOUR_RGB('Colour',0.823529411765,0.823529411765,1.) ;
#69=FACE_OUTER_BOUND('',#64,.T.) ;
#86=FACE_OUTER_BOUND('',#81,.T.) ;
#126=FACE_OUTER_BOUND('',#121,.T.) ;
#157=FACE_OUTER_BOUND('',#152,.T.) ;
#197=FACE_OUTER_BOUND('',#192,.T.) ;
#228=FACE_OUTER_BOUND('',#223,.T.) ;
#259=FACE_OUTER_BOUND('',#254,.T.) ;
#281=FACE_OUTER_BOUND('',#276,.T.) ;
#321=FACE_OUTER_BOUND('',#316,.T.) ;
#338=FACE_OUTER_BOUND('',#333,.T.) ;
#378=FACE_OUTER_BOUND('',#373,.T.) ;
#395=FACE_OUTER_BOUND('',#390,.T.) ;
#435=FACE_OUTER_BOUND('',#430,.T.) ;
#452=FACE_OUTER_BOUND('',#447,.T.) ;
#492=FACE_OUTER_BOUND('',#487,.T.) ;
#509=FACE_OUTER_BOUND('',#504,.T.) ;
#549=FACE_OUTER_BOUND('',#544,.T.) ;
#566=FACE_OUTER_BOUND('',#561,.T.) ;
#606=FACE_OUTER_BOUND('',#601,.T.) ;
#623=FACE_OUTER_BOUND('',#618,.T.) ;
#703=FACE_OUTER_BOUND('',#691,.T.) ;
#761=FACE_OUTER_BOUND('',#756,.T.) ;
#785=FACE_OUTER_BOUND('',#780,.T.) ;
#816=FACE_OUTER_BOUND('',#811,.T.) ;
#840=FACE_OUTER_BOUND('',#835,.T.) ;
#864=FACE_OUTER_BOUND('',#859,.T.) ;
#907=FACE_OUTER_BOUND('',#895,.T.) ;
#958=FACE_OUTER_BOUND('',#953,.T.) ;
#970=FACE_OUTER_BOUND('',#965,.T.) ;
#987=FACE_OUTER_BOUND('',#982,.T.) ;
#999=FACE_OUTER_BOUND('',#994,.T.) ;
#9=PRODUCT_CATEGORY_RELATIONSHIP(' ',' ',#7,#8) ;
#6=PRODUCT_DEFINITION_FORMATION_WITH_SPECIFIED_SOURCE('',' ',#5,.NOT_KNOWN.) ;
#20=SHAPE_DEFINITION_REPRESENTATION(#11,#19) ;
#12=(LENGTH_UNIT()NAMED_UNIT(*)SI_UNIT(.MILLI.,.METRE.)) ;
#13=(NAMED_UNIT(*)PLANE_ANGLE_UNIT()SI_UNIT($,.RADIAN.)) ;
#14=(NAMED_UNIT(*)SI_UNIT($,.STERADIAN.)SOLID_ANGLE_UNIT()) ;
#16=(GEOMETRIC_REPRESENTATION_CONTEXT(3)GLOBAL_UNCERTAINTY_ASSIGNED_CONTEXT((#15))GLOBAL_UNIT_ASSIGNED_CONTEXT((#12,#13,#14))REPRESENTATION_CONTEXT(' ',' ')) ;
ENDSEC;
END-ISO-10303-21;
