ISO-10303-21;
HEADER;
FILE_DESCRIPTION(('CATIA V5 STEP Exchange','CAx-IF Rec.Pracs.--- Model Styling and Organization---1.4--- 2014-01-23','CAx-IF Rec.Pracs.---3D Tessellated Data Validation Properties---0.5---2014-09-14'),'2;1');

FILE_NAME('C:\\Users\\PCKT-13\\Documents\\GrabCAD\\I+D\\SERIE_LEXA\\IKOT-1360-170921A-LEXA_WAIST_SUPPORT\\FAB\\1360.000.003.000.TAMBOR.stp','2021-10-27T23:12:10+00:00',('none'),('none'),'CATIA Version 5-6 Release 2018','CATIA V5 STEP AP242','none');

FILE_SCHEMA(('AP242_MANAGED_MODEL_BASED_3D_ENGINEERING_MIM_LF  {1 0 10303 442 1 1 4}'));

ENDSEC;
DATA;
#5=PRODUCT('1360.000.003.000.TAMBOR','','',(#2)) ;
#2=PRODUCT_CONTEXT(' ',#1,'mechanical') ;
#1=APPLICATION_CONTEXT('managed model based 3d engineering') ;
#10=PRODUCT_DEFINITION('',' ',#6,#3) ;
#3=PRODUCT_DEFINITION_CONTEXT('part definition',#1,' ') ;
#11=PRODUCT_DEFINITION_SHAPE(' ',' ',#10) ;
#1302=MECHANICAL_DESIGN_GEOMETRIC_PRESENTATION_REPRESENTATION(' ',(#78,#110,#128,#160,#173,#186,#440,#453,#485,#498,#530,#543,#575,#588,#629,#647,#688,#706,#747,#765,#797,#810,#842,#855,#887,#900,#923,#931,#954,#962,#985,#993,#29),#16) ;
#19=SHAPE_REPRESENTATION(' ',(#18),#16) ;
#7=PRODUCT_CATEGORY('part','specification') ;
#17=CARTESIAN_POINT(' ',(0.,0.,0.)) ;
#31=CARTESIAN_POINT('Axis2P3D Location',(9.19238815543,9.19238815543,0.375)) ;
#36=CARTESIAN_POINT('Line Origine',(6.84238815543,9.19238815543,1.025)) ;
#40=CARTESIAN_POINT('Vertex',(7.49238815543,9.19238815543,0.375)) ;
#42=CARTESIAN_POINT('Vertex',(6.19238815543,9.19238815543,1.675)) ;
#45=CARTESIAN_POINT('Axis2P3D Location',(9.19238815543,9.19238815543,1.675)) ;
#49=CARTESIAN_POINT('Vertex',(12.1923881554,9.19238815543,1.675)) ;
#52=CARTESIAN_POINT('Line Origine',(11.5423881554,9.19238815543,1.025)) ;
#56=CARTESIAN_POINT('Vertex',(10.8923881554,9.19238815543,0.375)) ;
#59=CARTESIAN_POINT('Axis2P3D Location',(9.19238815543,9.19238815543,0.375)) ;
#79=CARTESIAN_POINT('Axis2P3D Location',(9.19238815543,9.19238815543,3.175)) ;
#84=CARTESIAN_POINT('Axis2P3D Location',(9.19238815543,9.19238815543,0.)) ;
#88=CARTESIAN_POINT('Vertex',(7.49238815543,9.19238815543,0.)) ;
#90=CARTESIAN_POINT('Vertex',(10.8923881554,9.19238815543,0.)) ;
#93=CARTESIAN_POINT('Line Origine',(7.49238815543,9.19238815543,-3.225)) ;
#98=CARTESIAN_POINT('Line Origine',(10.8923881554,9.19238815543,-3.225)) ;
#111=CARTESIAN_POINT('Axis2P3D Location',(9.19238815543,9.19238815543,1.675)) ;
#116=CARTESIAN_POINT('Axis2P3D Location',(9.19238815543,9.19238815543,0.375)) ;
#129=CARTESIAN_POINT('Axis2P3D Location',(9.19238815543,9.19238815543,3.175)) ;
#134=CARTESIAN_POINT('Axis2P3D Location',(9.19238815543,9.19238815543,3.175)) ;
#138=CARTESIAN_POINT('Vertex',(6.19238815543,9.19238815543,3.175)) ;
#140=CARTESIAN_POINT('Vertex',(12.1923881554,9.19238815543,3.175)) ;
#143=CARTESIAN_POINT('Line Origine',(12.1923881554,9.19238815543,2.58000000002)) ;
#148=CARTESIAN_POINT('Line Origine',(6.19238815543,9.19238815543,2.58000000002)) ;
#161=CARTESIAN_POINT('Axis2P3D Location',(9.19238815543,9.19238815543,0.)) ;
#174=CARTESIAN_POINT('Axis2P3D Location',(9.19238815543,9.19238815543,3.175)) ;
#187=CARTESIAN_POINT('Axis2P3D Location',(0.,0.,3.175)) ;
#192=CARTESIAN_POINT('Axis2P3D Location',(0.,0.,3.175)) ;
#196=CARTESIAN_POINT('Vertex',(41.5,0.,3.175)) ;
#198=CARTESIAN_POINT('Vertex',(-41.5,-1.33474179923E-014,3.175)) ;
#201=CARTESIAN_POINT('Axis2P3D Location',(0.,0.,3.175)) ;
#214=CARTESIAN_POINT('Axis2P3D Location',(0.,0.,3.175)) ;
#218=CARTESIAN_POINT('Vertex',(5.,0.,3.175)) ;
#220=CARTESIAN_POINT('Vertex',(-5.,6.12323399574E-016,3.175)) ;
#223=CARTESIAN_POINT('Axis2P3D Location',(0.,0.,3.175)) ;
#232=CARTESIAN_POINT('Axis2P3D Location',(0.,8.,3.175)) ;
#236=CARTESIAN_POINT('Vertex',(-1.7,8.,3.175)) ;
#238=CARTESIAN_POINT('Vertex',(1.7,8.,3.175)) ;
#241=CARTESIAN_POINT('Axis2P3D Location',(0.,8.,3.175)) ;
#250=CARTESIAN_POINT('Axis2P3D Location',(-8.,4.89858719659E-016,3.175)) ;
#254=CARTESIAN_POINT('Vertex',(-8.,1.7,3.175)) ;
#256=CARTESIAN_POINT('Vertex',(-8.,-1.7,3.175)) ;
#259=CARTESIAN_POINT('Axis2P3D Location',(-8.,4.89858719659E-016,3.175)) ;
#268=CARTESIAN_POINT('Axis2P3D Location',(-9.79717439318E-016,-8.,3.175)) ;
#272=CARTESIAN_POINT('Vertex',(-1.7,-8.,3.175)) ;
#274=CARTESIAN_POINT('Vertex',(1.7,-8.,3.175)) ;
#277=CARTESIAN_POINT('Axis2P3D Location',(-9.79717439318E-016,-8.,3.175)) ;
#286=CARTESIAN_POINT('Axis2P3D Location',(8.,-1.46957615898E-015,3.175)) ;
#290=CARTESIAN_POINT('Vertex',(8.,-1.7,3.175)) ;
#292=CARTESIAN_POINT('Vertex',(8.,1.7,3.175)) ;
#295=CARTESIAN_POINT('Axis2P3D Location',(8.,-1.46957615898E-015,3.175)) ;
#304=CARTESIAN_POINT('Axis2P3D Location',(-9.19238815543,9.19238815543,3.175)) ;
#308=CARTESIAN_POINT('Vertex',(-9.19238815543,12.1923881554,3.175)) ;
#310=CARTESIAN_POINT('Vertex',(-9.19238815543,6.19238815543,3.175)) ;
#313=CARTESIAN_POINT('Axis2P3D Location',(-9.19238815543,9.19238815543,3.175)) ;
#322=CARTESIAN_POINT('Axis2P3D Location',(-9.19238815543,-9.19238815543,3.175)) ;
#326=CARTESIAN_POINT('Vertex',(-12.1923881554,-9.19238815543,3.175)) ;
#328=CARTESIAN_POINT('Vertex',(-6.19238815543,-9.19238815543,3.175)) ;
#331=CARTESIAN_POINT('Axis2P3D Location',(-9.19238815543,-9.19238815543,3.175)) ;
#340=CARTESIAN_POINT('Axis2P3D Location',(9.19238815543,-9.19238815543,3.175)) ;
#344=CARTESIAN_POINT('Vertex',(9.19238815543,-12.1923881554,3.175)) ;
#346=CARTESIAN_POINT('Vertex',(9.19238815543,-6.19238815543,3.175)) ;
#349=CARTESIAN_POINT('Axis2P3D Location',(9.19238815543,-9.19238815543,3.175)) ;
#359=CARTESIAN_POINT('Axis2P3D Location',(0.,0.,1.5875)) ;
#364=CARTESIAN_POINT('Line Origine',(-5.,6.12323399574E-016,1.5875)) ;
#368=CARTESIAN_POINT('Vertex',(-5.,6.12323399574E-016,0.)) ;
#371=CARTESIAN_POINT('Axis2P3D Location',(0.,0.,0.)) ;
#375=CARTESIAN_POINT('Vertex',(5.,-1.22464679915E-015,0.)) ;
#378=CARTESIAN_POINT('Line Origine',(5.,0.,1.5875)) ;
#390=CARTESIAN_POINT('Axis2P3D Location',(0.,0.,0.)) ;
#402=CARTESIAN_POINT('Axis2P3D Location',(0.,8.,3.175)) ;
#407=CARTESIAN_POINT('Line Origine',(1.7,8.,-1.66999999998)) ;
#411=CARTESIAN_POINT('Vertex',(1.7,8.,0.)) ;
#414=CARTESIAN_POINT('Axis2P3D Location',(0.,8.,0.)) ;
#418=CARTESIAN_POINT('Vertex',(-1.7,8.,8.881784197E-016)) ;
#421=CARTESIAN_POINT('Line Origine',(-1.7,8.,-1.66999999998)) ;
#441=CARTESIAN_POINT('Axis2P3D Location',(0.,8.,0.)) ;
#454=CARTESIAN_POINT('Axis2P3D Location',(-8.,4.89858719659E-016,3.175)) ;
#459=CARTESIAN_POINT('Line Origine',(-8.,-1.7,-1.66999999998)) ;
#463=CARTESIAN_POINT('Vertex',(-8.,-1.7,0.)) ;
#466=CARTESIAN_POINT('Axis2P3D Location',(-8.,4.89858719659E-016,0.)) ;
#470=CARTESIAN_POINT('Vertex',(-8.,1.7,0.)) ;
#473=CARTESIAN_POINT('Line Origine',(-8.,1.7,-1.66999999998)) ;
#486=CARTESIAN_POINT('Axis2P3D Location',(-8.,4.89858719659E-016,0.)) ;
#499=CARTESIAN_POINT('Axis2P3D Location',(-9.79717439318E-016,-8.,3.175)) ;
#504=CARTESIAN_POINT('Line Origine',(1.7,-8.,-1.66999999998)) ;
#508=CARTESIAN_POINT('Vertex',(1.7,-8.,0.)) ;
#511=CARTESIAN_POINT('Axis2P3D Location',(-9.79717439318E-016,-8.,0.)) ;
#515=CARTESIAN_POINT('Vertex',(-1.7,-8.,0.)) ;
#518=CARTESIAN_POINT('Line Origine',(-1.7,-8.,-1.66999999998)) ;
#531=CARTESIAN_POINT('Axis2P3D Location',(-9.79717439318E-016,-8.,0.)) ;
#544=CARTESIAN_POINT('Axis2P3D Location',(8.,-1.46957615898E-015,3.175)) ;
#549=CARTESIAN_POINT('Line Origine',(8.,1.7,-1.66999999998)) ;
#553=CARTESIAN_POINT('Vertex',(8.,1.7,0.)) ;
#556=CARTESIAN_POINT('Axis2P3D Location',(8.,-1.46957615898E-015,0.)) ;
#560=CARTESIAN_POINT('Vertex',(8.,-1.7,0.)) ;
#563=CARTESIAN_POINT('Line Origine',(8.,-1.7,-1.66999999998)) ;
#576=CARTESIAN_POINT('Axis2P3D Location',(8.,-1.46957615898E-015,0.)) ;
#589=CARTESIAN_POINT('Axis2P3D Location',(-9.19238815543,9.19238815543,3.175)) ;
#594=CARTESIAN_POINT('Axis2P3D Location',(-9.19238815543,9.19238815543,0.)) ;
#598=CARTESIAN_POINT('Vertex',(-9.19238815543,10.8923881554,0.)) ;
#600=CARTESIAN_POINT('Vertex',(-9.19238815543,7.49238815543,0.)) ;
#603=CARTESIAN_POINT('Line Origine',(-9.19238815543,10.8923881554,-3.225)) ;
#607=CARTESIAN_POINT('Vertex',(-9.19238815543,10.8923881554,0.375)) ;
#610=CARTESIAN_POINT('Axis2P3D Location',(-9.19238815543,9.19238815543,0.375)) ;
#614=CARTESIAN_POINT('Vertex',(-9.19238815543,7.49238815543,0.375)) ;
#617=CARTESIAN_POINT('Line Origine',(-9.19238815543,7.49238815543,-3.225)) ;
#630=CARTESIAN_POINT('Axis2P3D Location',(-9.19238815543,9.19238815543,0.)) ;
#635=CARTESIAN_POINT('Axis2P3D Location',(-9.19238815543,9.19238815543,0.375)) ;
#648=CARTESIAN_POINT('Axis2P3D Location',(-9.19238815543,-9.19238815543,3.175)) ;
#653=CARTESIAN_POINT('Axis2P3D Location',(-9.19238815543,-9.19238815543,0.)) ;
#657=CARTESIAN_POINT('Vertex',(-10.8923881554,-9.19238815543,0.)) ;
#659=CARTESIAN_POINT('Vertex',(-7.49238815543,-9.19238815543,0.)) ;
#662=CARTESIAN_POINT('Line Origine',(-10.8923881554,-9.19238815543,-3.225)) ;
#666=CARTESIAN_POINT('Vertex',(-10.8923881554,-9.19238815543,0.375)) ;
#669=CARTESIAN_POINT('Axis2P3D Location',(-9.19238815543,-9.19238815543,0.375)) ;
#673=CARTESIAN_POINT('Vertex',(-7.49238815543,-9.19238815543,0.375)) ;
#676=CARTESIAN_POINT('Line Origine',(-7.49238815543,-9.19238815543,-3.225)) ;
#689=CARTESIAN_POINT('Axis2P3D Location',(-9.19238815543,-9.19238815543,0.)) ;
#694=CARTESIAN_POINT('Axis2P3D Location',(-9.19238815543,-9.19238815543,0.375)) ;
#707=CARTESIAN_POINT('Axis2P3D Location',(9.19238815543,-9.19238815543,3.175)) ;
#712=CARTESIAN_POINT('Axis2P3D Location',(9.19238815543,-9.19238815543,0.)) ;
#716=CARTESIAN_POINT('Vertex',(9.19238815543,-10.8923881554,0.)) ;
#718=CARTESIAN_POINT('Vertex',(9.19238815543,-7.49238815543,0.)) ;
#721=CARTESIAN_POINT('Line Origine',(9.19238815543,-10.8923881554,-3.225)) ;
#725=CARTESIAN_POINT('Vertex',(9.19238815543,-10.8923881554,0.375)) ;
#728=CARTESIAN_POINT('Axis2P3D Location',(9.19238815543,-9.19238815543,0.375)) ;
#732=CARTESIAN_POINT('Vertex',(9.19238815543,-7.49238815543,0.375)) ;
#735=CARTESIAN_POINT('Line Origine',(9.19238815543,-7.49238815543,-3.225)) ;
#748=CARTESIAN_POINT('Axis2P3D Location',(9.19238815543,-9.19238815543,0.)) ;
#753=CARTESIAN_POINT('Axis2P3D Location',(9.19238815543,-9.19238815543,0.375)) ;
#766=CARTESIAN_POINT('Axis2P3D Location',(-9.19238815543,9.19238815543,3.175)) ;
#771=CARTESIAN_POINT('Line Origine',(-9.19238815543,6.19238815543,2.58000000002)) ;
#775=CARTESIAN_POINT('Vertex',(-9.19238815543,6.19238815543,1.675)) ;
#778=CARTESIAN_POINT('Axis2P3D Location',(-9.19238815543,9.19238815543,1.675)) ;
#782=CARTESIAN_POINT('Vertex',(-9.19238815543,12.1923881554,1.675)) ;
#785=CARTESIAN_POINT('Line Origine',(-9.19238815543,12.1923881554,2.58000000002)) ;
#798=CARTESIAN_POINT('Axis2P3D Location',(-9.19238815543,9.19238815543,1.675)) ;
#811=CARTESIAN_POINT('Axis2P3D Location',(-9.19238815543,-9.19238815543,3.175)) ;
#816=CARTESIAN_POINT('Line Origine',(-6.19238815543,-9.19238815543,2.58000000002)) ;
#820=CARTESIAN_POINT('Vertex',(-6.19238815543,-9.19238815543,1.675)) ;
#823=CARTESIAN_POINT('Axis2P3D Location',(-9.19238815543,-9.19238815543,1.675)) ;
#827=CARTESIAN_POINT('Vertex',(-12.1923881554,-9.19238815543,1.675)) ;
#830=CARTESIAN_POINT('Line Origine',(-12.1923881554,-9.19238815543,2.58000000002)) ;
#843=CARTESIAN_POINT('Axis2P3D Location',(-9.19238815543,-9.19238815543,1.675)) ;
#856=CARTESIAN_POINT('Axis2P3D Location',(9.19238815543,-9.19238815543,3.175)) ;
#861=CARTESIAN_POINT('Line Origine',(9.19238815543,-6.19238815543,2.58000000002)) ;
#865=CARTESIAN_POINT('Vertex',(9.19238815543,-6.19238815543,1.675)) ;
#868=CARTESIAN_POINT('Axis2P3D Location',(9.19238815543,-9.19238815543,1.675)) ;
#872=CARTESIAN_POINT('Vertex',(9.19238815543,-12.1923881554,1.675)) ;
#875=CARTESIAN_POINT('Line Origine',(9.19238815543,-12.1923881554,2.58000000002)) ;
#888=CARTESIAN_POINT('Axis2P3D Location',(9.19238815543,-9.19238815543,1.675)) ;
#901=CARTESIAN_POINT('Axis2P3D Location',(-9.19238815543,9.19238815543,0.375)) ;
#906=CARTESIAN_POINT('Line Origine',(-9.19238815543,11.5423881554,1.025)) ;
#911=CARTESIAN_POINT('Line Origine',(-9.19238815543,6.84238815543,1.025)) ;
#932=CARTESIAN_POINT('Axis2P3D Location',(-9.19238815543,-9.19238815543,0.375)) ;
#937=CARTESIAN_POINT('Line Origine',(-11.5423881554,-9.19238815543,1.025)) ;
#942=CARTESIAN_POINT('Line Origine',(-6.84238815543,-9.19238815543,1.025)) ;
#963=CARTESIAN_POINT('Axis2P3D Location',(9.19238815543,-9.19238815543,0.375)) ;
#968=CARTESIAN_POINT('Line Origine',(9.19238815543,-11.5423881554,1.025)) ;
#973=CARTESIAN_POINT('Line Origine',(9.19238815543,-6.84238815543,1.025)) ;
#994=CARTESIAN_POINT('Axis2P3D Location',(0.,0.,1.5875)) ;
#999=CARTESIAN_POINT('Axis2P3D Location',(0.,0.,-10.)) ;
#1003=CARTESIAN_POINT('Vertex',(-7.20639937318,40.86952175,-10.)) ;
#1005=CARTESIAN_POINT('Vertex',(-41.5,-1.33474179923E-014,-10.)) ;
#1008=CARTESIAN_POINT('Line Origine',(-41.5,-1.33474179923E-014,-3.4125)) ;
#1013=CARTESIAN_POINT('Line Origine',(41.5,0.,-3.4125)) ;
#1017=CARTESIAN_POINT('Vertex',(41.5,-4.70239728505E-014,0.)) ;
#1020=CARTESIAN_POINT('Axis2P3D Location',(0.,0.,-8.881784197E-016)) ;
#1024=CARTESIAN_POINT('Vertex',(-7.20639937318,40.86952175,-8.881784197E-016)) ;
#1027=CARTESIAN_POINT('Line Origine',(-7.20639937318,40.86952175,-3.4125)) ;
#1041=CARTESIAN_POINT('Axis2P3D Location',(0.,0.,-10.)) ;
#1045=CARTESIAN_POINT('Vertex',(20.75,-35.9400542571,-10.)) ;
#1048=CARTESIAN_POINT('Line Origine',(20.75,-35.9400542571,-3.4125)) ;
#1052=CARTESIAN_POINT('Vertex',(20.75,-35.9400542571,0.)) ;
#1055=CARTESIAN_POINT('Axis2P3D Location',(0.,0.,0.)) ;
#1069=CARTESIAN_POINT('Axis2P3D Location',(-1.7763568394E-015,-3.5527136788E-015,-1.)) ;
#1074=CARTESIAN_POINT('Axis2P3D Location',(-6.85910301784,38.899906244,-1.)) ;
#1078=CARTESIAN_POINT('Vertex',(-6.85910301784,38.899906244,0.)) ;
#1080=CARTESIAN_POINT('Vertex',(-7.03275119551,39.884713997,-1.)) ;
#1083=CARTESIAN_POINT('Axis2P3D Location',(-1.7763568394E-015,-3.5527136788E-015,0.)) ;
#1087=CARTESIAN_POINT('Vertex',(-39.5,4.83825866861E-015,0.)) ;
#1090=CARTESIAN_POINT('Axis2P3D Location',(-39.5,1.39888101103E-014,-1.)) ;
#1094=CARTESIAN_POINT('Vertex',(-40.5,2.29454325355E-014,-1.)) ;
#1097=CARTESIAN_POINT('Axis2P3D Location',(-1.7763568394E-015,-3.5527136788E-015,-1.)) ;
#1109=CARTESIAN_POINT('Axis2P3D Location',(0.,0.,-5.)) ;
#1114=CARTESIAN_POINT('Line Origine',(-7.03275119551,39.884713997,-5.)) ;
#1118=CARTESIAN_POINT('Vertex',(-7.03275119551,39.884713997,-10.)) ;
#1121=CARTESIAN_POINT('Line Origine',(-40.5,2.29454325355E-014,-5.)) ;
#1125=CARTESIAN_POINT('Vertex',(-40.5,4.95981953655E-015,-10.)) ;
#1128=CARTESIAN_POINT('Axis2P3D Location',(0.,0.,-10.)) ;
#1140=CARTESIAN_POINT('Axis2P3D Location',(-1.06581410364E-014,0.,-1.)) ;
#1145=CARTESIAN_POINT('Axis2P3D Location',(19.75,-34.2080034495,-1.)) ;
#1149=CARTESIAN_POINT('Vertex',(19.7500004618,-34.2080031829,0.)) ;
#1151=CARTESIAN_POINT('Vertex',(20.25,-35.0740288533,-1.)) ;
#1154=CARTESIAN_POINT('Axis2P3D Location',(-1.06581410364E-014,0.,-1.)) ;
#1159=CARTESIAN_POINT('Axis2P3D Location',(-1.06581410364E-014,0.,0.)) ;
#1171=CARTESIAN_POINT('Line Origine',(20.25,-35.0740288533,-5.)) ;
#1175=CARTESIAN_POINT('Vertex',(20.25,-35.0740288533,-10.)) ;
#1178=CARTESIAN_POINT('Axis2P3D Location',(0.,0.,-10.)) ;
#1190=CARTESIAN_POINT('Axis2P3D Location',(0.,0.,-10.)) ;
#1195=CARTESIAN_POINT('Line Origine',(-7.11957528434,40.3771178735,-10.)) ;
#1200=CARTESIAN_POINT('Line Origine',(20.5,-35.5070415552,-10.)) ;
#1214=CARTESIAN_POINT('Axis2P3D Location',(0.,0.,0.)) ;
#1219=CARTESIAN_POINT('Line Origine',(20.25,-35.0740288533,0.)) ;
#1232=CARTESIAN_POINT('Axis2P3D Location',(0.,0.,0.)) ;
#1237=CARTESIAN_POINT('Line Origine',(-7.03275119551,39.884713997,0.)) ;
#1250=CARTESIAN_POINT('Axis2P3D Location',(0.,0.,0.)) ;
#8=PRODUCT_RELATED_PRODUCT_CATEGORY('part',$,(#5)) ;
#29=STYLED_ITEM(' ',(#28),#21) ;
#28=PRESENTATION_STYLE_ASSIGNMENT((#27)) ;
#77=PRESENTATION_STYLE_ASSIGNMENT((#76)) ;
#439=PRESENTATION_STYLE_ASSIGNMENT((#438)) ;
#27=SURFACE_STYLE_USAGE(.BOTH.,#26) ;
#76=SURFACE_STYLE_USAGE(.BOTH.,#75) ;
#438=SURFACE_STYLE_USAGE(.BOTH.,#437) ;
#26=SURFACE_SIDE_STYLE(' ',(#25)) ;
#75=SURFACE_SIDE_STYLE(' ',(#74)) ;
#437=SURFACE_SIDE_STYLE(' ',(#436)) ;
#25=SURFACE_STYLE_FILL_AREA(#24) ;
#74=SURFACE_STYLE_FILL_AREA(#73) ;
#436=SURFACE_STYLE_FILL_AREA(#435) ;
#24=FILL_AREA_STYLE(' ',(#23)) ;
#73=FILL_AREA_STYLE(' ',(#72)) ;
#435=FILL_AREA_STYLE(' ',(#434)) ;
#23=FILL_AREA_STYLE_COLOUR(' ',#22) ;
#72=FILL_AREA_STYLE_COLOUR(' ',#71) ;
#434=FILL_AREA_STYLE_COLOUR(' ',#433) ;
#38=VECTOR('Line Direction',#37,1.) ;
#54=VECTOR('Line Direction',#53,1.) ;
#95=VECTOR('Line Direction',#94,1.) ;
#100=VECTOR('Line Direction',#99,1.) ;
#145=VECTOR('Line Direction',#144,1.) ;
#150=VECTOR('Line Direction',#149,1.) ;
#366=VECTOR('Line Direction',#365,1.) ;
#380=VECTOR('Line Direction',#379,1.) ;
#409=VECTOR('Line Direction',#408,1.) ;
#423=VECTOR('Line Direction',#422,1.) ;
#461=VECTOR('Line Direction',#460,1.) ;
#475=VECTOR('Line Direction',#474,1.) ;
#506=VECTOR('Line Direction',#505,1.) ;
#520=VECTOR('Line Direction',#519,1.) ;
#551=VECTOR('Line Direction',#550,1.) ;
#565=VECTOR('Line Direction',#564,1.) ;
#605=VECTOR('Line Direction',#604,1.) ;
#619=VECTOR('Line Direction',#618,1.) ;
#664=VECTOR('Line Direction',#663,1.) ;
#678=VECTOR('Line Direction',#677,1.) ;
#723=VECTOR('Line Direction',#722,1.) ;
#737=VECTOR('Line Direction',#736,1.) ;
#773=VECTOR('Line Direction',#772,1.) ;
#787=VECTOR('Line Direction',#786,1.) ;
#818=VECTOR('Line Direction',#817,1.) ;
#832=VECTOR('Line Direction',#831,1.) ;
#863=VECTOR('Line Direction',#862,1.) ;
#877=VECTOR('Line Direction',#876,1.) ;
#908=VECTOR('Line Direction',#907,1.) ;
#913=VECTOR('Line Direction',#912,1.) ;
#939=VECTOR('Line Direction',#938,1.) ;
#944=VECTOR('Line Direction',#943,1.) ;
#970=VECTOR('Line Direction',#969,1.) ;
#975=VECTOR('Line Direction',#974,1.) ;
#1010=VECTOR('Line Direction',#1009,1.) ;
#1015=VECTOR('Line Direction',#1014,1.) ;
#1029=VECTOR('Line Direction',#1028,1.) ;
#1050=VECTOR('Line Direction',#1049,1.) ;
#1116=VECTOR('Line Direction',#1115,1.) ;
#1123=VECTOR('Line Direction',#1122,1.) ;
#1173=VECTOR('Line Direction',#1172,1.) ;
#1197=VECTOR('Line Direction',#1196,1.) ;
#1202=VECTOR('Line Direction',#1201,1.) ;
#1221=VECTOR('Line Direction',#1220,1.) ;
#1239=VECTOR('Line Direction',#1238,1.) ;
#32=DIRECTION('Axis2P3D Direction',(0.,0.,1.)) ;
#33=DIRECTION('Axis2P3D XDirection',(1.,0.,0.)) ;
#37=DIRECTION('Vector Direction',(-0.707106781187,0.,0.707106781187)) ;
#46=DIRECTION('Axis2P3D Direction',(0.,0.,1.)) ;
#53=DIRECTION('Vector Direction',(0.707106781187,0.,0.707106781187)) ;
#60=DIRECTION('Axis2P3D Direction',(0.,0.,1.)) ;
#80=DIRECTION('Axis2P3D Direction',(0.,-0.,-1.)) ;
#81=DIRECTION('Axis2P3D XDirection',(1.,0.,0.)) ;
#85=DIRECTION('Axis2P3D Direction',(0.,-0.,-1.)) ;
#94=DIRECTION('Vector Direction',(0.,0.,-1.)) ;
#99=DIRECTION('Vector Direction',(0.,0.,-1.)) ;
#112=DIRECTION('Axis2P3D Direction',(0.,0.,1.)) ;
#117=DIRECTION('Axis2P3D Direction',(0.,0.,1.)) ;
#130=DIRECTION('Axis2P3D Direction',(0.,-0.,-1.)) ;
#131=DIRECTION('Axis2P3D XDirection',(1.,0.,0.)) ;
#135=DIRECTION('Axis2P3D Direction',(0.,-0.,-1.)) ;
#144=DIRECTION('Vector Direction',(0.,0.,-1.)) ;
#149=DIRECTION('Vector Direction',(0.,0.,-1.)) ;
#162=DIRECTION('Axis2P3D Direction',(0.,-0.,-1.)) ;
#175=DIRECTION('Axis2P3D Direction',(0.,-0.,-1.)) ;
#188=DIRECTION('Axis2P3D Direction',(0.,0.,1.)) ;
#189=DIRECTION('Axis2P3D XDirection',(1.,0.,0.)) ;
#193=DIRECTION('Axis2P3D Direction',(0.,0.,1.)) ;
#202=DIRECTION('Axis2P3D Direction',(0.,0.,1.)) ;
#215=DIRECTION('Axis2P3D Direction',(0.,0.,1.)) ;
#224=DIRECTION('Axis2P3D Direction',(0.,0.,1.)) ;
#233=DIRECTION('Axis2P3D Direction',(0.,0.,1.)) ;
#242=DIRECTION('Axis2P3D Direction',(0.,0.,1.)) ;
#251=DIRECTION('Axis2P3D Direction',(0.,0.,1.)) ;
#260=DIRECTION('Axis2P3D Direction',(0.,0.,1.)) ;
#269=DIRECTION('Axis2P3D Direction',(0.,0.,1.)) ;
#278=DIRECTION('Axis2P3D Direction',(0.,0.,1.)) ;
#287=DIRECTION('Axis2P3D Direction',(0.,0.,1.)) ;
#296=DIRECTION('Axis2P3D Direction',(0.,0.,1.)) ;
#305=DIRECTION('Axis2P3D Direction',(0.,0.,1.)) ;
#314=DIRECTION('Axis2P3D Direction',(0.,0.,1.)) ;
#323=DIRECTION('Axis2P3D Direction',(0.,0.,1.)) ;
#332=DIRECTION('Axis2P3D Direction',(0.,0.,1.)) ;
#341=DIRECTION('Axis2P3D Direction',(0.,0.,1.)) ;
#350=DIRECTION('Axis2P3D Direction',(0.,0.,1.)) ;
#360=DIRECTION('Axis2P3D Direction',(0.,0.,1.)) ;
#361=DIRECTION('Axis2P3D XDirection',(1.,0.,0.)) ;
#365=DIRECTION('Vector Direction',(0.,0.,1.)) ;
#372=DIRECTION('Axis2P3D Direction',(0.,0.,1.)) ;
#379=DIRECTION('Vector Direction',(0.,0.,1.)) ;
#391=DIRECTION('Axis2P3D Direction',(0.,0.,1.)) ;
#403=DIRECTION('Axis2P3D Direction',(0.,-0.,-1.)) ;
#404=DIRECTION('Axis2P3D XDirection',(1.,0.,0.)) ;
#408=DIRECTION('Vector Direction',(0.,0.,-1.)) ;
#415=DIRECTION('Axis2P3D Direction',(0.,-0.,-1.)) ;
#422=DIRECTION('Vector Direction',(0.,0.,-1.)) ;
#442=DIRECTION('Axis2P3D Direction',(0.,-0.,-1.)) ;
#455=DIRECTION('Axis2P3D Direction',(0.,0.,-1.)) ;
#456=DIRECTION('Axis2P3D XDirection',(6.12323399574E-017,1.,0.)) ;
#460=DIRECTION('Vector Direction',(0.,0.,-1.)) ;
#467=DIRECTION('Axis2P3D Direction',(0.,0.,-1.)) ;
#474=DIRECTION('Vector Direction',(0.,0.,-1.)) ;
#487=DIRECTION('Axis2P3D Direction',(0.,0.,-1.)) ;
#500=DIRECTION('Axis2P3D Direction',(0.,0.,-1.)) ;
#501=DIRECTION('Axis2P3D XDirection',(-1.,1.22464679915E-016,0.)) ;
#505=DIRECTION('Vector Direction',(0.,0.,-1.)) ;
#512=DIRECTION('Axis2P3D Direction',(0.,0.,-1.)) ;
#519=DIRECTION('Vector Direction',(0.,0.,-1.)) ;
#532=DIRECTION('Axis2P3D Direction',(0.,0.,-1.)) ;
#545=DIRECTION('Axis2P3D Direction',(-0.,0.,-1.)) ;
#546=DIRECTION('Axis2P3D XDirection',(-1.83697019872E-016,-1.,0.)) ;
#550=DIRECTION('Vector Direction',(0.,0.,-1.)) ;
#557=DIRECTION('Axis2P3D Direction',(-0.,0.,-1.)) ;
#564=DIRECTION('Vector Direction',(0.,0.,-1.)) ;
#577=DIRECTION('Axis2P3D Direction',(-0.,0.,-1.)) ;
#590=DIRECTION('Axis2P3D Direction',(0.,0.,-1.)) ;
#591=DIRECTION('Axis2P3D XDirection',(6.12323399574E-017,1.,0.)) ;
#595=DIRECTION('Axis2P3D Direction',(0.,0.,-1.)) ;
#604=DIRECTION('Vector Direction',(0.,0.,-1.)) ;
#611=DIRECTION('Axis2P3D Direction',(0.,0.,-1.)) ;
#618=DIRECTION('Vector Direction',(0.,0.,-1.)) ;
#631=DIRECTION('Axis2P3D Direction',(0.,0.,-1.)) ;
#636=DIRECTION('Axis2P3D Direction',(0.,0.,-1.)) ;
#649=DIRECTION('Axis2P3D Direction',(0.,0.,-1.)) ;
#650=DIRECTION('Axis2P3D XDirection',(-1.,1.22464679915E-016,0.)) ;
#654=DIRECTION('Axis2P3D Direction',(0.,0.,-1.)) ;
#663=DIRECTION('Vector Direction',(0.,0.,-1.)) ;
#670=DIRECTION('Axis2P3D Direction',(0.,0.,-1.)) ;
#677=DIRECTION('Vector Direction',(0.,0.,-1.)) ;
#690=DIRECTION('Axis2P3D Direction',(0.,0.,-1.)) ;
#695=DIRECTION('Axis2P3D Direction',(0.,0.,-1.)) ;
#708=DIRECTION('Axis2P3D Direction',(-0.,0.,-1.)) ;
#709=DIRECTION('Axis2P3D XDirection',(-1.83697019872E-016,-1.,0.)) ;
#713=DIRECTION('Axis2P3D Direction',(-0.,0.,-1.)) ;
#722=DIRECTION('Vector Direction',(0.,0.,-1.)) ;
#729=DIRECTION('Axis2P3D Direction',(-0.,0.,-1.)) ;
#736=DIRECTION('Vector Direction',(0.,0.,-1.)) ;
#749=DIRECTION('Axis2P3D Direction',(-0.,0.,-1.)) ;
#754=DIRECTION('Axis2P3D Direction',(-0.,0.,-1.)) ;
#767=DIRECTION('Axis2P3D Direction',(0.,0.,-1.)) ;
#768=DIRECTION('Axis2P3D XDirection',(6.12323399574E-017,1.,0.)) ;
#772=DIRECTION('Vector Direction',(0.,0.,-1.)) ;
#779=DIRECTION('Axis2P3D Direction',(0.,0.,-1.)) ;
#786=DIRECTION('Vector Direction',(0.,0.,-1.)) ;
#799=DIRECTION('Axis2P3D Direction',(0.,0.,-1.)) ;
#812=DIRECTION('Axis2P3D Direction',(0.,0.,-1.)) ;
#813=DIRECTION('Axis2P3D XDirection',(-1.,1.22464679915E-016,0.)) ;
#817=DIRECTION('Vector Direction',(0.,0.,-1.)) ;
#824=DIRECTION('Axis2P3D Direction',(0.,0.,-1.)) ;
#831=DIRECTION('Vector Direction',(0.,0.,-1.)) ;
#844=DIRECTION('Axis2P3D Direction',(0.,0.,-1.)) ;
#857=DIRECTION('Axis2P3D Direction',(-0.,0.,-1.)) ;
#858=DIRECTION('Axis2P3D XDirection',(-1.83697019872E-016,-1.,0.)) ;
#862=DIRECTION('Vector Direction',(0.,0.,-1.)) ;
#869=DIRECTION('Axis2P3D Direction',(-0.,0.,-1.)) ;
#876=DIRECTION('Vector Direction',(0.,0.,-1.)) ;
#889=DIRECTION('Axis2P3D Direction',(-0.,0.,-1.)) ;
#902=DIRECTION('Axis2P3D Direction',(0.,0.,1.)) ;
#903=DIRECTION('Axis2P3D XDirection',(6.12323350934E-017,1.,0.)) ;
#907=DIRECTION('Vector Direction',(0.,0.707106781187,0.707106781187)) ;
#912=DIRECTION('Vector Direction',(0.,-0.707106781187,0.707106781187)) ;
#933=DIRECTION('Axis2P3D Direction',(0.,0.,1.)) ;
#934=DIRECTION('Axis2P3D XDirection',(-1.,1.22464670187E-016,0.)) ;
#938=DIRECTION('Vector Direction',(-0.707106781187,0.,0.707106781187)) ;
#943=DIRECTION('Vector Direction',(0.707106781187,0.,0.707106781187)) ;
#964=DIRECTION('Axis2P3D Direction',(0.,0.,1.)) ;
#965=DIRECTION('Axis2P3D XDirection',(-1.8369700528E-016,-1.,0.)) ;
#969=DIRECTION('Vector Direction',(0.,-0.707106781187,0.707106781187)) ;
#974=DIRECTION('Vector Direction',(0.,0.707106781187,0.707106781187)) ;
#995=DIRECTION('Axis2P3D Direction',(0.,0.,1.)) ;
#996=DIRECTION('Axis2P3D XDirection',(1.,0.,0.)) ;
#1000=DIRECTION('Axis2P3D Direction',(0.,0.,1.)) ;
#1009=DIRECTION('Vector Direction',(0.,0.,1.)) ;
#1014=DIRECTION('Vector Direction',(0.,0.,1.)) ;
#1021=DIRECTION('Axis2P3D Direction',(0.,0.,1.)) ;
#1028=DIRECTION('Vector Direction',(0.,0.,1.)) ;
#1042=DIRECTION('Axis2P3D Direction',(0.,0.,1.)) ;
#1049=DIRECTION('Vector Direction',(0.,0.,1.)) ;
#1056=DIRECTION('Axis2P3D Direction',(0.,0.,1.)) ;
#1070=DIRECTION('Axis2P3D Direction',(-0.,0.,1.)) ;
#1071=DIRECTION('Axis2P3D XDirection',(1.,-8.77213254025E-017,0.)) ;
#1075=DIRECTION('Axis2P3D Direction',(0.984807753012,0.173648177667,0.)) ;
#1084=DIRECTION('Axis2P3D Direction',(-0.,0.,1.)) ;
#1091=DIRECTION('Axis2P3D Direction',(4.4408920985E-016,1.,0.)) ;
#1098=DIRECTION('Axis2P3D Direction',(-0.,0.,1.)) ;
#1110=DIRECTION('Axis2P3D Direction',(0.,0.,1.)) ;
#1111=DIRECTION('Axis2P3D XDirection',(1.,0.,0.)) ;
#1115=DIRECTION('Vector Direction',(0.,0.,1.)) ;
#1122=DIRECTION('Vector Direction',(0.,0.,1.)) ;
#1129=DIRECTION('Axis2P3D Direction',(0.,0.,1.)) ;
#1141=DIRECTION('Axis2P3D Direction',(0.,-0.,1.)) ;
#1142=DIRECTION('Axis2P3D XDirection',(-1.,1.05265590483E-015,0.)) ;
#1146=DIRECTION('Axis2P3D Direction',(-0.866025403784,-0.5,0.)) ;
#1155=DIRECTION('Axis2P3D Direction',(0.,-0.,1.)) ;
#1160=DIRECTION('Axis2P3D Direction',(0.,-0.,1.)) ;
#1172=DIRECTION('Vector Direction',(0.,0.,1.)) ;
#1179=DIRECTION('Axis2P3D Direction',(0.,0.,1.)) ;
#1191=DIRECTION('Axis2P3D Direction',(0.,0.,1.)) ;
#1192=DIRECTION('Axis2P3D XDirection',(1.,0.,0.)) ;
#1196=DIRECTION('Vector Direction',(-0.173648177667,0.984807753012,0.)) ;
#1201=DIRECTION('Vector Direction',(0.5,-0.866025403784,0.)) ;
#1215=DIRECTION('Axis2P3D Direction',(0.866025403784,0.5,0.)) ;
#1216=DIRECTION('Axis2P3D XDirection',(0.5,-0.866025403784,0.)) ;
#1220=DIRECTION('Vector Direction',(0.5,-0.866025403784,0.)) ;
#1233=DIRECTION('Axis2P3D Direction',(-0.984807753012,-0.173648177667,-0.)) ;
#1234=DIRECTION('Axis2P3D XDirection',(-0.173648177667,0.984807753012,0.)) ;
#1238=DIRECTION('Vector Direction',(-0.173648177667,0.984807753012,0.)) ;
#1251=DIRECTION('Axis2P3D Direction',(0.,0.,1.)) ;
#1252=DIRECTION('Axis2P3D XDirection',(1.,0.,0.)) ;
#15=UNCERTAINTY_MEASURE_WITH_UNIT(LENGTH_MEASURE(0.005),#12,'distance_accuracy_value','CONFUSED CURVE UNCERTAINTY') ;
#18=AXIS2_PLACEMENT_3D(' ',#17,$,$) ;
#34=AXIS2_PLACEMENT_3D('Cone Axis2P3D',#31,#32,#33) ;
#47=AXIS2_PLACEMENT_3D('Circle Axis2P3D',#45,#46,$) ;
#61=AXIS2_PLACEMENT_3D('Circle Axis2P3D',#59,#60,$) ;
#82=AXIS2_PLACEMENT_3D('Cylinder Axis2P3D',#79,#80,#81) ;
#86=AXIS2_PLACEMENT_3D('Circle Axis2P3D',#84,#85,$) ;
#113=AXIS2_PLACEMENT_3D('Circle Axis2P3D',#111,#112,$) ;
#118=AXIS2_PLACEMENT_3D('Circle Axis2P3D',#116,#117,$) ;
#132=AXIS2_PLACEMENT_3D('Cylinder Axis2P3D',#129,#130,#131) ;
#136=AXIS2_PLACEMENT_3D('Circle Axis2P3D',#134,#135,$) ;
#163=AXIS2_PLACEMENT_3D('Circle Axis2P3D',#161,#162,$) ;
#176=AXIS2_PLACEMENT_3D('Circle Axis2P3D',#174,#175,$) ;
#190=AXIS2_PLACEMENT_3D('Plane Axis2P3D',#187,#188,#189) ;
#194=AXIS2_PLACEMENT_3D('Circle Axis2P3D',#192,#193,$) ;
#203=AXIS2_PLACEMENT_3D('Circle Axis2P3D',#201,#202,$) ;
#216=AXIS2_PLACEMENT_3D('Circle Axis2P3D',#214,#215,$) ;
#225=AXIS2_PLACEMENT_3D('Circle Axis2P3D',#223,#224,$) ;
#234=AXIS2_PLACEMENT_3D('Circle Axis2P3D',#232,#233,$) ;
#243=AXIS2_PLACEMENT_3D('Circle Axis2P3D',#241,#242,$) ;
#252=AXIS2_PLACEMENT_3D('Circle Axis2P3D',#250,#251,$) ;
#261=AXIS2_PLACEMENT_3D('Circle Axis2P3D',#259,#260,$) ;
#270=AXIS2_PLACEMENT_3D('Circle Axis2P3D',#268,#269,$) ;
#279=AXIS2_PLACEMENT_3D('Circle Axis2P3D',#277,#278,$) ;
#288=AXIS2_PLACEMENT_3D('Circle Axis2P3D',#286,#287,$) ;
#297=AXIS2_PLACEMENT_3D('Circle Axis2P3D',#295,#296,$) ;
#306=AXIS2_PLACEMENT_3D('Circle Axis2P3D',#304,#305,$) ;
#315=AXIS2_PLACEMENT_3D('Circle Axis2P3D',#313,#314,$) ;
#324=AXIS2_PLACEMENT_3D('Circle Axis2P3D',#322,#323,$) ;
#333=AXIS2_PLACEMENT_3D('Circle Axis2P3D',#331,#332,$) ;
#342=AXIS2_PLACEMENT_3D('Circle Axis2P3D',#340,#341,$) ;
#351=AXIS2_PLACEMENT_3D('Circle Axis2P3D',#349,#350,$) ;
#362=AXIS2_PLACEMENT_3D('Cylinder Axis2P3D',#359,#360,#361) ;
#373=AXIS2_PLACEMENT_3D('Circle Axis2P3D',#371,#372,$) ;
#392=AXIS2_PLACEMENT_3D('Circle Axis2P3D',#390,#391,$) ;
#405=AXIS2_PLACEMENT_3D('Cylinder Axis2P3D',#402,#403,#404) ;
#416=AXIS2_PLACEMENT_3D('Circle Axis2P3D',#414,#415,$) ;
#443=AXIS2_PLACEMENT_3D('Circle Axis2P3D',#441,#442,$) ;
#457=AXIS2_PLACEMENT_3D('Cylinder Axis2P3D',#454,#455,#456) ;
#468=AXIS2_PLACEMENT_3D('Circle Axis2P3D',#466,#467,$) ;
#488=AXIS2_PLACEMENT_3D('Circle Axis2P3D',#486,#487,$) ;
#502=AXIS2_PLACEMENT_3D('Cylinder Axis2P3D',#499,#500,#501) ;
#513=AXIS2_PLACEMENT_3D('Circle Axis2P3D',#511,#512,$) ;
#533=AXIS2_PLACEMENT_3D('Circle Axis2P3D',#531,#532,$) ;
#547=AXIS2_PLACEMENT_3D('Cylinder Axis2P3D',#544,#545,#546) ;
#558=AXIS2_PLACEMENT_3D('Circle Axis2P3D',#556,#557,$) ;
#578=AXIS2_PLACEMENT_3D('Circle Axis2P3D',#576,#577,$) ;
#592=AXIS2_PLACEMENT_3D('Cylinder Axis2P3D',#589,#590,#591) ;
#596=AXIS2_PLACEMENT_3D('Circle Axis2P3D',#594,#595,$) ;
#612=AXIS2_PLACEMENT_3D('Circle Axis2P3D',#610,#611,$) ;
#632=AXIS2_PLACEMENT_3D('Circle Axis2P3D',#630,#631,$) ;
#637=AXIS2_PLACEMENT_3D('Circle Axis2P3D',#635,#636,$) ;
#651=AXIS2_PLACEMENT_3D('Cylinder Axis2P3D',#648,#649,#650) ;
#655=AXIS2_PLACEMENT_3D('Circle Axis2P3D',#653,#654,$) ;
#671=AXIS2_PLACEMENT_3D('Circle Axis2P3D',#669,#670,$) ;
#691=AXIS2_PLACEMENT_3D('Circle Axis2P3D',#689,#690,$) ;
#696=AXIS2_PLACEMENT_3D('Circle Axis2P3D',#694,#695,$) ;
#710=AXIS2_PLACEMENT_3D('Cylinder Axis2P3D',#707,#708,#709) ;
#714=AXIS2_PLACEMENT_3D('Circle Axis2P3D',#712,#713,$) ;
#730=AXIS2_PLACEMENT_3D('Circle Axis2P3D',#728,#729,$) ;
#750=AXIS2_PLACEMENT_3D('Circle Axis2P3D',#748,#749,$) ;
#755=AXIS2_PLACEMENT_3D('Circle Axis2P3D',#753,#754,$) ;
#769=AXIS2_PLACEMENT_3D('Cylinder Axis2P3D',#766,#767,#768) ;
#780=AXIS2_PLACEMENT_3D('Circle Axis2P3D',#778,#779,$) ;
#800=AXIS2_PLACEMENT_3D('Circle Axis2P3D',#798,#799,$) ;
#814=AXIS2_PLACEMENT_3D('Cylinder Axis2P3D',#811,#812,#813) ;
#825=AXIS2_PLACEMENT_3D('Circle Axis2P3D',#823,#824,$) ;
#845=AXIS2_PLACEMENT_3D('Circle Axis2P3D',#843,#844,$) ;
#859=AXIS2_PLACEMENT_3D('Cylinder Axis2P3D',#856,#857,#858) ;
#870=AXIS2_PLACEMENT_3D('Circle Axis2P3D',#868,#869,$) ;
#890=AXIS2_PLACEMENT_3D('Circle Axis2P3D',#888,#889,$) ;
#904=AXIS2_PLACEMENT_3D('Cone Axis2P3D',#901,#902,#903) ;
#935=AXIS2_PLACEMENT_3D('Cone Axis2P3D',#932,#933,#934) ;
#966=AXIS2_PLACEMENT_3D('Cone Axis2P3D',#963,#964,#965) ;
#997=AXIS2_PLACEMENT_3D('Cylinder Axis2P3D',#994,#995,#996) ;
#1001=AXIS2_PLACEMENT_3D('Circle Axis2P3D',#999,#1000,$) ;
#1022=AXIS2_PLACEMENT_3D('Circle Axis2P3D',#1020,#1021,$) ;
#1043=AXIS2_PLACEMENT_3D('Circle Axis2P3D',#1041,#1042,$) ;
#1057=AXIS2_PLACEMENT_3D('Circle Axis2P3D',#1055,#1056,$) ;
#1072=AXIS2_PLACEMENT_3D('Torus Axis2P3D',#1069,#1070,#1071) ;
#1076=AXIS2_PLACEMENT_3D('Circle Axis2P3D',#1074,#1075,$) ;
#1085=AXIS2_PLACEMENT_3D('Circle Axis2P3D',#1083,#1084,$) ;
#1092=AXIS2_PLACEMENT_3D('Circle Axis2P3D',#1090,#1091,$) ;
#1099=AXIS2_PLACEMENT_3D('Circle Axis2P3D',#1097,#1098,$) ;
#1112=AXIS2_PLACEMENT_3D('Cylinder Axis2P3D',#1109,#1110,#1111) ;
#1130=AXIS2_PLACEMENT_3D('Circle Axis2P3D',#1128,#1129,$) ;
#1143=AXIS2_PLACEMENT_3D('Torus Axis2P3D',#1140,#1141,#1142) ;
#1147=AXIS2_PLACEMENT_3D('Circle Axis2P3D',#1145,#1146,$) ;
#1156=AXIS2_PLACEMENT_3D('Circle Axis2P3D',#1154,#1155,$) ;
#1161=AXIS2_PLACEMENT_3D('Circle Axis2P3D',#1159,#1160,$) ;
#1180=AXIS2_PLACEMENT_3D('Circle Axis2P3D',#1178,#1179,$) ;
#1193=AXIS2_PLACEMENT_3D('Plane Axis2P3D',#1190,#1191,#1192) ;
#1217=AXIS2_PLACEMENT_3D('Plane Axis2P3D',#1214,#1215,#1216) ;
#1235=AXIS2_PLACEMENT_3D('Plane Axis2P3D',#1232,#1233,#1234) ;
#1253=AXIS2_PLACEMENT_3D('Plane Axis2P3D',#1250,#1251,#1252) ;
#39=LINE('Line',#36,#38) ;
#55=LINE('Line',#52,#54) ;
#96=LINE('Line',#93,#95) ;
#101=LINE('Line',#98,#100) ;
#146=LINE('Line',#143,#145) ;
#151=LINE('Line',#148,#150) ;
#367=LINE('Line',#364,#366) ;
#381=LINE('Line',#378,#380) ;
#410=LINE('Line',#407,#409) ;
#424=LINE('Line',#421,#423) ;
#462=LINE('Line',#459,#461) ;
#476=LINE('Line',#473,#475) ;
#507=LINE('Line',#504,#506) ;
#521=LINE('Line',#518,#520) ;
#552=LINE('Line',#549,#551) ;
#566=LINE('Line',#563,#565) ;
#606=LINE('Line',#603,#605) ;
#620=LINE('Line',#617,#619) ;
#665=LINE('Line',#662,#664) ;
#679=LINE('Line',#676,#678) ;
#724=LINE('Line',#721,#723) ;
#738=LINE('Line',#735,#737) ;
#774=LINE('Line',#771,#773) ;
#788=LINE('Line',#785,#787) ;
#819=LINE('Line',#816,#818) ;
#833=LINE('Line',#830,#832) ;
#864=LINE('Line',#861,#863) ;
#878=LINE('Line',#875,#877) ;
#909=LINE('Line',#906,#908) ;
#914=LINE('Line',#911,#913) ;
#940=LINE('Line',#937,#939) ;
#945=LINE('Line',#942,#944) ;
#971=LINE('Line',#968,#970) ;
#976=LINE('Line',#973,#975) ;
#1011=LINE('Line',#1008,#1010) ;
#1016=LINE('Line',#1013,#1015) ;
#1030=LINE('Line',#1027,#1029) ;
#1051=LINE('Line',#1048,#1050) ;
#1117=LINE('Line',#1114,#1116) ;
#1124=LINE('Line',#1121,#1123) ;
#1174=LINE('Line',#1171,#1173) ;
#1198=LINE('Line',#1195,#1197) ;
#1203=LINE('Line',#1200,#1202) ;
#1222=LINE('Line',#1219,#1221) ;
#1240=LINE('Line',#1237,#1239) ;
#48=CIRCLE('generated circle',#47,3.) ;
#62=CIRCLE('generated circle',#61,1.7) ;
#87=CIRCLE('generated circle',#86,1.7) ;
#114=CIRCLE('generated circle',#113,3.) ;
#119=CIRCLE('generated circle',#118,1.7) ;
#137=CIRCLE('generated circle',#136,3.) ;
#164=CIRCLE('generated circle',#163,1.7) ;
#177=CIRCLE('generated circle',#176,3.) ;
#195=CIRCLE('generated circle',#194,41.5) ;
#204=CIRCLE('generated circle',#203,41.5) ;
#217=CIRCLE('generated circle',#216,5.) ;
#226=CIRCLE('generated circle',#225,5.) ;
#235=CIRCLE('generated circle',#234,1.7) ;
#244=CIRCLE('generated circle',#243,1.7) ;
#253=CIRCLE('generated circle',#252,1.7) ;
#262=CIRCLE('generated circle',#261,1.7) ;
#271=CIRCLE('generated circle',#270,1.7) ;
#280=CIRCLE('generated circle',#279,1.7) ;
#289=CIRCLE('generated circle',#288,1.7) ;
#298=CIRCLE('generated circle',#297,1.7) ;
#307=CIRCLE('generated circle',#306,3.) ;
#316=CIRCLE('generated circle',#315,3.) ;
#325=CIRCLE('generated circle',#324,3.) ;
#334=CIRCLE('generated circle',#333,3.) ;
#343=CIRCLE('generated circle',#342,3.) ;
#352=CIRCLE('generated circle',#351,3.) ;
#374=CIRCLE('generated circle',#373,5.) ;
#393=CIRCLE('generated circle',#392,5.) ;
#417=CIRCLE('generated circle',#416,1.7) ;
#444=CIRCLE('generated circle',#443,1.7) ;
#469=CIRCLE('generated circle',#468,1.7) ;
#489=CIRCLE('generated circle',#488,1.7) ;
#514=CIRCLE('generated circle',#513,1.7) ;
#534=CIRCLE('generated circle',#533,1.7) ;
#559=CIRCLE('generated circle',#558,1.7) ;
#579=CIRCLE('generated circle',#578,1.7) ;
#597=CIRCLE('generated circle',#596,1.7) ;
#613=CIRCLE('generated circle',#612,1.7) ;
#633=CIRCLE('generated circle',#632,1.7) ;
#638=CIRCLE('generated circle',#637,1.7) ;
#656=CIRCLE('generated circle',#655,1.7) ;
#672=CIRCLE('generated circle',#671,1.7) ;
#692=CIRCLE('generated circle',#691,1.7) ;
#697=CIRCLE('generated circle',#696,1.7) ;
#715=CIRCLE('generated circle',#714,1.7) ;
#731=CIRCLE('generated circle',#730,1.7) ;
#751=CIRCLE('generated circle',#750,1.7) ;
#756=CIRCLE('generated circle',#755,1.7) ;
#781=CIRCLE('generated circle',#780,3.) ;
#801=CIRCLE('generated circle',#800,3.) ;
#826=CIRCLE('generated circle',#825,3.) ;
#846=CIRCLE('generated circle',#845,3.) ;
#871=CIRCLE('generated circle',#870,3.) ;
#891=CIRCLE('generated circle',#890,3.) ;
#1002=CIRCLE('generated circle',#1001,41.5) ;
#1023=CIRCLE('generated circle',#1022,41.5) ;
#1044=CIRCLE('generated circle',#1043,41.5) ;
#1058=CIRCLE('generated circle',#1057,41.5) ;
#1077=CIRCLE('generated circle',#1076,1.) ;
#1086=CIRCLE('generated circle',#1085,39.5) ;
#1093=CIRCLE('generated circle',#1092,1.) ;
#1100=CIRCLE('generated circle',#1099,40.5) ;
#1131=CIRCLE('generated circle',#1130,40.5) ;
#1148=CIRCLE('generated circle',#1147,1.) ;
#1157=CIRCLE('generated circle',#1156,40.5) ;
#1162=CIRCLE('generated circle',#1161,39.5) ;
#1181=CIRCLE('generated circle',#1180,40.5) ;
#191=PLANE('',#190) ;
#1194=PLANE('',#1193) ;
#1218=PLANE('',#1217) ;
#1236=PLANE('',#1235) ;
#1254=PLANE('',#1253) ;
#83=CYLINDRICAL_SURFACE('generated cylinder',#82,1.7) ;
#133=CYLINDRICAL_SURFACE('generated cylinder',#132,3.) ;
#363=CYLINDRICAL_SURFACE('generated cylinder',#362,5.) ;
#406=CYLINDRICAL_SURFACE('generated cylinder',#405,1.7) ;
#458=CYLINDRICAL_SURFACE('generated cylinder',#457,1.7) ;
#503=CYLINDRICAL_SURFACE('generated cylinder',#502,1.7) ;
#548=CYLINDRICAL_SURFACE('generated cylinder',#547,1.7) ;
#593=CYLINDRICAL_SURFACE('generated cylinder',#592,1.7) ;
#652=CYLINDRICAL_SURFACE('generated cylinder',#651,1.7) ;
#711=CYLINDRICAL_SURFACE('generated cylinder',#710,1.7) ;
#770=CYLINDRICAL_SURFACE('generated cylinder',#769,3.) ;
#815=CYLINDRICAL_SURFACE('generated cylinder',#814,3.) ;
#860=CYLINDRICAL_SURFACE('generated cylinder',#859,3.) ;
#998=CYLINDRICAL_SURFACE('generated cylinder',#997,41.5) ;
#1113=CYLINDRICAL_SURFACE('generated cylinder',#1112,40.5) ;
#35=CONICAL_SURFACE('Cone',#34,1.7,0.785398163397) ;
#905=CONICAL_SURFACE('Cone',#904,1.7,0.785398163397) ;
#936=CONICAL_SURFACE('Cone',#935,1.7,0.785398163397) ;
#967=CONICAL_SURFACE('Cone',#966,1.7,0.785398163397) ;
#1073=TOROIDAL_SURFACE('homeo Torus',#1072,39.5,1.) ;
#1144=TOROIDAL_SURFACE('homeo Torus',#1143,39.5,1.) ;
#213=FACE_BOUND('',#210,.T.) ;
#231=FACE_BOUND('',#228,.T.) ;
#249=FACE_BOUND('',#246,.T.) ;
#267=FACE_BOUND('',#264,.T.) ;
#285=FACE_BOUND('',#282,.T.) ;
#303=FACE_BOUND('',#300,.T.) ;
#321=FACE_BOUND('',#318,.T.) ;
#339=FACE_BOUND('',#336,.T.) ;
#357=FACE_BOUND('',#354,.T.) ;
#1266=FACE_BOUND('',#1263,.T.) ;
#1270=FACE_BOUND('',#1267,.T.) ;
#1274=FACE_BOUND('',#1271,.T.) ;
#1278=FACE_BOUND('',#1275,.T.) ;
#1282=FACE_BOUND('',#1279,.T.) ;
#1286=FACE_BOUND('',#1283,.T.) ;
#1290=FACE_BOUND('',#1287,.T.) ;
#1294=FACE_BOUND('',#1291,.T.) ;
#1298=FACE_BOUND('',#1295,.T.) ;
#44=EDGE_CURVE('',#41,#43,#39,.T.) ;
#51=EDGE_CURVE('',#50,#43,#48,.F.) ;
#58=EDGE_CURVE('',#57,#50,#55,.T.) ;
#63=EDGE_CURVE('',#57,#41,#62,.F.) ;
#92=EDGE_CURVE('',#89,#91,#87,.F.) ;
#97=EDGE_CURVE('',#89,#41,#96,.F.) ;
#102=EDGE_CURVE('',#91,#57,#101,.F.) ;
#115=EDGE_CURVE('',#43,#50,#114,.F.) ;
#120=EDGE_CURVE('',#41,#57,#119,.F.) ;
#142=EDGE_CURVE('',#139,#141,#137,.F.) ;
#147=EDGE_CURVE('',#50,#141,#146,.F.) ;
#152=EDGE_CURVE('',#43,#139,#151,.F.) ;
#165=EDGE_CURVE('',#91,#89,#164,.F.) ;
#178=EDGE_CURVE('',#141,#139,#177,.F.) ;
#200=EDGE_CURVE('',#197,#199,#195,.T.) ;
#205=EDGE_CURVE('',#199,#197,#204,.T.) ;
#222=EDGE_CURVE('',#219,#221,#217,.T.) ;
#227=EDGE_CURVE('',#221,#219,#226,.T.) ;
#240=EDGE_CURVE('',#237,#239,#235,.T.) ;
#245=EDGE_CURVE('',#239,#237,#244,.T.) ;
#258=EDGE_CURVE('',#255,#257,#253,.T.) ;
#263=EDGE_CURVE('',#257,#255,#262,.T.) ;
#276=EDGE_CURVE('',#273,#275,#271,.T.) ;
#281=EDGE_CURVE('',#275,#273,#280,.T.) ;
#294=EDGE_CURVE('',#291,#293,#289,.T.) ;
#299=EDGE_CURVE('',#293,#291,#298,.T.) ;
#312=EDGE_CURVE('',#309,#311,#307,.T.) ;
#317=EDGE_CURVE('',#311,#309,#316,.T.) ;
#330=EDGE_CURVE('',#327,#329,#325,.T.) ;
#335=EDGE_CURVE('',#329,#327,#334,.T.) ;
#348=EDGE_CURVE('',#345,#347,#343,.T.) ;
#353=EDGE_CURVE('',#347,#345,#352,.T.) ;
#370=EDGE_CURVE('',#369,#221,#367,.T.) ;
#377=EDGE_CURVE('',#376,#369,#374,.T.) ;
#382=EDGE_CURVE('',#376,#219,#381,.T.) ;
#394=EDGE_CURVE('',#369,#376,#393,.T.) ;
#413=EDGE_CURVE('',#412,#239,#410,.F.) ;
#420=EDGE_CURVE('',#419,#412,#417,.F.) ;
#425=EDGE_CURVE('',#419,#237,#424,.F.) ;
#445=EDGE_CURVE('',#412,#419,#444,.F.) ;
#465=EDGE_CURVE('',#464,#257,#462,.F.) ;
#472=EDGE_CURVE('',#471,#464,#469,.F.) ;
#477=EDGE_CURVE('',#471,#255,#476,.F.) ;
#490=EDGE_CURVE('',#464,#471,#489,.F.) ;
#510=EDGE_CURVE('',#509,#275,#507,.F.) ;
#517=EDGE_CURVE('',#516,#509,#514,.F.) ;
#522=EDGE_CURVE('',#516,#273,#521,.F.) ;
#535=EDGE_CURVE('',#509,#516,#534,.F.) ;
#555=EDGE_CURVE('',#554,#293,#552,.F.) ;
#562=EDGE_CURVE('',#561,#554,#559,.F.) ;
#567=EDGE_CURVE('',#561,#291,#566,.F.) ;
#580=EDGE_CURVE('',#554,#561,#579,.F.) ;
#602=EDGE_CURVE('',#599,#601,#597,.F.) ;
#609=EDGE_CURVE('',#599,#608,#606,.F.) ;
#616=EDGE_CURVE('',#615,#608,#613,.T.) ;
#621=EDGE_CURVE('',#601,#615,#620,.F.) ;
#634=EDGE_CURVE('',#601,#599,#633,.F.) ;
#639=EDGE_CURVE('',#608,#615,#638,.T.) ;
#661=EDGE_CURVE('',#658,#660,#656,.F.) ;
#668=EDGE_CURVE('',#658,#667,#665,.F.) ;
#675=EDGE_CURVE('',#674,#667,#672,.T.) ;
#680=EDGE_CURVE('',#660,#674,#679,.F.) ;
#693=EDGE_CURVE('',#660,#658,#692,.F.) ;
#698=EDGE_CURVE('',#667,#674,#697,.T.) ;
#720=EDGE_CURVE('',#717,#719,#715,.F.) ;
#727=EDGE_CURVE('',#717,#726,#724,.F.) ;
#734=EDGE_CURVE('',#733,#726,#731,.T.) ;
#739=EDGE_CURVE('',#719,#733,#738,.F.) ;
#752=EDGE_CURVE('',#719,#717,#751,.F.) ;
#757=EDGE_CURVE('',#726,#733,#756,.T.) ;
#777=EDGE_CURVE('',#776,#311,#774,.F.) ;
#784=EDGE_CURVE('',#776,#783,#781,.T.) ;
#789=EDGE_CURVE('',#783,#309,#788,.F.) ;
#802=EDGE_CURVE('',#783,#776,#801,.T.) ;
#822=EDGE_CURVE('',#821,#329,#819,.F.) ;
#829=EDGE_CURVE('',#821,#828,#826,.T.) ;
#834=EDGE_CURVE('',#828,#327,#833,.F.) ;
#847=EDGE_CURVE('',#828,#821,#846,.T.) ;
#867=EDGE_CURVE('',#866,#347,#864,.F.) ;
#874=EDGE_CURVE('',#866,#873,#871,.T.) ;
#879=EDGE_CURVE('',#873,#345,#878,.F.) ;
#892=EDGE_CURVE('',#873,#866,#891,.T.) ;
#910=EDGE_CURVE('',#608,#783,#909,.T.) ;
#915=EDGE_CURVE('',#615,#776,#914,.T.) ;
#941=EDGE_CURVE('',#667,#828,#940,.T.) ;
#946=EDGE_CURVE('',#674,#821,#945,.T.) ;
#972=EDGE_CURVE('',#726,#873,#971,.T.) ;
#977=EDGE_CURVE('',#733,#866,#976,.T.) ;
#1007=EDGE_CURVE('',#1004,#1006,#1002,.T.) ;
#1012=EDGE_CURVE('',#1006,#199,#1011,.T.) ;
#1019=EDGE_CURVE('',#1018,#197,#1016,.T.) ;
#1026=EDGE_CURVE('',#1018,#1025,#1023,.T.) ;
#1031=EDGE_CURVE('',#1004,#1025,#1030,.T.) ;
#1047=EDGE_CURVE('',#1006,#1046,#1044,.T.) ;
#1054=EDGE_CURVE('',#1046,#1053,#1051,.T.) ;
#1059=EDGE_CURVE('',#1053,#1018,#1058,.T.) ;
#1082=EDGE_CURVE('',#1079,#1081,#1077,.F.) ;
#1089=EDGE_CURVE('',#1088,#1079,#1086,.F.) ;
#1096=EDGE_CURVE('',#1095,#1088,#1093,.T.) ;
#1101=EDGE_CURVE('',#1095,#1081,#1100,.F.) ;
#1120=EDGE_CURVE('',#1119,#1081,#1117,.T.) ;
#1127=EDGE_CURVE('',#1095,#1126,#1124,.F.) ;
#1132=EDGE_CURVE('',#1119,#1126,#1131,.T.) ;
#1153=EDGE_CURVE('',#1150,#1152,#1148,.F.) ;
#1158=EDGE_CURVE('',#1152,#1095,#1157,.F.) ;
#1163=EDGE_CURVE('',#1150,#1088,#1162,.F.) ;
#1177=EDGE_CURVE('',#1176,#1152,#1174,.T.) ;
#1182=EDGE_CURVE('',#1126,#1176,#1181,.T.) ;
#1199=EDGE_CURVE('',#1004,#1119,#1198,.F.) ;
#1204=EDGE_CURVE('',#1176,#1046,#1203,.T.) ;
#1223=EDGE_CURVE('',#1150,#1053,#1222,.T.) ;
#1241=EDGE_CURVE('',#1025,#1079,#1240,.F.) ;
#30=CLOSED_SHELL('Closed Shell',(#70,#109,#127,#159,#172,#185,#358,#389,#401,#432,#452,#484,#497,#529,#542,#574,#587,#628,#646,#687,#705,#746,#764,#796,#809,#841,#854,#886,#899,#922,#930,#953,#961,#984,#992,#1040,#1068,#1108,#1139,#1170,#1189,#1213,#1231,#1249,#1299)) ;
#1301=SHAPE_REPRESENTATION_RELATIONSHIP(' ',' ',#19,#1300) ;
#64=EDGE_LOOP('',(#65,#66,#67,#68)) ;
#103=EDGE_LOOP('',(#104,#105,#106,#107)) ;
#121=EDGE_LOOP('',(#122,#123,#124,#125)) ;
#153=EDGE_LOOP('',(#154,#155,#156,#157)) ;
#166=EDGE_LOOP('',(#167,#168,#169,#170)) ;
#179=EDGE_LOOP('',(#180,#181,#182,#183)) ;
#206=EDGE_LOOP('',(#207,#208)) ;
#210=EDGE_LOOP('',(#211,#212)) ;
#228=EDGE_LOOP('',(#229,#230)) ;
#246=EDGE_LOOP('',(#247,#248)) ;
#264=EDGE_LOOP('',(#265,#266)) ;
#282=EDGE_LOOP('',(#283,#284)) ;
#300=EDGE_LOOP('',(#301,#302)) ;
#318=EDGE_LOOP('',(#319,#320)) ;
#336=EDGE_LOOP('',(#337,#338)) ;
#354=EDGE_LOOP('',(#355,#356)) ;
#383=EDGE_LOOP('',(#384,#385,#386,#387)) ;
#395=EDGE_LOOP('',(#396,#397,#398,#399)) ;
#426=EDGE_LOOP('',(#427,#428,#429,#430)) ;
#446=EDGE_LOOP('',(#447,#448,#449,#450)) ;
#478=EDGE_LOOP('',(#479,#480,#481,#482)) ;
#491=EDGE_LOOP('',(#492,#493,#494,#495)) ;
#523=EDGE_LOOP('',(#524,#525,#526,#527)) ;
#536=EDGE_LOOP('',(#537,#538,#539,#540)) ;
#568=EDGE_LOOP('',(#569,#570,#571,#572)) ;
#581=EDGE_LOOP('',(#582,#583,#584,#585)) ;
#622=EDGE_LOOP('',(#623,#624,#625,#626)) ;
#640=EDGE_LOOP('',(#641,#642,#643,#644)) ;
#681=EDGE_LOOP('',(#682,#683,#684,#685)) ;
#699=EDGE_LOOP('',(#700,#701,#702,#703)) ;
#740=EDGE_LOOP('',(#741,#742,#743,#744)) ;
#758=EDGE_LOOP('',(#759,#760,#761,#762)) ;
#790=EDGE_LOOP('',(#791,#792,#793,#794)) ;
#803=EDGE_LOOP('',(#804,#805,#806,#807)) ;
#835=EDGE_LOOP('',(#836,#837,#838,#839)) ;
#848=EDGE_LOOP('',(#849,#850,#851,#852)) ;
#880=EDGE_LOOP('',(#881,#882,#883,#884)) ;
#893=EDGE_LOOP('',(#894,#895,#896,#897)) ;
#916=EDGE_LOOP('',(#917,#918,#919,#920)) ;
#924=EDGE_LOOP('',(#925,#926,#927,#928)) ;
#947=EDGE_LOOP('',(#948,#949,#950,#951)) ;
#955=EDGE_LOOP('',(#956,#957,#958,#959)) ;
#978=EDGE_LOOP('',(#979,#980,#981,#982)) ;
#986=EDGE_LOOP('',(#987,#988,#989,#990)) ;
#1032=EDGE_LOOP('',(#1033,#1034,#1035,#1036,#1037,#1038)) ;
#1060=EDGE_LOOP('',(#1061,#1062,#1063,#1064,#1065,#1066)) ;
#1102=EDGE_LOOP('',(#1103,#1104,#1105,#1106)) ;
#1133=EDGE_LOOP('',(#1134,#1135,#1136,#1137)) ;
#1164=EDGE_LOOP('',(#1165,#1166,#1167,#1168)) ;
#1183=EDGE_LOOP('',(#1184,#1185,#1186,#1187)) ;
#1205=EDGE_LOOP('',(#1206,#1207,#1208,#1209,#1210,#1211)) ;
#1224=EDGE_LOOP('',(#1225,#1226,#1227,#1228,#1229)) ;
#1242=EDGE_LOOP('',(#1243,#1244,#1245,#1246,#1247)) ;
#1255=EDGE_LOOP('',(#1256,#1257,#1258,#1259,#1260,#1261)) ;
#1263=EDGE_LOOP('',(#1264,#1265)) ;
#1267=EDGE_LOOP('',(#1268,#1269)) ;
#1271=EDGE_LOOP('',(#1272,#1273)) ;
#1275=EDGE_LOOP('',(#1276,#1277)) ;
#1279=EDGE_LOOP('',(#1280,#1281)) ;
#1283=EDGE_LOOP('',(#1284,#1285)) ;
#1287=EDGE_LOOP('',(#1288,#1289)) ;
#1291=EDGE_LOOP('',(#1292,#1293)) ;
#1295=EDGE_LOOP('',(#1296,#1297)) ;
#65=ORIENTED_EDGE('',*,*,#44,.T.) ;
#66=ORIENTED_EDGE('',*,*,#51,.F.) ;
#67=ORIENTED_EDGE('',*,*,#58,.F.) ;
#68=ORIENTED_EDGE('',*,*,#63,.T.) ;
#104=ORIENTED_EDGE('',*,*,#92,.F.) ;
#105=ORIENTED_EDGE('',*,*,#97,.T.) ;
#106=ORIENTED_EDGE('',*,*,#63,.F.) ;
#107=ORIENTED_EDGE('',*,*,#102,.F.) ;
#122=ORIENTED_EDGE('',*,*,#58,.T.) ;
#123=ORIENTED_EDGE('',*,*,#115,.F.) ;
#124=ORIENTED_EDGE('',*,*,#44,.F.) ;
#125=ORIENTED_EDGE('',*,*,#120,.T.) ;
#154=ORIENTED_EDGE('',*,*,#142,.T.) ;
#155=ORIENTED_EDGE('',*,*,#147,.F.) ;
#156=ORIENTED_EDGE('',*,*,#51,.T.) ;
#157=ORIENTED_EDGE('',*,*,#152,.T.) ;
#167=ORIENTED_EDGE('',*,*,#165,.F.) ;
#168=ORIENTED_EDGE('',*,*,#102,.T.) ;
#169=ORIENTED_EDGE('',*,*,#120,.F.) ;
#170=ORIENTED_EDGE('',*,*,#97,.F.) ;
#180=ORIENTED_EDGE('',*,*,#178,.T.) ;
#181=ORIENTED_EDGE('',*,*,#152,.F.) ;
#182=ORIENTED_EDGE('',*,*,#115,.T.) ;
#183=ORIENTED_EDGE('',*,*,#147,.T.) ;
#207=ORIENTED_EDGE('',*,*,#200,.T.) ;
#208=ORIENTED_EDGE('',*,*,#205,.T.) ;
#211=ORIENTED_EDGE('',*,*,#142,.F.) ;
#212=ORIENTED_EDGE('',*,*,#178,.F.) ;
#229=ORIENTED_EDGE('',*,*,#222,.F.) ;
#230=ORIENTED_EDGE('',*,*,#227,.F.) ;
#247=ORIENTED_EDGE('',*,*,#240,.F.) ;
#248=ORIENTED_EDGE('',*,*,#245,.F.) ;
#265=ORIENTED_EDGE('',*,*,#258,.F.) ;
#266=ORIENTED_EDGE('',*,*,#263,.F.) ;
#283=ORIENTED_EDGE('',*,*,#276,.F.) ;
#284=ORIENTED_EDGE('',*,*,#281,.F.) ;
#301=ORIENTED_EDGE('',*,*,#294,.F.) ;
#302=ORIENTED_EDGE('',*,*,#299,.F.) ;
#319=ORIENTED_EDGE('',*,*,#312,.F.) ;
#320=ORIENTED_EDGE('',*,*,#317,.F.) ;
#337=ORIENTED_EDGE('',*,*,#330,.F.) ;
#338=ORIENTED_EDGE('',*,*,#335,.F.) ;
#355=ORIENTED_EDGE('',*,*,#348,.F.) ;
#356=ORIENTED_EDGE('',*,*,#353,.F.) ;
#384=ORIENTED_EDGE('',*,*,#222,.T.) ;
#385=ORIENTED_EDGE('',*,*,#370,.F.) ;
#386=ORIENTED_EDGE('',*,*,#377,.F.) ;
#387=ORIENTED_EDGE('',*,*,#382,.T.) ;
#396=ORIENTED_EDGE('',*,*,#227,.T.) ;
#397=ORIENTED_EDGE('',*,*,#382,.F.) ;
#398=ORIENTED_EDGE('',*,*,#394,.F.) ;
#399=ORIENTED_EDGE('',*,*,#370,.T.) ;
#427=ORIENTED_EDGE('',*,*,#413,.F.) ;
#428=ORIENTED_EDGE('',*,*,#420,.F.) ;
#429=ORIENTED_EDGE('',*,*,#425,.T.) ;
#430=ORIENTED_EDGE('',*,*,#240,.T.) ;
#447=ORIENTED_EDGE('',*,*,#425,.F.) ;
#448=ORIENTED_EDGE('',*,*,#445,.F.) ;
#449=ORIENTED_EDGE('',*,*,#413,.T.) ;
#450=ORIENTED_EDGE('',*,*,#245,.T.) ;
#479=ORIENTED_EDGE('',*,*,#465,.F.) ;
#480=ORIENTED_EDGE('',*,*,#472,.F.) ;
#481=ORIENTED_EDGE('',*,*,#477,.T.) ;
#482=ORIENTED_EDGE('',*,*,#258,.T.) ;
#492=ORIENTED_EDGE('',*,*,#477,.F.) ;
#493=ORIENTED_EDGE('',*,*,#490,.F.) ;
#494=ORIENTED_EDGE('',*,*,#465,.T.) ;
#495=ORIENTED_EDGE('',*,*,#263,.T.) ;
#524=ORIENTED_EDGE('',*,*,#510,.F.) ;
#525=ORIENTED_EDGE('',*,*,#517,.F.) ;
#526=ORIENTED_EDGE('',*,*,#522,.T.) ;
#527=ORIENTED_EDGE('',*,*,#276,.T.) ;
#537=ORIENTED_EDGE('',*,*,#522,.F.) ;
#538=ORIENTED_EDGE('',*,*,#535,.F.) ;
#539=ORIENTED_EDGE('',*,*,#510,.T.) ;
#540=ORIENTED_EDGE('',*,*,#281,.T.) ;
#569=ORIENTED_EDGE('',*,*,#555,.F.) ;
#570=ORIENTED_EDGE('',*,*,#562,.F.) ;
#571=ORIENTED_EDGE('',*,*,#567,.T.) ;
#572=ORIENTED_EDGE('',*,*,#294,.T.) ;
#582=ORIENTED_EDGE('',*,*,#567,.F.) ;
#583=ORIENTED_EDGE('',*,*,#580,.F.) ;
#584=ORIENTED_EDGE('',*,*,#555,.T.) ;
#585=ORIENTED_EDGE('',*,*,#299,.T.) ;
#623=ORIENTED_EDGE('',*,*,#602,.F.) ;
#624=ORIENTED_EDGE('',*,*,#609,.T.) ;
#625=ORIENTED_EDGE('',*,*,#616,.F.) ;
#626=ORIENTED_EDGE('',*,*,#621,.F.) ;
#641=ORIENTED_EDGE('',*,*,#634,.F.) ;
#642=ORIENTED_EDGE('',*,*,#621,.T.) ;
#643=ORIENTED_EDGE('',*,*,#639,.F.) ;
#644=ORIENTED_EDGE('',*,*,#609,.F.) ;
#682=ORIENTED_EDGE('',*,*,#661,.F.) ;
#683=ORIENTED_EDGE('',*,*,#668,.T.) ;
#684=ORIENTED_EDGE('',*,*,#675,.F.) ;
#685=ORIENTED_EDGE('',*,*,#680,.F.) ;
#700=ORIENTED_EDGE('',*,*,#693,.F.) ;
#701=ORIENTED_EDGE('',*,*,#680,.T.) ;
#702=ORIENTED_EDGE('',*,*,#698,.F.) ;
#703=ORIENTED_EDGE('',*,*,#668,.F.) ;
#741=ORIENTED_EDGE('',*,*,#720,.F.) ;
#742=ORIENTED_EDGE('',*,*,#727,.T.) ;
#743=ORIENTED_EDGE('',*,*,#734,.F.) ;
#744=ORIENTED_EDGE('',*,*,#739,.F.) ;
#759=ORIENTED_EDGE('',*,*,#752,.F.) ;
#760=ORIENTED_EDGE('',*,*,#739,.T.) ;
#761=ORIENTED_EDGE('',*,*,#757,.F.) ;
#762=ORIENTED_EDGE('',*,*,#727,.F.) ;
#791=ORIENTED_EDGE('',*,*,#312,.T.) ;
#792=ORIENTED_EDGE('',*,*,#777,.F.) ;
#793=ORIENTED_EDGE('',*,*,#784,.T.) ;
#794=ORIENTED_EDGE('',*,*,#789,.T.) ;
#804=ORIENTED_EDGE('',*,*,#317,.T.) ;
#805=ORIENTED_EDGE('',*,*,#789,.F.) ;
#806=ORIENTED_EDGE('',*,*,#802,.T.) ;
#807=ORIENTED_EDGE('',*,*,#777,.T.) ;
#836=ORIENTED_EDGE('',*,*,#330,.T.) ;
#837=ORIENTED_EDGE('',*,*,#822,.F.) ;
#838=ORIENTED_EDGE('',*,*,#829,.T.) ;
#839=ORIENTED_EDGE('',*,*,#834,.T.) ;
#849=ORIENTED_EDGE('',*,*,#335,.T.) ;
#850=ORIENTED_EDGE('',*,*,#834,.F.) ;
#851=ORIENTED_EDGE('',*,*,#847,.T.) ;
#852=ORIENTED_EDGE('',*,*,#822,.T.) ;
#881=ORIENTED_EDGE('',*,*,#348,.T.) ;
#882=ORIENTED_EDGE('',*,*,#867,.F.) ;
#883=ORIENTED_EDGE('',*,*,#874,.T.) ;
#884=ORIENTED_EDGE('',*,*,#879,.T.) ;
#894=ORIENTED_EDGE('',*,*,#353,.T.) ;
#895=ORIENTED_EDGE('',*,*,#879,.F.) ;
#896=ORIENTED_EDGE('',*,*,#892,.T.) ;
#897=ORIENTED_EDGE('',*,*,#867,.T.) ;
#917=ORIENTED_EDGE('',*,*,#910,.T.) ;
#918=ORIENTED_EDGE('',*,*,#784,.F.) ;
#919=ORIENTED_EDGE('',*,*,#915,.F.) ;
#920=ORIENTED_EDGE('',*,*,#616,.T.) ;
#925=ORIENTED_EDGE('',*,*,#915,.T.) ;
#926=ORIENTED_EDGE('',*,*,#802,.F.) ;
#927=ORIENTED_EDGE('',*,*,#910,.F.) ;
#928=ORIENTED_EDGE('',*,*,#639,.T.) ;
#948=ORIENTED_EDGE('',*,*,#941,.T.) ;
#949=ORIENTED_EDGE('',*,*,#829,.F.) ;
#950=ORIENTED_EDGE('',*,*,#946,.F.) ;
#951=ORIENTED_EDGE('',*,*,#675,.T.) ;
#956=ORIENTED_EDGE('',*,*,#946,.T.) ;
#957=ORIENTED_EDGE('',*,*,#847,.F.) ;
#958=ORIENTED_EDGE('',*,*,#941,.F.) ;
#959=ORIENTED_EDGE('',*,*,#698,.T.) ;
#979=ORIENTED_EDGE('',*,*,#972,.T.) ;
#980=ORIENTED_EDGE('',*,*,#874,.F.) ;
#981=ORIENTED_EDGE('',*,*,#977,.F.) ;
#982=ORIENTED_EDGE('',*,*,#734,.T.) ;
#987=ORIENTED_EDGE('',*,*,#977,.T.) ;
#988=ORIENTED_EDGE('',*,*,#892,.F.) ;
#989=ORIENTED_EDGE('',*,*,#972,.F.) ;
#990=ORIENTED_EDGE('',*,*,#757,.T.) ;
#1033=ORIENTED_EDGE('',*,*,#1007,.T.) ;
#1034=ORIENTED_EDGE('',*,*,#1012,.T.) ;
#1035=ORIENTED_EDGE('',*,*,#200,.F.) ;
#1036=ORIENTED_EDGE('',*,*,#1019,.F.) ;
#1037=ORIENTED_EDGE('',*,*,#1026,.T.) ;
#1038=ORIENTED_EDGE('',*,*,#1031,.F.) ;
#1061=ORIENTED_EDGE('',*,*,#1019,.T.) ;
#1062=ORIENTED_EDGE('',*,*,#205,.F.) ;
#1063=ORIENTED_EDGE('',*,*,#1012,.F.) ;
#1064=ORIENTED_EDGE('',*,*,#1047,.T.) ;
#1065=ORIENTED_EDGE('',*,*,#1054,.T.) ;
#1066=ORIENTED_EDGE('',*,*,#1059,.T.) ;
#1103=ORIENTED_EDGE('',*,*,#1082,.F.) ;
#1104=ORIENTED_EDGE('',*,*,#1089,.F.) ;
#1105=ORIENTED_EDGE('',*,*,#1096,.F.) ;
#1106=ORIENTED_EDGE('',*,*,#1101,.T.) ;
#1134=ORIENTED_EDGE('',*,*,#1120,.T.) ;
#1135=ORIENTED_EDGE('',*,*,#1101,.F.) ;
#1136=ORIENTED_EDGE('',*,*,#1127,.T.) ;
#1137=ORIENTED_EDGE('',*,*,#1132,.F.) ;
#1165=ORIENTED_EDGE('',*,*,#1153,.T.) ;
#1166=ORIENTED_EDGE('',*,*,#1158,.T.) ;
#1167=ORIENTED_EDGE('',*,*,#1096,.T.) ;
#1168=ORIENTED_EDGE('',*,*,#1163,.F.) ;
#1184=ORIENTED_EDGE('',*,*,#1177,.F.) ;
#1185=ORIENTED_EDGE('',*,*,#1182,.F.) ;
#1186=ORIENTED_EDGE('',*,*,#1127,.F.) ;
#1187=ORIENTED_EDGE('',*,*,#1158,.F.) ;
#1206=ORIENTED_EDGE('',*,*,#1199,.T.) ;
#1207=ORIENTED_EDGE('',*,*,#1132,.T.) ;
#1208=ORIENTED_EDGE('',*,*,#1182,.T.) ;
#1209=ORIENTED_EDGE('',*,*,#1204,.T.) ;
#1210=ORIENTED_EDGE('',*,*,#1047,.F.) ;
#1211=ORIENTED_EDGE('',*,*,#1007,.F.) ;
#1225=ORIENTED_EDGE('',*,*,#1223,.T.) ;
#1226=ORIENTED_EDGE('',*,*,#1054,.F.) ;
#1227=ORIENTED_EDGE('',*,*,#1204,.F.) ;
#1228=ORIENTED_EDGE('',*,*,#1177,.T.) ;
#1229=ORIENTED_EDGE('',*,*,#1153,.F.) ;
#1243=ORIENTED_EDGE('',*,*,#1082,.T.) ;
#1244=ORIENTED_EDGE('',*,*,#1120,.F.) ;
#1245=ORIENTED_EDGE('',*,*,#1199,.F.) ;
#1246=ORIENTED_EDGE('',*,*,#1031,.T.) ;
#1247=ORIENTED_EDGE('',*,*,#1241,.T.) ;
#1256=ORIENTED_EDGE('',*,*,#1163,.T.) ;
#1257=ORIENTED_EDGE('',*,*,#1089,.T.) ;
#1258=ORIENTED_EDGE('',*,*,#1241,.F.) ;
#1259=ORIENTED_EDGE('',*,*,#1026,.F.) ;
#1260=ORIENTED_EDGE('',*,*,#1059,.F.) ;
#1261=ORIENTED_EDGE('',*,*,#1223,.F.) ;
#1264=ORIENTED_EDGE('',*,*,#661,.T.) ;
#1265=ORIENTED_EDGE('',*,*,#693,.T.) ;
#1268=ORIENTED_EDGE('',*,*,#472,.T.) ;
#1269=ORIENTED_EDGE('',*,*,#490,.T.) ;
#1272=ORIENTED_EDGE('',*,*,#394,.T.) ;
#1273=ORIENTED_EDGE('',*,*,#377,.T.) ;
#1276=ORIENTED_EDGE('',*,*,#535,.T.) ;
#1277=ORIENTED_EDGE('',*,*,#517,.T.) ;
#1280=ORIENTED_EDGE('',*,*,#720,.T.) ;
#1281=ORIENTED_EDGE('',*,*,#752,.T.) ;
#1284=ORIENTED_EDGE('',*,*,#562,.T.) ;
#1285=ORIENTED_EDGE('',*,*,#580,.T.) ;
#1288=ORIENTED_EDGE('',*,*,#92,.T.) ;
#1289=ORIENTED_EDGE('',*,*,#165,.T.) ;
#1292=ORIENTED_EDGE('',*,*,#420,.T.) ;
#1293=ORIENTED_EDGE('',*,*,#445,.T.) ;
#1296=ORIENTED_EDGE('',*,*,#634,.T.) ;
#1297=ORIENTED_EDGE('',*,*,#602,.T.) ;
#21=MANIFOLD_SOLID_BREP('PartBody',#30) ;
#41=VERTEX_POINT('',#40) ;
#43=VERTEX_POINT('',#42) ;
#50=VERTEX_POINT('',#49) ;
#57=VERTEX_POINT('',#56) ;
#89=VERTEX_POINT('',#88) ;
#91=VERTEX_POINT('',#90) ;
#139=VERTEX_POINT('',#138) ;
#141=VERTEX_POINT('',#140) ;
#197=VERTEX_POINT('',#196) ;
#199=VERTEX_POINT('',#198) ;
#219=VERTEX_POINT('',#218) ;
#221=VERTEX_POINT('',#220) ;
#237=VERTEX_POINT('',#236) ;
#239=VERTEX_POINT('',#238) ;
#255=VERTEX_POINT('',#254) ;
#257=VERTEX_POINT('',#256) ;
#273=VERTEX_POINT('',#272) ;
#275=VERTEX_POINT('',#274) ;
#291=VERTEX_POINT('',#290) ;
#293=VERTEX_POINT('',#292) ;
#309=VERTEX_POINT('',#308) ;
#311=VERTEX_POINT('',#310) ;
#327=VERTEX_POINT('',#326) ;
#329=VERTEX_POINT('',#328) ;
#345=VERTEX_POINT('',#344) ;
#347=VERTEX_POINT('',#346) ;
#369=VERTEX_POINT('',#368) ;
#376=VERTEX_POINT('',#375) ;
#412=VERTEX_POINT('',#411) ;
#419=VERTEX_POINT('',#418) ;
#464=VERTEX_POINT('',#463) ;
#471=VERTEX_POINT('',#470) ;
#509=VERTEX_POINT('',#508) ;
#516=VERTEX_POINT('',#515) ;
#554=VERTEX_POINT('',#553) ;
#561=VERTEX_POINT('',#560) ;
#599=VERTEX_POINT('',#598) ;
#601=VERTEX_POINT('',#600) ;
#608=VERTEX_POINT('',#607) ;
#615=VERTEX_POINT('',#614) ;
#658=VERTEX_POINT('',#657) ;
#660=VERTEX_POINT('',#659) ;
#667=VERTEX_POINT('',#666) ;
#674=VERTEX_POINT('',#673) ;
#717=VERTEX_POINT('',#716) ;
#719=VERTEX_POINT('',#718) ;
#726=VERTEX_POINT('',#725) ;
#733=VERTEX_POINT('',#732) ;
#776=VERTEX_POINT('',#775) ;
#783=VERTEX_POINT('',#782) ;
#821=VERTEX_POINT('',#820) ;
#828=VERTEX_POINT('',#827) ;
#866=VERTEX_POINT('',#865) ;
#873=VERTEX_POINT('',#872) ;
#1004=VERTEX_POINT('',#1003) ;
#1006=VERTEX_POINT('',#1005) ;
#1018=VERTEX_POINT('',#1017) ;
#1025=VERTEX_POINT('',#1024) ;
#1046=VERTEX_POINT('',#1045) ;
#1053=VERTEX_POINT('',#1052) ;
#1079=VERTEX_POINT('',#1078) ;
#1081=VERTEX_POINT('',#1080) ;
#1088=VERTEX_POINT('',#1087) ;
#1095=VERTEX_POINT('',#1094) ;
#1119=VERTEX_POINT('',#1118) ;
#1126=VERTEX_POINT('',#1125) ;
#1150=VERTEX_POINT('',#1149) ;
#1152=VERTEX_POINT('',#1151) ;
#1176=VERTEX_POINT('',#1175) ;
#1300=ADVANCED_BREP_SHAPE_REPRESENTATION('NONE',(#21),#16) ;
#70=ADVANCED_FACE('PartBody',(#69),#35,.F.) ;
#109=ADVANCED_FACE('PartBody',(#108),#83,.F.) ;
#127=ADVANCED_FACE('PartBody',(#126),#35,.F.) ;
#159=ADVANCED_FACE('PartBody',(#158),#133,.F.) ;
#172=ADVANCED_FACE('PartBody',(#171),#83,.F.) ;
#185=ADVANCED_FACE('PartBody',(#184),#133,.F.) ;
#358=ADVANCED_FACE('PartBody',(#209,#213,#231,#249,#267,#285,#303,#321,#339,#357),#191,.T.) ;
#389=ADVANCED_FACE('PartBody',(#388),#363,.F.) ;
#401=ADVANCED_FACE('PartBody',(#400),#363,.F.) ;
#432=ADVANCED_FACE('PartBody',(#431),#406,.F.) ;
#452=ADVANCED_FACE('PartBody',(#451),#406,.F.) ;
#484=ADVANCED_FACE('PartBody',(#483),#458,.F.) ;
#497=ADVANCED_FACE('PartBody',(#496),#458,.F.) ;
#529=ADVANCED_FACE('PartBody',(#528),#503,.F.) ;
#542=ADVANCED_FACE('PartBody',(#541),#503,.F.) ;
#574=ADVANCED_FACE('PartBody',(#573),#548,.F.) ;
#587=ADVANCED_FACE('PartBody',(#586),#548,.F.) ;
#628=ADVANCED_FACE('PartBody',(#627),#593,.F.) ;
#646=ADVANCED_FACE('PartBody',(#645),#593,.F.) ;
#687=ADVANCED_FACE('PartBody',(#686),#652,.F.) ;
#705=ADVANCED_FACE('PartBody',(#704),#652,.F.) ;
#746=ADVANCED_FACE('PartBody',(#745),#711,.F.) ;
#764=ADVANCED_FACE('PartBody',(#763),#711,.F.) ;
#796=ADVANCED_FACE('PartBody',(#795),#770,.F.) ;
#809=ADVANCED_FACE('PartBody',(#808),#770,.F.) ;
#841=ADVANCED_FACE('PartBody',(#840),#815,.F.) ;
#854=ADVANCED_FACE('PartBody',(#853),#815,.F.) ;
#886=ADVANCED_FACE('PartBody',(#885),#860,.F.) ;
#899=ADVANCED_FACE('PartBody',(#898),#860,.F.) ;
#922=ADVANCED_FACE('PartBody',(#921),#905,.F.) ;
#930=ADVANCED_FACE('PartBody',(#929),#905,.F.) ;
#953=ADVANCED_FACE('PartBody',(#952),#936,.F.) ;
#961=ADVANCED_FACE('PartBody',(#960),#936,.F.) ;
#984=ADVANCED_FACE('PartBody',(#983),#967,.F.) ;
#992=ADVANCED_FACE('PartBody',(#991),#967,.F.) ;
#1040=ADVANCED_FACE('PartBody',(#1039),#998,.T.) ;
#1068=ADVANCED_FACE('PartBody',(#1067),#998,.T.) ;
#1108=ADVANCED_FACE('PartBody',(#1107),#1073,.F.) ;
#1139=ADVANCED_FACE('PartBody',(#1138),#1113,.F.) ;
#1170=ADVANCED_FACE('PartBody',(#1169),#1144,.F.) ;
#1189=ADVANCED_FACE('PartBody',(#1188),#1113,.F.) ;
#1213=ADVANCED_FACE('PartBody',(#1212),#1194,.F.) ;
#1231=ADVANCED_FACE('PartBody',(#1230),#1218,.T.) ;
#1249=ADVANCED_FACE('PartBody',(#1248),#1236,.F.) ;
#1299=ADVANCED_FACE('PartBody',(#1262,#1266,#1270,#1274,#1278,#1282,#1286,#1290,#1294,#1298),#1254,.F.) ;
#4=APPLICATION_PROTOCOL_DEFINITION('international standard','ap242_managed_model_based_3d_engineering',2014,#1) ;
#22=COLOUR_RGB('Colour',0.517647058824,0.529411764706,0.537254901961) ;
#433=COLOUR_RGB('Colour',0.,0.686274509804,0.686274509804) ;
#78=OVER_RIDING_STYLED_ITEM(' ',(#77),#70,#29) ;
#110=OVER_RIDING_STYLED_ITEM(' ',(#77),#109,#29) ;
#128=OVER_RIDING_STYLED_ITEM(' ',(#77),#127,#29) ;
#160=OVER_RIDING_STYLED_ITEM(' ',(#77),#159,#29) ;
#173=OVER_RIDING_STYLED_ITEM(' ',(#77),#172,#29) ;
#186=OVER_RIDING_STYLED_ITEM(' ',(#77),#185,#29) ;
#440=OVER_RIDING_STYLED_ITEM(' ',(#439),#432,#29) ;
#453=OVER_RIDING_STYLED_ITEM(' ',(#439),#452,#29) ;
#485=OVER_RIDING_STYLED_ITEM(' ',(#439),#484,#29) ;
#498=OVER_RIDING_STYLED_ITEM(' ',(#439),#497,#29) ;
#530=OVER_RIDING_STYLED_ITEM(' ',(#439),#529,#29) ;
#543=OVER_RIDING_STYLED_ITEM(' ',(#439),#542,#29) ;
#575=OVER_RIDING_STYLED_ITEM(' ',(#439),#574,#29) ;
#588=OVER_RIDING_STYLED_ITEM(' ',(#439),#587,#29) ;
#629=OVER_RIDING_STYLED_ITEM(' ',(#77),#628,#29) ;
#647=OVER_RIDING_STYLED_ITEM(' ',(#77),#646,#29) ;
#688=OVER_RIDING_STYLED_ITEM(' ',(#77),#687,#29) ;
#706=OVER_RIDING_STYLED_ITEM(' ',(#77),#705,#29) ;
#747=OVER_RIDING_STYLED_ITEM(' ',(#77),#746,#29) ;
#765=OVER_RIDING_STYLED_ITEM(' ',(#77),#764,#29) ;
#797=OVER_RIDING_STYLED_ITEM(' ',(#77),#796,#29) ;
#810=OVER_RIDING_STYLED_ITEM(' ',(#77),#809,#29) ;
#842=OVER_RIDING_STYLED_ITEM(' ',(#77),#841,#29) ;
#855=OVER_RIDING_STYLED_ITEM(' ',(#77),#854,#29) ;
#887=OVER_RIDING_STYLED_ITEM(' ',(#77),#886,#29) ;
#900=OVER_RIDING_STYLED_ITEM(' ',(#77),#899,#29) ;
#923=OVER_RIDING_STYLED_ITEM(' ',(#77),#922,#29) ;
#931=OVER_RIDING_STYLED_ITEM(' ',(#77),#930,#29) ;
#954=OVER_RIDING_STYLED_ITEM(' ',(#77),#953,#29) ;
#962=OVER_RIDING_STYLED_ITEM(' ',(#77),#961,#29) ;
#985=OVER_RIDING_STYLED_ITEM(' ',(#77),#984,#29) ;
#993=OVER_RIDING_STYLED_ITEM(' ',(#77),#992,#29) ;
#71=DRAUGHTING_PRE_DEFINED_COLOUR('magenta') ;
#69=FACE_OUTER_BOUND('',#64,.T.) ;
#108=FACE_OUTER_BOUND('',#103,.T.) ;
#126=FACE_OUTER_BOUND('',#121,.T.) ;
#158=FACE_OUTER_BOUND('',#153,.T.) ;
#171=FACE_OUTER_BOUND('',#166,.T.) ;
#184=FACE_OUTER_BOUND('',#179,.T.) ;
#209=FACE_OUTER_BOUND('',#206,.T.) ;
#388=FACE_OUTER_BOUND('',#383,.T.) ;
#400=FACE_OUTER_BOUND('',#395,.T.) ;
#431=FACE_OUTER_BOUND('',#426,.T.) ;
#451=FACE_OUTER_BOUND('',#446,.T.) ;
#483=FACE_OUTER_BOUND('',#478,.T.) ;
#496=FACE_OUTER_BOUND('',#491,.T.) ;
#528=FACE_OUTER_BOUND('',#523,.T.) ;
#541=FACE_OUTER_BOUND('',#536,.T.) ;
#573=FACE_OUTER_BOUND('',#568,.T.) ;
#586=FACE_OUTER_BOUND('',#581,.T.) ;
#627=FACE_OUTER_BOUND('',#622,.T.) ;
#645=FACE_OUTER_BOUND('',#640,.T.) ;
#686=FACE_OUTER_BOUND('',#681,.T.) ;
#704=FACE_OUTER_BOUND('',#699,.T.) ;
#745=FACE_OUTER_BOUND('',#740,.T.) ;
#763=FACE_OUTER_BOUND('',#758,.T.) ;
#795=FACE_OUTER_BOUND('',#790,.T.) ;
#808=FACE_OUTER_BOUND('',#803,.T.) ;
#840=FACE_OUTER_BOUND('',#835,.T.) ;
#853=FACE_OUTER_BOUND('',#848,.T.) ;
#885=FACE_OUTER_BOUND('',#880,.T.) ;
#898=FACE_OUTER_BOUND('',#893,.T.) ;
#921=FACE_OUTER_BOUND('',#916,.T.) ;
#929=FACE_OUTER_BOUND('',#924,.T.) ;
#952=FACE_OUTER_BOUND('',#947,.T.) ;
#960=FACE_OUTER_BOUND('',#955,.T.) ;
#983=FACE_OUTER_BOUND('',#978,.T.) ;
#991=FACE_OUTER_BOUND('',#986,.T.) ;
#1039=FACE_OUTER_BOUND('',#1032,.T.) ;
#1067=FACE_OUTER_BOUND('',#1060,.T.) ;
#1107=FACE_OUTER_BOUND('',#1102,.T.) ;
#1138=FACE_OUTER_BOUND('',#1133,.T.) ;
#1169=FACE_OUTER_BOUND('',#1164,.T.) ;
#1188=FACE_OUTER_BOUND('',#1183,.T.) ;
#1212=FACE_OUTER_BOUND('',#1205,.T.) ;
#1230=FACE_OUTER_BOUND('',#1224,.T.) ;
#1248=FACE_OUTER_BOUND('',#1242,.T.) ;
#1262=FACE_OUTER_BOUND('',#1255,.T.) ;
#9=PRODUCT_CATEGORY_RELATIONSHIP(' ',' ',#7,#8) ;
#6=PRODUCT_DEFINITION_FORMATION_WITH_SPECIFIED_SOURCE('',' ',#5,.NOT_KNOWN.) ;
#20=SHAPE_DEFINITION_REPRESENTATION(#11,#19) ;
#12=(LENGTH_UNIT()NAMED_UNIT(*)SI_UNIT(.MILLI.,.METRE.)) ;
#13=(NAMED_UNIT(*)PLANE_ANGLE_UNIT()SI_UNIT($,.RADIAN.)) ;
#14=(NAMED_UNIT(*)SI_UNIT($,.STERADIAN.)SOLID_ANGLE_UNIT()) ;
#16=(GEOMETRIC_REPRESENTATION_CONTEXT(3)GLOBAL_UNCERTAINTY_ASSIGNED_CONTEXT((#15))GLOBAL_UNIT_ASSIGNED_CONTEXT((#12,#13,#14))REPRESENTATION_CONTEXT(' ',' ')) ;
ENDSEC;
END-ISO-10303-21;
