ISO-10303-21;
HEADER;
FILE_DESCRIPTION(('CATIA V5 STEP Exchange','CAx-IF Rec.Pracs.--- Model Styling and Organization---1.4--- 2014-01-23','CAx-IF Rec.Pracs.---3D Tessellated Data Validation Properties---0.5---2014-09-14'),'2;1');

FILE_NAME('D:\\GrabCAD\\I+D\\SERIE_LEXA\\EKOT-1360-170921A-LEXA_WAIST_SUPPORT\\FAB\\FAB_C\\PDF\\MAQUINADO\\1360.000.013.000.PLACA_FAJA.stp','2024-11-01T00:03:56+00:00',('none'),('none'),'CATIA Version 5-6 Release 2018 SP6','CATIA V5 STEP AP242','none');

FILE_SCHEMA(('AP242_MANAGED_MODEL_BASED_3D_ENGINEERING_MIM_LF  {1 0 10303 442 1 1 4}'));

ENDSEC;
DATA;
#5=PRODUCT('1360.000.013.000.PLACA_FAJA','','',(#2)) ;
#2=PRODUCT_CONTEXT(' ',#1,'mechanical') ;
#1=APPLICATION_CONTEXT('managed model based 3d engineering') ;
#10=PRODUCT_DEFINITION('',' ',#6,#3) ;
#3=PRODUCT_DEFINITION_CONTEXT('part definition',#1,' ') ;
#11=PRODUCT_DEFINITION_SHAPE(' ',' ',#10) ;
#468=MECHANICAL_DESIGN_GEOMETRIC_PRESENTATION_REPRESENTATION(' ',(#80,#112,#125,#457,#465,#29),#16) ;
#19=SHAPE_REPRESENTATION(' ',(#18),#16) ;
#7=PRODUCT_CATEGORY('part','specification') ;
#17=CARTESIAN_POINT(' ',(0.,0.,0.)) ;
#31=CARTESIAN_POINT('Axis2P3D Location',(3.,3.,3.5)) ;
#36=CARTESIAN_POINT('Axis2P3D Location',(3.,0.,3.5)) ;
#40=CARTESIAN_POINT('Vertex',(3.,5.,3.5)) ;
#42=CARTESIAN_POINT('Vertex',(3.,-5.,3.5)) ;
#45=CARTESIAN_POINT('Axis2P3D Location',(3.,0.,3.5)) ;
#54=CARTESIAN_POINT('Axis2P3D Location',(3.,0.,3.5)) ;
#58=CARTESIAN_POINT('Vertex',(3.,-3.,3.5)) ;
#60=CARTESIAN_POINT('Vertex',(3.,3.,3.5)) ;
#63=CARTESIAN_POINT('Axis2P3D Location',(3.,0.,3.5)) ;
#81=CARTESIAN_POINT('Axis2P3D Location',(0.,0.,3.5)) ;
#86=CARTESIAN_POINT('Axis2P3D Location',(6.35,0.,3.5)) ;
#90=CARTESIAN_POINT('Vertex',(6.35,3.,3.5)) ;
#92=CARTESIAN_POINT('Vertex',(6.35,-3.,3.5)) ;
#95=CARTESIAN_POINT('Line Origine',(6.5,-3.,3.5)) ;
#100=CARTESIAN_POINT('Line Origine',(6.5,3.,3.5)) ;
#113=CARTESIAN_POINT('Axis2P3D Location',(6.35,0.,3.5)) ;
#126=CARTESIAN_POINT('Axis2P3D Location',(6.35,0.,0.)) ;
#131=CARTESIAN_POINT('Line Origine',(6.35,-30.,0.)) ;
#135=CARTESIAN_POINT('Vertex',(6.35,-30.,21.5)) ;
#137=CARTESIAN_POINT('Vertex',(6.35,-30.,-21.5)) ;
#140=CARTESIAN_POINT('Line Origine',(6.35,-29.5,-22.)) ;
#144=CARTESIAN_POINT('Vertex',(6.35,-29.,-22.5)) ;
#147=CARTESIAN_POINT('Line Origine',(6.35,-3.5527136788E-015,-22.5)) ;
#151=CARTESIAN_POINT('Vertex',(6.35,29.,-22.5)) ;
#154=CARTESIAN_POINT('Line Origine',(6.35,29.5,-22.)) ;
#158=CARTESIAN_POINT('Vertex',(6.35,30.,-21.5)) ;
#161=CARTESIAN_POINT('Line Origine',(6.35,30.,0.)) ;
#165=CARTESIAN_POINT('Vertex',(6.35,30.,21.5)) ;
#168=CARTESIAN_POINT('Line Origine',(6.35,29.5,22.)) ;
#172=CARTESIAN_POINT('Vertex',(6.35,29.,22.5)) ;
#175=CARTESIAN_POINT('Line Origine',(6.35,0.,22.5)) ;
#179=CARTESIAN_POINT('Vertex',(6.35,-29.,22.5)) ;
#182=CARTESIAN_POINT('Line Origine',(6.35,-29.5,22.)) ;
#202=CARTESIAN_POINT('Axis2P3D Location',(0.,-30.,-22.5)) ;
#207=CARTESIAN_POINT('Line Origine',(3.175,-30.,21.5)) ;
#211=CARTESIAN_POINT('Vertex',(0.,-30.,21.5)) ;
#214=CARTESIAN_POINT('Line Origine',(0.,-30.,0.)) ;
#218=CARTESIAN_POINT('Vertex',(0.,-30.,-21.5)) ;
#221=CARTESIAN_POINT('Line Origine',(3.175,-30.,-21.5)) ;
#233=CARTESIAN_POINT('Axis2P3D Location',(0.,30.,-22.5)) ;
#238=CARTESIAN_POINT('Line Origine',(3.175,-29.,-22.5)) ;
#242=CARTESIAN_POINT('Vertex',(0.,-29.,-22.5)) ;
#245=CARTESIAN_POINT('Line Origine',(0.,-3.5527136788E-015,-22.5)) ;
#249=CARTESIAN_POINT('Vertex',(0.,29.,-22.5)) ;
#252=CARTESIAN_POINT('Line Origine',(3.175,29.,-22.5)) ;
#264=CARTESIAN_POINT('Axis2P3D Location',(0.,30.,22.5)) ;
#269=CARTESIAN_POINT('Line Origine',(3.175,30.,-21.5)) ;
#273=CARTESIAN_POINT('Vertex',(0.,30.,-21.5)) ;
#276=CARTESIAN_POINT('Line Origine',(0.,30.,0.)) ;
#280=CARTESIAN_POINT('Vertex',(0.,30.,21.5)) ;
#283=CARTESIAN_POINT('Line Origine',(3.175,30.,21.5)) ;
#295=CARTESIAN_POINT('Axis2P3D Location',(0.,-30.,22.5)) ;
#300=CARTESIAN_POINT('Line Origine',(3.175,-29.,22.5)) ;
#304=CARTESIAN_POINT('Vertex',(0.,-29.,22.5)) ;
#307=CARTESIAN_POINT('Line Origine',(3.175,29.,22.5)) ;
#311=CARTESIAN_POINT('Vertex',(0.,29.,22.5)) ;
#314=CARTESIAN_POINT('Line Origine',(0.,0.,22.5)) ;
#326=CARTESIAN_POINT('Axis2P3D Location',(0.,0.,0.)) ;
#331=CARTESIAN_POINT('Line Origine',(0.,-29.5,22.)) ;
#336=CARTESIAN_POINT('Line Origine',(0.,29.5,22.)) ;
#341=CARTESIAN_POINT('Line Origine',(0.,29.5,-22.)) ;
#346=CARTESIAN_POINT('Line Origine',(0.,-29.5,-22.)) ;
#361=CARTESIAN_POINT('Axis2P3D Location',(0.,0.,3.5)) ;
#365=CARTESIAN_POINT('Vertex',(2.22044604925E-016,-5.,3.5)) ;
#367=CARTESIAN_POINT('Vertex',(0.,5.,3.5)) ;
#370=CARTESIAN_POINT('Axis2P3D Location',(0.,0.,3.5)) ;
#380=CARTESIAN_POINT('Axis2P3D Location',(3.175,-29.,22.5)) ;
#392=CARTESIAN_POINT('Axis2P3D Location',(3.175,29.,22.5)) ;
#404=CARTESIAN_POINT('Axis2P3D Location',(3.175,29.,-22.5)) ;
#416=CARTESIAN_POINT('Axis2P3D Location',(3.175,-29.,-22.5)) ;
#428=CARTESIAN_POINT('Axis2P3D Location',(0.,0.,3.5)) ;
#433=CARTESIAN_POINT('Line Origine',(1.34499999996,5.,3.5)) ;
#438=CARTESIAN_POINT('Line Origine',(1.34499999996,-5.,3.5)) ;
#8=PRODUCT_RELATED_PRODUCT_CATEGORY('part',$,(#5)) ;
#29=STYLED_ITEM(' ',(#28),#21) ;
#28=PRESENTATION_STYLE_ASSIGNMENT((#27)) ;
#79=PRESENTATION_STYLE_ASSIGNMENT((#78)) ;
#456=PRESENTATION_STYLE_ASSIGNMENT((#455)) ;
#27=SURFACE_STYLE_USAGE(.BOTH.,#26) ;
#78=SURFACE_STYLE_USAGE(.BOTH.,#77) ;
#455=SURFACE_STYLE_USAGE(.BOTH.,#454) ;
#26=SURFACE_SIDE_STYLE(' ',(#25)) ;
#77=SURFACE_SIDE_STYLE(' ',(#76)) ;
#454=SURFACE_SIDE_STYLE(' ',(#453)) ;
#25=SURFACE_STYLE_FILL_AREA(#24) ;
#76=SURFACE_STYLE_FILL_AREA(#75) ;
#453=SURFACE_STYLE_FILL_AREA(#452) ;
#24=FILL_AREA_STYLE(' ',(#23)) ;
#75=FILL_AREA_STYLE(' ',(#74)) ;
#452=FILL_AREA_STYLE(' ',(#451)) ;
#23=FILL_AREA_STYLE_COLOUR(' ',#22) ;
#74=FILL_AREA_STYLE_COLOUR(' ',#73) ;
#451=FILL_AREA_STYLE_COLOUR(' ',#450) ;
#97=VECTOR('Line Direction',#96,1.) ;
#102=VECTOR('Line Direction',#101,1.) ;
#133=VECTOR('Line Direction',#132,1.) ;
#142=VECTOR('Line Direction',#141,1.) ;
#149=VECTOR('Line Direction',#148,1.) ;
#156=VECTOR('Line Direction',#155,1.) ;
#163=VECTOR('Line Direction',#162,1.) ;
#170=VECTOR('Line Direction',#169,1.) ;
#177=VECTOR('Line Direction',#176,1.) ;
#184=VECTOR('Line Direction',#183,1.) ;
#209=VECTOR('Line Direction',#208,1.) ;
#216=VECTOR('Line Direction',#215,1.) ;
#223=VECTOR('Line Direction',#222,1.) ;
#240=VECTOR('Line Direction',#239,1.) ;
#247=VECTOR('Line Direction',#246,1.) ;
#254=VECTOR('Line Direction',#253,1.) ;
#271=VECTOR('Line Direction',#270,1.) ;
#278=VECTOR('Line Direction',#277,1.) ;
#285=VECTOR('Line Direction',#284,1.) ;
#302=VECTOR('Line Direction',#301,1.) ;
#309=VECTOR('Line Direction',#308,1.) ;
#316=VECTOR('Line Direction',#315,1.) ;
#333=VECTOR('Line Direction',#332,1.) ;
#338=VECTOR('Line Direction',#337,1.) ;
#343=VECTOR('Line Direction',#342,1.) ;
#348=VECTOR('Line Direction',#347,1.) ;
#435=VECTOR('Line Direction',#434,1.) ;
#440=VECTOR('Line Direction',#439,1.) ;
#32=DIRECTION('Axis2P3D Direction',(1.,0.,0.)) ;
#33=DIRECTION('Axis2P3D XDirection',(0.,1.,0.)) ;
#37=DIRECTION('Axis2P3D Direction',(1.,0.,0.)) ;
#46=DIRECTION('Axis2P3D Direction',(1.,0.,0.)) ;
#55=DIRECTION('Axis2P3D Direction',(1.,0.,0.)) ;
#64=DIRECTION('Axis2P3D Direction',(1.,0.,0.)) ;
#82=DIRECTION('Axis2P3D Direction',(1.,0.,-0.)) ;
#83=DIRECTION('Axis2P3D XDirection',(0.,1.,0.)) ;
#87=DIRECTION('Axis2P3D Direction',(1.,0.,-0.)) ;
#96=DIRECTION('Vector Direction',(1.,0.,0.)) ;
#101=DIRECTION('Vector Direction',(1.,0.,0.)) ;
#114=DIRECTION('Axis2P3D Direction',(1.,0.,-0.)) ;
#127=DIRECTION('Axis2P3D Direction',(1.,0.,0.)) ;
#128=DIRECTION('Axis2P3D XDirection',(0.,1.,0.)) ;
#132=DIRECTION('Vector Direction',(0.,0.,1.)) ;
#141=DIRECTION('Vector Direction',(0.,0.707106781187,-0.707106781187)) ;
#148=DIRECTION('Vector Direction',(0.,-1.,0.)) ;
#155=DIRECTION('Vector Direction',(0.,-0.707106781187,-0.707106781187)) ;
#162=DIRECTION('Vector Direction',(0.,0.,-1.)) ;
#169=DIRECTION('Vector Direction',(0.,0.707106781187,-0.707106781187)) ;
#176=DIRECTION('Vector Direction',(0.,1.,0.)) ;
#183=DIRECTION('Vector Direction',(0.,0.707106781187,0.707106781187)) ;
#203=DIRECTION('Axis2P3D Direction',(0.,1.,0.)) ;
#204=DIRECTION('Axis2P3D XDirection',(0.,0.,1.)) ;
#208=DIRECTION('Vector Direction',(1.,0.,0.)) ;
#215=DIRECTION('Vector Direction',(0.,0.,1.)) ;
#222=DIRECTION('Vector Direction',(1.,0.,0.)) ;
#234=DIRECTION('Axis2P3D Direction',(-0.,0.,1.)) ;
#235=DIRECTION('Axis2P3D XDirection',(0.,-1.,0.)) ;
#239=DIRECTION('Vector Direction',(1.,0.,0.)) ;
#246=DIRECTION('Vector Direction',(0.,-1.,0.)) ;
#253=DIRECTION('Vector Direction',(1.,0.,0.)) ;
#265=DIRECTION('Axis2P3D Direction',(0.,-1.,0.)) ;
#266=DIRECTION('Axis2P3D XDirection',(0.,0.,-1.)) ;
#270=DIRECTION('Vector Direction',(1.,0.,0.)) ;
#277=DIRECTION('Vector Direction',(0.,0.,-1.)) ;
#284=DIRECTION('Vector Direction',(1.,0.,0.)) ;
#296=DIRECTION('Axis2P3D Direction',(0.,0.,-1.)) ;
#297=DIRECTION('Axis2P3D XDirection',(0.,1.,0.)) ;
#301=DIRECTION('Vector Direction',(1.,0.,0.)) ;
#308=DIRECTION('Vector Direction',(1.,0.,0.)) ;
#315=DIRECTION('Vector Direction',(0.,1.,0.)) ;
#327=DIRECTION('Axis2P3D Direction',(1.,0.,0.)) ;
#328=DIRECTION('Axis2P3D XDirection',(0.,1.,0.)) ;
#332=DIRECTION('Vector Direction',(0.,0.707106781187,0.707106781187)) ;
#337=DIRECTION('Vector Direction',(0.,0.707106781187,-0.707106781187)) ;
#342=DIRECTION('Vector Direction',(0.,-0.707106781187,-0.707106781187)) ;
#347=DIRECTION('Vector Direction',(0.,0.707106781187,-0.707106781187)) ;
#362=DIRECTION('Axis2P3D Direction',(1.,0.,0.)) ;
#371=DIRECTION('Axis2P3D Direction',(1.,0.,0.)) ;
#381=DIRECTION('Axis2P3D Direction',(0.,0.707106781187,-0.707106781187)) ;
#382=DIRECTION('Axis2P3D XDirection',(1.,0.,0.)) ;
#393=DIRECTION('Axis2P3D Direction',(-0.,0.707106781187,0.707106781187)) ;
#394=DIRECTION('Axis2P3D XDirection',(1.,0.,0.)) ;
#405=DIRECTION('Axis2P3D Direction',(0.,-0.707106781187,0.707106781187)) ;
#406=DIRECTION('Axis2P3D XDirection',(1.,0.,0.)) ;
#417=DIRECTION('Axis2P3D Direction',(0.,-0.707106781187,-0.707106781187)) ;
#418=DIRECTION('Axis2P3D XDirection',(1.,0.,0.)) ;
#429=DIRECTION('Axis2P3D Direction',(1.,0.,-0.)) ;
#430=DIRECTION('Axis2P3D XDirection',(0.,1.,0.)) ;
#434=DIRECTION('Vector Direction',(1.,0.,0.)) ;
#439=DIRECTION('Vector Direction',(1.,0.,0.)) ;
#15=UNCERTAINTY_MEASURE_WITH_UNIT(LENGTH_MEASURE(0.005),#12,'distance_accuracy_value','CONFUSED CURVE UNCERTAINTY') ;
#18=AXIS2_PLACEMENT_3D(' ',#17,$,$) ;
#34=AXIS2_PLACEMENT_3D('Plane Axis2P3D',#31,#32,#33) ;
#38=AXIS2_PLACEMENT_3D('Circle Axis2P3D',#36,#37,$) ;
#47=AXIS2_PLACEMENT_3D('Circle Axis2P3D',#45,#46,$) ;
#56=AXIS2_PLACEMENT_3D('Circle Axis2P3D',#54,#55,$) ;
#65=AXIS2_PLACEMENT_3D('Circle Axis2P3D',#63,#64,$) ;
#84=AXIS2_PLACEMENT_3D('Cylinder Axis2P3D',#81,#82,#83) ;
#88=AXIS2_PLACEMENT_3D('Circle Axis2P3D',#86,#87,$) ;
#115=AXIS2_PLACEMENT_3D('Circle Axis2P3D',#113,#114,$) ;
#129=AXIS2_PLACEMENT_3D('Plane Axis2P3D',#126,#127,#128) ;
#205=AXIS2_PLACEMENT_3D('Plane Axis2P3D',#202,#203,#204) ;
#236=AXIS2_PLACEMENT_3D('Plane Axis2P3D',#233,#234,#235) ;
#267=AXIS2_PLACEMENT_3D('Plane Axis2P3D',#264,#265,#266) ;
#298=AXIS2_PLACEMENT_3D('Plane Axis2P3D',#295,#296,#297) ;
#329=AXIS2_PLACEMENT_3D('Plane Axis2P3D',#326,#327,#328) ;
#363=AXIS2_PLACEMENT_3D('Circle Axis2P3D',#361,#362,$) ;
#372=AXIS2_PLACEMENT_3D('Circle Axis2P3D',#370,#371,$) ;
#383=AXIS2_PLACEMENT_3D('Plane Axis2P3D',#380,#381,#382) ;
#395=AXIS2_PLACEMENT_3D('Plane Axis2P3D',#392,#393,#394) ;
#407=AXIS2_PLACEMENT_3D('Plane Axis2P3D',#404,#405,#406) ;
#419=AXIS2_PLACEMENT_3D('Plane Axis2P3D',#416,#417,#418) ;
#431=AXIS2_PLACEMENT_3D('Cylinder Axis2P3D',#428,#429,#430) ;
#98=LINE('Line',#95,#97) ;
#103=LINE('Line',#100,#102) ;
#134=LINE('Line',#131,#133) ;
#143=LINE('Line',#140,#142) ;
#150=LINE('Line',#147,#149) ;
#157=LINE('Line',#154,#156) ;
#164=LINE('Line',#161,#163) ;
#171=LINE('Line',#168,#170) ;
#178=LINE('Line',#175,#177) ;
#185=LINE('Line',#182,#184) ;
#210=LINE('Line',#207,#209) ;
#217=LINE('Line',#214,#216) ;
#224=LINE('Line',#221,#223) ;
#241=LINE('Line',#238,#240) ;
#248=LINE('Line',#245,#247) ;
#255=LINE('Line',#252,#254) ;
#272=LINE('Line',#269,#271) ;
#279=LINE('Line',#276,#278) ;
#286=LINE('Line',#283,#285) ;
#303=LINE('Line',#300,#302) ;
#310=LINE('Line',#307,#309) ;
#317=LINE('Line',#314,#316) ;
#334=LINE('Line',#331,#333) ;
#339=LINE('Line',#336,#338) ;
#344=LINE('Line',#341,#343) ;
#349=LINE('Line',#346,#348) ;
#436=LINE('Line',#433,#435) ;
#441=LINE('Line',#438,#440) ;
#39=CIRCLE('generated circle',#38,5.) ;
#48=CIRCLE('generated circle',#47,5.) ;
#57=CIRCLE('generated circle',#56,3.) ;
#66=CIRCLE('generated circle',#65,3.) ;
#89=CIRCLE('generated circle',#88,3.) ;
#116=CIRCLE('generated circle',#115,3.) ;
#364=CIRCLE('generated circle',#363,5.) ;
#373=CIRCLE('generated circle',#372,5.) ;
#35=PLANE('',#34) ;
#130=PLANE('',#129) ;
#206=PLANE('',#205) ;
#237=PLANE('',#236) ;
#268=PLANE('',#267) ;
#299=PLANE('',#298) ;
#330=PLANE('',#329) ;
#384=PLANE('',#383) ;
#396=PLANE('',#395) ;
#408=PLANE('',#407) ;
#420=PLANE('',#419) ;
#85=CYLINDRICAL_SURFACE('generated cylinder',#84,3.) ;
#432=CYLINDRICAL_SURFACE('generated cylinder',#431,5.) ;
#71=FACE_BOUND('',#68,.T.) ;
#200=FACE_BOUND('',#197,.T.) ;
#378=FACE_BOUND('',#375,.T.) ;
#44=EDGE_CURVE('',#41,#43,#39,.T.) ;
#49=EDGE_CURVE('',#43,#41,#48,.T.) ;
#62=EDGE_CURVE('',#59,#61,#57,.T.) ;
#67=EDGE_CURVE('',#61,#59,#66,.T.) ;
#94=EDGE_CURVE('',#91,#93,#89,.T.) ;
#99=EDGE_CURVE('',#93,#59,#98,.F.) ;
#104=EDGE_CURVE('',#91,#61,#103,.F.) ;
#117=EDGE_CURVE('',#93,#91,#116,.T.) ;
#139=EDGE_CURVE('',#136,#138,#134,.F.) ;
#146=EDGE_CURVE('',#145,#138,#143,.F.) ;
#153=EDGE_CURVE('',#145,#152,#150,.F.) ;
#160=EDGE_CURVE('',#159,#152,#157,.T.) ;
#167=EDGE_CURVE('',#159,#166,#164,.F.) ;
#174=EDGE_CURVE('',#173,#166,#171,.T.) ;
#181=EDGE_CURVE('',#173,#180,#178,.F.) ;
#186=EDGE_CURVE('',#136,#180,#185,.T.) ;
#213=EDGE_CURVE('',#212,#136,#210,.T.) ;
#220=EDGE_CURVE('',#212,#219,#217,.F.) ;
#225=EDGE_CURVE('',#219,#138,#224,.T.) ;
#244=EDGE_CURVE('',#243,#145,#241,.T.) ;
#251=EDGE_CURVE('',#243,#250,#248,.F.) ;
#256=EDGE_CURVE('',#250,#152,#255,.T.) ;
#275=EDGE_CURVE('',#274,#159,#272,.T.) ;
#282=EDGE_CURVE('',#274,#281,#279,.F.) ;
#287=EDGE_CURVE('',#281,#166,#286,.T.) ;
#306=EDGE_CURVE('',#305,#180,#303,.T.) ;
#313=EDGE_CURVE('',#312,#173,#310,.T.) ;
#318=EDGE_CURVE('',#312,#305,#317,.F.) ;
#335=EDGE_CURVE('',#305,#212,#334,.F.) ;
#340=EDGE_CURVE('',#281,#312,#339,.F.) ;
#345=EDGE_CURVE('',#250,#274,#344,.F.) ;
#350=EDGE_CURVE('',#219,#243,#349,.T.) ;
#369=EDGE_CURVE('',#366,#368,#364,.T.) ;
#374=EDGE_CURVE('',#368,#366,#373,.T.) ;
#437=EDGE_CURVE('',#41,#368,#436,.F.) ;
#442=EDGE_CURVE('',#43,#366,#441,.F.) ;
#30=CLOSED_SHELL('Closed Shell',(#72,#111,#124,#201,#232,#263,#294,#325,#379,#391,#403,#415,#427,#449,#464)) ;
#467=SHAPE_REPRESENTATION_RELATIONSHIP(' ',' ',#19,#466) ;
#50=EDGE_LOOP('',(#51,#52)) ;
#68=EDGE_LOOP('',(#69,#70)) ;
#105=EDGE_LOOP('',(#106,#107,#108,#109)) ;
#118=EDGE_LOOP('',(#119,#120,#121,#122)) ;
#187=EDGE_LOOP('',(#188,#189,#190,#191,#192,#193,#194,#195)) ;
#197=EDGE_LOOP('',(#198,#199)) ;
#226=EDGE_LOOP('',(#227,#228,#229,#230)) ;
#257=EDGE_LOOP('',(#258,#259,#260,#261)) ;
#288=EDGE_LOOP('',(#289,#290,#291,#292)) ;
#319=EDGE_LOOP('',(#320,#321,#322,#323)) ;
#351=EDGE_LOOP('',(#352,#353,#354,#355,#356,#357,#358,#359)) ;
#375=EDGE_LOOP('',(#376,#377)) ;
#385=EDGE_LOOP('',(#386,#387,#388,#389)) ;
#397=EDGE_LOOP('',(#398,#399,#400,#401)) ;
#409=EDGE_LOOP('',(#410,#411,#412,#413)) ;
#421=EDGE_LOOP('',(#422,#423,#424,#425)) ;
#443=EDGE_LOOP('',(#444,#445,#446,#447)) ;
#458=EDGE_LOOP('',(#459,#460,#461,#462)) ;
#51=ORIENTED_EDGE('',*,*,#44,.F.) ;
#52=ORIENTED_EDGE('',*,*,#49,.F.) ;
#69=ORIENTED_EDGE('',*,*,#62,.T.) ;
#70=ORIENTED_EDGE('',*,*,#67,.T.) ;
#106=ORIENTED_EDGE('',*,*,#94,.T.) ;
#107=ORIENTED_EDGE('',*,*,#99,.T.) ;
#108=ORIENTED_EDGE('',*,*,#67,.F.) ;
#109=ORIENTED_EDGE('',*,*,#104,.F.) ;
#119=ORIENTED_EDGE('',*,*,#117,.T.) ;
#120=ORIENTED_EDGE('',*,*,#104,.T.) ;
#121=ORIENTED_EDGE('',*,*,#62,.F.) ;
#122=ORIENTED_EDGE('',*,*,#99,.F.) ;
#188=ORIENTED_EDGE('',*,*,#139,.T.) ;
#189=ORIENTED_EDGE('',*,*,#146,.F.) ;
#190=ORIENTED_EDGE('',*,*,#153,.T.) ;
#191=ORIENTED_EDGE('',*,*,#160,.F.) ;
#192=ORIENTED_EDGE('',*,*,#167,.T.) ;
#193=ORIENTED_EDGE('',*,*,#174,.F.) ;
#194=ORIENTED_EDGE('',*,*,#181,.T.) ;
#195=ORIENTED_EDGE('',*,*,#186,.F.) ;
#198=ORIENTED_EDGE('',*,*,#94,.F.) ;
#199=ORIENTED_EDGE('',*,*,#117,.F.) ;
#227=ORIENTED_EDGE('',*,*,#213,.F.) ;
#228=ORIENTED_EDGE('',*,*,#220,.T.) ;
#229=ORIENTED_EDGE('',*,*,#225,.T.) ;
#230=ORIENTED_EDGE('',*,*,#139,.F.) ;
#258=ORIENTED_EDGE('',*,*,#244,.F.) ;
#259=ORIENTED_EDGE('',*,*,#251,.T.) ;
#260=ORIENTED_EDGE('',*,*,#256,.T.) ;
#261=ORIENTED_EDGE('',*,*,#153,.F.) ;
#289=ORIENTED_EDGE('',*,*,#275,.F.) ;
#290=ORIENTED_EDGE('',*,*,#282,.T.) ;
#291=ORIENTED_EDGE('',*,*,#287,.T.) ;
#292=ORIENTED_EDGE('',*,*,#167,.F.) ;
#320=ORIENTED_EDGE('',*,*,#306,.T.) ;
#321=ORIENTED_EDGE('',*,*,#181,.F.) ;
#322=ORIENTED_EDGE('',*,*,#313,.F.) ;
#323=ORIENTED_EDGE('',*,*,#318,.T.) ;
#352=ORIENTED_EDGE('',*,*,#335,.F.) ;
#353=ORIENTED_EDGE('',*,*,#318,.F.) ;
#354=ORIENTED_EDGE('',*,*,#340,.F.) ;
#355=ORIENTED_EDGE('',*,*,#282,.F.) ;
#356=ORIENTED_EDGE('',*,*,#345,.F.) ;
#357=ORIENTED_EDGE('',*,*,#251,.F.) ;
#358=ORIENTED_EDGE('',*,*,#350,.F.) ;
#359=ORIENTED_EDGE('',*,*,#220,.F.) ;
#376=ORIENTED_EDGE('',*,*,#369,.T.) ;
#377=ORIENTED_EDGE('',*,*,#374,.T.) ;
#386=ORIENTED_EDGE('',*,*,#306,.F.) ;
#387=ORIENTED_EDGE('',*,*,#335,.T.) ;
#388=ORIENTED_EDGE('',*,*,#213,.T.) ;
#389=ORIENTED_EDGE('',*,*,#186,.T.) ;
#398=ORIENTED_EDGE('',*,*,#174,.T.) ;
#399=ORIENTED_EDGE('',*,*,#287,.F.) ;
#400=ORIENTED_EDGE('',*,*,#340,.T.) ;
#401=ORIENTED_EDGE('',*,*,#313,.T.) ;
#410=ORIENTED_EDGE('',*,*,#256,.F.) ;
#411=ORIENTED_EDGE('',*,*,#345,.T.) ;
#412=ORIENTED_EDGE('',*,*,#275,.T.) ;
#413=ORIENTED_EDGE('',*,*,#160,.T.) ;
#422=ORIENTED_EDGE('',*,*,#146,.T.) ;
#423=ORIENTED_EDGE('',*,*,#225,.F.) ;
#424=ORIENTED_EDGE('',*,*,#350,.T.) ;
#425=ORIENTED_EDGE('',*,*,#244,.T.) ;
#444=ORIENTED_EDGE('',*,*,#374,.F.) ;
#445=ORIENTED_EDGE('',*,*,#437,.F.) ;
#446=ORIENTED_EDGE('',*,*,#44,.T.) ;
#447=ORIENTED_EDGE('',*,*,#442,.T.) ;
#459=ORIENTED_EDGE('',*,*,#369,.F.) ;
#460=ORIENTED_EDGE('',*,*,#442,.F.) ;
#461=ORIENTED_EDGE('',*,*,#49,.T.) ;
#462=ORIENTED_EDGE('',*,*,#437,.T.) ;
#21=MANIFOLD_SOLID_BREP('PartBody',#30) ;
#41=VERTEX_POINT('',#40) ;
#43=VERTEX_POINT('',#42) ;
#59=VERTEX_POINT('',#58) ;
#61=VERTEX_POINT('',#60) ;
#91=VERTEX_POINT('',#90) ;
#93=VERTEX_POINT('',#92) ;
#136=VERTEX_POINT('',#135) ;
#138=VERTEX_POINT('',#137) ;
#145=VERTEX_POINT('',#144) ;
#152=VERTEX_POINT('',#151) ;
#159=VERTEX_POINT('',#158) ;
#166=VERTEX_POINT('',#165) ;
#173=VERTEX_POINT('',#172) ;
#180=VERTEX_POINT('',#179) ;
#212=VERTEX_POINT('',#211) ;
#219=VERTEX_POINT('',#218) ;
#243=VERTEX_POINT('',#242) ;
#250=VERTEX_POINT('',#249) ;
#274=VERTEX_POINT('',#273) ;
#281=VERTEX_POINT('',#280) ;
#305=VERTEX_POINT('',#304) ;
#312=VERTEX_POINT('',#311) ;
#366=VERTEX_POINT('',#365) ;
#368=VERTEX_POINT('',#367) ;
#466=ADVANCED_BREP_SHAPE_REPRESENTATION('NONE',(#21),#16) ;
#72=ADVANCED_FACE('PartBody',(#53,#71),#35,.F.) ;
#111=ADVANCED_FACE('PartBody',(#110),#85,.F.) ;
#124=ADVANCED_FACE('PartBody',(#123),#85,.F.) ;
#201=ADVANCED_FACE('PartBody',(#196,#200),#130,.T.) ;
#232=ADVANCED_FACE('PartBody',(#231),#206,.F.) ;
#263=ADVANCED_FACE('PartBody',(#262),#237,.F.) ;
#294=ADVANCED_FACE('PartBody',(#293),#268,.F.) ;
#325=ADVANCED_FACE('PartBody',(#324),#299,.F.) ;
#379=ADVANCED_FACE('PartBody',(#360,#378),#330,.F.) ;
#391=ADVANCED_FACE('PartBody',(#390),#384,.F.) ;
#403=ADVANCED_FACE('PartBody',(#402),#396,.T.) ;
#415=ADVANCED_FACE('PartBody',(#414),#408,.F.) ;
#427=ADVANCED_FACE('PartBody',(#426),#420,.T.) ;
#449=ADVANCED_FACE('PartBody',(#448),#432,.F.) ;
#464=ADVANCED_FACE('PartBody',(#463),#432,.F.) ;
#4=APPLICATION_PROTOCOL_DEFINITION('international standard','ap242_managed_model_based_3d_engineering',2014,#1) ;
#22=COLOUR_RGB('Colour',0.517647058824,0.529411764706,0.537254901961) ;
#73=COLOUR_RGB('Colour',0.372549019608,0.,0.) ;
#80=OVER_RIDING_STYLED_ITEM(' ',(#79),#72,#29) ;
#112=OVER_RIDING_STYLED_ITEM(' ',(#79),#111,#29) ;
#125=OVER_RIDING_STYLED_ITEM(' ',(#79),#124,#29) ;
#457=OVER_RIDING_STYLED_ITEM(' ',(#456),#449,#29) ;
#465=OVER_RIDING_STYLED_ITEM(' ',(#456),#464,#29) ;
#450=DRAUGHTING_PRE_DEFINED_COLOUR('blue') ;
#53=FACE_OUTER_BOUND('',#50,.T.) ;
#110=FACE_OUTER_BOUND('',#105,.T.) ;
#123=FACE_OUTER_BOUND('',#118,.T.) ;
#196=FACE_OUTER_BOUND('',#187,.T.) ;
#231=FACE_OUTER_BOUND('',#226,.T.) ;
#262=FACE_OUTER_BOUND('',#257,.T.) ;
#293=FACE_OUTER_BOUND('',#288,.T.) ;
#324=FACE_OUTER_BOUND('',#319,.T.) ;
#360=FACE_OUTER_BOUND('',#351,.T.) ;
#390=FACE_OUTER_BOUND('',#385,.T.) ;
#402=FACE_OUTER_BOUND('',#397,.T.) ;
#414=FACE_OUTER_BOUND('',#409,.T.) ;
#426=FACE_OUTER_BOUND('',#421,.T.) ;
#448=FACE_OUTER_BOUND('',#443,.T.) ;
#463=FACE_OUTER_BOUND('',#458,.T.) ;
#9=PRODUCT_CATEGORY_RELATIONSHIP(' ',' ',#7,#8) ;
#6=PRODUCT_DEFINITION_FORMATION_WITH_SPECIFIED_SOURCE('',' ',#5,.NOT_KNOWN.) ;
#20=SHAPE_DEFINITION_REPRESENTATION(#11,#19) ;
#12=(LENGTH_UNIT()NAMED_UNIT(*)SI_UNIT(.MILLI.,.METRE.)) ;
#13=(NAMED_UNIT(*)PLANE_ANGLE_UNIT()SI_UNIT($,.RADIAN.)) ;
#14=(NAMED_UNIT(*)SI_UNIT($,.STERADIAN.)SOLID_ANGLE_UNIT()) ;
#16=(GEOMETRIC_REPRESENTATION_CONTEXT(3)GLOBAL_UNCERTAINTY_ASSIGNED_CONTEXT((#15))GLOBAL_UNIT_ASSIGNED_CONTEXT((#12,#13,#14))REPRESENTATION_CONTEXT(' ',' ')) ;
ENDSEC;
END-ISO-10303-21;
