ISO-10303-21;
HEADER;
FILE_DESCRIPTION(('CATIA V5 STEP Exchange','CAx-IF Rec.Pracs.--- Model Styling and Organization---1.4--- 2014-01-23','CAx-IF Rec.Pracs.---3D Tessellated Data Validation Properties---0.5---2014-09-14'),'2;1');

FILE_NAME('D:\\GrabCAD\\I+D\\SERIE_LEXA\\EKOT-1360-170921A-LEXA_WAIST_SUPPORT\\FAB\\FAB_C\\PDF\\MAQUINADO\\1360.000.002.000.BASE_SIN_FIN.stp','2024-10-31T23:08:03+00:00',('none'),('none'),'CATIA Version 5-6 Release 2018 SP6','CATIA V5 STEP AP242','none');

FILE_SCHEMA(('AP242_MANAGED_MODEL_BASED_3D_ENGINEERING_MIM_LF  {1 0 10303 442 1 1 4}'));

ENDSEC;
DATA;
#5=PRODUCT('1360.000.002.000.BASE_SIN_FIN','','',(#2)) ;
#2=PRODUCT_CONTEXT(' ',#1,'mechanical') ;
#1=APPLICATION_CONTEXT('managed model based 3d engineering') ;
#10=PRODUCT_DEFINITION('',' ',#6,#3) ;
#3=PRODUCT_DEFINITION_CONTEXT('part definition',#1,' ') ;
#11=PRODUCT_DEFINITION_SHAPE(' ',' ',#10) ;
#615=MECHANICAL_DESIGN_GEOMETRIC_PRESENTATION_REPRESENTATION(' ',(#90,#120,#231,#343,#373,#405,#435,#580,#29),#16) ;
#19=SHAPE_REPRESENTATION(' ',(#18),#16) ;
#7=PRODUCT_CATEGORY('part','specification') ;
#17=CARTESIAN_POINT(' ',(0.,0.,0.)) ;
#31=CARTESIAN_POINT('Axis2P3D Location',(5.,-8.,-5.55111512313E-017)) ;
#36=CARTESIAN_POINT('Line Origine',(3.379,-4.15500000005,-2.54026397373E-016)) ;
#40=CARTESIAN_POINT('Vertex',(3.379,-3.96797554868,-2.54026397373E-016)) ;
#42=CARTESIAN_POINT('Vertex',(3.379,-8.,-2.54026397373E-016)) ;
#46=CARTESIAN_POINT('Control Point',(3.379,-3.96797554868,-5.38387143756E-008)) ;
#47=CARTESIAN_POINT('Control Point',(3.37899998985,-3.96797639459,0.305490906921)) ;
#48=CARTESIAN_POINT('Control Point',(3.45096537692,-3.9388055647,0.611076916085)) ;
#49=CARTESIAN_POINT('Control Point',(3.59452011593,-3.88046724881,0.888631142671)) ;
#50=CARTESIAN_POINT('Control Point',(3.90340498756,-3.77363705309,1.25295166161)) ;
#51=CARTESIAN_POINT('Control Point',(4.31570838109,-3.68380099889,1.48412808666)) ;
#52=CARTESIAN_POINT('Control Point',(4.47526236241,-3.65671643954,1.54809963173)) ;
#53=CARTESIAN_POINT('Control Point',(4.83610338333,-3.6169588475,1.6392925681)) ;
#54=CARTESIAN_POINT('Control Point',(5.21140694319,-3.62245978477,1.62587797466)) ;
#55=CARTESIAN_POINT('Control Point',(5.40945735446,-3.64030654103,1.58717305396)) ;
#56=CARTESIAN_POINT('Control Point',(5.92960540503,-3.72093178035,1.40005416658)) ;
#57=CARTESIAN_POINT('Control Point',(6.33385440518,-3.85104300822,1.01668422425)) ;
#58=CARTESIAN_POINT('Control Point',(6.52460049555,-3.92890971732,0.707137201072)) ;
#59=CARTESIAN_POINT('Control Point',(6.621,-3.96797561646,0.353568773184)) ;
#60=CARTESIAN_POINT('Control Point',(6.621,-3.96797561646,4.00464461095E-016)) ;
#61=CARTESIAN_POINT('Vertex',(6.621,-3.96797561646,-5.55111512313E-017)) ;
#64=CARTESIAN_POINT('Line Origine',(6.621,-4.15500000005,3.41519341052E-016)) ;
#68=CARTESIAN_POINT('Vertex',(6.621,-8.,-5.55111512313E-017)) ;
#71=CARTESIAN_POINT('Axis2P3D Location',(5.,-8.,-5.55111512313E-017)) ;
#92=CARTESIAN_POINT('Control Point',(6.621,-3.96797561646,1.11022302463E-016)) ;
#93=CARTESIAN_POINT('Control Point',(6.621,-3.96797561646,-0.290366338313)) ;
#94=CARTESIAN_POINT('Control Point',(6.5559841067,-3.94162792572,-0.580732443743)) ;
#95=CARTESIAN_POINT('Control Point',(6.42610994137,-3.88887541484,-0.847327043948)) ;
#96=CARTESIAN_POINT('Control Point',(6.08915327035,-3.77018151379,-1.27354104821)) ;
#97=CARTESIAN_POINT('Control Point',(5.61169738087,-3.66531601808,-1.53250824357)) ;
#98=CARTESIAN_POINT('Control Point',(5.36510810208,-3.62922330181,-1.6105165726)) ;
#99=CARTESIAN_POINT('Control Point',(4.77410725114,-3.60276302423,-1.67157474681)) ;
#100=CARTESIAN_POINT('Control Point',(4.21075393356,-3.68952174176,-1.4735191539)) ;
#101=CARTESIAN_POINT('Control Point',(3.93533958883,-3.76719211513,-1.28593953217)) ;
#102=CARTESIAN_POINT('Control Point',(3.60917987951,-3.87714724816,-0.921601770961)) ;
#103=CARTESIAN_POINT('Control Point',(3.43636853558,-3.94471778941,-0.468698258105)) ;
#104=CARTESIAN_POINT('Control Point',(3.398126288,-3.96022170647,-0.314953882362)) ;
#105=CARTESIAN_POINT('Control Point',(3.37900000523,-3.96797511259,-0.15748959863)) ;
#106=CARTESIAN_POINT('Control Point',(3.379,-3.96797554868,-5.38387143756E-008)) ;
#108=CARTESIAN_POINT('Axis2P3D Location',(5.,-8.,-5.55111512313E-017)) ;
#121=CARTESIAN_POINT('Axis2P3D Location',(0.,0.0320243835449,2.22044604925E-016)) ;
#127=CARTESIAN_POINT('Control Point',(13.3790000177,-3.96797561646,6.66133814775E-016)) ;
#128=CARTESIAN_POINT('Control Point',(13.3789997894,-3.96797561646,0.305490202385)) ;
#129=CARTESIAN_POINT('Control Point',(13.4509668771,-3.93881178403,0.611083392017)) ;
#130=CARTESIAN_POINT('Control Point',(13.5945189686,-3.88046667229,0.888630079117)) ;
#131=CARTESIAN_POINT('Control Point',(13.9034056327,-3.77363737725,1.2529522596)) ;
#132=CARTESIAN_POINT('Control Point',(14.3157080184,-3.68380081663,1.48412775043)) ;
#133=CARTESIAN_POINT('Control Point',(14.4752618739,-3.65671638957,1.54809953155)) ;
#134=CARTESIAN_POINT('Control Point',(14.8361039485,-3.61695890531,1.63929268401)) ;
#135=CARTESIAN_POINT('Control Point',(15.2114062893,-3.62245971788,1.62587784057)) ;
#136=CARTESIAN_POINT('Control Point',(15.409456821,-3.64030676054,1.5871734672)) ;
#137=CARTESIAN_POINT('Control Point',(15.9296063542,-3.72093138979,1.40005343133)) ;
#138=CARTESIAN_POINT('Control Point',(16.3338527164,-3.85104370311,1.01668553241)) ;
#139=CARTESIAN_POINT('Control Point',(16.5246004956,-3.92890971728,0.707135443816)) ;
#140=CARTESIAN_POINT('Control Point',(16.621,-3.96797561646,0.353568773184)) ;
#141=CARTESIAN_POINT('Control Point',(16.621,-3.96797561646,2.39886590542E-015)) ;
#142=CARTESIAN_POINT('Vertex',(13.379,-3.96797554868,-5.38387143809E-008)) ;
#144=CARTESIAN_POINT('Vertex',(16.621,-3.96797561646,-8.32667268469E-017)) ;
#147=CARTESIAN_POINT('Line Origine',(14.8449999998,-3.96797561646,7.11903324584E-016)) ;
#152=CARTESIAN_POINT('Line Origine',(14.8449999998,-3.96797561646,7.11903324584E-016)) ;
#156=CARTESIAN_POINT('Vertex',(3.5527136788E-015,-3.96797561646,7.11903324584E-016)) ;
#159=CARTESIAN_POINT('Axis2P3D Location',(0.,0.0320243835449,2.22044604925E-016)) ;
#163=CARTESIAN_POINT('Vertex',(0.,4.03202438354,2.22044604925E-016)) ;
#166=CARTESIAN_POINT('Line Origine',(14.8449999998,4.03202438354,2.22044604925E-016)) ;
#170=CARTESIAN_POINT('Vertex',(30.,4.03202438354,-3.33066907388E-015)) ;
#173=CARTESIAN_POINT('Axis2P3D Location',(30.,0.0320243835449,2.22044604925E-016)) ;
#177=CARTESIAN_POINT('Vertex',(30.,-3.96797561646,-2.67814114734E-016)) ;
#180=CARTESIAN_POINT('Line Origine',(14.8449999998,-3.96797561646,7.11903324584E-016)) ;
#184=CARTESIAN_POINT('Vertex',(26.621,-3.96797561646,-8.32667268469E-017)) ;
#188=CARTESIAN_POINT('Control Point',(23.3790000177,-3.96797561646,6.66133814775E-016)) ;
#189=CARTESIAN_POINT('Control Point',(23.3789997894,-3.96797561646,0.305490202385)) ;
#190=CARTESIAN_POINT('Control Point',(23.4509668771,-3.93881178403,0.611083392017)) ;
#191=CARTESIAN_POINT('Control Point',(23.5945189686,-3.88046667229,0.888630079117)) ;
#192=CARTESIAN_POINT('Control Point',(23.9034056327,-3.77363737725,1.2529522596)) ;
#193=CARTESIAN_POINT('Control Point',(24.3157080184,-3.68380081663,1.48412775043)) ;
#194=CARTESIAN_POINT('Control Point',(24.4752618739,-3.65671638957,1.54809953155)) ;
#195=CARTESIAN_POINT('Control Point',(24.8361039485,-3.61695890531,1.63929268401)) ;
#196=CARTESIAN_POINT('Control Point',(25.2114062893,-3.62245971788,1.62587784057)) ;
#197=CARTESIAN_POINT('Control Point',(25.409456821,-3.64030676054,1.5871734672)) ;
#198=CARTESIAN_POINT('Control Point',(25.9296063542,-3.72093138979,1.40005343133)) ;
#199=CARTESIAN_POINT('Control Point',(26.3338527164,-3.85104370311,1.01668553241)) ;
#200=CARTESIAN_POINT('Control Point',(26.5246004956,-3.92890971728,0.707135443816)) ;
#201=CARTESIAN_POINT('Control Point',(26.621,-3.96797561646,0.353568773184)) ;
#202=CARTESIAN_POINT('Control Point',(26.621,-3.96797561646,2.39886590542E-015)) ;
#203=CARTESIAN_POINT('Vertex',(23.379,-3.96797554868,-5.38387143809E-008)) ;
#206=CARTESIAN_POINT('Line Origine',(14.8449999998,-3.96797561646,7.11903324584E-016)) ;
#232=CARTESIAN_POINT('Axis2P3D Location',(0.,0.,7.5)) ;
#237=CARTESIAN_POINT('Line Origine',(0.,-1.,7.5)) ;
#241=CARTESIAN_POINT('Vertex',(0.,6.,7.5)) ;
#243=CARTESIAN_POINT('Vertex',(0.,-8.,7.5)) ;
#246=CARTESIAN_POINT('Line Origine',(15.,-8.,7.5)) ;
#250=CARTESIAN_POINT('Vertex',(30.,-8.,7.5)) ;
#253=CARTESIAN_POINT('Line Origine',(30.,-1.,7.5)) ;
#257=CARTESIAN_POINT('Vertex',(30.,6.,7.5)) ;
#260=CARTESIAN_POINT('Line Origine',(15.,6.,7.5)) ;
#272=CARTESIAN_POINT('Axis2P3D Location',(30.,-8.,0.)) ;
#277=CARTESIAN_POINT('Line Origine',(30.,-1.,-7.5)) ;
#281=CARTESIAN_POINT('Vertex',(30.,-8.,-7.5)) ;
#283=CARTESIAN_POINT('Vertex',(30.,6.,-7.5)) ;
#286=CARTESIAN_POINT('Line Origine',(30.,6.,0.)) ;
#291=CARTESIAN_POINT('Line Origine',(30.,-8.,0.)) ;
#302=CARTESIAN_POINT('Axis2P3D Location',(30.,0.0320243835449,2.22044604925E-016)) ;
#312=CARTESIAN_POINT('Axis2P3D Location',(15.,-8.,-5.55111512313E-017)) ;
#317=CARTESIAN_POINT('Line Origine',(13.379,-4.15500000005,-2.54026397373E-016)) ;
#321=CARTESIAN_POINT('Vertex',(13.379,-8.,3.41519341052E-016)) ;
#324=CARTESIAN_POINT('Line Origine',(16.621,-4.15500000005,3.41519341052E-016)) ;
#328=CARTESIAN_POINT('Vertex',(16.621,-8.,-6.51056889657E-016)) ;
#331=CARTESIAN_POINT('Axis2P3D Location',(15.,-8.,-5.55111512313E-017)) ;
#345=CARTESIAN_POINT('Control Point',(16.621,-3.96797561646,1.11022302463E-016)) ;
#346=CARTESIAN_POINT('Control Point',(16.621,-3.96797561646,-0.290366338313)) ;
#347=CARTESIAN_POINT('Control Point',(16.5559841067,-3.94162792572,-0.580732443743)) ;
#348=CARTESIAN_POINT('Control Point',(16.4261099414,-3.88887541484,-0.847327043948)) ;
#349=CARTESIAN_POINT('Control Point',(16.0891532703,-3.77018151379,-1.27354104821)) ;
#350=CARTESIAN_POINT('Control Point',(15.6116973809,-3.66531601808,-1.53250824357)) ;
#351=CARTESIAN_POINT('Control Point',(15.3651081021,-3.62922330181,-1.6105165726)) ;
#352=CARTESIAN_POINT('Control Point',(14.7741072511,-3.60276302423,-1.67157474681)) ;
#353=CARTESIAN_POINT('Control Point',(14.2107539336,-3.68952174176,-1.4735191539)) ;
#354=CARTESIAN_POINT('Control Point',(13.9353395888,-3.76719211513,-1.28593953217)) ;
#355=CARTESIAN_POINT('Control Point',(13.6091798795,-3.87714724816,-0.921601770961)) ;
#356=CARTESIAN_POINT('Control Point',(13.4363685356,-3.94471778941,-0.468698258105)) ;
#357=CARTESIAN_POINT('Control Point',(13.398126288,-3.96022170647,-0.314953882362)) ;
#358=CARTESIAN_POINT('Control Point',(13.3790000052,-3.96797511259,-0.15748959863)) ;
#359=CARTESIAN_POINT('Control Point',(13.379,-3.96797554868,-5.38387143756E-008)) ;
#361=CARTESIAN_POINT('Axis2P3D Location',(15.,-8.,-5.55111512313E-017)) ;
#374=CARTESIAN_POINT('Axis2P3D Location',(25.,-8.,-5.55111512313E-017)) ;
#379=CARTESIAN_POINT('Line Origine',(23.379,-4.15500000005,-2.54026397373E-016)) ;
#383=CARTESIAN_POINT('Vertex',(23.379,-8.,3.41519341052E-016)) ;
#386=CARTESIAN_POINT('Line Origine',(26.621,-4.15500000005,3.41519341052E-016)) ;
#390=CARTESIAN_POINT('Vertex',(26.621,-8.,-6.51056889657E-016)) ;
#393=CARTESIAN_POINT('Axis2P3D Location',(25.,-8.,-5.55111512313E-017)) ;
#407=CARTESIAN_POINT('Control Point',(26.621,-3.96797561646,1.11022302463E-016)) ;
#408=CARTESIAN_POINT('Control Point',(26.621,-3.96797561646,-0.290366338313)) ;
#409=CARTESIAN_POINT('Control Point',(26.5559841067,-3.94162792572,-0.580732443743)) ;
#410=CARTESIAN_POINT('Control Point',(26.4261099414,-3.88887541484,-0.847327043948)) ;
#411=CARTESIAN_POINT('Control Point',(26.0891532703,-3.77018151379,-1.27354104821)) ;
#412=CARTESIAN_POINT('Control Point',(25.6116973809,-3.66531601808,-1.53250824357)) ;
#413=CARTESIAN_POINT('Control Point',(25.3651081021,-3.62922330181,-1.6105165726)) ;
#414=CARTESIAN_POINT('Control Point',(24.7741072511,-3.60276302423,-1.67157474681)) ;
#415=CARTESIAN_POINT('Control Point',(24.2107539336,-3.68952174176,-1.4735191539)) ;
#416=CARTESIAN_POINT('Control Point',(23.9353395888,-3.76719211513,-1.28593953217)) ;
#417=CARTESIAN_POINT('Control Point',(23.6091798795,-3.87714724816,-0.921601770961)) ;
#418=CARTESIAN_POINT('Control Point',(23.4363685356,-3.94471778941,-0.468698258105)) ;
#419=CARTESIAN_POINT('Control Point',(23.398126288,-3.96022170647,-0.314953882362)) ;
#420=CARTESIAN_POINT('Control Point',(23.3790000052,-3.96797511259,-0.15748959863)) ;
#421=CARTESIAN_POINT('Control Point',(23.379,-3.96797554868,-5.38387143756E-008)) ;
#423=CARTESIAN_POINT('Axis2P3D Location',(25.,-8.,-5.55111512313E-017)) ;
#436=CARTESIAN_POINT('Axis2P3D Location',(30.,-8.,0.)) ;
#441=CARTESIAN_POINT('Line Origine',(18.4641016151,-8.,-7.5)) ;
#445=CARTESIAN_POINT('Vertex',(6.92820323028,-8.,-7.5)) ;
#448=CARTESIAN_POINT('Line Origine',(0.,-8.,2.)) ;
#452=CARTESIAN_POINT('Vertex',(0.,-8.,-3.5)) ;
#455=CARTESIAN_POINT('Line Origine',(3.46410161514,-8.,-5.5)) ;
#480=CARTESIAN_POINT('Axis2P3D Location',(0.,0.,-7.5)) ;
#485=CARTESIAN_POINT('Line Origine',(6.92820323028,-1.,-7.5)) ;
#489=CARTESIAN_POINT('Vertex',(6.92820323028,6.,-7.5)) ;
#492=CARTESIAN_POINT('Line Origine',(18.4641016151,6.,-7.5)) ;
#504=CARTESIAN_POINT('Axis2P3D Location',(0.,6.,0.)) ;
#509=CARTESIAN_POINT('Line Origine',(0.,3.98425802832,-3.5)) ;
#513=CARTESIAN_POINT('Vertex',(0.,6.,-3.5)) ;
#515=CARTESIAN_POINT('Vertex',(0.,1.96851605665,-3.5)) ;
#518=CARTESIAN_POINT('Axis2P3D Location',(0.,0.0320243835449,2.22044604925E-016)) ;
#523=CARTESIAN_POINT('Axis2P3D Location',(0.,0.0320243835449,2.22044604925E-016)) ;
#527=CARTESIAN_POINT('Vertex',(0.,-1.90446728956,-3.5)) ;
#530=CARTESIAN_POINT('Line Origine',(0.,-4.95223364478,-3.5)) ;
#535=CARTESIAN_POINT('Line Origine',(0.,6.,2.)) ;
#552=CARTESIAN_POINT('Control Point',(1.11022302463E-016,1.96851605665,-3.5)) ;
#553=CARTESIAN_POINT('Control Point',(0.274834858669,1.68172632425,-3.65867597964)) ;
#554=CARTESIAN_POINT('Control Point',(0.51979584771,1.35676573705,-3.80010467958)) ;
#555=CARTESIAN_POINT('Control Point',(0.725735386602,0.986387394003,-3.91900361412)) ;
#556=CARTESIAN_POINT('Control Point',(0.901265217457,0.361127810674,-4.02034567067)) ;
#557=CARTESIAN_POINT('Control Point',(0.859454384491,-0.2774503451,-3.99620624218)) ;
#558=CARTESIAN_POINT('Control Point',(0.821897135253,-0.482278834588,-3.97452240375)) ;
#559=CARTESIAN_POINT('Control Point',(0.689932002873,-0.929805093711,-3.89833259047)) ;
#560=CARTESIAN_POINT('Control Point',(0.470095388749,-1.3304706723,-3.77140949283)) ;
#561=CARTESIAN_POINT('Control Point',(0.32643227693,-1.53766047311,-3.68846591658)) ;
#562=CARTESIAN_POINT('Control Point',(0.168854363848,-1.72826803282,-3.59748811242)) ;
#563=CARTESIAN_POINT('Control Point',(5.55111512313E-017,-1.90446728956,-3.5)) ;
#581=CARTESIAN_POINT('Axis2P3D Location',(0.,6.,0.)) ;
#586=CARTESIAN_POINT('Line Origine',(3.46410161514,6.,-5.5)) ;
#599=CARTESIAN_POINT('Axis2P3D Location',(0.,-1.,-3.5)) ;
#8=PRODUCT_RELATED_PRODUCT_CATEGORY('part',$,(#5)) ;
#29=STYLED_ITEM(' ',(#28),#21) ;
#28=PRESENTATION_STYLE_ASSIGNMENT((#27)) ;
#89=PRESENTATION_STYLE_ASSIGNMENT((#88)) ;
#230=PRESENTATION_STYLE_ASSIGNMENT((#229)) ;
#27=SURFACE_STYLE_USAGE(.BOTH.,#26) ;
#88=SURFACE_STYLE_USAGE(.BOTH.,#87) ;
#229=SURFACE_STYLE_USAGE(.BOTH.,#228) ;
#26=SURFACE_SIDE_STYLE(' ',(#25)) ;
#87=SURFACE_SIDE_STYLE(' ',(#86)) ;
#228=SURFACE_SIDE_STYLE(' ',(#227)) ;
#25=SURFACE_STYLE_FILL_AREA(#24) ;
#86=SURFACE_STYLE_FILL_AREA(#85) ;
#227=SURFACE_STYLE_FILL_AREA(#226) ;
#24=FILL_AREA_STYLE(' ',(#23)) ;
#85=FILL_AREA_STYLE(' ',(#84)) ;
#226=FILL_AREA_STYLE(' ',(#225)) ;
#23=FILL_AREA_STYLE_COLOUR(' ',#22) ;
#84=FILL_AREA_STYLE_COLOUR(' ',#83) ;
#225=FILL_AREA_STYLE_COLOUR(' ',#224) ;
#38=VECTOR('Line Direction',#37,1.) ;
#66=VECTOR('Line Direction',#65,1.) ;
#149=VECTOR('Line Direction',#148,1.) ;
#154=VECTOR('Line Direction',#153,1.) ;
#168=VECTOR('Line Direction',#167,1.) ;
#182=VECTOR('Line Direction',#181,1.) ;
#208=VECTOR('Line Direction',#207,1.) ;
#239=VECTOR('Line Direction',#238,1.) ;
#248=VECTOR('Line Direction',#247,1.) ;
#255=VECTOR('Line Direction',#254,1.) ;
#262=VECTOR('Line Direction',#261,1.) ;
#279=VECTOR('Line Direction',#278,1.) ;
#288=VECTOR('Line Direction',#287,1.) ;
#293=VECTOR('Line Direction',#292,1.) ;
#319=VECTOR('Line Direction',#318,1.) ;
#326=VECTOR('Line Direction',#325,1.) ;
#381=VECTOR('Line Direction',#380,1.) ;
#388=VECTOR('Line Direction',#387,1.) ;
#443=VECTOR('Line Direction',#442,1.) ;
#450=VECTOR('Line Direction',#449,1.) ;
#457=VECTOR('Line Direction',#456,1.) ;
#487=VECTOR('Line Direction',#486,1.) ;
#494=VECTOR('Line Direction',#493,1.) ;
#511=VECTOR('Line Direction',#510,1.) ;
#532=VECTOR('Line Direction',#531,1.) ;
#537=VECTOR('Line Direction',#536,1.) ;
#588=VECTOR('Line Direction',#587,1.) ;
#32=DIRECTION('Axis2P3D Direction',(-0.,1.,0.)) ;
#33=DIRECTION('Axis2P3D XDirection',(1.,0.,0.)) ;
#37=DIRECTION('Vector Direction',(0.,1.,0.)) ;
#65=DIRECTION('Vector Direction',(0.,1.,0.)) ;
#72=DIRECTION('Axis2P3D Direction',(-0.,1.,0.)) ;
#109=DIRECTION('Axis2P3D Direction',(-0.,1.,0.)) ;
#122=DIRECTION('Axis2P3D Direction',(1.,0.,-0.)) ;
#123=DIRECTION('Axis2P3D XDirection',(0.,1.,0.)) ;
#148=DIRECTION('Vector Direction',(1.,0.,0.)) ;
#153=DIRECTION('Vector Direction',(1.,0.,0.)) ;
#160=DIRECTION('Axis2P3D Direction',(1.,0.,-0.)) ;
#167=DIRECTION('Vector Direction',(1.,0.,0.)) ;
#174=DIRECTION('Axis2P3D Direction',(1.,0.,-0.)) ;
#181=DIRECTION('Vector Direction',(1.,0.,0.)) ;
#207=DIRECTION('Vector Direction',(1.,0.,0.)) ;
#233=DIRECTION('Axis2P3D Direction',(0.,0.,1.)) ;
#234=DIRECTION('Axis2P3D XDirection',(1.,0.,0.)) ;
#238=DIRECTION('Vector Direction',(0.,-1.,0.)) ;
#247=DIRECTION('Vector Direction',(-1.,0.,0.)) ;
#254=DIRECTION('Vector Direction',(0.,1.,0.)) ;
#261=DIRECTION('Vector Direction',(1.,0.,0.)) ;
#273=DIRECTION('Axis2P3D Direction',(-1.,0.,0.)) ;
#274=DIRECTION('Axis2P3D XDirection',(0.,1.,0.)) ;
#278=DIRECTION('Vector Direction',(0.,1.,0.)) ;
#287=DIRECTION('Vector Direction',(0.,0.,-1.)) ;
#292=DIRECTION('Vector Direction',(0.,0.,-1.)) ;
#303=DIRECTION('Axis2P3D Direction',(-1.,0.,0.)) ;
#313=DIRECTION('Axis2P3D Direction',(-0.,1.,0.)) ;
#314=DIRECTION('Axis2P3D XDirection',(1.,0.,0.)) ;
#318=DIRECTION('Vector Direction',(0.,1.,0.)) ;
#325=DIRECTION('Vector Direction',(0.,1.,0.)) ;
#332=DIRECTION('Axis2P3D Direction',(-0.,1.,0.)) ;
#362=DIRECTION('Axis2P3D Direction',(-0.,1.,0.)) ;
#375=DIRECTION('Axis2P3D Direction',(-0.,1.,0.)) ;
#376=DIRECTION('Axis2P3D XDirection',(1.,0.,0.)) ;
#380=DIRECTION('Vector Direction',(0.,1.,0.)) ;
#387=DIRECTION('Vector Direction',(0.,1.,0.)) ;
#394=DIRECTION('Axis2P3D Direction',(-0.,1.,0.)) ;
#424=DIRECTION('Axis2P3D Direction',(-0.,1.,0.)) ;
#437=DIRECTION('Axis2P3D Direction',(-0.,-1.,-0.)) ;
#438=DIRECTION('Axis2P3D XDirection',(-1.,0.,0.)) ;
#442=DIRECTION('Vector Direction',(-1.,0.,0.)) ;
#449=DIRECTION('Vector Direction',(0.,0.,-1.)) ;
#456=DIRECTION('Vector Direction',(-0.866025403784,0.,0.5)) ;
#481=DIRECTION('Axis2P3D Direction',(0.,0.,1.)) ;
#482=DIRECTION('Axis2P3D XDirection',(1.,0.,0.)) ;
#486=DIRECTION('Vector Direction',(0.,-1.,0.)) ;
#493=DIRECTION('Vector Direction',(1.,0.,0.)) ;
#505=DIRECTION('Axis2P3D Direction',(1.,0.,0.)) ;
#506=DIRECTION('Axis2P3D XDirection',(0.,-1.,0.)) ;
#510=DIRECTION('Vector Direction',(0.,-1.,0.)) ;
#519=DIRECTION('Axis2P3D Direction',(1.,0.,0.)) ;
#524=DIRECTION('Axis2P3D Direction',(1.,0.,0.)) ;
#531=DIRECTION('Vector Direction',(0.,-1.,0.)) ;
#536=DIRECTION('Vector Direction',(0.,0.,-1.)) ;
#582=DIRECTION('Axis2P3D Direction',(-0.,1.,0.)) ;
#583=DIRECTION('Axis2P3D XDirection',(1.,0.,0.)) ;
#587=DIRECTION('Vector Direction',(0.866025403784,0.,-0.5)) ;
#600=DIRECTION('Axis2P3D Direction',(0.5,0.,0.866025403784)) ;
#601=DIRECTION('Axis2P3D XDirection',(0.,-1.,0.)) ;
#15=UNCERTAINTY_MEASURE_WITH_UNIT(LENGTH_MEASURE(0.005),#12,'distance_accuracy_value','CONFUSED CURVE UNCERTAINTY') ;
#18=AXIS2_PLACEMENT_3D(' ',#17,$,$) ;
#34=AXIS2_PLACEMENT_3D('Cylinder Axis2P3D',#31,#32,#33) ;
#73=AXIS2_PLACEMENT_3D('Circle Axis2P3D',#71,#72,$) ;
#110=AXIS2_PLACEMENT_3D('Circle Axis2P3D',#108,#109,$) ;
#124=AXIS2_PLACEMENT_3D('Cylinder Axis2P3D',#121,#122,#123) ;
#161=AXIS2_PLACEMENT_3D('Circle Axis2P3D',#159,#160,$) ;
#175=AXIS2_PLACEMENT_3D('Circle Axis2P3D',#173,#174,$) ;
#235=AXIS2_PLACEMENT_3D('Plane Axis2P3D',#232,#233,#234) ;
#275=AXIS2_PLACEMENT_3D('Plane Axis2P3D',#272,#273,#274) ;
#304=AXIS2_PLACEMENT_3D('Circle Axis2P3D',#302,#303,$) ;
#315=AXIS2_PLACEMENT_3D('Cylinder Axis2P3D',#312,#313,#314) ;
#333=AXIS2_PLACEMENT_3D('Circle Axis2P3D',#331,#332,$) ;
#363=AXIS2_PLACEMENT_3D('Circle Axis2P3D',#361,#362,$) ;
#377=AXIS2_PLACEMENT_3D('Cylinder Axis2P3D',#374,#375,#376) ;
#395=AXIS2_PLACEMENT_3D('Circle Axis2P3D',#393,#394,$) ;
#425=AXIS2_PLACEMENT_3D('Circle Axis2P3D',#423,#424,$) ;
#439=AXIS2_PLACEMENT_3D('Plane Axis2P3D',#436,#437,#438) ;
#483=AXIS2_PLACEMENT_3D('Plane Axis2P3D',#480,#481,#482) ;
#507=AXIS2_PLACEMENT_3D('Plane Axis2P3D',#504,#505,#506) ;
#520=AXIS2_PLACEMENT_3D('Circle Axis2P3D',#518,#519,$) ;
#525=AXIS2_PLACEMENT_3D('Circle Axis2P3D',#523,#524,$) ;
#584=AXIS2_PLACEMENT_3D('Plane Axis2P3D',#581,#582,#583) ;
#602=AXIS2_PLACEMENT_3D('Plane Axis2P3D',#599,#600,#601) ;
#39=LINE('Line',#36,#38) ;
#67=LINE('Line',#64,#66) ;
#150=LINE('Line',#147,#149) ;
#155=LINE('Line',#152,#154) ;
#169=LINE('Line',#166,#168) ;
#183=LINE('Line',#180,#182) ;
#209=LINE('Line',#206,#208) ;
#240=LINE('Line',#237,#239) ;
#249=LINE('Line',#246,#248) ;
#256=LINE('Line',#253,#255) ;
#263=LINE('Line',#260,#262) ;
#280=LINE('Line',#277,#279) ;
#289=LINE('Line',#286,#288) ;
#294=LINE('Line',#291,#293) ;
#320=LINE('Line',#317,#319) ;
#327=LINE('Line',#324,#326) ;
#382=LINE('Line',#379,#381) ;
#389=LINE('Line',#386,#388) ;
#444=LINE('Line',#441,#443) ;
#451=LINE('Line',#448,#450) ;
#458=LINE('Line',#455,#457) ;
#488=LINE('Line',#485,#487) ;
#495=LINE('Line',#492,#494) ;
#512=LINE('Line',#509,#511) ;
#533=LINE('Line',#530,#532) ;
#538=LINE('Line',#535,#537) ;
#589=LINE('Line',#586,#588) ;
#74=CIRCLE('generated circle',#73,1.621) ;
#111=CIRCLE('generated circle',#110,1.621) ;
#162=CIRCLE('generated circle',#161,4.) ;
#176=CIRCLE('generated circle',#175,4.) ;
#305=CIRCLE('generated circle',#304,4.) ;
#334=CIRCLE('generated circle',#333,1.621) ;
#364=CIRCLE('generated circle',#363,1.621) ;
#396=CIRCLE('generated circle',#395,1.621) ;
#426=CIRCLE('generated circle',#425,1.621) ;
#521=CIRCLE('generated circle',#520,4.) ;
#526=CIRCLE('generated circle',#525,4.) ;
#236=PLANE('',#235) ;
#276=PLANE('',#275) ;
#440=PLANE('',#439) ;
#484=PLANE('',#483) ;
#508=PLANE('',#507) ;
#585=PLANE('',#584) ;
#603=PLANE('',#602) ;
#35=CYLINDRICAL_SURFACE('generated cylinder',#34,1.621) ;
#125=CYLINDRICAL_SURFACE('generated cylinder',#124,4.) ;
#316=CYLINDRICAL_SURFACE('generated cylinder',#315,1.621) ;
#378=CYLINDRICAL_SURFACE('generated cylinder',#377,1.621) ;
#310=FACE_BOUND('',#307,.T.) ;
#470=FACE_BOUND('',#467,.T.) ;
#474=FACE_BOUND('',#471,.T.) ;
#478=FACE_BOUND('',#475,.T.) ;
#44=EDGE_CURVE('',#41,#43,#39,.F.) ;
#63=EDGE_CURVE('',#41,#62,#45,.T.) ;
#70=EDGE_CURVE('',#62,#69,#67,.F.) ;
#75=EDGE_CURVE('',#69,#43,#74,.F.) ;
#107=EDGE_CURVE('',#62,#41,#91,.T.) ;
#112=EDGE_CURVE('',#43,#69,#111,.F.) ;
#146=EDGE_CURVE('',#143,#145,#126,.T.) ;
#151=EDGE_CURVE('',#143,#62,#150,.F.) ;
#158=EDGE_CURVE('',#41,#157,#155,.F.) ;
#165=EDGE_CURVE('',#164,#157,#162,.T.) ;
#172=EDGE_CURVE('',#171,#164,#169,.F.) ;
#179=EDGE_CURVE('',#171,#178,#176,.T.) ;
#186=EDGE_CURVE('',#178,#185,#183,.F.) ;
#205=EDGE_CURVE('',#204,#185,#187,.T.) ;
#210=EDGE_CURVE('',#204,#145,#209,.F.) ;
#245=EDGE_CURVE('',#242,#244,#240,.T.) ;
#252=EDGE_CURVE('',#244,#251,#249,.F.) ;
#259=EDGE_CURVE('',#251,#258,#256,.T.) ;
#264=EDGE_CURVE('',#258,#242,#263,.F.) ;
#285=EDGE_CURVE('',#282,#284,#280,.T.) ;
#290=EDGE_CURVE('',#258,#284,#289,.T.) ;
#295=EDGE_CURVE('',#251,#282,#294,.T.) ;
#306=EDGE_CURVE('',#178,#171,#305,.F.) ;
#323=EDGE_CURVE('',#143,#322,#320,.F.) ;
#330=EDGE_CURVE('',#145,#329,#327,.F.) ;
#335=EDGE_CURVE('',#329,#322,#334,.F.) ;
#360=EDGE_CURVE('',#145,#143,#344,.T.) ;
#365=EDGE_CURVE('',#322,#329,#364,.F.) ;
#385=EDGE_CURVE('',#204,#384,#382,.F.) ;
#392=EDGE_CURVE('',#185,#391,#389,.F.) ;
#397=EDGE_CURVE('',#391,#384,#396,.F.) ;
#422=EDGE_CURVE('',#185,#204,#406,.T.) ;
#427=EDGE_CURVE('',#384,#391,#426,.F.) ;
#447=EDGE_CURVE('',#446,#282,#444,.F.) ;
#454=EDGE_CURVE('',#244,#453,#451,.T.) ;
#459=EDGE_CURVE('',#446,#453,#458,.T.) ;
#491=EDGE_CURVE('',#490,#446,#488,.T.) ;
#496=EDGE_CURVE('',#284,#490,#495,.F.) ;
#517=EDGE_CURVE('',#514,#516,#512,.T.) ;
#522=EDGE_CURVE('',#516,#164,#521,.T.) ;
#529=EDGE_CURVE('',#157,#528,#526,.T.) ;
#534=EDGE_CURVE('',#528,#453,#533,.T.) ;
#539=EDGE_CURVE('',#242,#514,#538,.T.) ;
#564=EDGE_CURVE('',#528,#516,#551,.F.) ;
#590=EDGE_CURVE('',#514,#490,#589,.T.) ;
#30=CLOSED_SHELL('Closed Shell',(#82,#119,#223,#271,#311,#342,#372,#404,#434,#479,#503,#550,#579,#598,#612)) ;
#614=SHAPE_REPRESENTATION_RELATIONSHIP(' ',' ',#19,#613) ;
#76=EDGE_LOOP('',(#77,#78,#79,#80)) ;
#113=EDGE_LOOP('',(#114,#115,#116,#117)) ;
#211=EDGE_LOOP('',(#212,#213,#214,#215,#216,#217,#218,#219,#220,#221)) ;
#265=EDGE_LOOP('',(#266,#267,#268,#269)) ;
#296=EDGE_LOOP('',(#297,#298,#299,#300)) ;
#307=EDGE_LOOP('',(#308,#309)) ;
#336=EDGE_LOOP('',(#337,#338,#339,#340)) ;
#366=EDGE_LOOP('',(#367,#368,#369,#370)) ;
#398=EDGE_LOOP('',(#399,#400,#401,#402)) ;
#428=EDGE_LOOP('',(#429,#430,#431,#432)) ;
#460=EDGE_LOOP('',(#461,#462,#463,#464,#465)) ;
#467=EDGE_LOOP('',(#468,#469)) ;
#471=EDGE_LOOP('',(#472,#473)) ;
#475=EDGE_LOOP('',(#476,#477)) ;
#497=EDGE_LOOP('',(#498,#499,#500,#501)) ;
#540=EDGE_LOOP('',(#541,#542,#543,#544,#545,#546,#547,#548)) ;
#565=EDGE_LOOP('',(#566,#567,#568,#569,#570,#571,#572,#573,#574,#575,#576,#577)) ;
#591=EDGE_LOOP('',(#592,#593,#594,#595,#596)) ;
#604=EDGE_LOOP('',(#605,#606,#607,#608,#609,#610)) ;
#77=ORIENTED_EDGE('',*,*,#44,.F.) ;
#78=ORIENTED_EDGE('',*,*,#63,.T.) ;
#79=ORIENTED_EDGE('',*,*,#70,.T.) ;
#80=ORIENTED_EDGE('',*,*,#75,.T.) ;
#114=ORIENTED_EDGE('',*,*,#70,.F.) ;
#115=ORIENTED_EDGE('',*,*,#107,.T.) ;
#116=ORIENTED_EDGE('',*,*,#44,.T.) ;
#117=ORIENTED_EDGE('',*,*,#112,.T.) ;
#212=ORIENTED_EDGE('',*,*,#146,.F.) ;
#213=ORIENTED_EDGE('',*,*,#151,.T.) ;
#214=ORIENTED_EDGE('',*,*,#63,.F.) ;
#215=ORIENTED_EDGE('',*,*,#158,.T.) ;
#216=ORIENTED_EDGE('',*,*,#165,.F.) ;
#217=ORIENTED_EDGE('',*,*,#172,.F.) ;
#218=ORIENTED_EDGE('',*,*,#179,.T.) ;
#219=ORIENTED_EDGE('',*,*,#186,.T.) ;
#220=ORIENTED_EDGE('',*,*,#205,.F.) ;
#221=ORIENTED_EDGE('',*,*,#210,.T.) ;
#266=ORIENTED_EDGE('',*,*,#245,.T.) ;
#267=ORIENTED_EDGE('',*,*,#252,.T.) ;
#268=ORIENTED_EDGE('',*,*,#259,.T.) ;
#269=ORIENTED_EDGE('',*,*,#264,.T.) ;
#297=ORIENTED_EDGE('',*,*,#285,.T.) ;
#298=ORIENTED_EDGE('',*,*,#290,.F.) ;
#299=ORIENTED_EDGE('',*,*,#259,.F.) ;
#300=ORIENTED_EDGE('',*,*,#295,.T.) ;
#308=ORIENTED_EDGE('',*,*,#306,.F.) ;
#309=ORIENTED_EDGE('',*,*,#179,.F.) ;
#337=ORIENTED_EDGE('',*,*,#323,.F.) ;
#338=ORIENTED_EDGE('',*,*,#146,.T.) ;
#339=ORIENTED_EDGE('',*,*,#330,.T.) ;
#340=ORIENTED_EDGE('',*,*,#335,.T.) ;
#367=ORIENTED_EDGE('',*,*,#330,.F.) ;
#368=ORIENTED_EDGE('',*,*,#360,.T.) ;
#369=ORIENTED_EDGE('',*,*,#323,.T.) ;
#370=ORIENTED_EDGE('',*,*,#365,.T.) ;
#399=ORIENTED_EDGE('',*,*,#385,.F.) ;
#400=ORIENTED_EDGE('',*,*,#205,.T.) ;
#401=ORIENTED_EDGE('',*,*,#392,.T.) ;
#402=ORIENTED_EDGE('',*,*,#397,.T.) ;
#429=ORIENTED_EDGE('',*,*,#392,.F.) ;
#430=ORIENTED_EDGE('',*,*,#422,.T.) ;
#431=ORIENTED_EDGE('',*,*,#385,.T.) ;
#432=ORIENTED_EDGE('',*,*,#427,.T.) ;
#461=ORIENTED_EDGE('',*,*,#447,.T.) ;
#462=ORIENTED_EDGE('',*,*,#295,.F.) ;
#463=ORIENTED_EDGE('',*,*,#252,.F.) ;
#464=ORIENTED_EDGE('',*,*,#454,.T.) ;
#465=ORIENTED_EDGE('',*,*,#459,.F.) ;
#468=ORIENTED_EDGE('',*,*,#112,.F.) ;
#469=ORIENTED_EDGE('',*,*,#75,.F.) ;
#472=ORIENTED_EDGE('',*,*,#365,.F.) ;
#473=ORIENTED_EDGE('',*,*,#335,.F.) ;
#476=ORIENTED_EDGE('',*,*,#427,.F.) ;
#477=ORIENTED_EDGE('',*,*,#397,.F.) ;
#498=ORIENTED_EDGE('',*,*,#491,.F.) ;
#499=ORIENTED_EDGE('',*,*,#496,.F.) ;
#500=ORIENTED_EDGE('',*,*,#285,.F.) ;
#501=ORIENTED_EDGE('',*,*,#447,.F.) ;
#541=ORIENTED_EDGE('',*,*,#517,.T.) ;
#542=ORIENTED_EDGE('',*,*,#522,.T.) ;
#543=ORIENTED_EDGE('',*,*,#165,.T.) ;
#544=ORIENTED_EDGE('',*,*,#529,.T.) ;
#545=ORIENTED_EDGE('',*,*,#534,.T.) ;
#546=ORIENTED_EDGE('',*,*,#454,.F.) ;
#547=ORIENTED_EDGE('',*,*,#245,.F.) ;
#548=ORIENTED_EDGE('',*,*,#539,.T.) ;
#566=ORIENTED_EDGE('',*,*,#564,.F.) ;
#567=ORIENTED_EDGE('',*,*,#529,.F.) ;
#568=ORIENTED_EDGE('',*,*,#158,.F.) ;
#569=ORIENTED_EDGE('',*,*,#107,.F.) ;
#570=ORIENTED_EDGE('',*,*,#151,.F.) ;
#571=ORIENTED_EDGE('',*,*,#360,.F.) ;
#572=ORIENTED_EDGE('',*,*,#210,.F.) ;
#573=ORIENTED_EDGE('',*,*,#422,.F.) ;
#574=ORIENTED_EDGE('',*,*,#186,.F.) ;
#575=ORIENTED_EDGE('',*,*,#306,.T.) ;
#576=ORIENTED_EDGE('',*,*,#172,.T.) ;
#577=ORIENTED_EDGE('',*,*,#522,.F.) ;
#592=ORIENTED_EDGE('',*,*,#539,.F.) ;
#593=ORIENTED_EDGE('',*,*,#264,.F.) ;
#594=ORIENTED_EDGE('',*,*,#290,.T.) ;
#595=ORIENTED_EDGE('',*,*,#496,.T.) ;
#596=ORIENTED_EDGE('',*,*,#590,.F.) ;
#605=ORIENTED_EDGE('',*,*,#517,.F.) ;
#606=ORIENTED_EDGE('',*,*,#590,.T.) ;
#607=ORIENTED_EDGE('',*,*,#491,.T.) ;
#608=ORIENTED_EDGE('',*,*,#459,.T.) ;
#609=ORIENTED_EDGE('',*,*,#534,.F.) ;
#610=ORIENTED_EDGE('',*,*,#564,.T.) ;
#21=MANIFOLD_SOLID_BREP('PartBody',#30) ;
#41=VERTEX_POINT('',#40) ;
#43=VERTEX_POINT('',#42) ;
#62=VERTEX_POINT('',#61) ;
#69=VERTEX_POINT('',#68) ;
#143=VERTEX_POINT('',#142) ;
#145=VERTEX_POINT('',#144) ;
#157=VERTEX_POINT('',#156) ;
#164=VERTEX_POINT('',#163) ;
#171=VERTEX_POINT('',#170) ;
#178=VERTEX_POINT('',#177) ;
#185=VERTEX_POINT('',#184) ;
#204=VERTEX_POINT('',#203) ;
#242=VERTEX_POINT('',#241) ;
#244=VERTEX_POINT('',#243) ;
#251=VERTEX_POINT('',#250) ;
#258=VERTEX_POINT('',#257) ;
#282=VERTEX_POINT('',#281) ;
#284=VERTEX_POINT('',#283) ;
#322=VERTEX_POINT('',#321) ;
#329=VERTEX_POINT('',#328) ;
#384=VERTEX_POINT('',#383) ;
#391=VERTEX_POINT('',#390) ;
#446=VERTEX_POINT('',#445) ;
#453=VERTEX_POINT('',#452) ;
#490=VERTEX_POINT('',#489) ;
#514=VERTEX_POINT('',#513) ;
#516=VERTEX_POINT('',#515) ;
#528=VERTEX_POINT('',#527) ;
#613=ADVANCED_BREP_SHAPE_REPRESENTATION('NONE',(#21),#16) ;
#82=ADVANCED_FACE('PartBody',(#81),#35,.F.) ;
#119=ADVANCED_FACE('PartBody',(#118),#35,.F.) ;
#223=ADVANCED_FACE('PartBody',(#222),#125,.F.) ;
#271=ADVANCED_FACE('PartBody',(#270),#236,.T.) ;
#311=ADVANCED_FACE('PartBody',(#301,#310),#276,.F.) ;
#342=ADVANCED_FACE('PartBody',(#341),#316,.F.) ;
#372=ADVANCED_FACE('PartBody',(#371),#316,.F.) ;
#404=ADVANCED_FACE('PartBody',(#403),#378,.F.) ;
#434=ADVANCED_FACE('PartBody',(#433),#378,.F.) ;
#479=ADVANCED_FACE('PartBody',(#466,#470,#474,#478),#440,.T.) ;
#503=ADVANCED_FACE('PartBody',(#502),#484,.F.) ;
#550=ADVANCED_FACE('PartBody',(#549),#508,.F.) ;
#579=ADVANCED_FACE('PartBody',(#578),#125,.F.) ;
#598=ADVANCED_FACE('PartBody',(#597),#585,.T.) ;
#612=ADVANCED_FACE('PartBody',(#611),#603,.F.) ;
#4=APPLICATION_PROTOCOL_DEFINITION('international standard','ap242_managed_model_based_3d_engineering',2014,#1) ;
#45=B_SPLINE_CURVE_WITH_KNOTS('',5,(#46,#47,#48,#49,#50,#51,#52,#53,#54,#55,#56,#57,#58,#59,#60),.UNSPECIFIED.,.F.,.U.,(6,3,3,3,6),(7.28023869386,9.4404514072,10.6550583285,12.0602367717,14.560345543),.UNSPECIFIED.) ;
#91=B_SPLINE_CURVE_WITH_KNOTS('',5,(#92,#93,#94,#95,#96,#97,#98,#99,#100,#101,#102,#103,#104,#105,#106),.UNSPECIFIED.,.F.,.U.,(6,3,3,3,6),(0.,2.05320006849,3.84463560593,6.1665857202,7.28023869386),.UNSPECIFIED.) ;
#126=B_SPLINE_CURVE_WITH_KNOTS('',5,(#127,#128,#129,#130,#131,#132,#133,#134,#135,#136,#137,#138,#139,#140,#141),.UNSPECIFIED.,.F.,.U.,(6,3,3,3,6),(7.28023869386,9.4404514072,10.6550583285,12.0602367717,14.560345543),.UNSPECIFIED.) ;
#187=B_SPLINE_CURVE_WITH_KNOTS('',5,(#188,#189,#190,#191,#192,#193,#194,#195,#196,#197,#198,#199,#200,#201,#202),.UNSPECIFIED.,.F.,.U.,(6,3,3,3,6),(7.28023869386,9.4404514072,10.6550583285,12.0602367717,14.560345543),.UNSPECIFIED.) ;
#344=B_SPLINE_CURVE_WITH_KNOTS('',5,(#345,#346,#347,#348,#349,#350,#351,#352,#353,#354,#355,#356,#357,#358,#359),.UNSPECIFIED.,.F.,.U.,(6,3,3,3,6),(0.,2.05320006849,3.84463560593,6.1665857202,7.28023869386),.UNSPECIFIED.) ;
#406=B_SPLINE_CURVE_WITH_KNOTS('',5,(#407,#408,#409,#410,#411,#412,#413,#414,#415,#416,#417,#418,#419,#420,#421),.UNSPECIFIED.,.F.,.U.,(6,3,3,3,6),(0.,2.05320006849,3.84463560593,6.1665857202,7.28023869386),.UNSPECIFIED.) ;
#551=B_SPLINE_CURVE_WITH_KNOTS('',5,(#552,#553,#554,#555,#556,#557,#558,#559,#560,#561,#562,#563),.UNSPECIFIED.,.F.,.U.,(6,3,3,6),(0.,3.02457118169,4.49099249333,6.34924309979),.UNSPECIFIED.) ;
#22=COLOUR_RGB('Colour',0.2,0.2,0.2) ;
#90=OVER_RIDING_STYLED_ITEM(' ',(#89),#82,#29) ;
#120=OVER_RIDING_STYLED_ITEM(' ',(#89),#119,#29) ;
#231=OVER_RIDING_STYLED_ITEM(' ',(#230),#223,#29) ;
#343=OVER_RIDING_STYLED_ITEM(' ',(#89),#342,#29) ;
#373=OVER_RIDING_STYLED_ITEM(' ',(#89),#372,#29) ;
#405=OVER_RIDING_STYLED_ITEM(' ',(#89),#404,#29) ;
#435=OVER_RIDING_STYLED_ITEM(' ',(#89),#434,#29) ;
#580=OVER_RIDING_STYLED_ITEM(' ',(#230),#579,#29) ;
#83=DRAUGHTING_PRE_DEFINED_COLOUR('yellow') ;
#224=DRAUGHTING_PRE_DEFINED_COLOUR('blue') ;
#81=FACE_OUTER_BOUND('',#76,.T.) ;
#118=FACE_OUTER_BOUND('',#113,.T.) ;
#222=FACE_OUTER_BOUND('',#211,.T.) ;
#270=FACE_OUTER_BOUND('',#265,.T.) ;
#301=FACE_OUTER_BOUND('',#296,.T.) ;
#341=FACE_OUTER_BOUND('',#336,.T.) ;
#371=FACE_OUTER_BOUND('',#366,.T.) ;
#403=FACE_OUTER_BOUND('',#398,.T.) ;
#433=FACE_OUTER_BOUND('',#428,.T.) ;
#466=FACE_OUTER_BOUND('',#460,.T.) ;
#502=FACE_OUTER_BOUND('',#497,.T.) ;
#549=FACE_OUTER_BOUND('',#540,.T.) ;
#578=FACE_OUTER_BOUND('',#565,.T.) ;
#597=FACE_OUTER_BOUND('',#591,.T.) ;
#611=FACE_OUTER_BOUND('',#604,.T.) ;
#9=PRODUCT_CATEGORY_RELATIONSHIP(' ',' ',#7,#8) ;
#6=PRODUCT_DEFINITION_FORMATION_WITH_SPECIFIED_SOURCE('',' ',#5,.NOT_KNOWN.) ;
#20=SHAPE_DEFINITION_REPRESENTATION(#11,#19) ;
#12=(LENGTH_UNIT()NAMED_UNIT(*)SI_UNIT(.MILLI.,.METRE.)) ;
#13=(NAMED_UNIT(*)PLANE_ANGLE_UNIT()SI_UNIT($,.RADIAN.)) ;
#14=(NAMED_UNIT(*)SI_UNIT($,.STERADIAN.)SOLID_ANGLE_UNIT()) ;
#16=(GEOMETRIC_REPRESENTATION_CONTEXT(3)GLOBAL_UNCERTAINTY_ASSIGNED_CONTEXT((#15))GLOBAL_UNIT_ASSIGNED_CONTEXT((#12,#13,#14))REPRESENTATION_CONTEXT(' ',' ')) ;
ENDSEC;
END-ISO-10303-21;
