ISO-10303-21;
HEADER;
FILE_DESCRIPTION(('CATIA V5 STEP Exchange','CAx-IF Rec.Pracs.--- Model Styling and Organization---1.4--- 2014-01-23','CAx-IF Rec.Pracs.---3D Tessellated Data Validation Properties---0.5---2014-09-14'),'2;1');

FILE_NAME('D:\\GrabCAD\\I+D\\SERIE_LEXA\\EKOT-1360-170921A-LEXA_WAIST_SUPPORT\\FAB\\FAB_C\\PDF\\MAQUINADO\\1360.000.001.002.TUBO.stp','2024-10-31T23:43:20+00:00',('none'),('none'),'CATIA Version 5-6 Release 2018 SP6','CATIA V5 STEP AP242','none');

FILE_SCHEMA(('AP242_MANAGED_MODEL_BASED_3D_ENGINEERING_MIM_LF  {1 0 10303 442 1 1 4}'));

ENDSEC;
DATA;
#5=PRODUCT('1360.000.001.002.TUBO','','',(#2)) ;
#2=PRODUCT_CONTEXT(' ',#1,'mechanical') ;
#1=APPLICATION_CONTEXT('managed model based 3d engineering') ;
#10=PRODUCT_DEFINITION('',' ',#6,#3) ;
#3=PRODUCT_DEFINITION_CONTEXT('part definition',#1,' ') ;
#11=PRODUCT_DEFINITION_SHAPE(' ',' ',#10) ;
#461=MECHANICAL_DESIGN_GEOMETRIC_PRESENTATION_REPRESENTATION(' ',(#106,#152,#262,#283,#358,#386,#29),#16) ;
#19=SHAPE_REPRESENTATION(' ',(#18),#16) ;
#7=PRODUCT_CATEGORY('part','specification') ;
#17=CARTESIAN_POINT(' ',(0.,0.,0.)) ;
#31=CARTESIAN_POINT('Axis2P3D Location',(-7.9375,0.,0.)) ;
#36=CARTESIAN_POINT('Line Origine',(-4.59250000004,-1.2295,1.50570323955E-016)) ;
#40=CARTESIAN_POINT('Vertex',(-4.639866131,-1.2295,1.50570323955E-016)) ;
#42=CARTESIAN_POINT('Vertex',(-7.84169981345,-1.2295,1.50570323955E-016)) ;
#46=CARTESIAN_POINT('Control Point',(-4.639866131,-1.2295,2.94811698258E-016)) ;
#47=CARTESIAN_POINT('Control Point',(-4.63987655752,-1.2295,-0.387797493224)) ;
#48=CARTESIAN_POINT('Control Point',(-4.68064368325,-1.07525225825,-0.775310173526)) ;
#49=CARTESIAN_POINT('Control Point',(-4.76126906547,-0.775504633162,-1.07519266585)) ;
#50=CARTESIAN_POINT('Control Point',(-4.79999798732,-0.387887726853,-1.2294999871)) ;
#51=CARTESIAN_POINT('Control Point',(-4.79999988878,-4.08945125137E-008,-1.2295)) ;
#52=CARTESIAN_POINT('Vertex',(-4.8,5.87830463591E-016,-1.22949995834)) ;
#56=CARTESIAN_POINT('Control Point',(-4.79999988878,-4.08945124778E-008,-1.2295)) ;
#57=CARTESIAN_POINT('Control Point',(-4.80000179007,0.387853212003,-1.2295000129)) ;
#58=CARTESIAN_POINT('Control Point',(-4.76124088937,0.775623226946,-1.07508259699)) ;
#59=CARTESIAN_POINT('Control Point',(-4.68070108169,1.07505912971,-0.775525605117)) ;
#60=CARTESIAN_POINT('Control Point',(-4.63986311759,1.2295,-0.387860878593)) ;
#61=CARTESIAN_POINT('Control Point',(-4.63986311759,1.2295,-3.33066907388E-016)) ;
#62=CARTESIAN_POINT('Vertex',(-4.63986311759,1.2295,0.)) ;
#65=CARTESIAN_POINT('Line Origine',(-4.59250000004,1.2295,-3.0114064791E-016)) ;
#69=CARTESIAN_POINT('Vertex',(-7.84169854049,1.2295,0.)) ;
#73=CARTESIAN_POINT('Control Point',(-7.93749969462,-3.3151412393E-008,-1.2295)) ;
#74=CARTESIAN_POINT('Control Point',(-7.93750259444,0.386823379831,-1.22950001043)) ;
#75=CARTESIAN_POINT('Control Point',(-7.91417711728,0.773875683324,-1.07710397494)) ;
#76=CARTESIAN_POINT('Control Point',(-7.86546640423,1.07708494104,-0.773862154937)) ;
#77=CARTESIAN_POINT('Control Point',(-7.84169854049,1.2295,-0.386829335239)) ;
#78=CARTESIAN_POINT('Control Point',(-7.84169854049,1.2295,-1.55431223448E-015)) ;
#79=CARTESIAN_POINT('Vertex',(-7.9375,9.72063396823E-016,-1.22949979756)) ;
#83=CARTESIAN_POINT('Control Point',(-7.84169981345,-1.2295,6.66133814775E-016)) ;
#84=CARTESIAN_POINT('Control Point',(-7.84170539235,-1.2295,-0.386818156365)) ;
#85=CARTESIAN_POINT('Control Point',(-7.86544265222,-1.07717240736,-0.773766885097)) ;
#86=CARTESIAN_POINT('Control Point',(-7.91419643865,-0.773798359424,-1.07716542696)) ;
#87=CARTESIAN_POINT('Control Point',(-7.93749679472,-0.386834238697,-1.22949998957)) ;
#88=CARTESIAN_POINT('Control Point',(-7.93749969462,-3.3151412504E-008,-1.2295)) ;
#108=CARTESIAN_POINT('Control Point',(-4.63986311759,1.2295,1.11022302463E-016)) ;
#109=CARTESIAN_POINT('Control Point',(-4.63986311759,1.2295,0.387887406644)) ;
#110=CARTESIAN_POINT('Control Point',(-4.68067149465,1.0751843808,0.77536884428)) ;
#111=CARTESIAN_POINT('Control Point',(-4.76127428889,0.775574768825,1.07516100582)) ;
#112=CARTESIAN_POINT('Control Point',(-4.79998902408,0.387776805218,1.22949983058)) ;
#113=CARTESIAN_POINT('Control Point',(-4.79999645928,5.37163673875E-007,1.2295)) ;
#114=CARTESIAN_POINT('Vertex',(-4.8,5.87830463591E-016,1.22949889725)) ;
#118=CARTESIAN_POINT('Control Point',(-4.79999645928,5.37163673986E-007,1.2295)) ;
#119=CARTESIAN_POINT('Control Point',(-4.80000389408,-0.38775540256,1.22950016941)) ;
#120=CARTESIAN_POINT('Control Point',(-4.76122603372,-0.775828873436,1.07494742087)) ;
#121=CARTESIAN_POINT('Control Point',(-4.6807119098,-1.07498550361,0.7756805996)) ;
#122=CARTESIAN_POINT('Control Point',(-4.63985570524,-1.2295,0.387769260502)) ;
#123=CARTESIAN_POINT('Control Point',(-4.639866131,-1.2295,9.74434538637E-017)) ;
#126=CARTESIAN_POINT('Control Point',(-7.9374974739,2.6164271064E-008,1.2295)) ;
#127=CARTESIAN_POINT('Control Point',(-7.93750178274,-0.386796293131,1.22950000823)) ;
#128=CARTESIAN_POINT('Control Point',(-7.9141764458,-0.773918850427,1.07707261096)) ;
#129=CARTESIAN_POINT('Control Point',(-7.8654698709,-1.07707892655,0.773891510396)) ;
#130=CARTESIAN_POINT('Control Point',(-7.84169423467,-1.2295,0.386809789087)) ;
#131=CARTESIAN_POINT('Control Point',(-7.84169981345,-1.2295,7.77156117238E-016)) ;
#132=CARTESIAN_POINT('Vertex',(-7.9375,9.72063396823E-016,1.22949843653)) ;
#136=CARTESIAN_POINT('Control Point',(-7.84169854049,1.2295,0.)) ;
#137=CARTESIAN_POINT('Control Point',(-7.84169854049,1.2295,0.386837422989)) ;
#138=CARTESIAN_POINT('Control Point',(-7.86545287446,1.077144531,0.773798222636)) ;
#139=CARTESIAN_POINT('Control Point',(-7.91419692473,0.773837850422,1.07713926416)) ;
#140=CARTESIAN_POINT('Control Point',(-7.93749316499,0.386802007716,1.22949999177)) ;
#141=CARTESIAN_POINT('Control Point',(-7.9374974739,2.61642712904E-008,1.2295)) ;
#153=CARTESIAN_POINT('Axis2P3D Location',(0.,0.,0.)) ;
#158=CARTESIAN_POINT('Line Origine',(-4.8,5.87830463591E-016,0.)) ;
#162=CARTESIAN_POINT('Vertex',(-4.8,5.87830463591E-016,-20.)) ;
#165=CARTESIAN_POINT('Axis2P3D Location',(0.,0.,-20.)) ;
#169=CARTESIAN_POINT('Vertex',(4.8,0.,-20.)) ;
#172=CARTESIAN_POINT('Line Origine',(4.8,0.,0.)) ;
#176=CARTESIAN_POINT('Vertex',(4.8,0.,20.)) ;
#179=CARTESIAN_POINT('Axis2P3D Location',(0.,0.,20.)) ;
#183=CARTESIAN_POINT('Vertex',(-4.8,5.87830463591E-016,20.)) ;
#186=CARTESIAN_POINT('Line Origine',(-4.8,5.87830463591E-016,0.)) ;
#201=CARTESIAN_POINT('Control Point',(3.3235,3.46328568703,2.22044604925E-016)) ;
#202=CARTESIAN_POINT('Control Point',(3.3235,3.46328568703,0.283817077993)) ;
#203=CARTESIAN_POINT('Control Point',(3.2932035754,3.49235928253,0.567633536892)) ;
#204=CARTESIAN_POINT('Control Point',(3.23261880075,3.55052315801,0.842518135082)) ;
#205=CARTESIAN_POINT('Control Point',(3.04013410718,3.7228022611,1.42588437772)) ;
#206=CARTESIAN_POINT('Control Point',(2.73132654834,3.95659551961,1.93522004258)) ;
#207=CARTESIAN_POINT('Control Point',(2.5297771789,4.09152077207,2.19192769583)) ;
#208=CARTESIAN_POINT('Control Point',(1.97228153775,4.40997726646,2.74873784582)) ;
#209=CARTESIAN_POINT('Control Point',(1.25254000427,4.66749478795,3.13343065856)) ;
#210=CARTESIAN_POINT('Control Point',(0.779790382161,4.7760579275,3.28869379109)) ;
#211=CARTESIAN_POINT('Control Point',(-0.0591062841165,4.84481880989,3.38843415627)) ;
#212=CARTESIAN_POINT('Control Point',(-0.873834037696,4.737104825,3.23248081167)) ;
#213=CARTESIAN_POINT('Control Point',(-1.18821280778,4.66626895447,3.1291577171)) ;
#214=CARTESIAN_POINT('Control Point',(-1.75837498336,4.48844618005,2.86222090172)) ;
#215=CARTESIAN_POINT('Control Point',(-2.23828509565,4.25747564623,2.48322245851)) ;
#216=CARTESIAN_POINT('Control Point',(-2.44812925912,4.13818313816,2.27604651014)) ;
#217=CARTESIAN_POINT('Control Point',(-2.86471870432,3.86775608634,1.76496819363)) ;
#218=CARTESIAN_POINT('Control Point',(-3.14998733033,3.62920295104,1.15450321334)) ;
#219=CARTESIAN_POINT('Control Point',(-3.26540454235,3.51903627571,0.786513268045)) ;
#220=CARTESIAN_POINT('Control Point',(-3.32350150296,3.46328424473,0.393010692157)) ;
#221=CARTESIAN_POINT('Control Point',(-3.32349966238,3.46328601103,7.51618387062E-007)) ;
#222=CARTESIAN_POINT('Vertex',(3.3235,3.46328568703,1.11022302463E-016)) ;
#224=CARTESIAN_POINT('Vertex',(-3.3235,3.46328665916,5.18033666159E-016)) ;
#228=CARTESIAN_POINT('Control Point',(-3.32349966238,3.46328601103,7.51618387119E-007)) ;
#229=CARTESIAN_POINT('Control Point',(-3.32349800217,3.46328760423,-0.354495599552)) ;
#230=CARTESIAN_POINT('Control Point',(-3.2762265556,3.5086510643,-0.7085911375)) ;
#231=CARTESIAN_POINT('Control Point',(-3.18216648247,3.59870434285,-1.04525924713)) ;
#232=CARTESIAN_POINT('Control Point',(-2.93863249318,3.80781535419,-1.62827177258)) ;
#233=CARTESIAN_POINT('Control Point',(-2.57743195641,4.05747042035,-2.12675027532)) ;
#234=CARTESIAN_POINT('Control Point',(-2.38683320057,4.1744345963,-2.33885808367)) ;
#235=CARTESIAN_POINT('Control Point',(-1.8345646385,4.4667410986,-2.83557387213)) ;
#236=CARTESIAN_POINT('Control Point',(-1.14142492794,4.69608397558,-3.17503595911)) ;
#237=CARTESIAN_POINT('Control Point',(-0.666298235775,4.79267217452,-3.31248943838)) ;
#238=CARTESIAN_POINT('Control Point',(0.171707830799,4.8413151668,-3.38361649902)) ;
#239=CARTESIAN_POINT('Control Point',(0.974445349421,4.71728213469,-3.20357196286)) ;
#240=CARTESIAN_POINT('Control Point',(1.28503261811,4.64026069244,-3.09058166855)) ;
#241=CARTESIAN_POINT('Control Point',(1.84787218155,4.4519505019,-2.80552268667)) ;
#242=CARTESIAN_POINT('Control Point',(2.31725892693,4.21477393578,-2.41010026671)) ;
#243=CARTESIAN_POINT('Control Point',(2.52211982477,4.09318561247,-2.19437668447)) ;
#244=CARTESIAN_POINT('Control Point',(2.90953443233,3.831775519,-1.68529464621)) ;
#245=CARTESIAN_POINT('Control Point',(3.1711287743,3.60918576463,-1.08407640253)) ;
#246=CARTESIAN_POINT('Control Point',(3.27251831487,3.51220964129,-0.736341553654)) ;
#247=CARTESIAN_POINT('Control Point',(3.3235,3.46328568703,-0.368171297721)) ;
#248=CARTESIAN_POINT('Control Point',(3.3235,3.46328568703,-3.5527136788E-015)) ;
#263=CARTESIAN_POINT('Axis2P3D Location',(0.,0.,20.)) ;
#268=CARTESIAN_POINT('Axis2P3D Location',(0.,0.,-20.)) ;
#284=CARTESIAN_POINT('Axis2P3D Location',(0.,0.,20.)) ;
#289=CARTESIAN_POINT('Axis2P3D Location',(0.,0.,20.)) ;
#293=CARTESIAN_POINT('Vertex',(7.9375,0.,20.)) ;
#295=CARTESIAN_POINT('Vertex',(-7.9375,9.72063396823E-016,20.)) ;
#298=CARTESIAN_POINT('Axis2P3D Location',(0.,0.,20.)) ;
#312=CARTESIAN_POINT('Axis2P3D Location',(0.,7.9375,1.11022302463E-016)) ;
#317=CARTESIAN_POINT('Line Origine',(3.3235,4.59250000004,1.11022302463E-016)) ;
#321=CARTESIAN_POINT('Vertex',(3.3235,7.20820740545,1.11022302463E-016)) ;
#324=CARTESIAN_POINT('Line Origine',(-3.3235,4.59250000004,5.18033666159E-016)) ;
#328=CARTESIAN_POINT('Vertex',(-3.3235,7.2082121296,5.18033666159E-016)) ;
#332=CARTESIAN_POINT('Control Point',(3.3235,7.20820740545,4.4408920985E-016)) ;
#333=CARTESIAN_POINT('Control Point',(3.3235,7.20820740545,0.448833710766)) ;
#334=CARTESIAN_POINT('Control Point',(3.24773209722,7.24314183654,0.897667250183)) ;
#335=CARTESIAN_POINT('Control Point',(3.096329708,7.31306811682,1.32459353075)) ;
#336=CARTESIAN_POINT('Control Point',(2.56056831388,7.5338080897,2.29347686613)) ;
#337=CARTESIAN_POINT('Control Point',(1.67913154387,7.78966849904,2.97985312554)) ;
#338=CARTESIAN_POINT('Control Point',(1.05359729323,7.91180403714,3.26091716812)) ;
#339=CARTESIAN_POINT('Control Point',(0.0153761159084,7.97987810756,3.42559709606)) ;
#340=CARTESIAN_POINT('Control Point',(-0.983324632624,7.88767522032,3.20386113657)) ;
#341=CARTESIAN_POINT('Control Point',(-1.31397780932,7.8379196729,3.08234585706)) ;
#342=CARTESIAN_POINT('Control Point',(-1.89404375005,7.72024947358,2.77878766898)) ;
#343=CARTESIAN_POINT('Control Point',(-2.3798221228,7.57756085181,2.34927073975)) ;
#344=CARTESIAN_POINT('Control Point',(-2.58314709581,7.50923814053,2.12373013072)) ;
#345=CARTESIAN_POINT('Control Point',(-2.95350469454,7.37235416777,1.60528286448)) ;
#346=CARTESIAN_POINT('Control Point',(-3.19384010771,7.2680477749,1.00763044897)) ;
#347=CARTESIAN_POINT('Control Point',(-3.2803246432,7.22810458253,0.677724666022)) ;
#348=CARTESIAN_POINT('Control Point',(-3.3235,7.20820797931,0.338813575095)) ;
#349=CARTESIAN_POINT('Control Point',(-3.3235,7.2082121296,2.01665431608E-015)) ;
#360=CARTESIAN_POINT('Control Point',(-3.3235,7.2082121296,2.03274022962E-015)) ;
#361=CARTESIAN_POINT('Control Point',(-3.3235,7.20821639824,-0.348475355964)) ;
#362=CARTESIAN_POINT('Control Point',(-3.27782711234,7.22927260361,-0.696847555175)) ;
#363=CARTESIAN_POINT('Control Point',(-3.18639541184,7.27148668905,-1.03563416964)) ;
#364=CARTESIAN_POINT('Control Point',(-2.89196094492,7.39878663105,-1.74558041654)) ;
#365=CARTESIAN_POINT('Control Point',(-2.41401801223,7.56992363447,-2.34053323423)) ;
#366=CARTESIAN_POINT('Control Point',(-2.10297977693,7.66596511163,-2.62401985351)) ;
#367=CARTESIAN_POINT('Control Point',(-1.45511636585,7.82367280814,-3.05047692388)) ;
#368=CARTESIAN_POINT('Control Point',(-0.705710374503,7.91773796524,-3.27712536718)) ;
#369=CARTESIAN_POINT('Control Point',(-0.349026908558,7.94223884154,-3.33444151368)) ;
#370=CARTESIAN_POINT('Control Point',(0.367177806624,7.94857333545,-3.35060924847)) ;
#371=CARTESIAN_POINT('Control Point',(1.05904454307,7.87774661596,-3.17964960649)) ;
#372=CARTESIAN_POINT('Control Point',(1.38677245886,7.82517474193,-3.05029158864)) ;
#373=CARTESIAN_POINT('Control Point',(2.23908603426,7.64417330741,-2.57820844484)) ;
#374=CARTESIAN_POINT('Control Point',(2.87669955828,7.41398381126,-1.83135552079)) ;
#375=CARTESIAN_POINT('Control Point',(3.17363815679,7.27730445107,-1.26246180902)) ;
#376=CARTESIAN_POINT('Control Point',(3.3235,7.20820740545,-0.631231073965)) ;
#377=CARTESIAN_POINT('Control Point',(3.3235,7.20820740545,-6.66133814775E-016)) ;
#387=CARTESIAN_POINT('Axis2P3D Location',(0.,0.,-20.)) ;
#392=CARTESIAN_POINT('Axis2P3D Location',(0.,0.,-20.)) ;
#396=CARTESIAN_POINT('Vertex',(-7.9375,9.72063396823E-016,-20.)) ;
#398=CARTESIAN_POINT('Vertex',(7.9375,0.,-20.)) ;
#401=CARTESIAN_POINT('Axis2P3D Location',(0.,0.,-20.)) ;
#415=CARTESIAN_POINT('Axis2P3D Location',(0.,0.,0.)) ;
#420=CARTESIAN_POINT('Line Origine',(-7.9375,9.72063396823E-016,0.)) ;
#425=CARTESIAN_POINT('Line Origine',(7.9375,0.,0.)) ;
#430=CARTESIAN_POINT('Line Origine',(-7.9375,9.72063396823E-016,0.)) ;
#8=PRODUCT_RELATED_PRODUCT_CATEGORY('part',$,(#5)) ;
#29=STYLED_ITEM(' ',(#28),#21) ;
#28=PRESENTATION_STYLE_ASSIGNMENT((#27)) ;
#105=PRESENTATION_STYLE_ASSIGNMENT((#104)) ;
#261=PRESENTATION_STYLE_ASSIGNMENT((#260)) ;
#27=SURFACE_STYLE_USAGE(.BOTH.,#26) ;
#104=SURFACE_STYLE_USAGE(.BOTH.,#103) ;
#260=SURFACE_STYLE_USAGE(.BOTH.,#259) ;
#26=SURFACE_SIDE_STYLE(' ',(#25)) ;
#103=SURFACE_SIDE_STYLE(' ',(#102)) ;
#259=SURFACE_SIDE_STYLE(' ',(#258)) ;
#25=SURFACE_STYLE_FILL_AREA(#24) ;
#102=SURFACE_STYLE_FILL_AREA(#101) ;
#258=SURFACE_STYLE_FILL_AREA(#257) ;
#24=FILL_AREA_STYLE(' ',(#23)) ;
#101=FILL_AREA_STYLE(' ',(#100)) ;
#257=FILL_AREA_STYLE(' ',(#256)) ;
#23=FILL_AREA_STYLE_COLOUR(' ',#22) ;
#100=FILL_AREA_STYLE_COLOUR(' ',#99) ;
#256=FILL_AREA_STYLE_COLOUR(' ',#255) ;
#38=VECTOR('Line Direction',#37,1.) ;
#67=VECTOR('Line Direction',#66,1.) ;
#160=VECTOR('Line Direction',#159,1.) ;
#174=VECTOR('Line Direction',#173,1.) ;
#188=VECTOR('Line Direction',#187,1.) ;
#319=VECTOR('Line Direction',#318,1.) ;
#326=VECTOR('Line Direction',#325,1.) ;
#422=VECTOR('Line Direction',#421,1.) ;
#427=VECTOR('Line Direction',#426,1.) ;
#432=VECTOR('Line Direction',#431,1.) ;
#32=DIRECTION('Axis2P3D Direction',(1.,0.,0.)) ;
#33=DIRECTION('Axis2P3D XDirection',(0.,1.,0.)) ;
#37=DIRECTION('Vector Direction',(1.,0.,0.)) ;
#66=DIRECTION('Vector Direction',(1.,0.,0.)) ;
#154=DIRECTION('Axis2P3D Direction',(0.,0.,1.)) ;
#155=DIRECTION('Axis2P3D XDirection',(1.,0.,0.)) ;
#159=DIRECTION('Vector Direction',(0.,0.,1.)) ;
#166=DIRECTION('Axis2P3D Direction',(0.,0.,1.)) ;
#173=DIRECTION('Vector Direction',(0.,0.,1.)) ;
#180=DIRECTION('Axis2P3D Direction',(0.,0.,1.)) ;
#187=DIRECTION('Vector Direction',(0.,0.,1.)) ;
#264=DIRECTION('Axis2P3D Direction',(0.,0.,1.)) ;
#269=DIRECTION('Axis2P3D Direction',(0.,0.,1.)) ;
#285=DIRECTION('Axis2P3D Direction',(0.,0.,1.)) ;
#286=DIRECTION('Axis2P3D XDirection',(1.,0.,0.)) ;
#290=DIRECTION('Axis2P3D Direction',(0.,0.,1.)) ;
#299=DIRECTION('Axis2P3D Direction',(0.,0.,1.)) ;
#313=DIRECTION('Axis2P3D Direction',(0.,-1.,-0.)) ;
#314=DIRECTION('Axis2P3D XDirection',(1.,0.,0.)) ;
#318=DIRECTION('Vector Direction',(0.,-1.,0.)) ;
#325=DIRECTION('Vector Direction',(0.,-1.,0.)) ;
#388=DIRECTION('Axis2P3D Direction',(0.,0.,1.)) ;
#389=DIRECTION('Axis2P3D XDirection',(1.,0.,0.)) ;
#393=DIRECTION('Axis2P3D Direction',(0.,0.,1.)) ;
#402=DIRECTION('Axis2P3D Direction',(0.,0.,1.)) ;
#416=DIRECTION('Axis2P3D Direction',(0.,0.,1.)) ;
#417=DIRECTION('Axis2P3D XDirection',(1.,0.,0.)) ;
#421=DIRECTION('Vector Direction',(0.,0.,1.)) ;
#426=DIRECTION('Vector Direction',(0.,0.,1.)) ;
#431=DIRECTION('Vector Direction',(0.,0.,1.)) ;
#15=UNCERTAINTY_MEASURE_WITH_UNIT(LENGTH_MEASURE(0.005),#12,'distance_accuracy_value','CONFUSED CURVE UNCERTAINTY') ;
#18=AXIS2_PLACEMENT_3D(' ',#17,$,$) ;
#34=AXIS2_PLACEMENT_3D('Cylinder Axis2P3D',#31,#32,#33) ;
#156=AXIS2_PLACEMENT_3D('Cylinder Axis2P3D',#153,#154,#155) ;
#167=AXIS2_PLACEMENT_3D('Circle Axis2P3D',#165,#166,$) ;
#181=AXIS2_PLACEMENT_3D('Circle Axis2P3D',#179,#180,$) ;
#265=AXIS2_PLACEMENT_3D('Circle Axis2P3D',#263,#264,$) ;
#270=AXIS2_PLACEMENT_3D('Circle Axis2P3D',#268,#269,$) ;
#287=AXIS2_PLACEMENT_3D('Plane Axis2P3D',#284,#285,#286) ;
#291=AXIS2_PLACEMENT_3D('Circle Axis2P3D',#289,#290,$) ;
#300=AXIS2_PLACEMENT_3D('Circle Axis2P3D',#298,#299,$) ;
#315=AXIS2_PLACEMENT_3D('Cylinder Axis2P3D',#312,#313,#314) ;
#390=AXIS2_PLACEMENT_3D('Plane Axis2P3D',#387,#388,#389) ;
#394=AXIS2_PLACEMENT_3D('Circle Axis2P3D',#392,#393,$) ;
#403=AXIS2_PLACEMENT_3D('Circle Axis2P3D',#401,#402,$) ;
#418=AXIS2_PLACEMENT_3D('Cylinder Axis2P3D',#415,#416,#417) ;
#39=LINE('Line',#36,#38) ;
#68=LINE('Line',#65,#67) ;
#161=LINE('Line',#158,#160) ;
#175=LINE('Line',#172,#174) ;
#189=LINE('Line',#186,#188) ;
#320=LINE('Line',#317,#319) ;
#327=LINE('Line',#324,#326) ;
#423=LINE('Line',#420,#422) ;
#428=LINE('Line',#425,#427) ;
#433=LINE('Line',#430,#432) ;
#168=CIRCLE('generated circle',#167,4.8) ;
#182=CIRCLE('generated circle',#181,4.8) ;
#266=CIRCLE('generated circle',#265,4.8) ;
#271=CIRCLE('generated circle',#270,4.8) ;
#292=CIRCLE('generated circle',#291,7.9375) ;
#301=CIRCLE('generated circle',#300,7.9375) ;
#395=CIRCLE('generated circle',#394,7.9375) ;
#404=CIRCLE('generated circle',#403,7.9375) ;
#288=PLANE('',#287) ;
#391=PLANE('',#390) ;
#35=CYLINDRICAL_SURFACE('generated cylinder',#34,1.2295) ;
#157=CYLINDRICAL_SURFACE('generated cylinder',#156,4.8) ;
#316=CYLINDRICAL_SURFACE('generated cylinder',#315,3.3235) ;
#419=CYLINDRICAL_SURFACE('generated cylinder',#418,7.9375) ;
#253=FACE_BOUND('',#250,.T.) ;
#310=FACE_BOUND('',#307,.T.) ;
#413=FACE_BOUND('',#410,.T.) ;
#447=FACE_BOUND('',#444,.T.) ;
#44=EDGE_CURVE('',#41,#43,#39,.F.) ;
#54=EDGE_CURVE('',#41,#53,#45,.T.) ;
#64=EDGE_CURVE('',#53,#63,#55,.T.) ;
#71=EDGE_CURVE('',#63,#70,#68,.F.) ;
#81=EDGE_CURVE('',#80,#70,#72,.T.) ;
#89=EDGE_CURVE('',#43,#80,#82,.T.) ;
#116=EDGE_CURVE('',#63,#115,#107,.T.) ;
#124=EDGE_CURVE('',#115,#41,#117,.T.) ;
#134=EDGE_CURVE('',#133,#43,#125,.T.) ;
#142=EDGE_CURVE('',#70,#133,#135,.T.) ;
#164=EDGE_CURVE('',#163,#53,#161,.T.) ;
#171=EDGE_CURVE('',#170,#163,#168,.T.) ;
#178=EDGE_CURVE('',#170,#177,#175,.T.) ;
#185=EDGE_CURVE('',#177,#184,#182,.T.) ;
#190=EDGE_CURVE('',#115,#184,#189,.T.) ;
#226=EDGE_CURVE('',#223,#225,#200,.T.) ;
#249=EDGE_CURVE('',#225,#223,#227,.T.) ;
#267=EDGE_CURVE('',#184,#177,#266,.T.) ;
#272=EDGE_CURVE('',#163,#170,#271,.T.) ;
#297=EDGE_CURVE('',#294,#296,#292,.T.) ;
#302=EDGE_CURVE('',#296,#294,#301,.T.) ;
#323=EDGE_CURVE('',#223,#322,#320,.F.) ;
#330=EDGE_CURVE('',#225,#329,#327,.F.) ;
#350=EDGE_CURVE('',#322,#329,#331,.T.) ;
#378=EDGE_CURVE('',#329,#322,#359,.T.) ;
#400=EDGE_CURVE('',#397,#399,#395,.T.) ;
#405=EDGE_CURVE('',#399,#397,#404,.T.) ;
#424=EDGE_CURVE('',#133,#296,#423,.T.) ;
#429=EDGE_CURVE('',#399,#294,#428,.T.) ;
#434=EDGE_CURVE('',#397,#80,#433,.T.) ;
#30=CLOSED_SHELL('Closed Shell',(#98,#151,#254,#282,#311,#357,#385,#414,#448,#458)) ;
#460=SHAPE_REPRESENTATION_RELATIONSHIP(' ',' ',#19,#459) ;
#90=EDGE_LOOP('',(#91,#92,#93,#94,#95,#96)) ;
#143=EDGE_LOOP('',(#144,#145,#146,#147,#148,#149)) ;
#191=EDGE_LOOP('',(#192,#193,#194,#195,#196,#197,#198)) ;
#250=EDGE_LOOP('',(#251,#252)) ;
#273=EDGE_LOOP('',(#274,#275,#276,#277,#278,#279,#280)) ;
#303=EDGE_LOOP('',(#304,#305)) ;
#307=EDGE_LOOP('',(#308,#309)) ;
#351=EDGE_LOOP('',(#352,#353,#354,#355)) ;
#379=EDGE_LOOP('',(#380,#381,#382,#383)) ;
#406=EDGE_LOOP('',(#407,#408)) ;
#410=EDGE_LOOP('',(#411,#412)) ;
#435=EDGE_LOOP('',(#436,#437,#438,#439,#440,#441,#442)) ;
#444=EDGE_LOOP('',(#445,#446)) ;
#449=EDGE_LOOP('',(#450,#451,#452,#453,#454,#455,#456)) ;
#91=ORIENTED_EDGE('',*,*,#44,.F.) ;
#92=ORIENTED_EDGE('',*,*,#54,.T.) ;
#93=ORIENTED_EDGE('',*,*,#64,.T.) ;
#94=ORIENTED_EDGE('',*,*,#71,.T.) ;
#95=ORIENTED_EDGE('',*,*,#81,.F.) ;
#96=ORIENTED_EDGE('',*,*,#89,.F.) ;
#144=ORIENTED_EDGE('',*,*,#71,.F.) ;
#145=ORIENTED_EDGE('',*,*,#116,.T.) ;
#146=ORIENTED_EDGE('',*,*,#124,.T.) ;
#147=ORIENTED_EDGE('',*,*,#44,.T.) ;
#148=ORIENTED_EDGE('',*,*,#134,.F.) ;
#149=ORIENTED_EDGE('',*,*,#142,.F.) ;
#192=ORIENTED_EDGE('',*,*,#116,.F.) ;
#193=ORIENTED_EDGE('',*,*,#64,.F.) ;
#194=ORIENTED_EDGE('',*,*,#164,.F.) ;
#195=ORIENTED_EDGE('',*,*,#171,.F.) ;
#196=ORIENTED_EDGE('',*,*,#178,.T.) ;
#197=ORIENTED_EDGE('',*,*,#185,.T.) ;
#198=ORIENTED_EDGE('',*,*,#190,.F.) ;
#251=ORIENTED_EDGE('',*,*,#226,.F.) ;
#252=ORIENTED_EDGE('',*,*,#249,.F.) ;
#274=ORIENTED_EDGE('',*,*,#54,.F.) ;
#275=ORIENTED_EDGE('',*,*,#124,.F.) ;
#276=ORIENTED_EDGE('',*,*,#190,.T.) ;
#277=ORIENTED_EDGE('',*,*,#267,.T.) ;
#278=ORIENTED_EDGE('',*,*,#178,.F.) ;
#279=ORIENTED_EDGE('',*,*,#272,.F.) ;
#280=ORIENTED_EDGE('',*,*,#164,.T.) ;
#304=ORIENTED_EDGE('',*,*,#297,.T.) ;
#305=ORIENTED_EDGE('',*,*,#302,.T.) ;
#308=ORIENTED_EDGE('',*,*,#267,.F.) ;
#309=ORIENTED_EDGE('',*,*,#185,.F.) ;
#352=ORIENTED_EDGE('',*,*,#323,.F.) ;
#353=ORIENTED_EDGE('',*,*,#226,.T.) ;
#354=ORIENTED_EDGE('',*,*,#330,.T.) ;
#355=ORIENTED_EDGE('',*,*,#350,.F.) ;
#380=ORIENTED_EDGE('',*,*,#330,.F.) ;
#381=ORIENTED_EDGE('',*,*,#249,.T.) ;
#382=ORIENTED_EDGE('',*,*,#323,.T.) ;
#383=ORIENTED_EDGE('',*,*,#378,.F.) ;
#407=ORIENTED_EDGE('',*,*,#400,.F.) ;
#408=ORIENTED_EDGE('',*,*,#405,.F.) ;
#411=ORIENTED_EDGE('',*,*,#171,.T.) ;
#412=ORIENTED_EDGE('',*,*,#272,.T.) ;
#436=ORIENTED_EDGE('',*,*,#424,.T.) ;
#437=ORIENTED_EDGE('',*,*,#297,.F.) ;
#438=ORIENTED_EDGE('',*,*,#429,.F.) ;
#439=ORIENTED_EDGE('',*,*,#405,.T.) ;
#440=ORIENTED_EDGE('',*,*,#434,.T.) ;
#441=ORIENTED_EDGE('',*,*,#81,.T.) ;
#442=ORIENTED_EDGE('',*,*,#142,.T.) ;
#445=ORIENTED_EDGE('',*,*,#378,.T.) ;
#446=ORIENTED_EDGE('',*,*,#350,.T.) ;
#450=ORIENTED_EDGE('',*,*,#434,.F.) ;
#451=ORIENTED_EDGE('',*,*,#400,.T.) ;
#452=ORIENTED_EDGE('',*,*,#429,.T.) ;
#453=ORIENTED_EDGE('',*,*,#302,.F.) ;
#454=ORIENTED_EDGE('',*,*,#424,.F.) ;
#455=ORIENTED_EDGE('',*,*,#134,.T.) ;
#456=ORIENTED_EDGE('',*,*,#89,.T.) ;
#21=MANIFOLD_SOLID_BREP('PartBody',#30) ;
#41=VERTEX_POINT('',#40) ;
#43=VERTEX_POINT('',#42) ;
#53=VERTEX_POINT('',#52) ;
#63=VERTEX_POINT('',#62) ;
#70=VERTEX_POINT('',#69) ;
#80=VERTEX_POINT('',#79) ;
#115=VERTEX_POINT('',#114) ;
#133=VERTEX_POINT('',#132) ;
#163=VERTEX_POINT('',#162) ;
#170=VERTEX_POINT('',#169) ;
#177=VERTEX_POINT('',#176) ;
#184=VERTEX_POINT('',#183) ;
#223=VERTEX_POINT('',#222) ;
#225=VERTEX_POINT('',#224) ;
#294=VERTEX_POINT('',#293) ;
#296=VERTEX_POINT('',#295) ;
#322=VERTEX_POINT('',#321) ;
#329=VERTEX_POINT('',#328) ;
#397=VERTEX_POINT('',#396) ;
#399=VERTEX_POINT('',#398) ;
#459=ADVANCED_BREP_SHAPE_REPRESENTATION('NONE',(#21),#16) ;
#98=ADVANCED_FACE('PartBody',(#97),#35,.F.) ;
#151=ADVANCED_FACE('PartBody',(#150),#35,.F.) ;
#254=ADVANCED_FACE('PartBody',(#199,#253),#157,.F.) ;
#282=ADVANCED_FACE('PartBody',(#281),#157,.F.) ;
#311=ADVANCED_FACE('PartBody',(#306,#310),#288,.T.) ;
#357=ADVANCED_FACE('PartBody',(#356),#316,.F.) ;
#385=ADVANCED_FACE('PartBody',(#384),#316,.F.) ;
#414=ADVANCED_FACE('PartBody',(#409,#413),#391,.F.) ;
#448=ADVANCED_FACE('PartBody',(#443,#447),#419,.T.) ;
#458=ADVANCED_FACE('PartBody',(#457),#419,.T.) ;
#4=APPLICATION_PROTOCOL_DEFINITION('international standard','ap242_managed_model_based_3d_engineering',2014,#1) ;
#45=B_SPLINE_CURVE_WITH_KNOTS('',5,(#46,#47,#48,#49,#50,#51),.UNSPECIFIED.,.F.,.U.,(6,6),(5.48541252729,8.22824658469),.UNSPECIFIED.) ;
#55=B_SPLINE_CURVE_WITH_KNOTS('',5,(#56,#57,#58,#59,#60,#61),.UNSPECIFIED.,.F.,.U.,(6,6),(8.22824658469,10.9708371588),.UNSPECIFIED.) ;
#72=B_SPLINE_CURVE_WITH_KNOTS('',5,(#73,#74,#75,#76,#77,#78),.UNSPECIFIED.,.F.,.U.,(6,6),(8.20604003559,10.9413364967),.UNSPECIFIED.) ;
#82=B_SPLINE_CURVE_WITH_KNOTS('',5,(#83,#84,#85,#86,#87,#88),.UNSPECIFIED.,.F.,.U.,(6,6),(5.47066725838,8.20604003559),.UNSPECIFIED.) ;
#107=B_SPLINE_CURVE_WITH_KNOTS('',5,(#108,#109,#110,#111,#112,#113),.UNSPECIFIED.,.F.,.U.,(6,6),(0.,2.74277815575),.UNSPECIFIED.) ;
#117=B_SPLINE_CURVE_WITH_KNOTS('',5,(#118,#119,#120,#121,#122,#123),.UNSPECIFIED.,.F.,.U.,(6,6),(2.74277815575,5.48541252729),.UNSPECIFIED.) ;
#125=B_SPLINE_CURVE_WITH_KNOTS('',5,(#126,#127,#128,#129,#130,#131),.UNSPECIFIED.,.F.,.U.,(6,6),(2.73535365012,5.47066725838),.UNSPECIFIED.) ;
#135=B_SPLINE_CURVE_WITH_KNOTS('',5,(#136,#137,#138,#139,#140,#141),.UNSPECIFIED.,.F.,.U.,(6,6),(0.,2.73535365012),.UNSPECIFIED.) ;
#200=B_SPLINE_CURVE_WITH_KNOTS('',5,(#201,#202,#203,#204,#205,#206,#207,#208,#209,#210,#211,#212,#213,#214,#215,#216,#217,#218,#219,#220,#221),.UNSPECIFIED.,.F.,.U.,(6,3,3,3,3,3,6),(0.,2.00688980465,4.48599761592,7.97326040212,10.3335854212,12.5653427353,15.3450584896),.UNSPECIFIED.) ;
#227=B_SPLINE_CURVE_WITH_KNOTS('',5,(#228,#229,#230,#231,#232,#233,#234,#235,#236,#237,#238,#239,#240,#241,#242,#243,#244,#245,#246,#247,#248),.UNSPECIFIED.,.F.,.U.,(6,3,3,3,3,3,6),(15.3450584896,17.8523718945,20.0163410407,23.464649193,25.8326289978,28.0873797444,30.690743957),.UNSPECIFIED.) ;
#331=B_SPLINE_CURVE_WITH_KNOTS('',5,(#332,#333,#334,#335,#336,#337,#338,#339,#340,#341,#342,#343,#344,#345,#346,#347,#348,#349),.UNSPECIFIED.,.F.,.U.,(6,3,3,3,3,6),(0.,3.17373360508,7.88027260218,10.3640166542,12.545440533,14.9421489871),.UNSPECIFIED.) ;
#359=B_SPLINE_CURVE_WITH_KNOTS('',5,(#360,#361,#362,#363,#364,#365,#366,#367,#368,#369,#370,#371,#372,#373,#374,#375,#376,#377),.UNSPECIFIED.,.F.,.U.,(6,3,3,3,3,6),(14.9421489871,17.407203203,20.4055817903,22.9320358155,25.4190416907,29.8825194197),.UNSPECIFIED.) ;
#22=COLOUR_RGB('Colour',0.2,0.2,0.2) ;
#99=COLOUR_RGB('Colour',1.,0.882352941176,0.) ;
#106=OVER_RIDING_STYLED_ITEM(' ',(#105),#98,#29) ;
#152=OVER_RIDING_STYLED_ITEM(' ',(#105),#151,#29) ;
#262=OVER_RIDING_STYLED_ITEM(' ',(#261),#254,#29) ;
#283=OVER_RIDING_STYLED_ITEM(' ',(#261),#282,#29) ;
#358=OVER_RIDING_STYLED_ITEM(' ',(#105),#357,#29) ;
#386=OVER_RIDING_STYLED_ITEM(' ',(#105),#385,#29) ;
#255=DRAUGHTING_PRE_DEFINED_COLOUR('blue') ;
#97=FACE_OUTER_BOUND('',#90,.T.) ;
#150=FACE_OUTER_BOUND('',#143,.T.) ;
#199=FACE_OUTER_BOUND('',#191,.T.) ;
#281=FACE_OUTER_BOUND('',#273,.T.) ;
#306=FACE_OUTER_BOUND('',#303,.T.) ;
#356=FACE_OUTER_BOUND('',#351,.T.) ;
#384=FACE_OUTER_BOUND('',#379,.T.) ;
#409=FACE_OUTER_BOUND('',#406,.T.) ;
#443=FACE_OUTER_BOUND('',#435,.T.) ;
#457=FACE_OUTER_BOUND('',#449,.T.) ;
#9=PRODUCT_CATEGORY_RELATIONSHIP(' ',' ',#7,#8) ;
#6=PRODUCT_DEFINITION_FORMATION_WITH_SPECIFIED_SOURCE('',' ',#5,.NOT_KNOWN.) ;
#20=SHAPE_DEFINITION_REPRESENTATION(#11,#19) ;
#12=(LENGTH_UNIT()NAMED_UNIT(*)SI_UNIT(.MILLI.,.METRE.)) ;
#13=(NAMED_UNIT(*)PLANE_ANGLE_UNIT()SI_UNIT($,.RADIAN.)) ;
#14=(NAMED_UNIT(*)SI_UNIT($,.STERADIAN.)SOLID_ANGLE_UNIT()) ;
#16=(GEOMETRIC_REPRESENTATION_CONTEXT(3)GLOBAL_UNCERTAINTY_ASSIGNED_CONTEXT((#15))GLOBAL_UNIT_ASSIGNED_CONTEXT((#12,#13,#14))REPRESENTATION_CONTEXT(' ',' ')) ;
ENDSEC;
END-ISO-10303-21;
