ISO-10303-21;
HEADER;
FILE_DESCRIPTION(('CATIA V5 STEP Exchange','CAx-IF Rec.Pracs.--- Model Styling and Organization---1.4--- 2014-01-23','CAx-IF Rec.Pracs.---3D Tessellated Data Validation Properties---0.5---2014-09-14'),'2;1');

FILE_NAME('D:\\GrabCAD\\I+D\\SERIE_LEXA\\EKOT-1360-170921A-LEXA_WAIST_SUPPORT\\FAB\\FAB_C\\PDF\\MAQUINADO\\1360.000.012.000.ARANDELA.stp','2024-11-01T00:03:03+00:00',('none'),('none'),'CATIA Version 5-6 Release 2018 SP6','CATIA V5 STEP AP242','none');

FILE_SCHEMA(('AP242_MANAGED_MODEL_BASED_3D_ENGINEERING_MIM_LF  {1 0 10303 442 1 1 4}'));

ENDSEC;
DATA;
#5=PRODUCT('1360.000.012.000.ARANDELA','','',(#2)) ;
#2=PRODUCT_CONTEXT(' ',#1,'mechanical') ;
#1=APPLICATION_CONTEXT('managed model based 3d engineering') ;
#10=PRODUCT_DEFINITION('',' ',#6,#3) ;
#3=PRODUCT_DEFINITION_CONTEXT('part definition',#1,' ') ;
#11=PRODUCT_DEFINITION_SHAPE(' ',' ',#10) ;
#540=MECHANICAL_DESIGN_GEOMETRIC_PRESENTATION_REPRESENTATION(' ',(#78,#191,#204,#305,#377,#400,#408,#431,#444,#467,#475,#498,#506,#529,#537,#29),#16) ;
#19=SHAPE_REPRESENTATION(' ',(#18),#16) ;
#7=PRODUCT_CATEGORY('part','specification') ;
#17=CARTESIAN_POINT(' ',(0.,0.,0.)) ;
#31=CARTESIAN_POINT('Axis2P3D Location',(8.,8.881784197E-016,-1.75)) ;
#36=CARTESIAN_POINT('Line Origine',(6.25,1.10249160955E-015,3.09499999999)) ;
#40=CARTESIAN_POINT('Vertex',(6.25,1.10249160955E-015,0.75)) ;
#42=CARTESIAN_POINT('Vertex',(6.25,1.10249160955E-015,-1.75)) ;
#45=CARTESIAN_POINT('Axis2P3D Location',(8.,8.881784197E-016,0.75)) ;
#49=CARTESIAN_POINT('Vertex',(9.75,8.881784197E-016,0.75)) ;
#52=CARTESIAN_POINT('Line Origine',(9.75,4.59552039999E-016,3.09499999999)) ;
#56=CARTESIAN_POINT('Vertex',(9.75,8.881784197E-016,-1.75)) ;
#59=CARTESIAN_POINT('Axis2P3D Location',(8.,8.881784197E-016,-1.75)) ;
#79=CARTESIAN_POINT('Axis2P3D Location',(0.,0.,-1.75)) ;
#84=CARTESIAN_POINT('Axis2P3D Location',(0.,0.,-1.75)) ;
#88=CARTESIAN_POINT('Vertex',(-14.,3.5527136788E-015,-1.75)) ;
#90=CARTESIAN_POINT('Vertex',(14.,8.881784197E-016,-1.75)) ;
#93=CARTESIAN_POINT('Axis2P3D Location',(0.,0.,-1.75)) ;
#102=CARTESIAN_POINT('Axis2P3D Location',(8.,8.881784197E-016,-1.75)) ;
#111=CARTESIAN_POINT('Axis2P3D Location',(0.,0.,-1.75)) ;
#115=CARTESIAN_POINT('Vertex',(-5.5,-3.11604639371E-015,-1.75)) ;
#117=CARTESIAN_POINT('Vertex',(5.5,-1.34711147906E-015,-1.75)) ;
#120=CARTESIAN_POINT('Axis2P3D Location',(0.,0.,-1.75)) ;
#129=CARTESIAN_POINT('Axis2P3D Location',(1.37803713936E-015,-8.,-1.75)) ;
#133=CARTESIAN_POINT('Vertex',(1.09661567567E-015,-9.75,-1.75)) ;
#135=CARTESIAN_POINT('Vertex',(1.05656735458E-015,-6.25,-1.75)) ;
#138=CARTESIAN_POINT('Axis2P3D Location',(1.37803713936E-015,-8.,-1.75)) ;
#147=CARTESIAN_POINT('Axis2P3D Location',(-8.,-1.86789585902E-015,-1.75)) ;
#151=CARTESIAN_POINT('Vertex',(-9.75,-2.08220904887E-015,-1.75)) ;
#153=CARTESIAN_POINT('Vertex',(-6.25,-1.43926947932E-015,-1.75)) ;
#156=CARTESIAN_POINT('Axis2P3D Location',(-8.,-1.86789585902E-015,-1.75)) ;
#165=CARTESIAN_POINT('Axis2P3D Location',(-2.35775457868E-015,8.,-1.75)) ;
#169=CARTESIAN_POINT('Vertex',(-2.67922436345E-015,9.75,-1.75)) ;
#171=CARTESIAN_POINT('Vertex',(-2.67659369575E-016,6.25,-1.75)) ;
#174=CARTESIAN_POINT('Axis2P3D Location',(-2.35775457868E-015,8.,-1.75)) ;
#192=CARTESIAN_POINT('Axis2P3D Location',(8.,8.881784197E-016,0.75)) ;
#205=CARTESIAN_POINT('Axis2P3D Location',(0.,0.,0.75)) ;
#210=CARTESIAN_POINT('Axis2P3D Location',(0.,0.,0.75)) ;
#214=CARTESIAN_POINT('Vertex',(37.5,0.,0.75)) ;
#216=CARTESIAN_POINT('Vertex',(-37.5,4.5924254968E-015,0.75)) ;
#219=CARTESIAN_POINT('Axis2P3D Location',(0.,0.,0.75)) ;
#232=CARTESIAN_POINT('Axis2P3D Location',(0.,0.,0.75)) ;
#236=CARTESIAN_POINT('Vertex',(-5.5,-3.11604639371E-015,0.75)) ;
#238=CARTESIAN_POINT('Vertex',(5.5,6.23209278741E-015,0.75)) ;
#241=CARTESIAN_POINT('Axis2P3D Location',(0.,0.,0.75)) ;
#250=CARTESIAN_POINT('Axis2P3D Location',(1.37803713936E-015,-8.,0.75)) ;
#254=CARTESIAN_POINT('Vertex',(3.46813234846E-015,-6.25,0.75)) ;
#256=CARTESIAN_POINT('Vertex',(1.05656735458E-015,-9.75,0.75)) ;
#259=CARTESIAN_POINT('Axis2P3D Location',(1.37803713936E-015,-8.,0.75)) ;
#268=CARTESIAN_POINT('Axis2P3D Location',(-8.,-1.86789585902E-015,0.75)) ;
#272=CARTESIAN_POINT('Vertex',(-6.25,-2.29652223872E-015,0.75)) ;
#274=CARTESIAN_POINT('Vertex',(-9.75,-1.65358266917E-015,0.75)) ;
#277=CARTESIAN_POINT('Axis2P3D Location',(-8.,-1.86789585902E-015,0.75)) ;
#286=CARTESIAN_POINT('Axis2P3D Location',(-2.35775457868E-015,8.,0.75)) ;
#290=CARTESIAN_POINT('Vertex',(-2.67922436345E-015,6.25,0.75)) ;
#292=CARTESIAN_POINT('Vertex',(-2.63917604237E-015,9.75,0.75)) ;
#295=CARTESIAN_POINT('Axis2P3D Location',(-2.35775457868E-015,8.,0.75)) ;
#306=CARTESIAN_POINT('Axis2P3D Location',(0.,0.,0.)) ;
#311=CARTESIAN_POINT('Line Origine',(37.5,0.,0.)) ;
#315=CARTESIAN_POINT('Vertex',(37.5,0.,-0.75)) ;
#318=CARTESIAN_POINT('Axis2P3D Location',(0.,0.,-0.75)) ;
#322=CARTESIAN_POINT('Vertex',(-37.5,4.5924254968E-015,-0.75)) ;
#325=CARTESIAN_POINT('Line Origine',(-37.5,4.5924254968E-015,0.)) ;
#337=CARTESIAN_POINT('Axis2P3D Location',(0.,0.,-0.75)) ;
#349=CARTESIAN_POINT('Axis2P3D Location',(0.,0.,-0.75)) ;
#358=CARTESIAN_POINT('Axis2P3D Location',(7.77921497622E-016,-3.19069364259E-016,-0.75)) ;
#362=CARTESIAN_POINT('Vertex',(15.,-1.73156860572E-014,-0.75)) ;
#364=CARTESIAN_POINT('Vertex',(-15.,1.51790083446E-015,-0.75)) ;
#367=CARTESIAN_POINT('Axis2P3D Location',(7.77921497622E-016,-3.19069364259E-016,-0.75)) ;
#378=CARTESIAN_POINT('Axis2P3D Location',(0.,0.,-1.25)) ;
#383=CARTESIAN_POINT('Line Origine',(-5.5,-3.11604639371E-015,-1.25)) ;
#388=CARTESIAN_POINT('Line Origine',(5.5,0.,-1.25)) ;
#409=CARTESIAN_POINT('Axis2P3D Location',(-1.7763568394E-015,-7.9936057773E-015,-1.75)) ;
#414=CARTESIAN_POINT('Axis2P3D Location',(-15.,4.49640324973E-015,-1.75)) ;
#419=CARTESIAN_POINT('Axis2P3D Location',(15.,1.99840144433E-015,-1.75)) ;
#432=CARTESIAN_POINT('Axis2P3D Location',(-3.5527136788E-015,1.7763568394E-015,-1.75)) ;
#445=CARTESIAN_POINT('Axis2P3D Location',(1.37803713936E-015,-8.,-1.75)) ;
#450=CARTESIAN_POINT('Line Origine',(1.48519373428E-015,-6.25,3.09499999999)) ;
#455=CARTESIAN_POINT('Line Origine',(1.05656735458E-015,-9.75,3.09499999999)) ;
#476=CARTESIAN_POINT('Axis2P3D Location',(-8.,-1.86789585902E-015,-1.75)) ;
#481=CARTESIAN_POINT('Line Origine',(-6.25,-1.86789585902E-015,3.09499999999)) ;
#486=CARTESIAN_POINT('Line Origine',(-9.75,-1.65358266917E-015,3.09499999999)) ;
#507=CARTESIAN_POINT('Axis2P3D Location',(-2.35775457868E-015,8.,-1.75)) ;
#512=CARTESIAN_POINT('Line Origine',(-2.25059798375E-015,6.25,3.09499999999)) ;
#517=CARTESIAN_POINT('Line Origine',(-2.25059798375E-015,9.75,3.09499999999)) ;
#8=PRODUCT_RELATED_PRODUCT_CATEGORY('part',$,(#5)) ;
#29=STYLED_ITEM(' ',(#28),#21) ;
#28=PRESENTATION_STYLE_ASSIGNMENT((#27)) ;
#77=PRESENTATION_STYLE_ASSIGNMENT((#76)) ;
#190=PRESENTATION_STYLE_ASSIGNMENT((#189)) ;
#27=SURFACE_STYLE_USAGE(.BOTH.,#26) ;
#76=SURFACE_STYLE_USAGE(.BOTH.,#75) ;
#189=SURFACE_STYLE_USAGE(.BOTH.,#188) ;
#26=SURFACE_SIDE_STYLE(' ',(#25)) ;
#75=SURFACE_SIDE_STYLE(' ',(#74)) ;
#188=SURFACE_SIDE_STYLE(' ',(#187)) ;
#25=SURFACE_STYLE_FILL_AREA(#24) ;
#74=SURFACE_STYLE_FILL_AREA(#73) ;
#187=SURFACE_STYLE_FILL_AREA(#186) ;
#24=FILL_AREA_STYLE(' ',(#23)) ;
#73=FILL_AREA_STYLE(' ',(#72)) ;
#186=FILL_AREA_STYLE(' ',(#185)) ;
#23=FILL_AREA_STYLE_COLOUR(' ',#22) ;
#72=FILL_AREA_STYLE_COLOUR(' ',#71) ;
#185=FILL_AREA_STYLE_COLOUR(' ',#184) ;
#38=VECTOR('Line Direction',#37,1.) ;
#54=VECTOR('Line Direction',#53,1.) ;
#313=VECTOR('Line Direction',#312,1.) ;
#327=VECTOR('Line Direction',#326,1.) ;
#385=VECTOR('Line Direction',#384,1.) ;
#390=VECTOR('Line Direction',#389,1.) ;
#452=VECTOR('Line Direction',#451,1.) ;
#457=VECTOR('Line Direction',#456,1.) ;
#483=VECTOR('Line Direction',#482,1.) ;
#488=VECTOR('Line Direction',#487,1.) ;
#514=VECTOR('Line Direction',#513,1.) ;
#519=VECTOR('Line Direction',#518,1.) ;
#32=DIRECTION('Axis2P3D Direction',(0.,-0.,1.)) ;
#33=DIRECTION('Axis2P3D XDirection',(1.,0.,0.)) ;
#37=DIRECTION('Vector Direction',(0.,0.,1.)) ;
#46=DIRECTION('Axis2P3D Direction',(0.,-0.,1.)) ;
#53=DIRECTION('Vector Direction',(0.,0.,1.)) ;
#60=DIRECTION('Axis2P3D Direction',(0.,-0.,1.)) ;
#80=DIRECTION('Axis2P3D Direction',(0.,0.,-1.)) ;
#81=DIRECTION('Axis2P3D XDirection',(1.,0.,0.)) ;
#85=DIRECTION('Axis2P3D Direction',(0.,0.,-1.)) ;
#94=DIRECTION('Axis2P3D Direction',(0.,0.,-1.)) ;
#103=DIRECTION('Axis2P3D Direction',(0.,0.,-1.)) ;
#112=DIRECTION('Axis2P3D Direction',(0.,0.,-1.)) ;
#121=DIRECTION('Axis2P3D Direction',(0.,0.,-1.)) ;
#130=DIRECTION('Axis2P3D Direction',(0.,0.,-1.)) ;
#139=DIRECTION('Axis2P3D Direction',(0.,0.,-1.)) ;
#148=DIRECTION('Axis2P3D Direction',(0.,0.,-1.)) ;
#157=DIRECTION('Axis2P3D Direction',(0.,0.,-1.)) ;
#166=DIRECTION('Axis2P3D Direction',(0.,0.,-1.)) ;
#175=DIRECTION('Axis2P3D Direction',(0.,0.,-1.)) ;
#193=DIRECTION('Axis2P3D Direction',(0.,-0.,1.)) ;
#206=DIRECTION('Axis2P3D Direction',(0.,0.,1.)) ;
#207=DIRECTION('Axis2P3D XDirection',(1.,0.,0.)) ;
#211=DIRECTION('Axis2P3D Direction',(0.,0.,1.)) ;
#220=DIRECTION('Axis2P3D Direction',(0.,0.,1.)) ;
#233=DIRECTION('Axis2P3D Direction',(0.,0.,1.)) ;
#242=DIRECTION('Axis2P3D Direction',(0.,0.,1.)) ;
#251=DIRECTION('Axis2P3D Direction',(0.,0.,1.)) ;
#260=DIRECTION('Axis2P3D Direction',(0.,0.,1.)) ;
#269=DIRECTION('Axis2P3D Direction',(0.,0.,1.)) ;
#278=DIRECTION('Axis2P3D Direction',(0.,0.,1.)) ;
#287=DIRECTION('Axis2P3D Direction',(0.,0.,1.)) ;
#296=DIRECTION('Axis2P3D Direction',(0.,0.,1.)) ;
#307=DIRECTION('Axis2P3D Direction',(0.,0.,1.)) ;
#308=DIRECTION('Axis2P3D XDirection',(1.,0.,0.)) ;
#312=DIRECTION('Vector Direction',(0.,0.,1.)) ;
#319=DIRECTION('Axis2P3D Direction',(0.,0.,1.)) ;
#326=DIRECTION('Vector Direction',(0.,0.,1.)) ;
#338=DIRECTION('Axis2P3D Direction',(0.,0.,1.)) ;
#350=DIRECTION('Axis2P3D Direction',(0.,0.,1.)) ;
#351=DIRECTION('Axis2P3D XDirection',(1.,0.,0.)) ;
#359=DIRECTION('Axis2P3D Direction',(0.,0.,1.)) ;
#368=DIRECTION('Axis2P3D Direction',(0.,0.,1.)) ;
#379=DIRECTION('Axis2P3D Direction',(0.,0.,-1.)) ;
#380=DIRECTION('Axis2P3D XDirection',(1.,-2.44929359829E-016,0.)) ;
#384=DIRECTION('Vector Direction',(0.,0.,-1.)) ;
#389=DIRECTION('Vector Direction',(0.,0.,-1.)) ;
#410=DIRECTION('Axis2P3D Direction',(-0.,0.,1.)) ;
#411=DIRECTION('Axis2P3D XDirection',(1.,6.51330841113E-016,0.)) ;
#415=DIRECTION('Axis2P3D Direction',(8.32667268469E-016,1.,0.)) ;
#420=DIRECTION('Axis2P3D Direction',(6.66133814775E-016,-1.,0.)) ;
#433=DIRECTION('Axis2P3D Direction',(0.,-0.,1.)) ;
#434=DIRECTION('Axis2P3D XDirection',(-1.,1.18423789293E-016,0.)) ;
#446=DIRECTION('Axis2P3D Direction',(-0.,0.,1.)) ;
#447=DIRECTION('Axis2P3D XDirection',(6.12323399574E-017,-1.,0.)) ;
#451=DIRECTION('Vector Direction',(0.,0.,1.)) ;
#456=DIRECTION('Vector Direction',(0.,0.,1.)) ;
#477=DIRECTION('Axis2P3D Direction',(0.,0.,1.)) ;
#478=DIRECTION('Axis2P3D XDirection',(-1.,-1.22464679915E-016,0.)) ;
#482=DIRECTION('Vector Direction',(0.,0.,1.)) ;
#487=DIRECTION('Vector Direction',(0.,0.,1.)) ;
#508=DIRECTION('Axis2P3D Direction',(0.,0.,1.)) ;
#509=DIRECTION('Axis2P3D XDirection',(-1.83697019872E-016,1.,0.)) ;
#513=DIRECTION('Vector Direction',(0.,0.,1.)) ;
#518=DIRECTION('Vector Direction',(0.,0.,1.)) ;
#15=UNCERTAINTY_MEASURE_WITH_UNIT(LENGTH_MEASURE(0.005),#12,'distance_accuracy_value','CONFUSED CURVE UNCERTAINTY') ;
#18=AXIS2_PLACEMENT_3D(' ',#17,$,$) ;
#34=AXIS2_PLACEMENT_3D('Cylinder Axis2P3D',#31,#32,#33) ;
#47=AXIS2_PLACEMENT_3D('Circle Axis2P3D',#45,#46,$) ;
#61=AXIS2_PLACEMENT_3D('Circle Axis2P3D',#59,#60,$) ;
#82=AXIS2_PLACEMENT_3D('Plane Axis2P3D',#79,#80,#81) ;
#86=AXIS2_PLACEMENT_3D('Circle Axis2P3D',#84,#85,$) ;
#95=AXIS2_PLACEMENT_3D('Circle Axis2P3D',#93,#94,$) ;
#104=AXIS2_PLACEMENT_3D('Circle Axis2P3D',#102,#103,$) ;
#113=AXIS2_PLACEMENT_3D('Circle Axis2P3D',#111,#112,$) ;
#122=AXIS2_PLACEMENT_3D('Circle Axis2P3D',#120,#121,$) ;
#131=AXIS2_PLACEMENT_3D('Circle Axis2P3D',#129,#130,$) ;
#140=AXIS2_PLACEMENT_3D('Circle Axis2P3D',#138,#139,$) ;
#149=AXIS2_PLACEMENT_3D('Circle Axis2P3D',#147,#148,$) ;
#158=AXIS2_PLACEMENT_3D('Circle Axis2P3D',#156,#157,$) ;
#167=AXIS2_PLACEMENT_3D('Circle Axis2P3D',#165,#166,$) ;
#176=AXIS2_PLACEMENT_3D('Circle Axis2P3D',#174,#175,$) ;
#194=AXIS2_PLACEMENT_3D('Circle Axis2P3D',#192,#193,$) ;
#208=AXIS2_PLACEMENT_3D('Plane Axis2P3D',#205,#206,#207) ;
#212=AXIS2_PLACEMENT_3D('Circle Axis2P3D',#210,#211,$) ;
#221=AXIS2_PLACEMENT_3D('Circle Axis2P3D',#219,#220,$) ;
#234=AXIS2_PLACEMENT_3D('Circle Axis2P3D',#232,#233,$) ;
#243=AXIS2_PLACEMENT_3D('Circle Axis2P3D',#241,#242,$) ;
#252=AXIS2_PLACEMENT_3D('Circle Axis2P3D',#250,#251,$) ;
#261=AXIS2_PLACEMENT_3D('Circle Axis2P3D',#259,#260,$) ;
#270=AXIS2_PLACEMENT_3D('Circle Axis2P3D',#268,#269,$) ;
#279=AXIS2_PLACEMENT_3D('Circle Axis2P3D',#277,#278,$) ;
#288=AXIS2_PLACEMENT_3D('Circle Axis2P3D',#286,#287,$) ;
#297=AXIS2_PLACEMENT_3D('Circle Axis2P3D',#295,#296,$) ;
#309=AXIS2_PLACEMENT_3D('Cylinder Axis2P3D',#306,#307,#308) ;
#320=AXIS2_PLACEMENT_3D('Circle Axis2P3D',#318,#319,$) ;
#339=AXIS2_PLACEMENT_3D('Circle Axis2P3D',#337,#338,$) ;
#352=AXIS2_PLACEMENT_3D('Plane Axis2P3D',#349,#350,#351) ;
#360=AXIS2_PLACEMENT_3D('Circle Axis2P3D',#358,#359,$) ;
#369=AXIS2_PLACEMENT_3D('Circle Axis2P3D',#367,#368,$) ;
#381=AXIS2_PLACEMENT_3D('Cylinder Axis2P3D',#378,#379,#380) ;
#412=AXIS2_PLACEMENT_3D('Torus Axis2P3D',#409,#410,#411) ;
#416=AXIS2_PLACEMENT_3D('Circle Axis2P3D',#414,#415,$) ;
#421=AXIS2_PLACEMENT_3D('Circle Axis2P3D',#419,#420,$) ;
#435=AXIS2_PLACEMENT_3D('Torus Axis2P3D',#432,#433,#434) ;
#448=AXIS2_PLACEMENT_3D('Cylinder Axis2P3D',#445,#446,#447) ;
#479=AXIS2_PLACEMENT_3D('Cylinder Axis2P3D',#476,#477,#478) ;
#510=AXIS2_PLACEMENT_3D('Cylinder Axis2P3D',#507,#508,#509) ;
#39=LINE('Line',#36,#38) ;
#55=LINE('Line',#52,#54) ;
#314=LINE('Line',#311,#313) ;
#328=LINE('Line',#325,#327) ;
#386=LINE('Line',#383,#385) ;
#391=LINE('Line',#388,#390) ;
#453=LINE('Line',#450,#452) ;
#458=LINE('Line',#455,#457) ;
#484=LINE('Line',#481,#483) ;
#489=LINE('Line',#486,#488) ;
#515=LINE('Line',#512,#514) ;
#520=LINE('Line',#517,#519) ;
#48=CIRCLE('generated circle',#47,1.75) ;
#62=CIRCLE('generated circle',#61,1.75) ;
#87=CIRCLE('generated circle',#86,14.) ;
#96=CIRCLE('generated circle',#95,14.) ;
#105=CIRCLE('generated circle',#104,1.75) ;
#114=CIRCLE('generated circle',#113,5.5) ;
#123=CIRCLE('generated circle',#122,5.5) ;
#132=CIRCLE('generated circle',#131,1.75) ;
#141=CIRCLE('generated circle',#140,1.75) ;
#150=CIRCLE('generated circle',#149,1.75) ;
#159=CIRCLE('generated circle',#158,1.75) ;
#168=CIRCLE('generated circle',#167,1.75) ;
#177=CIRCLE('generated circle',#176,1.75) ;
#195=CIRCLE('generated circle',#194,1.75) ;
#213=CIRCLE('generated circle',#212,37.5) ;
#222=CIRCLE('generated circle',#221,37.5) ;
#235=CIRCLE('generated circle',#234,5.5) ;
#244=CIRCLE('generated circle',#243,5.5) ;
#253=CIRCLE('generated circle',#252,1.75) ;
#262=CIRCLE('generated circle',#261,1.75) ;
#271=CIRCLE('generated circle',#270,1.75) ;
#280=CIRCLE('generated circle',#279,1.75) ;
#289=CIRCLE('generated circle',#288,1.75) ;
#298=CIRCLE('generated circle',#297,1.75) ;
#321=CIRCLE('generated circle',#320,37.5) ;
#340=CIRCLE('generated circle',#339,37.5) ;
#361=CIRCLE('generated circle',#360,15.) ;
#370=CIRCLE('generated circle',#369,15.) ;
#417=CIRCLE('generated circle',#416,1.) ;
#422=CIRCLE('generated circle',#421,1.) ;
#83=PLANE('',#82) ;
#209=PLANE('',#208) ;
#353=PLANE('',#352) ;
#35=CYLINDRICAL_SURFACE('generated cylinder',#34,1.75) ;
#310=CYLINDRICAL_SURFACE('generated cylinder',#309,37.5) ;
#382=CYLINDRICAL_SURFACE('generated cylinder',#381,5.5) ;
#449=CYLINDRICAL_SURFACE('generated cylinder',#448,1.75) ;
#480=CYLINDRICAL_SURFACE('generated cylinder',#479,1.75) ;
#511=CYLINDRICAL_SURFACE('generated cylinder',#510,1.75) ;
#413=TOROIDAL_SURFACE('homeo Torus',#412,15.,1.) ;
#436=TOROIDAL_SURFACE('homeo Torus',#435,15.,1.) ;
#110=FACE_BOUND('',#107,.T.) ;
#128=FACE_BOUND('',#125,.T.) ;
#146=FACE_BOUND('',#143,.T.) ;
#164=FACE_BOUND('',#161,.T.) ;
#182=FACE_BOUND('',#179,.T.) ;
#231=FACE_BOUND('',#228,.T.) ;
#249=FACE_BOUND('',#246,.T.) ;
#267=FACE_BOUND('',#264,.T.) ;
#285=FACE_BOUND('',#282,.T.) ;
#303=FACE_BOUND('',#300,.T.) ;
#375=FACE_BOUND('',#372,.T.) ;
#44=EDGE_CURVE('',#41,#43,#39,.F.) ;
#51=EDGE_CURVE('',#41,#50,#48,.T.) ;
#58=EDGE_CURVE('',#50,#57,#55,.F.) ;
#63=EDGE_CURVE('',#57,#43,#62,.F.) ;
#92=EDGE_CURVE('',#89,#91,#87,.F.) ;
#97=EDGE_CURVE('',#91,#89,#96,.F.) ;
#106=EDGE_CURVE('',#43,#57,#105,.T.) ;
#119=EDGE_CURVE('',#116,#118,#114,.T.) ;
#124=EDGE_CURVE('',#118,#116,#123,.T.) ;
#137=EDGE_CURVE('',#134,#136,#132,.T.) ;
#142=EDGE_CURVE('',#136,#134,#141,.T.) ;
#155=EDGE_CURVE('',#152,#154,#150,.T.) ;
#160=EDGE_CURVE('',#154,#152,#159,.T.) ;
#173=EDGE_CURVE('',#170,#172,#168,.T.) ;
#178=EDGE_CURVE('',#172,#170,#177,.T.) ;
#196=EDGE_CURVE('',#50,#41,#195,.T.) ;
#218=EDGE_CURVE('',#215,#217,#213,.T.) ;
#223=EDGE_CURVE('',#217,#215,#222,.T.) ;
#240=EDGE_CURVE('',#237,#239,#235,.T.) ;
#245=EDGE_CURVE('',#239,#237,#244,.T.) ;
#258=EDGE_CURVE('',#255,#257,#253,.T.) ;
#263=EDGE_CURVE('',#257,#255,#262,.T.) ;
#276=EDGE_CURVE('',#273,#275,#271,.T.) ;
#281=EDGE_CURVE('',#275,#273,#280,.T.) ;
#294=EDGE_CURVE('',#291,#293,#289,.T.) ;
#299=EDGE_CURVE('',#293,#291,#298,.T.) ;
#317=EDGE_CURVE('',#316,#215,#314,.T.) ;
#324=EDGE_CURVE('',#316,#323,#321,.T.) ;
#329=EDGE_CURVE('',#323,#217,#328,.T.) ;
#341=EDGE_CURVE('',#323,#316,#340,.T.) ;
#366=EDGE_CURVE('',#363,#365,#361,.T.) ;
#371=EDGE_CURVE('',#365,#363,#370,.T.) ;
#387=EDGE_CURVE('',#116,#237,#386,.F.) ;
#392=EDGE_CURVE('',#118,#239,#391,.F.) ;
#418=EDGE_CURVE('',#89,#365,#417,.F.) ;
#423=EDGE_CURVE('',#91,#363,#422,.F.) ;
#454=EDGE_CURVE('',#255,#136,#453,.F.) ;
#459=EDGE_CURVE('',#257,#134,#458,.F.) ;
#485=EDGE_CURVE('',#273,#154,#484,.F.) ;
#490=EDGE_CURVE('',#275,#152,#489,.F.) ;
#516=EDGE_CURVE('',#291,#172,#515,.F.) ;
#521=EDGE_CURVE('',#293,#170,#520,.F.) ;
#30=CLOSED_SHELL('Closed Shell',(#70,#183,#203,#304,#336,#348,#376,#399,#407,#430,#443,#466,#474,#497,#505,#528,#536)) ;
#539=SHAPE_REPRESENTATION_RELATIONSHIP(' ',' ',#19,#538) ;
#64=EDGE_LOOP('',(#65,#66,#67,#68)) ;
#98=EDGE_LOOP('',(#99,#100)) ;
#107=EDGE_LOOP('',(#108,#109)) ;
#125=EDGE_LOOP('',(#126,#127)) ;
#143=EDGE_LOOP('',(#144,#145)) ;
#161=EDGE_LOOP('',(#162,#163)) ;
#179=EDGE_LOOP('',(#180,#181)) ;
#197=EDGE_LOOP('',(#198,#199,#200,#201)) ;
#224=EDGE_LOOP('',(#225,#226)) ;
#228=EDGE_LOOP('',(#229,#230)) ;
#246=EDGE_LOOP('',(#247,#248)) ;
#264=EDGE_LOOP('',(#265,#266)) ;
#282=EDGE_LOOP('',(#283,#284)) ;
#300=EDGE_LOOP('',(#301,#302)) ;
#330=EDGE_LOOP('',(#331,#332,#333,#334)) ;
#342=EDGE_LOOP('',(#343,#344,#345,#346)) ;
#354=EDGE_LOOP('',(#355,#356)) ;
#372=EDGE_LOOP('',(#373,#374)) ;
#393=EDGE_LOOP('',(#394,#395,#396,#397)) ;
#401=EDGE_LOOP('',(#402,#403,#404,#405)) ;
#424=EDGE_LOOP('',(#425,#426,#427,#428)) ;
#437=EDGE_LOOP('',(#438,#439,#440,#441)) ;
#460=EDGE_LOOP('',(#461,#462,#463,#464)) ;
#468=EDGE_LOOP('',(#469,#470,#471,#472)) ;
#491=EDGE_LOOP('',(#492,#493,#494,#495)) ;
#499=EDGE_LOOP('',(#500,#501,#502,#503)) ;
#522=EDGE_LOOP('',(#523,#524,#525,#526)) ;
#530=EDGE_LOOP('',(#531,#532,#533,#534)) ;
#65=ORIENTED_EDGE('',*,*,#44,.F.) ;
#66=ORIENTED_EDGE('',*,*,#51,.T.) ;
#67=ORIENTED_EDGE('',*,*,#58,.T.) ;
#68=ORIENTED_EDGE('',*,*,#63,.T.) ;
#99=ORIENTED_EDGE('',*,*,#92,.F.) ;
#100=ORIENTED_EDGE('',*,*,#97,.F.) ;
#108=ORIENTED_EDGE('',*,*,#106,.F.) ;
#109=ORIENTED_EDGE('',*,*,#63,.F.) ;
#126=ORIENTED_EDGE('',*,*,#119,.F.) ;
#127=ORIENTED_EDGE('',*,*,#124,.F.) ;
#144=ORIENTED_EDGE('',*,*,#137,.F.) ;
#145=ORIENTED_EDGE('',*,*,#142,.F.) ;
#162=ORIENTED_EDGE('',*,*,#155,.F.) ;
#163=ORIENTED_EDGE('',*,*,#160,.F.) ;
#180=ORIENTED_EDGE('',*,*,#173,.F.) ;
#181=ORIENTED_EDGE('',*,*,#178,.F.) ;
#198=ORIENTED_EDGE('',*,*,#58,.F.) ;
#199=ORIENTED_EDGE('',*,*,#196,.T.) ;
#200=ORIENTED_EDGE('',*,*,#44,.T.) ;
#201=ORIENTED_EDGE('',*,*,#106,.T.) ;
#225=ORIENTED_EDGE('',*,*,#218,.T.) ;
#226=ORIENTED_EDGE('',*,*,#223,.T.) ;
#229=ORIENTED_EDGE('',*,*,#196,.F.) ;
#230=ORIENTED_EDGE('',*,*,#51,.F.) ;
#247=ORIENTED_EDGE('',*,*,#240,.F.) ;
#248=ORIENTED_EDGE('',*,*,#245,.F.) ;
#265=ORIENTED_EDGE('',*,*,#258,.F.) ;
#266=ORIENTED_EDGE('',*,*,#263,.F.) ;
#283=ORIENTED_EDGE('',*,*,#276,.F.) ;
#284=ORIENTED_EDGE('',*,*,#281,.F.) ;
#301=ORIENTED_EDGE('',*,*,#294,.F.) ;
#302=ORIENTED_EDGE('',*,*,#299,.F.) ;
#331=ORIENTED_EDGE('',*,*,#317,.F.) ;
#332=ORIENTED_EDGE('',*,*,#324,.T.) ;
#333=ORIENTED_EDGE('',*,*,#329,.T.) ;
#334=ORIENTED_EDGE('',*,*,#218,.F.) ;
#343=ORIENTED_EDGE('',*,*,#329,.F.) ;
#344=ORIENTED_EDGE('',*,*,#341,.T.) ;
#345=ORIENTED_EDGE('',*,*,#317,.T.) ;
#346=ORIENTED_EDGE('',*,*,#223,.F.) ;
#355=ORIENTED_EDGE('',*,*,#341,.F.) ;
#356=ORIENTED_EDGE('',*,*,#324,.F.) ;
#373=ORIENTED_EDGE('',*,*,#366,.T.) ;
#374=ORIENTED_EDGE('',*,*,#371,.T.) ;
#394=ORIENTED_EDGE('',*,*,#124,.T.) ;
#395=ORIENTED_EDGE('',*,*,#387,.T.) ;
#396=ORIENTED_EDGE('',*,*,#240,.T.) ;
#397=ORIENTED_EDGE('',*,*,#392,.F.) ;
#402=ORIENTED_EDGE('',*,*,#119,.T.) ;
#403=ORIENTED_EDGE('',*,*,#392,.T.) ;
#404=ORIENTED_EDGE('',*,*,#245,.T.) ;
#405=ORIENTED_EDGE('',*,*,#387,.F.) ;
#425=ORIENTED_EDGE('',*,*,#97,.T.) ;
#426=ORIENTED_EDGE('',*,*,#418,.T.) ;
#427=ORIENTED_EDGE('',*,*,#366,.F.) ;
#428=ORIENTED_EDGE('',*,*,#423,.F.) ;
#438=ORIENTED_EDGE('',*,*,#92,.T.) ;
#439=ORIENTED_EDGE('',*,*,#423,.T.) ;
#440=ORIENTED_EDGE('',*,*,#371,.F.) ;
#441=ORIENTED_EDGE('',*,*,#418,.F.) ;
#461=ORIENTED_EDGE('',*,*,#454,.F.) ;
#462=ORIENTED_EDGE('',*,*,#258,.T.) ;
#463=ORIENTED_EDGE('',*,*,#459,.T.) ;
#464=ORIENTED_EDGE('',*,*,#137,.T.) ;
#469=ORIENTED_EDGE('',*,*,#459,.F.) ;
#470=ORIENTED_EDGE('',*,*,#263,.T.) ;
#471=ORIENTED_EDGE('',*,*,#454,.T.) ;
#472=ORIENTED_EDGE('',*,*,#142,.T.) ;
#492=ORIENTED_EDGE('',*,*,#485,.F.) ;
#493=ORIENTED_EDGE('',*,*,#276,.T.) ;
#494=ORIENTED_EDGE('',*,*,#490,.T.) ;
#495=ORIENTED_EDGE('',*,*,#155,.T.) ;
#500=ORIENTED_EDGE('',*,*,#490,.F.) ;
#501=ORIENTED_EDGE('',*,*,#281,.T.) ;
#502=ORIENTED_EDGE('',*,*,#485,.T.) ;
#503=ORIENTED_EDGE('',*,*,#160,.T.) ;
#523=ORIENTED_EDGE('',*,*,#516,.F.) ;
#524=ORIENTED_EDGE('',*,*,#294,.T.) ;
#525=ORIENTED_EDGE('',*,*,#521,.T.) ;
#526=ORIENTED_EDGE('',*,*,#173,.T.) ;
#531=ORIENTED_EDGE('',*,*,#521,.F.) ;
#532=ORIENTED_EDGE('',*,*,#299,.T.) ;
#533=ORIENTED_EDGE('',*,*,#516,.T.) ;
#534=ORIENTED_EDGE('',*,*,#178,.T.) ;
#21=MANIFOLD_SOLID_BREP('PartBody',#30) ;
#41=VERTEX_POINT('',#40) ;
#43=VERTEX_POINT('',#42) ;
#50=VERTEX_POINT('',#49) ;
#57=VERTEX_POINT('',#56) ;
#89=VERTEX_POINT('',#88) ;
#91=VERTEX_POINT('',#90) ;
#116=VERTEX_POINT('',#115) ;
#118=VERTEX_POINT('',#117) ;
#134=VERTEX_POINT('',#133) ;
#136=VERTEX_POINT('',#135) ;
#152=VERTEX_POINT('',#151) ;
#154=VERTEX_POINT('',#153) ;
#170=VERTEX_POINT('',#169) ;
#172=VERTEX_POINT('',#171) ;
#215=VERTEX_POINT('',#214) ;
#217=VERTEX_POINT('',#216) ;
#237=VERTEX_POINT('',#236) ;
#239=VERTEX_POINT('',#238) ;
#255=VERTEX_POINT('',#254) ;
#257=VERTEX_POINT('',#256) ;
#273=VERTEX_POINT('',#272) ;
#275=VERTEX_POINT('',#274) ;
#291=VERTEX_POINT('',#290) ;
#293=VERTEX_POINT('',#292) ;
#316=VERTEX_POINT('',#315) ;
#323=VERTEX_POINT('',#322) ;
#363=VERTEX_POINT('',#362) ;
#365=VERTEX_POINT('',#364) ;
#538=ADVANCED_BREP_SHAPE_REPRESENTATION('NONE',(#21),#16) ;
#70=ADVANCED_FACE('PartBody',(#69),#35,.F.) ;
#183=ADVANCED_FACE('PartBody',(#101,#110,#128,#146,#164,#182),#83,.T.) ;
#203=ADVANCED_FACE('PartBody',(#202),#35,.F.) ;
#304=ADVANCED_FACE('PartBody',(#227,#231,#249,#267,#285,#303),#209,.T.) ;
#336=ADVANCED_FACE('PartBody',(#335),#310,.T.) ;
#348=ADVANCED_FACE('PartBody',(#347),#310,.T.) ;
#376=ADVANCED_FACE('PartBody',(#357,#375),#353,.F.) ;
#399=ADVANCED_FACE('PartBody',(#398),#382,.F.) ;
#407=ADVANCED_FACE('PartBody',(#406),#382,.F.) ;
#430=ADVANCED_FACE('PartBody',(#429),#413,.F.) ;
#443=ADVANCED_FACE('PartBody',(#442),#436,.F.) ;
#466=ADVANCED_FACE('PartBody',(#465),#449,.F.) ;
#474=ADVANCED_FACE('PartBody',(#473),#449,.F.) ;
#497=ADVANCED_FACE('PartBody',(#496),#480,.F.) ;
#505=ADVANCED_FACE('PartBody',(#504),#480,.F.) ;
#528=ADVANCED_FACE('PartBody',(#527),#511,.F.) ;
#536=ADVANCED_FACE('PartBody',(#535),#511,.F.) ;
#4=APPLICATION_PROTOCOL_DEFINITION('international standard','ap242_managed_model_based_3d_engineering',2014,#1) ;
#22=COLOUR_RGB('Colour',0.823529411765,0.823529411765,1.) ;
#71=COLOUR_RGB('Colour',0.,0.686274509804,0.686274509804) ;
#184=COLOUR_RGB('Colour',0.372549019608,0.,0.) ;
#78=OVER_RIDING_STYLED_ITEM(' ',(#77),#70,#29) ;
#191=OVER_RIDING_STYLED_ITEM(' ',(#190),#183,#29) ;
#204=OVER_RIDING_STYLED_ITEM(' ',(#77),#203,#29) ;
#305=OVER_RIDING_STYLED_ITEM(' ',(#190),#304,#29) ;
#377=OVER_RIDING_STYLED_ITEM(' ',(#190),#376,#29) ;
#400=OVER_RIDING_STYLED_ITEM(' ',(#77),#399,#29) ;
#408=OVER_RIDING_STYLED_ITEM(' ',(#77),#407,#29) ;
#431=OVER_RIDING_STYLED_ITEM(' ',(#190),#430,#29) ;
#444=OVER_RIDING_STYLED_ITEM(' ',(#190),#443,#29) ;
#467=OVER_RIDING_STYLED_ITEM(' ',(#77),#466,#29) ;
#475=OVER_RIDING_STYLED_ITEM(' ',(#77),#474,#29) ;
#498=OVER_RIDING_STYLED_ITEM(' ',(#77),#497,#29) ;
#506=OVER_RIDING_STYLED_ITEM(' ',(#77),#505,#29) ;
#529=OVER_RIDING_STYLED_ITEM(' ',(#77),#528,#29) ;
#537=OVER_RIDING_STYLED_ITEM(' ',(#77),#536,#29) ;
#69=FACE_OUTER_BOUND('',#64,.T.) ;
#101=FACE_OUTER_BOUND('',#98,.T.) ;
#202=FACE_OUTER_BOUND('',#197,.T.) ;
#227=FACE_OUTER_BOUND('',#224,.T.) ;
#335=FACE_OUTER_BOUND('',#330,.T.) ;
#347=FACE_OUTER_BOUND('',#342,.T.) ;
#357=FACE_OUTER_BOUND('',#354,.T.) ;
#398=FACE_OUTER_BOUND('',#393,.T.) ;
#406=FACE_OUTER_BOUND('',#401,.T.) ;
#429=FACE_OUTER_BOUND('',#424,.T.) ;
#442=FACE_OUTER_BOUND('',#437,.T.) ;
#465=FACE_OUTER_BOUND('',#460,.T.) ;
#473=FACE_OUTER_BOUND('',#468,.T.) ;
#496=FACE_OUTER_BOUND('',#491,.T.) ;
#504=FACE_OUTER_BOUND('',#499,.T.) ;
#527=FACE_OUTER_BOUND('',#522,.T.) ;
#535=FACE_OUTER_BOUND('',#530,.T.) ;
#9=PRODUCT_CATEGORY_RELATIONSHIP(' ',' ',#7,#8) ;
#6=PRODUCT_DEFINITION_FORMATION_WITH_SPECIFIED_SOURCE('',' ',#5,.NOT_KNOWN.) ;
#20=SHAPE_DEFINITION_REPRESENTATION(#11,#19) ;
#12=(LENGTH_UNIT()NAMED_UNIT(*)SI_UNIT(.MILLI.,.METRE.)) ;
#13=(NAMED_UNIT(*)PLANE_ANGLE_UNIT()SI_UNIT($,.RADIAN.)) ;
#14=(NAMED_UNIT(*)SI_UNIT($,.STERADIAN.)SOLID_ANGLE_UNIT()) ;
#16=(GEOMETRIC_REPRESENTATION_CONTEXT(3)GLOBAL_UNCERTAINTY_ASSIGNED_CONTEXT((#15))GLOBAL_UNIT_ASSIGNED_CONTEXT((#12,#13,#14))REPRESENTATION_CONTEXT(' ',' ')) ;
ENDSEC;
END-ISO-10303-21;
