START RECORD GO HERE.                                                   S      1
1H,,1H;,24H1074.000.012.000.END_ROD,28H1074.000.012.000.END_ROD.igs,62HDG      1
ASSAULT SYSTEMES CATIA Version 5-6 Release 2018 - www.3ds.com,35HV5-6R20G      2
18_5.28.6.0.03-10-2020.20.00,32,75,6,75,15,24H1074.000.012.000.END_ROD, G      3
1.0,2,2HMM,1000,1.0,15H20251008.092259,0.001,10000.0,2HPc,15HDESKTOP-CAEG      4
SKE4,11,0,15H20251008.092259,;                                          G      5
     110       1       0       0       0       0       0       001010001D      1
     110       0       0       1       0                               0D      2
     110       2       0       0       0       0       0       001010001D      3
     110       0       0       1       0                               0D      4
     120       3       0       0       0       0       0       001010001D      5
     120       0       5       1       0                               0D      6
     110       4       0       0       0       0       0       001010001D      7
     110       0       0       1       0                               0D      8
     124       5       0       0       0       0       0       001020001D      9
     124       0       0       1       0                               0D     10
     100       6       0       0       0       0       9       001010001D     11
     100       0       0       1       0                               0D     12
     110       7       0       0       0       0       0       001010001D     13
     110       0       0       1       0                               0D     14
     102       8       0       0       0       0       0       001010001D     15
     102       0       0       1       0                               0D     16
     142       9       0       0       0       0       0       001010001D     17
     142       0       0       1       0                               0D     18
     144      10       0       0   10000       0       0       000000000D     19
     144       0       5       1       0                PartBody       0D     20
     314      11       0       0       0       0       0       000000201D     21
     314       0       0       1       0                               0D     22
     110      12       0       0       0       0       0       001010001D     23
     110       0       0       1       0                               0D     24
     110      13       0       0       0       0       0       001010001D     25
     110       0       0       1       0                               0D     26
     120      14       0       0       0       0       0       001010001D     27
     120       0     -21       1       0                               0D     28
     110      15       0       0       0       0       0       001010001D     29
     110       0       0       1       0                               0D     30
     124      16       0       0       0       0       0       001020001D     31
     124       0       0       1       0                               0D     32
     100      17       0       0       0       0      31       001010001D     33
     100       0       0       1       0                               0D     34
     110      18       0       0       0       0       0       001010001D     35
     110       0       0       1       0                               0D     36
     124      19       0       0       0       0       0       001020001D     37
     124       0       0       1       0                               0D     38
     100      20       0       0       0       0      37       001010001D     39
     100       0       0       1       0                               0D     40
     102      21       0       0       0       0       0       001010001D     41
     102       0       0       1       0                               0D     42
     142      22       0       0       0       0       0       001010001D     43
     142       0       0       1       0                               0D     44
     144      23       0       0   10000       0       0       000000000D     45
     144       0     -21       1       0                PartBody       0D     46
     110      24       0       0       0       0       0       001010001D     47
     110       0       0       1       0                               0D     48
     110      25       0       0       0       0       0       001010001D     49
     110       0       0       1       0                               0D     50
     120      26       0       0       0       0       0       001010001D     51
     120       0     -21       1       0                               0D     52
     110      27       0       0       0       0       0       001010001D     53
     110       0       0       1       0                               0D     54
     124      28       0       0       0       0       0       001020001D     55
     124       0       0       1       0                               0D     56
     100      29       0       0       0       0      55       001010001D     57
     100       0       0       1       0                               0D     58
     110      30       0       0       0       0       0       001010001D     59
     110       0       0       1       0                               0D     60
     124      31       0       0       0       0       0       001020001D     61
     124       0       0       1       0                               0D     62
     100      32       0       0       0       0      61       001010001D     63
     100       0       0       1       0                               0D     64
     102      33       0       0       0       0       0       001010001D     65
     102       0       0       1       0                               0D     66
     142      34       0       0       0       0       0       001010001D     67
     142       0       0       1       0                               0D     68
     144      35       0       0   10000       0       0       000000000D     69
     144       0     -21       1       0                PartBody       0D     70
     314      36       0       0       0       0       0       000000201D     71
     314       0       0       1       0                               0D     72
     108      37       0       0       0       0       0       001010001D     73
     108       0     -71       1       0                               0D     74
     110      38       0       0       0       0       0       001010001D     75
     110       0       0       1       0                               0D     76
     110      39       0       0       0       0       0       001010001D     77
     110       0       0       1       0                               0D     78
     110      40       0       0       0       0       0       001010001D     79
     110       0       0       1       0                               0D     80
     110      41       0       0       0       0       0       001010001D     81
     110       0       0       1       0                               0D     82
     102      42       0       0       0       0       0       001010001D     83
     102       0       0       1       0                               0D     84
     142      43       0       0       0       0       0       001010001D     85
     142       0       0       1       0                               0D     86
     124      44       0       0       0       0       0       001020001D     87
     124       0       0       1       0                               0D     88
     100      45       0       0       0       0      87       001010001D     89
     100       0       0       1       0                               0D     90
     124      46       0       0       0       0       0       001020001D     91
     124       0       0       1       0                               0D     92
     100      47       0       0       0       0      91       001010001D     93
     100       0       0       1       0                               0D     94
     102      48       0       0       0       0       0       001010001D     95
     102       0       0       1       0                               0D     96
     142      49       0       0       0       0       0       001010001D     97
     142       0       0       1       0                               0D     98
     144      50       0       0   10000       0       0       000000000D     99
     144       0     -71       1       0                PartBody       0D    100
     110      51       0       0       0       0       0       001010001D    101
     110       0       0       1       0                               0D    102
     110      52       0       0       0       0       0       001010001D    103
     110       0       0       1       0                               0D    104
     120      53       0       0       0       0       0       001010001D    105
     120       0       5       1       0                               0D    106
     110      54       0       0       0       0       0       001010001D    107
     110       0       0       1       0                               0D    108
     124      55       0       0       0       0       0       001020001D    109
     124       0       0       1       0                               0D    110
     100      56       0       0       0       0     109       001010001D    111
     100       0       0       1       0                               0D    112
     110      57       0       0       0       0       0       001010001D    113
     110       0       0       1       0                               0D    114
     124      58       0       0       0       0       0       001020001D    115
     124       0       0       1       0                               0D    116
     100      59       0       0       0       0     115       001010001D    117
     100       0       0       1       0                               0D    118
     102      60       0       0       0       0       0       001010001D    119
     102       0       0       1       0                               0D    120
     142      61       0       0       0       0       0       001010001D    121
     142       0       0       1       0                               0D    122
     144      62       0       0   10000       0       0       000000000D    123
     144       0       5       1       0                PartBody       0D    124
     110      63       0       0       0       0       0       001010001D    125
     110       0       0       1       0                               0D    126
     110      64       0       0       0       0       0       001010001D    127
     110       0       0       1       0                               0D    128
     120      65       0       0       0       0       0       001010001D    129
     120       0       5       1       0                               0D    130
     110      66       0       0       0       0       0       001010001D    131
     110       0       0       1       0                               0D    132
     124      67       0       0       0       0       0       001020001D    133
     124       0       0       1       0                               0D    134
     100      68       0       0       0       0     133       001010001D    135
     100       0       0       1       0                               0D    136
     110      69       0       0       0       0       0       001010001D    137
     110       0       0       1       0                               0D    138
     124      70       0       0       0       0       0       001020001D    139
     124       0       0       1       0                               0D    140
     100      71       0       0       0       0     139       001010001D    141
     100       0       0       1       0                               0D    142
     102      72       0       0       0       0       0       001010001D    143
     102       0       0       1       0                               0D    144
     142      73       0       0       0       0       0       001010001D    145
     142       0       0       1       0                               0D    146
     144      74       0       0   10000       0       0       000000000D    147
     144       0       5       1       0                PartBody       0D    148
     110      75       0       0       0       0       0       001010001D    149
     110       0       0       1       0                               0D    150
     110      76       0       0       0       0       0       001010001D    151
     110       0       0       1       0                               0D    152
     120      77       0       0       0       0       0       001010001D    153
     120       0       5       1       0                               0D    154
     110      78       0       0       0       0       0       001010001D    155
     110       0       0       1       0                               0D    156
     124      79       0       0       0       0       0       001020001D    157
     124       0       0       1       0                               0D    158
     100      80       0       0       0       0     157       001010001D    159
     100       0       0       1       0                               0D    160
     110      81       0       0       0       0       0       001010001D    161
     110       0       0       1       0                               0D    162
     102      82       0       0       0       0       0       001010001D    163
     102       0       0       1       0                               0D    164
     142      83       0       0       0       0       0       001010001D    165
     142       0       0       1       0                               0D    166
     144      84       0       0   10000       0       0       000000000D    167
     144       0       5       1       0                PartBody       0D    168
     108      85       0       0       0       0       0       001010001D    169
     108       0     -71       1       0                               0D    170
     110      86       0       0       0       0       0       001010001D    171
     110       0       0       1       0                               0D    172
     110      87       0       0       0       0       0       001010001D    173
     110       0       0       1       0                               0D    174
     110      88       0       0       0       0       0       001010001D    175
     110       0       0       1       0                               0D    176
     110      89       0       0       0       0       0       001010001D    177
     110       0       0       1       0                               0D    178
     102      90       0       0       0       0       0       001010001D    179
     102       0       0       1       0                               0D    180
     142      91       0       0       0       0       0       001010001D    181
     142       0       0       1       0                               0D    182
     144      92       0       0   10000       0       0       000000000D    183
     144       0     -71       1       0                PartBody       0D    184
     108      93       0       0       0       0       0       001010001D    185
     108       0     -71       2       0                               0D    186
     110      95       0       0       0       0       0       001010001D    187
     110       0       0       1       0                               0D    188
     110      96       0       0       0       0       0       001010001D    189
     110       0       0       1       0                               0D    190
     110      97       0       0       0       0       0       001010001D    191
     110       0       0       1       0                               0D    192
     110      98       0       0       0       0       0       001010001D    193
     110       0       0       1       0                               0D    194
     102      99       0       0       0       0       0       001010001D    195
     102       0       0       1       0                               0D    196
     142     100       0       0       0       0       0       001010001D    197
     142       0       0       1       0                               0D    198
     144     101       0       0   10000       0       0       000000000D    199
     144       0     -71       1       0                PartBody       0D    200
     108     102       0       0       0       0       0       001010001D    201
     108       0     -71       1       0                               0D    202
     110     103       0       0       0       0       0       001010001D    203
     110       0       0       1       0                               0D    204
     110     104       0       0       0       0       0       001010001D    205
     110       0       0       1       0                               0D    206
     110     105       0       0       0       0       0       001010001D    207
     110       0       0       1       0                               0D    208
     110     106       0       0       0       0       0       001010001D    209
     110       0       0       1       0                               0D    210
     102     107       0       0       0       0       0       001010001D    211
     102       0       0       1       0                               0D    212
     142     108       0       0       0       0       0       001010001D    213
     142       0       0       1       0                               0D    214
     144     109       0       0   10000       0       0       000000000D    215
     144       0     -71       1       0                PartBody       0D    216
     108     110       0       0       0       0       0       001010001D    217
     108       0     -71       1       0                               0D    218
     110     111       0       0       0       0       0       001010001D    219
     110       0       0       1       0                               0D    220
     110     112       0       0       0       0       0       001010001D    221
     110       0       0       1       0                               0D    222
     110     113       0       0       0       0       0       001010001D    223
     110       0       0       1       0                               0D    224
     110     114       0       0       0       0       0       001010001D    225
     110       0       0       1       0                               0D    226
     110     115       0       0       0       0       0       001010001D    227
     110       0       0       1       0                               0D    228
     110     116       0       0       0       0       0       001010001D    229
     110       0       0       1       0                               0D    230
     102     117       0       0       0       0       0       001010001D    231
     102       0       0       1       0                               0D    232
     142     118       0       0       0       0       0       001010001D    233
     142       0       0       1       0                               0D    234
     124     119       0       0       0       0       0       001020001D    235
     124       0       0       1       0                               0D    236
     100     120       0       0       0       0     235       001010001D    237
     100       0       0       1       0                               0D    238
     124     121       0       0       0       0       0       001020001D    239
     124       0       0       1       0                               0D    240
     100     122       0       0       0       0     239       001010001D    241
     100       0       0       1       0                               0D    242
     102     123       0       0       0       0       0       001010001D    243
     102       0       0       1       0                               0D    244
     142     124       0       0       0       0       0       001010001D    245
     142       0       0       1       0                               0D    246
     144     125       0       0   10000       0       0       000000000D    247
     144       0     -71       1       0                PartBody       0D    248
     108     126       0       0       0       0       0       001010001D    249
     108       0     -71       1       0                               0D    250
     110     127       0       0       0       0       0       001010001D    251
     110       0       0       1       0                               0D    252
     110     128       0       0       0       0       0       001010001D    253
     110       0       0       1       0                               0D    254
     110     129       0       0       0       0       0       001010001D    255
     110       0       0       1       0                               0D    256
     110     130       0       0       0       0       0       001010001D    257
     110       0       0       1       0                               0D    258
     102     131       0       0       0       0       0       001010001D    259
     102       0       0       1       0                               0D    260
     142     132       0       0       0       0       0       001010001D    261
     142       0       0       1       0                               0D    262
     144     133       0       0   10000       0       0       000000000D    263
     144       0     -71       1       0                PartBody       0D    264
     108     134       0       0       0       0       0       001010001D    265
     108       0     -71       1       0                               0D    266
     110     135       0       0       0       0       0       001010001D    267
     110       0       0       1       0                               0D    268
     110     136       0       0       0       0       0       001010001D    269
     110       0       0       1       0                               0D    270
     110     137       0       0       0       0       0       001010001D    271
     110       0       0       1       0                               0D    272
     110     138       0       0       0       0       0       001010001D    273
     110       0       0       1       0                               0D    274
     110     139       0       0       0       0       0       001010001D    275
     110       0       0       1       0                               0D    276
     110     140       0       0       0       0       0       001010001D    277
     110       0       0       1       0                               0D    278
     102     141       0       0       0       0       0       001010001D    279
     102       0       0       1       0                               0D    280
     142     142       0       0       0       0       0       001010001D    281
     142       0       0       1       0                               0D    282
     124     143       0       0       0       0       0       001020001D    283
     124       0       0       1       0                               0D    284
     100     144       0       0       0       0     283       001010001D    285
     100       0       0       1       0                               0D    286
     124     145       0       0       0       0       0       001020001D    287
     124       0       0       1       0                               0D    288
     100     146       0       0       0       0     287       001010001D    289
     100       0       0       1       0                               0D    290
     102     147       0       0       0       0       0       001010001D    291
     102       0       0       1       0                               0D    292
     142     148       0       0       0       0       0       001010001D    293
     142       0       0       1       0                               0D    294
     144     149       0       0   10000       0       0       000000000D    295
     144       0     -71       1       0                PartBody       0D    296
     108     150       0       0       0       0       0       001010001D    297
     108       0     -71       2       0                               0D    298
     110     152       0       0       0       0       0       001010001D    299
     110       0       0       1       0                               0D    300
     110     153       0       0       0       0       0       001010001D    301
     110       0       0       1       0                               0D    302
     110     154       0       0       0       0       0       001010001D    303
     110       0       0       1       0                               0D    304
     110     155       0       0       0       0       0       001010001D    305
     110       0       0       1       0                               0D    306
     102     156       0       0       0       0       0       001010001D    307
     102       0       0       1       0                               0D    308
     142     157       0       0       0       0       0       001010001D    309
     142       0       0       1       0                               0D    310
     144     158       0       0   10000       0       0       000000000D    311
     144       0     -71       1       0                PartBody       0D    312
110,0.0,8.580584363,0.0,0.0,9.580584363,0.0,0,0;                       1P      1
110,0.0,8.580584363,0.0,-2.4585,10.0,0.0,0,0;                          3P      2
120,1,3,0.0,3.141592654,0,0;                                           5P      3
110,0.0,8.580584363,0.0,2.4585,10.0,0.0,0,0;                           7P      4
124,1.0,0.0,0.0,0.0,0.0,0.0,-1.0,10.0,0.0,1.0,0.0,0.0,0,0;             9P      5
100,0.0,0.0,0.0,2.4585,0.0,-2.4585,0.0,0,0;                           11P      6
110,-2.4585,10.0,0.0,0.0,8.580584363,0.0,0,0;                         13P      7
102,3,7,11,13,0,0;                                                    15P      8
142,0,5,0,15,2,0,0;                                                   17P      9
144,5,1,0,17,0,0;                                                     19P     10
314,0.0,31.37254902,100.0,5HColor,0,0;                                21P     11
110,0.0,0.0,0.0,1.0,0.0,0.0,0,0;                                      23P     12
110,-7.5,-3.0,0.0,7.5,-3.0,0.0,0,0;                                   25P     13
120,23,25,0.0,6.283185307,0,0;                                        27P     14
110,7.5,-3.0,0.0,-7.5,-3.0,0.0,0,0;                                   29P     15
124,0.0,0.0,1.0,-7.5,-1.0,0.0,0.0,0.0,0.0,-1.0,0.0,0.0,0,0;           31P     16
100,0.0,0.0,0.0,3.0,0.0,-3.0,0.0,0,0;                                 33P     17
110,-7.5,3.0,0.0,7.5,3.0,0.0,0,0;                                     35P     18
124,0.0,0.0,-1.0,7.5,1.0,0.0,0.0,0.0,0.0,-1.0,0.0,0.0,0,0;            37P     19
100,0.0,0.0,0.0,3.0,0.0,-3.0,0.0,0,0;                                 39P     20
102,4,29,33,35,39,0,0;                                                41P     21
142,0,27,0,41,2,0,0;                                                  43P     22
144,27,1,0,43,0,0;                                                    45P     23
110,0.0,0.0,0.0,1.0,0.0,0.0,0,0;                                      47P     24
110,-7.5,3.0,0.0,7.5,3.0,0.0,0,0;                                     49P     25
120,47,49,0.0,6.283185307,0,0;                                        51P     26
110,7.5,3.0,0.0,-7.5,3.0,0.0,0,0;                                     53P     27
124,0.0,0.0,1.0,-7.5,1.0,0.0,0.0,0.0,0.0,1.0,0.0,0.0,0,0;             55P     28
100,0.0,0.0,0.0,3.0,0.0,-3.0,0.0,0,0;                                 57P     29
110,-7.5,-3.0,0.0,7.5,-3.0,0.0,0,0;                                   59P     30
124,0.0,0.0,-1.0,7.5,-1.0,0.0,0.0,0.0,0.0,1.0,0.0,0.0,0,0;            61P     31
100,0.0,0.0,0.0,3.0,0.0,-3.0,0.0,0,0;                                 63P     32
102,4,53,57,59,63,0,0;                                                65P     33
142,0,51,0,65,2,0,0;                                                  67P     34
144,51,1,0,67,0,0;                                                    69P     35
314,20.0,20.0,20.0,5HColor,0,0;                                       71P     36
108,0.0,-1.0,0.0,-20.0,0,0.0,20.0,6.0,1.0,0,0;                        73P     37
110,7.5,20.0,-6.0,7.5,20.0,6.0,0,0;                                   75P     38
110,7.5,20.0,6.0,-7.5,20.0,6.0,0,0;                                   77P     39
110,-7.5,20.0,6.0,-7.5,20.0,-6.0,0,0;                                 79P     40
110,-7.5,20.0,-6.0,7.5,20.0,-6.0,0,0;                                 81P     41
102,4,75,77,79,81,0,0;                                                83P     42
142,0,73,0,83,2,0,0;                                                  85P     43
124,-1.0,0.0,0.0,0.0,0.0,0.0,1.0,20.0,0.0,1.0,0.0,0.0,0,0;            87P     44
100,0.0,0.0,0.0,2.4585,0.0,-2.4585,0.0,0,0;                           89P     45
124,1.0,0.0,0.0,0.0,0.0,0.0,1.0,20.0,0.0,-1.0,0.0,0.0,0,0;            91P     46
100,0.0,0.0,0.0,2.4585,0.0,-2.4585,0.0,0,0;                           93P     47
102,2,89,93,0,0;                                                      95P     48
142,0,73,0,95,2,0,0;                                                  97P     49
144,73,1,1,85,97,0,0;                                                 99P     50
110,0.0,20.0,0.0,0.0,19.0,0.0,0,0;                                   101P     51
110,-2.4585,20.0,0.0,-2.4585,10.0,0.0,0,0;                           103P     52
120,101,103,0.0,6.283185307,0,0;                                     105P     53
110,2.4585,20.0,0.0,2.4585,10.0,0.0,0,0;                             107P     54
124,1.0,0.0,0.0,0.0,0.0,0.0,1.0,10.0,0.0,-1.0,0.0,0.0,0,0;           109P     55
100,0.0,0.0,0.0,2.4585,0.0,-2.4585,0.0,0,0;                          111P     56
110,-2.4585,10.0,0.0,-2.4585,20.0,0.0,0,0;                           113P     57
124,-1.0,0.0,0.0,0.0,0.0,0.0,-1.0,20.0,0.0,-1.0,0.0,0.0,0,0;         115P     58
100,0.0,0.0,0.0,2.4585,0.0,-2.4585,0.0,0,0;                          117P     59
102,4,107,111,113,117,0,0;                                           119P     60
142,0,105,0,119,2,0,0;                                               121P     61
144,105,1,0,121,0,0;                                                 123P     62
110,0.0,20.0,0.0,0.0,19.0,0.0,0,0;                                   125P     63
110,2.4585,20.0,0.0,2.4585,10.0,0.0,0,0;                             127P     64
120,125,127,0.0,6.283185307,0,0;                                     129P     65
110,-2.4585,20.0,0.0,-2.4585,10.0,0.0,0,0;                           131P     66
124,-1.0,0.0,0.0,0.0,0.0,0.0,1.0,10.0,0.0,1.0,0.0,0.0,0,0;           133P     67
100,0.0,0.0,0.0,2.4585,0.0,-2.4585,0.0,0,0;                          135P     68
110,2.4585,10.0,0.0,2.4585,20.0,0.0,0,0;                             137P     69
124,1.0,0.0,0.0,0.0,0.0,0.0,-1.0,20.0,0.0,1.0,0.0,0.0,0,0;           139P     70
100,0.0,0.0,0.0,2.4585,0.0,-2.4585,0.0,0,0;                          141P     71
102,4,131,135,137,141,0,0;                                           143P     72
142,0,129,0,143,2,0,0;                                               145P     73
144,129,1,0,145,0,0;                                                 147P     74
110,0.0,8.580584363,0.0,0.0,9.580584363,0.0,0,0;                     149P     75
110,0.0,8.580584363,0.0,2.4585,10.0,0.0,0,0;                         151P     76
120,149,151,0.0,3.141592654,0,0;                                     153P     77
110,0.0,8.580584363,0.0,-2.4585,10.0,0.0,0,0;                        155P     78
124,-1.0,0.0,0.0,0.0,0.0,0.0,-1.0,10.0,0.0,-1.0,0.0,0.0,0,0;         157P     79
100,0.0,0.0,0.0,2.4585,0.0,-2.4585,0.0,0,0;                          159P     80
110,2.4585,10.0,0.0,0.0,8.580584363,0.0,0,0;                         161P     81
102,3,155,159,161,0,0;                                               163P     82
142,0,153,0,163,2,0,0;                                               165P     83
144,153,1,0,165,0,0;                                                 167P     84
108,0.0,0.0,-1.0,-6.0,0,0.0,-6.0,6.0,1.0,0,0;                        169P     85
110,-7.5,-3.0,6.0,-7.5,20.0,6.0,0,0;                                 171P     86
110,-7.5,20.0,6.0,7.5,20.0,6.0,0,0;                                  173P     87
110,7.5,20.0,6.0,7.5,-3.0,6.0,0,0;                                   175P     88
110,7.5,-3.0,6.0,-7.5,-3.0,6.0,0,0;                                  177P     89
102,4,171,173,175,177,0,0;                                           179P     90
142,0,169,0,179,2,0,0;                                               181P     91
144,169,1,0,181,0,0;                                                 183P     92
108,0.0,-0.7071067812,0.7071067812,6.363961031,0,0.0,-6.0,3.0,       185P     93
1.0,0,0;                                                             185P     94
110,7.5,-6.0,3.0,-7.5,-6.0,3.0,0,0;                                  187P     95
110,-7.5,-6.0,3.0,-7.5,-3.0,6.0,0,0;                                 189P     96
110,-7.5,-3.0,6.0,7.5,-3.0,6.0,0,0;                                  191P     97
110,7.5,-3.0,6.0,7.5,-6.0,3.0,0,0;                                   193P     98
102,4,187,189,191,193,0,0;                                           195P     99
142,0,185,0,195,2,0,0;                                               197P    100
144,185,1,0,197,0,0;                                                 199P    101
108,0.0,0.0,1.0,-6.0,0,0.0,20.0,-6.0,1.0,0,0;                        201P    102
110,7.5,-3.0,-6.0,7.5,20.0,-6.0,0,0;                                 203P    103
110,7.5,20.0,-6.0,-7.5,20.0,-6.0,0,0;                                205P    104
110,-7.5,20.0,-6.0,-7.5,-3.0,-6.0,0,0;                               207P    105
110,-7.5,-3.0,-6.0,7.5,-3.0,-6.0,0,0;                                209P    106
102,4,203,205,207,209,0,0;                                           211P    107
142,0,201,0,211,2,0,0;                                               213P    108
144,201,1,0,213,0,0;                                                 215P    109
108,1.0,0.0,0.0,-7.5,0,-7.5,0.0,0.0,1.0,0,0;                         217P    110
110,-7.5,-3.0,-6.0,-7.5,20.0,-6.0,0,0;                               219P    111
110,-7.5,20.0,-6.0,-7.5,20.0,6.0,0,0;                                221P    112
110,-7.5,20.0,6.0,-7.5,-3.0,6.0,0,0;                                 223P    113
110,-7.5,-3.0,6.0,-7.5,-6.0,3.0,0,0;                                 225P    114
110,-7.5,-6.0,3.0,-7.5,-6.0,-3.0,0,0;                                227P    115
110,-7.5,-6.0,-3.0,-7.5,-3.0,-6.0,0,0;                               229P    116
102,6,219,221,223,225,227,229,0,0;                                   231P    117
142,0,217,0,231,2,0,0;                                               233P    118
124,0.0,0.0,-1.0,-7.5,1.0,0.0,0.0,0.0,0.0,-1.0,0.0,0.0,0,0;          235P    119
100,0.0,0.0,0.0,3.0,0.0,-3.0,0.0,0,0;                                237P    120
124,0.0,0.0,-1.0,-7.5,-1.0,0.0,0.0,0.0,0.0,1.0,0.0,0.0,0,0;          239P    121
100,0.0,0.0,0.0,3.0,0.0,-3.0,0.0,0,0;                                241P    122
102,2,237,241,0,0;                                                   243P    123
142,0,217,0,243,2,0,0;                                               245P    124
144,217,1,1,233,245,0,0;                                             247P    125
108,0.0,1.0,0.0,-6.0,0,0.0,-6.0,-6.0,1.0,0,0;                        249P    126
110,-7.5,-6.0,-3.0,-7.5,-6.0,3.0,0,0;                                251P    127
110,-7.5,-6.0,3.0,7.5,-6.0,3.0,0,0;                                  253P    128
110,7.5,-6.0,3.0,7.5,-6.0,-3.0,0,0;                                  255P    129
110,7.5,-6.0,-3.0,-7.5,-6.0,-3.0,0,0;                                257P    130
102,4,251,253,255,257,0,0;                                           259P    131
142,0,249,0,259,2,0,0;                                               261P    132
144,249,1,0,261,0,0;                                                 263P    133
108,1.0,0.0,0.0,7.5,0,7.5,0.0,0.0,1.0,0,0;                           265P    134
110,7.5,-3.0,-6.0,7.5,-6.0,-3.0,0,0;                                 267P    135
110,7.5,-6.0,-3.0,7.5,-6.0,3.0,0,0;                                  269P    136
110,7.5,-6.0,3.0,7.5,-3.0,6.0,0,0;                                   271P    137
110,7.5,-3.0,6.0,7.5,20.0,6.0,0,0;                                   273P    138
110,7.5,20.0,6.0,7.5,20.0,-6.0,0,0;                                  275P    139
110,7.5,20.0,-6.0,7.5,-3.0,-6.0,0,0;                                 277P    140
102,6,267,269,271,273,275,277,0,0;                                   279P    141
142,0,265,0,279,2,0,0;                                               281P    142
124,0.0,0.0,1.0,7.5,1.0,0.0,0.0,0.0,0.0,1.0,0.0,0.0,0,0;             283P    143
100,0.0,0.0,0.0,3.0,0.0,-3.0,0.0,0,0;                                285P    144
124,0.0,0.0,1.0,7.5,-1.0,0.0,0.0,0.0,0.0,-1.0,0.0,0.0,0,0;           287P    145
100,0.0,0.0,0.0,3.0,0.0,-3.0,0.0,0,0;                                289P    146
102,2,285,289,0,0;                                                   291P    147
142,0,265,0,291,2,0,0;                                               293P    148
144,265,1,1,281,293,0,0;                                             295P    149
108,0.0,0.7071067812,0.7071067812,-6.363961031,0,0.0,-6.0,-3.0,      297P    150
1.0,0,0;                                                             297P    151
110,7.5,-6.0,-3.0,7.5,-3.0,-6.0,0,0;                                 299P    152
110,7.5,-3.0,-6.0,-7.5,-3.0,-6.0,0,0;                                301P    153
110,-7.5,-3.0,-6.0,-7.5,-6.0,-3.0,0,0;                               303P    154
110,-7.5,-6.0,-3.0,7.5,-6.0,-3.0,0,0;                                305P    155
102,4,299,301,303,305,0,0;                                           307P    156
142,0,297,0,307,2,0,0;                                               309P    157
144,297,1,0,309,0,0;                                                 311P    158
S      1G      5D    312P    158                                        T      1
