START RECORD GO HERE.                                                   S      1
1H,,1H;,26H1074.000.009.000.COPLE_POT,30H1074.000.009.000.COPLE_POT.igs,G      1
62HDASSAULT SYSTEMES CATIA Version 5-6 Release 2018 - www.3ds.com,35HV5-G      2
6R2018_5.28.6.0.03-10-2020.20.00,32,75,6,75,15,26H1074.000.009.000.COPLEG      3
_POT,1.0,2,2HMM,1000,1.0,15H20251008.092404,0.001,10000.0,2HPc,15HDESKTOG      4
P-CAESKE4,11,0,15H20251008.092404,;                                     G      5
     110       1       0       0       0       0       0       001010001D      1
     110       0       0       1       0                               0D      2
     110       2       0       0       0       0       0       001010001D      3
     110       0       0       2       0                               0D      4
     120       4       0       0       0       0       0       001010001D      5
     120       0       5       1       0                               0D      6
     126       5       0       0       0       0       0       001010001D      7
     126       0       0      12       0                               0D      8
     110      17       0       0       0       0       0       001010001D      9
     110       0       0       1       0                               0D     10
     126      18       0       0       0       0       0       001010001D     11
     126       0       0      17       0                               0D     12
     110      35       0       0       0       0       0       001010001D     13
     110       0       0       1       0                               0D     14
     102      36       0       0       0       0       0       001010001D     15
     102       0       0       1       0                               0D     16
     142      37       0       0       0       0       0       001010001D     17
     142       0       0       1       0                               0D     18
     144      38       0       0   10000       0       0       000000000D     19
     144       0       5       1       0                PartBody       0D     20
     110      39       0       0       0       0       0       001010001D     21
     110       0       0       1       0                               0D     22
     110      40       0       0       0       0       0       001010001D     23
     110       0       0       1       0                               0D     24
     120      41       0       0       0       0       0       001010001D     25
     120       0       5       1       0                               0D     26
     126      42       0       0       0       0       0       001010001D     27
     126       0       0      14       0                               0D     28
     110      56       0       0       0       0       0       001010001D     29
     110       0       0       1       0                               0D     30
     126      57       0       0       0       0       0       001010001D     31
     126       0       0      19       0                               0D     32
     110      76       0       0       0       0       0       001010001D     33
     110       0       0       1       0                               0D     34
     102      77       0       0       0       0       0       001010001D     35
     102       0       0       1       0                               0D     36
     142      78       0       0       0       0       0       001010001D     37
     142       0       0       1       0                               0D     38
     144      79       0       0   10000       0       0       000000000D     39
     144       0       5       1       0                PartBody       0D     40
     314      80       0       0       0       0       0       000000201D     41
     314       0       0       1       0                               0D     42
     110      81       0       0       0       0       0       001010001D     43
     110       0       0       1       0                               0D     44
     110      82       0       0       0       0       0       001010001D     45
     110       0       0       1       0                               0D     46
     120      83       0       0       0       0       0       001010001D     47
     120       0     -41       1       0                               0D     48
     110      84       0       0       0       0       0       001010001D     49
     110       0       0       1       0                               0D     50
     124      85       0       0       0       0       0       001020001D     51
     124       0       0       1       0                               0D     52
     100      86       0       0       0       0      51       001010001D     53
     100       0       0       1       0                               0D     54
     110      87       0       0       0       0       0       001010001D     55
     110       0       0       1       0                               0D     56
     124      88       0       0       0       0       0       001020001D     57
     124       0       0       1       0                               0D     58
     100      89       0       0       0       0      57       001010001D     59
     100       0       0       1       0                               0D     60
     102      90       0       0       0       0       0       001010001D     61
     102       0       0       1       0                               0D     62
     142      91       0       0       0       0       0       001010001D     63
     142       0       0       1       0                               0D     64
     126      92       0       0       0       0       0       001010001D     65
     126       0       0      17       0                               0D     66
     126     109       0       0       0       0       0       001010001D     67
     126       0       0      20       0                               0D     68
     102     129       0       0       0       0       0       001010001D     69
     102       0       0       1       0                               0D     70
     142     130       0       0       0       0       0       001010001D     71
     142       0       0       1       0                               0D     72
     144     131       0       0   10000       0       0       000000000D     73
     144       0     -41       1       0                PartBody       0D     74
     110     132       0       0       0       0       0       001010001D     75
     110       0       0       1       0                               0D     76
     110     133       0       0       0       0       0       001010001D     77
     110       0       0       1       0                               0D     78
     120     134       0       0       0       0       0       001010001D     79
     120       0     -41       1       0                               0D     80
     110     135       0       0       0       0       0       001010001D     81
     110       0       0       1       0                               0D     82
     124     136       0       0       0       0       0       001020001D     83
     124       0       0       1       0                               0D     84
     100     137       0       0       0       0      83       001010001D     85
     100       0       0       1       0                               0D     86
     110     138       0       0       0       0       0       001010001D     87
     110       0       0       1       0                               0D     88
     124     139       0       0       0       0       0       001020001D     89
     124       0       0       1       0                               0D     90
     100     140       0       0       0       0      89       001010001D     91
     100       0       0       1       0                               0D     92
     102     141       0       0       0       0       0       001010001D     93
     102       0       0       1       0                               0D     94
     142     142       0       0       0       0       0       001010001D     95
     142       0       0       1       0                               0D     96
     144     143       0       0   10000       0       0       000000000D     97
     144       0     -41       1       0                PartBody       0D     98
     314     144       0       0       0       0       0       000000201D     99
     314       0       0       1       0                               0D    100
     108     145       0       0       0       0       0       001010001D    101
     108       0     -99       1       0                               0D    102
     124     146       0       0       0       0       0       001020001D    103
     124       0       0       1       0                               0D    104
     100     147       0       0       0       0     103       001010001D    105
     100       0       0       1       0                               0D    106
     124     148       0       0       0       0       0       001020001D    107
     124       0       0       1       0                               0D    108
     100     149       0       0       0       0     107       001010001D    109
     100       0       0       1       0                               0D    110
     102     150       0       0       0       0       0       001010001D    111
     102       0       0       1       0                               0D    112
     142     151       0       0       0       0       0       001010001D    113
     142       0       0       1       0                               0D    114
     124     152       0       0       0       0       0       001020001D    115
     124       0       0       1       0                               0D    116
     100     153       0       0       0       0     115       001010001D    117
     100       0       0       1       0                               0D    118
     124     154       0       0       0       0       0       001020001D    119
     124       0       0       1       0                               0D    120
     100     155       0       0       0       0     119       001010001D    121
     100       0       0       1       0                               0D    122
     102     156       0       0       0       0       0       001010001D    123
     102       0       0       1       0                               0D    124
     142     157       0       0       0       0       0       001010001D    125
     142       0       0       1       0                               0D    126
     144     158       0       0   10000       0       0       000000000D    127
     144       0     -99       1       0                PartBody       0D    128
     110     159       0       0       0       0       0       001010001D    129
     110       0       0       1       0                               0D    130
     110     160       0       0       0       0       0       001010001D    131
     110       0       0       1       0                               0D    132
     120     161       0       0       0       0       0       001010001D    133
     120       0     -41       1       0                               0D    134
     110     162       0       0       0       0       0       001010001D    135
     110       0       0       1       0                               0D    136
     124     163       0       0       0       0       0       001020001D    137
     124       0       0       1       0                               0D    138
     100     164       0       0       0       0     137       001010001D    139
     100       0       0       1       0                               0D    140
     110     165       0       0       0       0       0       001010001D    141
     110       0       0       1       0                               0D    142
     124     166       0       0       0       0       0       001020001D    143
     124       0       0       1       0                               0D    144
     100     167       0       0       0       0     143       001010001D    145
     100       0       0       1       0                               0D    146
     102     168       0       0       0       0       0       001010001D    147
     102       0       0       1       0                               0D    148
     142     169       0       0       0       0       0       001010001D    149
     142       0       0       1       0                               0D    150
     144     170       0       0   10000       0       0       000000000D    151
     144       0     -41       1       0                PartBody       0D    152
     110     171       0       0       0       0       0       001010001D    153
     110       0       0       1       0                               0D    154
     110     172       0       0       0       0       0       001010001D    155
     110       0       0       1       0                               0D    156
     120     173       0       0       0       0       0       001010001D    157
     120       0     -41       1       0                               0D    158
     110     174       0       0       0       0       0       001010001D    159
     110       0       0       1       0                               0D    160
     124     175       0       0       0       0       0       001020001D    161
     124       0       0       1       0                               0D    162
     100     176       0       0       0       0     161       001010001D    163
     100       0       0       1       0                               0D    164
     110     177       0       0       0       0       0       001010001D    165
     110       0       0       1       0                               0D    166
     124     178       0       0       0       0       0       001020001D    167
     124       0       0       1       0                               0D    168
     100     179       0       0       0       0     167       001010001D    169
     100       0       0       1       0                               0D    170
     102     180       0       0       0       0       0       001010001D    171
     102       0       0       1       0                               0D    172
     142     181       0       0       0       0       0       001010001D    173
     142       0       0       1       0                               0D    174
     126     182       0       0       0       0       0       001010001D    175
     126       0       0      15       0                               0D    176
     126     197       0       0       0       0       0       001010001D    177
     126       0       0      14       0                               0D    178
     102     211       0       0       0       0       0       001010001D    179
     102       0       0       1       0                               0D    180
     142     212       0       0       0       0       0       001010001D    181
     142       0       0       1       0                               0D    182
     144     213       0       0   10000       0       0       000000000D    183
     144       0     -41       1       0                PartBody       0D    184
     108     214       0       0       0       0       0       001010001D    185
     108       0     -99       1       0                               0D    186
     124     215       0       0       0       0       0       001020001D    187
     124       0       0       1       0                               0D    188
     100     216       0       0       0       0     187       001010001D    189
     100       0       0       1       0                               0D    190
     124     217       0       0       0       0       0       001020001D    191
     124       0       0       1       0                               0D    192
     100     218       0       0       0       0     191       001010001D    193
     100       0       0       1       0                               0D    194
     102     219       0       0       0       0       0       001010001D    195
     102       0       0       1       0                               0D    196
     142     220       0       0       0       0       0       001010001D    197
     142       0       0       1       0                               0D    198
     124     221       0       0       0       0       0       001020001D    199
     124       0       0       1       0                               0D    200
     100     222       0       0       0       0     199       001010001D    201
     100       0       0       1       0                               0D    202
     124     223       0       0       0       0       0       001020001D    203
     124       0       0       1       0                               0D    204
     100     224       0       0       0       0     203       001010001D    205
     100       0       0       1       0                               0D    206
     102     225       0       0       0       0       0       001010001D    207
     102       0       0       1       0                               0D    208
     142     226       0       0       0       0       0       001010001D    209
     142       0       0       1       0                               0D    210
     144     227       0       0   10000       0       0       000000000D    211
     144       0     -99       1       0                PartBody       0D    212
     110     228       0       0       0       0       0       001010001D    213
     110       0       0       1       0                               0D    214
     110     229       0       0       0       0       0       001010001D    215
     110       0       0       1       0                               0D    216
     120     230       0       0       0       0       0       001010001D    217
     120       0     -99       1       0                               0D    218
     110     231       0       0       0       0       0       001010001D    219
     110       0       0       1       0                               0D    220
     124     232       0       0       0       0       0       001020001D    221
     124       0       0       1       0                               0D    222
     100     233       0       0       0       0     221       001010001D    223
     100       0       0       1       0                               0D    224
     110     234       0       0       0       0       0       001010001D    225
     110       0       0       1       0                               0D    226
     124     235       0       0       0       0       0       001020001D    227
     124       0       0       1       0                               0D    228
     100     236       0       0       0       0     227       001010001D    229
     100       0       0       1       0                               0D    230
     102     237       0       0       0       0       0       001010001D    231
     102       0       0       1       0                               0D    232
     142     238       0       0       0       0       0       001010001D    233
     142       0       0       1       0                               0D    234
     144     239       0       0   10000       0       0       000000000D    235
     144       0     -99       1       0                PartBody       0D    236
     110     240       0       0       0       0       0       001010001D    237
     110       0       0       1       0                               0D    238
     110     241       0       0       0       0       0       001010001D    239
     110       0       0       1       0                               0D    240
     120     242       0       0       0       0       0       001010001D    241
     120       0       5       1       0                               0D    242
     126     243       0       0       0       0       0       001010001D    243
     126       0       0      14       0                               0D    244
     110     257       0       0       0       0       0       001010001D    245
     110       0       0       1       0                               0D    246
     126     258       0       0       0       0       0       001010001D    247
     126       0       0      14       0                               0D    248
     110     272       0       0       0       0       0       001010001D    249
     110       0       0       1       0                               0D    250
     102     273       0       0       0       0       0       001010001D    251
     102       0       0       1       0                               0D    252
     142     274       0       0       0       0       0       001010001D    253
     142       0       0       1       0                               0D    254
     144     275       0       0   10000       0       0       000000000D    255
     144       0       5       1       0                PartBody       0D    256
     110     276       0       0       0       0       0       001010001D    257
     110       0       0       1       0                               0D    258
     110     277       0       0       0       0       0       001010001D    259
     110       0       0       2       0                               0D    260
     120     279       0       0       0       0       0       001010001D    261
     120       0       5       1       0                               0D    262
     126     280       0       0       0       0       0       001010001D    263
     126       0       0      12       0                               0D    264
     110     292       0       0       0       0       0       001010001D    265
     110       0       0       1       0                               0D    266
     126     293       0       0       0       0       0       001010001D    267
     126       0       0      14       0                               0D    268
     110     307       0       0       0       0       0       001010001D    269
     110       0       0       1       0                               0D    270
     102     308       0       0       0       0       0       001010001D    271
     102       0       0       1       0                               0D    272
     142     309       0       0       0       0       0       001010001D    273
     142       0       0       1       0                               0D    274
     144     310       0       0   10000       0       0       000000000D    275
     144       0       5       1       0                PartBody       0D    276
     108     311       0       0       0       0       0       001010001D    277
     108       0     -99       1       0                               0D    278
     124     312       0       0       0       0       0       001020001D    279
     124       0       0       1       0                               0D    280
     100     313       0       0       0       0     279       001010001D    281
     100       0       0       1       0                               0D    282
     124     314       0       0       0       0       0       001020001D    283
     124       0       0       1       0                               0D    284
     100     315       0       0       0       0     283       001010001D    285
     100       0       0       1       0                               0D    286
     102     316       0       0       0       0       0       001010001D    287
     102       0       0       1       0                               0D    288
     142     317       0       0       0       0       0       001010001D    289
     142       0       0       1       0                               0D    290
     124     318       0       0       0       0       0       001020001D    291
     124       0       0       1       0                               0D    292
     100     319       0       0       0       0     291       001010001D    293
     100       0       0       1       0                               0D    294
     124     320       0       0       0       0       0       001020001D    295
     124       0       0       1       0                               0D    296
     100     321       0       0       0       0     295       001010001D    297
     100       0       0       1       0                               0D    298
     102     322       0       0       0       0       0       001010001D    299
     102       0       0       1       0                               0D    300
     142     323       0       0       0       0       0       001010001D    301
     142       0       0       1       0                               0D    302
     144     324       0       0   10000       0       0       000000000D    303
     144       0     -99       1       0                PartBody       0D    304
     110     325       0       0       0       0       0       001010001D    305
     110       0       0       1       0                               0D    306
     110     326       0       0       0       0       0       001010001D    307
     110       0       0       1       0                               0D    308
     120     327       0       0       0       0       0       001010001D    309
     120       0     -99       1       0                               0D    310
     110     328       0       0       0       0       0       001010001D    311
     110       0       0       1       0                               0D    312
     124     329       0       0       0       0       0       001020001D    313
     124       0       0       1       0                               0D    314
     100     330       0       0       0       0     313       001010001D    315
     100       0       0       1       0                               0D    316
     110     331       0       0       0       0       0       001010001D    317
     110       0       0       1       0                               0D    318
     124     332       0       0       0       0       0       001020001D    319
     124       0       0       1       0                               0D    320
     100     333       0       0       0       0     319       001010001D    321
     100       0       0       1       0                               0D    322
     102     334       0       0       0       0       0       001010001D    323
     102       0       0       1       0                               0D    324
     142     335       0       0       0       0       0       001010001D    325
     142       0       0       1       0                               0D    326
     126     336       0       0       0       0       0       001010001D    327
     126       0       0      15       0                               0D    328
     126     351       0       0       0       0       0       001010001D    329
     126       0       0      12       0                               0D    330
     102     363       0       0       0       0       0       001010001D    331
     102       0       0       1       0                               0D    332
     142     364       0       0       0       0       0       001010001D    333
     142       0       0       1       0                               0D    334
     126     365       0       0       0       0       0       001010001D    335
     126       0       0      14       0                               0D    336
     126     379       0       0       0       0       0       001010001D    337
     126       0       0      12       0                               0D    338
     102     391       0       0       0       0       0       001010001D    339
     102       0       0       1       0                               0D    340
     142     392       0       0       0       0       0       001010001D    341
     142       0       0       1       0                               0D    342
     144     393       0       0   10000       0       0       000000000D    343
     144       0     -99       1       0                PartBody       0D    344
110,6.5,-3.0,0.0,5.5,-3.0,0.0,0,0;                                     1P      1
110,6.355778582,-4.621,-5.092327012E-012,1.896059041,-4.621,           3P      2
-5.092327012E-012,0,0;                                                 3P      3
120,1,3,0.0,6.283185307,0,0;                                           5P      4
126,11,5,0,0,1,0,7.232121161,7.232121161,7.232121161,                  7P      5
7.232121161,7.232121161,7.232121161,8.615073205,8.615073205,           7P      6
8.615073205,11.00881079,11.00881079,11.00881079,14.46402964,           7P      7
14.46402964,14.46402964,14.46402964,14.46402964,14.46402964,1.0,       7P      8
1.0,1.0,1.0,1.0,1.0,1.0,1.0,1.0,1.0,1.0,1.0,6.349999567,-4.621,        7P      9
0.0,6.350000982,-4.621,0.1955686513,6.342470861,-4.591506557,          7P     10
0.3911648221,6.327378436,-4.53248477,0.5803385343,6.271105898,         7P     11
-4.297372517,1.063231704,6.194207588,-3.884883264,1.421378004,         7P     12
6.151256321,-3.568376521,1.57632822,6.110122541,-2.727227337,          7P     13
1.733670082,6.206758821,-1.925545841,1.365052983,6.302997885,          7P     14
-1.56312303,0.9772832077,6.35,-1.379,0.4886417347,6.35,-1.379,         7P     15
0.0,7.232121161,14.46402964,0.0,0.0,0.0,0,0;                           7P     16
110,6.35,-1.379,0.0,2.5,-1.379,0.0,0,0;                                9P     17
126,17,5,0,0,1,0,0.0,0.0,0.0,0.0,0.0,0.0,1.730127512,                 11P     18
1.730127512,1.730127512,2.563075067,2.563075067,2.563075067,          11P     19
3.805008776,3.805008776,3.805008776,5.675032697,5.675032697,          11P     20
5.675032697,7.439843015,7.439843015,7.439843015,7.439843015,          11P     21
7.439843015,7.439843015,1.0,1.0,1.0,1.0,1.0,1.0,1.0,1.0,1.0,1.0,      11P     22
1.0,1.0,1.0,1.0,1.0,1.0,1.0,1.0,2.5,-1.379,0.0,2.5,-1.379,            11P     23
0.2446769792,2.470066588,-1.42516504,0.4893535351,2.410433436,        11P     24
-1.517329742,0.7159436741,2.297084701,-1.703271936,1.012132128,       11P     25
2.170595404,-1.952685269,1.244624541,2.129356716,-2.039928195,        11P     26
1.313134784,2.029920157,-2.271702391,1.465243783,1.94932777,          11P     27
-2.537339533,1.56756905,1.913254926,-2.707753285,1.609182957,         11P     28
1.876683741,-3.151127453,1.652313964,1.966528717,-3.584983578,        11P     29
1.546487484,2.057577784,-3.814733433,1.434144003,2.243864923,         11P     30
-4.209057956,1.146364934,2.406814193,-4.477048838,0.7296146623,       11P     31
2.468853218,-4.572967842,0.4992348616,2.500000245,-4.621,             11P     32
0.2495758447,2.499999984,-4.621,0.0,0.0,7.439843015,0.0,0.0,0.0,      11P     33
0,0;                                                                  11P     34
110,2.499999984,-4.621,0.0,6.349999567,-4.621,0.0,0,0;                13P     35
102,4,7,9,11,13,0,0;                                                  15P     36
142,0,5,0,15,2,0,0;                                                   17P     37
144,5,1,0,17,0,0;                                                     19P     38
110,6.5,-3.0,0.0,5.5,-3.0,0.0,0,0;                                    21P     39
110,6.362136557,-1.379,0.0,1.898378491,-1.379,0.0,0,0;                23P     40
120,21,23,0.0,6.283185307,0,0;                                        25P     41
126,14,5,0,0,1,0,0.0,0.0,0.0,0.0,0.0,0.0,2.376387933,                 27P     42
2.376387933,2.376387933,3.572157509,3.572157509,3.572157509,          27P     43
5.034014984,5.034014984,5.034014984,7.232121161,7.232121161,          27P     44
7.232121161,7.232121161,7.232121161,7.232121161,1.0,1.0,1.0,1.0,      27P     45
1.0,1.0,1.0,1.0,1.0,1.0,1.0,1.0,1.0,1.0,1.0,6.35,-1.379,0.0,          27P     46
6.35,-1.379,-0.3360720044,6.327766852,-1.466094689,-0.672143885,      27P     47
6.282961859,-1.639759855,-0.9748856619,6.209782509,-2.002521602,      27P     48
-1.342562281,6.159635605,-2.467297732,-1.544951859,6.147217366,       27P     49
-2.631297265,-1.592187356,6.132390145,-3.006066309,-1.648376261,      27P     50
6.146299233,-3.383063722,-1.595661254,6.162856114,-3.583431116,       27P     51
-1.533532965,6.219502489,-4.050228183,-1.302340954,6.292689807,       27P     52
-4.397693484,-0.9062899129,6.330968233,-4.546491028,                  27P     53
-0.6216160414,6.349997319,-4.621,-0.3108427818,6.349999567,           27P     54
-4.621,0.0,0.0,7.232121161,0.0,0.0,0.0,0,0;                           27P     55
110,6.349999567,-4.621,0.0,2.499999984,-4.621,0.0,0,0;                29P     56
126,20,5,0,0,1,0,0.0,0.0,0.0,0.0,0.0,0.0,1.177065803,                 31P     57
1.177065803,1.177065803,2.63718875,2.63718875,2.63718875,             31P     58
3.885476357,3.885476357,3.885476357,5.143028801,5.143028801,          31P     59
5.143028801,6.05435556,6.05435556,6.05435556,7.43847361,              31P     60
7.43847361,7.43847361,7.43847361,7.43847361,7.43847361,1.0,1.0,       31P     61
1.0,1.0,1.0,1.0,1.0,1.0,1.0,1.0,1.0,1.0,1.0,1.0,1.0,1.0,1.0,1.0,      31P     62
1.0,1.0,1.0,2.499999984,-4.621,0.0,2.49999981,-4.621,                 31P     63
-0.1664582244,2.486144026,-4.599633297,-0.3328794504,                 31P     64
2.458440694,-4.556908012,-0.4937998876,2.371878225,-4.419649139,      31P     65
-0.8329617974,2.246980424,-4.201172724,-1.114484483,2.172081256,      31P     66
-4.059300095,-1.24972367,2.035972697,-3.763083781,-1.459366848,       31P     67
1.937037976,-3.410431098,-1.582344401,1.905170984,-3.236698545,       31P     68
-1.618526071,1.886835855,-2.877969637,-1.6405885,1.949031927,         31P     69
-2.53119267,-1.566789707,1.997631518,-2.367931451,-1.507128905,       31P     70
2.095399836,-2.107445279,-1.372609336,2.203043347,-1.886394104,       31P     71
-1.187193219,2.24802875,-1.800858979,-1.100843124,2.356410694,        31P     72
-1.60574939,-0.8631293235,2.442486985,-1.467721569,                   31P     73
-0.5783643164,2.480842172,-1.408546311,-0.3914874329,2.5,-1.379,      31P     74
-0.1957438519,2.5,-1.379,0.0,0.0,7.43847361,0.0,0.0,0.0,0,0;          31P     75
110,2.5,-1.379,0.0,6.35,-1.379,0.0,0,0;                               33P     76
102,4,27,29,31,33,0,0;                                                35P     77
142,0,25,0,35,2,0,0;                                                  37P     78
144,25,1,0,37,0,0;                                                    39P     79
314,0.0,68.62745098,68.62745098,5HColor,0,0;                          41P     80
110,0.0,0.5,0.0,0.0,1.5,0.0,0,0;                                      43P     81
110,0.0,-7.0,2.5,0.0,0.0,2.5,0,0;                                     45P     82
120,43,45,0.0,6.283185307,0,0;                                        47P     83
110,0.0,-7.0,-2.5,0.0,0.0,-2.5,0,0;                                   49P     84
124,0.0,1.0,0.0,0.0,0.0,0.0,-1.0,0.0,-1.0,0.0,0.0,0.0,0,0;            51P     85
100,0.0,0.0,0.0,2.5,0.0,-2.5,0.0,0,0;                                 53P     86
110,0.0,0.0,2.5,0.0,-7.0,2.5,0,0;                                     55P     87
124,0.0,1.0,0.0,0.0,0.0,0.0,1.0,-7.0,1.0,0.0,0.0,0.0,0,0;             57P     88
100,0.0,0.0,0.0,2.5,0.0,-2.5,0.0,0,0;                                 59P     89
102,4,49,53,55,59,0,0;                                                61P     90
142,0,47,0,61,2,0,0;                                                  63P     91
126,17,5,0,0,1,0,7.43847361,7.43847361,7.43847361,7.43847361,         65P     92
7.43847361,7.43847361,9.203283928,9.203283928,9.203283928,            65P     93
11.07330785,11.07330785,11.07330785,12.31524156,12.31524156,          65P     94
12.31524156,13.14818911,13.14818911,13.14818911,14.87831663,          65P     95
14.87831663,14.87831663,14.87831663,14.87831663,14.87831663,1.0,      65P     96
1.0,1.0,1.0,1.0,1.0,1.0,1.0,1.0,1.0,1.0,1.0,1.0,1.0,1.0,1.0,1.0,      65P     97
1.0,2.5,-4.620999983,3.53176383E-008,2.499999996,-4.621000271,        65P     98
0.2495752522,2.468856099,-4.572964736,0.4992424114,2.40681362,        65P     99
-4.477049492,0.7296140195,2.243865529,-4.209057263,1.146365615,       65P    100
2.057577141,-3.814734167,1.434143281,1.966528643,-3.584984749,        65P    101
1.546487314,1.87668379,-3.151126675,1.652314077,1.913254894,          65P    102
-2.707753802,1.609182883,1.949328026,-2.537339881,1.567569476,        65P    103
2.029919985,-2.271702158,1.465243497,2.129356831,-2.039928352,        65P    104
1.313134975,2.170595531,-1.952685415,1.244624683,2.297084435,         65P    105
-1.703271633,1.012131834,2.410433987,-1.517330371,0.715944285,        65P    106
2.470066588,-1.42516504,0.4893529516,2.5,-1.379,0.2446769792,         65P    107
2.5,-1.379,0.0,7.43847361,14.87831663,0.0,0.0,0.0,0,0;                65P    108
126,20,5,0,0,1,0,0.0,0.0,0.0,0.0,0.0,0.0,1.384118051,                 67P    109
1.384118051,1.384118051,2.295444809,2.295444809,2.295444809,          67P    110
3.552997253,3.552997253,3.552997253,4.801284861,4.801284861,          67P    111
4.801284861,6.261407807,6.261407807,6.261407807,7.43847361,           67P    112
7.43847361,7.43847361,7.43847361,7.43847361,7.43847361,1.0,1.0,       67P    113
1.0,1.0,1.0,1.0,1.0,1.0,1.0,1.0,1.0,1.0,1.0,1.0,1.0,1.0,1.0,1.0,      67P    114
1.0,1.0,1.0,2.5,-1.379,0.0,2.5,-1.379,-0.1957438519,2.480842172,      67P    115
-1.408546311,-0.3914870594,2.442486634,-1.467721169,                  67P    116
-0.5783639565,2.356410925,-1.605749654,-0.8631295605,                 67P    117
2.248028598,-1.800858805,-1.100842968,2.203043202,-1.886393926,       67P    118
-1.187193009,2.095400036,-2.107445524,-1.372609626,1.997631243,       67P    119
-2.367931113,-1.507128505,1.949031862,-2.531192146,-1.56678956,       67P    120
1.886835919,-2.877970157,-1.640588647,1.90517092,-3.236698029,        67P    121
-1.618525926,1.937038229,-3.410430739,-1.582344839,2.0359724,         67P    122
-3.763084202,-1.459366336,2.172081603,-4.059299603,-1.249724269,      67P    123
2.2469808,-4.201172291,-1.114484874,2.371877921,-4.419649488,         67P    124
-0.8329614818,2.458440939,-4.556907731,-0.493800142,2.486145904,      67P    125
-4.599631264,-0.3328746764,2.500000002,-4.62099979,                   67P    126
-0.1664577704,2.5,-4.620999983,3.531763831E-008,0.0,7.43847361,       67P    127
0.0,0.0,0.0,0,0;                                                      67P    128
102,2,65,67,0,0;                                                      69P    129
142,0,47,0,69,2,0,0;                                                  71P    130
144,47,1,1,63,71,0,0;                                                 73P    131
110,0.0,0.5,0.0,0.0,1.5,0.0,0,0;                                      75P    132
110,0.0,-7.0,-2.5,0.0,0.0,-2.5,0,0;                                   77P    133
120,75,77,0.0,6.283185307,0,0;                                        79P    134
110,0.0,-7.0,2.5,0.0,0.0,2.5,0,0;                                     81P    135
124,0.0,-1.0,0.0,0.0,0.0,0.0,-1.0,0.0,1.0,0.0,0.0,0.0,0,0;            83P    136
100,0.0,0.0,0.0,2.5,0.0,-2.5,0.0,0,0;                                 85P    137
110,0.0,0.0,-2.5,0.0,-7.0,-2.5,0,0;                                   87P    138
124,0.0,-1.0,0.0,0.0,0.0,0.0,1.0,-7.0,-1.0,0.0,0.0,0.0,0,0;           89P    139
100,0.0,0.0,0.0,2.5,0.0,-2.5,0.0,0,0;                                 91P    140
102,4,81,85,87,91,0,0;                                                93P    141
142,0,79,0,93,2,0,0;                                                  95P    142
144,79,1,0,95,0,0;                                                    97P    143
314,72.94117647,76.8627451,78.43137255,5HColor,0,0;                   99P    144
108,0.0,1.0,0.0,0.0,0,0.0,0.0,2.5,1.0,0,0;                           101P    145
124,0.0,1.0,0.0,0.0,0.0,0.0,-1.0,0.0,-1.0,0.0,0.0,0.0,0,0;           103P    146
100,0.0,0.0,0.0,3.05,0.0,-3.05,0.0,0,0;                              105P    147
124,0.0,-1.0,0.0,0.0,0.0,0.0,-1.0,0.0,1.0,0.0,0.0,0.0,0,0;           107P    148
100,0.0,0.0,0.0,3.05,0.0,-3.05,0.0,0,0;                              109P    149
102,2,105,109,0,0;                                                   111P    150
142,0,101,0,111,2,0,0;                                               113P    151
124,0.0,-1.0,0.0,0.0,0.0,0.0,1.0,0.0,-1.0,0.0,0.0,0.0,0,0;           115P    152
100,0.0,0.0,0.0,2.5,0.0,-2.5,0.0,0,0;                                117P    153
124,0.0,1.0,0.0,0.0,0.0,0.0,1.0,0.0,1.0,0.0,0.0,0.0,0,0;             119P    154
100,0.0,0.0,0.0,2.5,0.0,-2.5,0.0,0,0;                                121P    155
102,2,117,121,0,0;                                                   123P    156
142,0,101,0,123,2,0,0;                                               125P    157
144,101,1,1,113,125,0,0;                                             127P    158
110,0.0,0.5,0.0,0.0,1.5,0.0,0,0;                                     129P    159
110,0.0,0.0,-3.05,0.0,8.0,-3.05,0,0;                                 131P    160
120,129,131,0.0,6.283185307,0,0;                                     133P    161
110,0.0,0.0,3.05,0.0,8.0,3.05,0,0;                                   135P    162
124,0.0,-1.0,0.0,0.0,0.0,0.0,-1.0,8.0,1.0,0.0,0.0,0.0,0,0;           137P    163
100,0.0,0.0,0.0,3.05,0.0,-3.05,0.0,0,0;                              139P    164
110,0.0,8.0,-3.05,0.0,0.0,-3.05,0,0;                                 141P    165
124,0.0,-1.0,0.0,0.0,0.0,0.0,1.0,0.0,-1.0,0.0,0.0,0.0,0,0;           143P    166
100,0.0,0.0,0.0,3.05,0.0,-3.05,0.0,0,0;                              145P    167
102,4,135,139,141,145,0,0;                                           147P    168
142,0,133,0,147,2,0,0;                                               149P    169
144,133,1,0,149,0,0;                                                 151P    170
110,0.0,0.5,0.0,0.0,1.5,0.0,0,0;                                     153P    171
110,0.0,0.0,3.05,0.0,8.0,3.05,0,0;                                   155P    172
120,153,155,0.0,6.283185307,0,0;                                     157P    173
110,0.0,0.0,-3.05,0.0,8.0,-3.05,0,0;                                 159P    174
124,0.0,1.0,0.0,0.0,0.0,0.0,-1.0,8.0,-1.0,0.0,0.0,0.0,0,0;           161P    175
100,0.0,0.0,0.0,3.05,0.0,-3.05,0.0,0,0;                              163P    176
110,0.0,8.0,3.05,0.0,0.0,3.05,0,0;                                   165P    177
124,0.0,1.0,0.0,0.0,0.0,0.0,1.0,0.0,1.0,0.0,0.0,0.0,0,0;             167P    178
100,0.0,0.0,0.0,3.05,0.0,-3.05,0.0,0,0;                              169P    179
102,4,159,163,165,169,0,0;                                           171P    180
142,0,157,0,171,2,0,0;                                               173P    181
126,14,5,0,0,1,0,7.347534895,7.347534895,7.347534895,                175P    182
7.347534895,7.347534895,7.347534895,9.956693718,9.956693718,         175P    183
9.956693718,11.13504251,11.13504251,11.13504251,12.7593134,          175P    184
12.7593134,12.7593134,14.69418829,14.69418829,14.69418829,           175P    185
14.69418829,14.69418829,14.69418829,1.0,1.0,1.0,1.0,1.0,1.0,1.0,     175P    186
1.0,1.0,1.0,1.0,1.0,1.0,1.0,1.0,3.05,1.379000203,                    175P    187
7.413103449E-007,3.04999991,1.378999274,0.368879881,2.994232681,     175P    188
1.483930463,0.7382130692,2.884973564,1.689305391,1.049753905,        175P    189
2.714638669,2.082679465,1.404841182,2.610059751,2.582861645,         175P    190
1.579374486,2.587734409,2.746874757,1.614286032,2.568456426,         175P    191
3.146072583,1.645242633,2.624544175,3.53685649,1.5554485,            175P    192
2.679755009,3.746321616,1.464636962,2.818871883,4.158215904,         175P    193
1.197950813,2.958133781,4.447992239,0.7984444684,3.0193136,          175P    194
4.563261863,0.5472640025,3.05,4.621,0.2736326309,3.05,4.621,0.0,     175P    195
7.347534895,14.69418829,0.0,0.0,0.0,0,0;                             175P    196
126,14,5,0,0,1,0,0.0,0.0,0.0,0.0,0.0,0.0,1.417280542,                177P    197
1.417280542,1.417280542,3.557411644,3.557411644,3.557411644,         177P    198
4.885283603,4.885283603,4.885283603,7.347534895,7.347534895,         177P    199
7.347534895,7.347534895,7.347534895,7.347534895,1.0,1.0,1.0,1.0,     177P    200
1.0,1.0,1.0,1.0,1.0,1.0,1.0,1.0,1.0,1.0,1.0,3.05,4.621,0.0,3.05,     177P    201
4.621,-0.2004337364,3.033535376,4.590020911,-0.400866797,            177P    202
3.000561782,4.527990801,-0.5927790999,2.888726857,4.306496478,       177P    203
-1.036732864,2.737571438,3.941202009,-1.36761671,2.648116588,        177P    204
3.681764131,-1.517693216,2.561294146,3.200284312,-1.65673567,        177P    205
2.589836736,2.705702892,-1.610905399,2.618979612,2.522100728,        177P    206
-1.565459454,2.735345755,2.031869731,-1.367804506,2.902652093,       177P    207
1.656485546,-0.9966440972,3.000336125,1.472450421,-0.6958140273,     177P    208
3.050000085,1.379001081,-0.348108822,3.05,1.379000203,               177P    209
7.413103449E-007,0.0,7.347534895,0.0,0.0,0.0,0,0;                    177P    210
102,2,175,177,0,0;                                                   179P    211
142,0,157,0,179,2,0,0;                                               181P    212
144,157,1,1,173,181,0,0;                                             183P    213
108,0.0,1.0,0.0,8.0,0,0.0,8.0,3.05,1.0,0,0;                          185P    214
124,0.0,1.0,0.0,0.0,0.0,0.0,-1.0,8.0,-1.0,0.0,0.0,0.0,0,0;           187P    215
100,0.0,0.0,0.0,6.35,0.0,-6.35,0.0,0,0;                              189P    216
124,0.0,-1.0,0.0,0.0,0.0,0.0,-1.0,8.0,1.0,0.0,0.0,0.0,0,0;           191P    217
100,0.0,0.0,0.0,6.35,0.0,-6.35,0.0,0,0;                              193P    218
102,2,189,193,0,0;                                                   195P    219
142,0,185,0,195,2,0,0;                                               197P    220
124,0.0,-1.0,0.0,0.0,0.0,0.0,1.0,8.0,-1.0,0.0,0.0,0.0,0,0;           199P    221
100,0.0,0.0,0.0,3.05,0.0,-3.05,0.0,0,0;                              201P    222
124,0.0,1.0,0.0,0.0,0.0,0.0,1.0,8.0,1.0,0.0,0.0,0.0,0,0;             203P    223
100,0.0,0.0,0.0,3.05,0.0,-3.05,0.0,0,0;                              205P    224
102,2,201,205,0,0;                                                   207P    225
142,0,185,0,207,2,0,0;                                               209P    226
144,185,1,1,197,209,0,0;                                             211P    227
110,0.0,0.5,0.0,0.0,1.5,0.0,0,0;                                     213P    228
110,0.0,-7.0,-6.35,0.0,8.0,-6.35,0,0;                                215P    229
120,213,215,0.0,6.283185307,0,0;                                     217P    230
110,0.0,8.0,6.35,0.0,-7.0,6.35,0,0;                                  219P    231
124,0.0,-1.0,0.0,0.0,0.0,0.0,-1.0,-7.0,1.0,0.0,0.0,0.0,0,0;          221P    232
100,0.0,0.0,0.0,6.35,0.0,-6.35,0.0,0,0;                              223P    233
110,0.0,-7.0,-6.35,0.0,8.0,-6.35,0,0;                                225P    234
124,0.0,-1.0,0.0,0.0,0.0,0.0,1.0,8.0,-1.0,0.0,0.0,0.0,0,0;           227P    235
100,0.0,0.0,0.0,6.35,0.0,-6.35,0.0,0,0;                              229P    236
102,4,219,223,225,229,0,0;                                           231P    237
142,0,217,0,231,2,0,0;                                               233P    238
144,217,1,0,233,0,0;                                                 235P    239
110,6.5,3.0,0.0,5.5,3.0,0.0,0,0;                                     237P    240
110,6.362136557,4.621,0.0,2.578060215,4.621,0.0,0,0;                 239P    241
120,237,239,0.0,6.283185307,0,0;                                     241P    242
126,14,5,0,0,1,0,0.0,0.0,0.0,0.0,0.0,0.0,2.376387933,                243P    243
2.376387933,2.376387933,3.572157509,3.572157509,3.572157509,         243P    244
5.034014984,5.034014984,5.034014984,7.232121162,7.232121162,         243P    245
7.232121162,7.232121162,7.232121162,7.232121162,1.0,1.0,1.0,1.0,     243P    246
1.0,1.0,1.0,1.0,1.0,1.0,1.0,1.0,1.0,1.0,1.0,6.35,4.621,0.0,6.35,     243P    247
4.621,-0.3360720044,6.327766852,4.533905311,-0.672143885,            243P    248
6.282961859,4.360240145,-0.9748856619,6.209782509,3.997478398,       243P    249
-1.342562281,6.159635605,3.532702268,-1.544951859,6.147217366,       243P    250
3.368702735,-1.592187356,6.132390145,2.993933691,-1.648376261,       243P    251
6.146299233,2.616936278,-1.595661254,6.162856114,2.416568884,        243P    252
-1.533532965,6.219502489,1.949771817,-1.302340954,6.292689807,       243P    253
1.602306516,-0.9062899129,6.330968233,1.453508972,-0.6216160415,     243P    254
6.349997319,1.379,-0.3108427818,6.349999567,1.379,0.0,0.0,           243P    255
7.232121162,0.0,0.0,0.0,0,0;                                         243P    256
110,6.349999567,1.379,0.0,3.049999135,1.379,0.0,0,0;                 245P    257
126,14,5,0,0,1,0,0.0,0.0,0.0,0.0,0.0,0.0,2.462251292,                247P    258
2.462251292,2.462251292,3.790123251,3.790123251,3.790123251,         247P    259
5.930254354,5.930254354,5.930254354,7.347534895,7.347534895,         247P    260
7.347534895,7.347534895,7.347534895,7.347534895,1.0,1.0,1.0,1.0,     247P    261
1.0,1.0,1.0,1.0,1.0,1.0,1.0,1.0,1.0,1.0,1.0,3.049999135,1.379,       247P    262
0.0,3.049995109,1.379,-0.3481131927,3.000318155,1.472447559,         247P    263
-0.6958302817,2.902651214,1.656484058,-0.9966426191,2.735346229,     247P    264
2.031870534,-1.367805303,2.618979356,2.522100295,-1.565459024,       247P    265
2.589836773,2.705702302,-1.610905476,2.561294085,3.200285263,        247P    266
-1.656735545,2.648116686,3.681762598,-1.517693416,2.737572151,       247P    267
3.941201081,-1.367617727,2.888726385,4.306497093,-1.03673219,        247P    268
3.000562094,4.527990394,-0.5927795461,3.033535376,4.590020911,       247P    269
-0.4008672818,3.05,4.621,-0.2004337364,3.05,4.621,0.0,0.0,           247P    270
7.347534895,0.0,0.0,0.0,0,0;                                         247P    271
110,3.05,4.621,0.0,6.35,4.621,0.0,0,0;                               249P    272
102,4,243,245,247,249,0,0;                                           251P    273
142,0,241,0,251,2,0,0;                                               253P    274
144,241,1,0,253,0,0;                                                 255P    275
110,6.5,3.0,0.0,5.5,3.0,0.0,0,0;                                     257P    276
110,6.355778582,1.379,-5.09304688E-012,2.5773435,1.379,              259P    277
-5.09304688E-012,0,0;                                                259P    278
120,257,259,0.0,6.283185307,0,0;                                     261P    279
126,11,5,0,0,1,0,7.232121162,7.232121162,7.232121162,                263P    280
7.232121162,7.232121162,7.232121162,8.615073206,8.615073206,         263P    281
8.615073206,11.00881079,11.00881079,11.00881079,14.46402964,         263P    282
14.46402964,14.46402964,14.46402964,14.46402964,14.46402964,1.0,     263P    283
1.0,1.0,1.0,1.0,1.0,1.0,1.0,1.0,1.0,1.0,1.0,6.349999567,1.379,       263P    284
0.0,6.350000982,1.379,0.1955686513,6.342470861,1.408493443,          263P    285
0.3911648221,6.327378436,1.46751523,0.5803385343,6.271105898,        263P    286
1.702627483,1.063231704,6.194207588,2.115116736,1.421378004,         263P    287
6.151256321,2.431623479,1.57632822,6.110122541,3.272772663,          263P    288
1.733670082,6.206758821,4.074454159,1.365052983,6.302997885,         263P    289
4.43687697,0.9772832076,6.35,4.621,0.4886417347,6.35,4.621,0.0,      263P    290
7.232121162,14.46402964,0.0,0.0,0.0,0,0;                             263P    291
110,6.35,4.621,0.0,3.05,4.621,0.0,0,0;                               265P    292
126,14,5,0,0,1,0,0.0,0.0,0.0,0.0,0.0,0.0,1.934874889,                267P    293
1.934874889,1.934874889,3.559145787,3.559145787,3.559145787,         267P    294
4.737494576,4.737494576,4.737494576,7.346653398,7.346653398,         267P    295
7.346653398,7.346653398,7.346653398,7.346653398,1.0,1.0,1.0,1.0,     267P    296
1.0,1.0,1.0,1.0,1.0,1.0,1.0,1.0,1.0,1.0,1.0,3.05,4.621,0.0,3.05,     267P    297
4.621,0.2736326309,3.0193136,4.563261863,0.5472649061,               267P    298
2.958133187,4.447993061,0.7984435956,2.818872381,4.158215214,        267P    299
1.197951546,2.679754591,3.746322196,1.464636347,2.62454412,          267P    300
3.536857373,1.555448386,2.568456467,3.146071942,1.645242715,         267P    301
2.58773438,2.746875222,1.614285972,2.610059942,2.582862001,          267P    302
1.57937482,2.714638246,2.082678676,1.404840442,2.8849745,            267P    303
1.689307138,1.049755544,2.994230551,1.483931105,0.7382107511,        267P    304
3.0500034,1.379,0.3688829856,3.049999135,1.379,0.0,0.0,              267P    305
7.346653398,0.0,0.0,0.0,0,0;                                         267P    306
110,3.049999135,1.379,0.0,6.349999567,1.379,0.0,0,0;                 269P    307
102,4,263,265,267,269,0,0;                                           271P    308
142,0,261,0,271,2,0,0;                                               273P    309
144,261,1,0,273,0,0;                                                 275P    310
108,0.0,1.0,0.0,-7.0,0,0.0,-7.0,6.35,1.0,0,0;                        277P    311
124,0.0,-1.0,0.0,0.0,0.0,0.0,1.0,-7.0,-1.0,0.0,0.0,0.0,0,0;          279P    312
100,0.0,0.0,0.0,6.35,0.0,-6.35,0.0,0,0;                              281P    313
124,0.0,1.0,0.0,0.0,0.0,0.0,1.0,-7.0,1.0,0.0,0.0,0.0,0,0;            283P    314
100,0.0,0.0,0.0,6.35,0.0,-6.35,0.0,0,0;                              285P    315
102,2,281,285,0,0;                                                   287P    316
142,0,277,0,287,2,0,0;                                               289P    317
124,0.0,1.0,0.0,0.0,0.0,0.0,-1.0,-7.0,-1.0,0.0,0.0,0.0,0,0;          291P    318
100,0.0,0.0,0.0,2.5,0.0,-2.5,0.0,0,0;                                293P    319
124,0.0,-1.0,0.0,0.0,0.0,0.0,-1.0,-7.0,1.0,0.0,0.0,0.0,0,0;          295P    320
100,0.0,0.0,0.0,2.5,0.0,-2.5,0.0,0,0;                                297P    321
102,2,293,297,0,0;                                                   299P    322
142,0,277,0,299,2,0,0;                                               301P    323
144,277,1,1,289,301,0,0;                                             303P    324
110,0.0,0.5,0.0,0.0,1.5,0.0,0,0;                                     305P    325
110,0.0,-7.0,6.35,0.0,8.0,6.35,0,0;                                  307P    326
120,305,307,0.0,6.283185307,0,0;                                     309P    327
110,0.0,8.0,-6.35,0.0,-7.0,-6.35,0,0;                                311P    328
124,0.0,1.0,0.0,0.0,0.0,0.0,-1.0,-7.0,-1.0,0.0,0.0,0.0,0,0;          313P    329
100,0.0,0.0,0.0,6.35,0.0,-6.35,0.0,0,0;                              315P    330
110,0.0,-7.0,6.35,0.0,8.0,6.35,0,0;                                  317P    331
124,0.0,1.0,0.0,0.0,0.0,0.0,1.0,8.0,1.0,0.0,0.0,0.0,0,0;             319P    332
100,0.0,0.0,0.0,6.35,0.0,-6.35,0.0,0,0;                              321P    333
102,4,311,315,317,321,0,0;                                           323P    334
142,0,309,0,323,2,0,0;                                               325P    335
126,14,5,0,0,1,0,0.0,0.0,0.0,0.0,0.0,0.0,2.198106178,                327P    336
2.198106178,2.198106178,3.659963652,3.659963652,3.659963652,         327P    337
4.855733229,4.855733229,4.855733229,7.232121161,7.232121161,         327P    338
7.232121161,7.232121161,7.232121161,7.232121161,1.0,1.0,1.0,1.0,     327P    339
1.0,1.0,1.0,1.0,1.0,1.0,1.0,1.0,1.0,1.0,1.0,6.35,-4.620999855,       327P    340
1.174532807E-007,6.350000006,-4.620999099,-0.3108419121,             327P    341
6.330979782,-4.546487218,-0.621611661,6.292690192,-4.397692206,      327P    342
-0.9062909175,6.219502234,-4.050229033,-1.302340285,6.162856284,     327P    343
-3.583430551,-1.53353341,6.146299225,-3.383063004,-1.595661236,      327P    344
6.132390151,-3.006066897,-1.648376275,6.147217361,-2.631296784,      327P    345
-1.592187344,6.159635498,-2.467297334,-1.544951586,6.209782721,      327P    346
-2.002522393,-1.342562822,6.282961437,-1.639758283,                  327P    347
-0.9748845852,6.327766852,-1.466094689,-0.6721421092,6.35,           327P    348
-1.379,-0.3360720044,6.35,-1.379,0.0,0.0,7.232121161,0.0,0.0,        327P    349
0.0,0,0;                                                             327P    350
126,11,5,0,0,1,0,0.0,0.0,0.0,0.0,0.0,0.0,3.455218842,                329P    351
3.455218842,3.455218842,5.84895643,5.84895643,5.84895643,            329P    352
7.231908474,7.231908474,7.231908474,7.231908474,7.231908474,         329P    353
7.231908474,1.0,1.0,1.0,1.0,1.0,1.0,1.0,1.0,1.0,1.0,1.0,1.0,         329P    354
6.35,-1.379,0.0,6.35,-1.379,0.4886417347,6.302997885,                329P    355
-1.56312303,0.9772794535,6.206758969,-1.925549842,1.365053342,       329P    356
6.110122439,-2.727224565,1.733669833,6.151256392,-3.568378441,       329P    357
1.576328392,6.194207136,-3.884884367,1.421376479,6.271106159,        329P    358
-4.29737188,1.063232584,6.327378285,-4.532485139,0.5803380254,       329P    359
6.342471073,-4.591506511,0.3911650849,6.349999996,-4.621000331,      329P    360
0.1955682955,6.35,-4.620999855,1.174532807E-007,0.0,7.231908474,     329P    361
0.0,0.0,0.0,0,0;                                                     329P    362
102,2,327,329,0,0;                                                   331P    363
142,0,309,0,331,2,0,0;                                               333P    364
126,14,5,0,0,1,0,0.0,0.0,0.0,0.0,0.0,0.0,2.198106178,                335P    365
2.198106178,2.198106178,3.659963653,3.659963653,3.659963653,         335P    366
4.855733229,4.855733229,4.855733229,7.232121162,7.232121162,         335P    367
7.232121162,7.232121162,7.232121162,7.232121162,1.0,1.0,1.0,1.0,     335P    368
1.0,1.0,1.0,1.0,1.0,1.0,1.0,1.0,1.0,1.0,1.0,6.35,1.379000145,        335P    369
1.174532411E-007,6.350000006,1.379000901,-0.3108419121,              335P    370
6.330979782,1.453512782,-0.621611661,6.292690192,1.602307794,        335P    371
-0.9062909175,6.219502234,1.949770967,-1.302340285,6.162856284,      335P    372
2.416569449,-1.53353341,6.146299225,2.616936996,-1.595661236,        335P    373
6.132390151,2.993933103,-1.648376275,6.147217361,3.368703216,        335P    374
-1.592187344,6.159635498,3.532702666,-1.544951586,6.209782721,       335P    375
3.997477607,-1.342562822,6.282961437,4.360241717,-0.9748845852,      335P    376
6.327766852,4.533905311,-0.6721421092,6.35,4.621,-0.3360720044,      335P    377
6.35,4.621,0.0,0.0,7.232121162,0.0,0.0,0.0,0,0;                      335P    378
126,11,5,0,0,1,0,0.0,0.0,0.0,0.0,0.0,0.0,3.455218842,                337P    379
3.455218842,3.455218842,5.84895643,5.84895643,5.84895643,            337P    380
7.231908474,7.231908474,7.231908474,7.231908474,7.231908474,         337P    381
7.231908474,1.0,1.0,1.0,1.0,1.0,1.0,1.0,1.0,1.0,1.0,1.0,1.0,         337P    382
6.35,4.621,0.0,6.35,4.621,0.4886417347,6.302997885,4.43687697,       337P    383
0.9772794535,6.206758969,4.074450158,1.365053342,6.110122439,        337P    384
3.272775435,1.733669833,6.151256392,2.431621559,1.576328392,         337P    385
6.194207136,2.115115633,1.421376479,6.271106159,1.70262812,          337P    386
1.063232584,6.327378285,1.467514861,0.5803380254,6.342471073,        337P    387
1.408493489,0.3911650849,6.349999996,1.378999669,0.1955682955,       337P    388
6.35,1.379000145,1.174532411E-007,0.0,7.231908474,0.0,0.0,0.0,0,     337P    389
0;                                                                   337P    390
102,2,335,337,0,0;                                                   339P    391
142,0,309,0,339,2,0,0;                                               341P    392
144,309,1,2,325,333,341,0,0;                                         343P    393
S      1G      5D    344P    393                                        T      1
