START RECORD GO HERE.                                                   S      1
1H,,1H;,22H1074.000.010.000.POLEA,26H1074.000.010.000.POLEA.igs,62HDASSAG      1
ULT SYSTEMES CATIA Version 5-6 Release 2018 - www.3ds.com,35HV5-6R2018_5G      2
.28.6.0.03-10-2020.20.00,32,75,6,75,15,22H1074.000.010.000.POLEA,1.0,2, G      3
2HMM,1000,1.0,15H20251008.091910,0.001,10000.0,2HPc,15HDESKTOP-CAESKE4, G      4
11,0,15H20251008.091910,;                                               G      5
     314       1       0       0       0       0       0       000000201D      1
     314       0       0       1       0                               0D      2
     110       2       0       0       0       0       0       001010001D      3
     110       0       0       1       0                               0D      4
     110       3       0       0       0       0       0       001010001D      5
     110       0       0       1       0                               0D      6
     120       4       0       0       0       0       0       001010001D      7
     120       0      -1       1       0                               0D      8
     110       5       0       0       0       0       0       001010001D      9
     110       0       0       1       0                               0D     10
     124       6       0       0       0       0       0       001020001D     11
     124       0       0       1       0                               0D     12
     100       7       0       0       0       0      11       001010001D     13
     100       0       0       1       0                               0D     14
     110       8       0       0       0       0       0       001010001D     15
     110       0       0       1       0                               0D     16
     124       9       0       0       0       0       0       001020001D     17
     124       0       0       1       0                               0D     18
     100      10       0       0       0       0      17       001010001D     19
     100       0       0       1       0                               0D     20
     102      11       0       0       0       0       0       001010001D     21
     102       0       0       1       0                               0D     22
     142      12       0       0       0       0       0       001010001D     23
     142       0       0       1       0                               0D     24
     144      13       0       0   10000       0       0       000000000D     25
     144       0      -1       1       0                PartBody       0D     26
     110      14       0       0       0       0       0       001010001D     27
     110       0       0       1       0                               0D     28
     110      15       0       0       0       0       0       001010001D     29
     110       0       0       1       0                               0D     30
     120      16       0       0       0       0       0       001010001D     31
     120       0      -1       1       0                               0D     32
     110      17       0       0       0       0       0       001010001D     33
     110       0       0       1       0                               0D     34
     124      18       0       0       0       0       0       001020001D     35
     124       0       0       1       0                               0D     36
     100      19       0       0       0       0      35       001010001D     37
     100       0       0       1       0                               0D     38
     110      20       0       0       0       0       0       001010001D     39
     110       0       0       1       0                               0D     40
     124      21       0       0       0       0       0       001020001D     41
     124       0       0       1       0                               0D     42
     100      22       0       0       0       0      41       001010001D     43
     100       0       0       1       0                               0D     44
     102      23       0       0       0       0       0       001010001D     45
     102       0       0       1       0                               0D     46
     142      24       0       0       0       0       0       001010001D     47
     142       0       0       1       0                               0D     48
     144      25       0       0   10000       0       0       000000000D     49
     144       0      -1       1       0                PartBody       0D     50
     110      26       0       0       0       0       0       001010001D     51
     110       0       0       1       0                               0D     52
     110      27       0       0       0       0       0       001010001D     53
     110       0       0       1       0                               0D     54
     120      28       0       0       0       0       0       001010001D     55
     120       0      -1       1       0                               0D     56
     110      29       0       0       0       0       0       001010001D     57
     110       0       0       1       0                               0D     58
     124      30       0       0       0       0       0       001020001D     59
     124       0       0       1       0                               0D     60
     100      31       0       0       0       0      59       001010001D     61
     100       0       0       1       0                               0D     62
     110      32       0       0       0       0       0       001010001D     63
     110       0       0       1       0                               0D     64
     124      33       0       0       0       0       0       001020001D     65
     124       0       0       1       0                               0D     66
     100      34       0       0       0       0      65       001010001D     67
     100       0       0       1       0                               0D     68
     102      35       0       0       0       0       0       001010001D     69
     102       0       0       1       0                               0D     70
     142      36       0       0       0       0       0       001010001D     71
     142       0       0       1       0                               0D     72
     144      37       0       0   10000       0       0       000000000D     73
     144       0      -1       1       0                PartBody       0D     74
     110      38       0       0       0       0       0       001010001D     75
     110       0       0       1       0                               0D     76
     110      39       0       0       0       0       0       001010001D     77
     110       0       0       1       0                               0D     78
     120      40       0       0       0       0       0       001010001D     79
     120       0      -1       1       0                               0D     80
     110      41       0       0       0       0       0       001010001D     81
     110       0       0       1       0                               0D     82
     124      42       0       0       0       0       0       001020001D     83
     124       0       0       1       0                               0D     84
     100      43       0       0       0       0      83       001010001D     85
     100       0       0       1       0                               0D     86
     110      44       0       0       0       0       0       001010001D     87
     110       0       0       1       0                               0D     88
     124      45       0       0       0       0       0       001020001D     89
     124       0       0       1       0                               0D     90
     100      46       0       0       0       0      89       001010001D     91
     100       0       0       1       0                               0D     92
     102      47       0       0       0       0       0       001010001D     93
     102       0       0       1       0                               0D     94
     142      48       0       0       0       0       0       001010001D     95
     142       0       0       1       0                               0D     96
     144      49       0       0   10000       0       0       000000000D     97
     144       0      -1       1       0                PartBody       0D     98
     110      50       0       0       0       0       0       001010001D     99
     110       0       0       1       0                               0D    100
     110      51       0       0       0       0       0       001010001D    101
     110       0       0       1       0                               0D    102
     120      52       0       0       0       0       0       001010001D    103
     120       0      -1       1       0                               0D    104
     110      53       0       0       0       0       0       001010001D    105
     110       0       0       1       0                               0D    106
     124      54       0       0       0       0       0       001020001D    107
     124       0       0       1       0                               0D    108
     100      55       0       0       0       0     107       001010001D    109
     100       0       0       1       0                               0D    110
     110      56       0       0       0       0       0       001010001D    111
     110       0       0       1       0                               0D    112
     124      57       0       0       0       0       0       001020001D    113
     124       0       0       1       0                               0D    114
     100      58       0       0       0       0     113       001010001D    115
     100       0       0       1       0                               0D    116
     102      59       0       0       0       0       0       001010001D    117
     102       0       0       1       0                               0D    118
     142      60       0       0       0       0       0       001010001D    119
     142       0       0       1       0                               0D    120
     144      61       0       0   10000       0       0       000000000D    121
     144       0      -1       1       0                PartBody       0D    122
     110      62       0       0       0       0       0       001010001D    123
     110       0       0       1       0                               0D    124
     110      63       0       0       0       0       0       001010001D    125
     110       0       0       1       0                               0D    126
     120      64       0       0       0       0       0       001010001D    127
     120       0      -1       1       0                               0D    128
     110      65       0       0       0       0       0       001010001D    129
     110       0       0       1       0                               0D    130
     124      66       0       0       0       0       0       001020001D    131
     124       0       0       1       0                               0D    132
     100      67       0       0       0       0     131       001010001D    133
     100       0       0       1       0                               0D    134
     110      68       0       0       0       0       0       001010001D    135
     110       0       0       1       0                               0D    136
     124      69       0       0       0       0       0       001020001D    137
     124       0       0       1       0                               0D    138
     100      70       0       0       0       0     137       001010001D    139
     100       0       0       1       0                               0D    140
     102      71       0       0       0       0       0       001010001D    141
     102       0       0       1       0                               0D    142
     142      72       0       0       0       0       0       001010001D    143
     142       0       0       1       0                               0D    144
     144      73       0       0   10000       0       0       000000000D    145
     144       0      -1       1       0                PartBody       0D    146
     110      74       0       0       0       0       0       001010001D    147
     110       0       0       1       0                               0D    148
     110      75       0       0       0       0       0       001010001D    149
     110       0       0       1       0                               0D    150
     120      76       0       0       0       0       0       001010001D    151
     120       0      -1       1       0                               0D    152
     110      77       0       0       0       0       0       001010001D    153
     110       0       0       1       0                               0D    154
     124      78       0       0       0       0       0       001020001D    155
     124       0       0       1       0                               0D    156
     100      79       0       0       0       0     155       001010001D    157
     100       0       0       1       0                               0D    158
     110      80       0       0       0       0       0       001010001D    159
     110       0       0       1       0                               0D    160
     124      81       0       0       0       0       0       001020001D    161
     124       0       0       1       0                               0D    162
     100      82       0       0       0       0     161       001010001D    163
     100       0       0       1       0                               0D    164
     102      83       0       0       0       0       0       001010001D    165
     102       0       0       1       0                               0D    166
     142      84       0       0       0       0       0       001010001D    167
     142       0       0       1       0                               0D    168
     144      85       0       0   10000       0       0       000000000D    169
     144       0      -1       1       0                PartBody       0D    170
     110      86       0       0       0       0       0       001010001D    171
     110       0       0       1       0                               0D    172
     110      87       0       0       0       0       0       001010001D    173
     110       0       0       1       0                               0D    174
     120      88       0       0       0       0       0       001010001D    175
     120       0      -1       1       0                               0D    176
     110      89       0       0       0       0       0       001010001D    177
     110       0       0       1       0                               0D    178
     124      90       0       0       0       0       0       001020001D    179
     124       0       0       1       0                               0D    180
     100      91       0       0       0       0     179       001010001D    181
     100       0       0       1       0                               0D    182
     110      92       0       0       0       0       0       001010001D    183
     110       0       0       1       0                               0D    184
     124      93       0       0       0       0       0       001020001D    185
     124       0       0       1       0                               0D    186
     100      94       0       0       0       0     185       001010001D    187
     100       0       0       1       0                               0D    188
     102      95       0       0       0       0       0       001010001D    189
     102       0       0       1       0                               0D    190
     142      96       0       0       0       0       0       001010001D    191
     142       0       0       1       0                               0D    192
     144      97       0       0   10000       0       0       000000000D    193
     144       0      -1       1       0                PartBody       0D    194
     108      98       0       0       0       0       0       001010001D    195
     108       0      -1       1       0                               0D    196
     124      99       0       0       0       0       0       001020001D    197
     124       0       0       1       0                               0D    198
     100     100       0       0       0       0     197       001010001D    199
     100       0       0       1       0                               0D    200
     124     101       0       0       0       0       0       001020001D    201
     124       0       0       1       0                               0D    202
     100     102       0       0       0       0     201       001010001D    203
     100       0       0       1       0                               0D    204
     102     103       0       0       0       0       0       001010001D    205
     102       0       0       1       0                               0D    206
     142     104       0       0       0       0       0       001010001D    207
     142       0       0       1       0                               0D    208
     124     105       0       0       0       0       0       001020001D    209
     124       0       0       1       0                               0D    210
     100     106       0       0       0       0     209       001010001D    211
     100       0       0       1       0                               0D    212
     124     107       0       0       0       0       0       001020001D    213
     124       0       0       1       0                               0D    214
     100     108       0       0       0       0     213       001010001D    215
     100       0       0       1       0                               0D    216
     102     109       0       0       0       0       0       001010001D    217
     102       0       0       1       0                               0D    218
     142     110       0       0       0       0       0       001010001D    219
     142       0       0       1       0                               0D    220
     144     111       0       0   10000       0       0       000000000D    221
     144       0      -1       1       0                PartBody       0D    222
     108     112       0       0       0       0       0       001010001D    223
     108       0      -1       1       0                               0D    224
     124     113       0       0       0       0       0       001020001D    225
     124       0       0       1       0                               0D    226
     100     114       0       0       0       0     225       001010001D    227
     100       0       0       1       0                               0D    228
     124     115       0       0       0       0       0       001020001D    229
     124       0       0       1       0                               0D    230
     100     116       0       0       0       0     229       001010001D    231
     100       0       0       1       0                               0D    232
     102     117       0       0       0       0       0       001010001D    233
     102       0       0       1       0                               0D    234
     142     118       0       0       0       0       0       001010001D    235
     142       0       0       1       0                               0D    236
     124     119       0       0       0       0       0       001020001D    237
     124       0       0       1       0                               0D    238
     100     120       0       0       0       0     237       001010001D    239
     100       0       0       1       0                               0D    240
     124     121       0       0       0       0       0       001020001D    241
     124       0       0       1       0                               0D    242
     100     122       0       0       0       0     241       001010001D    243
     100       0       0       1       0                               0D    244
     102     123       0       0       0       0       0       001010001D    245
     102       0       0       1       0                               0D    246
     142     124       0       0       0       0       0       001010001D    247
     142       0       0       1       0                               0D    248
     144     125       0       0   10000       0       0       000000000D    249
     144       0      -1       1       0                PartBody       0D    250
     108     126       0       0       0       0       0       001010001D    251
     108       0      -1       1       0                               0D    252
     124     127       0       0       0       0       0       001020001D    253
     124       0       0       1       0                               0D    254
     100     128       0       0       0       0     253       001010001D    255
     100       0       0       1       0                               0D    256
     124     129       0       0       0       0       0       001020001D    257
     124       0       0       1       0                               0D    258
     100     130       0       0       0       0     257       001010001D    259
     100       0       0       1       0                               0D    260
     102     131       0       0       0       0       0       001010001D    261
     102       0       0       1       0                               0D    262
     142     132       0       0       0       0       0       001010001D    263
     142       0       0       1       0                               0D    264
     124     133       0       0       0       0       0       001020001D    265
     124       0       0       1       0                               0D    266
     100     134       0       0       0       0     265       001010001D    267
     100       0       0       1       0                               0D    268
     124     135       0       0       0       0       0       001020001D    269
     124       0       0       1       0                               0D    270
     100     136       0       0       0       0     269       001010001D    271
     100       0       0       1       0                               0D    272
     102     137       0       0       0       0       0       001010001D    273
     102       0       0       1       0                               0D    274
     142     138       0       0       0       0       0       001010001D    275
     142       0       0       1       0                               0D    276
     144     139       0       0   10000       0       0       000000000D    277
     144       0      -1       1       0                PartBody       0D    278
     108     140       0       0       0       0       0       001010001D    279
     108       0      -1       1       0                               0D    280
     124     141       0       0       0       0       0       001020001D    281
     124       0       0       1       0                               0D    282
     100     142       0       0       0       0     281       001010001D    283
     100       0       0       1       0                               0D    284
     124     143       0       0       0       0       0       001020001D    285
     124       0       0       1       0                               0D    286
     100     144       0       0       0       0     285       001010001D    287
     100       0       0       1       0                               0D    288
     102     145       0       0       0       0       0       001010001D    289
     102       0       0       1       0                               0D    290
     142     146       0       0       0       0       0       001010001D    291
     142       0       0       1       0                               0D    292
     124     147       0       0       0       0       0       001020001D    293
     124       0       0       1       0                               0D    294
     100     148       0       0       0       0     293       001010001D    295
     100       0       0       1       0                               0D    296
     124     149       0       0       0       0       0       001020001D    297
     124       0       0       1       0                               0D    298
     100     150       0       0       0       0     297       001010001D    299
     100       0       0       1       0                               0D    300
     102     151       0       0       0       0       0       001010001D    301
     102       0       0       1       0                               0D    302
     142     152       0       0       0       0       0       001010001D    303
     142       0       0       1       0                               0D    304
     144     153       0       0   10000       0       0       000000000D    305
     144       0      -1       1       0                PartBody       0D    306
314,0.0,50.19607843,0.0,5HColor,0,0;                                   1P      1
110,0.0,0.0,0.0,0.0,1.0,0.0,0,0;                                       3P      2
110,0.0,-5.0,2.75,0.0,5.0,2.75,0,0;                                    5P      3
120,3,5,0.0,6.283185307,0,0;                                           7P      4
110,0.0,-5.0,-2.75,0.0,5.0,-2.75,0,0;                                  9P      5
124,0.0,1.0,0.0,0.0,0.0,0.0,-1.0,5.0,-1.0,0.0,0.0,0.0,0,0;            11P      6
100,0.0,0.0,0.0,2.75,0.0,-2.75,0.0,0,0;                               13P      7
110,0.0,5.0,2.75,0.0,-5.0,2.75,0,0;                                   15P      8
124,0.0,1.0,0.0,0.0,0.0,0.0,1.0,-5.0,1.0,0.0,0.0,0.0,0,0;             17P      9
100,0.0,0.0,0.0,2.75,0.0,-2.75,0.0,0,0;                               19P     10
102,4,9,13,15,19,0,0;                                                 21P     11
142,0,7,0,21,2,0,0;                                                   23P     12
144,7,1,0,23,0,0;                                                     25P     13
110,0.0,0.0,0.0,0.0,1.0,0.0,0,0;                                      27P     14
110,0.0,-5.0,-2.75,0.0,5.0,-2.75,0,0;                                 29P     15
120,27,29,0.0,6.283185307,0,0;                                        31P     16
110,0.0,-5.0,2.75,0.0,5.0,2.75,0,0;                                   33P     17
124,0.0,-1.0,0.0,0.0,0.0,0.0,-1.0,5.0,1.0,0.0,0.0,0.0,0,0;            35P     18
100,0.0,0.0,0.0,2.75,0.0,-2.75,0.0,0,0;                               37P     19
110,0.0,5.0,-2.75,0.0,-5.0,-2.75,0,0;                                 39P     20
124,0.0,-1.0,0.0,0.0,0.0,0.0,1.0,-5.0,-1.0,0.0,0.0,0.0,0,0;           41P     21
100,0.0,0.0,0.0,2.75,0.0,-2.75,0.0,0,0;                               43P     22
102,4,33,37,39,43,0,0;                                                45P     23
142,0,31,0,45,2,0,0;                                                  47P     24
144,31,1,0,47,0,0;                                                    49P     25
110,0.0,0.0,0.0,0.0,1.0,0.0,0,0;                                      51P     26
110,0.0,2.5,12.5,0.0,5.0,12.5,0,0;                                    53P     27
120,51,53,0.0,6.283185307,0,0;                                        55P     28
110,0.0,5.0,-12.5,0.0,2.5,-12.5,0,0;                                  57P     29
124,0.0,1.0,0.0,0.0,0.0,0.0,-1.0,2.5,-1.0,0.0,0.0,0.0,0,0;            59P     30
100,0.0,0.0,0.0,12.5,0.0,-12.5,0.0,0,0;                               61P     31
110,0.0,2.5,12.5,0.0,5.0,12.5,0,0;                                    63P     32
124,0.0,1.0,0.0,0.0,0.0,0.0,1.0,5.0,1.0,0.0,0.0,0.0,0,0;              65P     33
100,0.0,0.0,0.0,12.5,0.0,-12.5,0.0,0,0;                               67P     34
102,4,57,61,63,67,0,0;                                                69P     35
142,0,55,0,69,2,0,0;                                                  71P     36
144,55,1,0,71,0,0;                                                    73P     37
110,0.0,0.0,0.0,0.0,1.0,0.0,0,0;                                      75P     38
110,0.0,2.5,-12.5,0.0,5.0,-12.5,0,0;                                  77P     39
120,75,77,0.0,6.283185307,0,0;                                        79P     40
110,0.0,5.0,12.5,0.0,2.5,12.5,0,0;                                    81P     41
124,0.0,-1.0,0.0,0.0,0.0,0.0,-1.0,2.5,1.0,0.0,0.0,0.0,0,0;            83P     42
100,0.0,0.0,0.0,12.5,0.0,-12.5,0.0,0,0;                               85P     43
110,0.0,2.5,-12.5,0.0,5.0,-12.5,0,0;                                  87P     44
124,0.0,-1.0,0.0,0.0,0.0,0.0,1.0,5.0,-1.0,0.0,0.0,0.0,0,0;            89P     45
100,0.0,0.0,0.0,12.5,0.0,-12.5,0.0,0,0;                               91P     46
102,4,81,85,87,91,0,0;                                                93P     47
142,0,79,0,93,2,0,0;                                                  95P     48
144,79,1,0,95,0,0;                                                    97P     49
110,0.0,0.0,0.0,0.0,1.0,0.0,0,0;                                      99P     50
110,0.0,-2.5,10.0,0.0,2.5,10.0,0,0;                                  101P     51
120,99,101,0.0,6.283185307,0,0;                                      103P     52
110,0.0,2.5,-10.0,0.0,-2.5,-10.0,0,0;                                105P     53
124,0.0,1.0,0.0,0.0,0.0,0.0,-1.0,-2.5,-1.0,0.0,0.0,0.0,0,0;          107P     54
100,0.0,0.0,0.0,10.0,0.0,-10.0,0.0,0,0;                              109P     55
110,0.0,-2.5,10.0,0.0,2.5,10.0,0,0;                                  111P     56
124,0.0,1.0,0.0,0.0,0.0,0.0,1.0,2.5,1.0,0.0,0.0,0.0,0,0;             113P     57
100,0.0,0.0,0.0,10.0,0.0,-10.0,0.0,0,0;                              115P     58
102,4,105,109,111,115,0,0;                                           117P     59
142,0,103,0,117,2,0,0;                                               119P     60
144,103,1,0,119,0,0;                                                 121P     61
110,0.0,0.0,0.0,0.0,1.0,0.0,0,0;                                     123P     62
110,0.0,-2.5,-10.0,0.0,2.5,-10.0,0,0;                                125P     63
120,123,125,0.0,6.283185307,0,0;                                     127P     64
110,0.0,2.5,10.0,0.0,-2.5,10.0,0,0;                                  129P     65
124,0.0,-1.0,0.0,0.0,0.0,0.0,-1.0,-2.5,1.0,0.0,0.0,0.0,0,0;          131P     66
100,0.0,0.0,0.0,10.0,0.0,-10.0,0.0,0,0;                              133P     67
110,0.0,-2.5,-10.0,0.0,2.5,-10.0,0,0;                                135P     68
124,0.0,-1.0,0.0,0.0,0.0,0.0,1.0,2.5,-1.0,0.0,0.0,0.0,0,0;           137P     69
100,0.0,0.0,0.0,10.0,0.0,-10.0,0.0,0,0;                              139P     70
102,4,129,133,135,139,0,0;                                           141P     71
142,0,127,0,141,2,0,0;                                               143P     72
144,127,1,0,143,0,0;                                                 145P     73
110,0.0,0.0,0.0,0.0,1.0,0.0,0,0;                                     147P     74
110,0.0,-5.0,12.5,0.0,-2.5,12.5,0,0;                                 149P     75
120,147,149,0.0,6.283185307,0,0;                                     151P     76
110,0.0,-2.5,-12.5,0.0,-5.0,-12.5,0,0;                               153P     77
124,0.0,1.0,0.0,0.0,0.0,0.0,-1.0,-5.0,-1.0,0.0,0.0,0.0,0,0;          155P     78
100,0.0,0.0,0.0,12.5,0.0,-12.5,0.0,0,0;                              157P     79
110,0.0,-5.0,12.5,0.0,-2.5,12.5,0,0;                                 159P     80
124,0.0,1.0,0.0,0.0,0.0,0.0,1.0,-2.5,1.0,0.0,0.0,0.0,0,0;            161P     81
100,0.0,0.0,0.0,12.5,0.0,-12.5,0.0,0,0;                              163P     82
102,4,153,157,159,163,0,0;                                           165P     83
142,0,151,0,165,2,0,0;                                               167P     84
144,151,1,0,167,0,0;                                                 169P     85
110,0.0,0.0,0.0,0.0,1.0,0.0,0,0;                                     171P     86
110,0.0,-5.0,-12.5,0.0,-2.5,-12.5,0,0;                               173P     87
120,171,173,0.0,6.283185307,0,0;                                     175P     88
110,0.0,-2.5,12.5,0.0,-5.0,12.5,0,0;                                 177P     89
124,0.0,-1.0,0.0,0.0,0.0,0.0,-1.0,-5.0,1.0,0.0,0.0,0.0,0,0;          179P     90
100,0.0,0.0,0.0,12.5,0.0,-12.5,0.0,0,0;                              181P     91
110,0.0,-5.0,-12.5,0.0,-2.5,-12.5,0,0;                               183P     92
124,0.0,-1.0,0.0,0.0,0.0,0.0,1.0,-2.5,-1.0,0.0,0.0,0.0,0,0;          185P     93
100,0.0,0.0,0.0,12.5,0.0,-12.5,0.0,0,0;                              187P     94
102,4,177,181,183,187,0,0;                                           189P     95
142,0,175,0,189,2,0,0;                                               191P     96
144,175,1,0,191,0,0;                                                 193P     97
108,0.0,1.0,0.0,5.0,0,0.0,5.0,12.5,1.0,0,0;                          195P     98
124,0.0,1.0,0.0,0.0,0.0,0.0,-1.0,5.0,-1.0,0.0,0.0,0.0,0,0;           197P     99
100,0.0,0.0,0.0,12.5,0.0,-12.5,0.0,0,0;                              199P    100
124,0.0,-1.0,0.0,0.0,0.0,0.0,-1.0,5.0,1.0,0.0,0.0,0.0,0,0;           201P    101
100,0.0,0.0,0.0,12.5,0.0,-12.5,0.0,0,0;                              203P    102
102,2,199,203,0,0;                                                   205P    103
142,0,195,0,205,2,0,0;                                               207P    104
124,0.0,-1.0,0.0,0.0,0.0,0.0,1.0,5.0,-1.0,0.0,0.0,0.0,0,0;           209P    105
100,0.0,0.0,0.0,2.75,0.0,-2.75,0.0,0,0;                              211P    106
124,0.0,1.0,0.0,0.0,0.0,0.0,1.0,5.0,1.0,0.0,0.0,0.0,0,0;             213P    107
100,0.0,0.0,0.0,2.75,0.0,-2.75,0.0,0,0;                              215P    108
102,2,211,215,0,0;                                                   217P    109
142,0,195,0,217,2,0,0;                                               219P    110
144,195,1,1,207,219,0,0;                                             221P    111
108,0.0,1.0,0.0,2.5,0,0.0,2.5,10.0,1.0,0,0;                          223P    112
124,0.0,-1.0,0.0,0.0,0.0,0.0,1.0,2.5,-1.0,0.0,0.0,0.0,0,0;           225P    113
100,0.0,0.0,0.0,12.5,0.0,-12.5,0.0,0,0;                              227P    114
124,0.0,1.0,0.0,0.0,0.0,0.0,1.0,2.5,1.0,0.0,0.0,0.0,0,0;             229P    115
100,0.0,0.0,0.0,12.5,0.0,-12.5,0.0,0,0;                              231P    116
102,2,227,231,0,0;                                                   233P    117
142,0,223,0,233,2,0,0;                                               235P    118
124,0.0,1.0,0.0,0.0,0.0,0.0,-1.0,2.5,-1.0,0.0,0.0,0.0,0,0;           237P    119
100,0.0,0.0,0.0,10.0,0.0,-10.0,0.0,0,0;                              239P    120
124,0.0,-1.0,0.0,0.0,0.0,0.0,-1.0,2.5,1.0,0.0,0.0,0.0,0,0;           241P    121
100,0.0,0.0,0.0,10.0,0.0,-10.0,0.0,0,0;                              243P    122
102,2,239,243,0,0;                                                   245P    123
142,0,223,0,245,2,0,0;                                               247P    124
144,223,1,1,235,247,0,0;                                             249P    125
108,0.0,1.0,0.0,-2.5,0,0.0,-2.5,12.5,1.0,0,0;                        251P    126
124,0.0,1.0,0.0,0.0,0.0,0.0,-1.0,-2.5,-1.0,0.0,0.0,0.0,0,0;          253P    127
100,0.0,0.0,0.0,12.5,0.0,-12.5,0.0,0,0;                              255P    128
124,0.0,-1.0,0.0,0.0,0.0,0.0,-1.0,-2.5,1.0,0.0,0.0,0.0,0,0;          257P    129
100,0.0,0.0,0.0,12.5,0.0,-12.5,0.0,0,0;                              259P    130
102,2,255,259,0,0;                                                   261P    131
142,0,251,0,261,2,0,0;                                               263P    132
124,0.0,-1.0,0.0,0.0,0.0,0.0,1.0,-2.5,-1.0,0.0,0.0,0.0,0,0;          265P    133
100,0.0,0.0,0.0,10.0,0.0,-10.0,0.0,0,0;                              267P    134
124,0.0,1.0,0.0,0.0,0.0,0.0,1.0,-2.5,1.0,0.0,0.0,0.0,0,0;            269P    135
100,0.0,0.0,0.0,10.0,0.0,-10.0,0.0,0,0;                              271P    136
102,2,267,271,0,0;                                                   273P    137
142,0,251,0,273,2,0,0;                                               275P    138
144,251,1,1,263,275,0,0;                                             277P    139
108,0.0,1.0,0.0,-5.0,0,0.0,-5.0,12.5,1.0,0,0;                        279P    140
124,0.0,-1.0,0.0,0.0,0.0,0.0,1.0,-5.0,-1.0,0.0,0.0,0.0,0,0;          281P    141
100,0.0,0.0,0.0,12.5,0.0,-12.5,0.0,0,0;                              283P    142
124,0.0,1.0,0.0,0.0,0.0,0.0,1.0,-5.0,1.0,0.0,0.0,0.0,0,0;            285P    143
100,0.0,0.0,0.0,12.5,0.0,-12.5,0.0,0,0;                              287P    144
102,2,283,287,0,0;                                                   289P    145
142,0,279,0,289,2,0,0;                                               291P    146
124,0.0,1.0,0.0,0.0,0.0,0.0,-1.0,-5.0,-1.0,0.0,0.0,0.0,0,0;          293P    147
100,0.0,0.0,0.0,2.75,0.0,-2.75,0.0,0,0;                              295P    148
124,0.0,-1.0,0.0,0.0,0.0,0.0,-1.0,-5.0,1.0,0.0,0.0,0.0,0,0;          297P    149
100,0.0,0.0,0.0,2.75,0.0,-2.75,0.0,0,0;                              299P    150
102,2,295,299,0,0;                                                   301P    151
142,0,279,0,301,2,0,0;                                               303P    152
144,279,1,1,291,303,0,0;                                             305P    153
S      1G      5D    306P    153                                        T      1
