START RECORD GO HERE.                                                   S      1
1H,,1H;,28H1074.000.015.000.BUJE_A_CODO,32H1074.000.015.000.BUJE_A_CODO.G      1
igs,62HDASSAULT SYSTEMES CATIA Version 5-6 Release 2018 - www.3ds.com,  G      2
35HV5-6R2018_5.28.6.0.03-10-2020.20.00,32,75,6,75,15,28H1074.000.015.000G      3
.BUJE_A_CODO,1.0,2,2HMM,1000,1.0,15H20251008.092316,0.001,10000.0,2HPc, G      4
15HDESKTOP-CAESKE4,11,0,15H20251008.092316,;                            G      5
     314       1       0       0       0       0       0       000000201D      1
     314       0       0       1       0                               0D      2
     110       2       0       0       0       0       0       001010001D      3
     110       0       0       1       0                               0D      4
     110       3       0       0       0       0       0       001010001D      5
     110       0       0       1       0                               0D      6
     120       4       0       0       0       0       0       001010001D      7
     120       0      -1       1       0                               0D      8
     110       5       0       0       0       0       0       001010001D      9
     110       0       0       1       0                               0D     10
     124       6       0       0       0       0       0       001020001D     11
     124       0       0       1       0                               0D     12
     100       7       0       0       0       0      11       001010001D     13
     100       0       0       1       0                               0D     14
     110       8       0       0       0       0       0       001010001D     15
     110       0       0       1       0                               0D     16
     124       9       0       0       0       0       0       001020001D     17
     124       0       0       1       0                               0D     18
     100      10       0       0       0       0      17       001010001D     19
     100       0       0       1       0                               0D     20
     102      11       0       0       0       0       0       001010001D     21
     102       0       0       1       0                               0D     22
     142      12       0       0       0       0       0       001010001D     23
     142       0       0       1       0                               0D     24
     144      13       0       0   10000       0       0       000000000D     25
     144       0      -1       1       0                PartBody       0D     26
     110      14       0       0       0       0       0       001010001D     27
     110       0       0       1       0                               0D     28
     110      15       0       0       0       0       0       001010001D     29
     110       0       0       1       0                               0D     30
     120      16       0       0       0       0       0       001010001D     31
     120       0      -1       1       0                               0D     32
     110      17       0       0       0       0       0       001010001D     33
     110       0       0       1       0                               0D     34
     124      18       0       0       0       0       0       001020001D     35
     124       0       0       1       0                               0D     36
     100      19       0       0       0       0      35       001010001D     37
     100       0       0       1       0                               0D     38
     110      20       0       0       0       0       0       001010001D     39
     110       0       0       1       0                               0D     40
     124      21       0       0       0       0       0       001020001D     41
     124       0       0       1       0                               0D     42
     100      22       0       0       0       0      41       001010001D     43
     100       0       0       1       0                               0D     44
     102      23       0       0       0       0       0       001010001D     45
     102       0       0       1       0                               0D     46
     142      24       0       0       0       0       0       001010001D     47
     142       0       0       1       0                               0D     48
     144      25       0       0   10000       0       0       000000000D     49
     144       0      -1       1       0                PartBody       0D     50
     108      26       0       0       0       0       0       001010001D     51
     108       0      -1       1       0                               0D     52
     124      27       0       0       0       0       0       001020001D     53
     124       0       0       1       0                               0D     54
     100      28       0       0       0       0      53       001010001D     55
     100       0       0       1       0                               0D     56
     124      29       0       0       0       0       0       001020001D     57
     124       0       0       1       0                               0D     58
     100      30       0       0       0       0      57       001010001D     59
     100       0       0       1       0                               0D     60
     102      31       0       0       0       0       0       001010001D     61
     102       0       0       1       0                               0D     62
     142      32       0       0       0       0       0       001010001D     63
     142       0       0       1       0                               0D     64
     124      33       0       0       0       0       0       001020001D     65
     124       0       0       1       0                               0D     66
     100      34       0       0       0       0      65       001010001D     67
     100       0       0       1       0                               0D     68
     124      35       0       0       0       0       0       001020001D     69
     124       0       0       1       0                               0D     70
     100      36       0       0       0       0      69       001010001D     71
     100       0       0       1       0                               0D     72
     102      37       0       0       0       0       0       001010001D     73
     102       0       0       1       0                               0D     74
     142      38       0       0       0       0       0       001010001D     75
     142       0       0       1       0                               0D     76
     144      39       0       0   10000       0       0       000000000D     77
     144       0      -1       1       0                PartBody       0D     78
     110      40       0       0       0       0       0       001010001D     79
     110       0       0       1       0                               0D     80
     110      41       0       0       0       0       0       001010001D     81
     110       0       0       1       0                               0D     82
     120      42       0       0       0       0       0       001010001D     83
     120       0      -1       1       0                               0D     84
     110      43       0       0       0       0       0       001010001D     85
     110       0       0       1       0                               0D     86
     124      44       0       0       0       0       0       001020001D     87
     124       0       0       1       0                               0D     88
     100      45       0       0       0       0      87       001010001D     89
     100       0       0       1       0                               0D     90
     110      46       0       0       0       0       0       001010001D     91
     110       0       0       1       0                               0D     92
     124      47       0       0       0       0       0       001020001D     93
     124       0       0       1       0                               0D     94
     100      48       0       0       0       0      93       001010001D     95
     100       0       0       1       0                               0D     96
     102      49       0       0       0       0       0       001010001D     97
     102       0       0       1       0                               0D     98
     142      50       0       0       0       0       0       001010001D     99
     142       0       0       1       0                               0D    100
     144      51       0       0   10000       0       0       000000000D    101
     144       0      -1       1       0                PartBody       0D    102
     110      52       0       0       0       0       0       001010001D    103
     110       0       0       1       0                               0D    104
     110      53       0       0       0       0       0       001010001D    105
     110       0       0       1       0                               0D    106
     120      54       0       0       0       0       0       001010001D    107
     120       0      -1       1       0                               0D    108
     110      55       0       0       0       0       0       001010001D    109
     110       0       0       1       0                               0D    110
     124      56       0       0       0       0       0       001020001D    111
     124       0       0       1       0                               0D    112
     100      57       0       0       0       0     111       001010001D    113
     100       0       0       1       0                               0D    114
     110      58       0       0       0       0       0       001010001D    115
     110       0       0       1       0                               0D    116
     124      59       0       0       0       0       0       001020001D    117
     124       0       0       1       0                               0D    118
     100      60       0       0       0       0     117       001010001D    119
     100       0       0       1       0                               0D    120
     102      61       0       0       0       0       0       001010001D    121
     102       0       0       1       0                               0D    122
     142      62       0       0       0       0       0       001010001D    123
     142       0       0       1       0                               0D    124
     144      63       0       0   10000       0       0       000000000D    125
     144       0      -1       1       0                PartBody       0D    126
     108      64       0       0       0       0       0       001010001D    127
     108       0      -1       1       0                               0D    128
     124      65       0       0       0       0       0       001020001D    129
     124       0       0       1       0                               0D    130
     100      66       0       0       0       0     129       001010001D    131
     100       0       0       1       0                               0D    132
     124      67       0       0       0       0       0       001020001D    133
     124       0       0       1       0                               0D    134
     100      68       0       0       0       0     133       001010001D    135
     100       0       0       1       0                               0D    136
     102      69       0       0       0       0       0       001010001D    137
     102       0       0       1       0                               0D    138
     142      70       0       0       0       0       0       001010001D    139
     142       0       0       1       0                               0D    140
     124      71       0       0       0       0       0       001020001D    141
     124       0       0       1       0                               0D    142
     100      72       0       0       0       0     141       001010001D    143
     100       0       0       1       0                               0D    144
     124      73       0       0       0       0       0       001020001D    145
     124       0       0       1       0                               0D    146
     100      74       0       0       0       0     145       001010001D    147
     100       0       0       1       0                               0D    148
     102      75       0       0       0       0       0       001010001D    149
     102       0       0       1       0                               0D    150
     142      76       0       0       0       0       0       001010001D    151
     142       0       0       1       0                               0D    152
     144      77       0       0   10000       0       0       000000000D    153
     144       0      -1       1       0                PartBody       0D    154
     110      78       0       0       0       0       0       001010001D    155
     110       0       0       1       0                               0D    156
     110      79       0       0       0       0       0       001010001D    157
     110       0       0       1       0                               0D    158
     120      80       0       0       0       0       0       001010001D    159
     120       0      -1       1       0                               0D    160
     124      81       0       0       0       0       0       001020001D    161
     124       0       0       1       0                               0D    162
     100      82       0       0       0       0     161       001010001D    163
     100       0       0       1       0                               0D    164
     110      83       0       0       0       0       0       001010001D    165
     110       0       0       1       0                               0D    166
     124      84       0       0       0       0       0       001020001D    167
     124       0       0       1       0                               0D    168
     100      85       0       0       0       0     167       001010001D    169
     100       0       0       1       0                               0D    170
     110      86       0       0       0       0       0       001010001D    171
     110       0       0       1       0                               0D    172
     102      87       0       0       0       0       0       001010001D    173
     102       0       0       1       0                               0D    174
     142      88       0       0       0       0       0       001010001D    175
     142       0       0       1       0                               0D    176
     144      89       0       0   10000       0       0       000000000D    177
     144       0      -1       1       0                PartBody       0D    178
     110      90       0       0       0       0       0       001010001D    179
     110       0       0       1       0                               0D    180
     110      91       0       0       0       0       0       001010001D    181
     110       0       0       1       0                               0D    182
     120      92       0       0       0       0       0       001010001D    183
     120       0      -1       1       0                               0D    184
     124      93       0       0       0       0       0       001020001D    185
     124       0       0       1       0                               0D    186
     100      94       0       0       0       0     185       001010001D    187
     100       0       0       1       0                               0D    188
     110      95       0       0       0       0       0       001010001D    189
     110       0       0       1       0                               0D    190
     124      96       0       0       0       0       0       001020001D    191
     124       0       0       1       0                               0D    192
     100      97       0       0       0       0     191       001010001D    193
     100       0       0       1       0                               0D    194
     110      98       0       0       0       0       0       001010001D    195
     110       0       0       1       0                               0D    196
     102      99       0       0       0       0       0       001010001D    197
     102       0       0       1       0                               0D    198
     142     100       0       0       0       0       0       001010001D    199
     142       0       0       1       0                               0D    200
     144     101       0       0   10000       0       0       000000000D    201
     144       0      -1       1       0                PartBody       0D    202
     108     102       0       0       0       0       0       001010001D    203
     108       0      -1       1       0                               0D    204
     124     103       0       0       0       0       0       001020001D    205
     124       0       0       1       0                               0D    206
     100     104       0       0       0       0     205       001010001D    207
     100       0       0       1       0                               0D    208
     124     105       0       0       0       0       0       001020001D    209
     124       0       0       1       0                               0D    210
     100     106       0       0       0       0     209       001010001D    211
     100       0       0       1       0                               0D    212
     102     107       0       0       0       0       0       001010001D    213
     102       0       0       1       0                               0D    214
     142     108       0       0       0       0       0       001010001D    215
     142       0       0       1       0                               0D    216
     124     109       0       0       0       0       0       001020001D    217
     124       0       0       1       0                               0D    218
     100     110       0       0       0       0     217       001010001D    219
     100       0       0       1       0                               0D    220
     124     111       0       0       0       0       0       001020001D    221
     124       0       0       1       0                               0D    222
     100     112       0       0       0       0     221       001010001D    223
     100       0       0       1       0                               0D    224
     102     113       0       0       0       0       0       001010001D    225
     102       0       0       1       0                               0D    226
     142     114       0       0       0       0       0       001010001D    227
     142       0       0       1       0                               0D    228
     144     115       0       0   10000       0       0       000000000D    229
     144       0      -1       1       0                PartBody       0D    230
314,82.74509804,69.80392157,49.01960784,5HColor,0,0;                   1P      1
110,0.0,0.0,-0.75,0.0,0.0,0.25,0,0;                                    3P      2
110,12.5,0.0,-1.5,12.5,0.0,0.0,0,0;                                    5P      3
120,3,5,0.0,6.283185307,0,0;                                           7P      4
110,12.5,0.0,-1.5,12.5,0.0,0.0,0,0;                                    9P      5
124,1.0,0.0,0.0,0.0,0.0,1.0,0.0,0.0,0.0,0.0,1.0,0.0,0,0;              11P      6
100,0.0,0.0,0.0,12.5,0.0,-12.5,0.0,0,0;                               13P      7
110,-12.5,0.0,0.0,-12.5,0.0,-1.5,0,0;                                 15P      8
124,-1.0,0.0,0.0,0.0,0.0,1.0,0.0,0.0,0.0,0.0,-1.0,-1.5,0,0;           17P      9
100,0.0,0.0,0.0,12.5,0.0,-12.5,0.0,0,0;                               19P     10
102,4,9,13,15,19,0,0;                                                 21P     11
142,0,7,0,21,2,0,0;                                                   23P     12
144,7,1,0,23,0,0;                                                     25P     13
110,0.0,0.0,-0.75,0.0,0.0,0.25,0,0;                                   27P     14
110,-12.5,0.0,-1.5,-12.5,0.0,0.0,0,0;                                 29P     15
120,27,29,0.0,6.283185307,0,0;                                        31P     16
110,-12.5,0.0,-1.5,-12.5,0.0,0.0,0,0;                                 33P     17
124,-1.0,0.0,0.0,0.0,0.0,-1.0,0.0,0.0,0.0,0.0,1.0,0.0,0,0;            35P     18
100,0.0,0.0,0.0,12.5,0.0,-12.5,0.0,0,0;                               37P     19
110,12.5,0.0,0.0,12.5,0.0,-1.5,0,0;                                   39P     20
124,1.0,0.0,0.0,0.0,0.0,-1.0,0.0,0.0,0.0,0.0,-1.0,-1.5,0,0;           41P     21
100,0.0,0.0,0.0,12.5,0.0,-12.5,0.0,0,0;                               43P     22
102,4,33,37,39,43,0,0;                                                45P     23
142,0,31,0,45,2,0,0;                                                  47P     24
144,31,1,0,47,0,0;                                                    49P     25
108,0.0,0.0,1.0,0.0,0,0.0,0.0,0.0,1.0,0,0;                            51P     26
124,1.0,0.0,0.0,0.0,0.0,-1.0,0.0,0.0,0.0,0.0,-1.0,0.0,0,0;            53P     27
100,0.0,0.0,0.0,12.5,0.0,-12.5,0.0,0,0;                               55P     28
124,-1.0,0.0,0.0,0.0,0.0,1.0,0.0,0.0,0.0,0.0,-1.0,0.0,0,0;            57P     29
100,0.0,0.0,0.0,12.5,0.0,-12.5,0.0,0,0;                               59P     30
102,2,55,59,0,0;                                                      61P     31
142,0,51,0,61,2,0,0;                                                  63P     32
124,1.0,0.0,0.0,0.0,0.0,1.0,0.0,0.0,0.0,0.0,1.0,0.0,0,0;              65P     33
100,0.0,0.0,0.0,8.0,0.0,-8.0,0.0,0,0;                                 67P     34
124,-1.0,0.0,0.0,0.0,0.0,-1.0,0.0,0.0,0.0,0.0,1.0,0.0,0,0;            69P     35
100,0.0,0.0,0.0,8.0,0.0,-8.0,0.0,0,0;                                 71P     36
102,2,67,71,0,0;                                                      73P     37
142,0,51,0,73,2,0,0;                                                  75P     38
144,51,1,1,63,75,0,0;                                                 77P     39
110,0.0,0.0,3.25,0.0,0.0,4.25,0,0;                                    79P     40
110,-7.0,0.0,-1.5,-7.0,0.0,8.0,0,0;                                   81P     41
120,79,81,0.0,6.283185307,0,0;                                        83P     42
110,-7.0,0.0,8.0,-7.0,0.0,-1.5,0,0;                                   85P     43
124,-1.0,0.0,0.0,0.0,0.0,-1.0,0.0,0.0,0.0,0.0,1.0,-1.5,0,0;           87P     44
100,0.0,0.0,0.0,7.0,0.0,-7.0,0.0,0,0;                                 89P     45
110,7.0,0.0,-1.5,7.0,0.0,8.0,0,0;                                     91P     46
124,1.0,0.0,0.0,0.0,0.0,-1.0,0.0,0.0,0.0,0.0,-1.0,8.0,0,0;            93P     47
100,0.0,0.0,0.0,7.0,0.0,-7.0,0.0,0,0;                                 95P     48
102,4,85,89,91,95,0,0;                                                97P     49
142,0,83,0,97,2,0,0;                                                  99P     50
144,83,1,0,99,0,0;                                                   101P     51
110,0.0,0.0,3.25,0.0,0.0,4.25,0,0;                                   103P     52
110,7.0,0.0,-1.5,7.0,0.0,8.0,0,0;                                    105P     53
120,103,105,0.0,6.283185307,0,0;                                     107P     54
110,7.0,0.0,8.0,7.0,0.0,-1.5,0,0;                                    109P     55
124,1.0,0.0,0.0,0.0,0.0,1.0,0.0,0.0,0.0,0.0,1.0,-1.5,0,0;            111P     56
100,0.0,0.0,0.0,7.0,0.0,-7.0,0.0,0,0;                                113P     57
110,-7.0,0.0,-1.5,-7.0,0.0,8.0,0,0;                                  115P     58
124,-1.0,0.0,0.0,0.0,0.0,1.0,0.0,0.0,0.0,0.0,-1.0,8.0,0,0;           117P     59
100,0.0,0.0,0.0,7.0,0.0,-7.0,0.0,0,0;                                119P     60
102,4,109,113,115,119,0,0;                                           121P     61
142,0,107,0,121,2,0,0;                                               123P     62
144,107,1,0,123,0,0;                                                 125P     63
108,0.0,0.0,1.0,8.0,0,0.0,0.0,8.0,1.0,0,0;                           127P     64
124,1.0,0.0,0.0,0.0,0.0,-1.0,0.0,0.0,0.0,0.0,-1.0,8.0,0,0;           129P     65
100,0.0,0.0,0.0,8.0,0.0,-8.0,0.0,0,0;                                131P     66
124,-1.0,0.0,0.0,0.0,0.0,1.0,0.0,0.0,0.0,0.0,-1.0,8.0,0,0;           133P     67
100,0.0,0.0,0.0,8.0,0.0,-8.0,0.0,0,0;                                135P     68
102,2,131,135,0,0;                                                   137P     69
142,0,127,0,137,2,0,0;                                               139P     70
124,1.0,0.0,0.0,0.0,0.0,1.0,0.0,0.0,0.0,0.0,1.0,8.0,0,0;             141P     71
100,0.0,0.0,0.0,7.0,0.0,-7.0,0.0,0,0;                                143P     72
124,-1.0,0.0,0.0,0.0,0.0,-1.0,0.0,0.0,0.0,0.0,1.0,8.0,0,0;           145P     73
100,0.0,0.0,0.0,7.0,0.0,-7.0,0.0,0,0;                                147P     74
102,2,143,147,0,0;                                                   149P     75
142,0,127,0,149,2,0,0;                                               151P     76
144,127,1,1,139,151,0,0;                                             153P     77
110,0.0,0.0,3.25,0.0,0.0,4.25,0,0;                                   155P     78
110,8.0,0.0,0.0,8.0,0.0,8.0,0,0;                                     157P     79
120,155,157,0.0,6.283185307,0,0;                                     159P     80
124,-1.0,0.0,0.0,0.0,0.0,1.0,0.0,0.0,0.0,0.0,-1.0,0.0,0,0;           161P     81
100,0.0,0.0,0.0,8.0,0.0,-8.0,0.0,0,0;                                163P     82
110,8.0,0.0,0.0,8.0,0.0,8.0,0,0;                                     165P     83
124,1.0,0.0,0.0,0.0,0.0,1.0,0.0,0.0,0.0,0.0,1.0,8.0,0,0;             167P     84
100,0.0,0.0,0.0,8.0,0.0,-8.0,0.0,0,0;                                169P     85
110,-8.0,0.0,8.0,-8.0,0.0,0.0,0,0;                                   171P     86
102,4,163,165,169,171,0,0;                                           173P     87
142,0,159,0,173,2,0,0;                                               175P     88
144,159,1,0,175,0,0;                                                 177P     89
110,0.0,0.0,3.25,0.0,0.0,4.25,0,0;                                   179P     90
110,-8.0,0.0,0.0,-8.0,0.0,8.0,0,0;                                   181P     91
120,179,181,0.0,6.283185307,0,0;                                     183P     92
124,1.0,0.0,0.0,0.0,0.0,-1.0,0.0,0.0,0.0,0.0,-1.0,0.0,0,0;           185P     93
100,0.0,0.0,0.0,8.0,0.0,-8.0,0.0,0,0;                                187P     94
110,-8.0,0.0,0.0,-8.0,0.0,8.0,0,0;                                   189P     95
124,-1.0,0.0,0.0,0.0,0.0,-1.0,0.0,0.0,0.0,0.0,1.0,8.0,0,0;           191P     96
100,0.0,0.0,0.0,8.0,0.0,-8.0,0.0,0,0;                                193P     97
110,8.0,0.0,8.0,8.0,0.0,0.0,0,0;                                     195P     98
102,4,187,189,193,195,0,0;                                           197P     99
142,0,183,0,197,2,0,0;                                               199P    100
144,183,1,0,199,0,0;                                                 201P    101
108,0.0,0.0,1.0,-1.5,0,0.0,0.0,-1.5,1.0,0,0;                         203P    102
124,1.0,0.0,0.0,0.0,0.0,1.0,0.0,0.0,0.0,0.0,1.0,-1.5,0,0;            205P    103
100,0.0,0.0,0.0,12.5,0.0,-12.5,0.0,0,0;                              207P    104
124,-1.0,0.0,0.0,0.0,0.0,-1.0,0.0,0.0,0.0,0.0,1.0,-1.5,0,0;          209P    105
100,0.0,0.0,0.0,12.5,0.0,-12.5,0.0,0,0;                              211P    106
102,2,207,211,0,0;                                                   213P    107
142,0,203,0,213,2,0,0;                                               215P    108
124,-1.0,0.0,0.0,0.0,0.0,1.0,0.0,0.0,0.0,0.0,-1.0,-1.5,0,0;          217P    109
100,0.0,0.0,0.0,7.0,0.0,-7.0,0.0,0,0;                                219P    110
124,1.0,0.0,0.0,0.0,0.0,-1.0,0.0,0.0,0.0,0.0,-1.0,-1.5,0,0;          221P    111
100,0.0,0.0,0.0,7.0,0.0,-7.0,0.0,0,0;                                223P    112
102,2,219,223,0,0;                                                   225P    113
142,0,203,0,225,2,0,0;                                               227P    114
144,203,1,1,215,227,0,0;                                             229P    115
S      1G      5D    230P    115                                        T      1
