ISO-10303-21;
HEADER;
FILE_DESCRIPTION(('CATIA V5 STEP Exchange','CAx-IF Rec.Pracs.--- Model Styling and Organization---1.4--- 2014-01-23','CAx-IF Rec.Pracs.---3D Tessellated Data Validation Properties---0.5---2014-09-14'),'2;1');

FILE_NAME('D:\\GrabCAD\\I+D\\SERIE_LEXA\\EKOT-1360-170921A-LEXA_WAIST_SUPPORT\\FAB\\FAB_C\\PDF\\MAQUINADO\\1360.000.008.002.BUJE_TALLA.stp','2024-11-01T00:00:13+00:00',('none'),('none'),'CATIA Version 5-6 Release 2018 SP6','CATIA V5 STEP AP242','none');

FILE_SCHEMA(('AP242_MANAGED_MODEL_BASED_3D_ENGINEERING_MIM_LF  {1 0 10303 442 1 1 4}'));

ENDSEC;
DATA;
#5=PRODUCT('1360.000.008.003.BUJE_TALLA','','',(#2)) ;
#2=PRODUCT_CONTEXT(' ',#1,'mechanical') ;
#1=APPLICATION_CONTEXT('managed model based 3d engineering') ;
#10=PRODUCT_DEFINITION('',' ',#6,#3) ;
#3=PRODUCT_DEFINITION_CONTEXT('part definition',#1,' ') ;
#11=PRODUCT_DEFINITION_SHAPE(' ',' ',#10) ;
#693=MECHANICAL_DESIGN_GEOMETRIC_PRESENTATION_REPRESENTATION(' ',(#90,#123,#276,#389,#505,#551,#576,#614,#682,#690,#29),#16) ;
#19=SHAPE_REPRESENTATION(' ',(#18),#16) ;
#7=PRODUCT_CATEGORY('part','specification') ;
#17=CARTESIAN_POINT(' ',(0.,0.,0.)) ;
#31=CARTESIAN_POINT('Axis2P3D Location',(53.,0.,7.9375)) ;
#36=CARTESIAN_POINT('Line Origine',(51.7705,-1.50570323955E-016,4.34250000004)) ;
#40=CARTESIAN_POINT('Vertex',(51.7705,-1.50570323955E-016,4.76249776105)) ;
#42=CARTESIAN_POINT('Vertex',(51.7705,-1.50570323955E-016,7.93749886192)) ;
#46=CARTESIAN_POINT('Control Point',(51.7705,-2.22044604925E-016,4.76249776105)) ;
#47=CARTESIAN_POINT('Control Point',(51.7705,0.402272753387,4.76248975699)) ;
#48=CARTESIAN_POINT('Control Point',(51.9350215211,0.804306710595,4.7200102616)) ;
#49=CARTESIAN_POINT('Control Point',(52.2585619428,1.11035568761,4.63267553159)) ;
#50=CARTESIAN_POINT('Control Point',(53.0528682359,1.3815075086,4.56066459207)) ;
#51=CARTESIAN_POINT('Control Point',(53.8087536007,1.04209344263,4.65090547419)) ;
#52=CARTESIAN_POINT('Control Point',(54.0877047349,0.746912903143,4.72589374738)) ;
#53=CARTESIAN_POINT('Control Point',(54.2295,0.373456587448,4.7625)) ;
#54=CARTESIAN_POINT('Control Point',(54.2295,3.55681886549E-016,4.7625)) ;
#55=CARTESIAN_POINT('Vertex',(54.2295,0.,4.7625)) ;
#58=CARTESIAN_POINT('Line Origine',(54.2295,3.0114064791E-016,4.34250000004)) ;
#62=CARTESIAN_POINT('Vertex',(54.2295,0.,7.9375)) ;
#66=CARTESIAN_POINT('Control Point',(51.7705,-4.05963326095E-016,7.93749886192)) ;
#67=CARTESIAN_POINT('Control Point',(51.7705,0.4080939717,7.93749359859)) ;
#68=CARTESIAN_POINT('Control Point',(51.9398174967,0.816117736866,7.91125564542)) ;
#69=CARTESIAN_POINT('Control Point',(52.278149344,1.12677852761,7.85754075195)) ;
#70=CARTESIAN_POINT('Control Point',(53.0772522976,1.37963288461,7.8184327457)) ;
#71=CARTESIAN_POINT('Control Point',(53.8225237436,1.02643746139,7.87325312295)) ;
#72=CARTESIAN_POINT('Control Point',(54.0936399111,0.731114079232,7.91645559319)) ;
#73=CARTESIAN_POINT('Control Point',(54.2295,0.365557086484,7.9375)) ;
#74=CARTESIAN_POINT('Control Point',(54.2295,3.29371262988E-016,7.9375)) ;
#92=CARTESIAN_POINT('Control Point',(54.2295,0.,4.7625)) ;
#93=CARTESIAN_POINT('Control Point',(54.2295,-0.294466114326,4.7625)) ;
#94=CARTESIAN_POINT('Control Point',(54.1413439483,-0.588932059698,4.73974139309)) ;
#95=CARTESIAN_POINT('Control Point',(53.9663107225,-0.844257528858,4.69371851741)) ;
#96=CARTESIAN_POINT('Control Point',(53.6089569028,-1.12766866019,4.62877597743)) ;
#97=CARTESIAN_POINT('Control Point',(53.1758390677,-1.23019463479,4.60092997676)) ;
#98=CARTESIAN_POINT('Control Point',(53.0275919555,-1.24244175444,4.5974955478)) ;
#99=CARTESIAN_POINT('Control Point',(52.5418939935,-1.20919149497,4.60709417351)) ;
#100=CARTESIAN_POINT('Control Point',(52.1095423886,-0.947234133468,4.67322754892)) ;
#101=CARTESIAN_POINT('Control Point',(51.8844219151,-0.669653502792,4.73310195906)) ;
#102=CARTESIAN_POINT('Control Point',(51.7705,-0.334744074923,4.7625044215)) ;
#103=CARTESIAN_POINT('Control Point',(51.7705,-1.11022302463E-016,4.76249776105)) ;
#106=CARTESIAN_POINT('Control Point',(54.2295,0.,7.9375)) ;
#107=CARTESIAN_POINT('Control Point',(54.2295,-0.442612905985,7.9375)) ;
#108=CARTESIAN_POINT('Control Point',(54.0303273846,-0.88522567455,7.90664863241)) ;
#109=CARTESIAN_POINT('Control Point',(53.6312934862,-1.20329854928,7.84415067052)) ;
#110=CARTESIAN_POINT('Control Point',(52.7980599685,-1.36791655114,7.82183602918)) ;
#111=CARTESIAN_POINT('Control Point',(52.1043387754,-0.940926109158,7.88492061775)) ;
#112=CARTESIAN_POINT('Control Point',(51.881915638,-0.662129037074,7.92024555904)) ;
#113=CARTESIAN_POINT('Control Point',(51.7705,-0.331041419608,7.93750313148)) ;
#114=CARTESIAN_POINT('Control Point',(51.7705,-1.79948099994E-016,7.93749886192)) ;
#124=CARTESIAN_POINT('Axis2P3D Location',(-2.,0.,0.)) ;
#130=CARTESIAN_POINT('Control Point',(-49.6765,4.7625,0.)) ;
#131=CARTESIAN_POINT('Control Point',(-49.6765,4.7625,0.446778763201)) ;
#132=CARTESIAN_POINT('Control Point',(-49.751575697,4.71010859232,0.893556727748)) ;
#133=CARTESIAN_POINT('Control Point',(-49.9017053968,4.60546866567,1.31326018991)) ;
#134=CARTESIAN_POINT('Control Point',(-50.2588668444,4.36665041415,1.9660750666)) ;
#135=CARTESIAN_POINT('Control Point',(-50.7603882582,4.07478230507,2.48324032326)) ;
#136=CARTESIAN_POINT('Control Point',(-50.9944390033,3.94844213308,2.67581779377)) ;
#137=CARTESIAN_POINT('Control Point',(-51.5141098954,3.69844937084,3.01390826491)) ;
#138=CARTESIAN_POINT('Control Point',(-52.1169637206,3.50442399594,3.22897866887)) ;
#139=CARTESIAN_POINT('Control Point',(-52.4448607333,3.43052474579,3.30344484875)) ;
#140=CARTESIAN_POINT('Control Point',(-53.0743211569,3.37625205786,3.35943707609)) ;
#141=CARTESIAN_POINT('Control Point',(-53.6932031243,3.46387967626,3.2691971835)) ;
#142=CARTESIAN_POINT('Control Point',(-53.9656417593,3.53196532449,3.1980088836)) ;
#143=CARTESIAN_POINT('Control Point',(-54.5471653469,3.72388371953,2.98118373587)) ;
#144=CARTESIAN_POINT('Control Point',(-55.0500248351,3.96968781375,2.64754707486)) ;
#145=CARTESIAN_POINT('Control Point',(-55.304644247,4.11013301992,2.4293500266)) ;
#146=CARTESIAN_POINT('Control Point',(-55.7924284287,4.4004404409,1.89303750079)) ;
#147=CARTESIAN_POINT('Control Point',(-56.1291158702,4.62691344148,1.22343721489)) ;
#148=CARTESIAN_POINT('Control Point',(-56.2587638839,4.71732404577,0.829747190195)) ;
#149=CARTESIAN_POINT('Control Point',(-56.3235,4.7625,0.414873939428)) ;
#150=CARTESIAN_POINT('Control Point',(-56.3235,4.7625,4.95401700608E-017)) ;
#151=CARTESIAN_POINT('Vertex',(-49.6765,4.7625,0.)) ;
#153=CARTESIAN_POINT('Vertex',(-56.3235,4.7625,4.07011363697E-016)) ;
#156=CARTESIAN_POINT('Line Origine',(-2.,4.7625,0.)) ;
#160=CARTESIAN_POINT('Vertex',(49.676645714,4.7625,0.)) ;
#164=CARTESIAN_POINT('Control Point',(49.676645714,4.7625,2.22044604925E-016)) ;
#165=CARTESIAN_POINT('Control Point',(49.6808322284,4.7625,0.447064804358)) ;
#166=CARTESIAN_POINT('Control Point',(49.7601938869,4.71004148575,0.893424835324)) ;
#167=CARTESIAN_POINT('Control Point',(49.9144281005,4.60563388301,1.31197379198)) ;
#168=CARTESIAN_POINT('Control Point',(50.278135034,4.36816608122,1.96180712251)) ;
#169=CARTESIAN_POINT('Control Point',(50.7858536609,4.07961259762,2.47493222894)) ;
#170=CARTESIAN_POINT('Control Point',(51.0223420883,3.95514674775,2.66551732163)) ;
#171=CARTESIAN_POINT('Control Point',(51.5456052453,3.71072053944,2.99812734852)) ;
#172=CARTESIAN_POINT('Control Point',(52.1508489964,3.5243902334,3.20682289084)) ;
#173=CARTESIAN_POINT('Control Point',(52.4785525611,3.45516585517,3.27754823159)) ;
#174=CARTESIAN_POINT('Control Point',(53.1087494579,3.4079486796,3.32732660014)) ;
#175=CARTESIAN_POINT('Control Point',(53.7260593219,3.49952719363,3.23113281472)) ;
#176=CARTESIAN_POINT('Control Point',(53.9992181987,3.56903444211,3.1567670509)) ;
#177=CARTESIAN_POINT('Control Point',(54.582076486,3.76293614219,2.93225020606)) ;
#178=CARTESIAN_POINT('Control Point',(55.0849125561,4.00808374029,2.58960402127)) ;
#179=CARTESIAN_POINT('Control Point',(55.3390678009,4.14744997009,2.36584398331)) ;
#180=CARTESIAN_POINT('Control Point',(55.8109042333,4.42575834399,1.83134458342)) ;
#181=CARTESIAN_POINT('Control Point',(56.1346773242,4.63877367126,1.16992171415)) ;
#182=CARTESIAN_POINT('Control Point',(56.2567463404,4.72120389484,0.79276268387)) ;
#183=CARTESIAN_POINT('Control Point',(56.3196397964,4.7625,0.396658745865)) ;
#184=CARTESIAN_POINT('Control Point',(56.323354286,4.7625,-1.1128611814E-017)) ;
#185=CARTESIAN_POINT('Vertex',(56.323354286,4.7625,0.)) ;
#188=CARTESIAN_POINT('Line Origine',(-2.,4.7625,0.)) ;
#192=CARTESIAN_POINT('Vertex',(63.,4.7625,0.)) ;
#195=CARTESIAN_POINT('Axis2P3D Location',(63.,0.,0.)) ;
#199=CARTESIAN_POINT('Vertex',(63.,-4.7625,5.83238038094E-016)) ;
#202=CARTESIAN_POINT('Line Origine',(-2.,-4.7625,5.83238038094E-016)) ;
#206=CARTESIAN_POINT('Vertex',(-63.,-4.7625,5.83238038094E-016)) ;
#209=CARTESIAN_POINT('Axis2P3D Location',(-63.,0.,0.)) ;
#213=CARTESIAN_POINT('Vertex',(-63.,4.7625,0.)) ;
#216=CARTESIAN_POINT('Line Origine',(-2.,4.7625,0.)) ;
#232=CARTESIAN_POINT('Control Point',(-54.2295,2.22044604925E-016,4.7625)) ;
#233=CARTESIAN_POINT('Control Point',(-54.2295,-0.294466114326,4.7625)) ;
#234=CARTESIAN_POINT('Control Point',(-54.1413439483,-0.588929693648,4.73974139305)) ;
#235=CARTESIAN_POINT('Control Point',(-53.9663130159,-0.844256419055,4.69371806477)) ;
#236=CARTESIAN_POINT('Control Point',(-53.6089557615,-1.12766921245,4.62877620268)) ;
#237=CARTESIAN_POINT('Control Point',(-53.1758396356,-1.23019435997,4.60092986468)) ;
#238=CARTESIAN_POINT('Control Point',(-53.0275925622,-1.24244192221,4.59749561719)) ;
#239=CARTESIAN_POINT('Control Point',(-52.5418926072,-1.20919111164,4.60709401496)) ;
#240=CARTESIAN_POINT('Control Point',(-52.1095455562,-0.947235009349,4.67322791118)) ;
#241=CARTESIAN_POINT('Control Point',(-51.8844173532,-0.669647542798,4.73308994373)) ;
#242=CARTESIAN_POINT('Control Point',(-51.7704986966,-0.334742362107,4.76249992927)) ;
#243=CARTESIAN_POINT('Control Point',(-51.7705007251,-1.00625443933E-006,4.7625)) ;
#244=CARTESIAN_POINT('Vertex',(-54.2295,3.0114064791E-016,4.7625)) ;
#246=CARTESIAN_POINT('Vertex',(-51.7705,-1.50570323955E-016,4.76249776105)) ;
#250=CARTESIAN_POINT('Control Point',(-51.7705007251,-1.00625443922E-006,4.7625)) ;
#251=CARTESIAN_POINT('Control Point',(-51.7705031628,0.402268479538,4.76250008499)) ;
#252=CARTESIAN_POINT('Control Point',(-51.935025345,0.804301375982,4.72002753498)) ;
#253=CARTESIAN_POINT('Control Point',(-52.2585572221,1.11035604384,4.63267567959)) ;
#254=CARTESIAN_POINT('Control Point',(-53.0528726175,1.38150717796,4.56066445471)) ;
#255=CARTESIAN_POINT('Control Point',(-53.8087495338,1.04209374953,4.65090560169)) ;
#256=CARTESIAN_POINT('Control Point',(-54.087704735,0.746909097451,4.72589374732)) ;
#257=CARTESIAN_POINT('Control Point',(-54.2295,0.373456587448,4.7625)) ;
#258=CARTESIAN_POINT('Control Point',(-54.2295,3.55681886549E-016,4.7625)) ;
#277=CARTESIAN_POINT('Axis2P3D Location',(63.,0.,0.)) ;
#282=CARTESIAN_POINT('Axis2P3D Location',(63.,0.,0.)) ;
#286=CARTESIAN_POINT('Vertex',(63.,7.9375,0.)) ;
#288=CARTESIAN_POINT('Vertex',(63.,-7.9375,9.72063396823E-016)) ;
#291=CARTESIAN_POINT('Axis2P3D Location',(63.,0.,0.)) ;
#300=CARTESIAN_POINT('Axis2P3D Location',(63.,0.,0.)) ;
#310=CARTESIAN_POINT('Axis2P3D Location',(53.,7.9375,-0.0311213731766)) ;
#315=CARTESIAN_POINT('Line Origine',(56.3235,4.34250000004,-0.0311213731766)) ;
#319=CARTESIAN_POINT('Vertex',(56.3235,4.76239831494,-0.0311213731766)) ;
#321=CARTESIAN_POINT('Vertex',(56.3235,7.93743898938,-0.0311213731766)) ;
#325=CARTESIAN_POINT('Control Point',(56.3235,4.76239831494,-0.0311213731766)) ;
#326=CARTESIAN_POINT('Control Point',(56.3235,4.76246610554,-0.0207476063537)) ;
#327=CARTESIAN_POINT('Control Point',(56.3234514284,4.7625,-0.0103735334874)) ;
#328=CARTESIAN_POINT('Control Point',(56.323354286,4.7625,-2.16494926425E-015)) ;
#331=CARTESIAN_POINT('Control Point',(49.6765,4.76239831459,-0.0311213731766)) ;
#332=CARTESIAN_POINT('Control Point',(49.6765,4.76246610563,-0.0207475898469)) ;
#333=CARTESIAN_POINT('Control Point',(49.6765485713,4.7625,-0.0103735678108)) ;
#334=CARTESIAN_POINT('Control Point',(49.676645714,4.7625,-5.37764277553E-016)) ;
#335=CARTESIAN_POINT('Vertex',(49.6765,4.76239831459,-0.0311213731766)) ;
#338=CARTESIAN_POINT('Line Origine',(49.6765,4.34250000004,-0.0311213731766)) ;
#342=CARTESIAN_POINT('Vertex',(49.6765,7.93743898819,-0.0311213731766)) ;
#346=CARTESIAN_POINT('Control Point',(49.6765,7.93743898819,-0.0311213731766)) ;
#347=CARTESIAN_POINT('Control Point',(49.6765,7.9374796636,-0.0207474932914)) ;
#348=CARTESIAN_POINT('Control Point',(49.6765485718,7.9375,-0.0103735193644)) ;
#349=CARTESIAN_POINT('Control Point',(49.676645714,7.9375,-5.37791128743E-016)) ;
#350=CARTESIAN_POINT('Vertex',(49.676645714,7.9375,0.)) ;
#354=CARTESIAN_POINT('Control Point',(49.676645714,7.9375,-3.66373598126E-015)) ;
#355=CARTESIAN_POINT('Control Point',(49.6793554019,7.9375,0.289359114438)) ;
#356=CARTESIAN_POINT('Control Point',(49.7135576304,7.92431438104,0.578423259939)) ;
#357=CARTESIAN_POINT('Control Point',(49.779204265,7.89798519808,0.861657486808)) ;
#358=CARTESIAN_POINT('Control Point',(50.0933818607,7.77403549553,1.76102352165)) ;
#359=CARTESIAN_POINT('Control Point',(50.7033055101,7.55819974438,2.5038386884)) ;
#360=CARTESIAN_POINT('Control Point',(51.2413512981,7.39444054255,2.90654661924)) ;
#361=CARTESIAN_POINT('Control Point',(52.2950156642,7.20314753183,3.33828034462)) ;
#362=CARTESIAN_POINT('Control Point',(53.4274329216,7.21312026404,3.31150219804)) ;
#363=CARTESIAN_POINT('Control Point',(53.8756513151,7.25634445032,3.22159096378)) ;
#364=CARTESIAN_POINT('Control Point',(54.9459601346,7.43744139154,2.81230600622)) ;
#365=CARTESIAN_POINT('Control Point',(55.7615284248,7.71013429981,2.00178669849)) ;
#366=CARTESIAN_POINT('Control Point',(56.1282393876,7.86126329298,1.38984502867)) ;
#367=CARTESIAN_POINT('Control Point',(56.316838736,7.9375,0.695775241101)) ;
#368=CARTESIAN_POINT('Control Point',(56.323354286,7.9375,2.22044604925E-016)) ;
#369=CARTESIAN_POINT('Vertex',(56.323354286,7.9375,0.)) ;
#373=CARTESIAN_POINT('Control Point',(56.3235,7.93743898938,-0.0311213731766)) ;
#374=CARTESIAN_POINT('Control Point',(56.3235,7.93747966358,-0.0207475059402)) ;
#375=CARTESIAN_POINT('Control Point',(56.323451428,7.9375,-0.0103734921438)) ;
#376=CARTESIAN_POINT('Control Point',(56.323354286,7.9375,-2.28636554134E-015)) ;
#390=CARTESIAN_POINT('Axis2P3D Location',(0.,0.,0.)) ;
#395=CARTESIAN_POINT('Line Origine',(0.,7.9375,-1.94412679365E-015)) ;
#399=CARTESIAN_POINT('Vertex',(-49.6765,7.9375,0.)) ;
#403=CARTESIAN_POINT('Control Point',(56.3235,7.93743898938,-0.0311213731766)) ;
#404=CARTESIAN_POINT('Control Point',(56.3235,7.93630441537,-0.320492022458)) ;
#405=CARTESIAN_POINT('Control Point',(56.29200633,7.92198306846,-0.609810633577)) ;
#406=CARTESIAN_POINT('Control Point',(56.2290381772,7.89448463734,-0.893540358839)) ;
#407=CARTESIAN_POINT('Control Point',(55.9232959506,7.7663639141,-1.79599084407)) ;
#408=CARTESIAN_POINT('Control Point',(55.3205907693,7.54528265028,-2.5441550392)) ;
#409=CARTESIAN_POINT('Control Point',(54.7868917853,7.37709070741,-2.95164274754)) ;
#410=CARTESIAN_POINT('Control Point',(53.7390784398,7.17764199303,-3.39307950547)) ;
#411=CARTESIAN_POINT('Control Point',(52.606948769,7.1823148778,-3.37772911227)) ;
#412=CARTESIAN_POINT('Control Point',(52.1588282812,7.22420911887,-3.2926916552)) ;
#413=CARTESIAN_POINT('Control Point',(51.071599771,7.40731098717,-2.89026065233)) ;
#414=CARTESIAN_POINT('Control Point',(50.2417116861,7.69173996408,-2.07545843512)) ;
#415=CARTESIAN_POINT('Control Point',(49.8663171056,7.85239024681,-1.45156866021)) ;
#416=CARTESIAN_POINT('Control Point',(49.6765000204,7.93465358999,-0.741531528617)) ;
#417=CARTESIAN_POINT('Control Point',(49.6765000003,7.93743898939,-0.0311213706468)) ;
#419=CARTESIAN_POINT('Line Origine',(0.,7.9375,-1.94412679365E-015)) ;
#424=CARTESIAN_POINT('Line Origine',(0.,-7.9375,9.72063396823E-016)) ;
#428=CARTESIAN_POINT('Vertex',(-63.,-7.9375,9.72063396823E-016)) ;
#431=CARTESIAN_POINT('Axis2P3D Location',(-63.,0.,0.)) ;
#435=CARTESIAN_POINT('Vertex',(-63.,7.9375,0.)) ;
#438=CARTESIAN_POINT('Line Origine',(0.,7.9375,-1.94412679365E-015)) ;
#442=CARTESIAN_POINT('Vertex',(-56.3235,7.9375,4.07011363697E-016)) ;
#446=CARTESIAN_POINT('Control Point',(-49.6765,7.9375,-1.88737914186E-015)) ;
#447=CARTESIAN_POINT('Control Point',(-49.6765,7.9375,-0.289333999483)) ;
#448=CARTESIAN_POINT('Control Point',(-49.707985694,7.9243166672,-0.578667664022)) ;
#449=CARTESIAN_POINT('Control Point',(-49.7709603818,7.89793786169,-0.862463754219)) ;
#450=CARTESIAN_POINT('Control Point',(-50.076777437,7.77341883855,-1.76505621298)) ;
#451=CARTESIAN_POINT('Control Point',(-50.679808888,7.55549107982,-2.51351506843)) ;
#452=CARTESIAN_POINT('Control Point',(-51.2138476982,7.38925289606,-2.92093711028)) ;
#453=CARTESIAN_POINT('Control Point',(-52.2623504108,7.19208951247,-3.36233867835)) ;
#454=CARTESIAN_POINT('Control Point',(-53.394849069,7.19690503714,-3.34652858807)) ;
#455=CARTESIAN_POINT('Control Point',(-53.843604834,7.23853408281,-3.26109586409)) ;
#456=CARTESIAN_POINT('Control Point',(-54.9302819147,7.41991592613,-2.85778680833)) ;
#457=CARTESIAN_POINT('Control Point',(-55.7596780791,7.70054475346,-2.0421457693)) ;
#458=CARTESIAN_POINT('Control Point',(-56.1343117422,7.8582852378,-1.41846721861)) ;
#459=CARTESIAN_POINT('Control Point',(-56.3235,7.9375,-0.709234615594)) ;
#460=CARTESIAN_POINT('Control Point',(-56.3235,7.9375,-1.99840144433E-015)) ;
#476=CARTESIAN_POINT('Control Point',(56.3235,4.76239831494,-0.0311213731766)) ;
#477=CARTESIAN_POINT('Control Point',(56.3235,4.75947654145,-0.47823047337)) ;
#478=CARTESIAN_POINT('Control Point',(56.2483132438,4.70408474534,-0.92499630234)) ;
#479=CARTESIAN_POINT('Control Point',(56.0982187313,4.59656189489,-1.34430296615)) ;
#480=CARTESIAN_POINT('Control Point',(55.7412460552,4.35280715375,-1.99692403451)) ;
#481=CARTESIAN_POINT('Control Point',(55.2402381485,4.05610195822,-2.51382219982)) ;
#482=CARTESIAN_POINT('Control Point',(55.0061279391,3.92756963581,-2.70653642245)) ;
#483=CARTESIAN_POINT('Control Point',(54.4872289063,3.67359928765,-3.0442965215)) ;
#484=CARTESIAN_POINT('Control Point',(53.8847782993,3.47610776331,-3.25951191677)) ;
#485=CARTESIAN_POINT('Control Point',(53.5574824575,3.40071663339,-3.33413349674)) ;
#486=CARTESIAN_POINT('Control Point',(52.929896043,3.34511688918,-3.39044017781)) ;
#487=CARTESIAN_POINT('Control Point',(52.312767329,3.4332192488,-3.30136975212)) ;
#488=CARTESIAN_POINT('Control Point',(52.0418495012,3.5016396418,-3.23115377784)) ;
#489=CARTESIAN_POINT('Control Point',(51.4623972498,3.69494726295,-3.01687398226)) ;
#490=CARTESIAN_POINT('Control Point',(50.9611208316,3.94303974747,-2.68699719995)) ;
#491=CARTESIAN_POINT('Control Point',(50.7067275022,4.08519968301,-2.4708845367)) ;
#492=CARTESIAN_POINT('Control Point',(50.2153355096,4.38189556917,-1.93595237722)) ;
#493=CARTESIAN_POINT('Control Point',(49.8748536447,4.61583365478,-1.26628252447)) ;
#494=CARTESIAN_POINT('Control Point',(49.742631743,4.71076678009,-0.869441179081)) ;
#495=CARTESIAN_POINT('Control Point',(49.6765,4.75965811018,-0.450443538393)) ;
#496=CARTESIAN_POINT('Control Point',(49.6765,4.76239831459,-0.0311213731766)) ;
#506=CARTESIAN_POINT('Axis2P3D Location',(-53.,7.9375,0.)) ;
#511=CARTESIAN_POINT('Line Origine',(-56.3235,4.35760018012,4.07011363697E-016)) ;
#517=CARTESIAN_POINT('Control Point',(-49.6765,4.7625,-8.881784197E-016)) ;
#518=CARTESIAN_POINT('Control Point',(-49.6765,4.7625,-0.44677876319)) ;
#519=CARTESIAN_POINT('Control Point',(-49.751575697,4.71010859234,-0.893557137441)) ;
#520=CARTESIAN_POINT('Control Point',(-49.9017059014,4.60546912752,-1.31326060989)) ;
#521=CARTESIAN_POINT('Control Point',(-50.2588664765,4.36665007751,-1.96607476037)) ;
#522=CARTESIAN_POINT('Control Point',(-50.7603885263,4.0747825505,-2.48324054642)) ;
#523=CARTESIAN_POINT('Control Point',(-50.9944392785,3.94844234882,-2.67581816939)) ;
#524=CARTESIAN_POINT('Control Point',(-51.5141096094,3.69844914686,-3.0139078747)) ;
#525=CARTESIAN_POINT('Control Point',(-52.1169640176,3.50442422862,-3.22897907406)) ;
#526=CARTESIAN_POINT('Control Point',(-52.4448611886,3.43052471282,-3.30344476771)) ;
#527=CARTESIAN_POINT('Control Point',(-53.0743207714,3.37625208578,-3.35943714468)) ;
#528=CARTESIAN_POINT('Control Point',(-53.6932034505,3.46387965261,-3.26919712545)) ;
#529=CARTESIAN_POINT('Control Point',(-53.9656419727,3.53196515807,-3.19800859239)) ;
#530=CARTESIAN_POINT('Control Point',(-54.5471650786,3.72388392863,-2.98118410193)) ;
#531=CARTESIAN_POINT('Control Point',(-55.0500251721,3.96968755089,-2.64754661488)) ;
#532=CARTESIAN_POINT('Control Point',(-55.3046445754,4.11013272049,-2.42934976231)) ;
#533=CARTESIAN_POINT('Control Point',(-55.79242805,4.40044078606,-1.89303780561)) ;
#534=CARTESIAN_POINT('Control Point',(-56.1291163068,4.62691304352,-1.22343686358)) ;
#535=CARTESIAN_POINT('Control Point',(-56.2587638838,4.71732404578,-0.829747543525)) ;
#536=CARTESIAN_POINT('Control Point',(-56.3235,4.7625,-0.414873939449)) ;
#537=CARTESIAN_POINT('Control Point',(-56.3235,4.7625,4.4408920985E-016)) ;
#539=CARTESIAN_POINT('Line Origine',(-49.6765,4.35760018012,-8.14022727393E-016)) ;
#553=CARTESIAN_POINT('Control Point',(-49.6765,7.9375,-3.33066907388E-016)) ;
#554=CARTESIAN_POINT('Control Point',(-49.6765,7.9375,0.289333999496)) ;
#555=CARTESIAN_POINT('Control Point',(-49.707985694,7.92431666721,0.578667940271)) ;
#556=CARTESIAN_POINT('Control Point',(-49.7709605435,7.89793796854,0.862464008543)) ;
#557=CARTESIAN_POINT('Control Point',(-50.0767770649,7.77341859259,1.76505562773)) ;
#558=CARTESIAN_POINT('Control Point',(-50.6798097448,7.55549164591,2.51351641567)) ;
#559=CARTESIAN_POINT('Control Point',(-51.2138494242,7.38925313667,2.92093758876)) ;
#560=CARTESIAN_POINT('Control Point',(-52.2623492495,7.19208935054,3.36233835642)) ;
#561=CARTESIAN_POINT('Control Point',(-53.3948498506,7.19690514611,3.34652880471)) ;
#562=CARTESIAN_POINT('Control Point',(-53.8436054649,7.23853380254,3.26109534719)) ;
#563=CARTESIAN_POINT('Control Point',(-54.9302809164,7.41991636971,2.85778762634)) ;
#564=CARTESIAN_POINT('Control Point',(-55.759679659,7.70054405145,2.04214447469)) ;
#565=CARTESIAN_POINT('Control Point',(-56.1343117422,7.85828523783,1.41846887826)) ;
#566=CARTESIAN_POINT('Control Point',(-56.3235,7.9375,0.709234615551)) ;
#567=CARTESIAN_POINT('Control Point',(-56.3235,7.9375,6.66133814775E-016)) ;
#577=CARTESIAN_POINT('Axis2P3D Location',(-63.,0.,0.)) ;
#582=CARTESIAN_POINT('Axis2P3D Location',(-63.,0.,0.)) ;
#591=CARTESIAN_POINT('Axis2P3D Location',(-63.,0.,0.)) ;
#626=CARTESIAN_POINT('Control Point',(-54.2295,4.4408920985E-016,7.9375)) ;
#627=CARTESIAN_POINT('Control Point',(-54.2295,-0.442612905985,7.9375)) ;
#628=CARTESIAN_POINT('Control Point',(-54.0303273847,-0.885220084587,7.90664863236)) ;
#629=CARTESIAN_POINT('Control Point',(-53.6312990446,-1.20329994671,7.84415106235)) ;
#630=CARTESIAN_POINT('Control Point',(-52.798055811,-1.36791550591,7.82183573611)) ;
#631=CARTESIAN_POINT('Control Point',(-52.104341885,-0.940926890943,7.88492083695)) ;
#632=CARTESIAN_POINT('Control Point',(-51.8819130658,-0.662127046545,7.92024211828)) ;
#633=CARTESIAN_POINT('Control Point',(-51.7704980471,-0.331040206273,7.93749997818)) ;
#634=CARTESIAN_POINT('Control Point',(-51.7705007299,-5.23236019137E-007,7.9375)) ;
#635=CARTESIAN_POINT('Vertex',(-54.2295,0.,7.9375)) ;
#637=CARTESIAN_POINT('Vertex',(-51.7705,-1.50570323955E-016,7.93749886192)) ;
#641=CARTESIAN_POINT('Control Point',(-51.7705007299,-5.2323601903E-007,7.9375)) ;
#642=CARTESIAN_POINT('Control Point',(-51.770504037,0.408091307692,7.9375000269)) ;
#643=CARTESIAN_POINT('Control Point',(-51.9398279767,0.816111474128,7.91127344868)) ;
#644=CARTESIAN_POINT('Control Point',(-52.278144496,1.12677898895,7.85754088329)) ;
#645=CARTESIAN_POINT('Control Point',(-53.0772566401,1.37963247138,7.81843262805)) ;
#646=CARTESIAN_POINT('Control Point',(-53.8225198539,1.02643783152,7.87325322833)) ;
#647=CARTESIAN_POINT('Control Point',(-54.0936399111,0.731110266193,7.91645559315)) ;
#648=CARTESIAN_POINT('Control Point',(-54.2295,0.365557086484,7.9375)) ;
#649=CARTESIAN_POINT('Control Point',(-54.2295,4.40393565451E-016,7.9375)) ;
#660=CARTESIAN_POINT('Axis2P3D Location',(-53.,0.,7.9375)) ;
#665=CARTESIAN_POINT('Line Origine',(-54.2295,3.0114064791E-016,4.34250000004)) ;
#670=CARTESIAN_POINT('Line Origine',(-51.7705,-1.50570323955E-016,4.34250000004)) ;
#8=PRODUCT_RELATED_PRODUCT_CATEGORY('part',$,(#5)) ;
#29=STYLED_ITEM(' ',(#28),#21) ;
#28=PRESENTATION_STYLE_ASSIGNMENT((#27)) ;
#89=PRESENTATION_STYLE_ASSIGNMENT((#88)) ;
#275=PRESENTATION_STYLE_ASSIGNMENT((#274)) ;
#27=SURFACE_STYLE_USAGE(.BOTH.,#26) ;
#88=SURFACE_STYLE_USAGE(.BOTH.,#87) ;
#274=SURFACE_STYLE_USAGE(.BOTH.,#273) ;
#26=SURFACE_SIDE_STYLE(' ',(#25)) ;
#87=SURFACE_SIDE_STYLE(' ',(#86)) ;
#273=SURFACE_SIDE_STYLE(' ',(#272)) ;
#25=SURFACE_STYLE_FILL_AREA(#24) ;
#86=SURFACE_STYLE_FILL_AREA(#85) ;
#272=SURFACE_STYLE_FILL_AREA(#271) ;
#24=FILL_AREA_STYLE(' ',(#23)) ;
#85=FILL_AREA_STYLE(' ',(#84)) ;
#271=FILL_AREA_STYLE(' ',(#270)) ;
#23=FILL_AREA_STYLE_COLOUR(' ',#22) ;
#84=FILL_AREA_STYLE_COLOUR(' ',#83) ;
#270=FILL_AREA_STYLE_COLOUR(' ',#269) ;
#38=VECTOR('Line Direction',#37,1.) ;
#60=VECTOR('Line Direction',#59,1.) ;
#158=VECTOR('Line Direction',#157,1.) ;
#190=VECTOR('Line Direction',#189,1.) ;
#204=VECTOR('Line Direction',#203,1.) ;
#218=VECTOR('Line Direction',#217,1.) ;
#317=VECTOR('Line Direction',#316,1.) ;
#340=VECTOR('Line Direction',#339,1.) ;
#397=VECTOR('Line Direction',#396,1.) ;
#421=VECTOR('Line Direction',#420,1.) ;
#426=VECTOR('Line Direction',#425,1.) ;
#440=VECTOR('Line Direction',#439,1.) ;
#513=VECTOR('Line Direction',#512,1.) ;
#541=VECTOR('Line Direction',#540,1.) ;
#667=VECTOR('Line Direction',#666,1.) ;
#672=VECTOR('Line Direction',#671,1.) ;
#32=DIRECTION('Axis2P3D Direction',(0.,-0.,-1.)) ;
#33=DIRECTION('Axis2P3D XDirection',(1.,0.,0.)) ;
#37=DIRECTION('Vector Direction',(0.,0.,-1.)) ;
#59=DIRECTION('Vector Direction',(0.,0.,-1.)) ;
#125=DIRECTION('Axis2P3D Direction',(1.,0.,0.)) ;
#126=DIRECTION('Axis2P3D XDirection',(0.,1.,0.)) ;
#157=DIRECTION('Vector Direction',(1.,0.,0.)) ;
#189=DIRECTION('Vector Direction',(1.,0.,0.)) ;
#196=DIRECTION('Axis2P3D Direction',(1.,0.,0.)) ;
#203=DIRECTION('Vector Direction',(1.,0.,0.)) ;
#210=DIRECTION('Axis2P3D Direction',(1.,0.,0.)) ;
#217=DIRECTION('Vector Direction',(1.,0.,0.)) ;
#278=DIRECTION('Axis2P3D Direction',(1.,0.,0.)) ;
#279=DIRECTION('Axis2P3D XDirection',(0.,1.,0.)) ;
#283=DIRECTION('Axis2P3D Direction',(1.,0.,0.)) ;
#292=DIRECTION('Axis2P3D Direction',(1.,0.,0.)) ;
#301=DIRECTION('Axis2P3D Direction',(1.,0.,0.)) ;
#311=DIRECTION('Axis2P3D Direction',(0.,-1.,-0.)) ;
#312=DIRECTION('Axis2P3D XDirection',(1.,0.,0.)) ;
#316=DIRECTION('Vector Direction',(0.,-1.,0.)) ;
#339=DIRECTION('Vector Direction',(0.,-1.,0.)) ;
#391=DIRECTION('Axis2P3D Direction',(1.,0.,0.)) ;
#392=DIRECTION('Axis2P3D XDirection',(0.,1.,0.)) ;
#396=DIRECTION('Vector Direction',(1.,0.,0.)) ;
#420=DIRECTION('Vector Direction',(1.,0.,0.)) ;
#425=DIRECTION('Vector Direction',(1.,0.,0.)) ;
#432=DIRECTION('Axis2P3D Direction',(1.,0.,0.)) ;
#439=DIRECTION('Vector Direction',(1.,0.,0.)) ;
#507=DIRECTION('Axis2P3D Direction',(0.,-1.,-0.)) ;
#508=DIRECTION('Axis2P3D XDirection',(1.,0.,0.)) ;
#512=DIRECTION('Vector Direction',(0.,-1.,0.)) ;
#540=DIRECTION('Vector Direction',(0.,-1.,0.)) ;
#578=DIRECTION('Axis2P3D Direction',(1.,0.,0.)) ;
#579=DIRECTION('Axis2P3D XDirection',(0.,1.,0.)) ;
#583=DIRECTION('Axis2P3D Direction',(1.,0.,0.)) ;
#592=DIRECTION('Axis2P3D Direction',(1.,0.,0.)) ;
#661=DIRECTION('Axis2P3D Direction',(0.,0.,1.)) ;
#662=DIRECTION('Axis2P3D XDirection',(-1.,0.,0.)) ;
#666=DIRECTION('Vector Direction',(0.,0.,1.)) ;
#671=DIRECTION('Vector Direction',(0.,0.,1.)) ;
#15=UNCERTAINTY_MEASURE_WITH_UNIT(LENGTH_MEASURE(0.005),#12,'distance_accuracy_value','CONFUSED CURVE UNCERTAINTY') ;
#18=AXIS2_PLACEMENT_3D(' ',#17,$,$) ;
#34=AXIS2_PLACEMENT_3D('Cylinder Axis2P3D',#31,#32,#33) ;
#127=AXIS2_PLACEMENT_3D('Cylinder Axis2P3D',#124,#125,#126) ;
#197=AXIS2_PLACEMENT_3D('Circle Axis2P3D',#195,#196,$) ;
#211=AXIS2_PLACEMENT_3D('Circle Axis2P3D',#209,#210,$) ;
#280=AXIS2_PLACEMENT_3D('Plane Axis2P3D',#277,#278,#279) ;
#284=AXIS2_PLACEMENT_3D('Circle Axis2P3D',#282,#283,$) ;
#293=AXIS2_PLACEMENT_3D('Circle Axis2P3D',#291,#292,$) ;
#302=AXIS2_PLACEMENT_3D('Circle Axis2P3D',#300,#301,$) ;
#313=AXIS2_PLACEMENT_3D('Cylinder Axis2P3D',#310,#311,#312) ;
#393=AXIS2_PLACEMENT_3D('Cylinder Axis2P3D',#390,#391,#392) ;
#433=AXIS2_PLACEMENT_3D('Circle Axis2P3D',#431,#432,$) ;
#509=AXIS2_PLACEMENT_3D('Cylinder Axis2P3D',#506,#507,#508) ;
#580=AXIS2_PLACEMENT_3D('Plane Axis2P3D',#577,#578,#579) ;
#584=AXIS2_PLACEMENT_3D('Circle Axis2P3D',#582,#583,$) ;
#593=AXIS2_PLACEMENT_3D('Circle Axis2P3D',#591,#592,$) ;
#663=AXIS2_PLACEMENT_3D('Cylinder Axis2P3D',#660,#661,#662) ;
#39=LINE('Line',#36,#38) ;
#61=LINE('Line',#58,#60) ;
#159=LINE('Line',#156,#158) ;
#191=LINE('Line',#188,#190) ;
#205=LINE('Line',#202,#204) ;
#219=LINE('Line',#216,#218) ;
#318=LINE('Line',#315,#317) ;
#341=LINE('Line',#338,#340) ;
#398=LINE('Line',#395,#397) ;
#422=LINE('Line',#419,#421) ;
#427=LINE('Line',#424,#426) ;
#441=LINE('Line',#438,#440) ;
#514=LINE('Line',#511,#513) ;
#542=LINE('Line',#539,#541) ;
#668=LINE('Line',#665,#667) ;
#673=LINE('Line',#670,#672) ;
#198=CIRCLE('generated circle',#197,4.7625) ;
#212=CIRCLE('generated circle',#211,4.7625) ;
#285=CIRCLE('generated circle',#284,7.9375) ;
#294=CIRCLE('generated circle',#293,7.9375) ;
#303=CIRCLE('generated circle',#302,4.7625) ;
#434=CIRCLE('generated circle',#433,7.9375) ;
#585=CIRCLE('generated circle',#584,7.9375) ;
#594=CIRCLE('generated circle',#593,4.7625) ;
#281=PLANE('',#280) ;
#581=PLANE('',#580) ;
#35=CYLINDRICAL_SURFACE('generated cylinder',#34,1.2295) ;
#128=CYLINDRICAL_SURFACE('generated cylinder',#127,4.7625) ;
#314=CYLINDRICAL_SURFACE('generated cylinder',#313,3.3235) ;
#394=CYLINDRICAL_SURFACE('generated cylinder',#393,7.9375) ;
#510=CYLINDRICAL_SURFACE('generated cylinder',#509,3.3235) ;
#664=CYLINDRICAL_SURFACE('generated cylinder',#663,1.2295) ;
#263=FACE_BOUND('',#260,.T.) ;
#267=FACE_BOUND('',#264,.T.) ;
#308=FACE_BOUND('',#305,.T.) ;
#599=FACE_BOUND('',#596,.T.) ;
#654=FACE_BOUND('',#651,.T.) ;
#658=FACE_BOUND('',#655,.T.) ;
#44=EDGE_CURVE('',#41,#43,#39,.F.) ;
#57=EDGE_CURVE('',#41,#56,#45,.T.) ;
#64=EDGE_CURVE('',#56,#63,#61,.F.) ;
#75=EDGE_CURVE('',#43,#63,#65,.T.) ;
#104=EDGE_CURVE('',#56,#41,#91,.T.) ;
#115=EDGE_CURVE('',#63,#43,#105,.T.) ;
#155=EDGE_CURVE('',#152,#154,#129,.T.) ;
#162=EDGE_CURVE('',#161,#152,#159,.F.) ;
#187=EDGE_CURVE('',#161,#186,#163,.T.) ;
#194=EDGE_CURVE('',#193,#186,#191,.F.) ;
#201=EDGE_CURVE('',#193,#200,#198,.T.) ;
#208=EDGE_CURVE('',#200,#207,#205,.F.) ;
#215=EDGE_CURVE('',#214,#207,#212,.T.) ;
#220=EDGE_CURVE('',#154,#214,#219,.F.) ;
#248=EDGE_CURVE('',#245,#247,#231,.T.) ;
#259=EDGE_CURVE('',#247,#245,#249,.T.) ;
#290=EDGE_CURVE('',#287,#289,#285,.T.) ;
#295=EDGE_CURVE('',#289,#287,#294,.T.) ;
#304=EDGE_CURVE('',#200,#193,#303,.T.) ;
#323=EDGE_CURVE('',#320,#322,#318,.F.) ;
#329=EDGE_CURVE('',#320,#186,#324,.T.) ;
#337=EDGE_CURVE('',#336,#161,#330,.T.) ;
#344=EDGE_CURVE('',#336,#343,#341,.F.) ;
#352=EDGE_CURVE('',#343,#351,#345,.T.) ;
#371=EDGE_CURVE('',#351,#370,#353,.T.) ;
#377=EDGE_CURVE('',#322,#370,#372,.T.) ;
#401=EDGE_CURVE('',#400,#351,#398,.T.) ;
#418=EDGE_CURVE('',#322,#343,#402,.T.) ;
#423=EDGE_CURVE('',#370,#287,#422,.T.) ;
#430=EDGE_CURVE('',#429,#289,#427,.T.) ;
#437=EDGE_CURVE('',#429,#436,#434,.T.) ;
#444=EDGE_CURVE('',#436,#443,#441,.T.) ;
#461=EDGE_CURVE('',#400,#443,#445,.T.) ;
#497=EDGE_CURVE('',#320,#336,#475,.T.) ;
#515=EDGE_CURVE('',#154,#443,#514,.F.) ;
#538=EDGE_CURVE('',#152,#154,#516,.T.) ;
#543=EDGE_CURVE('',#152,#400,#542,.F.) ;
#568=EDGE_CURVE('',#400,#443,#552,.T.) ;
#586=EDGE_CURVE('',#436,#429,#585,.T.) ;
#595=EDGE_CURVE('',#207,#214,#594,.T.) ;
#639=EDGE_CURVE('',#636,#638,#625,.T.) ;
#650=EDGE_CURVE('',#638,#636,#640,.T.) ;
#669=EDGE_CURVE('',#245,#636,#668,.T.) ;
#674=EDGE_CURVE('',#247,#638,#673,.T.) ;
#30=CLOSED_SHELL('Closed Shell',(#82,#122,#268,#309,#388,#474,#504,#550,#575,#600,#613,#659,#681,#689)) ;
#692=SHAPE_REPRESENTATION_RELATIONSHIP(' ',' ',#19,#691) ;
#76=EDGE_LOOP('',(#77,#78,#79,#80)) ;
#116=EDGE_LOOP('',(#117,#118,#119,#120)) ;
#221=EDGE_LOOP('',(#222,#223,#224,#225,#226,#227,#228,#229)) ;
#260=EDGE_LOOP('',(#261,#262)) ;
#264=EDGE_LOOP('',(#265,#266)) ;
#296=EDGE_LOOP('',(#297,#298)) ;
#305=EDGE_LOOP('',(#306,#307)) ;
#378=EDGE_LOOP('',(#379,#380,#381,#382,#383,#384,#385,#386)) ;
#462=EDGE_LOOP('',(#463,#464,#465,#466,#467,#468,#469,#470,#471,#472)) ;
#498=EDGE_LOOP('',(#499,#500,#501,#502)) ;
#544=EDGE_LOOP('',(#545,#546,#547,#548)) ;
#569=EDGE_LOOP('',(#570,#571,#572,#573)) ;
#587=EDGE_LOOP('',(#588,#589)) ;
#596=EDGE_LOOP('',(#597,#598)) ;
#601=EDGE_LOOP('',(#602,#603,#604,#605,#606,#607,#608,#609,#610,#611)) ;
#615=EDGE_LOOP('',(#616,#617,#618,#619,#620,#621,#622,#623)) ;
#651=EDGE_LOOP('',(#652,#653)) ;
#655=EDGE_LOOP('',(#656,#657)) ;
#675=EDGE_LOOP('',(#676,#677,#678,#679)) ;
#683=EDGE_LOOP('',(#684,#685,#686,#687)) ;
#77=ORIENTED_EDGE('',*,*,#44,.F.) ;
#78=ORIENTED_EDGE('',*,*,#57,.T.) ;
#79=ORIENTED_EDGE('',*,*,#64,.T.) ;
#80=ORIENTED_EDGE('',*,*,#75,.F.) ;
#117=ORIENTED_EDGE('',*,*,#64,.F.) ;
#118=ORIENTED_EDGE('',*,*,#104,.T.) ;
#119=ORIENTED_EDGE('',*,*,#44,.T.) ;
#120=ORIENTED_EDGE('',*,*,#115,.F.) ;
#222=ORIENTED_EDGE('',*,*,#155,.F.) ;
#223=ORIENTED_EDGE('',*,*,#162,.F.) ;
#224=ORIENTED_EDGE('',*,*,#187,.T.) ;
#225=ORIENTED_EDGE('',*,*,#194,.F.) ;
#226=ORIENTED_EDGE('',*,*,#201,.T.) ;
#227=ORIENTED_EDGE('',*,*,#208,.T.) ;
#228=ORIENTED_EDGE('',*,*,#215,.F.) ;
#229=ORIENTED_EDGE('',*,*,#220,.F.) ;
#261=ORIENTED_EDGE('',*,*,#248,.T.) ;
#262=ORIENTED_EDGE('',*,*,#259,.T.) ;
#265=ORIENTED_EDGE('',*,*,#104,.F.) ;
#266=ORIENTED_EDGE('',*,*,#57,.F.) ;
#297=ORIENTED_EDGE('',*,*,#290,.T.) ;
#298=ORIENTED_EDGE('',*,*,#295,.T.) ;
#306=ORIENTED_EDGE('',*,*,#201,.F.) ;
#307=ORIENTED_EDGE('',*,*,#304,.F.) ;
#379=ORIENTED_EDGE('',*,*,#323,.F.) ;
#380=ORIENTED_EDGE('',*,*,#329,.T.) ;
#381=ORIENTED_EDGE('',*,*,#187,.F.) ;
#382=ORIENTED_EDGE('',*,*,#337,.F.) ;
#383=ORIENTED_EDGE('',*,*,#344,.T.) ;
#384=ORIENTED_EDGE('',*,*,#352,.T.) ;
#385=ORIENTED_EDGE('',*,*,#371,.T.) ;
#386=ORIENTED_EDGE('',*,*,#377,.F.) ;
#463=ORIENTED_EDGE('',*,*,#401,.T.) ;
#464=ORIENTED_EDGE('',*,*,#352,.F.) ;
#465=ORIENTED_EDGE('',*,*,#418,.F.) ;
#466=ORIENTED_EDGE('',*,*,#377,.T.) ;
#467=ORIENTED_EDGE('',*,*,#423,.T.) ;
#468=ORIENTED_EDGE('',*,*,#295,.F.) ;
#469=ORIENTED_EDGE('',*,*,#430,.F.) ;
#470=ORIENTED_EDGE('',*,*,#437,.T.) ;
#471=ORIENTED_EDGE('',*,*,#444,.T.) ;
#472=ORIENTED_EDGE('',*,*,#461,.F.) ;
#499=ORIENTED_EDGE('',*,*,#344,.F.) ;
#500=ORIENTED_EDGE('',*,*,#497,.F.) ;
#501=ORIENTED_EDGE('',*,*,#323,.T.) ;
#502=ORIENTED_EDGE('',*,*,#418,.T.) ;
#545=ORIENTED_EDGE('',*,*,#515,.F.) ;
#546=ORIENTED_EDGE('',*,*,#538,.F.) ;
#547=ORIENTED_EDGE('',*,*,#543,.T.) ;
#548=ORIENTED_EDGE('',*,*,#461,.T.) ;
#570=ORIENTED_EDGE('',*,*,#543,.F.) ;
#571=ORIENTED_EDGE('',*,*,#155,.T.) ;
#572=ORIENTED_EDGE('',*,*,#515,.T.) ;
#573=ORIENTED_EDGE('',*,*,#568,.F.) ;
#588=ORIENTED_EDGE('',*,*,#437,.F.) ;
#589=ORIENTED_EDGE('',*,*,#586,.F.) ;
#597=ORIENTED_EDGE('',*,*,#595,.T.) ;
#598=ORIENTED_EDGE('',*,*,#215,.T.) ;
#602=ORIENTED_EDGE('',*,*,#538,.T.) ;
#603=ORIENTED_EDGE('',*,*,#220,.T.) ;
#604=ORIENTED_EDGE('',*,*,#595,.F.) ;
#605=ORIENTED_EDGE('',*,*,#208,.F.) ;
#606=ORIENTED_EDGE('',*,*,#304,.T.) ;
#607=ORIENTED_EDGE('',*,*,#194,.T.) ;
#608=ORIENTED_EDGE('',*,*,#329,.F.) ;
#609=ORIENTED_EDGE('',*,*,#497,.T.) ;
#610=ORIENTED_EDGE('',*,*,#337,.T.) ;
#611=ORIENTED_EDGE('',*,*,#162,.T.) ;
#616=ORIENTED_EDGE('',*,*,#444,.F.) ;
#617=ORIENTED_EDGE('',*,*,#586,.T.) ;
#618=ORIENTED_EDGE('',*,*,#430,.T.) ;
#619=ORIENTED_EDGE('',*,*,#290,.F.) ;
#620=ORIENTED_EDGE('',*,*,#423,.F.) ;
#621=ORIENTED_EDGE('',*,*,#371,.F.) ;
#622=ORIENTED_EDGE('',*,*,#401,.F.) ;
#623=ORIENTED_EDGE('',*,*,#568,.T.) ;
#652=ORIENTED_EDGE('',*,*,#639,.F.) ;
#653=ORIENTED_EDGE('',*,*,#650,.F.) ;
#656=ORIENTED_EDGE('',*,*,#75,.T.) ;
#657=ORIENTED_EDGE('',*,*,#115,.T.) ;
#676=ORIENTED_EDGE('',*,*,#650,.T.) ;
#677=ORIENTED_EDGE('',*,*,#669,.F.) ;
#678=ORIENTED_EDGE('',*,*,#259,.F.) ;
#679=ORIENTED_EDGE('',*,*,#674,.T.) ;
#684=ORIENTED_EDGE('',*,*,#639,.T.) ;
#685=ORIENTED_EDGE('',*,*,#674,.F.) ;
#686=ORIENTED_EDGE('',*,*,#248,.F.) ;
#687=ORIENTED_EDGE('',*,*,#669,.T.) ;
#21=MANIFOLD_SOLID_BREP('PartBody',#30) ;
#41=VERTEX_POINT('',#40) ;
#43=VERTEX_POINT('',#42) ;
#56=VERTEX_POINT('',#55) ;
#63=VERTEX_POINT('',#62) ;
#152=VERTEX_POINT('',#151) ;
#154=VERTEX_POINT('',#153) ;
#161=VERTEX_POINT('',#160) ;
#186=VERTEX_POINT('',#185) ;
#193=VERTEX_POINT('',#192) ;
#200=VERTEX_POINT('',#199) ;
#207=VERTEX_POINT('',#206) ;
#214=VERTEX_POINT('',#213) ;
#245=VERTEX_POINT('',#244) ;
#247=VERTEX_POINT('',#246) ;
#287=VERTEX_POINT('',#286) ;
#289=VERTEX_POINT('',#288) ;
#320=VERTEX_POINT('',#319) ;
#322=VERTEX_POINT('',#321) ;
#336=VERTEX_POINT('',#335) ;
#343=VERTEX_POINT('',#342) ;
#351=VERTEX_POINT('',#350) ;
#370=VERTEX_POINT('',#369) ;
#400=VERTEX_POINT('',#399) ;
#429=VERTEX_POINT('',#428) ;
#436=VERTEX_POINT('',#435) ;
#443=VERTEX_POINT('',#442) ;
#636=VERTEX_POINT('',#635) ;
#638=VERTEX_POINT('',#637) ;
#691=ADVANCED_BREP_SHAPE_REPRESENTATION('NONE',(#21),#16) ;
#82=ADVANCED_FACE('PartBody',(#81),#35,.F.) ;
#122=ADVANCED_FACE('PartBody',(#121),#35,.F.) ;
#268=ADVANCED_FACE('PartBody',(#230,#263,#267),#128,.F.) ;
#309=ADVANCED_FACE('PartBody',(#299,#308),#281,.T.) ;
#388=ADVANCED_FACE('PartBody',(#387),#314,.F.) ;
#474=ADVANCED_FACE('PartBody',(#473),#394,.T.) ;
#504=ADVANCED_FACE('PartBody',(#503),#314,.F.) ;
#550=ADVANCED_FACE('PartBody',(#549),#510,.F.) ;
#575=ADVANCED_FACE('PartBody',(#574),#510,.F.) ;
#600=ADVANCED_FACE('PartBody',(#590,#599),#581,.F.) ;
#613=ADVANCED_FACE('PartBody',(#612),#128,.F.) ;
#659=ADVANCED_FACE('PartBody',(#624,#654,#658),#394,.T.) ;
#681=ADVANCED_FACE('PartBody',(#680),#664,.F.) ;
#689=ADVANCED_FACE('PartBody',(#688),#664,.F.) ;
#4=APPLICATION_PROTOCOL_DEFINITION('international standard','ap242_managed_model_based_3d_engineering',2014,#1) ;
#45=B_SPLINE_CURVE_WITH_KNOTS('',5,(#46,#47,#48,#49,#50,#51,#52,#53,#54),.UNSPECIFIED.,.F.,.U.,(6,3,6),(5.48581066527,8.3308853936,10.9716222482),.UNSPECIFIED.) ;
#65=B_SPLINE_CURVE_WITH_KNOTS('',5,(#66,#67,#68,#69,#70,#71,#72,#73,#74),.UNSPECIFIED.,.F.,.U.,(6,3,6),(5.47067048838,8.35646413022,10.9413430779),.UNSPECIFIED.) ;
#91=B_SPLINE_CURVE_WITH_KNOTS('',5,(#92,#93,#94,#95,#96,#97,#98,#99,#100,#101,#102,#103),.UNSPECIFIED.,.F.,.U.,(6,3,3,6),(0.,2.08218986269,3.11833262952,5.48581066527),.UNSPECIFIED.) ;
#105=B_SPLINE_CURVE_WITH_KNOTS('',5,(#106,#107,#108,#109,#110,#111,#112,#113,#114),.UNSPECIFIED.,.F.,.U.,(6,3,6),(0.,3.12974587262,5.47067048838),.UNSPECIFIED.) ;
#129=B_SPLINE_CURVE_WITH_KNOTS('',5,(#130,#131,#132,#133,#134,#135,#136,#137,#138,#139,#140,#141,#142,#143,#144,#145,#146,#147,#148,#149,#150),.UNSPECIFIED.,.F.,.U.,(6,3,3,3,3,3,6),(0.,3.1592029315,5.46212359388,7.8538699358,9.87850771175,12.423062813,15.3566645721),.UNSPECIFIED.) ;
#163=B_SPLINE_CURVE_WITH_KNOTS('',5,(#164,#165,#166,#167,#168,#169,#170,#171,#172,#173,#174,#175,#176,#177,#178,#179,#180,#181,#182,#183,#184),.UNSPECIFIED.,.F.,.U.,(6,3,3,3,3,3,6),(0.,3.16136415333,5.46295622282,7.84121988382,9.87905288105,12.4413178911,15.2462417591),.UNSPECIFIED.) ;
#231=B_SPLINE_CURVE_WITH_KNOTS('',5,(#232,#233,#234,#235,#236,#237,#238,#239,#240,#241,#242,#243),.UNSPECIFIED.,.F.,.U.,(6,3,3,6),(0.,2.08218986269,3.11833262952,5.48581066527),.UNSPECIFIED.) ;
#249=B_SPLINE_CURVE_WITH_KNOTS('',5,(#250,#251,#252,#253,#254,#255,#256,#257,#258),.UNSPECIFIED.,.F.,.U.,(6,3,6),(5.48581066527,8.3308853936,10.9716222482),.UNSPECIFIED.) ;
#324=B_SPLINE_CURVE_WITH_KNOTS('',3,(#325,#326,#327,#328),.UNSPECIFIED.,.F.,.U.,(4,4),(0.,0.0440131049336),.UNSPECIFIED.) ;
#330=B_SPLINE_CURVE_WITH_KNOTS('',3,(#331,#332,#333,#334),.UNSPECIFIED.,.F.,.U.,(4,4),(15.379802895,15.4238161455),.UNSPECIFIED.) ;
#345=B_SPLINE_CURVE_WITH_KNOTS('',3,(#346,#347,#348,#349),.UNSPECIFIED.,.F.,.U.,(4,4),(14.9449367897,14.9889498347),.UNSPECIFIED.) ;
#353=B_SPLINE_CURVE_WITH_KNOTS('',5,(#354,#355,#356,#357,#358,#359,#360,#361,#362,#363,#364,#365,#366,#367,#368),.UNSPECIFIED.,.F.,.U.,(6,3,3,3,6),(0.,2.04616763142,6.75230505414,9.9250041221,14.8450937479),.UNSPECIFIED.) ;
#372=B_SPLINE_CURVE_WITH_KNOTS('',3,(#373,#374,#375,#376),.UNSPECIFIED.,.F.,.U.,(4,4),(0.,0.0440129295198),.UNSPECIFIED.) ;
#402=B_SPLINE_CURVE_WITH_KNOTS('',5,(#403,#404,#405,#406,#407,#408,#409,#410,#411,#412,#413,#414,#415,#416,#417),.UNSPECIFIED.,.F.,.U.,(6,3,3,3,6),(0.,2.0461752115,6.75739310777,9.92153171582,14.9449367897),.UNSPECIFIED.) ;
#445=B_SPLINE_CURVE_WITH_KNOTS('',5,(#446,#447,#448,#449,#450,#451,#452,#453,#454,#455,#456,#457,#458,#459,#460),.UNSPECIFIED.,.F.,.U.,(6,3,3,3,6),(0.,2.04590033062,6.75506336418,9.9239293856,14.938975447),.UNSPECIFIED.) ;
#475=B_SPLINE_CURVE_WITH_KNOTS('',5,(#476,#477,#478,#479,#480,#481,#482,#483,#484,#485,#486,#487,#488,#489,#490,#491,#492,#493,#494,#495,#496),.UNSPECIFIED.,.F.,.U.,(6,3,3,3,3,3,6),(0.,3.16160627084,5.47150093307,7.8613635149,9.87482238778,12.4146790282,15.379802895),.UNSPECIFIED.) ;
#516=B_SPLINE_CURVE_WITH_KNOTS('',5,(#517,#518,#519,#520,#521,#522,#523,#524,#525,#526,#527,#528,#529,#530,#531,#532,#533,#534,#535,#536,#537),.UNSPECIFIED.,.F.,.U.,(6,3,3,3,3,3,6),(0.,3.15920293142,5.46212359385,7.85386993576,9.87850771173,12.4230628129,15.3566645722),.UNSPECIFIED.) ;
#552=B_SPLINE_CURVE_WITH_KNOTS('',5,(#553,#554,#555,#556,#557,#558,#559,#560,#561,#562,#563,#564,#565,#566,#567),.UNSPECIFIED.,.F.,.U.,(6,3,3,3,6),(0.,2.04590033071,6.75506336421,9.92392938568,14.9389754468),.UNSPECIFIED.) ;
#625=B_SPLINE_CURVE_WITH_KNOTS('',5,(#626,#627,#628,#629,#630,#631,#632,#633,#634),.UNSPECIFIED.,.F.,.U.,(6,3,6),(0.,3.12974587262,5.47067048838),.UNSPECIFIED.) ;
#640=B_SPLINE_CURVE_WITH_KNOTS('',5,(#641,#642,#643,#644,#645,#646,#647,#648,#649),.UNSPECIFIED.,.F.,.U.,(6,3,6),(5.47067048838,8.35646413022,10.9413430779),.UNSPECIFIED.) ;
#22=COLOUR_RGB('Colour',0.2,0.2,0.2) ;
#83=COLOUR_RGB('Colour',1.,0.882352941176,0.) ;
#90=OVER_RIDING_STYLED_ITEM(' ',(#89),#82,#29) ;
#123=OVER_RIDING_STYLED_ITEM(' ',(#89),#122,#29) ;
#276=OVER_RIDING_STYLED_ITEM(' ',(#275),#268,#29) ;
#389=OVER_RIDING_STYLED_ITEM(' ',(#89),#388,#29) ;
#505=OVER_RIDING_STYLED_ITEM(' ',(#89),#504,#29) ;
#551=OVER_RIDING_STYLED_ITEM(' ',(#89),#550,#29) ;
#576=OVER_RIDING_STYLED_ITEM(' ',(#89),#575,#29) ;
#614=OVER_RIDING_STYLED_ITEM(' ',(#275),#613,#29) ;
#682=OVER_RIDING_STYLED_ITEM(' ',(#89),#681,#29) ;
#690=OVER_RIDING_STYLED_ITEM(' ',(#89),#689,#29) ;
#269=DRAUGHTING_PRE_DEFINED_COLOUR('blue') ;
#81=FACE_OUTER_BOUND('',#76,.T.) ;
#121=FACE_OUTER_BOUND('',#116,.T.) ;
#230=FACE_OUTER_BOUND('',#221,.T.) ;
#299=FACE_OUTER_BOUND('',#296,.T.) ;
#387=FACE_OUTER_BOUND('',#378,.T.) ;
#473=FACE_OUTER_BOUND('',#462,.T.) ;
#503=FACE_OUTER_BOUND('',#498,.T.) ;
#549=FACE_OUTER_BOUND('',#544,.T.) ;
#574=FACE_OUTER_BOUND('',#569,.T.) ;
#590=FACE_OUTER_BOUND('',#587,.T.) ;
#612=FACE_OUTER_BOUND('',#601,.T.) ;
#624=FACE_OUTER_BOUND('',#615,.T.) ;
#680=FACE_OUTER_BOUND('',#675,.T.) ;
#688=FACE_OUTER_BOUND('',#683,.T.) ;
#9=PRODUCT_CATEGORY_RELATIONSHIP(' ',' ',#7,#8) ;
#6=PRODUCT_DEFINITION_FORMATION_WITH_SPECIFIED_SOURCE('',' ',#5,.NOT_KNOWN.) ;
#20=SHAPE_DEFINITION_REPRESENTATION(#11,#19) ;
#12=(LENGTH_UNIT()NAMED_UNIT(*)SI_UNIT(.MILLI.,.METRE.)) ;
#13=(NAMED_UNIT(*)PLANE_ANGLE_UNIT()SI_UNIT($,.RADIAN.)) ;
#14=(NAMED_UNIT(*)SI_UNIT($,.STERADIAN.)SOLID_ANGLE_UNIT()) ;
#16=(GEOMETRIC_REPRESENTATION_CONTEXT(3)GLOBAL_UNCERTAINTY_ASSIGNED_CONTEXT((#15))GLOBAL_UNIT_ASSIGNED_CONTEXT((#12,#13,#14))REPRESENTATION_CONTEXT(' ',' ')) ;
ENDSEC;
END-ISO-10303-21;
