ISO-10303-21;
HEADER;
FILE_DESCRIPTION(('CATIA V5 STEP Exchange','CAx-IF Rec.Pracs.--- Model Styling and Organization---1.4--- 2014-01-23','CAx-IF Rec.Pracs.---3D Tessellated Data Validation Properties---0.5---2014-09-14'),'2;1');

FILE_NAME('D:\\GrabCAD\\I+D\\SERIE_LEXA\\EKOT-1360-170921A-LEXA_WAIST_SUPPORT\\FAB\\FAB_C\\PDF\\MAQUINADO\\1360.000.010.000.ENGRAE.stp','2024-11-01T00:01:43+00:00',('none'),('none'),'CATIA Version 5-6 Release 2018 SP6','CATIA V5 STEP AP242','none');

FILE_SCHEMA(('AP242_MANAGED_MODEL_BASED_3D_ENGINEERING_MIM_LF  {1 0 10303 442 1 1 4}'));

ENDSEC;
DATA;
#5=PRODUCT('1360.000.010.000.ENGRAE','','',(#2)) ;
#2=PRODUCT_CONTEXT(' ',#1,'mechanical') ;
#1=APPLICATION_CONTEXT('managed model based 3d engineering') ;
#10=PRODUCT_DEFINITION('',' ',#6,#3) ;
#3=PRODUCT_DEFINITION_CONTEXT('part definition',#1,' ') ;
#11=PRODUCT_DEFINITION_SHAPE(' ',' ',#10) ;
#1176=MECHANICAL_DESIGN_GEOMETRIC_PRESENTATION_REPRESENTATION(' ',(#80,#112,#125,#230,#248,#296,#314,#355,#373,#405,#418,#456,#488,#501,#533,#546,#908,#926,#944,#957,#980,#998,#1016,#1029,#1052,#1070,#1088,#1101,#1124,#1142,#1160,#1173,#29),#16) ;
#19=SHAPE_REPRESENTATION(' ',(#18),#16) ;
#7=PRODUCT_CATEGORY('part','specification') ;
#17=CARTESIAN_POINT(' ',(0.,0.,0.)) ;
#31=CARTESIAN_POINT('Axis2P3D Location',(-1.,2.4,15.)) ;
#36=CARTESIAN_POINT('Axis2P3D Location',(-1.,0.,15.)) ;
#40=CARTESIAN_POINT('Vertex',(-1.,4.125,15.)) ;
#42=CARTESIAN_POINT('Vertex',(-1.,-4.125,15.)) ;
#45=CARTESIAN_POINT('Axis2P3D Location',(-1.,0.,15.)) ;
#54=CARTESIAN_POINT('Axis2P3D Location',(-1.,0.,15.)) ;
#58=CARTESIAN_POINT('Vertex',(-1.,-2.4,15.)) ;
#60=CARTESIAN_POINT('Vertex',(-1.,2.4,15.)) ;
#63=CARTESIAN_POINT('Axis2P3D Location',(-1.,0.,15.)) ;
#81=CARTESIAN_POINT('Axis2P3D Location',(3.,1.11022302463E-016,15.)) ;
#86=CARTESIAN_POINT('Axis2P3D Location',(-3.,1.11022302463E-016,15.)) ;
#90=CARTESIAN_POINT('Vertex',(-3.,-2.4,15.)) ;
#92=CARTESIAN_POINT('Vertex',(-3.,2.4,15.)) ;
#95=CARTESIAN_POINT('Line Origine',(-4.,-2.4,15.)) ;
#100=CARTESIAN_POINT('Line Origine',(-4.,2.4,15.)) ;
#113=CARTESIAN_POINT('Axis2P3D Location',(-3.,1.11022302463E-016,15.)) ;
#126=CARTESIAN_POINT('Axis2P3D Location',(0.,0.,0.)) ;
#131=CARTESIAN_POINT('Line Origine',(0.,24.5,0.)) ;
#135=CARTESIAN_POINT('Vertex',(-3.,24.5,0.)) ;
#137=CARTESIAN_POINT('Vertex',(3.,24.5,0.)) ;
#140=CARTESIAN_POINT('Axis2P3D Location',(-3.,0.,0.)) ;
#144=CARTESIAN_POINT('Vertex',(-3.,-24.5,3.00038465791E-015)) ;
#147=CARTESIAN_POINT('Line Origine',(0.,-24.5,3.00038465791E-015)) ;
#151=CARTESIAN_POINT('Vertex',(3.,-24.5,3.00038465791E-015)) ;
#154=CARTESIAN_POINT('Axis2P3D Location',(3.,0.,0.)) ;
#166=CARTESIAN_POINT('Axis2P3D Location',(-3.,0.,0.)) ;
#171=CARTESIAN_POINT('Axis2P3D Location',(3.,0.,0.)) ;
#183=CARTESIAN_POINT('Axis2P3D Location',(0.,0.,0.)) ;
#188=CARTESIAN_POINT('Axis2P3D Location',(3.,0.,0.)) ;
#192=CARTESIAN_POINT('Vertex',(3.,5.5,0.)) ;
#194=CARTESIAN_POINT('Vertex',(3.,-5.5,3.11604639371E-015)) ;
#197=CARTESIAN_POINT('Line Origine',(0.,-5.5,3.11604639371E-015)) ;
#201=CARTESIAN_POINT('Vertex',(-3.,-5.5,3.11604639371E-015)) ;
#204=CARTESIAN_POINT('Axis2P3D Location',(-3.,0.,0.)) ;
#208=CARTESIAN_POINT('Vertex',(-3.,5.5,0.)) ;
#211=CARTESIAN_POINT('Line Origine',(0.,5.5,0.)) ;
#231=CARTESIAN_POINT('Axis2P3D Location',(3.,0.,0.)) ;
#236=CARTESIAN_POINT('Axis2P3D Location',(-3.,0.,0.)) ;
#249=CARTESIAN_POINT('Axis2P3D Location',(-3.,15.,8.881784197E-016)) ;
#254=CARTESIAN_POINT('Line Origine',(1.84499999998,12.,1.25557245944E-015)) ;
#258=CARTESIAN_POINT('Vertex',(3.,12.,1.25557245944E-015)) ;
#260=CARTESIAN_POINT('Vertex',(-3.,12.,1.25557245944E-015)) ;
#263=CARTESIAN_POINT('Axis2P3D Location',(3.,15.,8.881784197E-016)) ;
#267=CARTESIAN_POINT('Vertex',(3.,18.,8.881784197E-016)) ;
#270=CARTESIAN_POINT('Line Origine',(1.84499999998,18.,1.53390340212E-016)) ;
#274=CARTESIAN_POINT('Vertex',(-3.,18.,8.881784197E-016)) ;
#277=CARTESIAN_POINT('Axis2P3D Location',(-3.,15.,8.881784197E-016)) ;
#297=CARTESIAN_POINT('Axis2P3D Location',(3.,15.,8.881784197E-016)) ;
#302=CARTESIAN_POINT('Axis2P3D Location',(-3.,15.,8.881784197E-016)) ;
#315=CARTESIAN_POINT('Axis2P3D Location',(-3.,-15.,-2.72514861842E-015)) ;
#320=CARTESIAN_POINT('Line Origine',(1.84499999998,-18.,-3.09254265817E-015)) ;
#324=CARTESIAN_POINT('Vertex',(3.,-18.,-2.35775457868E-015)) ;
#326=CARTESIAN_POINT('Vertex',(-3.,-18.,-2.35775457868E-015)) ;
#329=CARTESIAN_POINT('Axis2P3D Location',(3.,-15.,-2.72514861842E-015)) ;
#333=CARTESIAN_POINT('Vertex',(3.,-12.,-3.45993669791E-015)) ;
#336=CARTESIAN_POINT('Line Origine',(1.84499999998,-12.,-2.72514861842E-015)) ;
#340=CARTESIAN_POINT('Vertex',(-3.,-12.,-3.45993669791E-015)) ;
#343=CARTESIAN_POINT('Axis2P3D Location',(-3.,-15.,-2.72514861842E-015)) ;
#356=CARTESIAN_POINT('Axis2P3D Location',(3.,-15.,-2.72514861842E-015)) ;
#361=CARTESIAN_POINT('Axis2P3D Location',(-3.,-15.,-2.72514861842E-015)) ;
#374=CARTESIAN_POINT('Axis2P3D Location',(3.,1.11022302463E-016,15.)) ;
#379=CARTESIAN_POINT('Axis2P3D Location',(3.,1.11022302463E-016,15.)) ;
#383=CARTESIAN_POINT('Vertex',(3.,-4.125,15.)) ;
#385=CARTESIAN_POINT('Vertex',(3.,4.125,15.)) ;
#388=CARTESIAN_POINT('Line Origine',(1.15500000002,4.125,15.)) ;
#393=CARTESIAN_POINT('Line Origine',(1.15500000002,-4.125,15.)) ;
#406=CARTESIAN_POINT('Axis2P3D Location',(3.,1.11022302463E-016,15.)) ;
#419=CARTESIAN_POINT('Axis2P3D Location',(-1.,-1.7763568394E-015,-15.)) ;
#423=CARTESIAN_POINT('Vertex',(-1.,-4.125,-15.)) ;
#425=CARTESIAN_POINT('Vertex',(-1.,4.125,-15.)) ;
#428=CARTESIAN_POINT('Axis2P3D Location',(-1.,-1.7763568394E-015,-15.)) ;
#437=CARTESIAN_POINT('Axis2P3D Location',(-1.,-1.7763568394E-015,-15.)) ;
#441=CARTESIAN_POINT('Vertex',(-1.,2.4,-15.)) ;
#443=CARTESIAN_POINT('Vertex',(-1.,-2.4,-15.)) ;
#446=CARTESIAN_POINT('Axis2P3D Location',(-1.,-1.7763568394E-015,-15.)) ;
#457=CARTESIAN_POINT('Axis2P3D Location',(3.,-1.94799250118E-015,-15.)) ;
#462=CARTESIAN_POINT('Axis2P3D Location',(3.,-1.94799250118E-015,-15.)) ;
#466=CARTESIAN_POINT('Vertex',(3.,-4.125,-15.)) ;
#468=CARTESIAN_POINT('Vertex',(3.,4.125,-15.)) ;
#471=CARTESIAN_POINT('Line Origine',(1.15500000002,4.125,-15.)) ;
#476=CARTESIAN_POINT('Line Origine',(1.15500000002,-4.125,-15.)) ;
#489=CARTESIAN_POINT('Axis2P3D Location',(3.,-1.94799250118E-015,-15.)) ;
#502=CARTESIAN_POINT('Axis2P3D Location',(3.,-1.94799250118E-015,-15.)) ;
#507=CARTESIAN_POINT('Axis2P3D Location',(-3.,-1.94799250118E-015,-15.)) ;
#511=CARTESIAN_POINT('Vertex',(-3.,-2.4,-15.)) ;
#513=CARTESIAN_POINT('Vertex',(-3.,2.4,-15.)) ;
#516=CARTESIAN_POINT('Line Origine',(-4.,-2.4,-15.)) ;
#521=CARTESIAN_POINT('Line Origine',(-4.,2.4,-15.)) ;
#534=CARTESIAN_POINT('Axis2P3D Location',(-3.,-1.94799250118E-015,-15.)) ;
#547=CARTESIAN_POINT('Axis2P3D Location',(-3.,0.,0.)) ;
#556=CARTESIAN_POINT('Line Origine',(-3.,7.42462120246,11.6672618896)) ;
#560=CARTESIAN_POINT('Vertex',(-3.,4.94974746831,9.19238815543)) ;
#562=CARTESIAN_POINT('Vertex',(-3.,9.89949493661,14.1421356237)) ;
#565=CARTESIAN_POINT('Axis2P3D Location',(-3.,7.07106781187,7.07106781187)) ;
#569=CARTESIAN_POINT('Vertex',(-3.,9.19238815543,4.94974746831)) ;
#572=CARTESIAN_POINT('Line Origine',(-3.,11.6672618896,7.42462120246)) ;
#576=CARTESIAN_POINT('Vertex',(-3.,14.1421356237,9.89949493661)) ;
#579=CARTESIAN_POINT('Axis2P3D Location',(-3.,12.0208152802,12.0208152802)) ;
#610=CARTESIAN_POINT('Line Origine',(-3.,-7.42462120246,11.6672618896)) ;
#614=CARTESIAN_POINT('Vertex',(-3.,-9.89949493661,14.1421356237)) ;
#616=CARTESIAN_POINT('Vertex',(-3.,-4.94974746831,9.19238815543)) ;
#619=CARTESIAN_POINT('Axis2P3D Location',(-3.,-12.0208152802,12.0208152802)) ;
#623=CARTESIAN_POINT('Vertex',(-3.,-14.1421356237,9.89949493661)) ;
#626=CARTESIAN_POINT('Line Origine',(-3.,-11.6672618896,7.42462120246)) ;
#630=CARTESIAN_POINT('Vertex',(-3.,-9.19238815543,4.94974746831)) ;
#633=CARTESIAN_POINT('Axis2P3D Location',(-3.,-7.07106781187,7.07106781187)) ;
#644=CARTESIAN_POINT('Line Origine',(-3.,-11.6672618896,-7.42462120246)) ;
#648=CARTESIAN_POINT('Vertex',(-3.,-14.1421356237,-9.89949493661)) ;
#650=CARTESIAN_POINT('Vertex',(-3.,-9.19238815543,-4.94974746831)) ;
#653=CARTESIAN_POINT('Axis2P3D Location',(-3.,-12.0208152802,-12.0208152802)) ;
#657=CARTESIAN_POINT('Vertex',(-3.,-9.89949493661,-14.1421356237)) ;
#660=CARTESIAN_POINT('Line Origine',(-3.,-7.42462120246,-11.6672618896)) ;
#664=CARTESIAN_POINT('Vertex',(-3.,-4.94974746831,-9.19238815543)) ;
#667=CARTESIAN_POINT('Axis2P3D Location',(-3.,-7.07106781187,-7.07106781187)) ;
#678=CARTESIAN_POINT('Line Origine',(-3.,7.42462120246,-11.6672618896)) ;
#682=CARTESIAN_POINT('Vertex',(-3.,9.89949493661,-14.1421356237)) ;
#684=CARTESIAN_POINT('Vertex',(-3.,4.94974746831,-9.19238815543)) ;
#687=CARTESIAN_POINT('Axis2P3D Location',(-3.,12.0208152802,-12.0208152802)) ;
#691=CARTESIAN_POINT('Vertex',(-3.,14.1421356237,-9.89949493661)) ;
#694=CARTESIAN_POINT('Line Origine',(-3.,11.6672618896,-7.42462120246)) ;
#698=CARTESIAN_POINT('Vertex',(-3.,9.19238815543,-4.94974746831)) ;
#701=CARTESIAN_POINT('Axis2P3D Location',(-3.,7.07106781187,-7.07106781187)) ;
#713=CARTESIAN_POINT('Axis2P3D Location',(3.,0.,0.)) ;
#722=CARTESIAN_POINT('Axis2P3D Location',(3.,12.0208152802,12.0208152802)) ;
#726=CARTESIAN_POINT('Vertex',(3.,14.1421356237,9.89949493661)) ;
#728=CARTESIAN_POINT('Vertex',(3.,9.89949493661,14.1421356237)) ;
#731=CARTESIAN_POINT('Line Origine',(3.,11.6672618896,7.42462120246)) ;
#735=CARTESIAN_POINT('Vertex',(3.,9.19238815543,4.94974746831)) ;
#738=CARTESIAN_POINT('Axis2P3D Location',(3.,7.07106781187,7.07106781187)) ;
#742=CARTESIAN_POINT('Vertex',(3.,4.94974746831,9.19238815543)) ;
#745=CARTESIAN_POINT('Line Origine',(3.,7.42462120246,11.6672618896)) ;
#776=CARTESIAN_POINT('Axis2P3D Location',(3.,-12.0208152802,12.0208152802)) ;
#780=CARTESIAN_POINT('Vertex',(3.,-9.89949493661,14.1421356237)) ;
#782=CARTESIAN_POINT('Vertex',(3.,-14.1421356237,9.89949493661)) ;
#785=CARTESIAN_POINT('Line Origine',(3.,-7.42462120246,11.6672618896)) ;
#789=CARTESIAN_POINT('Vertex',(3.,-4.94974746831,9.19238815543)) ;
#792=CARTESIAN_POINT('Axis2P3D Location',(3.,-7.07106781187,7.07106781187)) ;
#796=CARTESIAN_POINT('Vertex',(3.,-9.19238815543,4.94974746831)) ;
#799=CARTESIAN_POINT('Line Origine',(3.,-11.6672618896,7.42462120246)) ;
#810=CARTESIAN_POINT('Axis2P3D Location',(3.,-12.0208152802,-12.0208152802)) ;
#814=CARTESIAN_POINT('Vertex',(3.,-14.1421356237,-9.89949493661)) ;
#816=CARTESIAN_POINT('Vertex',(3.,-9.89949493661,-14.1421356237)) ;
#819=CARTESIAN_POINT('Line Origine',(3.,-11.6672618896,-7.42462120246)) ;
#823=CARTESIAN_POINT('Vertex',(3.,-9.19238815543,-4.94974746831)) ;
#826=CARTESIAN_POINT('Axis2P3D Location',(3.,-7.07106781187,-7.07106781187)) ;
#830=CARTESIAN_POINT('Vertex',(3.,-4.94974746831,-9.19238815543)) ;
#833=CARTESIAN_POINT('Line Origine',(3.,-7.42462120246,-11.6672618896)) ;
#844=CARTESIAN_POINT('Axis2P3D Location',(3.,12.0208152802,-12.0208152802)) ;
#848=CARTESIAN_POINT('Vertex',(3.,9.89949493661,-14.1421356237)) ;
#850=CARTESIAN_POINT('Vertex',(3.,14.1421356237,-9.89949493661)) ;
#853=CARTESIAN_POINT('Line Origine',(3.,7.42462120246,-11.6672618896)) ;
#857=CARTESIAN_POINT('Vertex',(3.,4.94974746831,-9.19238815543)) ;
#860=CARTESIAN_POINT('Axis2P3D Location',(3.,7.07106781187,-7.07106781187)) ;
#864=CARTESIAN_POINT('Vertex',(3.,9.19238815543,-4.94974746831)) ;
#867=CARTESIAN_POINT('Line Origine',(3.,11.6672618896,-7.42462120246)) ;
#879=CARTESIAN_POINT('Axis2P3D Location',(3.,4.94974746831,9.19238815543)) ;
#884=CARTESIAN_POINT('Line Origine',(0.,9.89949493661,14.1421356237)) ;
#889=CARTESIAN_POINT('Line Origine',(0.,4.94974746831,9.19238815543)) ;
#909=CARTESIAN_POINT('Axis2P3D Location',(-4.5,7.07106781187,7.07106781187)) ;
#914=CARTESIAN_POINT('Line Origine',(-4.5,9.19238815543,4.94974746831)) ;
#927=CARTESIAN_POINT('Axis2P3D Location',(-4.5,12.0208152802,12.0208152802)) ;
#932=CARTESIAN_POINT('Line Origine',(-4.5,14.1421356237,9.89949493661)) ;
#945=CARTESIAN_POINT('Axis2P3D Location',(3.,14.1421356237,9.89949493661)) ;
#958=CARTESIAN_POINT('Axis2P3D Location',(3.,-9.19238815543,4.94974746831)) ;
#963=CARTESIAN_POINT('Line Origine',(0.,-14.1421356237,9.89949493661)) ;
#968=CARTESIAN_POINT('Line Origine',(0.,-9.19238815543,4.94974746831)) ;
#981=CARTESIAN_POINT('Axis2P3D Location',(-4.5,-12.0208152802,12.0208152802)) ;
#986=CARTESIAN_POINT('Line Origine',(-4.5,-9.89949493661,14.1421356237)) ;
#999=CARTESIAN_POINT('Axis2P3D Location',(3.,-9.89949493661,14.1421356237)) ;
#1004=CARTESIAN_POINT('Line Origine',(0.,-4.94974746831,9.19238815543)) ;
#1017=CARTESIAN_POINT('Axis2P3D Location',(-4.5,-7.07106781187,7.07106781187)) ;
#1030=CARTESIAN_POINT('Axis2P3D Location',(3.,-4.94974746831,-9.19238815543)) ;
#1035=CARTESIAN_POINT('Line Origine',(0.,-9.89949493661,-14.1421356237)) ;
#1040=CARTESIAN_POINT('Line Origine',(0.,-4.94974746831,-9.19238815543)) ;
#1053=CARTESIAN_POINT('Axis2P3D Location',(-4.5,-12.0208152802,-12.0208152802)) ;
#1058=CARTESIAN_POINT('Line Origine',(-4.5,-14.1421356237,-9.89949493661)) ;
#1071=CARTESIAN_POINT('Axis2P3D Location',(3.,-14.1421356237,-9.89949493661)) ;
#1076=CARTESIAN_POINT('Line Origine',(0.,-9.19238815543,-4.94974746831)) ;
#1089=CARTESIAN_POINT('Axis2P3D Location',(-4.5,-7.07106781187,-7.07106781187)) ;
#1102=CARTESIAN_POINT('Axis2P3D Location',(3.,9.19238815543,-4.94974746831)) ;
#1107=CARTESIAN_POINT('Line Origine',(0.,14.1421356237,-9.89949493661)) ;
#1112=CARTESIAN_POINT('Line Origine',(0.,9.19238815543,-4.94974746831)) ;
#1125=CARTESIAN_POINT('Axis2P3D Location',(-4.5,12.0208152802,-12.0208152802)) ;
#1130=CARTESIAN_POINT('Line Origine',(-4.5,9.89949493661,-14.1421356237)) ;
#1143=CARTESIAN_POINT('Axis2P3D Location',(3.,9.89949493661,-14.1421356237)) ;
#1148=CARTESIAN_POINT('Line Origine',(0.,4.94974746831,-9.19238815543)) ;
#1161=CARTESIAN_POINT('Axis2P3D Location',(-4.5,7.07106781187,-7.07106781187)) ;
#8=PRODUCT_RELATED_PRODUCT_CATEGORY('part',$,(#5)) ;
#29=STYLED_ITEM(' ',(#28),#21) ;
#28=PRESENTATION_STYLE_ASSIGNMENT((#27)) ;
#79=PRESENTATION_STYLE_ASSIGNMENT((#78)) ;
#229=PRESENTATION_STYLE_ASSIGNMENT((#228)) ;
#295=PRESENTATION_STYLE_ASSIGNMENT((#294)) ;
#907=PRESENTATION_STYLE_ASSIGNMENT((#906)) ;
#27=SURFACE_STYLE_USAGE(.BOTH.,#26) ;
#78=SURFACE_STYLE_USAGE(.BOTH.,#77) ;
#228=SURFACE_STYLE_USAGE(.BOTH.,#227) ;
#294=SURFACE_STYLE_USAGE(.BOTH.,#293) ;
#906=SURFACE_STYLE_USAGE(.BOTH.,#905) ;
#26=SURFACE_SIDE_STYLE(' ',(#25)) ;
#77=SURFACE_SIDE_STYLE(' ',(#76)) ;
#227=SURFACE_SIDE_STYLE(' ',(#226)) ;
#293=SURFACE_SIDE_STYLE(' ',(#292)) ;
#905=SURFACE_SIDE_STYLE(' ',(#904)) ;
#25=SURFACE_STYLE_FILL_AREA(#24) ;
#76=SURFACE_STYLE_FILL_AREA(#75) ;
#226=SURFACE_STYLE_FILL_AREA(#225) ;
#292=SURFACE_STYLE_FILL_AREA(#291) ;
#904=SURFACE_STYLE_FILL_AREA(#903) ;
#24=FILL_AREA_STYLE(' ',(#23)) ;
#75=FILL_AREA_STYLE(' ',(#74)) ;
#225=FILL_AREA_STYLE(' ',(#224)) ;
#291=FILL_AREA_STYLE(' ',(#290)) ;
#903=FILL_AREA_STYLE(' ',(#902)) ;
#23=FILL_AREA_STYLE_COLOUR(' ',#22) ;
#74=FILL_AREA_STYLE_COLOUR(' ',#73) ;
#224=FILL_AREA_STYLE_COLOUR(' ',#223) ;
#290=FILL_AREA_STYLE_COLOUR(' ',#289) ;
#902=FILL_AREA_STYLE_COLOUR(' ',#901) ;
#97=VECTOR('Line Direction',#96,1.) ;
#102=VECTOR('Line Direction',#101,1.) ;
#133=VECTOR('Line Direction',#132,1.) ;
#149=VECTOR('Line Direction',#148,1.) ;
#199=VECTOR('Line Direction',#198,1.) ;
#213=VECTOR('Line Direction',#212,1.) ;
#256=VECTOR('Line Direction',#255,1.) ;
#272=VECTOR('Line Direction',#271,1.) ;
#322=VECTOR('Line Direction',#321,1.) ;
#338=VECTOR('Line Direction',#337,1.) ;
#390=VECTOR('Line Direction',#389,1.) ;
#395=VECTOR('Line Direction',#394,1.) ;
#473=VECTOR('Line Direction',#472,1.) ;
#478=VECTOR('Line Direction',#477,1.) ;
#518=VECTOR('Line Direction',#517,1.) ;
#523=VECTOR('Line Direction',#522,1.) ;
#558=VECTOR('Line Direction',#557,1.) ;
#574=VECTOR('Line Direction',#573,1.) ;
#612=VECTOR('Line Direction',#611,1.) ;
#628=VECTOR('Line Direction',#627,1.) ;
#646=VECTOR('Line Direction',#645,1.) ;
#662=VECTOR('Line Direction',#661,1.) ;
#680=VECTOR('Line Direction',#679,1.) ;
#696=VECTOR('Line Direction',#695,1.) ;
#733=VECTOR('Line Direction',#732,1.) ;
#747=VECTOR('Line Direction',#746,1.) ;
#787=VECTOR('Line Direction',#786,1.) ;
#801=VECTOR('Line Direction',#800,1.) ;
#821=VECTOR('Line Direction',#820,1.) ;
#835=VECTOR('Line Direction',#834,1.) ;
#855=VECTOR('Line Direction',#854,1.) ;
#869=VECTOR('Line Direction',#868,1.) ;
#886=VECTOR('Line Direction',#885,1.) ;
#891=VECTOR('Line Direction',#890,1.) ;
#916=VECTOR('Line Direction',#915,1.) ;
#934=VECTOR('Line Direction',#933,1.) ;
#965=VECTOR('Line Direction',#964,1.) ;
#970=VECTOR('Line Direction',#969,1.) ;
#988=VECTOR('Line Direction',#987,1.) ;
#1006=VECTOR('Line Direction',#1005,1.) ;
#1037=VECTOR('Line Direction',#1036,1.) ;
#1042=VECTOR('Line Direction',#1041,1.) ;
#1060=VECTOR('Line Direction',#1059,1.) ;
#1078=VECTOR('Line Direction',#1077,1.) ;
#1109=VECTOR('Line Direction',#1108,1.) ;
#1114=VECTOR('Line Direction',#1113,1.) ;
#1132=VECTOR('Line Direction',#1131,1.) ;
#1150=VECTOR('Line Direction',#1149,1.) ;
#32=DIRECTION('Axis2P3D Direction',(-1.,0.,0.)) ;
#33=DIRECTION('Axis2P3D XDirection',(0.,1.,0.)) ;
#37=DIRECTION('Axis2P3D Direction',(-1.,0.,0.)) ;
#46=DIRECTION('Axis2P3D Direction',(-1.,0.,0.)) ;
#55=DIRECTION('Axis2P3D Direction',(-1.,0.,0.)) ;
#64=DIRECTION('Axis2P3D Direction',(-1.,0.,0.)) ;
#82=DIRECTION('Axis2P3D Direction',(-1.,0.,-0.)) ;
#83=DIRECTION('Axis2P3D XDirection',(0.,1.,0.)) ;
#87=DIRECTION('Axis2P3D Direction',(-1.,0.,-0.)) ;
#96=DIRECTION('Vector Direction',(-1.,0.,0.)) ;
#101=DIRECTION('Vector Direction',(-1.,0.,0.)) ;
#114=DIRECTION('Axis2P3D Direction',(-1.,0.,-0.)) ;
#127=DIRECTION('Axis2P3D Direction',(1.,0.,0.)) ;
#128=DIRECTION('Axis2P3D XDirection',(0.,1.,0.)) ;
#132=DIRECTION('Vector Direction',(1.,0.,0.)) ;
#141=DIRECTION('Axis2P3D Direction',(1.,0.,0.)) ;
#148=DIRECTION('Vector Direction',(1.,0.,0.)) ;
#155=DIRECTION('Axis2P3D Direction',(1.,0.,0.)) ;
#167=DIRECTION('Axis2P3D Direction',(1.,0.,0.)) ;
#172=DIRECTION('Axis2P3D Direction',(1.,0.,0.)) ;
#184=DIRECTION('Axis2P3D Direction',(1.,0.,0.)) ;
#185=DIRECTION('Axis2P3D XDirection',(0.,1.,0.)) ;
#189=DIRECTION('Axis2P3D Direction',(1.,0.,0.)) ;
#198=DIRECTION('Vector Direction',(1.,0.,0.)) ;
#205=DIRECTION('Axis2P3D Direction',(1.,0.,0.)) ;
#212=DIRECTION('Vector Direction',(1.,0.,0.)) ;
#232=DIRECTION('Axis2P3D Direction',(1.,0.,0.)) ;
#237=DIRECTION('Axis2P3D Direction',(1.,0.,0.)) ;
#250=DIRECTION('Axis2P3D Direction',(1.,0.,-0.)) ;
#251=DIRECTION('Axis2P3D XDirection',(0.,1.,0.)) ;
#255=DIRECTION('Vector Direction',(1.,0.,0.)) ;
#264=DIRECTION('Axis2P3D Direction',(1.,0.,-0.)) ;
#271=DIRECTION('Vector Direction',(1.,0.,0.)) ;
#278=DIRECTION('Axis2P3D Direction',(1.,0.,-0.)) ;
#298=DIRECTION('Axis2P3D Direction',(1.,0.,-0.)) ;
#303=DIRECTION('Axis2P3D Direction',(1.,0.,-0.)) ;
#316=DIRECTION('Axis2P3D Direction',(1.,0.,0.)) ;
#317=DIRECTION('Axis2P3D XDirection',(0.,-1.,-1.22464679915E-016)) ;
#321=DIRECTION('Vector Direction',(1.,0.,0.)) ;
#330=DIRECTION('Axis2P3D Direction',(1.,0.,0.)) ;
#337=DIRECTION('Vector Direction',(1.,0.,0.)) ;
#344=DIRECTION('Axis2P3D Direction',(1.,0.,0.)) ;
#357=DIRECTION('Axis2P3D Direction',(1.,0.,0.)) ;
#362=DIRECTION('Axis2P3D Direction',(1.,0.,0.)) ;
#375=DIRECTION('Axis2P3D Direction',(-1.,0.,-0.)) ;
#376=DIRECTION('Axis2P3D XDirection',(0.,1.,0.)) ;
#380=DIRECTION('Axis2P3D Direction',(-1.,0.,-0.)) ;
#389=DIRECTION('Vector Direction',(-1.,0.,0.)) ;
#394=DIRECTION('Vector Direction',(-1.,0.,0.)) ;
#407=DIRECTION('Axis2P3D Direction',(-1.,0.,-0.)) ;
#420=DIRECTION('Axis2P3D Direction',(-1.,0.,0.)) ;
#429=DIRECTION('Axis2P3D Direction',(-1.,0.,0.)) ;
#438=DIRECTION('Axis2P3D Direction',(-1.,0.,0.)) ;
#447=DIRECTION('Axis2P3D Direction',(-1.,0.,0.)) ;
#458=DIRECTION('Axis2P3D Direction',(-1.,0.,0.)) ;
#459=DIRECTION('Axis2P3D XDirection',(0.,-1.,1.22464679915E-016)) ;
#463=DIRECTION('Axis2P3D Direction',(-1.,0.,0.)) ;
#472=DIRECTION('Vector Direction',(-1.,0.,0.)) ;
#477=DIRECTION('Vector Direction',(-1.,0.,0.)) ;
#490=DIRECTION('Axis2P3D Direction',(-1.,0.,0.)) ;
#503=DIRECTION('Axis2P3D Direction',(-1.,0.,0.)) ;
#504=DIRECTION('Axis2P3D XDirection',(0.,-1.,1.22464679915E-016)) ;
#508=DIRECTION('Axis2P3D Direction',(-1.,0.,0.)) ;
#517=DIRECTION('Vector Direction',(-1.,0.,0.)) ;
#522=DIRECTION('Vector Direction',(-1.,0.,0.)) ;
#535=DIRECTION('Axis2P3D Direction',(-1.,0.,0.)) ;
#548=DIRECTION('Axis2P3D Direction',(1.,0.,0.)) ;
#549=DIRECTION('Axis2P3D XDirection',(0.,1.,0.)) ;
#557=DIRECTION('Vector Direction',(0.,0.707106781187,0.707106781187)) ;
#566=DIRECTION('Axis2P3D Direction',(1.,0.,0.)) ;
#573=DIRECTION('Vector Direction',(0.,-0.707106781187,-0.707106781187)) ;
#580=DIRECTION('Axis2P3D Direction',(1.,0.,0.)) ;
#611=DIRECTION('Vector Direction',(0.,0.707106781187,-0.707106781187)) ;
#620=DIRECTION('Axis2P3D Direction',(1.,0.,0.)) ;
#627=DIRECTION('Vector Direction',(0.,-0.707106781187,0.707106781187)) ;
#634=DIRECTION('Axis2P3D Direction',(1.,0.,0.)) ;
#645=DIRECTION('Vector Direction',(0.,0.707106781187,0.707106781187)) ;
#654=DIRECTION('Axis2P3D Direction',(1.,0.,0.)) ;
#661=DIRECTION('Vector Direction',(0.,-0.707106781187,-0.707106781187)) ;
#668=DIRECTION('Axis2P3D Direction',(1.,0.,0.)) ;
#679=DIRECTION('Vector Direction',(0.,-0.707106781187,0.707106781187)) ;
#688=DIRECTION('Axis2P3D Direction',(1.,0.,0.)) ;
#695=DIRECTION('Vector Direction',(0.,0.707106781187,-0.707106781187)) ;
#702=DIRECTION('Axis2P3D Direction',(1.,0.,0.)) ;
#714=DIRECTION('Axis2P3D Direction',(1.,0.,0.)) ;
#715=DIRECTION('Axis2P3D XDirection',(0.,1.,0.)) ;
#723=DIRECTION('Axis2P3D Direction',(1.,0.,0.)) ;
#732=DIRECTION('Vector Direction',(0.,-0.707106781187,-0.707106781187)) ;
#739=DIRECTION('Axis2P3D Direction',(1.,0.,0.)) ;
#746=DIRECTION('Vector Direction',(0.,0.707106781187,0.707106781187)) ;
#777=DIRECTION('Axis2P3D Direction',(1.,0.,0.)) ;
#786=DIRECTION('Vector Direction',(0.,0.707106781187,-0.707106781187)) ;
#793=DIRECTION('Axis2P3D Direction',(1.,0.,0.)) ;
#800=DIRECTION('Vector Direction',(0.,-0.707106781187,0.707106781187)) ;
#811=DIRECTION('Axis2P3D Direction',(1.,0.,0.)) ;
#820=DIRECTION('Vector Direction',(0.,0.707106781187,0.707106781187)) ;
#827=DIRECTION('Axis2P3D Direction',(1.,0.,0.)) ;
#834=DIRECTION('Vector Direction',(0.,-0.707106781187,-0.707106781187)) ;
#845=DIRECTION('Axis2P3D Direction',(1.,0.,0.)) ;
#854=DIRECTION('Vector Direction',(0.,-0.707106781187,0.707106781187)) ;
#861=DIRECTION('Axis2P3D Direction',(1.,0.,0.)) ;
#868=DIRECTION('Vector Direction',(0.,0.707106781187,-0.707106781187)) ;
#880=DIRECTION('Axis2P3D Direction',(0.,-0.707106781187,0.707106781187)) ;
#881=DIRECTION('Axis2P3D XDirection',(0.,0.707106781187,0.707106781187)) ;
#885=DIRECTION('Vector Direction',(-1.,0.,0.)) ;
#890=DIRECTION('Vector Direction',(-1.,0.,0.)) ;
#910=DIRECTION('Axis2P3D Direction',(1.,0.,0.)) ;
#911=DIRECTION('Axis2P3D XDirection',(0.,-0.707106781187,0.707106781187)) ;
#915=DIRECTION('Vector Direction',(1.,0.,0.)) ;
#928=DIRECTION('Axis2P3D Direction',(1.,0.,0.)) ;
#929=DIRECTION('Axis2P3D XDirection',(0.,0.707106781187,-0.707106781187)) ;
#933=DIRECTION('Vector Direction',(1.,0.,0.)) ;
#946=DIRECTION('Axis2P3D Direction',(0.,0.707106781187,-0.707106781187)) ;
#947=DIRECTION('Axis2P3D XDirection',(0.,-0.707106781187,-0.707106781187)) ;
#959=DIRECTION('Axis2P3D Direction',(-0.,-0.707106781187,-0.707106781187)) ;
#960=DIRECTION('Axis2P3D XDirection',(0.,-0.707106781187,0.707106781187)) ;
#964=DIRECTION('Vector Direction',(-1.,0.,0.)) ;
#969=DIRECTION('Vector Direction',(-1.,0.,0.)) ;
#982=DIRECTION('Axis2P3D Direction',(1.,0.,-0.)) ;
#983=DIRECTION('Axis2P3D XDirection',(0.,0.707106781187,0.707106781187)) ;
#987=DIRECTION('Vector Direction',(1.,0.,0.)) ;
#1000=DIRECTION('Axis2P3D Direction',(0.,0.707106781187,0.707106781187)) ;
#1001=DIRECTION('Axis2P3D XDirection',(0.,0.707106781187,-0.707106781187)) ;
#1005=DIRECTION('Vector Direction',(-1.,0.,0.)) ;
#1018=DIRECTION('Axis2P3D Direction',(1.,0.,-0.)) ;
#1019=DIRECTION('Axis2P3D XDirection',(0.,-0.707106781187,-0.707106781187)) ;
#1031=DIRECTION('Axis2P3D Direction',(0.,0.707106781187,-0.707106781187)) ;
#1032=DIRECTION('Axis2P3D XDirection',(0.,-0.707106781187,-0.707106781187)) ;
#1036=DIRECTION('Vector Direction',(-1.,0.,0.)) ;
#1041=DIRECTION('Vector Direction',(-1.,0.,0.)) ;
#1054=DIRECTION('Axis2P3D Direction',(1.,0.,0.)) ;
#1055=DIRECTION('Axis2P3D XDirection',(0.,-0.707106781187,0.707106781187)) ;
#1059=DIRECTION('Vector Direction',(1.,0.,0.)) ;
#1072=DIRECTION('Axis2P3D Direction',(0.,-0.707106781187,0.707106781187)) ;
#1073=DIRECTION('Axis2P3D XDirection',(0.,0.707106781187,0.707106781187)) ;
#1077=DIRECTION('Vector Direction',(-1.,0.,0.)) ;
#1090=DIRECTION('Axis2P3D Direction',(1.,0.,0.)) ;
#1091=DIRECTION('Axis2P3D XDirection',(0.,0.707106781187,-0.707106781187)) ;
#1103=DIRECTION('Axis2P3D Direction',(0.,0.707106781187,0.707106781187)) ;
#1104=DIRECTION('Axis2P3D XDirection',(0.,0.707106781187,-0.707106781187)) ;
#1108=DIRECTION('Vector Direction',(-1.,0.,0.)) ;
#1113=DIRECTION('Vector Direction',(-1.,0.,0.)) ;
#1126=DIRECTION('Axis2P3D Direction',(1.,0.,0.)) ;
#1127=DIRECTION('Axis2P3D XDirection',(0.,-0.707106781187,-0.707106781187)) ;
#1131=DIRECTION('Vector Direction',(1.,0.,0.)) ;
#1144=DIRECTION('Axis2P3D Direction',(-0.,-0.707106781187,-0.707106781187)) ;
#1145=DIRECTION('Axis2P3D XDirection',(0.,-0.707106781187,0.707106781187)) ;
#1149=DIRECTION('Vector Direction',(-1.,0.,0.)) ;
#1162=DIRECTION('Axis2P3D Direction',(1.,0.,0.)) ;
#1163=DIRECTION('Axis2P3D XDirection',(0.,0.707106781187,0.707106781187)) ;
#15=UNCERTAINTY_MEASURE_WITH_UNIT(LENGTH_MEASURE(0.005),#12,'distance_accuracy_value','CONFUSED CURVE UNCERTAINTY') ;
#18=AXIS2_PLACEMENT_3D(' ',#17,$,$) ;
#34=AXIS2_PLACEMENT_3D('Plane Axis2P3D',#31,#32,#33) ;
#38=AXIS2_PLACEMENT_3D('Circle Axis2P3D',#36,#37,$) ;
#47=AXIS2_PLACEMENT_3D('Circle Axis2P3D',#45,#46,$) ;
#56=AXIS2_PLACEMENT_3D('Circle Axis2P3D',#54,#55,$) ;
#65=AXIS2_PLACEMENT_3D('Circle Axis2P3D',#63,#64,$) ;
#84=AXIS2_PLACEMENT_3D('Cylinder Axis2P3D',#81,#82,#83) ;
#88=AXIS2_PLACEMENT_3D('Circle Axis2P3D',#86,#87,$) ;
#115=AXIS2_PLACEMENT_3D('Circle Axis2P3D',#113,#114,$) ;
#129=AXIS2_PLACEMENT_3D('Cylinder Axis2P3D',#126,#127,#128) ;
#142=AXIS2_PLACEMENT_3D('Circle Axis2P3D',#140,#141,$) ;
#156=AXIS2_PLACEMENT_3D('Circle Axis2P3D',#154,#155,$) ;
#168=AXIS2_PLACEMENT_3D('Circle Axis2P3D',#166,#167,$) ;
#173=AXIS2_PLACEMENT_3D('Circle Axis2P3D',#171,#172,$) ;
#186=AXIS2_PLACEMENT_3D('Cylinder Axis2P3D',#183,#184,#185) ;
#190=AXIS2_PLACEMENT_3D('Circle Axis2P3D',#188,#189,$) ;
#206=AXIS2_PLACEMENT_3D('Circle Axis2P3D',#204,#205,$) ;
#233=AXIS2_PLACEMENT_3D('Circle Axis2P3D',#231,#232,$) ;
#238=AXIS2_PLACEMENT_3D('Circle Axis2P3D',#236,#237,$) ;
#252=AXIS2_PLACEMENT_3D('Cylinder Axis2P3D',#249,#250,#251) ;
#265=AXIS2_PLACEMENT_3D('Circle Axis2P3D',#263,#264,$) ;
#279=AXIS2_PLACEMENT_3D('Circle Axis2P3D',#277,#278,$) ;
#299=AXIS2_PLACEMENT_3D('Circle Axis2P3D',#297,#298,$) ;
#304=AXIS2_PLACEMENT_3D('Circle Axis2P3D',#302,#303,$) ;
#318=AXIS2_PLACEMENT_3D('Cylinder Axis2P3D',#315,#316,#317) ;
#331=AXIS2_PLACEMENT_3D('Circle Axis2P3D',#329,#330,$) ;
#345=AXIS2_PLACEMENT_3D('Circle Axis2P3D',#343,#344,$) ;
#358=AXIS2_PLACEMENT_3D('Circle Axis2P3D',#356,#357,$) ;
#363=AXIS2_PLACEMENT_3D('Circle Axis2P3D',#361,#362,$) ;
#377=AXIS2_PLACEMENT_3D('Cylinder Axis2P3D',#374,#375,#376) ;
#381=AXIS2_PLACEMENT_3D('Circle Axis2P3D',#379,#380,$) ;
#408=AXIS2_PLACEMENT_3D('Circle Axis2P3D',#406,#407,$) ;
#421=AXIS2_PLACEMENT_3D('Circle Axis2P3D',#419,#420,$) ;
#430=AXIS2_PLACEMENT_3D('Circle Axis2P3D',#428,#429,$) ;
#439=AXIS2_PLACEMENT_3D('Circle Axis2P3D',#437,#438,$) ;
#448=AXIS2_PLACEMENT_3D('Circle Axis2P3D',#446,#447,$) ;
#460=AXIS2_PLACEMENT_3D('Cylinder Axis2P3D',#457,#458,#459) ;
#464=AXIS2_PLACEMENT_3D('Circle Axis2P3D',#462,#463,$) ;
#491=AXIS2_PLACEMENT_3D('Circle Axis2P3D',#489,#490,$) ;
#505=AXIS2_PLACEMENT_3D('Cylinder Axis2P3D',#502,#503,#504) ;
#509=AXIS2_PLACEMENT_3D('Circle Axis2P3D',#507,#508,$) ;
#536=AXIS2_PLACEMENT_3D('Circle Axis2P3D',#534,#535,$) ;
#550=AXIS2_PLACEMENT_3D('Plane Axis2P3D',#547,#548,#549) ;
#567=AXIS2_PLACEMENT_3D('Circle Axis2P3D',#565,#566,$) ;
#581=AXIS2_PLACEMENT_3D('Circle Axis2P3D',#579,#580,$) ;
#621=AXIS2_PLACEMENT_3D('Circle Axis2P3D',#619,#620,$) ;
#635=AXIS2_PLACEMENT_3D('Circle Axis2P3D',#633,#634,$) ;
#655=AXIS2_PLACEMENT_3D('Circle Axis2P3D',#653,#654,$) ;
#669=AXIS2_PLACEMENT_3D('Circle Axis2P3D',#667,#668,$) ;
#689=AXIS2_PLACEMENT_3D('Circle Axis2P3D',#687,#688,$) ;
#703=AXIS2_PLACEMENT_3D('Circle Axis2P3D',#701,#702,$) ;
#716=AXIS2_PLACEMENT_3D('Plane Axis2P3D',#713,#714,#715) ;
#724=AXIS2_PLACEMENT_3D('Circle Axis2P3D',#722,#723,$) ;
#740=AXIS2_PLACEMENT_3D('Circle Axis2P3D',#738,#739,$) ;
#778=AXIS2_PLACEMENT_3D('Circle Axis2P3D',#776,#777,$) ;
#794=AXIS2_PLACEMENT_3D('Circle Axis2P3D',#792,#793,$) ;
#812=AXIS2_PLACEMENT_3D('Circle Axis2P3D',#810,#811,$) ;
#828=AXIS2_PLACEMENT_3D('Circle Axis2P3D',#826,#827,$) ;
#846=AXIS2_PLACEMENT_3D('Circle Axis2P3D',#844,#845,$) ;
#862=AXIS2_PLACEMENT_3D('Circle Axis2P3D',#860,#861,$) ;
#882=AXIS2_PLACEMENT_3D('Plane Axis2P3D',#879,#880,#881) ;
#912=AXIS2_PLACEMENT_3D('Cylinder Axis2P3D',#909,#910,#911) ;
#930=AXIS2_PLACEMENT_3D('Cylinder Axis2P3D',#927,#928,#929) ;
#948=AXIS2_PLACEMENT_3D('Plane Axis2P3D',#945,#946,#947) ;
#961=AXIS2_PLACEMENT_3D('Plane Axis2P3D',#958,#959,#960) ;
#984=AXIS2_PLACEMENT_3D('Cylinder Axis2P3D',#981,#982,#983) ;
#1002=AXIS2_PLACEMENT_3D('Plane Axis2P3D',#999,#1000,#1001) ;
#1020=AXIS2_PLACEMENT_3D('Cylinder Axis2P3D',#1017,#1018,#1019) ;
#1033=AXIS2_PLACEMENT_3D('Plane Axis2P3D',#1030,#1031,#1032) ;
#1056=AXIS2_PLACEMENT_3D('Cylinder Axis2P3D',#1053,#1054,#1055) ;
#1074=AXIS2_PLACEMENT_3D('Plane Axis2P3D',#1071,#1072,#1073) ;
#1092=AXIS2_PLACEMENT_3D('Cylinder Axis2P3D',#1089,#1090,#1091) ;
#1105=AXIS2_PLACEMENT_3D('Plane Axis2P3D',#1102,#1103,#1104) ;
#1128=AXIS2_PLACEMENT_3D('Cylinder Axis2P3D',#1125,#1126,#1127) ;
#1146=AXIS2_PLACEMENT_3D('Plane Axis2P3D',#1143,#1144,#1145) ;
#1164=AXIS2_PLACEMENT_3D('Cylinder Axis2P3D',#1161,#1162,#1163) ;
#98=LINE('Line',#95,#97) ;
#103=LINE('Line',#100,#102) ;
#134=LINE('Line',#131,#133) ;
#150=LINE('Line',#147,#149) ;
#200=LINE('Line',#197,#199) ;
#214=LINE('Line',#211,#213) ;
#257=LINE('Line',#254,#256) ;
#273=LINE('Line',#270,#272) ;
#323=LINE('Line',#320,#322) ;
#339=LINE('Line',#336,#338) ;
#391=LINE('Line',#388,#390) ;
#396=LINE('Line',#393,#395) ;
#474=LINE('Line',#471,#473) ;
#479=LINE('Line',#476,#478) ;
#519=LINE('Line',#516,#518) ;
#524=LINE('Line',#521,#523) ;
#559=LINE('Line',#556,#558) ;
#575=LINE('Line',#572,#574) ;
#613=LINE('Line',#610,#612) ;
#629=LINE('Line',#626,#628) ;
#647=LINE('Line',#644,#646) ;
#663=LINE('Line',#660,#662) ;
#681=LINE('Line',#678,#680) ;
#697=LINE('Line',#694,#696) ;
#734=LINE('Line',#731,#733) ;
#748=LINE('Line',#745,#747) ;
#788=LINE('Line',#785,#787) ;
#802=LINE('Line',#799,#801) ;
#822=LINE('Line',#819,#821) ;
#836=LINE('Line',#833,#835) ;
#856=LINE('Line',#853,#855) ;
#870=LINE('Line',#867,#869) ;
#887=LINE('Line',#884,#886) ;
#892=LINE('Line',#889,#891) ;
#917=LINE('Line',#914,#916) ;
#935=LINE('Line',#932,#934) ;
#966=LINE('Line',#963,#965) ;
#971=LINE('Line',#968,#970) ;
#989=LINE('Line',#986,#988) ;
#1007=LINE('Line',#1004,#1006) ;
#1038=LINE('Line',#1035,#1037) ;
#1043=LINE('Line',#1040,#1042) ;
#1061=LINE('Line',#1058,#1060) ;
#1079=LINE('Line',#1076,#1078) ;
#1110=LINE('Line',#1107,#1109) ;
#1115=LINE('Line',#1112,#1114) ;
#1133=LINE('Line',#1130,#1132) ;
#1151=LINE('Line',#1148,#1150) ;
#39=CIRCLE('generated circle',#38,4.125) ;
#48=CIRCLE('generated circle',#47,4.125) ;
#57=CIRCLE('generated circle',#56,2.4) ;
#66=CIRCLE('generated circle',#65,2.4) ;
#89=CIRCLE('generated circle',#88,2.4) ;
#116=CIRCLE('generated circle',#115,2.4) ;
#143=CIRCLE('generated circle',#142,24.5) ;
#157=CIRCLE('generated circle',#156,24.5) ;
#169=CIRCLE('generated circle',#168,24.5) ;
#174=CIRCLE('generated circle',#173,24.5) ;
#191=CIRCLE('generated circle',#190,5.5) ;
#207=CIRCLE('generated circle',#206,5.5) ;
#234=CIRCLE('generated circle',#233,5.5) ;
#239=CIRCLE('generated circle',#238,5.5) ;
#266=CIRCLE('generated circle',#265,3.) ;
#280=CIRCLE('generated circle',#279,3.) ;
#300=CIRCLE('generated circle',#299,3.) ;
#305=CIRCLE('generated circle',#304,3.) ;
#332=CIRCLE('generated circle',#331,3.) ;
#346=CIRCLE('generated circle',#345,3.) ;
#359=CIRCLE('generated circle',#358,3.) ;
#364=CIRCLE('generated circle',#363,3.) ;
#382=CIRCLE('generated circle',#381,4.125) ;
#409=CIRCLE('generated circle',#408,4.125) ;
#422=CIRCLE('generated circle',#421,4.125) ;
#431=CIRCLE('generated circle',#430,4.125) ;
#440=CIRCLE('generated circle',#439,2.4) ;
#449=CIRCLE('generated circle',#448,2.4) ;
#465=CIRCLE('generated circle',#464,4.125) ;
#492=CIRCLE('generated circle',#491,4.125) ;
#510=CIRCLE('generated circle',#509,2.4) ;
#537=CIRCLE('generated circle',#536,2.4) ;
#568=CIRCLE('generated circle',#567,3.) ;
#582=CIRCLE('generated circle',#581,3.) ;
#622=CIRCLE('generated circle',#621,3.) ;
#636=CIRCLE('generated circle',#635,3.) ;
#656=CIRCLE('generated circle',#655,3.) ;
#670=CIRCLE('generated circle',#669,3.) ;
#690=CIRCLE('generated circle',#689,3.) ;
#704=CIRCLE('generated circle',#703,3.) ;
#725=CIRCLE('generated circle',#724,3.) ;
#741=CIRCLE('generated circle',#740,3.) ;
#779=CIRCLE('generated circle',#778,3.) ;
#795=CIRCLE('generated circle',#794,3.) ;
#813=CIRCLE('generated circle',#812,3.) ;
#829=CIRCLE('generated circle',#828,3.) ;
#847=CIRCLE('generated circle',#846,3.) ;
#863=CIRCLE('generated circle',#862,3.) ;
#35=PLANE('',#34) ;
#551=PLANE('',#550) ;
#717=PLANE('',#716) ;
#883=PLANE('',#882) ;
#949=PLANE('',#948) ;
#962=PLANE('',#961) ;
#1003=PLANE('',#1002) ;
#1034=PLANE('',#1033) ;
#1075=PLANE('',#1074) ;
#1106=PLANE('',#1105) ;
#1147=PLANE('',#1146) ;
#85=CYLINDRICAL_SURFACE('generated cylinder',#84,2.4) ;
#130=CYLINDRICAL_SURFACE('generated cylinder',#129,24.5) ;
#187=CYLINDRICAL_SURFACE('generated cylinder',#186,5.5) ;
#253=CYLINDRICAL_SURFACE('generated cylinder',#252,3.) ;
#319=CYLINDRICAL_SURFACE('generated cylinder',#318,3.) ;
#378=CYLINDRICAL_SURFACE('generated cylinder',#377,4.125) ;
#461=CYLINDRICAL_SURFACE('generated cylinder',#460,4.125) ;
#506=CYLINDRICAL_SURFACE('generated cylinder',#505,2.4) ;
#913=CYLINDRICAL_SURFACE('generated cylinder',#912,3.) ;
#931=CYLINDRICAL_SURFACE('generated cylinder',#930,3.) ;
#985=CYLINDRICAL_SURFACE('generated cylinder',#984,3.) ;
#1021=CYLINDRICAL_SURFACE('generated cylinder',#1020,3.) ;
#1057=CYLINDRICAL_SURFACE('generated cylinder',#1056,3.) ;
#1093=CYLINDRICAL_SURFACE('generated cylinder',#1092,3.) ;
#1129=CYLINDRICAL_SURFACE('generated cylinder',#1128,3.) ;
#1165=CYLINDRICAL_SURFACE('generated cylinder',#1164,3.) ;
#71=FACE_BOUND('',#68,.T.) ;
#454=FACE_BOUND('',#451,.T.) ;
#589=FACE_BOUND('',#584,.T.) ;
#593=FACE_BOUND('',#590,.T.) ;
#597=FACE_BOUND('',#594,.T.) ;
#601=FACE_BOUND('',#598,.T.) ;
#605=FACE_BOUND('',#602,.T.) ;
#609=FACE_BOUND('',#606,.T.) ;
#643=FACE_BOUND('',#638,.T.) ;
#677=FACE_BOUND('',#672,.T.) ;
#711=FACE_BOUND('',#706,.T.) ;
#755=FACE_BOUND('',#750,.T.) ;
#759=FACE_BOUND('',#756,.T.) ;
#763=FACE_BOUND('',#760,.T.) ;
#767=FACE_BOUND('',#764,.T.) ;
#771=FACE_BOUND('',#768,.T.) ;
#775=FACE_BOUND('',#772,.T.) ;
#809=FACE_BOUND('',#804,.T.) ;
#843=FACE_BOUND('',#838,.T.) ;
#877=FACE_BOUND('',#872,.T.) ;
#44=EDGE_CURVE('',#41,#43,#39,.T.) ;
#49=EDGE_CURVE('',#43,#41,#48,.T.) ;
#62=EDGE_CURVE('',#59,#61,#57,.T.) ;
#67=EDGE_CURVE('',#61,#59,#66,.T.) ;
#94=EDGE_CURVE('',#91,#93,#89,.F.) ;
#99=EDGE_CURVE('',#91,#59,#98,.F.) ;
#104=EDGE_CURVE('',#93,#61,#103,.F.) ;
#117=EDGE_CURVE('',#93,#91,#116,.F.) ;
#139=EDGE_CURVE('',#136,#138,#134,.T.) ;
#146=EDGE_CURVE('',#136,#145,#143,.T.) ;
#153=EDGE_CURVE('',#145,#152,#150,.T.) ;
#158=EDGE_CURVE('',#138,#152,#157,.T.) ;
#170=EDGE_CURVE('',#145,#136,#169,.T.) ;
#175=EDGE_CURVE('',#152,#138,#174,.T.) ;
#196=EDGE_CURVE('',#193,#195,#191,.T.) ;
#203=EDGE_CURVE('',#202,#195,#200,.T.) ;
#210=EDGE_CURVE('',#209,#202,#207,.T.) ;
#215=EDGE_CURVE('',#209,#193,#214,.T.) ;
#235=EDGE_CURVE('',#195,#193,#234,.T.) ;
#240=EDGE_CURVE('',#202,#209,#239,.T.) ;
#262=EDGE_CURVE('',#259,#261,#257,.F.) ;
#269=EDGE_CURVE('',#259,#268,#266,.T.) ;
#276=EDGE_CURVE('',#268,#275,#273,.F.) ;
#281=EDGE_CURVE('',#261,#275,#280,.T.) ;
#301=EDGE_CURVE('',#268,#259,#300,.T.) ;
#306=EDGE_CURVE('',#275,#261,#305,.T.) ;
#328=EDGE_CURVE('',#325,#327,#323,.F.) ;
#335=EDGE_CURVE('',#325,#334,#332,.T.) ;
#342=EDGE_CURVE('',#334,#341,#339,.F.) ;
#347=EDGE_CURVE('',#327,#341,#346,.T.) ;
#360=EDGE_CURVE('',#334,#325,#359,.T.) ;
#365=EDGE_CURVE('',#341,#327,#364,.T.) ;
#387=EDGE_CURVE('',#384,#386,#382,.F.) ;
#392=EDGE_CURVE('',#41,#386,#391,.F.) ;
#397=EDGE_CURVE('',#43,#384,#396,.F.) ;
#410=EDGE_CURVE('',#386,#384,#409,.F.) ;
#427=EDGE_CURVE('',#424,#426,#422,.T.) ;
#432=EDGE_CURVE('',#426,#424,#431,.T.) ;
#445=EDGE_CURVE('',#442,#444,#440,.T.) ;
#450=EDGE_CURVE('',#444,#442,#449,.T.) ;
#470=EDGE_CURVE('',#467,#469,#465,.F.) ;
#475=EDGE_CURVE('',#426,#469,#474,.F.) ;
#480=EDGE_CURVE('',#424,#467,#479,.F.) ;
#493=EDGE_CURVE('',#469,#467,#492,.F.) ;
#515=EDGE_CURVE('',#512,#514,#510,.F.) ;
#520=EDGE_CURVE('',#512,#444,#519,.F.) ;
#525=EDGE_CURVE('',#514,#442,#524,.F.) ;
#538=EDGE_CURVE('',#514,#512,#537,.F.) ;
#564=EDGE_CURVE('',#561,#563,#559,.T.) ;
#571=EDGE_CURVE('',#561,#570,#568,.T.) ;
#578=EDGE_CURVE('',#577,#570,#575,.T.) ;
#583=EDGE_CURVE('',#577,#563,#582,.T.) ;
#618=EDGE_CURVE('',#615,#617,#613,.T.) ;
#625=EDGE_CURVE('',#615,#624,#622,.T.) ;
#632=EDGE_CURVE('',#631,#624,#629,.T.) ;
#637=EDGE_CURVE('',#631,#617,#636,.T.) ;
#652=EDGE_CURVE('',#649,#651,#647,.T.) ;
#659=EDGE_CURVE('',#649,#658,#656,.T.) ;
#666=EDGE_CURVE('',#665,#658,#663,.T.) ;
#671=EDGE_CURVE('',#665,#651,#670,.T.) ;
#686=EDGE_CURVE('',#683,#685,#681,.T.) ;
#693=EDGE_CURVE('',#683,#692,#690,.T.) ;
#700=EDGE_CURVE('',#699,#692,#697,.T.) ;
#705=EDGE_CURVE('',#699,#685,#704,.T.) ;
#730=EDGE_CURVE('',#727,#729,#725,.T.) ;
#737=EDGE_CURVE('',#736,#727,#734,.F.) ;
#744=EDGE_CURVE('',#743,#736,#741,.T.) ;
#749=EDGE_CURVE('',#729,#743,#748,.F.) ;
#784=EDGE_CURVE('',#781,#783,#779,.T.) ;
#791=EDGE_CURVE('',#790,#781,#788,.F.) ;
#798=EDGE_CURVE('',#797,#790,#795,.T.) ;
#803=EDGE_CURVE('',#783,#797,#802,.F.) ;
#818=EDGE_CURVE('',#815,#817,#813,.T.) ;
#825=EDGE_CURVE('',#824,#815,#822,.F.) ;
#832=EDGE_CURVE('',#831,#824,#829,.T.) ;
#837=EDGE_CURVE('',#817,#831,#836,.F.) ;
#852=EDGE_CURVE('',#849,#851,#847,.T.) ;
#859=EDGE_CURVE('',#858,#849,#856,.F.) ;
#866=EDGE_CURVE('',#865,#858,#863,.T.) ;
#871=EDGE_CURVE('',#851,#865,#870,.F.) ;
#888=EDGE_CURVE('',#729,#563,#887,.T.) ;
#893=EDGE_CURVE('',#743,#561,#892,.T.) ;
#918=EDGE_CURVE('',#736,#570,#917,.F.) ;
#936=EDGE_CURVE('',#727,#577,#935,.F.) ;
#967=EDGE_CURVE('',#783,#624,#966,.T.) ;
#972=EDGE_CURVE('',#797,#631,#971,.T.) ;
#990=EDGE_CURVE('',#781,#615,#989,.F.) ;
#1008=EDGE_CURVE('',#790,#617,#1007,.T.) ;
#1039=EDGE_CURVE('',#817,#658,#1038,.T.) ;
#1044=EDGE_CURVE('',#831,#665,#1043,.T.) ;
#1062=EDGE_CURVE('',#815,#649,#1061,.F.) ;
#1080=EDGE_CURVE('',#824,#651,#1079,.T.) ;
#1111=EDGE_CURVE('',#851,#692,#1110,.T.) ;
#1116=EDGE_CURVE('',#865,#699,#1115,.T.) ;
#1134=EDGE_CURVE('',#849,#683,#1133,.F.) ;
#1152=EDGE_CURVE('',#858,#685,#1151,.T.) ;
#30=CLOSED_SHELL('Closed Shell',(#72,#111,#124,#165,#182,#222,#247,#288,#313,#354,#372,#404,#417,#455,#487,#500,#532,#545,#712,#878,#900,#925,#943,#956,#979,#997,#1015,#1028,#1051,#1069,#1087,#1100,#1123,#1141,#1159,#1172)) ;
#1175=SHAPE_REPRESENTATION_RELATIONSHIP(' ',' ',#19,#1174) ;
#50=EDGE_LOOP('',(#51,#52)) ;
#68=EDGE_LOOP('',(#69,#70)) ;
#105=EDGE_LOOP('',(#106,#107,#108,#109)) ;
#118=EDGE_LOOP('',(#119,#120,#121,#122)) ;
#159=EDGE_LOOP('',(#160,#161,#162,#163)) ;
#176=EDGE_LOOP('',(#177,#178,#179,#180)) ;
#216=EDGE_LOOP('',(#217,#218,#219,#220)) ;
#241=EDGE_LOOP('',(#242,#243,#244,#245)) ;
#282=EDGE_LOOP('',(#283,#284,#285,#286)) ;
#307=EDGE_LOOP('',(#308,#309,#310,#311)) ;
#348=EDGE_LOOP('',(#349,#350,#351,#352)) ;
#366=EDGE_LOOP('',(#367,#368,#369,#370)) ;
#398=EDGE_LOOP('',(#399,#400,#401,#402)) ;
#411=EDGE_LOOP('',(#412,#413,#414,#415)) ;
#433=EDGE_LOOP('',(#434,#435)) ;
#451=EDGE_LOOP('',(#452,#453)) ;
#481=EDGE_LOOP('',(#482,#483,#484,#485)) ;
#494=EDGE_LOOP('',(#495,#496,#497,#498)) ;
#526=EDGE_LOOP('',(#527,#528,#529,#530)) ;
#539=EDGE_LOOP('',(#540,#541,#542,#543)) ;
#552=EDGE_LOOP('',(#553,#554)) ;
#584=EDGE_LOOP('',(#585,#586,#587,#588)) ;
#590=EDGE_LOOP('',(#591,#592)) ;
#594=EDGE_LOOP('',(#595,#596)) ;
#598=EDGE_LOOP('',(#599,#600)) ;
#602=EDGE_LOOP('',(#603,#604)) ;
#606=EDGE_LOOP('',(#607,#608)) ;
#638=EDGE_LOOP('',(#639,#640,#641,#642)) ;
#672=EDGE_LOOP('',(#673,#674,#675,#676)) ;
#706=EDGE_LOOP('',(#707,#708,#709,#710)) ;
#718=EDGE_LOOP('',(#719,#720)) ;
#750=EDGE_LOOP('',(#751,#752,#753,#754)) ;
#756=EDGE_LOOP('',(#757,#758)) ;
#760=EDGE_LOOP('',(#761,#762)) ;
#764=EDGE_LOOP('',(#765,#766)) ;
#768=EDGE_LOOP('',(#769,#770)) ;
#772=EDGE_LOOP('',(#773,#774)) ;
#804=EDGE_LOOP('',(#805,#806,#807,#808)) ;
#838=EDGE_LOOP('',(#839,#840,#841,#842)) ;
#872=EDGE_LOOP('',(#873,#874,#875,#876)) ;
#894=EDGE_LOOP('',(#895,#896,#897,#898)) ;
#919=EDGE_LOOP('',(#920,#921,#922,#923)) ;
#937=EDGE_LOOP('',(#938,#939,#940,#941)) ;
#950=EDGE_LOOP('',(#951,#952,#953,#954)) ;
#973=EDGE_LOOP('',(#974,#975,#976,#977)) ;
#991=EDGE_LOOP('',(#992,#993,#994,#995)) ;
#1009=EDGE_LOOP('',(#1010,#1011,#1012,#1013)) ;
#1022=EDGE_LOOP('',(#1023,#1024,#1025,#1026)) ;
#1045=EDGE_LOOP('',(#1046,#1047,#1048,#1049)) ;
#1063=EDGE_LOOP('',(#1064,#1065,#1066,#1067)) ;
#1081=EDGE_LOOP('',(#1082,#1083,#1084,#1085)) ;
#1094=EDGE_LOOP('',(#1095,#1096,#1097,#1098)) ;
#1117=EDGE_LOOP('',(#1118,#1119,#1120,#1121)) ;
#1135=EDGE_LOOP('',(#1136,#1137,#1138,#1139)) ;
#1153=EDGE_LOOP('',(#1154,#1155,#1156,#1157)) ;
#1166=EDGE_LOOP('',(#1167,#1168,#1169,#1170)) ;
#51=ORIENTED_EDGE('',*,*,#44,.F.) ;
#52=ORIENTED_EDGE('',*,*,#49,.F.) ;
#69=ORIENTED_EDGE('',*,*,#62,.T.) ;
#70=ORIENTED_EDGE('',*,*,#67,.T.) ;
#106=ORIENTED_EDGE('',*,*,#94,.F.) ;
#107=ORIENTED_EDGE('',*,*,#99,.T.) ;
#108=ORIENTED_EDGE('',*,*,#67,.F.) ;
#109=ORIENTED_EDGE('',*,*,#104,.F.) ;
#119=ORIENTED_EDGE('',*,*,#117,.F.) ;
#120=ORIENTED_EDGE('',*,*,#104,.T.) ;
#121=ORIENTED_EDGE('',*,*,#62,.F.) ;
#122=ORIENTED_EDGE('',*,*,#99,.F.) ;
#160=ORIENTED_EDGE('',*,*,#139,.F.) ;
#161=ORIENTED_EDGE('',*,*,#146,.T.) ;
#162=ORIENTED_EDGE('',*,*,#153,.T.) ;
#163=ORIENTED_EDGE('',*,*,#158,.F.) ;
#177=ORIENTED_EDGE('',*,*,#153,.F.) ;
#178=ORIENTED_EDGE('',*,*,#170,.T.) ;
#179=ORIENTED_EDGE('',*,*,#139,.T.) ;
#180=ORIENTED_EDGE('',*,*,#175,.F.) ;
#217=ORIENTED_EDGE('',*,*,#196,.T.) ;
#218=ORIENTED_EDGE('',*,*,#203,.F.) ;
#219=ORIENTED_EDGE('',*,*,#210,.F.) ;
#220=ORIENTED_EDGE('',*,*,#215,.T.) ;
#242=ORIENTED_EDGE('',*,*,#235,.T.) ;
#243=ORIENTED_EDGE('',*,*,#215,.F.) ;
#244=ORIENTED_EDGE('',*,*,#240,.F.) ;
#245=ORIENTED_EDGE('',*,*,#203,.T.) ;
#283=ORIENTED_EDGE('',*,*,#262,.F.) ;
#284=ORIENTED_EDGE('',*,*,#269,.T.) ;
#285=ORIENTED_EDGE('',*,*,#276,.T.) ;
#286=ORIENTED_EDGE('',*,*,#281,.F.) ;
#308=ORIENTED_EDGE('',*,*,#276,.F.) ;
#309=ORIENTED_EDGE('',*,*,#301,.T.) ;
#310=ORIENTED_EDGE('',*,*,#262,.T.) ;
#311=ORIENTED_EDGE('',*,*,#306,.F.) ;
#349=ORIENTED_EDGE('',*,*,#328,.F.) ;
#350=ORIENTED_EDGE('',*,*,#335,.T.) ;
#351=ORIENTED_EDGE('',*,*,#342,.T.) ;
#352=ORIENTED_EDGE('',*,*,#347,.F.) ;
#367=ORIENTED_EDGE('',*,*,#342,.F.) ;
#368=ORIENTED_EDGE('',*,*,#360,.T.) ;
#369=ORIENTED_EDGE('',*,*,#328,.T.) ;
#370=ORIENTED_EDGE('',*,*,#365,.F.) ;
#399=ORIENTED_EDGE('',*,*,#387,.T.) ;
#400=ORIENTED_EDGE('',*,*,#392,.F.) ;
#401=ORIENTED_EDGE('',*,*,#44,.T.) ;
#402=ORIENTED_EDGE('',*,*,#397,.T.) ;
#412=ORIENTED_EDGE('',*,*,#410,.T.) ;
#413=ORIENTED_EDGE('',*,*,#397,.F.) ;
#414=ORIENTED_EDGE('',*,*,#49,.T.) ;
#415=ORIENTED_EDGE('',*,*,#392,.T.) ;
#434=ORIENTED_EDGE('',*,*,#427,.F.) ;
#435=ORIENTED_EDGE('',*,*,#432,.F.) ;
#452=ORIENTED_EDGE('',*,*,#445,.T.) ;
#453=ORIENTED_EDGE('',*,*,#450,.T.) ;
#482=ORIENTED_EDGE('',*,*,#470,.T.) ;
#483=ORIENTED_EDGE('',*,*,#475,.F.) ;
#484=ORIENTED_EDGE('',*,*,#432,.T.) ;
#485=ORIENTED_EDGE('',*,*,#480,.T.) ;
#495=ORIENTED_EDGE('',*,*,#493,.T.) ;
#496=ORIENTED_EDGE('',*,*,#480,.F.) ;
#497=ORIENTED_EDGE('',*,*,#427,.T.) ;
#498=ORIENTED_EDGE('',*,*,#475,.T.) ;
#527=ORIENTED_EDGE('',*,*,#515,.F.) ;
#528=ORIENTED_EDGE('',*,*,#520,.T.) ;
#529=ORIENTED_EDGE('',*,*,#445,.F.) ;
#530=ORIENTED_EDGE('',*,*,#525,.F.) ;
#540=ORIENTED_EDGE('',*,*,#538,.F.) ;
#541=ORIENTED_EDGE('',*,*,#525,.T.) ;
#542=ORIENTED_EDGE('',*,*,#450,.F.) ;
#543=ORIENTED_EDGE('',*,*,#520,.F.) ;
#553=ORIENTED_EDGE('',*,*,#170,.F.) ;
#554=ORIENTED_EDGE('',*,*,#146,.F.) ;
#585=ORIENTED_EDGE('',*,*,#564,.F.) ;
#586=ORIENTED_EDGE('',*,*,#571,.T.) ;
#587=ORIENTED_EDGE('',*,*,#578,.F.) ;
#588=ORIENTED_EDGE('',*,*,#583,.T.) ;
#591=ORIENTED_EDGE('',*,*,#538,.T.) ;
#592=ORIENTED_EDGE('',*,*,#515,.T.) ;
#595=ORIENTED_EDGE('',*,*,#117,.T.) ;
#596=ORIENTED_EDGE('',*,*,#94,.T.) ;
#599=ORIENTED_EDGE('',*,*,#347,.T.) ;
#600=ORIENTED_EDGE('',*,*,#365,.T.) ;
#603=ORIENTED_EDGE('',*,*,#281,.T.) ;
#604=ORIENTED_EDGE('',*,*,#306,.T.) ;
#607=ORIENTED_EDGE('',*,*,#210,.T.) ;
#608=ORIENTED_EDGE('',*,*,#240,.T.) ;
#639=ORIENTED_EDGE('',*,*,#618,.F.) ;
#640=ORIENTED_EDGE('',*,*,#625,.T.) ;
#641=ORIENTED_EDGE('',*,*,#632,.F.) ;
#642=ORIENTED_EDGE('',*,*,#637,.T.) ;
#673=ORIENTED_EDGE('',*,*,#652,.F.) ;
#674=ORIENTED_EDGE('',*,*,#659,.T.) ;
#675=ORIENTED_EDGE('',*,*,#666,.F.) ;
#676=ORIENTED_EDGE('',*,*,#671,.T.) ;
#707=ORIENTED_EDGE('',*,*,#686,.F.) ;
#708=ORIENTED_EDGE('',*,*,#693,.T.) ;
#709=ORIENTED_EDGE('',*,*,#700,.F.) ;
#710=ORIENTED_EDGE('',*,*,#705,.T.) ;
#719=ORIENTED_EDGE('',*,*,#158,.T.) ;
#720=ORIENTED_EDGE('',*,*,#175,.T.) ;
#751=ORIENTED_EDGE('',*,*,#730,.F.) ;
#752=ORIENTED_EDGE('',*,*,#737,.F.) ;
#753=ORIENTED_EDGE('',*,*,#744,.F.) ;
#754=ORIENTED_EDGE('',*,*,#749,.F.) ;
#757=ORIENTED_EDGE('',*,*,#470,.F.) ;
#758=ORIENTED_EDGE('',*,*,#493,.F.) ;
#761=ORIENTED_EDGE('',*,*,#387,.F.) ;
#762=ORIENTED_EDGE('',*,*,#410,.F.) ;
#765=ORIENTED_EDGE('',*,*,#360,.F.) ;
#766=ORIENTED_EDGE('',*,*,#335,.F.) ;
#769=ORIENTED_EDGE('',*,*,#301,.F.) ;
#770=ORIENTED_EDGE('',*,*,#269,.F.) ;
#773=ORIENTED_EDGE('',*,*,#235,.F.) ;
#774=ORIENTED_EDGE('',*,*,#196,.F.) ;
#805=ORIENTED_EDGE('',*,*,#784,.F.) ;
#806=ORIENTED_EDGE('',*,*,#791,.F.) ;
#807=ORIENTED_EDGE('',*,*,#798,.F.) ;
#808=ORIENTED_EDGE('',*,*,#803,.F.) ;
#839=ORIENTED_EDGE('',*,*,#818,.F.) ;
#840=ORIENTED_EDGE('',*,*,#825,.F.) ;
#841=ORIENTED_EDGE('',*,*,#832,.F.) ;
#842=ORIENTED_EDGE('',*,*,#837,.F.) ;
#873=ORIENTED_EDGE('',*,*,#852,.F.) ;
#874=ORIENTED_EDGE('',*,*,#859,.F.) ;
#875=ORIENTED_EDGE('',*,*,#866,.F.) ;
#876=ORIENTED_EDGE('',*,*,#871,.F.) ;
#895=ORIENTED_EDGE('',*,*,#564,.T.) ;
#896=ORIENTED_EDGE('',*,*,#888,.F.) ;
#897=ORIENTED_EDGE('',*,*,#749,.T.) ;
#898=ORIENTED_EDGE('',*,*,#893,.T.) ;
#920=ORIENTED_EDGE('',*,*,#571,.F.) ;
#921=ORIENTED_EDGE('',*,*,#893,.F.) ;
#922=ORIENTED_EDGE('',*,*,#744,.T.) ;
#923=ORIENTED_EDGE('',*,*,#918,.T.) ;
#938=ORIENTED_EDGE('',*,*,#583,.F.) ;
#939=ORIENTED_EDGE('',*,*,#936,.F.) ;
#940=ORIENTED_EDGE('',*,*,#730,.T.) ;
#941=ORIENTED_EDGE('',*,*,#888,.T.) ;
#951=ORIENTED_EDGE('',*,*,#578,.T.) ;
#952=ORIENTED_EDGE('',*,*,#918,.F.) ;
#953=ORIENTED_EDGE('',*,*,#737,.T.) ;
#954=ORIENTED_EDGE('',*,*,#936,.T.) ;
#974=ORIENTED_EDGE('',*,*,#632,.T.) ;
#975=ORIENTED_EDGE('',*,*,#967,.F.) ;
#976=ORIENTED_EDGE('',*,*,#803,.T.) ;
#977=ORIENTED_EDGE('',*,*,#972,.T.) ;
#992=ORIENTED_EDGE('',*,*,#625,.F.) ;
#993=ORIENTED_EDGE('',*,*,#990,.F.) ;
#994=ORIENTED_EDGE('',*,*,#784,.T.) ;
#995=ORIENTED_EDGE('',*,*,#967,.T.) ;
#1010=ORIENTED_EDGE('',*,*,#618,.T.) ;
#1011=ORIENTED_EDGE('',*,*,#1008,.F.) ;
#1012=ORIENTED_EDGE('',*,*,#791,.T.) ;
#1013=ORIENTED_EDGE('',*,*,#990,.T.) ;
#1023=ORIENTED_EDGE('',*,*,#637,.F.) ;
#1024=ORIENTED_EDGE('',*,*,#972,.F.) ;
#1025=ORIENTED_EDGE('',*,*,#798,.T.) ;
#1026=ORIENTED_EDGE('',*,*,#1008,.T.) ;
#1046=ORIENTED_EDGE('',*,*,#666,.T.) ;
#1047=ORIENTED_EDGE('',*,*,#1039,.F.) ;
#1048=ORIENTED_EDGE('',*,*,#837,.T.) ;
#1049=ORIENTED_EDGE('',*,*,#1044,.T.) ;
#1064=ORIENTED_EDGE('',*,*,#659,.F.) ;
#1065=ORIENTED_EDGE('',*,*,#1062,.F.) ;
#1066=ORIENTED_EDGE('',*,*,#818,.T.) ;
#1067=ORIENTED_EDGE('',*,*,#1039,.T.) ;
#1082=ORIENTED_EDGE('',*,*,#652,.T.) ;
#1083=ORIENTED_EDGE('',*,*,#1080,.F.) ;
#1084=ORIENTED_EDGE('',*,*,#825,.T.) ;
#1085=ORIENTED_EDGE('',*,*,#1062,.T.) ;
#1095=ORIENTED_EDGE('',*,*,#671,.F.) ;
#1096=ORIENTED_EDGE('',*,*,#1044,.F.) ;
#1097=ORIENTED_EDGE('',*,*,#832,.T.) ;
#1098=ORIENTED_EDGE('',*,*,#1080,.T.) ;
#1118=ORIENTED_EDGE('',*,*,#700,.T.) ;
#1119=ORIENTED_EDGE('',*,*,#1111,.F.) ;
#1120=ORIENTED_EDGE('',*,*,#871,.T.) ;
#1121=ORIENTED_EDGE('',*,*,#1116,.T.) ;
#1136=ORIENTED_EDGE('',*,*,#693,.F.) ;
#1137=ORIENTED_EDGE('',*,*,#1134,.F.) ;
#1138=ORIENTED_EDGE('',*,*,#852,.T.) ;
#1139=ORIENTED_EDGE('',*,*,#1111,.T.) ;
#1154=ORIENTED_EDGE('',*,*,#686,.T.) ;
#1155=ORIENTED_EDGE('',*,*,#1152,.F.) ;
#1156=ORIENTED_EDGE('',*,*,#859,.T.) ;
#1157=ORIENTED_EDGE('',*,*,#1134,.T.) ;
#1167=ORIENTED_EDGE('',*,*,#705,.F.) ;
#1168=ORIENTED_EDGE('',*,*,#1116,.F.) ;
#1169=ORIENTED_EDGE('',*,*,#866,.T.) ;
#1170=ORIENTED_EDGE('',*,*,#1152,.T.) ;
#21=MANIFOLD_SOLID_BREP('PartBody',#30) ;
#41=VERTEX_POINT('',#40) ;
#43=VERTEX_POINT('',#42) ;
#59=VERTEX_POINT('',#58) ;
#61=VERTEX_POINT('',#60) ;
#91=VERTEX_POINT('',#90) ;
#93=VERTEX_POINT('',#92) ;
#136=VERTEX_POINT('',#135) ;
#138=VERTEX_POINT('',#137) ;
#145=VERTEX_POINT('',#144) ;
#152=VERTEX_POINT('',#151) ;
#193=VERTEX_POINT('',#192) ;
#195=VERTEX_POINT('',#194) ;
#202=VERTEX_POINT('',#201) ;
#209=VERTEX_POINT('',#208) ;
#259=VERTEX_POINT('',#258) ;
#261=VERTEX_POINT('',#260) ;
#268=VERTEX_POINT('',#267) ;
#275=VERTEX_POINT('',#274) ;
#325=VERTEX_POINT('',#324) ;
#327=VERTEX_POINT('',#326) ;
#334=VERTEX_POINT('',#333) ;
#341=VERTEX_POINT('',#340) ;
#384=VERTEX_POINT('',#383) ;
#386=VERTEX_POINT('',#385) ;
#424=VERTEX_POINT('',#423) ;
#426=VERTEX_POINT('',#425) ;
#442=VERTEX_POINT('',#441) ;
#444=VERTEX_POINT('',#443) ;
#467=VERTEX_POINT('',#466) ;
#469=VERTEX_POINT('',#468) ;
#512=VERTEX_POINT('',#511) ;
#514=VERTEX_POINT('',#513) ;
#561=VERTEX_POINT('',#560) ;
#563=VERTEX_POINT('',#562) ;
#570=VERTEX_POINT('',#569) ;
#577=VERTEX_POINT('',#576) ;
#615=VERTEX_POINT('',#614) ;
#617=VERTEX_POINT('',#616) ;
#624=VERTEX_POINT('',#623) ;
#631=VERTEX_POINT('',#630) ;
#649=VERTEX_POINT('',#648) ;
#651=VERTEX_POINT('',#650) ;
#658=VERTEX_POINT('',#657) ;
#665=VERTEX_POINT('',#664) ;
#683=VERTEX_POINT('',#682) ;
#685=VERTEX_POINT('',#684) ;
#692=VERTEX_POINT('',#691) ;
#699=VERTEX_POINT('',#698) ;
#727=VERTEX_POINT('',#726) ;
#729=VERTEX_POINT('',#728) ;
#736=VERTEX_POINT('',#735) ;
#743=VERTEX_POINT('',#742) ;
#781=VERTEX_POINT('',#780) ;
#783=VERTEX_POINT('',#782) ;
#790=VERTEX_POINT('',#789) ;
#797=VERTEX_POINT('',#796) ;
#815=VERTEX_POINT('',#814) ;
#817=VERTEX_POINT('',#816) ;
#824=VERTEX_POINT('',#823) ;
#831=VERTEX_POINT('',#830) ;
#849=VERTEX_POINT('',#848) ;
#851=VERTEX_POINT('',#850) ;
#858=VERTEX_POINT('',#857) ;
#865=VERTEX_POINT('',#864) ;
#1174=ADVANCED_BREP_SHAPE_REPRESENTATION('NONE',(#21),#16) ;
#72=ADVANCED_FACE('PartBody',(#53,#71),#35,.F.) ;
#111=ADVANCED_FACE('PartBody',(#110),#85,.F.) ;
#124=ADVANCED_FACE('PartBody',(#123),#85,.F.) ;
#165=ADVANCED_FACE('PartBody',(#164),#130,.T.) ;
#182=ADVANCED_FACE('PartBody',(#181),#130,.T.) ;
#222=ADVANCED_FACE('PartBody',(#221),#187,.F.) ;
#247=ADVANCED_FACE('PartBody',(#246),#187,.F.) ;
#288=ADVANCED_FACE('PartBody',(#287),#253,.F.) ;
#313=ADVANCED_FACE('PartBody',(#312),#253,.F.) ;
#354=ADVANCED_FACE('PartBody',(#353),#319,.F.) ;
#372=ADVANCED_FACE('PartBody',(#371),#319,.F.) ;
#404=ADVANCED_FACE('PartBody',(#403),#378,.F.) ;
#417=ADVANCED_FACE('PartBody',(#416),#378,.F.) ;
#455=ADVANCED_FACE('PartBody',(#436,#454),#35,.F.) ;
#487=ADVANCED_FACE('PartBody',(#486),#461,.F.) ;
#500=ADVANCED_FACE('PartBody',(#499),#461,.F.) ;
#532=ADVANCED_FACE('PartBody',(#531),#506,.F.) ;
#545=ADVANCED_FACE('PartBody',(#544),#506,.F.) ;
#712=ADVANCED_FACE('PartBody',(#555,#589,#593,#597,#601,#605,#609,#643,#677,#711),#551,.F.) ;
#878=ADVANCED_FACE('PartBody',(#721,#755,#759,#763,#767,#771,#775,#809,#843,#877),#717,.T.) ;
#900=ADVANCED_FACE('PartBody',(#899),#883,.F.) ;
#925=ADVANCED_FACE('PartBody',(#924),#913,.F.) ;
#943=ADVANCED_FACE('PartBody',(#942),#931,.F.) ;
#956=ADVANCED_FACE('PartBody',(#955),#949,.F.) ;
#979=ADVANCED_FACE('PartBody',(#978),#962,.F.) ;
#997=ADVANCED_FACE('PartBody',(#996),#985,.F.) ;
#1015=ADVANCED_FACE('PartBody',(#1014),#1003,.F.) ;
#1028=ADVANCED_FACE('PartBody',(#1027),#1021,.F.) ;
#1051=ADVANCED_FACE('PartBody',(#1050),#1034,.F.) ;
#1069=ADVANCED_FACE('PartBody',(#1068),#1057,.F.) ;
#1087=ADVANCED_FACE('PartBody',(#1086),#1075,.F.) ;
#1100=ADVANCED_FACE('PartBody',(#1099),#1093,.F.) ;
#1123=ADVANCED_FACE('PartBody',(#1122),#1106,.F.) ;
#1141=ADVANCED_FACE('PartBody',(#1140),#1129,.F.) ;
#1159=ADVANCED_FACE('PartBody',(#1158),#1147,.F.) ;
#1172=ADVANCED_FACE('PartBody',(#1171),#1165,.F.) ;
#4=APPLICATION_PROTOCOL_DEFINITION('international standard','ap242_managed_model_based_3d_engineering',2014,#1) ;
#22=COLOUR_RGB('Colour',0.827450980392,0.698039215686,0.490196078431) ;
#223=COLOUR_RGB('Colour',0.,0.686274509804,0.686274509804) ;
#289=COLOUR_RGB('Colour',0.,0.313725490196,1.) ;
#901=COLOUR_RGB('Colour',0.501960784314,0.250980392157,0.250980392157) ;
#80=OVER_RIDING_STYLED_ITEM(' ',(#79),#72,#29) ;
#112=OVER_RIDING_STYLED_ITEM(' ',(#79),#111,#29) ;
#125=OVER_RIDING_STYLED_ITEM(' ',(#79),#124,#29) ;
#230=OVER_RIDING_STYLED_ITEM(' ',(#229),#222,#29) ;
#248=OVER_RIDING_STYLED_ITEM(' ',(#229),#247,#29) ;
#296=OVER_RIDING_STYLED_ITEM(' ',(#295),#288,#29) ;
#314=OVER_RIDING_STYLED_ITEM(' ',(#295),#313,#29) ;
#355=OVER_RIDING_STYLED_ITEM(' ',(#295),#354,#29) ;
#373=OVER_RIDING_STYLED_ITEM(' ',(#295),#372,#29) ;
#405=OVER_RIDING_STYLED_ITEM(' ',(#79),#404,#29) ;
#418=OVER_RIDING_STYLED_ITEM(' ',(#79),#417,#29) ;
#456=OVER_RIDING_STYLED_ITEM(' ',(#79),#455,#29) ;
#488=OVER_RIDING_STYLED_ITEM(' ',(#79),#487,#29) ;
#501=OVER_RIDING_STYLED_ITEM(' ',(#79),#500,#29) ;
#533=OVER_RIDING_STYLED_ITEM(' ',(#79),#532,#29) ;
#546=OVER_RIDING_STYLED_ITEM(' ',(#79),#545,#29) ;
#908=OVER_RIDING_STYLED_ITEM(' ',(#907),#900,#29) ;
#926=OVER_RIDING_STYLED_ITEM(' ',(#907),#925,#29) ;
#944=OVER_RIDING_STYLED_ITEM(' ',(#907),#943,#29) ;
#957=OVER_RIDING_STYLED_ITEM(' ',(#907),#956,#29) ;
#980=OVER_RIDING_STYLED_ITEM(' ',(#907),#979,#29) ;
#998=OVER_RIDING_STYLED_ITEM(' ',(#907),#997,#29) ;
#1016=OVER_RIDING_STYLED_ITEM(' ',(#907),#1015,#29) ;
#1029=OVER_RIDING_STYLED_ITEM(' ',(#907),#1028,#29) ;
#1052=OVER_RIDING_STYLED_ITEM(' ',(#907),#1051,#29) ;
#1070=OVER_RIDING_STYLED_ITEM(' ',(#907),#1069,#29) ;
#1088=OVER_RIDING_STYLED_ITEM(' ',(#907),#1087,#29) ;
#1101=OVER_RIDING_STYLED_ITEM(' ',(#907),#1100,#29) ;
#1124=OVER_RIDING_STYLED_ITEM(' ',(#907),#1123,#29) ;
#1142=OVER_RIDING_STYLED_ITEM(' ',(#907),#1141,#29) ;
#1160=OVER_RIDING_STYLED_ITEM(' ',(#907),#1159,#29) ;
#1173=OVER_RIDING_STYLED_ITEM(' ',(#907),#1172,#29) ;
#73=DRAUGHTING_PRE_DEFINED_COLOUR('magenta') ;
#53=FACE_OUTER_BOUND('',#50,.T.) ;
#110=FACE_OUTER_BOUND('',#105,.T.) ;
#123=FACE_OUTER_BOUND('',#118,.T.) ;
#164=FACE_OUTER_BOUND('',#159,.T.) ;
#181=FACE_OUTER_BOUND('',#176,.T.) ;
#221=FACE_OUTER_BOUND('',#216,.T.) ;
#246=FACE_OUTER_BOUND('',#241,.T.) ;
#287=FACE_OUTER_BOUND('',#282,.T.) ;
#312=FACE_OUTER_BOUND('',#307,.T.) ;
#353=FACE_OUTER_BOUND('',#348,.T.) ;
#371=FACE_OUTER_BOUND('',#366,.T.) ;
#403=FACE_OUTER_BOUND('',#398,.T.) ;
#416=FACE_OUTER_BOUND('',#411,.T.) ;
#436=FACE_OUTER_BOUND('',#433,.T.) ;
#486=FACE_OUTER_BOUND('',#481,.T.) ;
#499=FACE_OUTER_BOUND('',#494,.T.) ;
#531=FACE_OUTER_BOUND('',#526,.T.) ;
#544=FACE_OUTER_BOUND('',#539,.T.) ;
#555=FACE_OUTER_BOUND('',#552,.T.) ;
#721=FACE_OUTER_BOUND('',#718,.T.) ;
#899=FACE_OUTER_BOUND('',#894,.T.) ;
#924=FACE_OUTER_BOUND('',#919,.T.) ;
#942=FACE_OUTER_BOUND('',#937,.T.) ;
#955=FACE_OUTER_BOUND('',#950,.T.) ;
#978=FACE_OUTER_BOUND('',#973,.T.) ;
#996=FACE_OUTER_BOUND('',#991,.T.) ;
#1014=FACE_OUTER_BOUND('',#1009,.T.) ;
#1027=FACE_OUTER_BOUND('',#1022,.T.) ;
#1050=FACE_OUTER_BOUND('',#1045,.T.) ;
#1068=FACE_OUTER_BOUND('',#1063,.T.) ;
#1086=FACE_OUTER_BOUND('',#1081,.T.) ;
#1099=FACE_OUTER_BOUND('',#1094,.T.) ;
#1122=FACE_OUTER_BOUND('',#1117,.T.) ;
#1140=FACE_OUTER_BOUND('',#1135,.T.) ;
#1158=FACE_OUTER_BOUND('',#1153,.T.) ;
#1171=FACE_OUTER_BOUND('',#1166,.T.) ;
#9=PRODUCT_CATEGORY_RELATIONSHIP(' ',' ',#7,#8) ;
#6=PRODUCT_DEFINITION_FORMATION_WITH_SPECIFIED_SOURCE('',' ',#5,.NOT_KNOWN.) ;
#20=SHAPE_DEFINITION_REPRESENTATION(#11,#19) ;
#12=(LENGTH_UNIT()NAMED_UNIT(*)SI_UNIT(.MILLI.,.METRE.)) ;
#13=(NAMED_UNIT(*)PLANE_ANGLE_UNIT()SI_UNIT($,.RADIAN.)) ;
#14=(NAMED_UNIT(*)SI_UNIT($,.STERADIAN.)SOLID_ANGLE_UNIT()) ;
#16=(GEOMETRIC_REPRESENTATION_CONTEXT(3)GLOBAL_UNCERTAINTY_ASSIGNED_CONTEXT((#15))GLOBAL_UNIT_ASSIGNED_CONTEXT((#12,#13,#14))REPRESENTATION_CONTEXT(' ',' ')) ;
ENDSEC;
END-ISO-10303-21;
