  0
SECTION
  2
HEADER
  9
$ACADVER
  1
AC1015
  9
$ACADMAINTVER
 70
     6
  9
$DWGCODEPAGE
  3
ANSI_1252
  9
$INSBASE
 10
0.0
 20
0.0
 30
0.0
  9
$EXTMIN
 10
0.0
 20
0.0
 30
0.0
  9
$EXTMAX
 10
591.295532
 20
343.061951
 30
2.0
  9
$LIMMIN
 10
0.0
 20
0.0
  9
$LIMMAX
 10
420.0
 20
297.0
  9
$ORTHOMODE
 70
     0
  9
$REGENMODE
 70
     1
  9
$FILLMODE
 70
     1
  9
$QTEXTMODE
 70
     0
  9
$MIRRTEXT
 70
     1
  9
$LTSCALE
 40
1.0
  9
$ATTMODE
 70
     1
  9
$TEXTSIZE
 40
2.5
  9
$TRACEWID
 40
1.0
  9
$TEXTSTYLE
  7
Standard
  9
$CLAYER
  8
0
  9
$CELTYPE
  6
ByLayer
  9
$CECOLOR
 62
   256
  9
$CELTSCALE
 40
1.0
  9
$DISPSILH
 70
     0
  9
$DIMSCALE
 40
1.0
  9
$DIMASZ
 40
2.5
  9
$DIMEXO
 40
0.625
  9
$DIMDLI
 40
3.75
  9
$DIMRND
 40
0.0
  9
$DIMDLE
 40
0.0
  9
$DIMEXE
 40
1.25
  9
$DIMTP
 40
0.0
  9
$DIMTM
 40
0.0
  9
$DIMTXT
 40
2.5
  9
$DIMCEN
 40
2.5
  9
$DIMTSZ
 40
0.0
  9
$DIMTOL
 70
     0
  9
$DIMLIM
 70
     0
  9
$DIMTIH
 70
     0
  9
$DIMTOH
 70
     0
  9
$DIMSE1
 70
     0
  9
$DIMSE2
 70
     0
  9
$DIMTAD
 70
     1
  9
$DIMZIN
 70
     8
  9
$DIMBLK
  1

  9
$DIMASO
 70
     1
  9
$DIMSHO
 70
     1
  9
$DIMPOST
  1

  9
$DIMAPOST
  1

  9
$DIMALT
 70
     0
  9
$DIMALTD
 70
     3
  9
$DIMALTF
 40
0.03937
  9
$DIMLFAC
 40
1.0
  9
$DIMTOFL
 70
     1
  9
$DIMTVP
 40
0.0
  9
$DIMTIX
 70
     0
  9
$DIMSOXD
 70
     0
  9
$DIMSAH
 70
     0
  9
$DIMBLK1
  1

  9
$DIMBLK2
  1

  9
$DIMSTYLE
  2
Standard
  9
$DIMCLRD
 70
     0
  9
$DIMCLRE
 70
     0
  9
$DIMCLRT
 70
     0
  9
$DIMTFAC
 40
1.0
  9
$DIMGAP
 40
0.625
  9
$DIMJUST
 70
     0
  9
$DIMSD1
 70
     0
  9
$DIMSD2
 70
     0
  9
$DIMTOLJ
 70
     0
  9
$DIMTZIN
 70
     8
  9
$DIMALTZ
 70
     0
  9
$DIMALTTZ
 70
     0
  9
$DIMUPT
 70
     0
  9
$DIMDEC
 70
     2
  9
$DIMTDEC
 70
     2
  9
$DIMALTU
 70
     2
  9
$DIMALTTD
 70
     3
  9
$DIMTXSTY
  7
Standard
  9
$DIMAUNIT
 70
     0
  9
$DIMADEC
 70
     0
  9
$DIMALTRND
 40
0.0
  9
$DIMAZIN
 70
     0
  9
$DIMDSEP
 70
    44
  9
$DIMATFIT
 70
     0
  9
$DIMFRAC
 70
     0
  9
$DIMLDRBLK
  1

  9
$DIMLUNIT
 70
     2
  9
$DIMLWD
 70
    -2
  9
$DIMLWE
 70
    -2
  9
$DIMTMOVE
 70
     0
  9
$LUNITS
 70
     2
  9
$LUPREC
 70
     4
  9
$SKETCHINC
 40
1.0
  9
$FILLETRAD
 40
2.5
  9
$AUNITS
 70
     0
  9
$AUPREC
 70
     0
  9
$MENU
  1
.
  9
$ELEVATION
 40
0.0
  9
$PELEVATION
 40
0.0
  9
$THICKNESS
 40
0.0
  9
$LIMCHECK
 70
     0
  9
$CHAMFERA
 40
2.5
  9
$CHAMFERB
 40
2.5
  9
$CHAMFERC
 40
0.0
  9
$CHAMFERD
 40
0.0
  9
$SKPOLY
 70
     0
  9
$TDCREATE
 40
2447892.75
  9
$TDUCREATE
 40
0.0
  9
$TDUPDATE
 40
2459639.791616493
  9
$TDUUPDATE
 40
2459640.041616493
  9
$TDINDWG
 40
0.0
  9
$TDUSRTIMER
 40
0.0
  9
$USRTIMER
 70
     1
  9
$ANGBASE
 50
0.0
  9
$ANGDIR
 70
     0
  9
$PDMODE
 70
     0
  9
$PDSIZE
 40
0.0
  9
$PLINEWID
 40
0.0
  9
$SPLFRAME
 70
     0
  9
$SPLINETYPE
 70
     6
  9
$SPLINESEGS
 70
     8
  9
$HANDSEED
  5
28C
  9
$SURFTAB1
 70
     6
  9
$SURFTAB2
 70
     6
  9
$SURFTYPE
 70
     6
  9
$SURFU
 70
     6
  9
$SURFV
 70
     6
  9
$UCSBASE
  2

  9
$UCSNAME
  2

  9
$UCSORG
 10
0.0
 20
0.0
 30
0.0
  9
$UCSXDIR
 10
1.0
 20
0.0
 30
0.0
  9
$UCSYDIR
 10
0.0
 20
1.0
 30
0.0
  9
$UCSORTHOREF
  2

  9
$UCSORTHOVIEW
 70
     1
  9
$UCSORGTOP
 10
0.0
 20
0.0
 30
0.0
  9
$UCSORGBOTTOM
 10
0.0
 20
0.0
 30
0.0
  9
$UCSORGLEFT
 10
0.0
 20
0.0
 30
0.0
  9
$UCSORGRIGHT
 10
0.0
 20
0.0
 30
0.0
  9
$UCSORGFRONT
 10
0.0
 20
0.0
 30
0.0
  9
$UCSORGBACK
 10
0.0
 20
0.0
 30
0.0
  9
$PUCSBASE
  2

  9
$PUCSNAME
  2

  9
$PUCSORG
 10
0.0
 20
0.0
 30
0.0
  9
$PUCSXDIR
 10
1.0
 20
0.0
 30
0.0
  9
$PUCSYDIR
 10
0.0
 20
1.0
 30
0.0
  9
$PUCSORTHOREF
  2

  9
$PUCSORTHOVIEW
 70
     0
  9
$PUCSORGTOP
 10
0.0
 20
0.0
 30
0.0
  9
$PUCSORGBOTTOM
 10
0.0
 20
0.0
 30
0.0
  9
$PUCSORGLEFT
 10
0.0
 20
0.0
 30
0.0
  9
$PUCSORGRIGHT
 10
0.0
 20
0.0
 30
0.0
  9
$PUCSORGFRONT
 10
0.0
 20
0.0
 30
0.0
  9
$PUCSORGBACK
 10
0.0
 20
0.0
 30
0.0
  9
$USERI1
 70
     0
  9
$USERI2
 70
     0
  9
$USERI3
 70
     0
  9
$USERI4
 70
     0
  9
$USERI5
 70
     0
  9
$USERR1
 40
0.0
  9
$USERR2
 40
0.0
  9
$USERR3
 40
0.0
  9
$USERR4
 40
0.0
  9
$USERR5
 40
0.0
  9
$WORLDVIEW
 70
     1
  9
$SHADEDGE
 70
     3
  9
$SHADEDIF
 70
    70
  9
$TILEMODE
 70
     1
  9
$MAXACTVP
 70
    64
  9
$PINSBASE
 10
0.0
 20
0.0
 30
0.0
  9
$PLIMCHECK
 70
     0
  9
$PEXTMIN
 10
0.0
 20
0.0
 30
0.0
  9
$PEXTMAX
 10
591.295532
 20
343.061951
 30
2.0
  9
$PLIMMIN
 10
0.0
 20
0.0
  9
$PLIMMAX
 10
420.0
 20
297.0
  9
$UNITMODE
 70
     0
  9
$VISRETAIN
 70
     0
  9
$PLINEGEN
 70
     0
  9
$PSLTSCALE
 70
     1
  9
$TREEDEPTH
 70
  3020
  9
$CMLSTYLE
  2
Standard
  9
$CMLJUST
 70
     0
  9
$CMLSCALE
 40
20.0
  9
$PROXYGRAPHICS
 70
     1
  9
$MEASUREMENT
 70
     1
  9
$CELWEIGHT
370
    -1
  9
$ENDCAPS
280
     0
  9
$JOINSTYLE
280
     0
  9
$LWDISPLAY
290
     0
  9
$INSUNITS
 70
     0
  9
$HYPERLINKBASE
  1

  9
$STYLESHEET
  1

  9
$XEDIT
290
     1
  9
$CEPSNTYPE
380
     0
  9
$PSTYLEMODE
290
     0
  9
$FINGERPRINTGUID
  2
{A34FD161-F777-4740-A650-3BAE1F4B0531}
  9
$VERSIONGUID
  2
{FAEB1C32-E019-11D5-929B-00C0DF256EC4}
  9
$EXTNAMES
290
     1
  9
$PSVPSCALE
 40
0.0
  9
$OLESTARTUP
290
     0
  0
ENDSEC
  0
SECTION
  2
CLASSES
  0
CLASS
  1
ACDBDICTIONARYWDFLT
  2
AcDbDictionaryWithDefault
  3
ObjectDBX Classes
 90
        0
280
     0
281
     0
  0
CLASS
  1
VISUALSTYLE
  2
AcDbVisualStyle
  3
ObjectDBX Classes
 90
     4095
280
     0
281
     0
  0
CLASS
  1
MATERIAL
  2
AcDbMaterial
  3
ObjectDBX Classes
 90
     1153
280
     0
281
     0
  0
CLASS
  1
SCALE
  2
AcDbScale
  3
ObjectDBX Classes
 90
     1153
280
     0
281
     0
  0
CLASS
  1
TABLESTYLE
  2
AcDbTableStyle
  3
ObjectDBX Classes
 90
     4095
280
     0
281
     0
  0
CLASS
  1
MLEADERSTYLE
  2
AcDbMLeaderStyle
  3
ACDB_MLEADERSTYLE_CLASS
 90
     4095
280
     0
281
     0
  0
CLASS
  1
SUN
  2
AcDbSun
  3
SCENEOE
 90
     1153
280
     0
281
     0
  0
CLASS
  1
ACDBPLACEHOLDER
  2
AcDbPlaceHolder
  3
ObjectDBX Classes
 90
        0
280
     0
281
     0
  0
CLASS
  1
LAYOUT
  2
AcDbLayout
  3
ObjectDBX Classes
 90
        0
280
     0
281
     0
  0
ENDSEC
  0
SECTION
  2
TABLES
  0
TABLE
  2
VPORT
  5
8
330
0
100
AcDbSymbolTable
 70
     1
  0
VPORT
  5
29
330
8
100
AcDbSymbolTableRecord
100
AcDbViewportTableRecord
  2
*Active
 70
     0
 10
0.0
 20
0.0
 11
1.0
 21
1.0
 12
10.429907
 22
4.5
 13
0.0
 23
0.0
 14
0.5
 24
0.5
 15
0.5
 25
0.5
 16
0.0
 26
0.0
 36
1.0
 17
0.0
 27
0.0
 37
0.0
 40
9.0
 41
1.972973
 42
50.0
 43
0.0
 44
0.0
 50
0.0
 51
0.0
 71
     0
 72
   100
 73
     1
 74
     3
 75
     0
 76
     0
 77
     0
 78
     0
281
     0
 65
     1
110
0.0
120
0.0
130
0.0
111
1.0
121
0.0
131
0.0
112
0.0
122
1.0
132
0.0
 79
     0
146
0.0
  0
ENDTAB
  0
TABLE
  2
LTYPE
  5
5
330
0
100
AcDbSymbolTable
 70
     1
  0
LTYPE
  5
14
330
5
100
AcDbSymbolTableRecord
100
AcDbLinetypeTableRecord
  2
ByBlock
 70
     0
  3

 72
    65
 73
     0
 40
0.0
  0
LTYPE
  5
15
330
5
100
AcDbSymbolTableRecord
100
AcDbLinetypeTableRecord
  2
ByLayer
 70
     0
  3

 72
    65
 73
     0
 40
0.0
  0
LTYPE
  5
16
330
5
100
AcDbSymbolTableRecord
100
AcDbLinetypeTableRecord
  2
Continuous
 70
     0
  3
Solid line
 72
    65
 73
     0
 40
0.0
  0
ENDTAB
  0
TABLE
  2
LAYER
  5
2
330
0
100
AcDbSymbolTable
 70
     1
  0
LAYER
  5
10
330
2
100
AcDbSymbolTableRecord
100
AcDbLayerTableRecord
  2
0
 70
     0
 62
     7
  6
Continuous
370
    -3
390
F
  0
ENDTAB
  0
TABLE
  2
STYLE
  5
3
330
0
100
AcDbSymbolTable
 70
     1
  0
STYLE
  5
11
330
3
100
AcDbSymbolTableRecord
100
AcDbTextStyleTableRecord
  2
Standard
 70
     0
 40
0.0
 41
1.0
 50
0.0
 71
     0
 42
2.5
  3
txt
  4

  0
ENDTAB
  0
TABLE
  2
VIEW
  5
6
330
0
100
AcDbSymbolTable
 70
     0
  0
ENDTAB
  0
TABLE
  2
UCS
  5
7
330
0
100
AcDbSymbolTable
 70
     0
  0
ENDTAB
  0
TABLE
  2
APPID
  5
9
330
0
100
AcDbSymbolTable
 70
     1
  0
APPID
  5
12
330
9
100
AcDbSymbolTableRecord
100
AcDbRegAppTableRecord
  2
ACAD
 70
     0
  0
ENDTAB
  0
TABLE
  2
DIMSTYLE
  5
A
330
0
100
AcDbSymbolTable
 70
     1
100
AcDbDimStyleTable
  0
DIMSTYLE
105
27
330
A
100
AcDbSymbolTableRecord
100
AcDbDimStyleTableRecord
  2
Standard
 70
     0
178
     0
340
11
  0
ENDTAB
  0
TABLE
  2
BLOCK_RECORD
  5
1
330
0
100
AcDbSymbolTable
 70
     1
  0
BLOCK_RECORD
  5
1F
330
1
100
AcDbSymbolTableRecord
100
AcDbBlockTableRecord
  2
*Model_Space
340
22
  0
BLOCK_RECORD
  5
1B
330
1
100
AcDbSymbolTableRecord
100
AcDbBlockTableRecord
  2
*Paper_Space
340
1E
  0
BLOCK_RECORD
  5
23
330
1
100
AcDbSymbolTableRecord
100
AcDbBlockTableRecord
  2
*Paper_Space0
340
26
  0
ENDTAB
  0
ENDSEC
  0
SECTION
  2
BLOCKS
  0
BLOCK
  5
20
330
1F
100
AcDbEntity
  8
0
100
AcDbBlockBegin
  2
*Model_Space
 70
     0
 10
0.0
 20
0.0
 30
0.0
  3
*Model_Space
  1

  0
ENDBLK
  5
21
330
1F
100
AcDbEntity
  8
0
100
AcDbBlockEnd
  0
BLOCK
  5
1C
330
1B
100
AcDbEntity
 67
     1
  8
0
100
AcDbBlockBegin
  2
*Paper_Space
 70
     0
 10
0.0
 20
0.0
 30
0.0
  3
*Paper_Space
  1

  0
ENDBLK
  5
1D
330
1B
100
AcDbEntity
 67
     1
  8
0
100
AcDbBlockEnd
  0
BLOCK
  5
24
330
23
100
AcDbEntity
  8
0
100
AcDbBlockBegin
  2
*Paper_Space0
 70
     0
 10
0.0
 20
0.0
 30
0.0
  3
*Paper_Space0
  1

  0
ENDBLK
  5
25
330
23
100
AcDbEntity
  8
0
100
AcDbBlockEnd
  0
ENDSEC
  0
SECTION
  2
ENTITIES
  0
CIRCLE
  5
6E
330
1F
100
AcDbEntity
  8
0
 62
     7
370
    35
100
AcDbCircle
 10
86.989967
 20
175.676941
 30
0.0
 40
3.25
  0
LINE
  5
6F
330
1F
100
AcDbEntity
  8
0
 62
     7
370
    35
100
AcDbLine
 10
126.540817
 20
200.676941
 30
0.0
 11
18.540817
 21
200.676941
 31
0.0
  0
LINE
  5
70
330
1F
100
AcDbEntity
  8
0
 62
     7
370
    35
100
AcDbLine
 10
18.540817
 20
200.676941
 30
0.0
 11
12.540817
 21
194.676941
 31
0.0
  0
LINE
  5
71
330
1F
100
AcDbEntity
  8
0
 62
     7
370
    35
100
AcDbLine
 10
12.540817
 20
194.676941
 30
0.0
 11
12.540817
 21
156.676941
 31
0.0
  0
LINE
  5
72
330
1F
100
AcDbEntity
  8
0
 62
     7
370
    35
100
AcDbLine
 10
12.540817
 20
156.676941
 30
0.0
 11
18.540817
 21
150.676941
 31
0.0
  0
LINE
  5
73
330
1F
100
AcDbEntity
  8
0
 62
     7
370
    35
100
AcDbLine
 10
18.540817
 20
150.676941
 30
0.0
 11
126.540817
 21
150.676941
 31
0.0
  0
LINE
  5
74
330
1F
100
AcDbEntity
  8
0
 62
     7
370
    35
100
AcDbLine
 10
126.540817
 20
150.676941
 30
0.0
 11
132.540817
 21
156.676941
 31
0.0
  0
LINE
  5
75
330
1F
100
AcDbEntity
  8
0
 62
     7
370
    35
100
AcDbLine
 10
132.540817
 20
156.676941
 30
0.0
 11
132.540817
 21
194.676941
 31
0.0
  0
LINE
  5
76
330
1F
100
AcDbEntity
  8
0
 62
     7
370
    35
100
AcDbLine
 10
132.540817
 20
194.676941
 30
0.0
 11
126.540817
 21
200.676941
 31
0.0
  0
CIRCLE
  5
77
330
1F
100
AcDbEntity
  8
0
 62
     7
370
    35
100
AcDbCircle
 10
59.989967
 20
175.676941
 30
0.0
 40
3.25
  0
ARC
  5
78
330
1F
100
AcDbEntity
  8
0
 62
     7
370
    35
100
AcDbCircle
 10
19.540817
 20
159.176941
 30
0.0
 40
1.0
100
AcDbArc
 50
180.000005
 51
269.999997
  0
LINE
  5
79
330
1F
100
AcDbEntity
  8
0
 62
     7
370
    35
100
AcDbLine
 10
18.540817
 20
159.176941
 30
0.0
 11
18.540817
 21
165.176941
 31
0.0
  0
ARC
  5
7A
330
1F
100
AcDbEntity
  8
0
 62
     7
370
    35
100
AcDbCircle
 10
19.540817
 20
165.176941
 30
0.0
 40
1.0
100
AcDbArc
 50
90.000003
 51
180.000005
  0
LINE
  5
7B
330
1F
100
AcDbEntity
  8
0
 62
     7
370
    35
100
AcDbLine
 10
63.540817
 20
166.176941
 30
0.0
 11
19.540817
 21
166.176941
 31
0.0
  0
ARC
  5
7C
330
1F
100
AcDbEntity
  8
0
 62
     7
370
    35
100
AcDbCircle
 10
63.540817
 20
165.176941
 30
0.0
 40
1.0
100
AcDbArc
 50
0.0
 51
90.000003
  0
LINE
  5
7D
330
1F
100
AcDbEntity
  8
0
 62
     7
370
    35
100
AcDbLine
 10
64.540817
 20
165.176941
 30
0.0
 11
64.540817
 21
159.176941
 31
0.0
  0
ARC
  5
7E
330
1F
100
AcDbEntity
  8
0
 62
     7
370
    35
100
AcDbCircle
 10
63.540817
 20
159.176941
 30
0.0
 40
1.0
100
AcDbArc
 50
269.999997
 51
360.0
  0
LINE
  5
7F
330
1F
100
AcDbEntity
  8
0
 62
     7
370
    35
100
AcDbLine
 10
19.540817
 20
158.176941
 30
0.0
 11
63.540817
 21
158.176941
 31
0.0
  0
LINE
  5
80
330
1F
100
AcDbEntity
  8
0
 62
     7
370
    35
100
AcDbLine
 10
80.540817
 20
165.176941
 30
0.0
 11
80.540817
 21
159.176941
 31
0.0
  0
ARC
  5
81
330
1F
100
AcDbEntity
  8
0
 62
     7
370
    35
100
AcDbCircle
 10
81.540817
 20
165.176941
 30
0.0
 40
1.0
100
AcDbArc
 50
90.000003
 51
180.000005
  0
LINE
  5
82
330
1F
100
AcDbEntity
  8
0
 62
     7
370
    35
100
AcDbLine
 10
81.540817
 20
166.176941
 30
0.0
 11
125.540817
 21
166.176941
 31
0.0
  0
ARC
  5
83
330
1F
100
AcDbEntity
  8
0
 62
     7
370
    35
100
AcDbCircle
 10
125.540817
 20
165.176941
 30
0.0
 40
1.0
100
AcDbArc
 50
0.0
 51
90.000003
  0
LINE
  5
84
330
1F
100
AcDbEntity
  8
0
 62
     7
370
    35
100
AcDbLine
 10
126.540817
 20
159.176941
 30
0.0
 11
126.540817
 21
165.176941
 31
0.0
  0
ARC
  5
85
330
1F
100
AcDbEntity
  8
0
 62
     7
370
    35
100
AcDbCircle
 10
125.540817
 20
159.176941
 30
0.0
 40
1.0
100
AcDbArc
 50
269.999997
 51
360.0
  0
LINE
  5
86
330
1F
100
AcDbEntity
  8
0
 62
     7
370
    35
100
AcDbLine
 10
125.540817
 20
158.176941
 30
0.0
 11
81.540817
 21
158.176941
 31
0.0
  0
ARC
  5
87
330
1F
100
AcDbEntity
  8
0
 62
     7
370
    35
100
AcDbCircle
 10
81.540817
 20
159.176941
 30
0.0
 40
1.0
100
AcDbArc
 50
180.000005
 51
269.999997
  0
LINE
  5
88
330
1F
100
AcDbEntity
  8
0
 62
     7
370
    35
100
AcDbLine
 10
64.540817
 20
186.176941
 30
0.0
 11
64.540817
 21
192.176941
 31
0.0
  0
ARC
  5
89
330
1F
100
AcDbEntity
  8
0
 62
     7
370
    35
100
AcDbCircle
 10
63.540817
 20
186.176941
 30
0.0
 40
1.0
100
AcDbArc
 50
269.999997
 51
360.0
  0
LINE
  5
8A
330
1F
100
AcDbEntity
  8
0
 62
     7
370
    35
100
AcDbLine
 10
63.540817
 20
185.176941
 30
0.0
 11
19.540817
 21
185.176941
 31
0.0
  0
ARC
  5
8B
330
1F
100
AcDbEntity
  8
0
 62
     7
370
    35
100
AcDbCircle
 10
19.540817
 20
186.176941
 30
0.0
 40
1.0
100
AcDbArc
 50
180.000005
 51
269.999997
  0
LINE
  5
8C
330
1F
100
AcDbEntity
  8
0
 62
     7
370
    35
100
AcDbLine
 10
18.540817
 20
192.176941
 30
0.0
 11
18.540817
 21
186.176941
 31
0.0
  0
ARC
  5
8D
330
1F
100
AcDbEntity
  8
0
 62
     7
370
    35
100
AcDbCircle
 10
19.540817
 20
192.176941
 30
0.0
 40
1.0
100
AcDbArc
 50
90.000003
 51
180.000005
  0
LINE
  5
8E
330
1F
100
AcDbEntity
  8
0
 62
     7
370
    35
100
AcDbLine
 10
19.540817
 20
193.176941
 30
0.0
 11
63.540817
 21
193.176941
 31
0.0
  0
ARC
  5
8F
330
1F
100
AcDbEntity
  8
0
 62
     7
370
    35
100
AcDbCircle
 10
63.540817
 20
192.176941
 30
0.0
 40
1.0
100
AcDbArc
 50
0.0
 51
90.000003
  0
LINE
  5
90
330
1F
100
AcDbEntity
  8
0
 62
     7
370
    35
100
AcDbLine
 10
81.540817
 20
185.176941
 30
0.0
 11
125.540817
 21
185.176941
 31
0.0
  0
ARC
  5
91
330
1F
100
AcDbEntity
  8
0
 62
     7
370
    35
100
AcDbCircle
 10
81.540817
 20
186.176941
 30
0.0
 40
1.0
100
AcDbArc
 50
180.000005
 51
269.999997
  0
LINE
  5
92
330
1F
100
AcDbEntity
  8
0
 62
     7
370
    35
100
AcDbLine
 10
80.540817
 20
186.176941
 30
0.0
 11
80.540817
 21
192.176941
 31
0.0
  0
ARC
  5
93
330
1F
100
AcDbEntity
  8
0
 62
     7
370
    35
100
AcDbCircle
 10
81.540817
 20
192.176941
 30
0.0
 40
1.0
100
AcDbArc
 50
90.000003
 51
180.000005
  0
LINE
  5
94
330
1F
100
AcDbEntity
  8
0
 62
     7
370
    35
100
AcDbLine
 10
125.540817
 20
193.176941
 30
0.0
 11
81.540817
 21
193.176941
 31
0.0
  0
ARC
  5
95
330
1F
100
AcDbEntity
  8
0
 62
     7
370
    35
100
AcDbCircle
 10
125.540817
 20
192.176941
 30
0.0
 40
1.0
100
AcDbArc
 50
0.0
 51
90.000003
  0
LINE
  5
96
330
1F
100
AcDbEntity
  8
0
 62
     7
370
    35
100
AcDbLine
 10
126.540817
 20
192.176941
 30
0.0
 11
126.540817
 21
186.176941
 31
0.0
  0
ARC
  5
97
330
1F
100
AcDbEntity
  8
0
 62
     7
370
    35
100
AcDbCircle
 10
125.540817
 20
186.176941
 30
0.0
 40
1.0
100
AcDbArc
 50
269.999997
 51
360.0
  0
LINE
  5
98
330
1F
100
AcDbEntity
  8
0
 62
     7
370
    35
100
AcDbLine
 10
59.132133
 20
29.274004
 30
0.0
 11
59.132133
 21
37.074005
 31
0.0
  0
ARC
  5
99
330
1F
100
AcDbEntity
  8
0
 62
     7
370
    35
100
AcDbCircle
 10
57.132133
 20
37.074005
 30
0.0
 40
2.0
100
AcDbArc
 50
0.0
 51
90.000003
  0
LINE
  5
9A
330
1F
100
AcDbEntity
  8
0
 62
     7
370
    35
100
AcDbLine
 10
57.132133
 20
39.074005
 30
0.0
 11
41.132133
 21
39.074005
 31
0.0
  0
ARC
  5
9B
330
1F
100
AcDbEntity
  8
0
 62
     7
370
    35
100
AcDbCircle
 10
41.132133
 20
37.074005
 30
0.0
 40
2.0
100
AcDbArc
 50
90.000003
 51
180.000005
  0
LINE
  5
9C
330
1F
100
AcDbEntity
  8
0
 62
     7
370
    35
100
AcDbLine
 10
39.132133
 20
37.074005
 30
0.0
 11
39.132133
 21
29.274004
 31
0.0
  0
ARC
  5
9D
330
1F
100
AcDbEntity
  8
0
 62
     7
370
    35
100
AcDbCircle
 10
41.132133
 20
29.274004
 30
0.0
 40
2.0
100
AcDbArc
 50
180.000005
 51
269.999997
  0
LINE
  5
9E
330
1F
100
AcDbEntity
  8
0
 62
     7
370
    35
100
AcDbLine
 10
41.132133
 20
27.274004
 30
0.0
 11
57.132133
 21
27.274004
 31
0.0
  0
ARC
  5
9F
330
1F
100
AcDbEntity
  8
0
 62
     7
370
    35
100
AcDbCircle
 10
57.132133
 20
29.274004
 30
0.0
 40
2.0
100
AcDbArc
 50
269.999997
 51
360.0
  0
CIRCLE
  5
A0
330
1F
100
AcDbEntity
  8
0
 62
     7
370
    35
100
AcDbCircle
 10
49.132133
 20
33.174004
 30
0.0
 40
3.35
  0
LINE
  5
A1
330
1F
100
AcDbEntity
  8
0
 62
     7
370
    35
100
AcDbLine
 10
58.813316
 20
48.794498
 30
0.0
 11
58.813316
 21
56.594501
 31
0.0
  0
ARC
  5
A2
330
1F
100
AcDbEntity
  8
0
 62
     7
370
    35
100
AcDbCircle
 10
56.813316
 20
56.594501
 30
0.0
 40
2.0
100
AcDbArc
 50
0.0
 51
90.000003
  0
LINE
  5
A3
330
1F
100
AcDbEntity
  8
0
 62
     7
370
    35
100
AcDbLine
 10
56.813316
 20
58.594501
 30
0.0
 11
40.813316
 21
58.594501
 31
0.0
  0
ARC
  5
A4
330
1F
100
AcDbEntity
  8
0
 62
     7
370
    35
100
AcDbCircle
 10
40.813316
 20
56.594501
 30
0.0
 40
2.0
100
AcDbArc
 50
90.000003
 51
180.000005
  0
LINE
  5
A5
330
1F
100
AcDbEntity
  8
0
 62
     7
370
    35
100
AcDbLine
 10
38.813316
 20
56.594501
 30
0.0
 11
38.813316
 21
48.794498
 31
0.0
  0
ARC
  5
A6
330
1F
100
AcDbEntity
  8
0
 62
     7
370
    35
100
AcDbCircle
 10
40.813316
 20
48.794498
 30
0.0
 40
2.0
100
AcDbArc
 50
180.000005
 51
269.999997
  0
LINE
  5
A7
330
1F
100
AcDbEntity
  8
0
 62
     7
370
    35
100
AcDbLine
 10
40.813316
 20
46.794498
 30
0.0
 11
56.813316
 21
46.794498
 31
0.0
  0
ARC
  5
A8
330
1F
100
AcDbEntity
  8
0
 62
     7
370
    35
100
AcDbCircle
 10
56.813316
 20
48.794498
 30
0.0
 40
2.0
100
AcDbArc
 50
269.999997
 51
360.0
  0
CIRCLE
  5
A9
330
1F
100
AcDbEntity
  8
0
 62
     7
370
    35
100
AcDbCircle
 10
48.813316
 20
52.6945
 30
0.0
 40
3.35
  0
LINE
  5
AA
330
1F
100
AcDbEntity
  8
0
 62
     7
370
    35
100
AcDbLine
 10
29.233009
 20
49.120136
 30
0.0
 11
29.233009
 21
56.920139
 31
0.0
  0
ARC
  5
AB
330
1F
100
AcDbEntity
  8
0
 62
     7
370
    35
100
AcDbCircle
 10
27.233009
 20
56.920139
 30
0.0
 40
2.0
100
AcDbArc
 50
0.0
 51
90.000003
  0
LINE
  5
AC
330
1F
100
AcDbEntity
  8
0
 62
     7
370
    35
100
AcDbLine
 10
27.233009
 20
58.920139
 30
0.0
 11
11.233009
 21
58.920139
 31
0.0
  0
ARC
  5
AD
330
1F
100
AcDbEntity
  8
0
 62
     7
370
    35
100
AcDbCircle
 10
11.233009
 20
56.920139
 30
0.0
 40
2.0
100
AcDbArc
 50
90.000003
 51
180.000005
  0
LINE
  5
AE
330
1F
100
AcDbEntity
  8
0
 62
     7
370
    35
100
AcDbLine
 10
9.233009
 20
56.920139
 30
0.0
 11
9.233009
 21
49.120136
 31
0.0
  0
ARC
  5
AF
330
1F
100
AcDbEntity
  8
0
 62
     7
370
    35
100
AcDbCircle
 10
11.233009
 20
49.120136
 30
0.0
 40
2.0
100
AcDbArc
 50
180.000005
 51
269.999997
  0
LINE
  5
B0
330
1F
100
AcDbEntity
  8
0
 62
     7
370
    35
100
AcDbLine
 10
11.233009
 20
47.120136
 30
0.0
 11
27.233009
 21
47.120136
 31
0.0
  0
ARC
  5
B1
330
1F
100
AcDbEntity
  8
0
 62
     7
370
    35
100
AcDbCircle
 10
27.233009
 20
49.120136
 30
0.0
 40
2.0
100
AcDbArc
 50
269.999997
 51
360.0
  0
CIRCLE
  5
B2
330
1F
100
AcDbEntity
  8
0
 62
     7
370
    35
100
AcDbCircle
 10
19.233009
 20
53.020138
 30
0.0
 40
3.35
  0
LINE
  5
B3
330
1F
100
AcDbEntity
  8
0
 62
     7
370
    35
100
AcDbLine
 10
29.893852
 20
28.662729
 30
0.0
 11
29.893852
 21
36.46273
 31
0.0
  0
ARC
  5
B4
330
1F
100
AcDbEntity
  8
0
 62
     7
370
    35
100
AcDbCircle
 10
27.893852
 20
36.46273
 30
0.0
 40
2.0
100
AcDbArc
 50
0.0
 51
90.000003
  0
LINE
  5
B5
330
1F
100
AcDbEntity
  8
0
 62
     7
370
    35
100
AcDbLine
 10
27.893852
 20
38.46273
 30
0.0
 11
11.893852
 21
38.46273
 31
0.0
  0
ARC
  5
B6
330
1F
100
AcDbEntity
  8
0
 62
     7
370
    35
100
AcDbCircle
 10
11.893852
 20
36.46273
 30
0.0
 40
2.0
100
AcDbArc
 50
90.000003
 51
180.000005
  0
LINE
  5
B7
330
1F
100
AcDbEntity
  8
0
 62
     7
370
    35
100
AcDbLine
 10
9.893852
 20
36.46273
 30
0.0
 11
9.893852
 21
28.662729
 31
0.0
  0
ARC
  5
B8
330
1F
100
AcDbEntity
  8
0
 62
     7
370
    35
100
AcDbCircle
 10
11.893852
 20
28.662729
 30
0.0
 40
2.0
100
AcDbArc
 50
180.000005
 51
269.999997
  0
LINE
  5
B9
330
1F
100
AcDbEntity
  8
0
 62
     7
370
    35
100
AcDbLine
 10
11.893852
 20
26.662729
 30
0.0
 11
27.893852
 21
26.662729
 31
0.0
  0
ARC
  5
BA
330
1F
100
AcDbEntity
  8
0
 62
     7
370
    35
100
AcDbCircle
 10
27.893852
 20
28.662729
 30
0.0
 40
2.0
100
AcDbArc
 50
269.999997
 51
360.0
  0
CIRCLE
  5
BB
330
1F
100
AcDbEntity
  8
0
 62
     7
370
    35
100
AcDbCircle
 10
19.893852
 20
32.562729
 30
0.0
 40
3.35
  0
CIRCLE
  5
BC
330
1F
100
AcDbEntity
  8
0
 62
     7
370
    35
100
AcDbCircle
 10
443.520142
 20
121.061722
 30
0.0
 40
1.2295
  0
ARC
  5
BD
330
1F
100
AcDbEntity
  8
0
 62
     7
370
    35
100
AcDbCircle
 10
443.520142
 20
100.061722
 30
0.0
 40
26.0
100
AcDbArc
 50
269.999997
 51
90.000003
  0
LINE
  5
BE
330
1F
100
AcDbEntity
  8
0
 62
     7
370
    35
100
AcDbLine
 10
443.520142
 20
74.061722
 30
0.0
 11
431.348572
 21
74.061722
 31
0.0
  0
ARC
  5
BF
330
1F
100
AcDbEntity
  8
0
 62
     7
370
    35
100
AcDbCircle
 10
431.348572
 20
76.061722
 30
0.0
 40
2.0
100
AcDbArc
 50
225.0
 51
269.999997
  0
LINE
  5
C0
330
1F
100
AcDbEntity
  8
0
 62
     7
370
    35
100
AcDbLine
 10
429.934357
 20
74.647507
 30
0.0
 11
424.520142
 21
80.061722
 31
0.0
  0
LINE
  5
C1
330
1F
100
AcDbEntity
  8
0
 62
     7
370
    35
100
AcDbLine
 10
424.520142
 20
80.061722
 30
0.0
 11
418.520142
 21
80.061722
 31
0.0
  0
LINE
  5
C2
330
1F
100
AcDbEntity
  8
0
 62
     7
370
    35
100
AcDbLine
 10
418.520142
 20
80.061722
 30
0.0
 11
418.520142
 21
76.861725
 31
0.0
  0
LINE
  5
C3
330
1F
100
AcDbEntity
  8
0
 62
     7
370
    35
100
AcDbLine
 10
418.520142
 20
76.861725
 30
0.0
 11
403.520142
 21
76.861725
 31
0.0
  0
LINE
  5
C4
330
1F
100
AcDbEntity
  8
0
 62
     7
370
    35
100
AcDbLine
 10
403.520142
 20
76.861725
 30
0.0
 11
403.520142
 21
80.061722
 31
0.0
  0
LINE
  5
C5
330
1F
100
AcDbEntity
  8
0
 62
     7
370
    35
100
AcDbLine
 10
400.770142
 20
80.061722
 30
0.0
 11
403.520142
 21
80.061722
 31
0.0
  0
LINE
  5
C6
330
1F
100
AcDbEntity
  8
0
 62
     7
370
    35
100
AcDbLine
 10
400.770142
 20
120.061722
 30
0.0
 11
400.770142
 21
80.061722
 31
0.0
  0
LINE
  5
C7
330
1F
100
AcDbEntity
  8
0
 62
     7
370
    35
100
AcDbLine
 10
403.520142
 20
120.061722
 30
0.0
 11
400.770142
 21
120.061722
 31
0.0
  0
LINE
  5
C8
330
1F
100
AcDbEntity
  8
0
 62
     7
370
    35
100
AcDbLine
 10
403.520142
 20
120.061722
 30
0.0
 11
403.520142
 21
123.261719
 31
0.0
  0
LINE
  5
C9
330
1F
100
AcDbEntity
  8
0
 62
     7
370
    35
100
AcDbLine
 10
418.520142
 20
123.261719
 30
0.0
 11
403.520142
 21
123.261719
 31
0.0
  0
LINE
  5
CA
330
1F
100
AcDbEntity
  8
0
 62
     7
370
    35
100
AcDbLine
 10
418.520142
 20
120.061722
 30
0.0
 11
418.520142
 21
123.261719
 31
0.0
  0
LINE
  5
CB
330
1F
100
AcDbEntity
  8
0
 62
     7
370
    35
100
AcDbLine
 10
424.520142
 20
120.061722
 30
0.0
 11
418.520142
 21
120.061722
 31
0.0
  0
LINE
  5
CC
330
1F
100
AcDbEntity
  8
0
 62
     7
370
    35
100
AcDbLine
 10
429.934357
 20
125.475937
 30
0.0
 11
424.520142
 21
120.061722
 31
0.0
  0
ARC
  5
CD
330
1F
100
AcDbEntity
  8
0
 62
     7
370
    35
100
AcDbCircle
 10
431.348572
 20
124.061722
 30
0.0
 40
2.0
100
AcDbArc
 50
90.000003
 51
135.0
  0
LINE
  5
CE
330
1F
100
AcDbEntity
  8
0
 62
     7
370
    35
100
AcDbLine
 10
443.520142
 20
126.061722
 30
0.0
 11
431.348572
 21
126.061722
 31
0.0
  0
LINE
  5
CF
330
1F
100
AcDbEntity
  8
0
 62
     7
370
    35
100
AcDbLine
 10
412.865448
 20
115.061722
 30
0.0
 11
408.520142
 21
115.061722
 31
0.0
  0
ARC
  5
D0
330
1F
100
AcDbEntity
  8
0
 62
     7
370
    35
100
AcDbCircle
 10
412.865448
 20
113.061722
 30
0.0
 40
2.0
100
AcDbArc
 50
30.000001
 51
90.000003
  0
ARC
  5
D1
330
1F
100
AcDbEntity
  8
0
 62
     7
370
    35
100
AcDbCircle
 10
408.520142
 20
113.061722
 30
0.0
 40
2.0
100
AcDbArc
 50
90.000003
 51
180.000005
  0
LINE
  5
D2
330
1F
100
AcDbEntity
  8
0
 62
     7
370
    35
100
AcDbLine
 10
417.252197
 20
109.463646
 30
0.0
 11
414.597504
 21
114.061722
 31
0.0
  0
ARC
  5
D3
330
1F
100
AcDbEntity
  8
0
 62
     7
370
    35
100
AcDbCircle
 10
415.520142
 20
108.463646
 30
0.0
 40
1.999999999999999
100
AcDbArc
 50
0.0
 51
30.000001
  0
LINE
  5
D4
330
1F
100
AcDbEntity
  8
0
 62
     7
370
    35
100
AcDbLine
 10
417.520142
 20
91.659798
 30
0.0
 11
417.520142
 21
108.463646
 31
0.0
  0
ARC
  5
D5
330
1F
100
AcDbEntity
  8
0
 62
     7
370
    35
100
AcDbCircle
 10
415.520142
 20
91.659798
 30
0.0
 40
2.0
100
AcDbArc
 50
329.999999
 51
360.0
  0
LINE
  5
D6
330
1F
100
AcDbEntity
  8
0
 62
     7
370
    35
100
AcDbLine
 10
414.597504
 20
86.061722
 30
0.0
 11
417.252197
 21
90.659798
 31
0.0
  0
ARC
  5
D7
330
1F
100
AcDbEntity
  8
0
 62
     7
370
    35
100
AcDbCircle
 10
412.865448
 20
87.061722
 30
0.0
 40
2.000000000000002
100
AcDbArc
 50
269.999997
 51
329.999999
  0
LINE
  5
D8
330
1F
100
AcDbEntity
  8
0
 62
     7
370
    35
100
AcDbLine
 10
408.520142
 20
85.061722
 30
0.0
 11
412.865448
 21
85.061722
 31
0.0
  0
ARC
  5
D9
330
1F
100
AcDbEntity
  8
0
 62
     7
370
    35
100
AcDbCircle
 10
408.520142
 20
87.061722
 30
0.0
 40
2.0
100
AcDbArc
 50
180.000005
 51
269.999997
  0
LINE
  5
DA
330
1F
100
AcDbEntity
  8
0
 62
     7
370
    35
100
AcDbLine
 10
406.520142
 20
113.061722
 30
0.0
 11
406.520142
 21
87.061722
 31
0.0
  0
CIRCLE
  5
DB
330
1F
100
AcDbEntity
  8
0
 62
     7
370
    35
100
AcDbCircle
 10
443.520142
 20
100.061722
 30
0.0
 40
15.0
  0
CIRCLE
  5
DC
330
1F
100
AcDbEntity
  8
0
 62
     7
370
    35
100
AcDbCircle
 10
461.706665
 20
110.561722
 30
0.0
 40
1.2295
  0
CIRCLE
  5
DD
330
1F
100
AcDbEntity
  8
0
 62
     7
370
    35
100
AcDbCircle
 10
461.706665
 20
89.561722
 30
0.0
 40
1.2295
  0
CIRCLE
  5
DE
330
1F
100
AcDbEntity
  8
0
 62
     7
370
    35
100
AcDbCircle
 10
443.520142
 20
79.061722
 30
0.0
 40
1.2295
  0
CIRCLE
  5
DF
330
1F
100
AcDbEntity
  8
0
 62
     7
370
    35
100
AcDbCircle
 10
425.333618
 20
89.561722
 30
0.0
 40
1.2295
  0
CIRCLE
  5
E0
330
1F
100
AcDbEntity
  8
0
 62
     7
370
    35
100
AcDbCircle
 10
425.333618
 20
110.561722
 30
0.0
 40
1.2295
  0
CIRCLE
  5
E1
330
1F
100
AcDbEntity
  8
0
 62
     7
370
    35
100
AcDbCircle
 10
525.298523
 20
120.184097
 30
0.0
 40
1.2295
  0
ARC
  5
E2
330
1F
100
AcDbEntity
  8
0
 62
     7
370
    35
100
AcDbCircle
 10
525.298523
 20
99.184097
 30
0.0
 40
26.0
100
AcDbArc
 50
269.999997
 51
90.000003
  0
LINE
  5
E3
330
1F
100
AcDbEntity
  8
0
 62
     7
370
    35
100
AcDbLine
 10
525.298523
 20
73.184097
 30
0.0
 11
513.126953
 21
73.184097
 31
0.0
  0
ARC
  5
E4
330
1F
100
AcDbEntity
  8
0
 62
     7
370
    35
100
AcDbCircle
 10
513.126953
 20
75.184097
 30
0.0
 40
2.0
100
AcDbArc
 50
225.0
 51
269.999997
  0
LINE
  5
E5
330
1F
100
AcDbEntity
  8
0
 62
     7
370
    35
100
AcDbLine
 10
511.712738
 20
73.769882
 30
0.0
 11
506.298523
 21
79.184097
 31
0.0
  0
LINE
  5
E6
330
1F
100
AcDbEntity
  8
0
 62
     7
370
    35
100
AcDbLine
 10
506.298523
 20
79.184097
 30
0.0
 11
500.298523
 21
79.184097
 31
0.0
  0
LINE
  5
E7
330
1F
100
AcDbEntity
  8
0
 62
     7
370
    35
100
AcDbLine
 10
500.298523
 20
79.184097
 30
0.0
 11
500.298523
 21
75.9841
 31
0.0
  0
LINE
  5
E8
330
1F
100
AcDbEntity
  8
0
 62
     7
370
    35
100
AcDbLine
 10
500.298523
 20
75.9841
 30
0.0
 11
485.298523
 21
75.9841
 31
0.0
  0
LINE
  5
E9
330
1F
100
AcDbEntity
  8
0
 62
     7
370
    35
100
AcDbLine
 10
485.298523
 20
75.9841
 30
0.0
 11
485.298523
 21
79.184097
 31
0.0
  0
LINE
  5
EA
330
1F
100
AcDbEntity
  8
0
 62
     7
370
    35
100
AcDbLine
 10
482.548523
 20
79.184097
 30
0.0
 11
485.298523
 21
79.184097
 31
0.0
  0
LINE
  5
EB
330
1F
100
AcDbEntity
  8
0
 62
     7
370
    35
100
AcDbLine
 10
482.548523
 20
119.184097
 30
0.0
 11
482.548523
 21
79.184097
 31
0.0
  0
LINE
  5
EC
330
1F
100
AcDbEntity
  8
0
 62
     7
370
    35
100
AcDbLine
 10
485.298523
 20
119.184097
 30
0.0
 11
482.548523
 21
119.184097
 31
0.0
  0
LINE
  5
ED
330
1F
100
AcDbEntity
  8
0
 62
     7
370
    35
100
AcDbLine
 10
485.298523
 20
119.184097
 30
0.0
 11
485.298523
 21
122.384094
 31
0.0
  0
LINE
  5
EE
330
1F
100
AcDbEntity
  8
0
 62
     7
370
    35
100
AcDbLine
 10
500.298523
 20
122.384094
 30
0.0
 11
485.298523
 21
122.384094
 31
0.0
  0
LINE
  5
EF
330
1F
100
AcDbEntity
  8
0
 62
     7
370
    35
100
AcDbLine
 10
500.298523
 20
119.184097
 30
0.0
 11
500.298523
 21
122.384094
 31
0.0
  0
LINE
  5
F0
330
1F
100
AcDbEntity
  8
0
 62
     7
370
    35
100
AcDbLine
 10
506.298523
 20
119.184097
 30
0.0
 11
500.298523
 21
119.184097
 31
0.0
  0
LINE
  5
F1
330
1F
100
AcDbEntity
  8
0
 62
     7
370
    35
100
AcDbLine
 10
511.712738
 20
124.598312
 30
0.0
 11
506.298523
 21
119.184097
 31
0.0
  0
ARC
  5
F2
330
1F
100
AcDbEntity
  8
0
 62
     7
370
    35
100
AcDbCircle
 10
513.126953
 20
123.184097
 30
0.0
 40
2.0
100
AcDbArc
 50
90.000003
 51
135.0
  0
LINE
  5
F3
330
1F
100
AcDbEntity
  8
0
 62
     7
370
    35
100
AcDbLine
 10
525.298523
 20
125.184097
 30
0.0
 11
513.126953
 21
125.184097
 31
0.0
  0
LINE
  5
F4
330
1F
100
AcDbEntity
  8
0
 62
     7
370
    35
100
AcDbLine
 10
494.643829
 20
114.184097
 30
0.0
 11
490.298523
 21
114.184097
 31
0.0
  0
ARC
  5
F5
330
1F
100
AcDbEntity
  8
0
 62
     7
370
    35
100
AcDbCircle
 10
494.643829
 20
112.184097
 30
0.0
 40
2.0
100
AcDbArc
 50
30.000001
 51
90.000003
  0
ARC
  5
F6
330
1F
100
AcDbEntity
  8
0
 62
     7
370
    35
100
AcDbCircle
 10
490.298523
 20
112.184097
 30
0.0
 40
2.0
100
AcDbArc
 50
90.000003
 51
180.000005
  0
LINE
  5
F7
330
1F
100
AcDbEntity
  8
0
 62
     7
370
    35
100
AcDbLine
 10
499.030579
 20
108.586021
 30
0.0
 11
496.375885
 21
113.184097
 31
0.0
  0
ARC
  5
F8
330
1F
100
AcDbEntity
  8
0
 62
     7
370
    35
100
AcDbCircle
 10
497.298523
 20
107.586021
 30
0.0
 40
1.999999999999999
100
AcDbArc
 50
0.0
 51
30.000001
  0
LINE
  5
F9
330
1F
100
AcDbEntity
  8
0
 62
     7
370
    35
100
AcDbLine
 10
499.298523
 20
90.782173
 30
0.0
 11
499.298523
 21
107.586021
 31
0.0
  0
ARC
  5
FA
330
1F
100
AcDbEntity
  8
0
 62
     7
370
    35
100
AcDbCircle
 10
497.298523
 20
90.782173
 30
0.0
 40
2.0
100
AcDbArc
 50
329.999999
 51
360.0
  0
LINE
  5
FB
330
1F
100
AcDbEntity
  8
0
 62
     7
370
    35
100
AcDbLine
 10
496.375885
 20
85.184097
 30
0.0
 11
499.030579
 21
89.782173
 31
0.0
  0
ARC
  5
FC
330
1F
100
AcDbEntity
  8
0
 62
     7
370
    35
100
AcDbCircle
 10
494.643829
 20
86.184097
 30
0.0
 40
2.000000000000002
100
AcDbArc
 50
269.999997
 51
329.999999
  0
LINE
  5
FD
330
1F
100
AcDbEntity
  8
0
 62
     7
370
    35
100
AcDbLine
 10
490.298523
 20
84.184097
 30
0.0
 11
494.643829
 21
84.184097
 31
0.0
  0
ARC
  5
FE
330
1F
100
AcDbEntity
  8
0
 62
     7
370
    35
100
AcDbCircle
 10
490.298523
 20
86.184097
 30
0.0
 40
2.0
100
AcDbArc
 50
180.000005
 51
269.999997
  0
LINE
  5
FF
330
1F
100
AcDbEntity
  8
0
 62
     7
370
    35
100
AcDbLine
 10
488.298523
 20
112.184097
 30
0.0
 11
488.298523
 21
86.184097
 31
0.0
  0
CIRCLE
  5
100
330
1F
100
AcDbEntity
  8
0
 62
     7
370
    35
100
AcDbCircle
 10
525.298523
 20
99.184097
 30
0.0
 40
15.0
  0
CIRCLE
  5
101
330
1F
100
AcDbEntity
  8
0
 62
     7
370
    35
100
AcDbCircle
 10
543.485046
 20
109.684097
 30
0.0
 40
1.2295
  0
CIRCLE
  5
102
330
1F
100
AcDbEntity
  8
0
 62
     7
370
    35
100
AcDbCircle
 10
543.485046
 20
88.684097
 30
0.0
 40
1.2295
  0
CIRCLE
  5
103
330
1F
100
AcDbEntity
  8
0
 62
     7
370
    35
100
AcDbCircle
 10
525.298523
 20
78.184097
 30
0.0
 40
1.2295
  0
CIRCLE
  5
104
330
1F
100
AcDbEntity
  8
0
 62
     7
370
    35
100
AcDbCircle
 10
507.112
 20
88.684097
 30
0.0
 40
1.2295
  0
CIRCLE
  5
105
330
1F
100
AcDbEntity
  8
0
 62
     7
370
    35
100
AcDbCircle
 10
507.112
 20
109.684097
 30
0.0
 40
1.2295
  0
CIRCLE
  5
106
330
1F
100
AcDbEntity
  8
0
 62
     7
370
    35
100
AcDbCircle
 10
158.574066
 20
18.58721
 30
0.0
 40
1.7
  0
CIRCLE
  5
107
330
1F
100
AcDbEntity
  8
0
 62
     7
370
    35
100
AcDbCircle
 10
147.574066
 20
7.58721
 30
0.0
 40
1.7
  0
ARC
  5
108
330
1F
100
AcDbEntity
  8
0
 62
     7
370
    35
100
AcDbCircle
 10
147.574066
 20
18.58721
 30
0.0
 40
15.0
100
AcDbArc
 50
225.0
 51
45.000001
  0
LINE
  5
109
330
1F
100
AcDbEntity
  8
0
 62
     7
370
    35
100
AcDbLine
 10
142.624313
 20
13.637463
 30
0.0
 11
136.967468
 21
7.980608
 31
0.0
  0
ARC
  5
10A
330
1F
100
AcDbEntity
  8
0
 62
     7
370
    35
100
AcDbCircle
 10
147.574066
 20
18.58721
 30
0.0
 40
7.0
100
AcDbArc
 50
225.0
 51
45.000001
  0
LINE
  5
10B
330
1F
100
AcDbEntity
  8
0
 62
     7
370
    35
100
AcDbLine
 10
158.180664
 20
29.193811
 30
0.0
 11
152.523819
 21
23.536957
 31
0.0
  0
CIRCLE
  5
10C
330
1F
100
AcDbEntity
  8
0
 62
     7
370
    35
100
AcDbCircle
 10
191.969833
 20
19.682867
 30
0.0
 40
1.7
  0
CIRCLE
  5
10D
330
1F
100
AcDbEntity
  8
0
 62
     7
370
    35
100
AcDbCircle
 10
180.969833
 20
8.682867
 30
0.0
 40
1.7
  0
ARC
  5
10E
330
1F
100
AcDbEntity
  8
0
 62
     7
370
    35
100
AcDbCircle
 10
180.969833
 20
19.682867
 30
0.0
 40
15.0
100
AcDbArc
 50
225.0
 51
45.000001
  0
LINE
  5
10F
330
1F
100
AcDbEntity
  8
0
 62
     7
370
    35
100
AcDbLine
 10
176.020081
 20
14.73312
 30
0.0
 11
170.363235
 21
9.076265
 31
0.0
  0
ARC
  5
110
330
1F
100
AcDbEntity
  8
0
 62
     7
370
    35
100
AcDbCircle
 10
180.969833
 20
19.682867
 30
0.0
 40
7.0
100
AcDbArc
 50
225.0
 51
45.000001
  0
LINE
  5
111
330
1F
100
AcDbEntity
  8
0
 62
     7
370
    35
100
AcDbLine
 10
191.576431
 20
30.289469
 30
0.0
 11
185.919586
 21
24.632614
 31
0.0
  0
CIRCLE
  5
112
330
1F
100
AcDbEntity
  8
0
 62
     7
370
    35
100
AcDbCircle
 10
224.466385
 20
20.32305
 30
0.0
 40
1.7
  0
CIRCLE
  5
113
330
1F
100
AcDbEntity
  8
0
 62
     7
370
    35
100
AcDbCircle
 10
213.466385
 20
9.32305
 30
0.0
 40
1.7
  0
ARC
  5
114
330
1F
100
AcDbEntity
  8
0
 62
     7
370
    35
100
AcDbCircle
 10
213.466385
 20
20.32305
 30
0.0
 40
15.0
100
AcDbArc
 50
225.0
 51
45.000001
  0
LINE
  5
115
330
1F
100
AcDbEntity
  8
0
 62
     7
370
    35
100
AcDbLine
 10
208.516632
 20
15.373302
 30
0.0
 11
202.859787
 21
9.716448
 31
0.0
  0
ARC
  5
116
330
1F
100
AcDbEntity
  8
0
 62
     7
370
    35
100
AcDbCircle
 10
213.466385
 20
20.32305
 30
0.0
 40
7.0
100
AcDbArc
 50
225.0
 51
45.000001
  0
LINE
  5
117
330
1F
100
AcDbEntity
  8
0
 62
     7
370
    35
100
AcDbLine
 10
224.072983
 20
30.929651
 30
0.0
 11
218.416138
 21
25.272797
 31
0.0
  0
CIRCLE
  5
118
330
1F
100
AcDbEntity
  8
0
 62
     7
370
    35
100
AcDbCircle
 10
127.369629
 20
19.320669
 30
0.0
 40
1.7
  0
CIRCLE
  5
119
330
1F
100
AcDbEntity
  8
0
 62
     7
370
    35
100
AcDbCircle
 10
116.369629
 20
8.320669
 30
0.0
 40
1.7
  0
ARC
  5
11A
330
1F
100
AcDbEntity
  8
0
 62
     7
370
    35
100
AcDbCircle
 10
116.369629
 20
19.320669
 30
0.0
 40
15.0
100
AcDbArc
 50
225.0
 51
45.000001
  0
LINE
  5
11B
330
1F
100
AcDbEntity
  8
0
 62
     7
370
    35
100
AcDbLine
 10
111.419884
 20
14.370922
 30
0.0
 11
105.763031
 21
8.714067
 31
0.0
  0
ARC
  5
11C
330
1F
100
AcDbEntity
  8
0
 62
     7
370
    35
100
AcDbCircle
 10
116.369629
 20
19.320669
 30
0.0
 40
7.0
100
AcDbArc
 50
225.0
 51
45.000001
  0
LINE
  5
11D
330
1F
100
AcDbEntity
  8
0
 62
     7
370
    35
100
AcDbLine
 10
126.976227
 20
29.927271
 30
0.0
 11
121.319374
 21
24.270416
 31
0.0
  0
ARC
  5
11E
330
1F
100
AcDbEntity
  8
0
 62
     7
370
    35
100
AcDbCircle
 10
467.370972
 20
13.208618
 30
0.0
 40
5.0
100
AcDbArc
 50
180.000005
 51
360.0
  0
LINE
  5
11F
330
1F
100
AcDbEntity
  8
0
 62
     7
370
    35
100
AcDbLine
 10
472.370972
 20
13.208618
 30
0.0
 11
472.370972
 21
17.151354
 31
0.0
  0
CIRCLE
  5
120
330
1F
100
AcDbEntity
  8
0
 62
     7
370
    35
100
AcDbCircle
 10
467.370972
 20
13.208618
 30
0.0
 40
2.0
  0
LINE
  5
121
330
1F
100
AcDbEntity
  8
0
 62
     7
370
    35
100
AcDbLine
 10
462.370972
 20
17.151354
 30
0.0
 11
462.370972
 21
13.208618
 31
0.0
  0
LINE
  5
122
330
1F
100
AcDbEntity
  8
0
 62
     7
370
    35
100
AcDbLine
 10
462.370972
 20
17.151354
 30
0.0
 11
462.370972
 21
25.265882
 31
0.0
  0
LINE
  5
123
330
1F
100
AcDbEntity
  8
0
 62
     7
370
    35
100
AcDbLine
 10
472.370972
 20
25.265882
 30
0.0
 11
472.370972
 21
17.151354
 31
0.0
  0
LINE
  5
124
330
1F
100
AcDbEntity
  8
0
 62
     7
370
    35
100
AcDbLine
 10
472.370972
 20
25.265882
 30
0.0
 11
472.370972
 21
30.208618
 31
0.0
  0
LINE
  5
125
330
1F
100
AcDbEntity
  8
0
 62
     7
370
    35
100
AcDbLine
 10
472.370972
 20
30.208618
 30
0.0
 11
479.370972
 21
30.208618
 31
0.0
  0
ARC
  5
126
330
1F
100
AcDbEntity
  8
0
 62
     7
370
    35
100
AcDbCircle
 10
479.370972
 20
33.208618
 30
0.0
 40
3.0
100
AcDbArc
 50
269.999997
 51
360.0
  0
LINE
  5
127
330
1F
100
AcDbEntity
  8
0
 62
     7
370
    35
100
AcDbLine
 10
482.370972
 20
33.208618
 30
0.0
 11
482.370972
 21
37.208618
 31
0.0
  0
ARC
  5
128
330
1F
100
AcDbEntity
  8
0
 62
     7
370
    35
100
AcDbCircle
 10
479.370972
 20
37.208618
 30
0.0
 40
3.0
100
AcDbArc
 50
0.0
 51
90.000003
  0
LINE
  5
129
330
1F
100
AcDbEntity
  8
0
 62
     7
370
    35
100
AcDbLine
 10
479.370972
 20
40.208618
 30
0.0
 11
472.370972
 21
40.208618
 31
0.0
  0
LINE
  5
12A
330
1F
100
AcDbEntity
  8
0
 62
     7
370
    35
100
AcDbLine
 10
472.370972
 20
40.208618
 30
0.0
 11
472.370972
 21
45.151352
 31
0.0
  0
CIRCLE
  5
12B
330
1F
100
AcDbEntity
  8
0
 62
     7
370
    35
100
AcDbCircle
 10
467.370972
 20
35.208618
 30
0.0
 40
3.25
  0
LINE
  5
12C
330
1F
100
AcDbEntity
  8
0
 62
     7
370
    35
100
AcDbLine
 10
452.370972
 20
37.208618
 30
0.0
 11
452.370972
 21
33.208618
 31
0.0
  0
ARC
  5
12D
330
1F
100
AcDbEntity
  8
0
 62
     7
370
    35
100
AcDbCircle
 10
455.370972
 20
33.208618
 30
0.0
 40
3.0
100
AcDbArc
 50
180.000005
 51
269.999997
  0
LINE
  5
12E
330
1F
100
AcDbEntity
  8
0
 62
     7
370
    35
100
AcDbLine
 10
455.370972
 20
30.208618
 30
0.0
 11
462.370972
 21
30.208618
 31
0.0
  0
LINE
  5
12F
330
1F
100
AcDbEntity
  8
0
 62
     7
370
    35
100
AcDbLine
 10
462.370972
 20
30.208618
 30
0.0
 11
462.370972
 21
25.265882
 31
0.0
  0
LINE
  5
130
330
1F
100
AcDbEntity
  8
0
 62
     7
370
    35
100
AcDbLine
 10
462.370972
 20
45.151352
 30
0.0
 11
462.370972
 21
40.208618
 31
0.0
  0
LINE
  5
131
330
1F
100
AcDbEntity
  8
0
 62
     7
370
    35
100
AcDbLine
 10
462.370972
 20
40.208618
 30
0.0
 11
455.370972
 21
40.208618
 31
0.0
  0
ARC
  5
132
330
1F
100
AcDbEntity
  8
0
 62
     7
370
    35
100
AcDbCircle
 10
455.370972
 20
37.208618
 30
0.0
 40
3.0
100
AcDbArc
 50
90.000003
 51
180.000005
  0
LINE
  5
133
330
1F
100
AcDbEntity
  8
0
 62
     7
370
    35
100
AcDbLine
 10
462.370972
 20
45.151352
 30
0.0
 11
462.370972
 21
53.265884
 31
0.0
  0
LINE
  5
134
330
1F
100
AcDbEntity
  8
0
 62
     7
370
    35
100
AcDbLine
 10
472.370972
 20
53.265884
 30
0.0
 11
472.370972
 21
45.151352
 31
0.0
  0
LINE
  5
135
330
1F
100
AcDbEntity
  8
0
 62
     7
370
    35
100
AcDbLine
 10
472.370972
 20
53.265884
 30
0.0
 11
472.370972
 21
57.208618
 31
0.0
  0
ARC
  5
136
330
1F
100
AcDbEntity
  8
0
 62
     7
370
    35
100
AcDbCircle
 10
467.370972
 20
57.208618
 30
0.0
 40
5.0
100
AcDbArc
 50
0.0
 51
180.000005
  0
LINE
  5
137
330
1F
100
AcDbEntity
  8
0
 62
     7
370
    35
100
AcDbLine
 10
462.370972
 20
57.208618
 30
0.0
 11
462.370972
 21
53.265884
 31
0.0
  0
CIRCLE
  5
138
330
1F
100
AcDbEntity
  8
0
 62
     7
370
    35
100
AcDbCircle
 10
467.370972
 20
57.208618
 30
0.0
 40
2.0
  0
ARC
  5
139
330
1F
100
AcDbEntity
  8
0
 62
     7
370
    35
100
AcDbCircle
 10
576.295532
 20
12.761124
 30
0.0
 40
5.0
100
AcDbArc
 50
180.000005
 51
360.0
  0
LINE
  5
13A
330
1F
100
AcDbEntity
  8
0
 62
     7
370
    35
100
AcDbLine
 10
581.295532
 20
12.761124
 30
0.0
 11
581.295532
 21
16.703859
 31
0.0
  0
CIRCLE
  5
13B
330
1F
100
AcDbEntity
  8
0
 62
     7
370
    35
100
AcDbCircle
 10
576.295532
 20
12.761124
 30
0.0
 40
2.0
  0
LINE
  5
13C
330
1F
100
AcDbEntity
  8
0
 62
     7
370
    35
100
AcDbLine
 10
571.295532
 20
16.703859
 30
0.0
 11
571.295532
 21
12.761124
 31
0.0
  0
LINE
  5
13D
330
1F
100
AcDbEntity
  8
0
 62
     7
370
    35
100
AcDbLine
 10
571.295532
 20
16.703859
 30
0.0
 11
571.295532
 21
24.818388
 31
0.0
  0
LINE
  5
13E
330
1F
100
AcDbEntity
  8
0
 62
     7
370
    35
100
AcDbLine
 10
581.295532
 20
24.818388
 30
0.0
 11
581.295532
 21
16.703859
 31
0.0
  0
LINE
  5
13F
330
1F
100
AcDbEntity
  8
0
 62
     7
370
    35
100
AcDbLine
 10
581.295532
 20
24.818388
 30
0.0
 11
581.295532
 21
29.761124
 31
0.0
  0
LINE
  5
140
330
1F
100
AcDbEntity
  8
0
 62
     7
370
    35
100
AcDbLine
 10
581.295532
 20
29.761124
 30
0.0
 11
588.295532
 21
29.761124
 31
0.0
  0
ARC
  5
141
330
1F
100
AcDbEntity
  8
0
 62
     7
370
    35
100
AcDbCircle
 10
588.295532
 20
32.761124
 30
0.0
 40
3.0
100
AcDbArc
 50
269.999997
 51
360.0
  0
LINE
  5
142
330
1F
100
AcDbEntity
  8
0
 62
     7
370
    35
100
AcDbLine
 10
591.295532
 20
32.761124
 30
0.0
 11
591.295532
 21
36.761124
 31
0.0
  0
ARC
  5
143
330
1F
100
AcDbEntity
  8
0
 62
     7
370
    35
100
AcDbCircle
 10
588.295532
 20
36.761124
 30
0.0
 40
3.0
100
AcDbArc
 50
0.0
 51
90.000003
  0
LINE
  5
144
330
1F
100
AcDbEntity
  8
0
 62
     7
370
    35
100
AcDbLine
 10
588.295532
 20
39.761124
 30
0.0
 11
581.295532
 21
39.761124
 31
0.0
  0
LINE
  5
145
330
1F
100
AcDbEntity
  8
0
 62
     7
370
    35
100
AcDbLine
 10
581.295532
 20
39.761124
 30
0.0
 11
581.295532
 21
44.703857
 31
0.0
  0
CIRCLE
  5
146
330
1F
100
AcDbEntity
  8
0
 62
     7
370
    35
100
AcDbCircle
 10
576.295532
 20
34.761124
 30
0.0
 40
3.25
  0
LINE
  5
147
330
1F
100
AcDbEntity
  8
0
 62
     7
370
    35
100
AcDbLine
 10
561.295532
 20
36.761124
 30
0.0
 11
561.295532
 21
32.761124
 31
0.0
  0
ARC
  5
148
330
1F
100
AcDbEntity
  8
0
 62
     7
370
    35
100
AcDbCircle
 10
564.295532
 20
32.761124
 30
0.0
 40
3.0
100
AcDbArc
 50
180.000005
 51
269.999997
  0
LINE
  5
149
330
1F
100
AcDbEntity
  8
0
 62
     7
370
    35
100
AcDbLine
 10
564.295532
 20
29.761124
 30
0.0
 11
571.295532
 21
29.761124
 31
0.0
  0
LINE
  5
14A
330
1F
100
AcDbEntity
  8
0
 62
     7
370
    35
100
AcDbLine
 10
571.295532
 20
29.761124
 30
0.0
 11
571.295532
 21
24.818388
 31
0.0
  0
LINE
  5
14B
330
1F
100
AcDbEntity
  8
0
 62
     7
370
    35
100
AcDbLine
 10
571.295532
 20
44.703857
 30
0.0
 11
571.295532
 21
39.761124
 31
0.0
  0
LINE
  5
14C
330
1F
100
AcDbEntity
  8
0
 62
     7
370
    35
100
AcDbLine
 10
571.295532
 20
39.761124
 30
0.0
 11
564.295532
 21
39.761124
 31
0.0
  0
ARC
  5
14D
330
1F
100
AcDbEntity
  8
0
 62
     7
370
    35
100
AcDbCircle
 10
564.295532
 20
36.761124
 30
0.0
 40
3.0
100
AcDbArc
 50
90.000003
 51
180.000005
  0
LINE
  5
14E
330
1F
100
AcDbEntity
  8
0
 62
     7
370
    35
100
AcDbLine
 10
571.295532
 20
44.703857
 30
0.0
 11
571.295532
 21
52.81839
 31
0.0
  0
LINE
  5
14F
330
1F
100
AcDbEntity
  8
0
 62
     7
370
    35
100
AcDbLine
 10
581.295532
 20
52.81839
 30
0.0
 11
581.295532
 21
44.703857
 31
0.0
  0
LINE
  5
150
330
1F
100
AcDbEntity
  8
0
 62
     7
370
    35
100
AcDbLine
 10
581.295532
 20
52.81839
 30
0.0
 11
581.295532
 21
56.761124
 31
0.0
  0
ARC
  5
151
330
1F
100
AcDbEntity
  8
0
 62
     7
370
    35
100
AcDbCircle
 10
576.295532
 20
56.761124
 30
0.0
 40
5.0
100
AcDbArc
 50
0.0
 51
180.000005
  0
LINE
  5
152
330
1F
100
AcDbEntity
  8
0
 62
     7
370
    35
100
AcDbLine
 10
571.295532
 20
56.761124
 30
0.0
 11
571.295532
 21
52.81839
 31
0.0
  0
CIRCLE
  5
153
330
1F
100
AcDbEntity
  8
0
 62
     7
370
    35
100
AcDbCircle
 10
576.295532
 20
56.761124
 30
0.0
 40
2.0
  0
ARC
  5
154
330
1F
100
AcDbEntity
  8
0
 62
     7
370
    35
100
AcDbCircle
 10
540.053589
 20
13.208649
 30
0.0
 40
5.0
100
AcDbArc
 50
180.000005
 51
360.0
  0
LINE
  5
155
330
1F
100
AcDbEntity
  8
0
 62
     7
370
    35
100
AcDbLine
 10
545.053589
 20
13.208649
 30
0.0
 11
545.053589
 21
17.151384
 31
0.0
  0
CIRCLE
  5
156
330
1F
100
AcDbEntity
  8
0
 62
     7
370
    35
100
AcDbCircle
 10
540.053589
 20
13.208649
 30
0.0
 40
2.0
  0
LINE
  5
157
330
1F
100
AcDbEntity
  8
0
 62
     7
370
    35
100
AcDbLine
 10
535.053589
 20
17.151384
 30
0.0
 11
535.053589
 21
13.208649
 31
0.0
  0
LINE
  5
158
330
1F
100
AcDbEntity
  8
0
 62
     7
370
    35
100
AcDbLine
 10
535.053589
 20
17.151384
 30
0.0
 11
535.053589
 21
25.265913
 31
0.0
  0
LINE
  5
159
330
1F
100
AcDbEntity
  8
0
 62
     7
370
    35
100
AcDbLine
 10
545.053589
 20
25.265913
 30
0.0
 11
545.053589
 21
17.151384
 31
0.0
  0
LINE
  5
15A
330
1F
100
AcDbEntity
  8
0
 62
     7
370
    35
100
AcDbLine
 10
545.053589
 20
25.265913
 30
0.0
 11
545.053589
 21
30.208649
 31
0.0
  0
LINE
  5
15B
330
1F
100
AcDbEntity
  8
0
 62
     7
370
    35
100
AcDbLine
 10
545.053589
 20
30.208649
 30
0.0
 11
552.053589
 21
30.208649
 31
0.0
  0
ARC
  5
15C
330
1F
100
AcDbEntity
  8
0
 62
     7
370
    35
100
AcDbCircle
 10
552.053589
 20
33.208649
 30
0.0
 40
3.0
100
AcDbArc
 50
269.999997
 51
360.0
  0
LINE
  5
15D
330
1F
100
AcDbEntity
  8
0
 62
     7
370
    35
100
AcDbLine
 10
555.053589
 20
33.208649
 30
0.0
 11
555.053589
 21
37.208649
 31
0.0
  0
ARC
  5
15E
330
1F
100
AcDbEntity
  8
0
 62
     7
370
    35
100
AcDbCircle
 10
552.053589
 20
37.208649
 30
0.0
 40
3.0
100
AcDbArc
 50
0.0
 51
90.000003
  0
LINE
  5
15F
330
1F
100
AcDbEntity
  8
0
 62
     7
370
    35
100
AcDbLine
 10
552.053589
 20
40.208649
 30
0.0
 11
545.053589
 21
40.208649
 31
0.0
  0
LINE
  5
160
330
1F
100
AcDbEntity
  8
0
 62
     7
370
    35
100
AcDbLine
 10
545.053589
 20
40.208649
 30
0.0
 11
545.053589
 21
45.151382
 31
0.0
  0
CIRCLE
  5
161
330
1F
100
AcDbEntity
  8
0
 62
     7
370
    35
100
AcDbCircle
 10
540.053589
 20
35.208649
 30
0.0
 40
3.25
  0
LINE
  5
162
330
1F
100
AcDbEntity
  8
0
 62
     7
370
    35
100
AcDbLine
 10
525.053589
 20
37.208649
 30
0.0
 11
525.053589
 21
33.208649
 31
0.0
  0
ARC
  5
163
330
1F
100
AcDbEntity
  8
0
 62
     7
370
    35
100
AcDbCircle
 10
528.053589
 20
33.208649
 30
0.0
 40
3.0
100
AcDbArc
 50
180.000005
 51
269.999997
  0
LINE
  5
164
330
1F
100
AcDbEntity
  8
0
 62
     7
370
    35
100
AcDbLine
 10
528.053589
 20
30.208649
 30
0.0
 11
535.053589
 21
30.208649
 31
0.0
  0
LINE
  5
165
330
1F
100
AcDbEntity
  8
0
 62
     7
370
    35
100
AcDbLine
 10
535.053589
 20
30.208649
 30
0.0
 11
535.053589
 21
25.265913
 31
0.0
  0
LINE
  5
166
330
1F
100
AcDbEntity
  8
0
 62
     7
370
    35
100
AcDbLine
 10
535.053589
 20
45.151382
 30
0.0
 11
535.053589
 21
40.208649
 31
0.0
  0
LINE
  5
167
330
1F
100
AcDbEntity
  8
0
 62
     7
370
    35
100
AcDbLine
 10
535.053589
 20
40.208649
 30
0.0
 11
528.053589
 21
40.208649
 31
0.0
  0
ARC
  5
168
330
1F
100
AcDbEntity
  8
0
 62
     7
370
    35
100
AcDbCircle
 10
528.053589
 20
37.208649
 30
0.0
 40
3.0
100
AcDbArc
 50
90.000003
 51
180.000005
  0
LINE
  5
169
330
1F
100
AcDbEntity
  8
0
 62
     7
370
    35
100
AcDbLine
 10
535.053589
 20
45.151382
 30
0.0
 11
535.053589
 21
53.265915
 31
0.0
  0
LINE
  5
16A
330
1F
100
AcDbEntity
  8
0
 62
     7
370
    35
100
AcDbLine
 10
545.053589
 20
53.265915
 30
0.0
 11
545.053589
 21
45.151382
 31
0.0
  0
LINE
  5
16B
330
1F
100
AcDbEntity
  8
0
 62
     7
370
    35
100
AcDbLine
 10
545.053589
 20
53.265915
 30
0.0
 11
545.053589
 21
57.208649
 31
0.0
  0
ARC
  5
16C
330
1F
100
AcDbEntity
  8
0
 62
     7
370
    35
100
AcDbCircle
 10
540.053589
 20
57.208649
 30
0.0
 40
5.0
100
AcDbArc
 50
0.0
 51
180.000005
  0
LINE
  5
16D
330
1F
100
AcDbEntity
  8
0
 62
     7
370
    35
100
AcDbLine
 10
535.053589
 20
57.208649
 30
0.0
 11
535.053589
 21
53.265915
 31
0.0
  0
CIRCLE
  5
16E
330
1F
100
AcDbEntity
  8
0
 62
     7
370
    35
100
AcDbCircle
 10
540.053589
 20
57.208649
 30
0.0
 40
2.0
  0
ARC
  5
16F
330
1F
100
AcDbEntity
  8
0
 62
     7
370
    35
100
AcDbCircle
 10
503.650085
 20
12.798309
 30
0.0
 40
5.0
100
AcDbArc
 50
180.000005
 51
360.0
  0
LINE
  5
170
330
1F
100
AcDbEntity
  8
0
 62
     7
370
    35
100
AcDbLine
 10
508.650085
 20
12.798309
 30
0.0
 11
508.650085
 21
16.741045
 31
0.0
  0
CIRCLE
  5
171
330
1F
100
AcDbEntity
  8
0
 62
     7
370
    35
100
AcDbCircle
 10
503.650085
 20
12.798309
 30
0.0
 40
2.0
  0
LINE
  5
172
330
1F
100
AcDbEntity
  8
0
 62
     7
370
    35
100
AcDbLine
 10
498.650085
 20
16.741045
 30
0.0
 11
498.650085
 21
12.798309
 31
0.0
  0
LINE
  5
173
330
1F
100
AcDbEntity
  8
0
 62
     7
370
    35
100
AcDbLine
 10
498.650085
 20
16.741045
 30
0.0
 11
498.650085
 21
24.855574
 31
0.0
  0
LINE
  5
174
330
1F
100
AcDbEntity
  8
0
 62
     7
370
    35
100
AcDbLine
 10
508.650085
 20
24.855574
 30
0.0
 11
508.650085
 21
16.741045
 31
0.0
  0
LINE
  5
175
330
1F
100
AcDbEntity
  8
0
 62
     7
370
    35
100
AcDbLine
 10
508.650085
 20
24.855574
 30
0.0
 11
508.650085
 21
29.798309
 31
0.0
  0
LINE
  5
176
330
1F
100
AcDbEntity
  8
0
 62
     7
370
    35
100
AcDbLine
 10
508.650085
 20
29.798309
 30
0.0
 11
515.650085
 21
29.798309
 31
0.0
  0
ARC
  5
177
330
1F
100
AcDbEntity
  8
0
 62
     7
370
    35
100
AcDbCircle
 10
515.650085
 20
32.798309
 30
0.0
 40
3.0
100
AcDbArc
 50
269.999997
 51
360.0
  0
LINE
  5
178
330
1F
100
AcDbEntity
  8
0
 62
     7
370
    35
100
AcDbLine
 10
518.650085
 20
32.798309
 30
0.0
 11
518.650085
 21
36.798309
 31
0.0
  0
ARC
  5
179
330
1F
100
AcDbEntity
  8
0
 62
     7
370
    35
100
AcDbCircle
 10
515.650085
 20
36.798309
 30
0.0
 40
3.0
100
AcDbArc
 50
0.0
 51
90.000003
  0
LINE
  5
17A
330
1F
100
AcDbEntity
  8
0
 62
     7
370
    35
100
AcDbLine
 10
515.650085
 20
39.798309
 30
0.0
 11
508.650085
 21
39.798309
 31
0.0
  0
LINE
  5
17B
330
1F
100
AcDbEntity
  8
0
 62
     7
370
    35
100
AcDbLine
 10
508.650085
 20
39.798309
 30
0.0
 11
508.650085
 21
44.741043
 31
0.0
  0
CIRCLE
  5
17C
330
1F
100
AcDbEntity
  8
0
 62
     7
370
    35
100
AcDbCircle
 10
503.650085
 20
34.798309
 30
0.0
 40
3.25
  0
LINE
  5
17D
330
1F
100
AcDbEntity
  8
0
 62
     7
370
    35
100
AcDbLine
 10
488.650085
 20
36.798309
 30
0.0
 11
488.650085
 21
32.798309
 31
0.0
  0
ARC
  5
17E
330
1F
100
AcDbEntity
  8
0
 62
     7
370
    35
100
AcDbCircle
 10
491.650085
 20
32.798309
 30
0.0
 40
3.0
100
AcDbArc
 50
180.000005
 51
269.999997
  0
LINE
  5
17F
330
1F
100
AcDbEntity
  8
0
 62
     7
370
    35
100
AcDbLine
 10
491.650085
 20
29.798309
 30
0.0
 11
498.650085
 21
29.798309
 31
0.0
  0
LINE
  5
180
330
1F
100
AcDbEntity
  8
0
 62
     7
370
    35
100
AcDbLine
 10
498.650085
 20
29.798309
 30
0.0
 11
498.650085
 21
24.855574
 31
0.0
  0
LINE
  5
181
330
1F
100
AcDbEntity
  8
0
 62
     7
370
    35
100
AcDbLine
 10
498.650085
 20
44.741043
 30
0.0
 11
498.650085
 21
39.798309
 31
0.0
  0
LINE
  5
182
330
1F
100
AcDbEntity
  8
0
 62
     7
370
    35
100
AcDbLine
 10
498.650085
 20
39.798309
 30
0.0
 11
491.650085
 21
39.798309
 31
0.0
  0
ARC
  5
183
330
1F
100
AcDbEntity
  8
0
 62
     7
370
    35
100
AcDbCircle
 10
491.650085
 20
36.798309
 30
0.0
 40
3.0
100
AcDbArc
 50
90.000003
 51
180.000005
  0
LINE
  5
184
330
1F
100
AcDbEntity
  8
0
 62
     7
370
    35
100
AcDbLine
 10
498.650085
 20
44.741043
 30
0.0
 11
498.650085
 21
52.855576
 31
0.0
  0
LINE
  5
185
330
1F
100
AcDbEntity
  8
0
 62
     7
370
    35
100
AcDbLine
 10
508.650085
 20
52.855576
 30
0.0
 11
508.650085
 21
44.741043
 31
0.0
  0
LINE
  5
186
330
1F
100
AcDbEntity
  8
0
 62
     7
370
    35
100
AcDbLine
 10
508.650085
 20
52.855576
 30
0.0
 11
508.650085
 21
56.798309
 31
0.0
  0
ARC
  5
187
330
1F
100
AcDbEntity
  8
0
 62
     7
370
    35
100
AcDbCircle
 10
503.650085
 20
56.798309
 30
0.0
 40
5.0
100
AcDbArc
 50
0.0
 51
180.000005
  0
LINE
  5
188
330
1F
100
AcDbEntity
  8
0
 62
     7
370
    35
100
AcDbLine
 10
498.650085
 20
56.798309
 30
0.0
 11
498.650085
 21
52.855576
 31
0.0
  0
CIRCLE
  5
189
330
1F
100
AcDbEntity
  8
0
 62
     7
370
    35
100
AcDbCircle
 10
503.650085
 20
56.798309
 30
0.0
 40
2.0
  0
LINE
  5
18A
330
1F
100
AcDbEntity
  8
0
 62
     7
370
    35
100
AcDbLine
 10
102.125549
 20
95.650482
 30
0.0
 11
141.557877
 21
94.07402
 31
0.0
  0
ARC
  5
18B
330
1F
100
AcDbEntity
  8
0
 62
     7
370
    35
100
AcDbCircle
 10
101.925812
 20
90.654472
 30
0.0
 40
5.000000000000002
100
AcDbArc
 50
87.710591
 51
120.000003
  0
LINE
  5
18C
330
1F
100
AcDbEntity
  8
0
 62
     7
370
    35
100
AcDbLine
 10
85.15239
 20
86.743835
 30
0.0
 11
99.425812
 21
94.984604
 31
0.0
  0
ARC
  5
18D
330
1F
100
AcDbEntity
  8
0
 62
     7
370
    35
100
AcDbCircle
 10
82.65239
 20
91.073959
 30
0.0
 40
5.0
100
AcDbArc
 50
255.0
 51
299.999998
  0
LINE
  5
18E
330
1F
100
AcDbEntity
  8
0
 62
     7
370
    35
100
AcDbLine
 10
71.699036
 20
88.832527
 30
0.0
 11
81.358292
 21
86.244331
 31
0.0
  0
ARC
  5
18F
330
1F
100
AcDbEntity
  8
0
 62
     7
370
    35
100
AcDbCircle
 10
70.404938
 20
84.002899
 30
0.0
 40
5.0
100
AcDbArc
 50
74.999999
 51
120.000003
  0
LINE
  5
190
330
1F
100
AcDbEntity
  8
0
 62
     7
370
    35
100
AcDbLine
 10
30.727394
 20
66.868553
 30
0.0
 11
67.904938
 21
88.333023
 31
0.0
  0
LINE
  5
191
330
1F
100
AcDbEntity
  8
0
 62
     7
370
    35
100
AcDbLine
 10
30.727394
 20
66.868553
 30
0.0
 11
26.629318
 21
67.966629
 31
0.0
  0
LINE
  5
192
330
1F
100
AcDbEntity
  8
0
 62
     7
370
    35
100
AcDbLine
 10
26.629318
 20
67.966629
 30
0.0
 11
21.379316
 21
77.059898
 31
0.0
  0
LINE
  5
193
330
1F
100
AcDbEntity
  8
0
 62
     7
370
    35
100
AcDbLine
 10
22.111366
 20
79.791946
 30
0.0
 11
21.379316
 21
77.059898
 31
0.0
  0
LINE
  5
194
330
1F
100
AcDbEntity
  8
0
 62
     7
370
    35
100
AcDbLine
 10
22.111366
 20
79.791946
 30
0.0
 11
27.30752
 21
82.791946
 31
0.0
  0
ARC
  5
195
330
1F
100
AcDbEntity
  8
0
 62
     7
370
    35
100
AcDbCircle
 10
25.80752
 20
85.39003
 30
0.0
 40
3.0
100
AcDbArc
 50
299.999998
 51
30.000001
  0
LINE
  5
196
330
1F
100
AcDbEntity
  8
0
 62
     7
370
    35
100
AcDbLine
 10
21.905596
 20
98.148354
 30
0.0
 11
28.405598
 21
86.89003
 31
0.0
  0
ARC
  5
197
330
1F
100
AcDbEntity
  8
0
 62
     7
370
    35
100
AcDbCircle
 10
19.30752
 20
96.648354
 30
0.0
 40
3.0
100
AcDbArc
 50
30.000001
 51
120.000003
  0
LINE
  5
198
330
1F
100
AcDbEntity
  8
0
 62
     7
370
    35
100
AcDbLine
 10
17.80752
 20
99.246429
 30
0.0
 11
12.611368
 21
96.246429
 31
0.0
  0
LINE
  5
199
330
1F
100
AcDbEntity
  8
0
 62
     7
370
    35
100
AcDbLine
 10
9.879316
 20
96.978485
 30
0.0
 11
12.611368
 21
96.246429
 31
0.0
  0
LINE
  5
19A
330
1F
100
AcDbEntity
  8
0
 62
     7
370
    35
100
AcDbLine
 10
9.879316
 20
96.978485
 30
0.0
 11
4.629318
 21
106.071747
 31
0.0
  0
LINE
  5
19B
330
1F
100
AcDbEntity
  8
0
 62
     7
370
    35
100
AcDbLine
 10
4.629318
 20
106.071747
 30
0.0
 11
5.727394
 21
110.16983
 31
0.0
  0
LINE
  5
19C
330
1F
100
AcDbEntity
  8
0
 62
     7
370
    35
100
AcDbLine
 10
47.176003
 20
134.100189
 30
0.0
 11
5.727394
 21
110.16983
 31
0.0
  0
ARC
  5
19D
330
1F
100
AcDbEntity
  8
0
 62
     7
370
    35
100
AcDbCircle
 10
57.176003
 20
116.779686
 30
0.0
 40
20.0
100
AcDbArc
 50
80.710597
 51
120.000003
  0
CIRCLE
  5
19E
330
1F
100
AcDbEntity
  8
0
 62
     7
370
    35
100
AcDbCircle
 10
39.724823
 20
85.284546
 30
0.0
 40
2.5
  0
LINE
  5
19F
330
1F
100
AcDbEntity
  8
0
 62
     7
370
    35
100
AcDbLine
 10
122.960693
 20
126.285294
 30
0.0
 11
60.40443
 21
136.517395
 31
0.0
  0
LINE
  5
1A0
330
1F
100
AcDbEntity
  8
0
 62
     7
370
    35
100
AcDbLine
 10
88.951553
 20
105.122063
 30
0.0
 11
72.448242
 21
118.108231
 31
0.0
  0
ARC
  5
1A1
330
1F
100
AcDbEntity
  8
0
 62
     7
370
    35
100
AcDbCircle
 10
74.921799
 20
121.251717
 30
0.0
 40
4.0
100
AcDbArc
 50
51.801408
 51
231.801406
  0
LINE
  5
1A2
330
1F
100
AcDbEntity
  8
0
 62
     7
370
    35
100
AcDbLine
 10
77.395355
 20
124.395203
 30
0.0
 11
93.898666
 21
111.409035
 31
0.0
  0
ARC
  5
1A3
330
1F
100
AcDbEntity
  8
0
 62
     7
370
    35
100
AcDbCircle
 10
91.42511
 20
108.265549
 30
0.0
 40
4.0
100
AcDbArc
 50
231.801406
 51
51.801408
  0
LINE
  5
1A4
330
1F
100
AcDbEntity
  8
0
 62
     7
370
    35
100
AcDbLine
 10
54.007442
 20
122.439194
 30
0.0
 11
70.935646
 21
109.11869
 31
0.0
  0
ARC
  5
1A5
330
1F
100
AcDbEntity
  8
0
 62
     7
370
    35
100
AcDbCircle
 10
68.46209
 20
105.975204
 30
0.0
 40
4.0
100
AcDbArc
 50
231.801406
 51
51.801408
  0
LINE
  5
1A6
330
1F
100
AcDbEntity
  8
0
 62
     7
370
    35
100
AcDbLine
 10
65.988533
 20
102.831711
 30
0.0
 11
49.060329
 21
116.152222
 31
0.0
  0
ARC
  5
1A7
330
1F
100
AcDbEntity
  8
0
 62
     7
370
    35
100
AcDbCircle
 10
51.533886
 20
119.295708
 30
0.0
 40
4.0
100
AcDbArc
 50
51.801408
 51
231.801406
  0
LINE
  5
1A8
330
1F
100
AcDbEntity
  8
0
 62
     7
370
    35
100
AcDbLine
 10
39.083633
 20
113.822937
 30
0.0
 11
56.011841
 21
100.502426
 31
0.0
  0
ARC
  5
1A9
330
1F
100
AcDbEntity
  8
0
 62
     7
370
    35
100
AcDbCircle
 10
53.538284
 20
97.35894
 30
0.0
 40
3.999999999999999
100
AcDbArc
 50
231.801406
 51
51.801408
  0
LINE
  5
1AA
330
1F
100
AcDbEntity
  8
0
 62
     7
370
    35
100
AcDbLine
 10
51.064728
 20
94.215446
 30
0.0
 11
34.136524
 21
107.535957
 31
0.0
  0
ARC
  5
1AB
330
1F
100
AcDbEntity
  8
0
 62
     7
370
    35
100
AcDbCircle
 10
36.610081
 20
110.679443
 30
0.0
 40
4.0
100
AcDbArc
 50
51.801408
 51
231.801406
  0
CIRCLE
  5
1AC
330
1F
100
AcDbEntity
  8
0
 62
     7
370
    35
100
AcDbCircle
 10
17.51457
 20
103.753838
 30
0.0
 40
2.5
  0
LINE
  5
1AD
330
1F
100
AcDbEntity
  8
0
 62
     7
370
    35
100
AcDbLine
 10
141.557877
 20
94.07402
 30
0.0
 11
166.179169
 21
93.089684
 31
0.0
  0
LINE
  5
1AE
330
1F
100
AcDbEntity
  8
0
 62
     7
370
    35
100
AcDbLine
 10
203.123611
 20
91.612686
 30
0.0
 11
263.601013
 21
80.263863
 31
0.0
  0
LINE
  5
1AF
330
1F
100
AcDbEntity
  8
0
 62
     7
370
    35
100
AcDbLine
 10
166.179169
 20
93.089684
 30
0.0
 11
203.123611
 21
91.612686
 31
0.0
  0
LINE
  5
1B0
330
1F
100
AcDbEntity
  8
0
 62
     7
370
    35
100
AcDbLine
 10
149.522003
 20
121.94075
 30
0.0
 11
122.960693
 21
126.285294
 31
0.0
  0
LINE
  5
1B1
330
1F
100
AcDbEntity
  8
0
 62
     7
370
    35
100
AcDbLine
 10
280.767273
 20
77.042542
 30
0.0
 11
263.601013
 21
80.263863
 31
0.0
  0
LINE
  5
1B2
330
1F
100
AcDbEntity
  8
0
 62
     7
370
    35
100
AcDbLine
 10
248.926071
 20
105.68158
 30
0.0
 11
149.522003
 21
121.94075
 31
0.0
  0
LINE
  5
1B3
330
1F
100
AcDbEntity
  8
0
 62
     7
370
    35
100
AcDbLine
 10
377.185669
 20
96.785255
 30
0.0
 11
359.865143
 21
106.785255
 31
0.0
  0
LINE
  5
1B4
330
1F
100
AcDbEntity
  8
0
 62
     7
370
    35
100
AcDbLine
 10
383.525421
 20
85.804489
 30
0.0
 11
377.185669
 21
96.785255
 31
0.0
  0
LINE
  5
1B5
330
1F
100
AcDbEntity
  8
0
 62
     7
370
    35
100
AcDbLine
 10
379.865143
 20
72.144241
 30
0.0
 11
383.525421
 21
85.804489
 31
0.0
  0
LINE
  5
1B6
330
1F
100
AcDbEntity
  8
0
 62
     7
370
    35
100
AcDbLine
 10
358.214508
 20
59.644238
 30
0.0
 11
379.865143
 21
72.144241
 31
0.0
  0
LINE
  5
1B7
330
1F
100
AcDbEntity
  8
0
 62
     7
370
    35
100
AcDbLine
 10
351.277649
 20
61.404911
 30
0.0
 11
358.214508
 21
59.644238
 31
0.0
  0
ARC
  5
1B8
330
1F
100
AcDbEntity
  8
0
 62
     7
370
    35
100
AcDbCircle
 10
343.5224
 20
55.091747
 30
0.0
 40
10.0
100
AcDbArc
 50
39.147315
 51
79.371818
  0
LINE
  5
1B9
330
1F
100
AcDbEntity
  8
0
 62
     7
370
    35
100
AcDbLine
 10
280.767273
 20
77.042542
 30
0.0
 11
345.36673
 21
64.920197
 31
0.0
  0
CIRCLE
  5
1BA
330
1F
100
AcDbEntity
  8
0
 62
     7
370
    35
100
AcDbCircle
 10
361.204895
 20
84.464745
 30
0.0
 40
5.049999999999992
  0
LINE
  5
1BB
330
1F
100
AcDbEntity
  8
0
 62
     7
370
    35
100
AcDbLine
 10
248.926071
 20
105.68158
 30
0.0
 11
265.828735
 21
102.91687
 31
0.0
  0
LINE
  5
1BC
330
1F
100
AcDbEntity
  8
0
 62
     7
370
    35
100
AcDbLine
 10
359.865143
 20
106.785255
 30
0.0
 11
334.811798
 21
92.320702
 31
0.0
  0
ARC
  5
1BD
330
1F
100
AcDbEntity
  8
0
 62
     7
370
    35
100
AcDbCircle
 10
333.311798
 20
94.918777
 30
0.0
 40
2.999999999999994
100
AcDbArc
 50
260.710592
 51
299.999998
  0
LINE
  5
1BE
330
1F
100
AcDbEntity
  8
0
 62
     7
370
    35
100
AcDbLine
 10
332.827545
 20
91.958115
 30
0.0
 11
265.828735
 21
102.91687
 31
0.0
  0
LINE
  5
1BF
330
1F
100
AcDbEntity
  8
0
 62
     7
370
    35
100
AcDbLine
 10
161.829346
 20
44.643658
 30
0.0
 11
201.261688
 21
43.067196
 31
0.0
  0
ARC
  5
1C0
330
1F
100
AcDbEntity
  8
0
 62
     7
370
    35
100
AcDbCircle
 10
161.629608
 20
39.647648
 30
0.0
 40
5.000000000000002
100
AcDbArc
 50
87.710591
 51
120.000003
  0
LINE
  5
1C1
330
1F
100
AcDbEntity
  8
0
 62
     7
370
    35
100
AcDbLine
 10
144.856186
 20
35.737011
 30
0.0
 11
159.129608
 21
43.977776
 31
0.0
  0
ARC
  5
1C2
330
1F
100
AcDbEntity
  8
0
 62
     7
370
    35
100
AcDbCircle
 10
142.356186
 20
40.067139
 30
0.0
 40
5.0
100
AcDbArc
 50
255.0
 51
299.999998
  0
LINE
  5
1C3
330
1F
100
AcDbEntity
  8
0
 62
     7
370
    35
100
AcDbLine
 10
131.402832
 20
37.825699
 30
0.0
 11
141.062088
 21
35.237511
 31
0.0
  0
ARC
  5
1C4
330
1F
100
AcDbEntity
  8
0
 62
     7
370
    35
100
AcDbCircle
 10
130.108734
 20
32.996071
 30
0.0
 40
5.0
100
AcDbArc
 50
74.999999
 51
120.000003
  0
LINE
  5
1C5
330
1F
100
AcDbEntity
  8
0
 62
     7
370
    35
100
AcDbLine
 10
90.43119
 20
15.861731
 30
0.0
 11
127.608742
 21
37.326199
 31
0.0
  0
LINE
  5
1C6
330
1F
100
AcDbEntity
  8
0
 62
     7
370
    35
100
AcDbLine
 10
90.43119
 20
15.861731
 30
0.0
 11
86.333115
 21
16.959808
 31
0.0
  0
LINE
  5
1C7
330
1F
100
AcDbEntity
  8
0
 62
     7
370
    35
100
AcDbLine
 10
86.333115
 20
16.959808
 30
0.0
 11
81.083115
 21
26.053074
 31
0.0
  0
LINE
  5
1C8
330
1F
100
AcDbEntity
  8
0
 62
     7
370
    35
100
AcDbLine
 10
81.81517
 20
28.785126
 30
0.0
 11
81.083115
 21
26.053074
 31
0.0
  0
LINE
  5
1C9
330
1F
100
AcDbEntity
  8
0
 62
     7
370
    35
100
AcDbLine
 10
81.81517
 20
28.785126
 30
0.0
 11
87.011322
 21
31.785126
 31
0.0
  0
ARC
  5
1CA
330
1F
100
AcDbEntity
  8
0
 62
     7
370
    35
100
AcDbCircle
 10
85.511322
 20
34.383202
 30
0.0
 40
3.0
100
AcDbArc
 50
299.999998
 51
30.000001
  0
LINE
  5
1CB
330
1F
100
AcDbEntity
  8
0
 62
     7
370
    35
100
AcDbLine
 10
81.609398
 20
47.141533
 30
0.0
 11
88.109398
 21
35.883202
 31
0.0
  0
ARC
  5
1CC
330
1F
100
AcDbEntity
  8
0
 62
     7
370
    35
100
AcDbCircle
 10
79.011322
 20
45.641533
 30
0.0
 40
3.0
100
AcDbArc
 50
30.000001
 51
120.000003
  0
LINE
  5
1CD
330
1F
100
AcDbEntity
  8
0
 62
     7
370
    35
100
AcDbLine
 10
77.511322
 20
48.239609
 30
0.0
 11
72.31517
 21
45.239609
 31
0.0
  0
LINE
  5
1CE
330
1F
100
AcDbEntity
  8
0
 62
     7
370
    35
100
AcDbLine
 10
69.583115
 20
45.971657
 30
0.0
 11
72.31517
 21
45.239609
 31
0.0
  0
LINE
  5
1CF
330
1F
100
AcDbEntity
  8
0
 62
     7
370
    35
100
AcDbLine
 10
69.583115
 20
45.971657
 30
0.0
 11
64.333115
 21
55.064926
 31
0.0
  0
LINE
  5
1D0
330
1F
100
AcDbEntity
  8
0
 62
     7
370
    35
100
AcDbLine
 10
64.333115
 20
55.064926
 30
0.0
 11
65.431198
 21
59.163002
 31
0.0
  0
LINE
  5
1D1
330
1F
100
AcDbEntity
  8
0
 62
     7
370
    35
100
AcDbLine
 10
106.879807
 20
83.093369
 30
0.0
 11
65.431198
 21
59.163002
 31
0.0
  0
ARC
  5
1D2
330
1F
100
AcDbEntity
  8
0
 62
     7
370
    35
100
AcDbCircle
 10
116.879807
 20
65.772858
 30
0.0
 40
20.0
100
AcDbArc
 50
80.710597
 51
120.000003
  0
CIRCLE
  5
1D3
330
1F
100
AcDbEntity
  8
0
 62
     7
370
    35
100
AcDbCircle
 10
99.428627
 20
34.277721
 30
0.0
 40
2.5
  0
LINE
  5
1D4
330
1F
100
AcDbEntity
  8
0
 62
     7
370
    35
100
AcDbLine
 10
182.66449
 20
75.278465
 30
0.0
 11
120.108231
 21
85.510574
 31
0.0
  0
LINE
  5
1D5
330
1F
100
AcDbEntity
  8
0
 62
     7
370
    35
100
AcDbLine
 10
148.65535
 20
54.115234
 30
0.0
 11
132.152039
 21
67.10141
 31
0.0
  0
ARC
  5
1D6
330
1F
100
AcDbEntity
  8
0
 62
     7
370
    35
100
AcDbCircle
 10
134.625595
 20
70.244896
 30
0.0
 40
4.0
100
AcDbArc
 50
51.801408
 51
231.801406
  0
LINE
  5
1D7
330
1F
100
AcDbEntity
  8
0
 62
     7
370
    35
100
AcDbLine
 10
137.099152
 20
73.388382
 30
0.0
 11
153.602463
 21
60.402214
 31
0.0
  0
ARC
  5
1D8
330
1F
100
AcDbEntity
  8
0
 62
     7
370
    35
100
AcDbCircle
 10
151.128906
 20
57.258724
 30
0.0
 40
4.0
100
AcDbArc
 50
231.801406
 51
51.801408
  0
LINE
  5
1D9
330
1F
100
AcDbEntity
  8
0
 62
     7
370
    35
100
AcDbLine
 10
113.711243
 20
71.432373
 30
0.0
 11
130.63945
 21
58.111866
 31
0.0
  0
ARC
  5
1DA
330
1F
100
AcDbEntity
  8
0
 62
     7
370
    35
100
AcDbCircle
 10
128.165894
 20
54.968376
 30
0.0
 40
4.0
100
AcDbArc
 50
231.801406
 51
51.801408
  0
LINE
  5
1DB
330
1F
100
AcDbEntity
  8
0
 62
     7
370
    35
100
AcDbLine
 10
125.692337
 20
51.82489
 30
0.0
 11
108.76413
 21
65.145393
 31
0.0
  0
ARC
  5
1DC
330
1F
100
AcDbEntity
  8
0
 62
     7
370
    35
100
AcDbCircle
 10
111.237686
 20
68.288887
 30
0.0
 40
4.0
100
AcDbArc
 50
51.801408
 51
231.801406
  0
LINE
  5
1DD
330
1F
100
AcDbEntity
  8
0
 62
     7
370
    35
100
AcDbLine
 10
98.787437
 20
62.816109
 30
0.0
 11
115.715637
 21
49.495602
 31
0.0
  0
ARC
  5
1DE
330
1F
100
AcDbEntity
  8
0
 62
     7
370
    35
100
AcDbCircle
 10
113.242081
 20
46.352112
 30
0.0
 40
3.999999999999999
100
AcDbArc
 50
231.801406
 51
51.801408
  0
LINE
  5
1DF
330
1F
100
AcDbEntity
  8
0
 62
     7
370
    35
100
AcDbLine
 10
110.768524
 20
43.208626
 30
0.0
 11
93.840324
 21
56.529133
 31
0.0
  0
ARC
  5
1E0
330
1F
100
AcDbEntity
  8
0
 62
     7
370
    35
100
AcDbCircle
 10
96.313881
 20
59.672623
 30
0.0
 40
4.0
100
AcDbArc
 50
51.801408
 51
231.801406
  0
CIRCLE
  5
1E1
330
1F
100
AcDbEntity
  8
0
 62
     7
370
    35
100
AcDbCircle
 10
77.218369
 20
52.747009
 30
0.0
 40
2.5
  0
LINE
  5
1E2
330
1F
100
AcDbEntity
  8
0
 62
     7
370
    35
100
AcDbLine
 10
201.261688
 20
43.067196
 30
0.0
 11
225.882965
 21
42.082859
 31
0.0
  0
LINE
  5
1E3
330
1F
100
AcDbEntity
  8
0
 62
     7
370
    35
100
AcDbLine
 10
262.827423
 20
40.605858
 30
0.0
 11
323.30481
 21
29.257036
 31
0.0
  0
LINE
  5
1E4
330
1F
100
AcDbEntity
  8
0
 62
     7
370
    35
100
AcDbLine
 10
225.882965
 20
42.082859
 30
0.0
 11
262.827423
 21
40.605858
 31
0.0
  0
LINE
  5
1E5
330
1F
100
AcDbEntity
  8
0
 62
     7
370
    35
100
AcDbLine
 10
209.2258
 20
70.933929
 30
0.0
 11
182.66449
 21
75.278465
 31
0.0
  0
LINE
  5
1E6
330
1F
100
AcDbEntity
  8
0
 62
     7
370
    35
100
AcDbLine
 10
340.471069
 20
26.035715
 30
0.0
 11
323.30481
 21
29.257036
 31
0.0
  0
LINE
  5
1E7
330
1F
100
AcDbEntity
  8
0
 62
     7
370
    35
100
AcDbLine
 10
308.629883
 20
54.674759
 30
0.0
 11
209.2258
 21
70.933929
 31
0.0
  0
LINE
  5
1E8
330
1F
100
AcDbEntity
  8
0
 62
     7
370
    35
100
AcDbLine
 10
436.889465
 20
45.778427
 30
0.0
 11
419.568939
 21
55.778427
 31
0.0
  0
LINE
  5
1E9
330
1F
100
AcDbEntity
  8
0
 62
     7
370
    35
100
AcDbLine
 10
443.229218
 20
34.797668
 30
0.0
 11
436.889465
 21
45.778427
 31
0.0
  0
LINE
  5
1EA
330
1F
100
AcDbEntity
  8
0
 62
     7
370
    35
100
AcDbLine
 10
439.568939
 20
21.137413
 30
0.0
 11
443.229218
 21
34.797668
 31
0.0
  0
LINE
  5
1EB
330
1F
100
AcDbEntity
  8
0
 62
     7
370
    35
100
AcDbLine
 10
417.918304
 20
8.637413
 30
0.0
 11
439.568939
 21
21.137413
 31
0.0
  0
LINE
  5
1EC
330
1F
100
AcDbEntity
  8
0
 62
     7
370
    35
100
AcDbLine
 10
410.981445
 20
10.398087
 30
0.0
 11
417.918304
 21
8.637413
 31
0.0
  0
ARC
  5
1ED
330
1F
100
AcDbEntity
  8
0
 62
     7
370
    35
100
AcDbCircle
 10
403.226196
 20
4.084923
 30
0.0
 40
10.0
100
AcDbArc
 50
39.147315
 51
79.371818
  0
LINE
  5
1EE
330
1F
100
AcDbEntity
  8
0
 62
     7
370
    35
100
AcDbLine
 10
340.471069
 20
26.035715
 30
0.0
 11
405.070526
 21
13.913372
 31
0.0
  0
CIRCLE
  5
1EF
330
1F
100
AcDbEntity
  8
0
 62
     7
370
    35
100
AcDbCircle
 10
420.908691
 20
33.45792
 30
0.0
 40
5.049999999999992
  0
LINE
  5
1F0
330
1F
100
AcDbEntity
  8
0
 62
     7
370
    35
100
AcDbLine
 10
308.629883
 20
54.674759
 30
0.0
 11
325.532532
 21
51.910049
 31
0.0
  0
LINE
  5
1F1
330
1F
100
AcDbEntity
  8
0
 62
     7
370
    35
100
AcDbLine
 10
419.568939
 20
55.778427
 30
0.0
 11
394.515594
 21
41.313873
 31
0.0
  0
ARC
  5
1F2
330
1F
100
AcDbEntity
  8
0
 62
     7
370
    35
100
AcDbCircle
 10
393.015594
 20
43.911949
 30
0.0
 40
2.999999999999994
100
AcDbArc
 50
260.710592
 51
299.999998
  0
LINE
  5
1F3
330
1F
100
AcDbEntity
  8
0
 62
     7
370
    35
100
AcDbLine
 10
392.531342
 20
40.951294
 30
0.0
 11
325.532532
 21
51.910049
 31
0.0
  0
LINE
  5
1F4
330
1F
100
AcDbEntity
  8
0
 62
     7
370
    35
100
AcDbLine
 10
580.382324
 20
334.661987
 30
0.0
 11
580.382324
 21
336.661987
 31
0.0
  0
LINE
  5
1F5
330
1F
100
AcDbEntity
  8
0
 62
     7
370
    35
100
AcDbLine
 10
575.382324
 20
331.775208
 30
0.0
 11
580.382324
 21
334.661987
 31
0.0
  0
LINE
  5
1F6
330
1F
100
AcDbEntity
  8
0
 62
     7
370
    35
100
AcDbLine
 10
575.382324
 20
295.048706
 30
0.0
 11
575.382324
 21
331.775208
 31
0.0
  0
LINE
  5
1F7
330
1F
100
AcDbEntity
  8
0
 62
     7
370
    35
100
AcDbLine
 10
580.382324
 20
292.161987
 30
0.0
 11
575.382324
 21
295.048706
 31
0.0
  0
LINE
  5
1F8
330
1F
100
AcDbEntity
  8
0
 62
     7
370
    35
100
AcDbLine
 10
580.382324
 20
290.161987
 30
0.0
 11
580.382324
 21
292.161987
 31
0.0
  0
LINE
  5
1F9
330
1F
100
AcDbEntity
  8
0
 62
     7
370
    35
100
AcDbLine
 10
580.382324
 20
290.161987
 30
0.0
 11
575.382324
 21
290.161987
 31
0.0
  0
LINE
  5
1FA
330
1F
100
AcDbEntity
  8
0
 62
     7
370
    35
100
AcDbLine
 10
575.382324
 20
279.230682
 30
0.0
 11
575.382324
 21
290.161987
 31
0.0
  0
LINE
  5
1FB
330
1F
100
AcDbEntity
  8
0
 62
     7
370
    35
100
AcDbLine
 10
580.382324
 20
336.661987
 30
0.0
 11
575.382324
 21
336.661987
 31
0.0
  0
LINE
  5
1FC
330
1F
100
AcDbEntity
  8
0
 62
     7
370
    35
100
AcDbLine
 10
575.382324
 20
336.661987
 30
0.0
 11
575.382324
 21
340.061951
 31
0.0
  0
LINE
  5
1FD
330
1F
100
AcDbEntity
  8
0
 62
     7
370
    35
100
AcDbLine
 10
580.382324
 20
340.061951
 30
0.0
 11
575.382324
 21
340.061951
 31
0.0
  0
LINE
  5
1FE
330
1F
100
AcDbEntity
  8
0
 62
     7
370
    35
100
AcDbLine
 10
580.382324
 20
340.061951
 30
0.0
 11
580.382324
 21
341.061951
 31
0.0
  0
LINE
  5
1FF
330
1F
100
AcDbEntity
  8
0
 62
     7
370
    35
100
AcDbLine
 10
580.382324
 20
341.061951
 30
0.0
 11
578.382324
 21
343.061951
 31
0.0
  0
LINE
  5
200
330
1F
100
AcDbEntity
  8
0
 62
     7
370
    35
100
AcDbLine
 10
548.382324
 20
343.061951
 30
0.0
 11
578.382324
 21
343.061951
 31
0.0
  0
LINE
  5
201
330
1F
100
AcDbEntity
  8
0
 62
     7
370
    35
100
AcDbLine
 10
546.382324
 20
341.061951
 30
0.0
 11
548.382324
 21
343.061951
 31
0.0
  0
LINE
  5
202
330
1F
100
AcDbEntity
  8
0
 62
     7
370
    35
100
AcDbLine
 10
546.382324
 20
340.061951
 30
0.0
 11
546.382324
 21
341.061951
 31
0.0
  0
LINE
  5
203
330
1F
100
AcDbEntity
  8
0
 62
     7
370
    35
100
AcDbLine
 10
549.382324
 20
340.061951
 30
0.0
 11
546.382324
 21
340.061951
 31
0.0
  0
LINE
  5
204
330
1F
100
AcDbEntity
  8
0
 62
     7
370
    35
100
AcDbLine
 10
549.382324
 20
279.230682
 30
0.0
 11
549.382324
 21
340.061951
 31
0.0
  0
LINE
  5
205
330
1F
100
AcDbEntity
  8
0
 62
     7
370
    35
100
AcDbLine
 10
566.882324
 20
336.661987
 30
0.0
 11
557.882324
 21
336.661987
 31
0.0
  0
LINE
  5
206
330
1F
100
AcDbEntity
  8
0
 62
     7
370
    35
100
AcDbLine
 10
557.882324
 20
336.661987
 30
0.0
 11
557.882324
 21
340.061951
 31
0.0
  0
LINE
  5
207
330
1F
100
AcDbEntity
  8
0
 62
     7
370
    35
100
AcDbLine
 10
566.882324
 20
340.061951
 30
0.0
 11
557.882324
 21
340.061951
 31
0.0
  0
LINE
  5
208
330
1F
100
AcDbEntity
  8
0
 62
     7
370
    35
100
AcDbLine
 10
566.882324
 20
336.661987
 30
0.0
 11
566.882324
 21
340.061951
 31
0.0
  0
LINE
  5
209
330
1F
100
AcDbEntity
  8
0
 62
     7
370
    35
100
AcDbLine
 10
566.882324
 20
286.761963
 30
0.0
 11
557.882324
 21
286.761963
 31
0.0
  0
LINE
  5
20A
330
1F
100
AcDbEntity
  8
0
 62
     7
370
    35
100
AcDbLine
 10
557.882324
 20
286.761963
 30
0.0
 11
557.882324
 21
290.161987
 31
0.0
  0
LINE
  5
20B
330
1F
100
AcDbEntity
  8
0
 62
     7
370
    35
100
AcDbLine
 10
566.882324
 20
290.161987
 30
0.0
 11
557.882324
 21
290.161987
 31
0.0
  0
LINE
  5
20C
330
1F
100
AcDbEntity
  8
0
 62
     7
370
    35
100
AcDbLine
 10
566.882324
 20
286.761963
 30
0.0
 11
566.882324
 21
290.161987
 31
0.0
  0
LINE
  5
20D
330
1F
100
AcDbEntity
  8
0
 62
     7
370
    35
100
AcDbLine
 10
575.382324
 20
274.323334
 30
0.0
 11
575.382324
 21
279.230682
 31
0.0
  0
LINE
  5
20E
330
1F
100
AcDbEntity
  8
0
 62
     7
370
    35
100
AcDbLine
 10
549.382324
 20
274.323334
 30
0.0
 11
549.382324
 21
279.230682
 31
0.0
  0
LINE
  5
20F
330
1F
100
AcDbEntity
  8
0
 62
     7
370
    35
100
AcDbLine
 10
575.382324
 20
224.323334
 30
0.0
 11
575.382324
 21
274.323334
 31
0.0
  0
LINE
  5
210
330
1F
100
AcDbEntity
  8
0
 62
     7
370
    35
100
AcDbLine
 10
549.382324
 20
224.323334
 30
0.0
 11
549.382324
 21
274.323334
 31
0.0
  0
LINE
  5
211
330
1F
100
AcDbEntity
  8
0
 62
     7
370
    35
100
AcDbLine
 10
575.382324
 20
219.41597
 30
0.0
 11
575.382324
 21
224.323334
 31
0.0
  0
LINE
  5
212
330
1F
100
AcDbEntity
  8
0
 62
     7
370
    35
100
AcDbLine
 10
549.382324
 20
219.41597
 30
0.0
 11
549.382324
 21
224.323334
 31
0.0
  0
CIRCLE
  5
213
330
1F
100
AcDbEntity
  8
0
 62
     7
370
    35
100
AcDbCircle
 10
567.382324
 20
165.41597
 30
0.0
 40
1.6
  0
CIRCLE
  5
214
330
1F
100
AcDbEntity
  8
0
 62
     7
370
    35
100
AcDbCircle
 10
559.382324
 20
157.41597
 30
0.0
 40
1.6
  0
ARC
  5
215
330
1F
100
AcDbEntity
  8
0
 62
     7
370
    35
100
AcDbCircle
 10
567.382324
 20
157.41597
 30
0.0
 40
18.0
100
AcDbArc
 50
180.000005
 51
10.234166
  0
LINE
  5
216
330
1F
100
AcDbEntity
  8
0
 62
     7
370
    35
100
AcDbLine
 10
585.095947
 20
160.614059
 30
0.0
 11
575.382324
 21
214.41597
 31
0.0
  0
LINE
  5
217
330
1F
100
AcDbEntity
  8
0
 62
     7
370
    35
100
AcDbLine
 10
575.382324
 20
214.41597
 30
0.0
 11
575.382324
 21
219.41597
 31
0.0
  0
LINE
  5
218
330
1F
100
AcDbEntity
  8
0
 62
     7
370
    35
100
AcDbLine
 10
549.382324
 20
219.41597
 30
0.0
 11
549.382324
 21
157.41597
 31
0.0
  0
CIRCLE
  5
219
330
1F
100
AcDbEntity
  8
0
 62
     7
370
    35
100
AcDbCircle
 10
567.382324
 20
149.41597
 30
0.0
 40
1.6
  0
CIRCLE
  5
21A
330
1F
100
AcDbEntity
  8
0
 62
     7
370
    35
100
AcDbCircle
 10
567.382324
 20
157.41597
 30
0.0
 40
5.0
  0
CIRCLE
  5
21B
330
1F
100
AcDbEntity
  8
0
 62
     7
370
    35
100
AcDbCircle
 10
575.382324
 20
157.41597
 30
0.0
 40
1.6
  0
LINE
  5
21C
330
1F
100
AcDbEntity
  8
0
 62
     7
370
    35
100
AcDbLine
 10
526.3125
 20
334.661987
 30
0.0
 11
526.3125
 21
336.661987
 31
0.0
  0
LINE
  5
21D
330
1F
100
AcDbEntity
  8
0
 62
     7
370
    35
100
AcDbLine
 10
521.3125
 20
331.775208
 30
0.0
 11
526.3125
 21
334.661987
 31
0.0
  0
LINE
  5
21E
330
1F
100
AcDbEntity
  8
0
 62
     7
370
    35
100
AcDbLine
 10
521.3125
 20
295.048706
 30
0.0
 11
521.3125
 21
331.775208
 31
0.0
  0
LINE
  5
21F
330
1F
100
AcDbEntity
  8
0
 62
     7
370
    35
100
AcDbLine
 10
526.3125
 20
292.161987
 30
0.0
 11
521.3125
 21
295.048706
 31
0.0
  0
LINE
  5
220
330
1F
100
AcDbEntity
  8
0
 62
     7
370
    35
100
AcDbLine
 10
526.3125
 20
290.161987
 30
0.0
 11
526.3125
 21
292.161987
 31
0.0
  0
LINE
  5
221
330
1F
100
AcDbEntity
  8
0
 62
     7
370
    35
100
AcDbLine
 10
526.3125
 20
290.161987
 30
0.0
 11
521.3125
 21
290.161987
 31
0.0
  0
LINE
  5
222
330
1F
100
AcDbEntity
  8
0
 62
     7
370
    35
100
AcDbLine
 10
521.3125
 20
279.230682
 30
0.0
 11
521.3125
 21
290.161987
 31
0.0
  0
LINE
  5
223
330
1F
100
AcDbEntity
  8
0
 62
     7
370
    35
100
AcDbLine
 10
526.3125
 20
336.661987
 30
0.0
 11
521.3125
 21
336.661987
 31
0.0
  0
LINE
  5
224
330
1F
100
AcDbEntity
  8
0
 62
     7
370
    35
100
AcDbLine
 10
521.3125
 20
336.661987
 30
0.0
 11
521.3125
 21
340.061951
 31
0.0
  0
LINE
  5
225
330
1F
100
AcDbEntity
  8
0
 62
     7
370
    35
100
AcDbLine
 10
526.3125
 20
340.061951
 30
0.0
 11
521.3125
 21
340.061951
 31
0.0
  0
LINE
  5
226
330
1F
100
AcDbEntity
  8
0
 62
     7
370
    35
100
AcDbLine
 10
526.3125
 20
340.061951
 30
0.0
 11
526.3125
 21
341.061951
 31
0.0
  0
LINE
  5
227
330
1F
100
AcDbEntity
  8
0
 62
     7
370
    35
100
AcDbLine
 10
526.3125
 20
341.061951
 30
0.0
 11
524.3125
 21
343.061951
 31
0.0
  0
LINE
  5
228
330
1F
100
AcDbEntity
  8
0
 62
     7
370
    35
100
AcDbLine
 10
494.3125
 20
343.061951
 30
0.0
 11
524.3125
 21
343.061951
 31
0.0
  0
LINE
  5
229
330
1F
100
AcDbEntity
  8
0
 62
     7
370
    35
100
AcDbLine
 10
492.3125
 20
341.061951
 30
0.0
 11
494.3125
 21
343.061951
 31
0.0
  0
LINE
  5
22A
330
1F
100
AcDbEntity
  8
0
 62
     7
370
    35
100
AcDbLine
 10
492.3125
 20
340.061951
 30
0.0
 11
492.3125
 21
341.061951
 31
0.0
  0
LINE
  5
22B
330
1F
100
AcDbEntity
  8
0
 62
     7
370
    35
100
AcDbLine
 10
495.3125
 20
340.061951
 30
0.0
 11
492.3125
 21
340.061951
 31
0.0
  0
LINE
  5
22C
330
1F
100
AcDbEntity
  8
0
 62
     7
370
    35
100
AcDbLine
 10
495.3125
 20
279.230682
 30
0.0
 11
495.3125
 21
340.061951
 31
0.0
  0
LINE
  5
22D
330
1F
100
AcDbEntity
  8
0
 62
     7
370
    35
100
AcDbLine
 10
512.8125
 20
336.661987
 30
0.0
 11
503.8125
 21
336.661987
 31
0.0
  0
LINE
  5
22E
330
1F
100
AcDbEntity
  8
0
 62
     7
370
    35
100
AcDbLine
 10
503.8125
 20
336.661987
 30
0.0
 11
503.8125
 21
340.061951
 31
0.0
  0
LINE
  5
22F
330
1F
100
AcDbEntity
  8
0
 62
     7
370
    35
100
AcDbLine
 10
512.8125
 20
340.061951
 30
0.0
 11
503.8125
 21
340.061951
 31
0.0
  0
LINE
  5
230
330
1F
100
AcDbEntity
  8
0
 62
     7
370
    35
100
AcDbLine
 10
512.8125
 20
336.661987
 30
0.0
 11
512.8125
 21
340.061951
 31
0.0
  0
LINE
  5
231
330
1F
100
AcDbEntity
  8
0
 62
     7
370
    35
100
AcDbLine
 10
512.8125
 20
286.761963
 30
0.0
 11
503.8125
 21
286.761963
 31
0.0
  0
LINE
  5
232
330
1F
100
AcDbEntity
  8
0
 62
     7
370
    35
100
AcDbLine
 10
503.8125
 20
286.761963
 30
0.0
 11
503.8125
 21
290.161987
 31
0.0
  0
LINE
  5
233
330
1F
100
AcDbEntity
  8
0
 62
     7
370
    35
100
AcDbLine
 10
512.8125
 20
290.161987
 30
0.0
 11
503.8125
 21
290.161987
 31
0.0
  0
LINE
  5
234
330
1F
100
AcDbEntity
  8
0
 62
     7
370
    35
100
AcDbLine
 10
512.8125
 20
286.761963
 30
0.0
 11
512.8125
 21
290.161987
 31
0.0
  0
LINE
  5
235
330
1F
100
AcDbEntity
  8
0
 62
     7
370
    35
100
AcDbLine
 10
521.3125
 20
274.323334
 30
0.0
 11
521.3125
 21
279.230682
 31
0.0
  0
LINE
  5
236
330
1F
100
AcDbEntity
  8
0
 62
     7
370
    35
100
AcDbLine
 10
495.3125
 20
274.323334
 30
0.0
 11
495.3125
 21
279.230682
 31
0.0
  0
LINE
  5
237
330
1F
100
AcDbEntity
  8
0
 62
     7
370
    35
100
AcDbLine
 10
521.3125
 20
224.323334
 30
0.0
 11
521.3125
 21
274.323334
 31
0.0
  0
LINE
  5
238
330
1F
100
AcDbEntity
  8
0
 62
     7
370
    35
100
AcDbLine
 10
495.3125
 20
224.323334
 30
0.0
 11
495.3125
 21
274.323334
 31
0.0
  0
LINE
  5
239
330
1F
100
AcDbEntity
  8
0
 62
     7
370
    35
100
AcDbLine
 10
521.3125
 20
219.41597
 30
0.0
 11
521.3125
 21
224.323334
 31
0.0
  0
LINE
  5
23A
330
1F
100
AcDbEntity
  8
0
 62
     7
370
    35
100
AcDbLine
 10
495.3125
 20
219.41597
 30
0.0
 11
495.3125
 21
224.323334
 31
0.0
  0
CIRCLE
  5
23B
330
1F
100
AcDbEntity
  8
0
 62
     7
370
    35
100
AcDbCircle
 10
513.3125
 20
165.41597
 30
0.0
 40
1.6
  0
CIRCLE
  5
23C
330
1F
100
AcDbEntity
  8
0
 62
     7
370
    35
100
AcDbCircle
 10
505.3125
 20
157.41597
 30
0.0
 40
1.6
  0
ARC
  5
23D
330
1F
100
AcDbEntity
  8
0
 62
     7
370
    35
100
AcDbCircle
 10
513.3125
 20
157.41597
 30
0.0
 40
18.0
100
AcDbArc
 50
180.000005
 51
10.234166
  0
LINE
  5
23E
330
1F
100
AcDbEntity
  8
0
 62
     7
370
    35
100
AcDbLine
 10
531.026123
 20
160.614059
 30
0.0
 11
521.3125
 21
214.41597
 31
0.0
  0
LINE
  5
23F
330
1F
100
AcDbEntity
  8
0
 62
     7
370
    35
100
AcDbLine
 10
521.3125
 20
214.41597
 30
0.0
 11
521.3125
 21
219.41597
 31
0.0
  0
LINE
  5
240
330
1F
100
AcDbEntity
  8
0
 62
     7
370
    35
100
AcDbLine
 10
495.3125
 20
219.41597
 30
0.0
 11
495.3125
 21
157.41597
 31
0.0
  0
CIRCLE
  5
241
330
1F
100
AcDbEntity
  8
0
 62
     7
370
    35
100
AcDbCircle
 10
513.3125
 20
149.41597
 30
0.0
 40
1.6
  0
CIRCLE
  5
242
330
1F
100
AcDbEntity
  8
0
 62
     7
370
    35
100
AcDbCircle
 10
513.3125
 20
157.41597
 30
0.0
 40
5.0
  0
CIRCLE
  5
243
330
1F
100
AcDbEntity
  8
0
 62
     7
370
    35
100
AcDbCircle
 10
521.3125
 20
157.41597
 30
0.0
 40
1.6
  0
CIRCLE
  5
244
330
1F
100
AcDbEntity
  8
0
 62
     7
370
    35
100
AcDbCircle
 10
118.915138
 20
240.987915
 30
0.0
 40
2.458500000000001
  0
LINE
  5
245
330
1F
100
AcDbEntity
  8
0
 62
     7
370
    35
100
AcDbLine
 10
133.415131
 20
256.487915
 30
0.0
 11
141.915131
 21
256.487915
 31
0.0
  0
LINE
  5
246
330
1F
100
AcDbEntity
  8
0
 62
     7
370
    35
100
AcDbLine
 10
133.415131
 20
259.887909
 30
0.0
 11
133.415131
 21
256.487915
 31
0.0
  0
LINE
  5
247
330
1F
100
AcDbEntity
  8
0
 62
     7
370
    35
100
AcDbLine
 10
124.415138
 20
259.887909
 30
0.0
 11
133.415131
 21
259.887909
 31
0.0
  0
LINE
  5
248
330
1F
100
AcDbEntity
  8
0
 62
     7
370
    35
100
AcDbLine
 10
124.415138
 20
256.487915
 30
0.0
 11
124.415138
 21
259.887909
 31
0.0
  0
LINE
  5
249
330
1F
100
AcDbEntity
  8
0
 62
     7
370
    35
100
AcDbLine
 10
115.915138
 20
256.487915
 30
0.0
 11
124.415138
 21
256.487915
 31
0.0
  0
LINE
  5
24A
330
1F
100
AcDbEntity
  8
0
 62
     7
370
    35
100
AcDbLine
 10
115.915138
 20
259.887909
 30
0.0
 11
115.915138
 21
256.487915
 31
0.0
  0
LINE
  5
24B
330
1F
100
AcDbEntity
  8
0
 62
     7
370
    35
100
AcDbLine
 10
115.915138
 20
259.887909
 30
0.0
 11
114.915138
 21
259.887909
 31
0.0
  0
LINE
  5
24C
330
1F
100
AcDbEntity
  8
0
 62
     7
370
    35
100
AcDbLine
 10
112.915138
 20
257.887909
 30
0.0
 11
114.915138
 21
259.887909
 31
0.0
  0
LINE
  5
24D
330
1F
100
AcDbEntity
  8
0
 62
     7
370
    35
100
AcDbLine
 10
112.915138
 20
257.887909
 30
0.0
 11
112.915138
 21
238.929352
 31
0.0
  0
ARC
  5
24E
330
1F
100
AcDbEntity
  8
0
 62
     7
370
    35
100
AcDbCircle
 10
114.915138
 20
238.929352
 30
0.0
 40
2.0
100
AcDbArc
 50
180.000005
 51
262.499999
  0
LINE
  5
24F
330
1F
100
AcDbEntity
  8
0
 62
     7
370
    35
100
AcDbLine
 10
123.912537
 20
235.72757
 30
0.0
 11
114.654083
 21
236.946472
 31
0.0
  0
ARC
  5
250
330
1F
100
AcDbEntity
  8
0
 62
     7
370
    35
100
AcDbCircle
 10
124.956741
 20
243.659134
 30
0.0
 40
8.0
100
AcDbArc
 50
262.499999
 51
316.011345
  0
LINE
  5
251
330
1F
100
AcDbEntity
  8
0
 62
     7
370
    35
100
AcDbLine
 10
146.915131
 20
254.887909
 30
0.0
 11
130.712555
 21
238.102997
 31
0.0
  0
LINE
  5
252
330
1F
100
AcDbEntity
  8
0
 62
     7
370
    35
100
AcDbLine
 10
146.915131
 20
259.887909
 30
0.0
 11
146.915131
 21
254.887909
 31
0.0
  0
LINE
  5
253
330
1F
100
AcDbEntity
  8
0
 62
     7
370
    35
100
AcDbLine
 10
141.915131
 20
259.887909
 30
0.0
 11
146.915131
 21
259.887909
 31
0.0
  0
LINE
  5
254
330
1F
100
AcDbEntity
  8
0
 62
     7
370
    35
100
AcDbLine
 10
141.915131
 20
256.487915
 30
0.0
 11
141.915131
 21
259.887909
 31
0.0
  0
CIRCLE
  5
255
330
1F
100
AcDbEntity
  8
0
 62
     7
370
    35
100
AcDbCircle
 10
131.915131
 20
247.987915
 30
0.0
 40
3.0
  0
CIRCLE
  5
256
330
1F
100
AcDbEntity
  8
0
 62
     7
370
    35
100
AcDbCircle
 10
118.183342
 20
211.934982
 30
0.0
 40
2.458500000000001
  0
LINE
  5
257
330
1F
100
AcDbEntity
  8
0
 62
     7
370
    35
100
AcDbLine
 10
132.68335
 20
227.434982
 30
0.0
 11
141.18335
 21
227.434982
 31
0.0
  0
LINE
  5
258
330
1F
100
AcDbEntity
  8
0
 62
     7
370
    35
100
AcDbLine
 10
132.68335
 20
230.834976
 30
0.0
 11
132.68335
 21
227.434982
 31
0.0
  0
LINE
  5
259
330
1F
100
AcDbEntity
  8
0
 62
     7
370
    35
100
AcDbLine
 10
123.683342
 20
230.834976
 30
0.0
 11
132.68335
 21
230.834976
 31
0.0
  0
LINE
  5
25A
330
1F
100
AcDbEntity
  8
0
 62
     7
370
    35
100
AcDbLine
 10
123.683342
 20
227.434982
 30
0.0
 11
123.683342
 21
230.834976
 31
0.0
  0
LINE
  5
25B
330
1F
100
AcDbEntity
  8
0
 62
     7
370
    35
100
AcDbLine
 10
115.183342
 20
227.434982
 30
0.0
 11
123.683342
 21
227.434982
 31
0.0
  0
LINE
  5
25C
330
1F
100
AcDbEntity
  8
0
 62
     7
370
    35
100
AcDbLine
 10
115.183342
 20
230.834976
 30
0.0
 11
115.183342
 21
227.434982
 31
0.0
  0
LINE
  5
25D
330
1F
100
AcDbEntity
  8
0
 62
     7
370
    35
100
AcDbLine
 10
115.183342
 20
230.834976
 30
0.0
 11
114.183342
 21
230.834976
 31
0.0
  0
LINE
  5
25E
330
1F
100
AcDbEntity
  8
0
 62
     7
370
    35
100
AcDbLine
 10
112.183342
 20
228.834976
 30
0.0
 11
114.183342
 21
230.834976
 31
0.0
  0
LINE
  5
25F
330
1F
100
AcDbEntity
  8
0
 62
     7
370
    35
100
AcDbLine
 10
112.183342
 20
228.834976
 30
0.0
 11
112.183342
 21
209.876419
 31
0.0
  0
ARC
  5
260
330
1F
100
AcDbEntity
  8
0
 62
     7
370
    35
100
AcDbCircle
 10
114.183342
 20
209.876419
 30
0.0
 40
2.0
100
AcDbArc
 50
180.000005
 51
262.499999
  0
LINE
  5
261
330
1F
100
AcDbEntity
  8
0
 62
     7
370
    35
100
AcDbLine
 10
123.18074
 20
206.674637
 30
0.0
 11
113.922287
 21
207.893539
 31
0.0
  0
ARC
  5
262
330
1F
100
AcDbEntity
  8
0
 62
     7
370
    35
100
AcDbCircle
 10
124.224945
 20
214.606201
 30
0.0
 40
8.0
100
AcDbArc
 50
262.499999
 51
316.011345
  0
LINE
  5
263
330
1F
100
AcDbEntity
  8
0
 62
     7
370
    35
100
AcDbLine
 10
146.18335
 20
225.834976
 30
0.0
 11
129.980774
 21
209.050064
 31
0.0
  0
LINE
  5
264
330
1F
100
AcDbEntity
  8
0
 62
     7
370
    35
100
AcDbLine
 10
146.18335
 20
230.834976
 30
0.0
 11
146.18335
 21
225.834976
 31
0.0
  0
LINE
  5
265
330
1F
100
AcDbEntity
  8
0
 62
     7
370
    35
100
AcDbLine
 10
141.18335
 20
230.834976
 30
0.0
 11
146.18335
 21
230.834976
 31
0.0
  0
LINE
  5
266
330
1F
100
AcDbEntity
  8
0
 62
     7
370
    35
100
AcDbLine
 10
141.18335
 20
227.434982
 30
0.0
 11
141.18335
 21
230.834976
 31
0.0
  0
CIRCLE
  5
267
330
1F
100
AcDbEntity
  8
0
 62
     7
370
    35
100
AcDbCircle
 10
131.18335
 20
218.934982
 30
0.0
 40
3.0
  0
CIRCLE
  5
268
330
1F
100
AcDbEntity
  8
0
 62
     7
370
    35
100
AcDbCircle
 10
78.57254
 20
239.330414
 30
0.0
 40
2.458500000000001
  0
LINE
  5
269
330
1F
100
AcDbEntity
  8
0
 62
     7
370
    35
100
AcDbLine
 10
93.07254
 20
254.830414
 30
0.0
 11
101.57254
 21
254.830414
 31
0.0
  0
LINE
  5
26A
330
1F
100
AcDbEntity
  8
0
 62
     7
370
    35
100
AcDbLine
 10
93.07254
 20
258.230408
 30
0.0
 11
93.07254
 21
254.830414
 31
0.0
  0
LINE
  5
26B
330
1F
100
AcDbEntity
  8
0
 62
     7
370
    35
100
AcDbLine
 10
84.07254
 20
258.230408
 30
0.0
 11
93.07254
 21
258.230408
 31
0.0
  0
LINE
  5
26C
330
1F
100
AcDbEntity
  8
0
 62
     7
370
    35
100
AcDbLine
 10
84.07254
 20
254.830414
 30
0.0
 11
84.07254
 21
258.230408
 31
0.0
  0
LINE
  5
26D
330
1F
100
AcDbEntity
  8
0
 62
     7
370
    35
100
AcDbLine
 10
75.57254
 20
254.830414
 30
0.0
 11
84.07254
 21
254.830414
 31
0.0
  0
LINE
  5
26E
330
1F
100
AcDbEntity
  8
0
 62
     7
370
    35
100
AcDbLine
 10
75.57254
 20
258.230408
 30
0.0
 11
75.57254
 21
254.830414
 31
0.0
  0
LINE
  5
26F
330
1F
100
AcDbEntity
  8
0
 62
     7
370
    35
100
AcDbLine
 10
75.57254
 20
258.230408
 30
0.0
 11
74.57254
 21
258.230408
 31
0.0
  0
LINE
  5
270
330
1F
100
AcDbEntity
  8
0
 62
     7
370
    35
100
AcDbLine
 10
72.57254
 20
256.230408
 30
0.0
 11
74.57254
 21
258.230408
 31
0.0
  0
LINE
  5
271
330
1F
100
AcDbEntity
  8
0
 62
     7
370
    35
100
AcDbLine
 10
72.57254
 20
256.230408
 30
0.0
 11
72.57254
 21
237.271851
 31
0.0
  0
ARC
  5
272
330
1F
100
AcDbEntity
  8
0
 62
     7
370
    35
100
AcDbCircle
 10
74.57254
 20
237.271851
 30
0.0
 40
2.0
100
AcDbArc
 50
180.000005
 51
262.499999
  0
LINE
  5
273
330
1F
100
AcDbEntity
  8
0
 62
     7
370
    35
100
AcDbLine
 10
83.569939
 20
234.070068
 30
0.0
 11
74.311485
 21
235.288971
 31
0.0
  0
ARC
  5
274
330
1F
100
AcDbEntity
  8
0
 62
     7
370
    35
100
AcDbCircle
 10
84.614143
 20
242.001633
 30
0.0
 40
8.0
100
AcDbArc
 50
262.499999
 51
316.011345
  0
LINE
  5
275
330
1F
100
AcDbEntity
  8
0
 62
     7
370
    35
100
AcDbLine
 10
106.57254
 20
253.230408
 30
0.0
 11
90.369965
 21
236.445496
 31
0.0
  0
LINE
  5
276
330
1F
100
AcDbEntity
  8
0
 62
     7
370
    35
100
AcDbLine
 10
106.57254
 20
258.230408
 30
0.0
 11
106.57254
 21
253.230408
 31
0.0
  0
LINE
  5
277
330
1F
100
AcDbEntity
  8
0
 62
     7
370
    35
100
AcDbLine
 10
101.57254
 20
258.230408
 30
0.0
 11
106.57254
 21
258.230408
 31
0.0
  0
LINE
  5
278
330
1F
100
AcDbEntity
  8
0
 62
     7
370
    35
100
AcDbLine
 10
101.57254
 20
254.830414
 30
0.0
 11
101.57254
 21
258.230408
 31
0.0
  0
CIRCLE
  5
279
330
1F
100
AcDbEntity
  8
0
 62
     7
370
    35
100
AcDbCircle
 10
91.57254
 20
246.330414
 30
0.0
 40
3.0
  0
CIRCLE
  5
27A
330
1F
100
AcDbEntity
  8
0
 62
     7
370
    35
100
AcDbCircle
 10
78.169128
 20
211.391479
 30
0.0
 40
2.458500000000001
  0
LINE
  5
27B
330
1F
100
AcDbEntity
  8
0
 62
     7
370
    35
100
AcDbLine
 10
92.669128
 20
226.891479
 30
0.0
 11
101.169128
 21
226.891479
 31
0.0
  0
LINE
  5
27C
330
1F
100
AcDbEntity
  8
0
 62
     7
370
    35
100
AcDbLine
 10
92.669128
 20
230.291473
 30
0.0
 11
92.669128
 21
226.891479
 31
0.0
  0
LINE
  5
27D
330
1F
100
AcDbEntity
  8
0
 62
     7
370
    35
100
AcDbLine
 10
83.669128
 20
230.291473
 30
0.0
 11
92.669128
 21
230.291473
 31
0.0
  0
LINE
  5
27E
330
1F
100
AcDbEntity
  8
0
 62
     7
370
    35
100
AcDbLine
 10
83.669128
 20
226.891479
 30
0.0
 11
83.669128
 21
230.291473
 31
0.0
  0
LINE
  5
27F
330
1F
100
AcDbEntity
  8
0
 62
     7
370
    35
100
AcDbLine
 10
75.169128
 20
226.891479
 30
0.0
 11
83.669128
 21
226.891479
 31
0.0
  0
LINE
  5
280
330
1F
100
AcDbEntity
  8
0
 62
     7
370
    35
100
AcDbLine
 10
75.169128
 20
230.291473
 30
0.0
 11
75.169128
 21
226.891479
 31
0.0
  0
LINE
  5
281
330
1F
100
AcDbEntity
  8
0
 62
     7
370
    35
100
AcDbLine
 10
75.169128
 20
230.291473
 30
0.0
 11
74.169128
 21
230.291473
 31
0.0
  0
LINE
  5
282
330
1F
100
AcDbEntity
  8
0
 62
     7
370
    35
100
AcDbLine
 10
72.169128
 20
228.291473
 30
0.0
 11
74.169128
 21
230.291473
 31
0.0
  0
LINE
  5
283
330
1F
100
AcDbEntity
  8
0
 62
     7
370
    35
100
AcDbLine
 10
72.169128
 20
228.291473
 30
0.0
 11
72.169128
 21
209.332916
 31
0.0
  0
ARC
  5
284
330
1F
100
AcDbEntity
  8
0
 62
     7
370
    35
100
AcDbCircle
 10
74.169128
 20
209.332916
 30
0.0
 40
2.0
100
AcDbArc
 50
180.000005
 51
262.499999
  0
LINE
  5
285
330
1F
100
AcDbEntity
  8
0
 62
     7
370
    35
100
AcDbLine
 10
83.166527
 20
206.131134
 30
0.0
 11
73.908073
 21
207.350037
 31
0.0
  0
ARC
  5
286
330
1F
100
AcDbEntity
  8
0
 62
     7
370
    35
100
AcDbCircle
 10
84.210732
 20
214.062698
 30
0.0
 40
8.0
100
AcDbArc
 50
262.499999
 51
316.011345
  0
LINE
  5
287
330
1F
100
AcDbEntity
  8
0
 62
     7
370
    35
100
AcDbLine
 10
106.169128
 20
225.291473
 30
0.0
 11
89.966553
 21
208.506561
 31
0.0
  0
LINE
  5
288
330
1F
100
AcDbEntity
  8
0
 62
     7
370
    35
100
AcDbLine
 10
106.169128
 20
230.291473
 30
0.0
 11
106.169128
 21
225.291473
 31
0.0
  0
LINE
  5
289
330
1F
100
AcDbEntity
  8
0
 62
     7
370
    35
100
AcDbLine
 10
101.169128
 20
230.291473
 30
0.0
 11
106.169128
 21
230.291473
 31
0.0
  0
LINE
  5
28A
330
1F
100
AcDbEntity
  8
0
 62
     7
370
    35
100
AcDbLine
 10
101.169128
 20
226.891479
 30
0.0
 11
101.169128
 21
230.291473
 31
0.0
  0
CIRCLE
  5
28B
330
1F
100
AcDbEntity
  8
0
 62
     7
370
    35
100
AcDbCircle
 10
91.169128
 20
218.391479
 30
0.0
 40
3.0
  0
ENDSEC
  0
SECTION
  2
OBJECTS
  0
DICTIONARY
  5
C
330
0
100
AcDbDictionary
281
     1
  3
ACAD_GROUP
350
D
  3
ACAD_LAYOUT
350
1A
  3
ACAD_MLINESTYLE
350
17
  3
ACAD_PLOTSETTINGS
350
19
  3
ACAD_PLOTSTYLENAME
350
E
  3
ACAD_SCALELIST
350
47
  0
DICTIONARY
  5
D
102
{ACAD_REACTORS
330
C
102
}
330
C
100
AcDbDictionary
281
     1
  0
DICTIONARY
  5
1A
102
{ACAD_REACTORS
330
C
102
}
330
C
100
AcDbDictionary
281
     1
  3
Layout1
350
1E
  3
Layout2
350
26
  3
Model
350
22
  0
DICTIONARY
  5
17
102
{ACAD_REACTORS
330
C
102
}
330
C
100
AcDbDictionary
281
     1
  3
Standard
350
18
  0
DICTIONARY
  5
19
102
{ACAD_REACTORS
330
C
102
}
330
C
100
AcDbDictionary
281
     1
  0
ACDBDICTIONARYWDFLT
  5
E
102
{ACAD_REACTORS
330
C
102
}
330
C
100
AcDbDictionary
281
     1
  3
Normal
350
F
100
AcDbDictionaryWithDefault
340
F
  0
DICTIONARY
  5
47
102
{ACAD_REACTORS
330
C
102
}
330
C
100
AcDbDictionary
281
     1
  3
A0
350
48
  3
A1
350
49
  3
A2
350
4A
  3
A3
350
4B
  3
A4
350
4C
  3
A5
350
4D
  3
A6
350
4E
  3
A7
350
4F
  3
A8
350
50
  3
A9
350
51
  3
B0
350
52
  3
B1
350
53
  3
B2
350
54
  3
B3
350
55
  3
B4
350
56
  3
B5
350
57
  3
B6
350
58
  3
B7
350
59
  3
B8
350
5A
  3
B9
350
5B
  3
C0
350
5C
  3
C1
350
5D
  3
C2
350
5E
  3
C3
350
5F
  3
C4
350
60
  3
C5
350
61
  3
C6
350
62
  3
C7
350
63
  3
C8
350
64
  3
C9
350
65
  3
D0
350
66
  3
D1
350
67
  3
D2
350
68
  0
LAYOUT
  5
1E
102
{ACAD_REACTORS
330
1A
102
}
330
1A
100
AcDbPlotSettings
  1

  2
none_device
  4

  6

 40
0.0
 41
0.0
 42
0.0
 43
0.0
 44
0.0
 45
0.0
 46
0.0
 47
0.0
 48
0.0
 49
0.0
140
0.0
141
0.0
142
1.0
143
1.0
 70
  4784
 72
     0
 73
     0
 74
     5
  7

 75
    16
147
1.0
148
0.0
149
0.0
100
AcDbLayout
  1
Layout1
 70
     1
 71
     1
 10
0.0
 20
0.0
 11
420.0
 21
297.0
 12
0.0
 22
0.0
 32
0.0
 14
0.0
 24
0.0
 34
0.0
 15
591.295532
 25
343.061951
 35
2.0
146
0.0
 13
0.0
 23
0.0
 33
0.0
 16
1.0
 26
0.0
 36
0.0
 17
0.0
 27
1.0
 37
0.0
 76
     0
330
1B
  0
LAYOUT
  5
26
102
{ACAD_REACTORS
330
1A
102
}
330
1A
100
AcDbPlotSettings
  1

  2
none_device
  4

  6

 40
0.0
 41
0.0
 42
0.0
 43
0.0
 44
0.0
 45
0.0
 46
0.0
 47
0.0
 48
0.0
 49
0.0
140
0.0
141
0.0
142
1.0
143
1.0
 70
  4784
 72
     0
 73
     0
 74
     5
  7

 75
    16
147
1.0
148
0.0
149
0.0
100
AcDbLayout
  1
Layout2
 70
     1
 71
     2
 10
0.0
 20
0.0
 11
0.0
 21
0.0
 12
0.0
 22
0.0
 32
0.0
 14
0.0
 24
0.0
 34
0.0
 15
0.0
 25
0.0
 35
0.0
146
0.0
 13
0.0
 23
0.0
 33
0.0
 16
1.0
 26
0.0
 36
0.0
 17
0.0
 27
1.0
 37
0.0
 76
     0
330
23
  0
LAYOUT
  5
22
102
{ACAD_REACTORS
330
1A
102
}
330
1A
100
AcDbPlotSettings
  1

  2
none_device
  4
Letter_(8.50_x_11.00_Inches)
  6

 40
6.35
 41
6.35
 42
6.350005
 43
6.350005
 44
215.9
 45
279.4
 46
0.0
 47
0.0
 48
0.0
 49
0.0
140
0.0
141
0.0
142
1.0
143
1.0
 70
  5808
 72
     0
 73
     0
 74
     0
  7

 75
     0
147
1.0
148
0.0
149
0.0
100
AcDbLayout
  1
Model
 70
     1
 71
     0
 10
0.0
 20
0.0
 11
420.0
 21
297.0
 12
0.0
 22
0.0
 32
0.0
 14
0.0
 24
0.0
 34
0.0
 15
591.295532
 25
343.061951
 35
2.0
146
0.0
 13
0.0
 23
0.0
 33
0.0
 16
1.0
 26
0.0
 36
0.0
 17
0.0
 27
1.0
 37
0.0
 76
     0
330
1F
331
29
  0
MLINESTYLE
  5
18
102
{ACAD_REACTORS
330
17
102
}
330
17
100
AcDbMlineStyle
  2
Standard
 70
     0
  3

 62
   256
 51
90.0
 52
90.0
 71
     2
 49
0.5
 62
   256
  6
BYLAYER
 49
-0.5
 62
   256
  6
BYLAYER
  0
ACDBPLACEHOLDER
  5
F
102
{ACAD_REACTORS
330
E
102
}
330
E
  0
SCALE
  5
48
102
{ACAD_REACTORS
330
47
102
}
330
47
100
AcDbScale
 70
     0
300
1:1
140
1.0
141
1.0
290
     1
  0
SCALE
  5
49
102
{ACAD_REACTORS
330
47
102
}
330
47
100
AcDbScale
 70
     0
300
1:2
140
1.0
141
2.0
290
     0
  0
SCALE
  5
4A
102
{ACAD_REACTORS
330
47
102
}
330
47
100
AcDbScale
 70
     0
300
1:4
140
1.0
141
4.0
290
     0
  0
SCALE
  5
4B
102
{ACAD_REACTORS
330
47
102
}
330
47
100
AcDbScale
 70
     0
300
1:5
140
1.0
141
5.0
290
     0
  0
SCALE
  5
4C
102
{ACAD_REACTORS
330
47
102
}
330
47
100
AcDbScale
 70
     0
300
1:8
140
1.0
141
8.0
290
     0
  0
SCALE
  5
4D
102
{ACAD_REACTORS
330
47
102
}
330
47
100
AcDbScale
 70
     0
300
1:10
140
1.0
141
10.0
290
     0
  0
SCALE
  5
4E
102
{ACAD_REACTORS
330
47
102
}
330
47
100
AcDbScale
 70
     0
300
1:16
140
1.0
141
16.0
290
     0
  0
SCALE
  5
4F
102
{ACAD_REACTORS
330
47
102
}
330
47
100
AcDbScale
 70
     0
300
1:20
140
1.0
141
20.0
290
     0
  0
SCALE
  5
50
102
{ACAD_REACTORS
330
47
102
}
330
47
100
AcDbScale
 70
     0
300
1:30
140
1.0
141
30.0
290
     0
  0
SCALE
  5
51
102
{ACAD_REACTORS
330
47
102
}
330
47
100
AcDbScale
 70
     0
300
1:40
140
1.0
141
40.0
290
     0
  0
SCALE
  5
52
102
{ACAD_REACTORS
330
47
102
}
330
47
100
AcDbScale
 70
     0
300
1:50
140
1.0
141
50.0
290
     0
  0
SCALE
  5
53
102
{ACAD_REACTORS
330
47
102
}
330
47
100
AcDbScale
 70
     0
300
1:100
140
1.0
141
100.0
290
     0
  0
SCALE
  5
54
102
{ACAD_REACTORS
330
47
102
}
330
47
100
AcDbScale
 70
     0
300
2:1
140
2.0
141
1.0
290
     0
  0
SCALE
  5
55
102
{ACAD_REACTORS
330
47
102
}
330
47
100
AcDbScale
 70
     0
300
4:1
140
4.0
141
1.0
290
     0
  0
SCALE
  5
56
102
{ACAD_REACTORS
330
47
102
}
330
47
100
AcDbScale
 70
     0
300
8:1
140
8.0
141
1.0
290
     0
  0
SCALE
  5
57
102
{ACAD_REACTORS
330
47
102
}
330
47
100
AcDbScale
 70
     0
300
10:1
140
10.0
141
1.0
290
     0
  0
SCALE
  5
58
102
{ACAD_REACTORS
330
47
102
}
330
47
100
AcDbScale
 70
     0
300
100:1
140
100.0
141
1.0
290
     0
  0
SCALE
  5
59
102
{ACAD_REACTORS
330
47
102
}
330
47
100
AcDbScale
 70
     0
300
1/128" = 1'-0"
140
0.007812
141
12.0
290
     0
  0
SCALE
  5
5A
102
{ACAD_REACTORS
330
47
102
}
330
47
100
AcDbScale
 70
     0
300
1/64" = 1'-0"
140
0.015625
141
12.0
290
     0
  0
SCALE
  5
5B
102
{ACAD_REACTORS
330
47
102
}
330
47
100
AcDbScale
 70
     0
300
1/32" = 1'-0"
140
0.03125
141
12.0
290
     0
  0
SCALE
  5
5C
102
{ACAD_REACTORS
330
47
102
}
330
47
100
AcDbScale
 70
     0
300
1/16" = 1'-0"
140
0.0625
141
12.0
290
     0
  0
SCALE
  5
5D
102
{ACAD_REACTORS
330
47
102
}
330
47
100
AcDbScale
 70
     0
300
3/32" = 1'-0"
140
0.09375
141
12.0
290
     0
  0
SCALE
  5
5E
102
{ACAD_REACTORS
330
47
102
}
330
47
100
AcDbScale
 70
     0
300
1/8" = 1'-0"
140
0.125
141
12.0
290
     0
  0
SCALE
  5
5F
102
{ACAD_REACTORS
330
47
102
}
330
47
100
AcDbScale
 70
     0
300
3/16" = 1'-0"
140
0.1875
141
12.0
290
     0
  0
SCALE
  5
60
102
{ACAD_REACTORS
330
47
102
}
330
47
100
AcDbScale
 70
     0
300
1/4" = 1'-0"
140
0.25
141
12.0
290
     0
  0
SCALE
  5
61
102
{ACAD_REACTORS
330
47
102
}
330
47
100
AcDbScale
 70
     0
300
3/8" = 1'-0"
140
0.375
141
12.0
290
     0
  0
SCALE
  5
62
102
{ACAD_REACTORS
330
47
102
}
330
47
100
AcDbScale
 70
     0
300
1/2" = 1'-0"
140
0.5
141
12.0
290
     0
  0
SCALE
  5
63
102
{ACAD_REACTORS
330
47
102
}
330
47
100
AcDbScale
 70
     0
300
3/4" = 1'-0"
140
0.75
141
12.0
290
     0
  0
SCALE
  5
64
102
{ACAD_REACTORS
330
47
102
}
330
47
100
AcDbScale
 70
     0
300
1" = 1'-0"
140
1.0
141
12.0
290
     0
  0
SCALE
  5
65
102
{ACAD_REACTORS
330
47
102
}
330
47
100
AcDbScale
 70
     0
300
1-1/2" = 1'-0"
140
1.5
141
12.0
290
     0
  0
SCALE
  5
66
102
{ACAD_REACTORS
330
47
102
}
330
47
100
AcDbScale
 70
     0
300
3" = 1'-0"
140
3.0
141
12.0
290
     0
  0
SCALE
  5
67
102
{ACAD_REACTORS
330
47
102
}
330
47
100
AcDbScale
 70
     0
300
6" = 1'-0"
140
6.0
141
12.0
290
     0
  0
SCALE
  5
68
102
{ACAD_REACTORS
330
47
102
}
330
47
100
AcDbScale
 70
     0
300
1'-0" = 1'-0"
140
12.0
141
12.0
290
     0
  0
ENDSEC
  0
EOF
