START RECORD GO HERE.                                                   S      1
1H,,1H;,31H1074.000.028.000.TUERCA_HUSILLO,36H1074.000.028.000.TUERCA_HUG      1
SILLO1.igs,62HDASSAULT SYSTEMES CATIA Version 5-6 Release 2018 - www.3dsG      2
.com,35HV5-6R2018_5.28.6.0.03-10-2020.20.00,32,75,6,75,15,31H1074.000.02G      3
8.000.TUERCA_HUSILLO,1.0,2,2HMM,1000,1.0,15H20251016.091811,0.001,      G      4
10000.0,2HPc,15HDESKTOP-CAESKE4,11,0,15H20251016.091811,;               G      5
     314       1       0       0       0       0       0       000000201D      1
     314       0       0       1       0                               0D      2
     108       2       0       0       0       0       0       001010001D      3
     108       0      -1       1       0                               0D      4
     124       3       0       0       0       0       0       001020001D      5
     124       0       0       1       0                               0D      6
     100       4       0       0       0       0       5       001010001D      7
     100       0       0       1       0                               0D      8
     124       5       0       0       0       0       0       001020001D      9
     124       0       0       1       0                               0D     10
     100       6       0       0       0       0       9       001010001D     11
     100       0       0       1       0                               0D     12
     102       7       0       0       0       0       0       001010001D     13
     102       0       0       1       0                               0D     14
     142       8       0       0       0       0       0       001010001D     15
     142       0       0       1       0                               0D     16
     144       9       0       0   10000       0       0       000000000D     17
     144       0      -1       1       0                PartBody       0D     18
     110      10       0       0       0       0       0       001010001D     19
     110       0       0       1       0                               0D     20
     110      11       0       0       0       0       0       001010001D     21
     110       0       0       1       0                               0D     22
     120      12       0       0       0       0       0       001010001D     23
     120       0       5       1       0                               0D     24
     110      13       0       0       0       0       0       001010001D     25
     110       0       0       1       0                               0D     26
     124      14       0       0       0       0       0       001020001D     27
     124       0       0       1       0                               0D     28
     100      15       0       0       0       0      27       001010001D     29
     100       0       0       1       0                               0D     30
     110      16       0       0       0       0       0       001010001D     31
     110       0       0       1       0                               0D     32
     124      17       0       0       0       0       0       001020001D     33
     124       0       0       1       0                               0D     34
     100      18       0       0       0       0      33       001010001D     35
     100       0       0       1       0                               0D     36
     102      19       0       0       0       0       0       001010001D     37
     102       0       0       1       0                               0D     38
     142      20       0       0       0       0       0       001010001D     39
     142       0       0       1       0                               0D     40
     144      21       0       0   10000       0       0       000000000D     41
     144       0       5       1       0                PartBody       0D     42
     110      22       0       0       0       0       0       001010001D     43
     110       0       0       1       0                               0D     44
     110      23       0       0       0       0       0       001010001D     45
     110       0       0       1       0                               0D     46
     120      24       0       0       0       0       0       001010001D     47
     120       0       5       1       0                               0D     48
     110      25       0       0       0       0       0       001010001D     49
     110       0       0       1       0                               0D     50
     124      26       0       0       0       0       0       001020001D     51
     124       0       0       1       0                               0D     52
     100      27       0       0       0       0      51       001010001D     53
     100       0       0       1       0                               0D     54
     110      28       0       0       0       0       0       001010001D     55
     110       0       0       1       0                               0D     56
     124      29       0       0       0       0       0       001020001D     57
     124       0       0       1       0                               0D     58
     100      30       0       0       0       0      57       001010001D     59
     100       0       0       1       0                               0D     60
     102      31       0       0       0       0       0       001010001D     61
     102       0       0       1       0                               0D     62
     142      32       0       0       0       0       0       001010001D     63
     142       0       0       1       0                               0D     64
     144      33       0       0   10000       0       0       000000000D     65
     144       0       5       1       0                PartBody       0D     66
     314      34       0       0       0       0       0       000000201D     67
     314       0       0       1       0                               0D     68
     108      35       0       0       0       0       0       001010001D     69
     108       0     -67       2       0                               0D     70
     110      37       0       0       0       0       0       001010001D     71
     110       0       0       1       0                               0D     72
     110      38       0       0       0       0       0       001010001D     73
     110       0       0       1       0                               0D     74
     110      39       0       0       0       0       0       001010001D     75
     110       0       0       1       0                               0D     76
     110      40       0       0       0       0       0       001010001D     77
     110       0       0       1       0                               0D     78
     102      41       0       0       0       0       0       001010001D     79
     102       0       0       1       0                               0D     80
     142      42       0       0       0       0       0       001010001D     81
     142       0       0       1       0                               0D     82
     144      43       0       0   10000       0       0       000000000D     83
     144       0     -67       1       0                PartBody       0D     84
     108      44       0       0       0       0       0       001010001D     85
     108       0     -67       2       0                               0D     86
     110      46       0       0       0       0       0       001010001D     87
     110       0       0       1       0                               0D     88
     110      47       0       0       0       0       0       001010001D     89
     110       0       0       1       0                               0D     90
     110      48       0       0       0       0       0       001010001D     91
     110       0       0       1       0                               0D     92
     110      49       0       0       0       0       0       001010001D     93
     110       0       0       1       0                               0D     94
     102      50       0       0       0       0       0       001010001D     95
     102       0       0       1       0                               0D     96
     142      51       0       0       0       0       0       001010001D     97
     142       0       0       1       0                               0D     98
     144      52       0       0   10000       0       0       000000000D     99
     144       0     -67       1       0                PartBody       0D    100
     108      53       0       0       0       0       0       001010001D    101
     108       0     -67       1       0                               0D    102
     110      54       0       0       0       0       0       001010001D    103
     110       0       0       1       0                               0D    104
     110      55       0       0       0       0       0       001010001D    105
     110       0       0       1       0                               0D    106
     110      56       0       0       0       0       0       001010001D    107
     110       0       0       1       0                               0D    108
     110      57       0       0       0       0       0       001010001D    109
     110       0       0       1       0                               0D    110
     124      58       0       0       0       0       0       001020001D    111
     124       0       0       2       0                               0D    112
     100      60       0       0       0       0     111       001010001D    113
     100       0       0       1       0                               0D    114
     124      61       0       0       0       0       0       001020001D    115
     124       0       0       1       0                               0D    116
     100      62       0       0       0       0     115       001010001D    117
     100       0       0       1       0                               0D    118
     110      63       0       0       0       0       0       001010001D    119
     110       0       0       1       0                               0D    120
     102      64       0       0       0       0       0       001010001D    121
     102       0       0       1       0                               0D    122
     142      65       0       0       0       0       0       001010001D    123
     142       0       0       1       0                               0D    124
     144      66       0       0   10000       0       0       000000000D    125
     144       0     -67       1       0                PartBody       0D    126
     108      67       0       0       0       0       0       001010001D    127
     108       0     -67       1       0                               0D    128
     110      68       0       0       0       0       0       001010001D    129
     110       0       0       1       0                               0D    130
     110      69       0       0       0       0       0       001010001D    131
     110       0       0       1       0                               0D    132
     110      70       0       0       0       0       0       001010001D    133
     110       0       0       1       0                               0D    134
     110      71       0       0       0       0       0       001010001D    135
     110       0       0       1       0                               0D    136
     110      72       0       0       0       0       0       001010001D    137
     110       0       0       1       0                               0D    138
     126      73       0       0       0       0       0       001010001D    139
     126       0       0       5       0                               0D    140
     126      78       0       0       0       0       0       001010001D    141
     126       0       0       5       0                               0D    142
     102      83       0       0       0       0       0       001010001D    143
     102       0       0       1       0                               0D    144
     142      84       0       0       0       0       0       001010001D    145
     142       0       0       1       0                               0D    146
     144      85       0       0   10000       0       0       000000000D    147
     144       0     -67       1       0                PartBody       0D    148
     108      86       0       0       0       0       0       001010001D    149
     108       0     -67       1       0                               0D    150
     110      87       0       0       0       0       0       001010001D    151
     110       0       0       1       0                               0D    152
     110      88       0       0       0       0       0       001010001D    153
     110       0       0       1       0                               0D    154
     110      89       0       0       0       0       0       001010001D    155
     110       0       0       1       0                               0D    156
     110      90       0       0       0       0       0       001010001D    157
     110       0       0       1       0                               0D    158
     124      91       0       0       0       0       0       001020001D    159
     124       0       0       2       0                               0D    160
     100      93       0       0       0       0     159       001010001D    161
     100       0       0       1       0                               0D    162
     124      94       0       0       0       0       0       001020001D    163
     124       0       0       1       0                               0D    164
     100      95       0       0       0       0     163       001010001D    165
     100       0       0       1       0                               0D    166
     110      96       0       0       0       0       0       001010001D    167
     110       0       0       1       0                               0D    168
     102      97       0       0       0       0       0       001010001D    169
     102       0       0       1       0                               0D    170
     142      98       0       0       0       0       0       001010001D    171
     142       0       0       1       0                               0D    172
     144      99       0       0   10000       0       0       000000000D    173
     144       0     -67       1       0                PartBody       0D    174
     110     100       0       0       0       0       0       001010001D    175
     110       0       0       1       0                               0D    176
     110     101       0       0       0       0       0       001010001D    177
     110       0       0       1       0                               0D    178
     120     102       0       0       0       0       0       001010001D    179
     120       0       5       1       0                               0D    180
     110     103       0       0       0       0       0       001010001D    181
     110       0       0       1       0                               0D    182
     126     104       0       0       0       0       0       001010001D    183
     126       0       0       5       0                               0D    184
     124     109       0       0       0       0       0       001020001D    185
     124       0       0       2       0                               0D    186
     100     111       0       0       0       0     185       001010001D    187
     100       0       0       1       0                               0D    188
     110     112       0       0       0       0       0       001010001D    189
     110       0       0       1       0                               0D    190
     124     113       0       0       0       0       0       001020001D    191
     124       0       0       1       0                               0D    192
     100     114       0       0       0       0     191       001010001D    193
     100       0       0       1       0                               0D    194
     126     115       0       0       0       0       0       001010001D    195
     126       0       0       5       0                               0D    196
     102     120       0       0       0       0       0       001010001D    197
     102       0       0       1       0                               0D    198
     142     121       0       0       0       0       0       001010001D    199
     142       0       0       1       0                               0D    200
     144     122       0       0   10000       0       0       000000000D    201
     144       0       5       1       0                PartBody       0D    202
     110     123       0       0       0       0       0       001010001D    203
     110       0       0       1       0                               0D    204
     110     124       0       0       0       0       0       001010001D    205
     110       0       0       1       0                               0D    206
     120     125       0       0       0       0       0       001010001D    207
     120       0       5       1       0                               0D    208
     124     126       0       0       0       0       0       001020001D    209
     124       0       0       2       0                               0D    210
     100     128       0       0       0       0     209       001010001D    211
     100       0       0       1       0                               0D    212
     110     129       0       0       0       0       0       001010001D    213
     110       0       0       1       0                               0D    214
     124     130       0       0       0       0       0       001020001D    215
     124       0       0       1       0                               0D    216
     100     131       0       0       0       0     215       001010001D    217
     100       0       0       1       0                               0D    218
     126     132       0       0       0       0       0       001010001D    219
     126       0       0       5       0                               0D    220
     110     137       0       0       0       0       0       001010001D    221
     110       0       0       1       0                               0D    222
     126     138       0       0       0       0       0       001010001D    223
     126       0       0       5       0                               0D    224
     102     143       0       0       0       0       0       001010001D    225
     102       0       0       1       0                               0D    226
     142     144       0       0       0       0       0       001010001D    227
     142       0       0       1       0                               0D    228
     144     145       0       0   10000       0       0       000000000D    229
     144       0       5       1       0                PartBody       0D    230
     108     146       0       0       0       0       0       001010001D    231
     108       0     -67       1       0                               0D    232
     110     147       0       0       0       0       0       001010001D    233
     110       0       0       1       0                               0D    234
     110     148       0       0       0       0       0       001010001D    235
     110       0       0       1       0                               0D    236
     110     149       0       0       0       0       0       001010001D    237
     110       0       0       1       0                               0D    238
     110     150       0       0       0       0       0       001010001D    239
     110       0       0       1       0                               0D    240
     102     151       0       0       0       0       0       001010001D    241
     102       0       0       1       0                               0D    242
     142     152       0       0       0       0       0       001010001D    243
     142       0       0       1       0                               0D    244
     144     153       0       0   10000       0       0       000000000D    245
     144       0     -67       1       0                PartBody       0D    246
     108     154       0       0       0       0       0       001010001D    247
     108       0     -67       1       0                               0D    248
     110     155       0       0       0       0       0       001010001D    249
     110       0       0       1       0                               0D    250
     110     156       0       0       0       0       0       001010001D    251
     110       0       0       1       0                               0D    252
     110     157       0       0       0       0       0       001010001D    253
     110       0       0       1       0                               0D    254
     110     158       0       0       0       0       0       001010001D    255
     110       0       0       1       0                               0D    256
     110     159       0       0       0       0       0       001010001D    257
     110       0       0       1       0                               0D    258
     110     160       0       0       0       0       0       001010001D    259
     110       0       0       1       0                               0D    260
     110     161       0       0       0       0       0       001010001D    261
     110       0       0       1       0                               0D    262
     110     162       0       0       0       0       0       001010001D    263
     110       0       0       1       0                               0D    264
     102     163       0       0       0       0       0       001010001D    265
     102       0       0       1       0                               0D    266
     142     164       0       0       0       0       0       001010001D    267
     142       0       0       1       0                               0D    268
     144     165       0       0   10000       0       0       000000000D    269
     144       0     -67       1       0                PartBody       0D    270
     108     166       0       0       0       0       0       001010001D    271
     108       0     -67       1       0                               0D    272
     110     167       0       0       0       0       0       001010001D    273
     110       0       0       1       0                               0D    274
     110     168       0       0       0       0       0       001010001D    275
     110       0       0       1       0                               0D    276
     110     169       0       0       0       0       0       001010001D    277
     110       0       0       1       0                               0D    278
     110     170       0       0       0       0       0       001010001D    279
     110       0       0       1       0                               0D    280
     110     171       0       0       0       0       0       001010001D    281
     110       0       0       1       0                               0D    282
     110     172       0       0       0       0       0       001010001D    283
     110       0       0       1       0                               0D    284
     110     173       0       0       0       0       0       001010001D    285
     110       0       0       1       0                               0D    286
     110     174       0       0       0       0       0       001010001D    287
     110       0       0       1       0                               0D    288
     102     175       0       0       0       0       0       001010001D    289
     102       0       0       1       0                               0D    290
     142     176       0       0       0       0       0       001010001D    291
     142       0       0       1       0                               0D    292
     124     177       0       0       0       0       0       001020001D    293
     124       0       0       1       0                               0D    294
     100     178       0       0       0       0     293       001010001D    295
     100       0       0       1       0                               0D    296
     124     179       0       0       0       0       0       001020001D    297
     124       0       0       1       0                               0D    298
     100     180       0       0       0       0     297       001010001D    299
     100       0       0       1       0                               0D    300
     102     181       0       0       0       0       0       001010001D    301
     102       0       0       1       0                               0D    302
     142     182       0       0       0       0       0       001010001D    303
     142       0       0       1       0                               0D    304
     144     183       0       0   10000       0       0       000000000D    305
     144       0     -67       1       0                PartBody       0D    306
     108     184       0       0       0       0       0       001010001D    307
     108       0     -67       1       0                               0D    308
     110     185       0       0       0       0       0       001010001D    309
     110       0       0       1       0                               0D    310
     110     186       0       0       0       0       0       001010001D    311
     110       0       0       1       0                               0D    312
     110     187       0       0       0       0       0       001010001D    313
     110       0       0       1       0                               0D    314
     110     188       0       0       0       0       0       001010001D    315
     110       0       0       1       0                               0D    316
     110     189       0       0       0       0       0       001010001D    317
     110       0       0       1       0                               0D    318
     126     190       0       0       0       0       0       001010001D    319
     126       0       0       6       0                               0D    320
     126     196       0       0       0       0       0       001010001D    321
     126       0       0       5       0                               0D    322
     102     201       0       0       0       0       0       001010001D    323
     102       0       0       1       0                               0D    324
     142     202       0       0       0       0       0       001010001D    325
     142       0       0       1       0                               0D    326
     144     203       0       0   10000       0       0       000000000D    327
     144       0     -67       1       0                PartBody       0D    328
     108     204       0       0       0       0       0       001010001D    329
     108       0     -67       1       0                               0D    330
     110     205       0       0       0       0       0       001010001D    331
     110       0       0       1       0                               0D    332
     110     206       0       0       0       0       0       001010001D    333
     110       0       0       1       0                               0D    334
     110     207       0       0       0       0       0       001010001D    335
     110       0       0       1       0                               0D    336
     110     208       0       0       0       0       0       001010001D    337
     110       0       0       1       0                               0D    338
     102     209       0       0       0       0       0       001010001D    339
     102       0       0       1       0                               0D    340
     142     210       0       0       0       0       0       001010001D    341
     142       0       0       1       0                               0D    342
     110     211       0       0       0       0       0       001010001D    343
     110       0       0       1       0                               0D    344
     110     212       0       0       0       0       0       001010001D    345
     110       0       0       1       0                               0D    346
     110     213       0       0       0       0       0       001010001D    347
     110       0       0       1       0                               0D    348
     110     214       0       0       0       0       0       001010001D    349
     110       0       0       1       0                               0D    350
     102     215       0       0       0       0       0       001010001D    351
     102       0       0       1       0                               0D    352
     142     216       0       0       0       0       0       001010001D    353
     142       0       0       1       0                               0D    354
     144     217       0       0   10000       0       0       000000000D    355
     144       0     -67       1       0                PartBody       0D    356
     314     218       0       0       0       0       0       000000201D    357
     314       0       0       1       0                               0D    358
     108     219       0       0       0       0       0       001010001D    359
     108       0    -357       1       0                               0D    360
     110     220       0       0       0       0       0       001010001D    361
     110       0       0       1       0                               0D    362
     110     221       0       0       0       0       0       001010001D    363
     110       0       0       1       0                               0D    364
     110     222       0       0       0       0       0       001010001D    365
     110       0       0       1       0                               0D    366
     110     223       0       0       0       0       0       001010001D    367
     110       0       0       1       0                               0D    368
     102     224       0       0       0       0       0       001010001D    369
     102       0       0       1       0                               0D    370
     142     225       0       0       0       0       0       001010001D    371
     142       0       0       1       0                               0D    372
     144     226       0       0   10000       0       0       000000000D    373
     144       0    -357       1       0                PartBody       0D    374
     108     227       0       0       0       0       0       001010001D    375
     108       0    -357       1       0                               0D    376
     110     228       0       0       0       0       0       001010001D    377
     110       0       0       1       0                               0D    378
     110     229       0       0       0       0       0       001010001D    379
     110       0       0       1       0                               0D    380
     110     230       0       0       0       0       0       001010001D    381
     110       0       0       1       0                               0D    382
     110     231       0       0       0       0       0       001010001D    383
     110       0       0       1       0                               0D    384
     102     232       0       0       0       0       0       001010001D    385
     102       0       0       1       0                               0D    386
     142     233       0       0       0       0       0       001010001D    387
     142       0       0       1       0                               0D    388
     144     234       0       0   10000       0       0       000000000D    389
     144       0    -357       1       0                PartBody       0D    390
     108     235       0       0       0       0       0       001010001D    391
     108       0    -357       1       0                               0D    392
     110     236       0       0       0       0       0       001010001D    393
     110       0       0       1       0                               0D    394
     110     237       0       0       0       0       0       001010001D    395
     110       0       0       1       0                               0D    396
     110     238       0       0       0       0       0       001010001D    397
     110       0       0       1       0                               0D    398
     110     239       0       0       0       0       0       001010001D    399
     110       0       0       1       0                               0D    400
     102     240       0       0       0       0       0       001010001D    401
     102       0       0       1       0                               0D    402
     142     241       0       0       0       0       0       001010001D    403
     142       0       0       1       0                               0D    404
     144     242       0       0   10000       0       0       000000000D    405
     144       0    -357       1       0                PartBody       0D    406
     108     243       0       0       0       0       0       001010001D    407
     108       0    -357       1       0                               0D    408
     110     244       0       0       0       0       0       001010001D    409
     110       0       0       1       0                               0D    410
     110     245       0       0       0       0       0       001010001D    411
     110       0       0       1       0                               0D    412
     110     246       0       0       0       0       0       001010001D    413
     110       0       0       1       0                               0D    414
     110     247       0       0       0       0       0       001010001D    415
     110       0       0       1       0                               0D    416
     102     248       0       0       0       0       0       001010001D    417
     102       0       0       1       0                               0D    418
     142     249       0       0       0       0       0       001010001D    419
     142       0       0       1       0                               0D    420
     144     250       0       0   10000       0       0       000000000D    421
     144       0    -357       1       0                PartBody       0D    422
     108     251       0       0       0       0       0       001010001D    423
     108       0    -357       1       0                               0D    424
     110     252       0       0       0       0       0       001010001D    425
     110       0       0       1       0                               0D    426
     110     253       0       0       0       0       0       001010001D    427
     110       0       0       1       0                               0D    428
     110     254       0       0       0       0       0       001010001D    429
     110       0       0       1       0                               0D    430
     110     255       0       0       0       0       0       001010001D    431
     110       0       0       1       0                               0D    432
     102     256       0       0       0       0       0       001010001D    433
     102       0       0       1       0                               0D    434
     142     257       0       0       0       0       0       001010001D    435
     142       0       0       1       0                               0D    436
     144     258       0       0   10000       0       0       000000000D    437
     144       0    -357       1       0                PartBody       0D    438
314,99.21568627,88.23529412,0.3921568627,5HColor,0,0;                  1P      1
108,0.0,-1.0,0.0,13.0,0,0.0,-13.0,0.0,1.0,0,0;                         3P      2
124,1.0,0.0,0.0,0.0,0.0,0.0,-1.0,-13.0,0.0,1.0,0.0,0.0,0,0;            5P      3
100,0.0,0.0,0.0,2.4585,0.0,-2.4585,0.0,0,0;                            7P      4
124,-1.0,0.0,0.0,0.0,0.0,0.0,-1.0,-13.0,0.0,-1.0,0.0,0.0,0,0;          9P      5
100,0.0,0.0,0.0,2.4585,0.0,-2.4585,0.0,0,0;                           11P      6
102,2,7,11,0,0;                                                       13P      7
142,0,3,0,13,2,0,0;                                                   15P      8
144,3,1,0,15,0,0;                                                     17P      9
110,0.0,0.0,0.0,0.0,-1.0,0.0,0,0;                                     19P     10
110,-2.4585,0.0,0.0,-2.4585,-13.0,0.0,0,0;                            21P     11
120,19,21,0.0,6.283185307,0,0;                                        23P     12
110,2.4585,0.0,0.0,2.4585,-13.0,0.0,0,0;                              25P     13
124,1.0,0.0,0.0,0.0,0.0,0.0,1.0,-13.0,0.0,-1.0,0.0,0.0,0,0;           27P     14
100,0.0,0.0,0.0,2.4585,0.0,-2.4585,0.0,0,0;                           29P     15
110,-2.4585,-13.0,0.0,-2.4585,0.0,0.0,0,0;                            31P     16
124,-1.0,0.0,0.0,0.0,0.0,0.0,-1.0,0.0,0.0,-1.0,0.0,0.0,0,0;           33P     17
100,0.0,0.0,0.0,2.4585,0.0,-2.4585,0.0,0,0;                           35P     18
102,4,25,29,31,35,0,0;                                                37P     19
142,0,23,0,37,2,0,0;                                                  39P     20
144,23,1,0,39,0,0;                                                    41P     21
110,0.0,0.0,0.0,0.0,-1.0,0.0,0,0;                                     43P     22
110,2.4585,0.0,0.0,2.4585,-13.0,0.0,0,0;                              45P     23
120,43,45,0.0,6.283185307,0,0;                                        47P     24
110,-2.4585,0.0,0.0,-2.4585,-13.0,0.0,0,0;                            49P     25
124,-1.0,0.0,0.0,0.0,0.0,0.0,1.0,-13.0,0.0,1.0,0.0,0.0,0,0;           51P     26
100,0.0,0.0,0.0,2.4585,0.0,-2.4585,0.0,0,0;                           53P     27
110,2.4585,-13.0,0.0,2.4585,0.0,0.0,0,0;                              55P     28
124,1.0,0.0,0.0,0.0,0.0,0.0,-1.0,0.0,0.0,1.0,0.0,0.0,0,0;             57P     29
100,0.0,0.0,0.0,2.4585,0.0,-2.4585,0.0,0,0;                           59P     30
102,4,49,53,55,59,0,0;                                                61P     31
142,0,47,0,61,2,0,0;                                                  63P     32
144,47,1,0,63,0,0;                                                    65P     33
314,100.0,82.74509804,65.88235294,5HColor,0,0;                        67P     34
108,0.7071067812,0.0,-0.7071067812,-12.37436867,0,-7.0,-25.0,         69P     35
10.5,1.0,0,0;                                                         69P     36
110,-5.0,-50.0,12.5,-7.0,-50.0,10.5,0,0;                              71P     37
110,-7.0,-50.0,10.5,-7.0,0.0,10.5,0,0;                                73P     38
110,-7.0,0.0,10.5,-5.0,0.0,12.5,0,0;                                  75P     39
110,-5.0,0.0,12.5,-5.0,-50.0,12.5,0,0;                                77P     40
102,4,71,73,75,77,0,0;                                                79P     41
142,0,69,0,79,2,0,0;                                                  81P     42
144,69,1,0,81,0,0;                                                    83P     43
108,0.7071067812,0.0,0.7071067812,-12.37436867,0,-7.0,-25.0,          85P     44
-10.5,1.0,0,0;                                                        85P     45
110,-5.0,0.0,-12.5,-7.0,0.0,-10.5,0,0;                                87P     46
110,-7.0,0.0,-10.5,-7.0,-50.0,-10.5,0,0;                              89P     47
110,-7.0,-50.0,-10.5,-5.0,-50.0,-12.5,0,0;                            91P     48
110,-5.0,-50.0,-12.5,-5.0,0.0,-12.5,0,0;                              93P     49
102,4,87,89,91,93,0,0;                                                95P     50
142,0,85,0,95,2,0,0;                                                  97P     51
144,85,1,0,97,0,0;                                                    99P     52
108,0.0,0.0,-1.0,-12.5,0,0.0,-50.0,12.5,1.0,0,0;                     101P     53
110,3.0,-50.0,12.5,-5.0,-50.0,12.5,0,0;                              103P     54
110,-5.0,-50.0,12.5,-5.0,0.0,12.5,0,0;                               105P     55
110,-5.0,0.0,12.5,3.0,0.0,12.5,0,0;                                  107P     56
110,3.0,0.0,12.5,3.0,-30.569737,12.5,0,0;                            109P     57
124,0.9026628554,-0.4303484279,0.0,0.0,0.4303484279,                 111P     58
0.9026628554,0.0,-32.0,0.0,0.0,1.0,12.5,0,0;                         111P     59
100,0.0,0.0,0.0,3.3235,0.0,-3.0,1.430263,0,0;                        113P     60
124,-1.0,0.0,0.0,0.0,0.0,-1.0,0.0,-32.0,0.0,0.0,1.0,12.5,0,0;        115P     61
100,0.0,0.0,0.0,3.3235,0.0,-3.0,1.430263,0,0;                        117P     62
110,3.0,-33.430263,12.5,3.0,-50.0,12.5,0,0;                          119P     63
102,7,103,105,107,109,113,117,119,0,0;                               121P     64
142,0,101,0,121,2,0,0;                                               123P     65
144,101,1,0,123,0,0;                                                 125P     66
108,0.6,0.0,0.8,11.8,0,3.0,-25.0,12.5,1.0,0,0;                       127P     67
110,3.0,-30.569737,12.5,3.0,0.0,12.5,0,0;                            129P     68
110,3.0,0.0,12.5,7.0,0.0,9.5,0,0;                                    131P     69
110,7.0,0.0,9.5,7.0,-50.0,9.5,0,0;                                   133P     70
110,7.0,-50.0,9.5,3.0,-50.0,12.5,0,0;                                135P     71
110,3.0,-50.0,12.5,3.0,-33.430263,12.5,0,0;                          137P     72
126,4,4,0,0,1,0,0.0,0.0,0.0,0.0,0.0,2.12783983,2.12783983,           139P     73
2.12783983,2.12783983,2.12783983,1.0,1.0,1.0,1.0,1.0,3.0,            139P     74
-33.430263,12.5,3.154051253,-33.10713798,12.38446156,                139P     75
3.266453562,-32.75241824,12.30015983,3.3235,-32.37615249,            139P     76
12.257375,3.3235,-32.0,12.257375,0.0,2.12783983,0.0,0.0,0.0,0,0;     139P     77
126,4,4,0,0,1,0,0.0,0.0,0.0,0.0,0.0,2.127739598,2.127739598,         141P     78
2.127739598,2.127739598,2.127739598,1.0,1.0,1.0,1.0,1.0,3.3235,      141P     79
-32.0,12.257375,3.3235,-31.62386523,12.257375,3.266420366,           141P     80
-31.24742305,12.30018473,3.154043997,-30.8928468,12.384467,3.0,      141P     81
-30.569737,12.5,0.0,2.127739598,0.0,0.0,0.0,0,0;                     141P     82
102,7,129,131,133,135,137,139,141,0,0;                               143P     83
142,0,127,0,143,2,0,0;                                               145P     84
144,127,1,0,145,0,0;                                                 147P     85
108,0.0,0.0,1.0,-12.5,0,0.0,0.0,-12.5,1.0,0,0;                       149P     86
110,3.0,0.0,-12.5,-5.0,0.0,-12.5,0,0;                                151P     87
110,-5.0,0.0,-12.5,-5.0,-50.0,-12.5,0,0;                             153P     88
110,-5.0,-50.0,-12.5,3.0,-50.0,-12.5,0,0;                            155P     89
110,3.0,-50.0,-12.5,3.0,-33.430263,-12.5,0,0;                        157P     90
124,0.9026628554,-0.4303484279,0.0,0.0,-0.4303484279,                159P     91
-0.9026628554,0.0,-32.0,0.0,0.0,-1.0,-12.5,0,0;                      159P     92
100,0.0,0.0,0.0,3.3235,0.0,-3.0,1.430263,0,0;                        161P     93
124,-1.0,0.0,0.0,0.0,0.0,1.0,0.0,-32.0,0.0,0.0,-1.0,-12.5,0,0;       163P     94
100,0.0,0.0,0.0,3.3235,0.0,-3.0,1.430263,0,0;                        165P     95
110,3.0,-30.569737,-12.5,3.0,0.0,-12.5,0,0;                          167P     96
102,7,151,153,155,157,161,165,167,0,0;                               169P     97
142,0,149,0,169,2,0,0;                                               171P     98
144,149,1,0,171,0,0;                                                 173P     99
110,0.0,-32.0,12.5,0.0,-32.0,11.5,0,0;                               175P    100
110,3.3235,-32.0,12.5,3.3235,-32.0,-12.5,0,0;                        177P    101
120,175,177,0.0,6.283185307,0,0;                                     179P    102
110,3.3235,-32.0,-12.257375,3.3235,-32.0,12.257375,0,0;              181P    103
126,4,4,0,0,1,0,0.0,0.0,0.0,0.0,0.0,2.12783983,2.12783983,           183P    104
2.12783983,2.12783983,2.12783983,1.0,1.0,1.0,1.0,1.0,3.3235,         183P    105
-32.0,12.257375,3.3235,-32.37615249,12.257375,3.266454999,           183P    106
-32.75242623,12.30015983,3.154051253,-33.10713798,12.38446156,       183P    107
3.0,-33.430263,12.5,0.0,2.12783983,0.0,0.0,0.0,0,0;                  183P    108
124,0.9026628554,-0.4303484279,0.0,0.0,-0.4303484279,                185P    109
-0.9026628554,0.0,-32.0,0.0,0.0,-1.0,12.5,0,0;                       185P    110
100,0.0,0.0,0.0,3.3235,0.0,-3.0,1.430263,0,0;                        187P    111
110,-3.3235,-32.0,12.5,-3.3235,-32.0,-12.5,0,0;                      189P    112
124,-1.0,0.0,0.0,0.0,0.0,-1.0,0.0,-32.0,0.0,0.0,1.0,-12.5,0,0;       191P    113
100,0.0,0.0,0.0,3.3235,0.0,-3.0,1.430263,0,0;                        193P    114
126,4,4,0,0,1,0,0.0,0.0,0.0,0.0,0.0,2.127739598,2.127739598,         195P    115
2.127739598,2.127739598,2.127739598,1.0,1.0,1.0,1.0,1.0,3.0,         195P    116
-33.430263,-12.5,3.154043997,-33.1071532,-12.384467,3.266420356,     195P    117
-32.75257969,-12.30018473,3.3235,-32.37613477,-12.257375,3.3235,     195P    118
-32.0,-12.257375,0.0,2.127739598,0.0,0.0,0.0,0,0;                    195P    119
102,6,181,183,187,189,193,195,0,0;                                   197P    120
142,0,179,0,197,2,0,0;                                               199P    121
144,179,1,0,199,0,0;                                                 201P    122
110,0.0,-32.0,12.5,0.0,-32.0,11.5,0,0;                               203P    123
110,-3.3235,-32.0,12.5,-3.3235,-32.0,-12.5,0,0;                      205P    124
120,203,205,0.0,6.283185307,0,0;                                     207P    125
124,0.9026628554,-0.4303484279,0.0,0.0,0.4303484279,                 209P    126
0.9026628554,0.0,-32.0,0.0,0.0,1.0,-12.5,0,0;                        209P    127
100,0.0,0.0,0.0,3.3235,0.0,-3.0,1.430263,0,0;                        211P    128
110,-3.3235,-32.0,-12.5,-3.3235,-32.0,12.5,0,0;                      213P    129
124,-1.0,0.0,0.0,0.0,0.0,1.0,0.0,-32.0,0.0,0.0,-1.0,12.5,0,0;        215P    130
100,0.0,0.0,0.0,3.3235,0.0,-3.0,1.430263,0,0;                        217P    131
126,4,4,0,0,1,0,0.0,0.0,0.0,0.0,0.0,2.127739598,2.127739598,         219P    132
2.127739598,2.127739598,2.127739598,1.0,1.0,1.0,1.0,1.0,3.0,         219P    133
-30.569737,12.5,3.154043997,-30.8928468,12.384467,3.266420356,       219P    134
-31.24742031,12.30018473,3.3235,-31.62386523,12.257375,3.3235,       219P    135
-32.0,12.257375,0.0,2.127739598,0.0,0.0,0.0,0,0;                     219P    136
110,3.3235,-32.0,12.257375,3.3235,-32.0,-12.257375,0,0;              221P    137
126,4,4,0,0,1,0,0.0,0.0,0.0,0.0,0.0,2.12783983,2.12783983,           223P    138
2.12783983,2.12783983,2.12783983,1.0,1.0,1.0,1.0,1.0,3.3235,         223P    139
-32.0,-12.257375,3.3235,-31.62384751,-12.257375,3.266454999,         223P    140
-31.24757377,-12.30015983,3.154051253,-30.89286202,-12.38446156,     223P    141
3.0,-30.569737,-12.5,0.0,2.12783983,0.0,0.0,0.0,0,0;                 223P    142
102,6,211,213,217,219,221,223,0,0;                                   225P    143
142,0,207,0,225,2,0,0;                                               227P    144
144,207,1,0,227,0,0;                                                 229P    145
108,1.0,0.0,0.0,7.0,0,7.0,0.0,0.0,1.0,0,0;                           231P    146
110,7.0,0.0,-9.5,7.0,-50.0,-9.5,0,0;                                 233P    147
110,7.0,-50.0,-9.5,7.0,-50.0,9.5,0,0;                                235P    148
110,7.0,-50.0,9.5,7.0,0.0,9.5,0,0;                                   237P    149
110,7.0,0.0,9.5,7.0,0.0,-9.5,0,0;                                    239P    150
102,4,233,235,237,239,0,0;                                           241P    151
142,0,231,0,241,2,0,0;                                               243P    152
144,231,1,0,243,0,0;                                                 245P    153
108,0.0,1.0,0.0,-50.0,0,0.0,-50.0,-12.5,1.0,0,0;                     247P    154
110,3.0,-50.0,-12.5,-5.0,-50.0,-12.5,0,0;                            249P    155
110,-5.0,-50.0,-12.5,-7.0,-50.0,-10.5,0,0;                           251P    156
110,-7.0,-50.0,-10.5,-7.0,-50.0,10.5,0,0;                            253P    157
110,-7.0,-50.0,10.5,-5.0,-50.0,12.5,0,0;                             255P    158
110,-5.0,-50.0,12.5,3.0,-50.0,12.5,0,0;                              257P    159
110,3.0,-50.0,12.5,7.0,-50.0,9.5,0,0;                                259P    160
110,7.0,-50.0,9.5,7.0,-50.0,-9.5,0,0;                                261P    161
110,7.0,-50.0,-9.5,3.0,-50.0,-12.5,0,0;                              263P    162
102,8,249,251,253,255,257,259,261,263,0,0;                           265P    163
142,0,247,0,265,2,0,0;                                               267P    164
144,247,1,0,267,0,0;                                                 269P    165
108,0.0,-1.0,0.0,0.0,0,0.0,0.0,12.5,1.0,0,0;                         271P    166
110,7.0,0.0,-9.5,7.0,0.0,9.5,0,0;                                    273P    167
110,7.0,0.0,9.5,3.0,0.0,12.5,0,0;                                    275P    168
110,3.0,0.0,12.5,-5.0,0.0,12.5,0,0;                                  277P    169
110,-5.0,0.0,12.5,-7.0,0.0,10.5,0,0;                                 279P    170
110,-7.0,0.0,10.5,-7.0,0.0,-10.5,0,0;                                281P    171
110,-7.0,0.0,-10.5,-5.0,0.0,-12.5,0,0;                               283P    172
110,-5.0,0.0,-12.5,3.0,0.0,-12.5,0,0;                                285P    173
110,3.0,0.0,-12.5,7.0,0.0,-9.5,0,0;                                  287P    174
102,8,273,275,277,279,281,283,285,287,0,0;                           289P    175
142,0,271,0,289,2,0,0;                                               291P    176
124,-1.0,0.0,0.0,0.0,0.0,0.0,1.0,0.0,0.0,1.0,0.0,0.0,0,0;            293P    177
100,0.0,0.0,0.0,2.4585,0.0,-2.4585,0.0,0,0;                          295P    178
124,1.0,0.0,0.0,0.0,0.0,0.0,1.0,0.0,0.0,-1.0,0.0,0.0,0,0;            297P    179
100,0.0,0.0,0.0,2.4585,0.0,-2.4585,0.0,0,0;                          299P    180
102,2,295,299,0,0;                                                   301P    181
142,0,271,0,301,2,0,0;                                               303P    182
144,271,1,1,291,303,0,0;                                             305P    183
108,0.6,0.0,-0.8,11.8,0,3.0,-25.0,-12.5,1.0,0,0;                     307P    184
110,3.0,-33.430263,-12.5,3.0,-50.0,-12.5,0,0;                        309P    185
110,3.0,-50.0,-12.5,7.0,-50.0,-9.5,0,0;                              311P    186
110,7.0,-50.0,-9.5,7.0,0.0,-9.5,0,0;                                 313P    187
110,7.0,0.0,-9.5,3.0,0.0,-12.5,0,0;                                  315P    188
110,3.0,0.0,-12.5,3.0,-30.569737,-12.5,0,0;                          317P    189
126,4,4,0,0,1,0,0.0,0.0,0.0,0.0,0.0,2.12783983,2.12783983,           319P    190
2.12783983,2.12783983,2.12783983,1.0,1.0,1.0,1.0,1.0,3.0,            319P    191
-30.569737,-12.5,3.154051253,-30.89286202,-12.38446156,              319P    192
3.266453562,-31.24758176,-12.30015983,3.3235,-31.62384751,           319P    193
-12.257375,3.3235,-32.0,-12.257375,0.0,2.12783983,0.0,0.0,0.0,0,     319P    194
0;                                                                   319P    195
126,4,4,0,0,1,0,0.0,0.0,0.0,0.0,0.0,2.127739598,2.127739598,         321P    196
2.127739598,2.127739598,2.127739598,1.0,1.0,1.0,1.0,1.0,3.3235,      321P    197
-32.0,-12.257375,3.3235,-32.37613477,-12.257375,3.266420366,         321P    198
-32.75257695,-12.30018473,3.154043997,-33.1071532,-12.384467,        321P    199
3.0,-33.430263,-12.5,0.0,2.127739598,0.0,0.0,0.0,0,0;                321P    200
102,7,309,311,313,315,317,319,321,0,0;                               323P    201
142,0,307,0,323,2,0,0;                                               325P    202
144,307,1,0,325,0,0;                                                 327P    203
108,1.0,0.0,0.0,-7.0,0,-7.0,0.0,0.0,1.0,0,0;                         329P    204
110,-7.0,0.0,-10.5,-7.0,0.0,10.5,0,0;                                331P    205
110,-7.0,0.0,10.5,-7.0,-50.0,10.5,0,0;                               333P    206
110,-7.0,-50.0,10.5,-7.0,-50.0,-10.5,0,0;                            335P    207
110,-7.0,-50.0,-10.5,-7.0,0.0,-10.5,0,0;                             337P    208
102,4,331,333,335,337,0,0;                                           339P    209
142,0,329,0,339,2,0,0;                                               341P    210
110,-7.0,-8.0,-2.6,-7.0,-8.0,2.6,0,0;                                343P    211
110,-7.0,-8.0,2.6,-7.0,-4.0,2.6,0,0;                                 345P    212
110,-7.0,-4.0,2.6,-7.0,-4.0,-2.6,0,0;                                347P    213
110,-7.0,-4.0,-2.6,-7.0,-8.0,-2.6,0,0;                               349P    214
102,4,343,345,347,349,0,0;                                           351P    215
142,0,329,0,351,2,0,0;                                               353P    216
144,329,1,1,341,353,0,0;                                             355P    217
314,37.25490196,0.0,0.0,5HColor,0,0;                                 357P    218
108,0.0,0.0,1.0,2.6,0,-7.0,-4.0,2.6,1.0,0,0;                         359P    219
110,-3.0,-8.0,2.6,-3.0,-4.0,2.6,0,0;                                 361P    220
110,-3.0,-4.0,2.6,-7.0,-4.0,2.6,0,0;                                 363P    221
110,-7.0,-4.0,2.6,-7.0,-8.0,2.6,0,0;                                 365P    222
110,-7.0,-8.0,2.6,-3.0,-8.0,2.6,0,0;                                 367P    223
102,4,361,363,365,367,0,0;                                           369P    224
142,0,359,0,369,2,0,0;                                               371P    225
144,359,1,0,371,0,0;                                                 373P    226
108,-1.0,0.0,0.0,3.0,0,-3.0,0.0,0.0,1.0,0,0;                         375P    227
110,-3.0,-8.0,2.6,-3.0,-8.0,-2.6,0,0;                                377P    228
110,-3.0,-8.0,-2.6,-3.0,-4.0,-2.6,0,0;                               379P    229
110,-3.0,-4.0,-2.6,-3.0,-4.0,2.6,0,0;                                381P    230
110,-3.0,-4.0,2.6,-3.0,-8.0,2.6,0,0;                                 383P    231
102,4,377,379,381,383,0,0;                                           385P    232
142,0,375,0,385,2,0,0;                                               387P    233
144,375,1,0,387,0,0;                                                 389P    234
108,0.0,1.0,0.0,-4.0,0,-7.0,-4.0,-2.6,1.0,0,0;                       391P    235
110,-3.0,-4.0,2.6,-3.0,-4.0,-2.6,0,0;                                393P    236
110,-3.0,-4.0,-2.6,-7.0,-4.0,-2.6,0,0;                               395P    237
110,-7.0,-4.0,-2.6,-7.0,-4.0,2.6,0,0;                                397P    238
110,-7.0,-4.0,2.6,-3.0,-4.0,2.6,0,0;                                 399P    239
102,4,393,395,397,399,0,0;                                           401P    240
142,0,391,0,401,2,0,0;                                               403P    241
144,391,1,0,403,0,0;                                                 405P    242
108,0.0,-1.0,0.0,8.0,0,-7.0,-8.0,2.6,1.0,0,0;                        407P    243
110,-3.0,-8.0,-2.6,-3.0,-8.0,2.6,0,0;                                409P    244
110,-3.0,-8.0,2.6,-7.0,-8.0,2.6,0,0;                                 411P    245
110,-7.0,-8.0,2.6,-7.0,-8.0,-2.6,0,0;                                413P    246
110,-7.0,-8.0,-2.6,-3.0,-8.0,-2.6,0,0;                               415P    247
102,4,409,411,413,415,0,0;                                           417P    248
142,0,407,0,417,2,0,0;                                               419P    249
144,407,1,0,419,0,0;                                                 421P    250
108,0.0,0.0,-1.0,2.6,0,-7.0,-8.0,-2.6,1.0,0,0;                       423P    251
110,-3.0,-4.0,-2.6,-3.0,-8.0,-2.6,0,0;                               425P    252
110,-3.0,-8.0,-2.6,-7.0,-8.0,-2.6,0,0;                               427P    253
110,-7.0,-8.0,-2.6,-7.0,-4.0,-2.6,0,0;                               429P    254
110,-7.0,-4.0,-2.6,-3.0,-4.0,-2.6,0,0;                               431P    255
102,4,425,427,429,431,0,0;                                           433P    256
142,0,423,0,433,2,0,0;                                               435P    257
144,423,1,0,435,0,0;                                                 437P    258
S      1G      5D    438P    258                                        T      1
