START RECORD GO HERE.                                                   S      1
1H,,1H;,25H1074.000.013.000.ARANDELA,29H1074.000.013.000.ARANDELA.igs,  G      1
62HDASSAULT SYSTEMES CATIA Version 5-6 Release 2018 - www.3ds.com,35HV5-G      2
6R2018_5.28.6.0.03-10-2020.20.00,32,75,6,75,15,25H1074.000.013.000.ARANDG      3
ELA,1.0,2,2HMM,1000,1.0,15H20251008.092342,0.001,10000.0,2HPc,15HDESKTOPG      4
-CAESKE4,11,0,15H20251008.092342,;                                      G      5
     314       1       0       0       0       0       0       000000201D      1
     314       0       0       1       0                               0D      2
     110       2       0       0       0       0       0       001010001D      3
     110       0       0       1       0                               0D      4
     110       3       0       0       0       0       0       001010001D      5
     110       0       0       1       0                               0D      6
     120       4       0       0       0       0       0       001010001D      7
     120       0      -1       1       0                               0D      8
     124       5       0       0       0       0       0       001020001D      9
     124       0       0       1       0                               0D     10
     100       6       0       0       0       0       9       001010001D     11
     100       0       0       1       0                               0D     12
     110       7       0       0       0       0       0       001010001D     13
     110       0       0       1       0                               0D     14
     124       8       0       0       0       0       0       001020001D     15
     124       0       0       1       0                               0D     16
     100       9       0       0       0       0      15       001010001D     17
     100       0       0       1       0                               0D     18
     110      10       0       0       0       0       0       001010001D     19
     110       0       0       1       0                               0D     20
     102      11       0       0       0       0       0       001010001D     21
     102       0       0       1       0                               0D     22
     142      12       0       0       0       0       0       001010001D     23
     142       0       0       1       0                               0D     24
     144      13       0       0   10000       0       0       000000000D     25
     144       0      -1       1       0                PartBody       0D     26
     110      14       0       0       0       0       0       001010001D     27
     110       0       0       1       0                               0D     28
     110      15       0       0       0       0       0       001010001D     29
     110       0       0       1       0                               0D     30
     120      16       0       0       0       0       0       001010001D     31
     120       0      -1       1       0                               0D     32
     124      17       0       0       0       0       0       001020001D     33
     124       0       0       1       0                               0D     34
     100      18       0       0       0       0      33       001010001D     35
     100       0       0       1       0                               0D     36
     110      19       0       0       0       0       0       001010001D     37
     110       0       0       1       0                               0D     38
     124      20       0       0       0       0       0       001020001D     39
     124       0       0       1       0                               0D     40
     100      21       0       0       0       0      39       001010001D     41
     100       0       0       1       0                               0D     42
     110      22       0       0       0       0       0       001010001D     43
     110       0       0       1       0                               0D     44
     102      23       0       0       0       0       0       001010001D     45
     102       0       0       1       0                               0D     46
     142      24       0       0       0       0       0       001010001D     47
     142       0       0       1       0                               0D     48
     144      25       0       0   10000       0       0       000000000D     49
     144       0      -1       1       0                PartBody       0D     50
     110      26       0       0       0       0       0       001010001D     51
     110       0       0       1       0                               0D     52
     110      27       0       0       0       0       0       001010001D     53
     110       0       0       1       0                               0D     54
     120      28       0       0       0       0       0       001010001D     55
     120       0      -1       1       0                               0D     56
     110      29       0       0       0       0       0       001010001D     57
     110       0       0       1       0                               0D     58
     124      30       0       0       0       0       0       001020001D     59
     124       0       0       1       0                               0D     60
     100      31       0       0       0       0      59       001010001D     61
     100       0       0       1       0                               0D     62
     110      32       0       0       0       0       0       001010001D     63
     110       0       0       1       0                               0D     64
     124      33       0       0       0       0       0       001020001D     65
     124       0       0       1       0                               0D     66
     100      34       0       0       0       0      65       001010001D     67
     100       0       0       1       0                               0D     68
     102      35       0       0       0       0       0       001010001D     69
     102       0       0       1       0                               0D     70
     142      36       0       0       0       0       0       001010001D     71
     142       0       0       1       0                               0D     72
     144      37       0       0   10000       0       0       000000000D     73
     144       0      -1       1       0                PartBody       0D     74
     110      38       0       0       0       0       0       001010001D     75
     110       0       0       1       0                               0D     76
     110      39       0       0       0       0       0       001010001D     77
     110       0       0       1       0                               0D     78
     120      40       0       0       0       0       0       001010001D     79
     120       0      -1       1       0                               0D     80
     110      41       0       0       0       0       0       001010001D     81
     110       0       0       1       0                               0D     82
     124      42       0       0       0       0       0       001020001D     83
     124       0       0       1       0                               0D     84
     100      43       0       0       0       0      83       001010001D     85
     100       0       0       1       0                               0D     86
     110      44       0       0       0       0       0       001010001D     87
     110       0       0       1       0                               0D     88
     124      45       0       0       0       0       0       001020001D     89
     124       0       0       1       0                               0D     90
     100      46       0       0       0       0      89       001010001D     91
     100       0       0       1       0                               0D     92
     102      47       0       0       0       0       0       001010001D     93
     102       0       0       1       0                               0D     94
     142      48       0       0       0       0       0       001010001D     95
     142       0       0       1       0                               0D     96
     144      49       0       0   10000       0       0       000000000D     97
     144       0      -1       1       0                PartBody       0D     98
     108      50       0       0       0       0       0       001010001D     99
     108       0      -1       1       0                               0D    100
     124      51       0       0       0       0       0       001020001D    101
     124       0       0       1       0                               0D    102
     100      52       0       0       0       0     101       001010001D    103
     100       0       0       1       0                               0D    104
     124      53       0       0       0       0       0       001020001D    105
     124       0       0       1       0                               0D    106
     100      54       0       0       0       0     105       001010001D    107
     100       0       0       1       0                               0D    108
     102      55       0       0       0       0       0       001010001D    109
     102       0       0       1       0                               0D    110
     142      56       0       0       0       0       0       001010001D    111
     142       0       0       1       0                               0D    112
     124      57       0       0       0       0       0       001020001D    113
     124       0       0       1       0                               0D    114
     100      58       0       0       0       0     113       001010001D    115
     100       0       0       1       0                               0D    116
     124      59       0       0       0       0       0       001020001D    117
     124       0       0       1       0                               0D    118
     100      60       0       0       0       0     117       001010001D    119
     100       0       0       1       0                               0D    120
     102      61       0       0       0       0       0       001010001D    121
     102       0       0       1       0                               0D    122
     142      62       0       0       0       0       0       001010001D    123
     142       0       0       1       0                               0D    124
     144      63       0       0   10000       0       0       000000000D    125
     144       0      -1       1       0                PartBody       0D    126
     108      64       0       0       0       0       0       001010001D    127
     108       0      -1       1       0                               0D    128
     124      65       0       0       0       0       0       001020001D    129
     124       0       0       1       0                               0D    130
     100      66       0       0       0       0     129       001010001D    131
     100       0       0       1       0                               0D    132
     124      67       0       0       0       0       0       001020001D    133
     124       0       0       1       0                               0D    134
     100      68       0       0       0       0     133       001010001D    135
     100       0       0       1       0                               0D    136
     102      69       0       0       0       0       0       001010001D    137
     102       0       0       1       0                               0D    138
     142      70       0       0       0       0       0       001010001D    139
     142       0       0       1       0                               0D    140
     124      71       0       0       0       0       0       001020001D    141
     124       0       0       1       0                               0D    142
     100      72       0       0       0       0     141       001010001D    143
     100       0       0       1       0                               0D    144
     124      73       0       0       0       0       0       001020001D    145
     124       0       0       1       0                               0D    146
     100      74       0       0       0       0     145       001010001D    147
     100       0       0       1       0                               0D    148
     102      75       0       0       0       0       0       001010001D    149
     102       0       0       1       0                               0D    150
     142      76       0       0       0       0       0       001010001D    151
     142       0       0       1       0                               0D    152
     144      77       0       0   10000       0       0       000000000D    153
     144       0      -1       1       0                PartBody       0D    154
314,82.74509804,69.80392157,49.01960784,5HColor,0,0;                   1P      1
110,0.5,0.0,0.0,1.5,0.0,0.0,0,0;                                       3P      2
110,0.0,12.5,0.0,1.0,12.5,0.0,0,0;                                     5P      3
120,3,5,0.0,6.283185307,0,0;                                           7P      4
124,0.0,0.0,1.0,1.0,1.0,0.0,0.0,0.0,0.0,1.0,0.0,0.0,0,0;               9P      5
100,0.0,0.0,0.0,12.5,0.0,-12.5,0.0,0,0;                               11P      6
110,1.0,-12.5,0.0,0.0,-12.5,0.0,0,0;                                  13P      7
124,0.0,0.0,-1.0,0.0,-1.0,0.0,0.0,0.0,0.0,1.0,0.0,0.0,0,0;            15P      8
100,0.0,0.0,0.0,12.5,0.0,-12.5,0.0,0,0;                               17P      9
110,0.0,12.5,0.0,1.0,12.5,0.0,0,0;                                    19P     10
102,4,11,13,17,19,0,0;                                                21P     11
142,0,7,0,21,2,0,0;                                                   23P     12
144,7,1,0,23,0,0;                                                     25P     13
110,0.5,0.0,0.0,1.5,0.0,0.0,0,0;                                      27P     14
110,0.0,-12.5,0.0,1.0,-12.5,0.0,0,0;                                  29P     15
120,27,29,0.0,6.283185307,0,0;                                        31P     16
124,0.0,0.0,1.0,1.0,-1.0,0.0,0.0,0.0,0.0,-1.0,0.0,0.0,0,0;            33P     17
100,0.0,0.0,0.0,12.5,0.0,-12.5,0.0,0,0;                               35P     18
110,1.0,12.5,0.0,0.0,12.5,0.0,0,0;                                    37P     19
124,0.0,0.0,-1.0,0.0,1.0,0.0,0.0,0.0,0.0,-1.0,0.0,0.0,0,0;            39P     20
100,0.0,0.0,0.0,12.5,0.0,-12.5,0.0,0,0;                               41P     21
110,0.0,-12.5,0.0,1.0,-12.5,0.0,0,0;                                  43P     22
102,4,35,37,41,43,0,0;                                                45P     23
142,0,31,0,45,2,0,0;                                                  47P     24
144,31,1,0,47,0,0;                                                    49P     25
110,0.5,0.0,0.0,1.5,0.0,0.0,0,0;                                      51P     26
110,0.0,-8.0,0.0,1.0,-8.0,0.0,0,0;                                    53P     27
120,51,53,0.0,6.283185307,0,0;                                        55P     28
110,1.0,-8.0,0.0,0.0,-8.0,0.0,0,0;                                    57P     29
124,0.0,0.0,1.0,0.0,-1.0,0.0,0.0,0.0,0.0,-1.0,0.0,0.0,0,0;            59P     30
100,0.0,0.0,0.0,8.0,0.0,-8.0,0.0,0,0;                                 61P     31
110,0.0,8.0,0.0,1.0,8.0,0.0,0,0;                                      63P     32
124,0.0,0.0,-1.0,1.0,1.0,0.0,0.0,0.0,0.0,-1.0,0.0,0.0,0,0;            65P     33
100,0.0,0.0,0.0,8.0,0.0,-8.0,0.0,0,0;                                 67P     34
102,4,57,61,63,67,0,0;                                                69P     35
142,0,55,0,69,2,0,0;                                                  71P     36
144,55,1,0,71,0,0;                                                    73P     37
110,0.5,0.0,0.0,1.5,0.0,0.0,0,0;                                      75P     38
110,0.0,8.0,0.0,1.0,8.0,0.0,0,0;                                      77P     39
120,75,77,0.0,6.283185307,0,0;                                        79P     40
110,1.0,8.0,0.0,0.0,8.0,0.0,0,0;                                      81P     41
124,0.0,0.0,1.0,0.0,1.0,0.0,0.0,0.0,0.0,1.0,0.0,0.0,0,0;              83P     42
100,0.0,0.0,0.0,8.0,0.0,-8.0,0.0,0,0;                                 85P     43
110,0.0,-8.0,0.0,1.0,-8.0,0.0,0,0;                                    87P     44
124,0.0,0.0,-1.0,1.0,-1.0,0.0,0.0,0.0,0.0,1.0,0.0,0.0,0,0;            89P     45
100,0.0,0.0,0.0,8.0,0.0,-8.0,0.0,0,0;                                 91P     46
102,4,81,85,87,91,0,0;                                                93P     47
142,0,79,0,93,2,0,0;                                                  95P     48
144,79,1,0,95,0,0;                                                    97P     49
108,1.0,0.0,0.0,0.0,0,0.0,0.0,0.0,1.0,0,0;                            99P     50
124,0.0,0.0,1.0,0.0,1.0,0.0,0.0,0.0,0.0,1.0,0.0,0.0,0,0;             101P     51
100,0.0,0.0,0.0,12.5,0.0,-12.5,0.0,0,0;                              103P     52
124,0.0,0.0,1.0,0.0,-1.0,0.0,0.0,0.0,0.0,-1.0,0.0,0.0,0,0;           105P     53
100,0.0,0.0,0.0,12.5,0.0,-12.5,0.0,0,0;                              107P     54
102,2,103,107,0,0;                                                   109P     55
142,0,99,0,109,2,0,0;                                                111P     56
124,0.0,0.0,-1.0,0.0,1.0,0.0,0.0,0.0,0.0,-1.0,0.0,0.0,0,0;           113P     57
100,0.0,0.0,0.0,8.0,0.0,-8.0,0.0,0,0;                                115P     58
124,0.0,0.0,-1.0,0.0,-1.0,0.0,0.0,0.0,0.0,1.0,0.0,0.0,0,0;           117P     59
100,0.0,0.0,0.0,8.0,0.0,-8.0,0.0,0,0;                                119P     60
102,2,115,119,0,0;                                                   121P     61
142,0,99,0,121,2,0,0;                                                123P     62
144,99,1,1,111,123,0,0;                                              125P     63
108,1.0,0.0,0.0,1.0,0,1.0,0.0,0.0,1.0,0,0;                           127P     64
124,0.0,0.0,-1.0,1.0,1.0,0.0,0.0,0.0,0.0,-1.0,0.0,0.0,0,0;           129P     65
100,0.0,0.0,0.0,12.5,0.0,-12.5,0.0,0,0;                              131P     66
124,0.0,0.0,-1.0,1.0,-1.0,0.0,0.0,0.0,0.0,1.0,0.0,0.0,0,0;           133P     67
100,0.0,0.0,0.0,12.5,0.0,-12.5,0.0,0,0;                              135P     68
102,2,131,135,0,0;                                                   137P     69
142,0,127,0,137,2,0,0;                                               139P     70
124,0.0,0.0,1.0,1.0,1.0,0.0,0.0,0.0,0.0,1.0,0.0,0.0,0,0;             141P     71
100,0.0,0.0,0.0,8.0,0.0,-8.0,0.0,0,0;                                143P     72
124,0.0,0.0,1.0,1.0,-1.0,0.0,0.0,0.0,0.0,-1.0,0.0,0.0,0,0;           145P     73
100,0.0,0.0,0.0,8.0,0.0,-8.0,0.0,0,0;                                147P     74
102,2,143,147,0,0;                                                   149P     75
142,0,127,0,149,2,0,0;                                               151P     76
144,127,1,1,139,151,0,0;                                             153P     77
S      1G      5D    154P     77                                        T      1
