START RECORD GO HERE.                                                   S      1
1H,,1H;,24H1074.000.027.000.HUSILLO,28H1074.000.027.000.HUSILLO.igs,62HDG      1
ASSAULT SYSTEMES CATIA Version 5-6 Release 2018 - www.3ds.com,35HV5-6R20G      2
18_5.28.6.0.03-10-2020.20.00,32,75,6,75,15,24H1074.000.027.000.HUSILLO, G      3
1.0,2,2HMM,1000,1.0,15H20251008.092241,0.001,10000.0,2HPc,15HDESKTOP-CAEG      4
SKE4,11,0,15H20251008.092241,;                                          G      5
     110       1       0       0       0       0       0       001010001D      1
     110       0       0       1       0                               0D      2
     110       2       0       0       0       0       0       001010001D      3
     110       0       0       2       0                               0D      4
     120       4       0       0       0       0       0       001010001D      5
     120       0       5       1       0                               0D      6
     110       5       0       0       0       0       0       001010001D      7
     110       0       0       2       0                               0D      8
     124       7       0       0       0       0       0       001020001D      9
     124       0       0       2       0                               0D     10
     100       9       0       0       0       0       9       001010001D     11
     100       0       0       1       0                               0D     12
     110      10       0       0       0       0       0       001010001D     13
     110       0       0       2       0                               0D     14
     124      12       0       0       0       0       0       001020001D     15
     124       0       0       2       0                               0D     16
     100      14       0       0       0       0      15       001010001D     17
     100       0       0       1       0                               0D     18
     102      15       0       0       0       0       0       001010001D     19
     102       0       0       1       0                               0D     20
     142      16       0       0       0       0       0       001010001D     21
     142       0       0       1       0                               0D     22
     144      17       0       0   10000       0       0       000000000D     23
     144       0       5       1       0                PartBody       0D     24
     110      18       0       0       0       0       0       001010001D     25
     110       0       0       1       0                               0D     26
     110      19       0       0       0       0       0       001010001D     27
     110       0       0       2       0                               0D     28
     120      21       0       0       0       0       0       001010001D     29
     120       0       5       1       0                               0D     30
     110      22       0       0       0       0       0       001010001D     31
     110       0       0       2       0                               0D     32
     124      24       0       0       0       0       0       001020001D     33
     124       0       0       2       0                               0D     34
     100      26       0       0       0       0      33       001010001D     35
     100       0       0       1       0                               0D     36
     110      27       0       0       0       0       0       001010001D     37
     110       0       0       2       0                               0D     38
     124      29       0       0       0       0       0       001020001D     39
     124       0       0       2       0                               0D     40
     100      31       0       0       0       0      39       001010001D     41
     100       0       0       1       0                               0D     42
     102      32       0       0       0       0       0       001010001D     43
     102       0       0       1       0                               0D     44
     142      33       0       0       0       0       0       001010001D     45
     142       0       0       1       0                               0D     46
     144      34       0       0   10000       0       0       000000000D     47
     144       0       5       1       0                PartBody       0D     48
     314      35       0       0       0       0       0       000000201D     49
     314       0       0       1       0                               0D     50
     108      36       0       0       0       0       0       001010001D     51
     108       0     -49       1       0                               0D     52
     124      37       0       0       0       0       0       001020001D     53
     124       0       0       2       0                               0D     54
     100      39       0       0       0       0      53       001010001D     55
     100       0       0       1       0                               0D     56
     124      40       0       0       0       0       0       001020001D     57
     124       0       0       2       0                               0D     58
     100      42       0       0       0       0      57       001010001D     59
     100       0       0       1       0                               0D     60
     102      43       0       0       0       0       0       001010001D     61
     102       0       0       1       0                               0D     62
     142      44       0       0       0       0       0       001010001D     63
     142       0       0       1       0                               0D     64
     124      45       0       0       0       0       0       001020001D     65
     124       0       0       2       0                               0D     66
     100      47       0       0       0       0      65       001010001D     67
     100       0       0       1       0                               0D     68
     124      48       0       0       0       0       0       001020001D     69
     124       0       0       2       0                               0D     70
     100      50       0       0       0       0      69       001010001D     71
     100       0       0       1       0                               0D     72
     102      51       0       0       0       0       0       001010001D     73
     102       0       0       1       0                               0D     74
     142      52       0       0       0       0       0       001010001D     75
     142       0       0       1       0                               0D     76
     144      53       0       0   10000       0       0       000000000D     77
     144       0     -49       1       0                PartBody       0D     78
     108      54       0       0       0       0       0       001010001D     79
     108       0     -49       1       0                               0D     80
     124      55       0       0       0       0       0       001020001D     81
     124       0       0       2       0                               0D     82
     100      57       0       0       0       0      81       001010001D     83
     100       0       0       1       0                               0D     84
     124      58       0       0       0       0       0       001020001D     85
     124       0       0       2       0                               0D     86
     100      60       0       0       0       0      85       001010001D     87
     100       0       0       1       0                               0D     88
     102      61       0       0       0       0       0       001010001D     89
     102       0       0       1       0                               0D     90
     142      62       0       0       0       0       0       001010001D     91
     142       0       0       1       0                               0D     92
     124      63       0       0       0       0       0       001020001D     93
     124       0       0       2       0                               0D     94
     100      65       0       0       0       0      93       001010001D     95
     100       0       0       1       0                               0D     96
     124      66       0       0       0       0       0       001020001D     97
     124       0       0       2       0                               0D     98
     100      68       0       0       0       0      97       001010001D     99
     100       0       0       1       0                               0D    100
     102      69       0       0       0       0       0       001010001D    101
     102       0       0       1       0                               0D    102
     142      70       0       0       0       0       0       001010001D    103
     142       0       0       1       0                               0D    104
     144      71       0       0   10000       0       0       000000000D    105
     144       0     -49       1       0                PartBody       0D    106
     110      72       0       0       0       0       0       001010001D    107
     110       0       0       1       0                               0D    108
     110      73       0       0       0       0       0       001010001D    109
     110       0       0       2       0                               0D    110
     120      75       0       0       0       0       0       001010001D    111
     120       0     -49       1       0                               0D    112
     124      76       0       0       0       0       0       001020001D    113
     124       0       0       2       0                               0D    114
     100      78       0       0       0       0     113       001010001D    115
     100       0       0       1       0                               0D    116
     110      79       0       0       0       0       0       001010001D    117
     110       0       0       2       0                               0D    118
     124      81       0       0       0       0       0       001020001D    119
     124       0       0       2       0                               0D    120
     100      83       0       0       0       0     119       001010001D    121
     100       0       0       1       0                               0D    122
     110      84       0       0       0       0       0       001010001D    123
     110       0       0       2       0                               0D    124
     102      86       0       0       0       0       0       001010001D    125
     102       0       0       1       0                               0D    126
     142      87       0       0       0       0       0       001010001D    127
     142       0       0       1       0                               0D    128
     144      88       0       0   10000       0       0       000000000D    129
     144       0     -49       1       0                PartBody       0D    130
     110      89       0       0       0       0       0       001010001D    131
     110       0       0       1       0                               0D    132
     110      90       0       0       0       0       0       001010001D    133
     110       0       0       2       0                               0D    134
     120      92       0       0       0       0       0       001010001D    135
     120       0     -49       1       0                               0D    136
     124      93       0       0       0       0       0       001020001D    137
     124       0       0       2       0                               0D    138
     100      95       0       0       0       0     137       001010001D    139
     100       0       0       1       0                               0D    140
     110      96       0       0       0       0       0       001010001D    141
     110       0       0       2       0                               0D    142
     124      98       0       0       0       0       0       001020001D    143
     124       0       0       2       0                               0D    144
     100     100       0       0       0       0     143       001010001D    145
     100       0       0       1       0                               0D    146
     110     101       0       0       0       0       0       001010001D    147
     110       0       0       2       0                               0D    148
     102     103       0       0       0       0       0       001010001D    149
     102       0       0       1       0                               0D    150
     142     104       0       0       0       0       0       001010001D    151
     142       0       0       1       0                               0D    152
     144     105       0       0   10000       0       0       000000000D    153
     144       0     -49       1       0                PartBody       0D    154
     108     106       0       0       0       0       0       001010001D    155
     108       0     -49       1       0                               0D    156
     124     107       0       0       0       0       0       001020001D    157
     124       0       0       2       0                               0D    158
     100     109       0       0       0       0     157       001010001D    159
     100       0       0       1       0                               0D    160
     124     110       0       0       0       0       0       001020001D    161
     124       0       0       2       0                               0D    162
     100     112       0       0       0       0     161       001010001D    163
     100       0       0       1       0                               0D    164
     102     113       0       0       0       0       0       001010001D    165
     102       0       0       1       0                               0D    166
     142     114       0       0       0       0       0       001010001D    167
     142       0       0       1       0                               0D    168
     144     115       0       0   10000       0       0       000000000D    169
     144       0     -49       1       0                PartBody       0D    170
     110     116       0       0       0       0       0       001010001D    171
     110       0       0       1       0                               0D    172
     110     117       0       0       0       0       0       001010001D    173
     110       0       0       2       0                               0D    174
     120     119       0       0       0       0       0       001010001D    175
     120       0     -49       1       0                               0D    176
     124     120       0       0       0       0       0       001020001D    177
     124       0       0       2       0                               0D    178
     100     122       0       0       0       0     177       001010001D    179
     100       0       0       1       0                               0D    180
     110     123       0       0       0       0       0       001010001D    181
     110       0       0       2       0                               0D    182
     124     125       0       0       0       0       0       001020001D    183
     124       0       0       2       0                               0D    184
     100     127       0       0       0       0     183       001010001D    185
     100       0       0       1       0                               0D    186
     110     128       0       0       0       0       0       001010001D    187
     110       0       0       2       0                               0D    188
     102     130       0       0       0       0       0       001010001D    189
     102       0       0       1       0                               0D    190
     142     131       0       0       0       0       0       001010001D    191
     142       0       0       1       0                               0D    192
     144     132       0       0   10000       0       0       000000000D    193
     144       0     -49       1       0                PartBody       0D    194
     110     133       0       0       0       0       0       001010001D    195
     110       0       0       1       0                               0D    196
     110     134       0       0       0       0       0       001010001D    197
     110       0       0       2       0                               0D    198
     120     136       0       0       0       0       0       001010001D    199
     120       0     -49       1       0                               0D    200
     124     137       0       0       0       0       0       001020001D    201
     124       0       0       2       0                               0D    202
     100     139       0       0       0       0     201       001010001D    203
     100       0       0       1       0                               0D    204
     110     140       0       0       0       0       0       001010001D    205
     110       0       0       2       0                               0D    206
     124     142       0       0       0       0       0       001020001D    207
     124       0       0       2       0                               0D    208
     100     144       0       0       0       0     207       001010001D    209
     100       0       0       1       0                               0D    210
     110     145       0       0       0       0       0       001010001D    211
     110       0       0       2       0                               0D    212
     102     147       0       0       0       0       0       001010001D    213
     102       0       0       1       0                               0D    214
     142     148       0       0       0       0       0       001010001D    215
     142       0       0       1       0                               0D    216
     144     149       0       0   10000       0       0       000000000D    217
     144       0     -49       1       0                PartBody       0D    218
     110     150       0       0       0       0       0       001010001D    219
     110       0       0       1       0                               0D    220
     110     151       0       0       0       0       0       001010001D    221
     110       0       0       1       0                               0D    222
     120     152       0       0       0       0       0       001010001D    223
     120       0     -49       1       0                               0D    224
     124     153       0       0       0       0       0       001020001D    225
     124       0       0       2       0                               0D    226
     100     155       0       0       0       0     225       001010001D    227
     100       0       0       1       0                               0D    228
     110     156       0       0       0       0       0       001010001D    229
     110       0       0       2       0                               0D    230
     124     158       0       0       0       0       0       001020001D    231
     124       0       0       2       0                               0D    232
     100     160       0       0       0       0     231       001010001D    233
     100       0       0       1       0                               0D    234
     126     161       0       0       0       0       0       001010001D    235
     126       0       0       4       0                               0D    236
     102     165       0       0       0       0       0       001010001D    237
     102       0       0       1       0                               0D    238
     142     166       0       0       0       0       0       001010001D    239
     142       0       0       1       0                               0D    240
     144     167       0       0   10000       0       0       000000000D    241
     144       0     -49       1       0                PartBody       0D    242
     110     168       0       0       0       0       0       001010001D    243
     110       0       0       1       0                               0D    244
     110     169       0       0       0       0       0       001010001D    245
     110       0       0       2       0                               0D    246
     120     171       0       0       0       0       0       001010001D    247
     120       0     -49       1       0                               0D    248
     124     172       0       0       0       0       0       001020001D    249
     124       0       0       2       0                               0D    250
     100     174       0       0       0       0     249       001010001D    251
     100       0       0       1       0                               0D    252
     110     175       0       0       0       0       0       001010001D    253
     110       0       0       2       0                               0D    254
     124     177       0       0       0       0       0       001020001D    255
     124       0       0       2       0                               0D    256
     100     179       0       0       0       0     255       001010001D    257
     100       0       0       1       0                               0D    258
     126     180       0       0       0       0       0       001010001D    259
     126       0       0       4       0                               0D    260
     102     184       0       0       0       0       0       001010001D    261
     102       0       0       1       0                               0D    262
     142     185       0       0       0       0       0       001010001D    263
     142       0       0       1       0                               0D    264
     144     186       0       0   10000       0       0       000000000D    265
     144       0     -49       1       0                PartBody       0D    266
     110     187       0       0       0       0       0       001010001D    267
     110       0       0       1       0                               0D    268
     110     188       0       0       0       0       0       001010001D    269
     110       0       0       2       0                               0D    270
     120     190       0       0       0       0       0       001010001D    271
     120       0     -49       1       0                               0D    272
     124     191       0       0       0       0       0       001020001D    273
     124       0       0       2       0                               0D    274
     100     193       0       0       0       0     273       001010001D    275
     100       0       0       1       0                               0D    276
     126     194       0       0       0       0       0       001010001D    277
     126       0       0       6       0                               0D    278
     124     200       0       0       0       0       0       001020001D    279
     124       0       0       1       0                               0D    280
     100     201       0       0       0       0     279       001010001D    281
     100       0       0       1       0                               0D    282
     126     202       0       0       0       0       0       001010001D    283
     126       0       0       4       0                               0D    284
     102     206       0       0       0       0       0       001010001D    285
     102       0       0       1       0                               0D    286
     142     207       0       0       0       0       0       001010001D    287
     142       0       0       1       0                               0D    288
     144     208       0       0   10000       0       0       000000000D    289
     144       0     -49       1       0                PartBody       0D    290
     110     209       0       0       0       0       0       001010001D    291
     110       0       0       1       0                               0D    292
     110     210       0       0       0       0       0       001010001D    293
     110       0       0       2       0                               0D    294
     120     212       0       0       0       0       0       001010001D    295
     120       0     -49       1       0                               0D    296
     124     213       0       0       0       0       0       001020001D    297
     124       0       0       1       0                               0D    298
     100     214       0       0       0       0     297       001010001D    299
     100       0       0       1       0                               0D    300
     110     215       0       0       0       0       0       001010001D    301
     110       0       0       2       0                               0D    302
     124     217       0       0       0       0       0       001020001D    303
     124       0       0       2       0                               0D    304
     100     219       0       0       0       0     303       001010001D    305
     100       0       0       1       0                               0D    306
     126     220       0       0       0       0       0       001010001D    307
     126       0       0       6       0                               0D    308
     102     226       0       0       0       0       0       001010001D    309
     102       0       0       1       0                               0D    310
     142     227       0       0       0       0       0       001010001D    311
     142       0       0       1       0                               0D    312
     144     228       0       0   10000       0       0       000000000D    313
     144       0     -49       1       0                PartBody       0D    314
     110     229       0       0       0       0       0       001010001D    315
     110       0       0       1       0                               0D    316
     110     230       0       0       0       0       0       001010001D    317
     110       0       0       1       0                               0D    318
     120     231       0       0       0       0       0       001010001D    319
     120       0     -49       1       0                               0D    320
     124     232       0       0       0       0       0       001020001D    321
     124       0       0       2       0                               0D    322
     100     234       0       0       0       0     321       001010001D    323
     100       0       0       1       0                               0D    324
     110     235       0       0       0       0       0       001010001D    325
     110       0       0       2       0                               0D    326
     124     237       0       0       0       0       0       001020001D    327
     124       0       0       2       0                               0D    328
     100     239       0       0       0       0     327       001010001D    329
     100       0       0       1       0                               0D    330
     126     240       0       0       0       0       0       001010001D    331
     126       0       0       4       0                               0D    332
     102     244       0       0       0       0       0       001010001D    333
     102       0       0       1       0                               0D    334
     142     245       0       0       0       0       0       001010001D    335
     142       0       0       1       0                               0D    336
     144     246       0       0   10000       0       0       000000000D    337
     144       0     -49       1       0                PartBody       0D    338
     108     247       0       0       0       0       0       001010001D    339
     108       0     -49       1       0                               0D    340
     110     248       0       0       0       0       0       001010001D    341
     110       0       0       1       0                               0D    342
     124     249       0       0       0       0       0       001020001D    343
     124       0       0       2       0                               0D    344
     100     251       0       0       0       0     343       001010001D    345
     100       0       0       1       0                               0D    346
     124     252       0       0       0       0       0       001020001D    347
     124       0       0       2       0                               0D    348
     100     254       0       0       0       0     347       001010001D    349
     100       0       0       1       0                               0D    350
     102     255       0       0       0       0       0       001010001D    351
     102       0       0       1       0                               0D    352
     142     256       0       0       0       0       0       001010001D    353
     142       0       0       1       0                               0D    354
     144     257       0       0   10000       0       0       000000000D    355
     144       0     -49       1       0                PartBody       0D    356
     110     258       0       0       0       0       0       001010001D    357
     110       0       0       1       0                               0D    358
     124     259       0       0       0       0       0       001020001D    359
     124       0       0       2       0                               0D    360
     100     261       0       0       0       0     359       001010001D    361
     100       0       0       1       0                               0D    362
     124     262       0       0       0       0       0       001020001D    363
     124       0       0       1       0                               0D    364
     100     263       0       0       0       0     363       001010001D    365
     100       0       0       1       0                               0D    366
     124     264       0       0       0       0       0       001020001D    367
     124       0       0       2       0                               0D    368
     100     266       0       0       0       0     367       001010001D    369
     100       0       0       1       0                               0D    370
     102     267       0       0       0       0       0       001010001D    371
     102       0       0       1       0                               0D    372
     142     268       0       0       0       0       0       001010001D    373
     142       0       0       1       0                               0D    374
     144     269       0       0   10000       0       0       000000000D    375
     144       0     -49       1       0                PartBody       0D    376
     110     270       0       0       0       0       0       001010001D    377
     110       0       0       1       0                               0D    378
     110     271       0       0       0       0       0       001010001D    379
     110       0       0       2       0                               0D    380
     120     273       0       0       0       0       0       001010001D    381
     120       0     -49       1       0                               0D    382
     110     274       0       0       0       0       0       001010001D    383
     110       0       0       1       0                               0D    384
     124     275       0       0       0       0       0       001020001D    385
     124       0       0       2       0                               0D    386
     100     277       0       0       0       0     385       001010001D    387
     100       0       0       1       0                               0D    388
     110     278       0       0       0       0       0       001010001D    389
     110       0       0       1       0                               0D    390
     124     279       0       0       0       0       0       001020001D    391
     124       0       0       2       0                               0D    392
     100     281       0       0       0       0     391       001010001D    393
     100       0       0       1       0                               0D    394
     110     282       0       0       0       0       0       001010001D    395
     110       0       0       2       0                               0D    396
     124     284       0       0       0       0       0       001020001D    397
     124       0       0       2       0                               0D    398
     100     286       0       0       0       0     397       001010001D    399
     100       0       0       1       0                               0D    400
     110     287       0       0       0       0       0       001010001D    401
     110       0       0       2       0                               0D    402
     124     289       0       0       0       0       0       001020001D    403
     124       0       0       2       0                               0D    404
     100     291       0       0       0       0     403       001010001D    405
     100       0       0       1       0                               0D    406
     102     292       0       0       0       0       0       001010001D    407
     102       0       0       1       0                               0D    408
     142     293       0       0       0       0       0       001010001D    409
     142       0       0       1       0                               0D    410
     144     294       0       0   10000       0       0       000000000D    411
     144       0     -49       1       0                PartBody       0D    412
     110     295       0       0       0       0       0       001010001D    413
     110       0       0       1       0                               0D    414
     110     296       0       0       0       0       0       001010001D    415
     110       0       0       2       0                               0D    416
     120     298       0       0       0       0       0       001010001D    417
     120       0     -49       1       0                               0D    418
     110     299       0       0       0       0       0       001010001D    419
     110       0       0       1       0                               0D    420
     124     300       0       0       0       0       0       001020001D    421
     124       0       0       2       0                               0D    422
     100     302       0       0       0       0     421       001010001D    423
     100       0       0       1       0                               0D    424
     110     303       0       0       0       0       0       001010001D    425
     110       0       0       1       0                               0D    426
     124     304       0       0       0       0       0       001020001D    427
     124       0       0       2       0                               0D    428
     100     306       0       0       0       0     427       001010001D    429
     100       0       0       1       0                               0D    430
     110     307       0       0       0       0       0       001010001D    431
     110       0       0       2       0                               0D    432
     124     309       0       0       0       0       0       001020001D    433
     124       0       0       2       0                               0D    434
     100     311       0       0       0       0     433       001010001D    435
     100       0       0       1       0                               0D    436
     110     312       0       0       0       0       0       001010001D    437
     110       0       0       2       0                               0D    438
     124     314       0       0       0       0       0       001020001D    439
     124       0       0       2       0                               0D    440
     100     316       0       0       0       0     439       001010001D    441
     100       0       0       1       0                               0D    442
     110     317       0       0       0       0       0       001010001D    443
     110       0       0       1       0                               0D    444
     124     318       0       0       0       0       0       001020001D    445
     124       0       0       1       0                               0D    446
     100     319       0       0       0       0     445       001010001D    447
     100       0       0       1       0                               0D    448
     110     320       0       0       0       0       0       001010001D    449
     110       0       0       1       0                               0D    450
     124     321       0       0       0       0       0       001020001D    451
     124       0       0       1       0                               0D    452
     100     322       0       0       0       0     451       001010001D    453
     100       0       0       1       0                               0D    454
     102     323       0       0       0       0       0       001010001D    455
     102       0       0       1       0                               0D    456
     142     324       0       0       0       0       0       001010001D    457
     142       0       0       1       0                               0D    458
     144     325       0       0   10000       0       0       000000000D    459
     144       0     -49       1       0                PartBody       0D    460
     108     326       0       0       0       0       0       001010001D    461
     108       0     -49       1       0                               0D    462
     124     327       0       0       0       0       0       001020001D    463
     124       0       0       1       0                               0D    464
     100     328       0       0       0       0     463       001010001D    465
     100       0       0       1       0                               0D    466
     110     329       0       0       0       0       0       001010001D    467
     110       0       0       1       0                               0D    468
     102     330       0       0       0       0       0       001010001D    469
     102       0       0       1       0                               0D    470
     142     331       0       0       0       0       0       001010001D    471
     142       0       0       1       0                               0D    472
     144     332       0       0   10000       0       0       000000000D    473
     144       0     -49       1       0                PartBody       0D    474
     108     333       0       0       0       0       0       001010001D    475
     108       0     -49       1       0                               0D    476
     126     334       0       0       0       0       0       001010001D    477
     126       0       0       9       0                               0D    478
     110     343       0       0       0       0       0       001010001D    479
     110       0       0       1       0                               0D    480
     110     344       0       0       0       0       0       001010001D    481
     110       0       0       1       0                               0D    482
     110     345       0       0       0       0       0       001010001D    483
     110       0       0       1       0                               0D    484
     126     346       0       0       0       0       0       001010001D    485
     126       0       0       8       0                               0D    486
     102     354       0       0       0       0       0       001010001D    487
     102       0       0       1       0                               0D    488
     142     355       0       0       0       0       0       001010001D    489
     142       0       0       1       0                               0D    490
     144     356       0       0   10000       0       0       000000000D    491
     144       0     -49       1       0                PartBody       0D    492
     110     357       0       0       0       0       0       001010001D    493
     110       0       0       1       0                               0D    494
     124     358       0       0       0       0       0       001020001D    495
     124       0       0       2       0                               0D    496
     100     360       0       0       0       0     495       001010001D    497
     100       0       0       1       0                               0D    498
     110     361       0       0       0       0       0       001010001D    499
     110       0       0       1       0                               0D    500
     124     362       0       0       0       0       0       001020001D    501
     124       0       0       2       0                               0D    502
     100     364       0       0       0       0     501       001010001D    503
     100       0       0       1       0                               0D    504
     102     365       0       0       0       0       0       001010001D    505
     102       0       0       1       0                               0D    506
     142     366       0       0       0       0       0       001010001D    507
     142       0       0       1       0                               0D    508
     144     367       0       0   10000       0       0       000000000D    509
     144       0     -49       1       0                PartBody       0D    510
     108     368       0       0       0       0       0       001010001D    511
     108       0     -49       1       0                               0D    512
     110     369       0       0       0       0       0       001010001D    513
     110       0       0       1       0                               0D    514
     126     370       0       0       0       0       0       001010001D    515
     126       0       0       6       0                               0D    516
     110     376       0       0       0       0       0       001010001D    517
     110       0       0       1       0                               0D    518
     126     377       0       0       0       0       0       001010001D    519
     126       0       0       6       0                               0D    520
     110     383       0       0       0       0       0       001010001D    521
     110       0       0       1       0                               0D    522
     110     384       0       0       0       0       0       001010001D    523
     110       0       0       1       0                               0D    524
     102     385       0       0       0       0       0       001010001D    525
     102       0       0       1       0                               0D    526
     142     386       0       0       0       0       0       001010001D    527
     142       0       0       1       0                               0D    528
     144     387       0       0   10000       0       0       000000000D    529
     144       0     -49       1       0                PartBody       0D    530
     108     388       0       0       0       0       0       001010001D    531
     108       0     -49       1       0                               0D    532
     110     389       0       0       0       0       0       001010001D    533
     110       0       0       1       0                               0D    534
     126     390       0       0       0       0       0       001010001D    535
     126       0       0       6       0                               0D    536
     110     396       0       0       0       0       0       001010001D    537
     110       0       0       1       0                               0D    538
     126     397       0       0       0       0       0       001010001D    539
     126       0       0       6       0                               0D    540
     110     403       0       0       0       0       0       001010001D    541
     110       0       0       1       0                               0D    542
     110     404       0       0       0       0       0       001010001D    543
     110       0       0       1       0                               0D    544
     102     405       0       0       0       0       0       001010001D    545
     102       0       0       1       0                               0D    546
     142     406       0       0       0       0       0       001010001D    547
     142       0       0       1       0                               0D    548
     144     407       0       0   10000       0       0       000000000D    549
     144       0     -49       1       0                PartBody       0D    550
110,0.0,0.0,76.0,0.0,0.0,77.0,0,0;                                     1P      1
110,1.917702154,-3.510330248,24.0,1.917702154,-3.510330248,            3P      2
137.0,0,0;                                                             3P      3
120,1,3,0.0,6.283185307,0,0;                                           5P      4
110,-1.917702154,3.510330248,137.0,-1.917702154,3.510330248,           7P      5
24.0,0,0;                                                              7P      6
124,-0.4794255386,0.8775825619,0.0,0.0,0.8775825619,                   9P      7
0.4794255386,0.0,0.0,0.0,0.0,-1.0,24.0,0,0;                            9P      8
100,0.0,0.0,0.0,4.0,0.0,-4.0,0.0,0,0;                                 11P      9
110,1.917702154,-3.510330248,24.0,1.917702154,-3.510330248,           13P     10
137.0,0,0;                                                            13P     11
124,0.4794255386,0.8775825619,0.0,0.0,-0.8775825619,                  15P     12
0.4794255386,0.0,0.0,0.0,0.0,1.0,137.0,0,0;                           15P     13
100,0.0,0.0,0.0,4.0,0.0,-4.0,0.0,0,0;                                 17P     14
102,4,7,11,13,17,0,0;                                                 19P     15
142,0,5,0,19,2,0,0;                                                   21P     16
144,5,1,0,21,0,0;                                                     23P     17
110,0.0,0.0,76.0,0.0,0.0,77.0,0,0;                                    25P     18
110,-1.917702154,3.510330248,24.0,-1.917702154,3.510330248,           27P     19
137.0,0,0;                                                            27P     20
120,25,27,0.0,6.283185307,0,0;                                        29P     21
110,1.917702154,-3.510330248,137.0,1.917702154,-3.510330248,          31P     22
24.0,0,0;                                                             31P     23
124,0.4794255386,-0.8775825619,0.0,0.0,-0.8775825619,                 33P     24
-0.4794255386,0.0,0.0,0.0,0.0,-1.0,24.0,0,0;                          33P     25
100,0.0,0.0,0.0,4.0,0.0,-4.0,0.0,0,0;                                 35P     26
110,-1.917702154,3.510330248,24.0,-1.917702154,3.510330248,           37P     27
137.0,0,0;                                                            37P     28
124,-0.4794255386,-0.8775825619,0.0,0.0,0.8775825619,                 39P     29
-0.4794255386,0.0,0.0,0.0,0.0,1.0,137.0,0,0;                          39P     30
100,0.0,0.0,0.0,4.0,0.0,-4.0,0.0,0,0;                                 41P     31
102,4,31,35,37,41,0,0;                                                43P     32
142,0,29,0,43,2,0,0;                                                  45P     33
144,29,1,0,45,0,0;                                                    47P     34
314,37.25490196,0.0,0.0,5HColor,0,0;                                  49P     35
108,0.0,0.0,1.0,137.0,0,0.0,-2.5,137.0,1.0,0,0;                       51P     36
124,-0.4794255386,0.8775825619,0.0,0.0,0.8775825619,                  53P     37
0.4794255386,0.0,0.0,0.0,0.0,-1.0,137.0,0,0;                          53P     38
100,0.0,0.0,0.0,4.0,0.0,-4.0,0.0,0,0;                                 55P     39
124,0.4794255386,-0.8775825619,0.0,0.0,-0.8775825619,                 57P     40
-0.4794255386,0.0,0.0,0.0,0.0,-1.0,137.0,0,0;                         57P     41
100,0.0,0.0,0.0,4.0,0.0,-4.0,0.0,0,0;                                 59P     42
102,2,55,59,0,0;                                                      61P     43
142,0,51,0,61,2,0,0;                                                  63P     44
124,-0.4794255386,-0.8775825619,0.0,0.0,0.8775825619,                 65P     45
-0.4794255386,0.0,0.0,0.0,0.0,1.0,137.0,0,0;                          65P     46
100,0.0,0.0,0.0,2.5,0.0,-2.5,0.0,0,0;                                 67P     47
124,0.4794255386,0.8775825619,0.0,0.0,-0.8775825619,                  69P     48
0.4794255386,0.0,0.0,0.0,0.0,1.0,137.0,0,0;                           69P     49
100,0.0,0.0,0.0,2.5,0.0,-2.5,0.0,0,0;                                 71P     50
102,2,67,71,0,0;                                                      73P     51
142,0,51,0,73,2,0,0;                                                  75P     52
144,51,1,1,63,75,0,0;                                                 77P     53
108,0.0,0.0,1.0,24.0,0,0.0,-2.5,24.0,1.0,0,0;                         79P     54
124,-0.4794255386,-0.8775825619,0.0,0.0,0.8775825619,                 81P     55
-0.4794255386,0.0,0.0,0.0,0.0,1.0,24.0,0,0;                           81P     56
100,0.0,0.0,0.0,4.0,0.0,-4.0,0.0,0,0;                                 83P     57
124,0.4794255386,0.8775825619,0.0,0.0,-0.8775825619,                  85P     58
0.4794255386,0.0,0.0,0.0,0.0,1.0,24.0,0,0;                            85P     59
100,0.0,0.0,0.0,4.0,0.0,-4.0,0.0,0,0;                                 87P     60
102,2,83,87,0,0;                                                      89P     61
142,0,79,0,89,2,0,0;                                                  91P     62
124,-0.4794255386,0.8775825619,0.0,0.0,0.8775825619,                  93P     63
0.4794255386,0.0,0.0,0.0,0.0,-1.0,24.0,0,0;                           93P     64
100,0.0,0.0,0.0,2.5,0.0,-2.5,0.0,0,0;                                 95P     65
124,0.4794255386,-0.8775825619,0.0,0.0,-0.8775825619,                 97P     66
-0.4794255386,0.0,0.0,0.0,0.0,-1.0,24.0,0,0;                          97P     67
100,0.0,0.0,0.0,2.5,0.0,-2.5,0.0,0,0;                                 99P     68
102,2,95,99,0,0;                                                     101P     69
142,0,79,0,101,2,0,0;                                                103P     70
144,79,1,1,91,103,0,0;                                               105P     71
110,0.0,0.0,76.0,0.0,0.0,77.0,0,0;                                   107P     72
110,1.198563847,-2.193956405,0.5,1.198563847,-2.193956405,24.0,      109P     73
0,0;                                                                 109P     74
120,107,109,0.0,6.283185307,0,0;                                     111P     75
124,-0.4794255386,0.8775825619,0.0,0.0,0.8775825619,                 113P     76
0.4794255386,0.0,0.0,0.0,0.0,-1.0,0.5,0,0;                           113P     77
100,0.0,0.0,0.0,2.5,0.0,-2.5,0.0,0,0;                                115P     78
110,1.198563847,-2.193956405,0.5,1.198563847,-2.193956405,24.0,      117P     79
0,0;                                                                 117P     80
124,0.4794255386,0.8775825619,0.0,0.0,-0.8775825619,                 119P     81
0.4794255386,0.0,0.0,0.0,0.0,1.0,24.0,0,0;                           119P     82
100,0.0,0.0,0.0,2.5,0.0,-2.5,0.0,0,0;                                121P     83
110,-1.198563847,2.193956405,24.0,-1.198563847,2.193956405,0.5,      123P     84
0,0;                                                                 123P     85
102,4,115,117,121,123,0,0;                                           125P     86
142,0,111,0,125,2,0,0;                                               127P     87
144,111,1,0,127,0,0;                                                 129P     88
110,0.0,0.0,76.0,0.0,0.0,77.0,0,0;                                   131P     89
110,-1.198563847,2.193956405,0.5,-1.198563847,2.193956405,24.0,      133P     90
0,0;                                                                 133P     91
120,131,133,0.0,6.283185307,0,0;                                     135P     92
124,0.4794255386,-0.8775825619,0.0,0.0,-0.8775825619,                137P     93
-0.4794255386,0.0,0.0,0.0,0.0,-1.0,0.5,0,0;                          137P     94
100,0.0,0.0,0.0,2.5,0.0,-2.5,0.0,0,0;                                139P     95
110,-1.198563847,2.193956405,0.5,-1.198563847,2.193956405,24.0,      141P     96
0,0;                                                                 141P     97
124,-0.4794255386,-0.8775825619,0.0,0.0,0.8775825619,                143P     98
-0.4794255386,0.0,0.0,0.0,0.0,1.0,24.0,0,0;                          143P     99
100,0.0,0.0,0.0,2.5,0.0,-2.5,0.0,0,0;                                145P    100
110,1.198563847,-2.193956405,24.0,1.198563847,-2.193956405,0.5,      147P    101
0,0;                                                                 147P    102
102,4,139,141,145,147,0,0;                                           149P    103
142,0,135,0,149,2,0,0;                                               151P    104
144,135,1,0,151,0,0;                                                 153P    105
108,0.0,0.0,1.0,0.0,0,0.0,0.0,0.0,1.0,0,0;                           155P    106
124,-0.4794255386,-0.8775825619,0.0,0.0,0.8775825619,                157P    107
-0.4794255386,0.0,0.0,0.0,0.0,1.0,0.0,0,0;                           157P    108
100,0.0,0.0,0.0,2.0,0.0,-2.0,0.0,0,0;                                159P    109
124,0.4794255386,0.8775825619,0.0,0.0,-0.8775825619,                 161P    110
0.4794255386,0.0,0.0,0.0,0.0,1.0,0.0,0,0;                            161P    111
100,0.0,0.0,0.0,2.0,0.0,-2.0,0.0,0,0;                                163P    112
102,2,159,163,0,0;                                                   165P    113
142,0,155,0,165,2,0,0;                                               167P    114
144,155,1,0,167,0,0;                                                 169P    115
110,0.0,0.0,-2.0,0.0,0.0,-1.0,0,0;                                   171P    116
110,-0.9588510772,1.755165124,0.0,-1.198563847,2.193956405,0.5,      173P    117
0,0;                                                                 173P    118
120,171,173,0.0,3.141592654,0,0;                                     175P    119
124,-0.4794255386,-0.8775825619,0.0,0.0,0.8775825619,                177P    120
-0.4794255386,0.0,0.0,0.0,0.0,1.0,0.5,0,0;                           177P    121
100,0.0,0.0,0.0,2.5,0.0,-2.5,0.0,0,0;                                179P    122
110,1.198563847,-2.193956405,0.5,0.9588510772,-1.755165124,0.0,      181P    123
0,0;                                                                 181P    124
124,0.4794255386,-0.8775825619,0.0,0.0,-0.8775825619,                183P    125
-0.4794255386,0.0,0.0,0.0,0.0,-1.0,0.0,0,0;                          183P    126
100,0.0,0.0,0.0,2.0,0.0,-2.0,0.0,0,0;                                185P    127
110,-0.9588510772,1.755165124,0.0,-1.198563847,2.193956405,0.5,      187P    128
0,0;                                                                 187P    129
102,4,179,181,185,187,0,0;                                           189P    130
142,0,175,0,189,2,0,0;                                               191P    131
144,175,1,0,191,0,0;                                                 193P    132
110,0.0,0.0,-2.0,0.0,0.0,-1.0,0,0;                                   195P    133
110,0.9588510772,-1.755165124,0.0,1.198563847,-2.193956405,0.5,      197P    134
0,0;                                                                 197P    135
120,195,197,0.0,3.141592654,0,0;                                     199P    136
124,0.4794255386,0.8775825619,0.0,0.0,-0.8775825619,                 201P    137
0.4794255386,0.0,0.0,0.0,0.0,1.0,0.5,0,0;                            201P    138
100,0.0,0.0,0.0,2.5,0.0,-2.5,0.0,0,0;                                203P    139
110,-1.198563847,2.193956405,0.5,-0.9588510772,1.755165124,0.0,      205P    140
0,0;                                                                 205P    141
124,-0.4794255386,0.8775825619,0.0,0.0,0.8775825619,                 207P    142
0.4794255386,0.0,0.0,0.0,0.0,-1.0,0.0,0,0;                           207P    143
100,0.0,0.0,0.0,2.0,0.0,-2.0,0.0,0,0;                                209P    144
110,0.9588510772,-1.755165124,0.0,1.198563847,-2.193956405,0.5,      211P    145
0,0;                                                                 211P    146
102,4,203,205,209,211,0,0;                                           213P    147
142,0,199,0,213,2,0,0;                                               215P    148
144,199,1,0,215,0,0;                                                 217P    149
110,0.0,0.0,154.0,0.0,0.0,155.0,0,0;                                 219P    150
110,0.4,-1.959591794,152.0,0.5,-2.449489743,151.5,0,0;               221P    151
120,219,221,0.0,0.2986420792,0,0;                                    223P    152
124,0.25,0.9682458366,0.0,0.0,-0.9682458366,0.25,0.0,0.0,0.0,        225P    153
0.0,1.0,152.0,0,0;                                                   225P    154
100,0.0,0.0,0.0,2.0,0.0,1.939144093,0.4896122824,0,0;                227P    155
110,0.9588510772,-1.755165124,152.0,1.198563847,-2.193956405,        229P    156
151.5,0,0;                                                           229P    157
124,0.4794255386,-0.8775825619,0.0,0.0,-0.8775825619,                231P    158
-0.4794255386,0.0,0.0,0.0,0.0,-1.0,151.5,0,0;                        231P    159
100,0.0,0.0,0.0,2.5,0.0,2.389342253,0.7355566583,0,0;                233P    160
126,3,3,0,0,1,0,0.0,0.0,0.0,0.0,5.230008322,5.230008322,             235P    161
5.230008322,5.230008322,1.0,1.0,1.0,1.0,0.5,-2.449489743,151.5,      235P    162
0.5,-2.237892401,151.7073222,0.5,-2.074287583,151.8665797,0.5,       235P    163
-1.936491673,152.0,0.0,5.230008322,0.0,0.0,0.0,0,0;                  235P    164
102,4,227,229,233,235,0,0;                                           237P    165
142,0,223,0,237,2,0,0;                                               239P    166
144,223,1,0,239,0,0;                                                 241P    167
110,0.0,0.0,154.0,0.0,0.0,155.0,0,0;                                 243P    168
110,-0.9588510772,1.755165124,152.0,-1.198563847,2.193956405,        245P    169
151.5,0,0;                                                           245P    170
120,243,245,0.0,2.440234733,0,0;                                     247P    171
124,-0.2,-0.9797958971,0.0,0.0,-0.9797958971,0.2,0.0,0.0,0.0,        249P    172
0.0,-1.0,151.5,0,0;                                                  249P    173
100,0.0,0.0,0.0,2.5,0.0,-1.909916714,1.61313922,0,0;                 251P    174
110,-1.198563847,2.193956405,151.5,-0.9588510772,1.755165124,        253P    175
152.0,0,0;                                                           253P    176
124,-0.4794255386,-0.8775825619,0.0,0.0,0.8775825619,                255P    177
-0.4794255386,0.0,0.0,0.0,0.0,1.0,152.0,0,0;                         255P    178
100,0.0,0.0,0.0,2.0,0.0,-1.459718554,1.367194844,0,0;                257P    179
126,3,3,0,0,1,0,0.0,0.0,0.0,0.0,5.230008322,5.230008322,             259P    180
5.230008322,5.230008322,1.0,1.0,1.0,1.0,-0.5,-1.936491673,152.0,     259P    181
-0.5,-2.074287583,151.8665797,-0.5,-2.237892401,151.7073222,         259P    182
-0.5,-2.449489743,151.5,0.0,5.230008322,0.0,0.0,0.0,0,0;             259P    183
102,4,251,253,257,259,0,0;                                           261P    184
142,0,247,0,261,2,0,0;                                               263P    185
144,247,1,0,263,0,0;                                                 265P    186
110,0.0,0.0,154.0,0.0,0.0,155.0,0,0;                                 267P    187
110,1.973292383,-5.892865206E-008,152.0267076,2.5,                   269P    188
-7.465777913E-008,151.5,0,0;                                         269P    189
120,267,269,0.0,1.369438436,0,0;                                     271P    190
124,0.2,0.9797958971,0.0,0.0,0.9797958971,-0.2,0.0,0.0,0.0,0.0,      273P    191
-1.0,151.5,0,0;                                                      273P    192
100,0.0,0.0,0.0,2.5,0.0,1.869693846,1.659591794,0,0;                 275P    193
126,5,5,0,0,1,0,0.0,0.0,0.0,0.0,0.0,0.0,64.47985279,64.47985279,     277P    194
64.47985279,64.47985279,64.47985279,64.47985279,1.0,1.0,1.0,1.0,     277P    195
1.0,1.0,2.0,1.5,151.5,2.0,1.097409594,151.7415542,1.999997578,       277P    196
0.7921439005,151.8735911,1.999999706,0.5125379088,151.9597853,       277P    197
2.000000636,0.2566331214,151.9999994,2.000000629,                    277P    198
-5.972410172E-008,151.9999994,0.0,64.47985279,0.0,0.0,0.0,0,0;       277P    199
124,1.0,0.0,0.0,0.0,0.0,1.0,0.0,0.0,0.0,0.0,1.0,152.0,0,0;           279P    200
100,0.0,0.0,0.0,2.0,0.0,0.5,1.936491673,0,0;                         281P    201
126,3,3,0,0,1,0,0.0,0.0,0.0,0.0,5.230008322,5.230008322,             283P    202
5.230008322,5.230008322,1.0,1.0,1.0,1.0,0.5,1.936491673,152.0,       283P    203
0.5,2.074287583,151.8665797,0.5,2.237892401,151.7073222,0.5,         283P    204
2.449489743,151.5,0.0,5.230008322,0.0,0.0,0.0,0,0;                   283P    205
102,4,275,277,281,283,0,0;                                           285P    206
142,0,271,0,285,2,0,0;                                               287P    207
144,271,1,0,287,0,0;                                                 289P    208
110,0.0,0.0,154.0,0.0,0.0,155.0,0,0;                                 291P    209
110,0.9460467637,-1.731726985,152.0267076,1.198563847,               293P    210
-2.193956405,151.5,0,0;                                              293P    211
120,291,293,0.0,1.070796327,0,0;                                     295P    212
124,0.8,-0.6,0.0,0.0,-0.6,-0.8,0.0,0.0,0.0,0.0,-1.0,151.5,0,0;       297P    213
100,0.0,0.0,0.0,2.5,0.0,2.27522492,1.036026816,0,0;                  299P    214
110,1.198563847,-2.193956405,151.5,0.9588510772,-1.755165124,        301P    215
152.0,0,0;                                                           301P    216
124,0.4794255386,0.8775825619,0.0,0.0,-0.8775825619,                 303P    217
0.4794255386,0.0,0.0,0.0,0.0,1.0,152.0,0,0;                          303P    218
100,0.0,0.0,0.0,2.0,0.0,0.9588510772,1.755165124,0,0;                305P    219
126,5,5,0,0,1,0,0.0,0.0,0.0,0.0,0.0,0.0,64.47984146,64.47984146,     307P    220
64.47984146,64.47984146,64.47984146,64.47984146,1.0,1.0,1.0,1.0,     307P    221
1.0,1.0,2.000000629,-5.972410173E-008,151.9999994,2.000000621,       307P    222
-0.2566331957,151.9999994,1.999999696,-0.5125379633,151.9597852,     307P    223
1.999997587,-0.7921437851,151.8735911,2.0,-1.097409664,              307P    224
151.7415542,2.0,-1.5,151.5,0.0,64.47984146,0.0,0.0,0.0,0,0;          307P    225
102,4,299,301,305,307,0,0;                                           309P    226
142,0,295,0,309,2,0,0;                                               311P    227
144,295,1,0,311,0,0;                                                 313P    228
110,0.0,0.0,154.0,0.0,0.0,155.0,0,0;                                 315P    229
110,-0.4,1.959591794,152.0,-0.5,2.449489743,151.5,0,0;               317P    230
120,315,317,0.0,0.2986420792,0,0;                                    319P    231
124,-0.25,-0.9682458366,0.0,0.0,0.9682458366,-0.25,0.0,0.0,0.0,      321P    232
0.0,1.0,152.0,0,0;                                                   321P    233
100,0.0,0.0,0.0,2.0,0.0,1.939144093,0.4896122824,0,0;                323P    234
110,-0.9588510772,1.755165124,152.0,-1.198563847,2.193956405,        325P    235
151.5,0,0;                                                           325P    236
124,-0.4794255386,0.8775825619,0.0,0.0,0.8775825619,                 327P    237
0.4794255386,0.0,0.0,0.0,0.0,-1.0,151.5,0,0;                         327P    238
100,0.0,0.0,0.0,2.5,0.0,2.389342253,0.7355566583,0,0;                329P    239
126,3,3,0,0,1,0,0.0,0.0,0.0,0.0,5.230008322,5.230008322,             331P    240
5.230008322,5.230008322,1.0,1.0,1.0,1.0,-0.5,2.449489743,151.5,      331P    241
-0.5,2.237892401,151.7073222,-0.5,2.074287583,151.8665797,-0.5,      331P    242
1.936491673,152.0,0.0,5.230008322,0.0,0.0,0.0,0,0;                   331P    243
102,4,323,325,329,331,0,0;                                           333P    244
142,0,319,0,333,2,0,0;                                               335P    245
144,319,1,0,335,0,0;                                                 337P    246
108,0.0,0.0,1.0,152.0,0,0.0,-2.5,152.0,1.0,0,0;                      339P    247
110,-0.5,1.936491673,152.0,-0.5,-1.936491673,152.0,0,0;              341P    248
124,-0.25,-0.9682458366,0.0,0.0,-0.9682458366,0.25,0.0,0.0,0.0,      343P    249
0.0,-1.0,152.0,0,0;                                                  343P    250
100,0.0,0.0,0.0,2.0,0.0,-1.459718554,1.367194844,0,0;                345P    251
124,-0.4794255386,0.8775825619,0.0,0.0,0.8775825619,                 347P    252
0.4794255386,0.0,0.0,0.0,0.0,-1.0,152.0,0,0;                         347P    253
100,0.0,0.0,0.0,2.0,0.0,1.939144093,0.4896122824,0,0;                349P    254
102,3,341,345,349,0,0;                                               351P    255
142,0,339,0,351,2,0,0;                                               353P    256
144,339,1,0,353,0,0;                                                 355P    257
110,0.5,-1.936491673,152.0,0.5,1.936491673,152.0,0,0;                357P    258
124,0.25,0.9682458366,0.0,0.0,0.9682458366,-0.25,0.0,0.0,0.0,        359P    259
0.0,-1.0,152.0,0,0;                                                  359P    260
100,0.0,0.0,0.0,2.0,0.0,0.5,1.936491673,0,0;                         361P    261
124,1.0,0.0,0.0,0.0,0.0,-1.0,0.0,0.0,0.0,0.0,-1.0,152.0,0,0;         363P    262
100,0.0,0.0,0.0,2.0,0.0,0.9588510772,1.755165124,0,0;                365P    263
124,0.4794255386,-0.8775825619,0.0,0.0,-0.8775825619,                367P    264
-0.4794255386,0.0,0.0,0.0,0.0,-1.0,152.0,0,0;                        367P    265
100,0.0,0.0,0.0,2.0,0.0,1.939144093,0.4896122824,0,0;                369P    266
102,4,357,361,365,369,0,0;                                           371P    267
142,0,339,0,371,2,0,0;                                               373P    268
144,339,1,0,373,0,0;                                                 375P    269
110,0.0,0.0,76.0,0.0,0.0,77.0,0,0;                                   377P    270
110,-1.198563847,2.193956405,137.0,-1.198563847,2.193956405,         379P    271
151.5,0,0;                                                           379P    272
120,377,379,0.0,6.283185307,0,0;                                     381P    273
110,-0.5,-2.449489743,151.5,-0.5,-2.449489743,147.0,0,0;             383P    274
124,-0.2,0.9797958971,0.0,0.0,-0.9797958971,-0.2,0.0,0.0,0.0,        385P    275
0.0,1.0,147.0,0,0;                                                   385P    276
100,0.0,0.0,0.0,2.5,0.0,2.3,0.9797958971,0,0;                        387P    277
110,0.5,-2.449489743,147.0,0.5,-2.449489743,151.5,0,0;               389P    278
124,0.2,0.9797958971,0.0,0.0,-0.9797958971,0.2,0.0,0.0,0.0,0.0,      391P    279
1.0,151.5,0,0;                                                       391P    280
100,0.0,0.0,0.0,2.5,0.0,2.389342253,0.7355566583,0,0;                393P    281
110,1.198563847,-2.193956405,151.5,1.198563847,-2.193956405,         395P    282
137.0,0,0;                                                           395P    283
124,0.4794255386,-0.8775825619,0.0,0.0,-0.8775825619,                397P    284
-0.4794255386,0.0,0.0,0.0,0.0,-1.0,137.0,0,0;                        397P    285
100,0.0,0.0,0.0,2.5,0.0,-2.5,0.0,0,0;                                399P    286
110,-1.198563847,2.193956405,137.0,-1.198563847,2.193956405,         401P    287
151.5,0,0;                                                           401P    288
124,-0.4794255386,-0.8775825619,0.0,0.0,0.8775825619,                403P    289
-0.4794255386,0.0,0.0,0.0,0.0,1.0,151.5,0,0;                         403P    290
100,0.0,0.0,0.0,2.5,0.0,-1.909916714,1.61313922,0,0;                 405P    291
102,8,383,387,389,393,395,399,401,405,0,0;                           407P    292
142,0,381,0,407,2,0,0;                                               409P    293
144,381,1,0,409,0,0;                                                 411P    294
110,0.0,0.0,76.0,0.0,0.0,77.0,0,0;                                   413P    295
110,1.198563847,-2.193956405,137.0,1.198563847,-2.193956405,         415P    296
151.5,0,0;                                                           415P    297
120,413,415,0.0,6.283185307,0,0;                                     417P    298
110,0.5,2.449489743,151.5,0.5,2.449489743,147.0,0,0;                 419P    299
124,0.2,-0.9797958971,0.0,0.0,0.9797958971,0.2,0.0,0.0,0.0,0.0,      421P    300
1.0,147.0,0,0;                                                       421P    301
100,0.0,0.0,0.0,2.5,0.0,2.3,0.9797958971,0,0;                        423P    302
110,-0.5,2.449489743,147.0,-0.5,2.449489743,151.5,0,0;               425P    303
124,-0.2,-0.9797958971,0.0,0.0,0.9797958971,-0.2,0.0,0.0,0.0,        427P    304
0.0,1.0,151.5,0,0;                                                   427P    305
100,0.0,0.0,0.0,2.5,0.0,2.389342253,0.7355566583,0,0;                429P    306
110,-1.198563847,2.193956405,151.5,-1.198563847,2.193956405,         431P    307
137.0,0,0;                                                           431P    308
124,-0.4794255386,0.8775825619,0.0,0.0,0.8775825619,                 433P    309
0.4794255386,0.0,0.0,0.0,0.0,-1.0,137.0,0,0;                         433P    310
100,0.0,0.0,0.0,2.5,0.0,-2.5,0.0,0,0;                                435P    311
110,1.198563847,-2.193956405,137.0,1.198563847,-2.193956405,         437P    312
151.5,0,0;                                                           437P    313
124,0.4794255386,0.8775825619,0.0,0.0,-0.8775825619,                 439P    314
0.4794255386,0.0,0.0,0.0,0.0,1.0,151.5,0,0;                          439P    315
100,0.0,0.0,0.0,2.5,0.0,2.27522492,1.036026816,0,0;                  441P    316
110,2.0,-1.5,151.5,2.0,-1.5,147.0,0,0;                               443P    317
124,0.8,0.6,0.0,0.0,-0.6,0.8,0.0,0.0,0.0,0.0,1.0,147.0,0,0;          445P    318
100,0.0,0.0,0.0,2.5,0.0,0.7,2.4,0,0;                                 447P    319
110,2.0,1.5,147.0,2.0,1.5,151.5,0,0;                                 449P    320
124,0.8,-0.6,0.0,0.0,0.6,0.8,0.0,0.0,0.0,0.0,1.0,151.5,0,0;          451P    321
100,0.0,0.0,0.0,2.5,0.0,1.869693846,1.659591794,0,0;                 453P    322
102,12,419,423,425,429,431,435,437,441,443,447,449,453,0,0;          455P    323
142,0,417,0,455,2,0,0;                                               457P    324
144,417,1,0,457,0,0;                                                 459P    325
108,0.0,0.0,1.0,147.0,0,0.0,0.0,147.0,1.0,0,0;                       461P    326
124,0.8,0.6,0.0,0.0,0.6,-0.8,0.0,0.0,0.0,0.0,-1.0,147.0,0,0;         463P    327
100,0.0,0.0,0.0,2.5,0.0,0.7,2.4,0,0;                                 465P    328
110,2.0,-1.5,147.0,2.0,1.5,147.0,0,0;                                467P    329
102,2,465,467,0,0;                                                   469P    330
142,0,461,0,469,2,0,0;                                               471P    331
144,461,1,0,471,0,0;                                                 473P    332
108,-1.0,0.0,0.0,-2.0,0,2.0,-3.521947622,152.0,1.0,0,0;              475P    333
126,8,5,0,0,1,0,64.47984146,64.47984146,64.47984146,64.47984146,     477P    334
64.47984146,64.47984146,95.99911236,95.99911236,95.99911236,         477P    335
128.9596942,128.9596942,128.9596942,128.9596942,128.9596942,         477P    336
128.9596942,1.0,1.0,1.0,1.0,1.0,1.0,1.0,1.0,1.0,2.0,                 477P    337
-4.02257947E-008,151.9999994,2.0,0.125444015,151.9999994,2.0,        477P    338
0.2508880657,151.9901646,2.0,0.3785938595,151.970495,2.0,            477P    339
0.6490990074,151.9082217,2.0,0.9494359203,151.7930347,2.0,           477P    340
1.113746105,151.7181999,2.0,1.294205267,151.6234768,2.0,1.5,         477P    341
151.5,64.47984146,128.9596942,0.0,0.0,0.0,0,0;                       477P    342
110,2.0,1.5,151.5,2.0,1.5,147.0,0,0;                                 479P    343
110,2.0,1.5,147.0,2.0,-1.5,147.0,0,0;                                481P    344
110,2.0,-1.5,147.0,2.0,-1.5,151.5,0,0;                               483P    345
126,8,5,0,0,1,0,0.0,0.0,0.0,0.0,0.0,0.0,32.96057656,32.96057656,     485P    346
32.96057656,64.47984146,64.47984146,64.47984146,64.47984146,         485P    347
64.47984146,64.47984146,1.0,1.0,1.0,1.0,1.0,1.0,1.0,1.0,1.0,2.0,     485P    348
-1.5,151.5,2.0,-1.294205301,151.6234768,2.0,-1.113746164,            485P    349
151.7181999,2.0,-0.9494358536,151.7930347,2.0,-0.6490990292,         485P    350
151.9082217,2.0,-0.3785938942,151.970495,2.0,-0.2508881075,          485P    351
151.9901646,2.0,-0.1254440716,151.9999994,2.0,-4.02257947E-008,      485P    352
151.9999994,0.0,64.47984146,0.0,0.0,0.0,0,0;                         485P    353
102,5,477,479,481,483,485,0,0;                                       487P    354
142,0,475,0,487,2,0,0;                                               489P    355
144,475,1,0,489,0,0;                                                 491P    356
110,-0.5,-2.449489743,147.0,-0.5,2.449489743,147.0,0,0;              493P    357
124,-0.2,0.9797958971,0.0,0.0,0.9797958971,0.2,0.0,0.0,0.0,0.0,      495P    358
-1.0,147.0,0,0;                                                      495P    359
100,0.0,0.0,0.0,2.5,0.0,2.3,0.9797958971,0,0;                        497P    360
110,0.5,2.449489743,147.0,0.5,-2.449489743,147.0,0,0;                499P    361
124,0.2,-0.9797958971,0.0,0.0,-0.9797958971,-0.2,0.0,0.0,0.0,        501P    362
0.0,-1.0,147.0,0,0;                                                  501P    363
100,0.0,0.0,0.0,2.5,0.0,2.3,0.9797958971,0,0;                        503P    364
102,4,493,497,499,503,0,0;                                           505P    365
142,0,461,0,505,2,0,0;                                               507P    366
144,461,1,0,507,0,0;                                                 509P    367
108,1.0,0.0,0.0,0.5,0,0.5,3.019297361,152.0,1.0,0,0;                 511P    368
110,0.5,2.449489743,147.0,0.5,2.449489743,151.5,0,0;                 513P    369
126,5,5,0,0,1,0,0.0,0.0,0.0,0.0,0.0,0.0,5.230008322,5.230008322,     515P    370
5.230008322,5.230008322,5.230008322,5.230008322,1.0,1.0,1.0,1.0,     515P    371
1.0,1.0,0.5,2.449489743,151.5,0.5,2.322531337,151.6243933,0.5,       515P    372
2.210448981,151.7338888,0.5,2.10991804,151.8318136,0.5,              515P    373
2.019169219,151.9199478,0.5,1.936491673,152.0,0.0,5.230008322,       515P    374
0.0,0.0,0.0,0,0;                                                     515P    375
110,0.5,1.936491673,152.0,0.5,-1.936491673,152.0,0,0;                517P    376
126,5,5,0,0,1,0,0.0,0.0,0.0,0.0,0.0,0.0,5.230008322,5.230008322,     519P    377
5.230008322,5.230008322,5.230008322,5.230008322,1.0,1.0,1.0,1.0,     519P    378
1.0,1.0,0.5,-1.936491673,152.0,0.5,-2.019169219,151.9199478,0.5,     519P    379
-2.10991804,151.8318136,0.5,-2.210448981,151.7338888,0.5,            519P    380
-2.322531337,151.6243933,0.5,-2.449489743,151.5,0.0,5.230008322,     519P    381
0.0,0.0,0.0,0,0;                                                     519P    382
110,0.5,-2.449489743,151.5,0.5,-2.449489743,147.0,0,0;               521P    383
110,0.5,-2.449489743,147.0,0.5,2.449489743,147.0,0,0;                523P    384
102,6,513,515,517,519,521,523,0,0;                                   525P    385
142,0,511,0,525,2,0,0;                                               527P    386
144,511,1,0,527,0,0;                                                 529P    387
108,-1.0,0.0,0.0,0.5,0,-0.5,-3.019297361,152.0,1.0,0,0;              531P    388
110,-0.5,-2.449489743,147.0,-0.5,-2.449489743,151.5,0,0;             533P    389
126,5,5,0,0,1,0,0.0,0.0,0.0,0.0,0.0,0.0,5.230008322,5.230008322,     535P    390
5.230008322,5.230008322,5.230008322,5.230008322,1.0,1.0,1.0,1.0,     535P    391
1.0,1.0,-0.5,-2.449489743,151.5,-0.5,-2.322531337,151.6243933,       535P    392
-0.5,-2.210448981,151.7338888,-0.5,-2.10991804,151.8318136,-0.5,     535P    393
-2.019169219,151.9199478,-0.5,-1.936491673,152.0,0.0,                535P    394
5.230008322,0.0,0.0,0.0,0,0;                                         535P    395
110,-0.5,-1.936491673,152.0,-0.5,1.936491673,152.0,0,0;              537P    396
126,5,5,0,0,1,0,0.0,0.0,0.0,0.0,0.0,0.0,5.230008322,5.230008322,     539P    397
5.230008322,5.230008322,5.230008322,5.230008322,1.0,1.0,1.0,1.0,     539P    398
1.0,1.0,-0.5,1.936491673,152.0,-0.5,2.019169219,151.9199478,         539P    399
-0.5,2.10991804,151.8318136,-0.5,2.210448981,151.7338888,-0.5,       539P    400
2.322531337,151.6243933,-0.5,2.449489743,151.5,0.0,5.230008322,      539P    401
0.0,0.0,0.0,0,0;                                                     539P    402
110,-0.5,2.449489743,151.5,-0.5,2.449489743,147.0,0,0;               541P    403
110,-0.5,2.449489743,147.0,-0.5,-2.449489743,147.0,0,0;              543P    404
102,6,533,535,537,539,541,543,0,0;                                   545P    405
142,0,531,0,545,2,0,0;                                               547P    406
144,531,1,0,547,0,0;                                                 549P    407
S      1G      5D    550P    407                                        T      1
